<?xml version="1.0" encoding="UTF-8"?>
<svg width="64px" height="64px" viewBox="0 0 64 64" version="1.1" xmlns="http://www.w3.org/2000/svg" xmlns:xlink="http://www.w3.org/1999/xlink">
    <title>ico_4@1x</title>
    <g id="Page-1" stroke="none" stroke-width="1" fill="none" fill-rule="evenodd">
        <g id="Artboard" transform="translate(-511.000000, -147.000000)">
            <g id="Shape-24" transform="translate(511.000000, 147.000000)">
                <path d="M13.8629443,31.8455557 C17.4417995,38.3236303 24.2210719,42.7075799 31.9839829,42.7075799 C39.7813769,42.7075799 46.5867614,38.2845417 50.1537474,31.7589199 C50.1761976,31.727881 50.1918148,31.6943391 50.2093836,31.6597963 C51.8594426,28.6020405 52.8018516,25.0890625 52.8018516,21.3534715 C52.8018516,21.23182 52.7950191,21.1116731 52.7930669,20.990524 C52.7974593,20.9574832 52.7906268,20.9244424 52.7906268,20.8914003 C52.688626,16.0078853 50.9838952,11.5242277 48.1914012,7.97293001 C48.1669995,7.93438221 48.1411336,7.8993383 48.1094105,7.86629752 C44.2890498,3.06929014 38.4804224,0 31.9848846,0 C29.9536391,0 27.9922341,0.305378284 26.1347777,0.864076494 C26.1079359,0.872086458 26.081093,0.87609144 26.0557155,0.887105461 C21.9092661,2.15317963 18.3031744,4.71087015 15.6770981,8.1045318 C15.6390306,8.14157756 15.6107246,8.18463144 15.5814429,8.22918734 C12.8596639,11.8000935 11.2198498,16.275677 11.1724982,21.1386865 C11.1729862,21.148699 11.1710342,21.1577105 11.1720102,21.1672225 C11.1715222,21.2298002 11.1676179,21.2913769 11.1676179,21.3544506 C11.1676179,25.1211843 12.1271059,28.6605632 13.8025648,31.7358769 C13.8196464,31.7759267 13.8406322,31.8109706 13.8645454,31.8465143 L13.8629443,31.8455557 Z M16.0122564,32.6640715 L22.8375061,34.7011656 L25.9858242,40.2950683 C21.9018439,38.9313239 18.4099457,36.2160101 16.0122564,32.6640715 L16.0122564,32.6640715 Z M31.9831084,41.272284 C30.582426,41.272284 29.2168514,41.1155834 27.8996278,40.8252254 L24.1085026,34.0892941 L27.9767146,27.0785889 L36.0493475,27.0785889 L41.309871,33.0159589 L36.1912773,40.7956206 C34.8354478,41.1045105 33.4285186,41.272284 31.9828585,41.272284 L31.9831084,41.272284 Z M38.2768709,40.1932329 L42.6194733,33.5929711 L48.1397434,32.3894771 C45.7951529,35.9894755 42.3378626,38.7619484 38.2769958,40.1932329 L38.2768709,40.1932329 Z M51.4016303,21.3537457 C51.4016303,24.7329253 50.5744019,27.9169182 49.1210081,30.7073334 L42.4450596,32.1625837 L37.1498033,26.1861251 L39.6319508,18.3489198 L46.7992813,15.0758561 L51.396133,21.1303638 C51.397109,21.2054576 51.4016303,21.2790544 51.4016303,21.3536432 L51.4016303,21.3537457 Z M48.1186288,10.2844878 C49.707718,12.7134934 50.7866844,15.5204412 51.2049775,18.542825 L47.7399411,13.9797086 L48.1186288,10.2844878 Z M46.884864,8.59944762 L46.3616852,13.7058319 L39.1475028,17.0004263 L32.6819503,12.1813755 L31.794689,4.18038239 L37.2226297,2.17789133 C41.0493623,3.27926782 44.4017045,5.55207275 46.884864,8.59931946 L46.884864,8.59944762 Z M31.9834832,1.43507929 C32.8702571,1.43507929 33.7418636,1.50216306 34.5979402,1.62080793 L31.0650624,2.92393299 L28.5160729,1.75948925 C29.6419786,1.55073036 30.7995687,1.43507929 31.9836081,1.43507929 L31.9834832,1.43507929 Z M26.2841767,2.31217678 L30.3871476,4.18599578 L31.2744088,12.1894239 L24.7448879,17.0560218 L17.0714326,15.3829005 L16.8591376,8.88137273 C19.2651978,5.81759345 22.5330817,3.49611358 26.2842266,2.31217678 L26.2841767,2.31217678 Z M15.5228735,10.8061992 L15.682457,15.7027864 L12.6926856,19.1084951 C13.0245465,16.0857268 14.0186548,13.2672447 15.522786,10.8061992 L15.5228735,10.8061992 Z M16.639996,16.7561288 L24.3636764,18.4402718 L26.8337049,26.2374914 L22.9664924,33.2457615 L14.9133499,30.8422596 C13.422837,28.0317234 12.5736319,24.8137683 12.5663855,21.397038 L16.639996,16.7561288 Z M53.8728332,49.4214037 C54.2910889,48.7120157 54.510218,47.8850285 54.4784962,47.034947 C54.4243242,45.6176319 53.7283796,44.3641045 52.5668166,43.5961732 L49.2295919,41.3883708 C48.9514045,41.2036418 48.5843985,41.2441914 48.3521009,41.4879942 C43.9963799,46.0231719 38.1832547,48.5207428 31.9826961,48.5207428 C25.7821374,48.5207428 19.9696369,46.0231719 15.61579,41.4879942 C15.3815309,41.2441966 15.0150121,41.2036341 14.7378117,41.3883708 L11.4000873,43.5961732 C10.2390365,44.36463 9.54213112,45.6176319 9.48890744,47.034947 C9.45718438,47.8870022 9.67680202,48.7160142 10.0970067,49.4264019 C4.41331748,50.1648181 0,55.1455164 0,61.1734951 L0,63.2821021 C0,63.6786018 0.312832794,64 0.6998539,64 L63.3001461,64 C63.6866799,64 64,63.6786018 64,63.2821021 L64,61.1734951 C64,55.1350073 59.571565,50.1467861 53.8731331,49.4214037 L53.8728332,49.4214037 Z" id="Shape" fill="#303337" fill-rule="nonzero"></path>
                <polygon id="Path" fill="#F0AA3B" points="26.4507193 20.3848604 25.726465 18.0990089 31.9831208 13.4361844 38.2397767 18.0990089 37.3759414 20.825857 35.8498211 25.6438826 28.1167704 25.6438826"></polygon>
                <path d="M62.5997675,62.5650502 L1.40003264,62.5650502 L1.40003264,61.174264 C1.40003264,55.5047473 5.84071159,50.8874194 11.3403668,50.7683593 C17.3374011,55.3771005 24.4688744,57.8150773 31.983908,57.8150773 C39.5006907,57.8150773 46.6329136,55.3765878 52.6299478,50.7668214 C58.1438461,50.86995 62.600642,55.4947508 62.600642,61.1747767 L62.5997675,62.5650502 Z" id="Path" fill="#F0AA3B"></path>
                <path d="M12.1584623,44.8021535 L15.0232955,42.9068037 C19.5957843,47.456976 25.5951924,49.9555722 31.9836581,49.9555722 C38.3706245,49.9555722 44.3710321,47.456976 48.9440207,42.9068037 L51.8083541,44.8021535 C52.5809221,45.3132917 53.0445553,46.1473148 53.0797254,47.0900556 C53.1153528,48.0337319 52.715643,48.902358 51.982618,49.4740772 C46.1906073,53.9911844 39.2751522,56.3786664 31.983758,56.3786664 C24.6933634,56.3786664 17.7770337,53.9911844 11.9848981,49.4740772 C11.2518606,48.9023709 10.8521583,48.0338216 10.8877906,47.0896711 C10.923418,46.1469944 11.386569,45.3135096 12.1586622,44.8022816 L12.1584623,44.8021535 Z" id="Path" fill="#F0AA3B"></path>
            </g>
        </g>
    </g>
</svg>