<?xml version="1.0" encoding="UTF-8"?>
<svg width="64px" height="64px" viewBox="0 0 64 64" version="1.1" xmlns="http://www.w3.org/2000/svg" xmlns:xlink="http://www.w3.org/1999/xlink">
    <title>ico_1@1x</title>
    <g id="Page-1" stroke="none" stroke-width="1" fill="none" fill-rule="evenodd">
        <g id="Artboard" transform="translate(-172.000000, -147.000000)">
            <g id="Shape-2" transform="translate(172.000000, 147.000685)">
                <path d="M0,31.9844231 C0,43.9640033 6.61000828,54.8413138 17.2526634,60.3808497 C17.2544027,60.3820088 17.2561419,60.3825882 17.2573016,60.3837473 C17.2648386,60.3878039 17.2723754,60.39244 17.2804926,60.3964964 C19.2592651,61.4187441 21.352323,62.2363819 23.5014848,62.8263855 C26.2078257,63.5693124 29.0064855,63.9477336 31.8213235,63.9633849 C31.880461,63.9767136 31.9366984,63.9993148 31.9998909,63.9993148 C32.0630864,63.9993148 32.1193252,63.9767145 32.1784583,63.9633849 C34.99389,63.947738 37.7918077,63.5693272 40.498297,62.8269641 C42.6243048,62.2445562 44.6952478,61.4378817 46.6526474,60.4295645 C46.6596047,60.4260874 46.6659823,60.4220308 46.6729397,60.4185538 C46.6746791,60.4173948 46.6764183,60.4168153 46.6775779,60.4156563 C57.363424,54.8906591 64,44.0002935 64,31.9851083 C64,14.3487926 49.6446976,0 32.0000497,0 C14.3554508,-0.000685246824 0,14.347959 0,31.9844231 Z M24.6530823,50.400042 C24.9505067,50.2569042 25.2693782,50.1172498 25.6108693,49.9816394 L30.6329023,53.4187034 L26.9791789,56.5253831 L24.6530823,50.400042 Z M31.9976349,52.3384345 L27.765211,49.4415273 C28.8070647,49.1407693 30.1399754,48.7721988 30.5609024,48.6777419 C30.918631,48.5966101 31.1812651,48.2906271 31.206779,47.9238072 C31.3812945,45.3884384 31.198662,45.0071688 31.1203925,44.8442762 C30.9870435,44.5649554 30.7081779,44.383563 30.3991468,44.3731338 C30.3730571,44.3713952 27.7895776,44.2659243 25.6037554,43.0083962 C24.463913,42.3518114 23.4081373,41.6471302 22.0236496,39.655894 C21.644474,39.1099961 21.0189017,39.1812801 20.5614478,39.2334265 C20.1208103,39.2844232 19.6198834,39.340636 19.1699843,39.0555205 C18.2058151,38.4476106 17.7176378,37.6392003 17.9269436,36.994736 C18.1281306,36.3723467 18.9485078,36.0171132 20.0349922,36.0843324 C20.3950362,36.1028766 20.701737,35.904112 20.8397257,35.6039179 C20.851901,35.5778402 20.851901,35.5494438 20.8611772,35.5227861 C20.8849486,35.4532451 20.9133567,35.3860215 20.917995,35.3083701 C20.9185747,35.301416 20.915096,35.2950414 20.915096,35.2880872 C20.9156757,35.2764969 20.9226332,35.2660655 20.9226332,35.2550547 C20.9278511,35.200002 20.9400268,35.1026507 20.9568402,34.9670403 C21.0739546,34.001004 21.3847133,31.4354749 21.3847133,28.5628977 C21.3847133,26.0947333 22.2851053,24.0201519 23.9890878,22.5649481 C24.8332423,21.844037 26.0773962,22.1274227 28.0376158,22.6460799 C29.1989053,22.9543742 30.515534,23.3038219 31.8658844,23.3322169 C34.6105184,23.3878496 35.5190142,23.0940346 36.5691053,22.7492304 C37.1703363,22.5527801 37.7918567,22.3482149 38.9137399,22.1749375 C41.2925117,21.8052098 42.1413416,23.825375 42.8684647,27.6779783 C42.9757239,28.2487998 42.9826805,29.4570387 42.9896386,30.625326 C43.0012341,32.649022 43.0371799,33.8914862 43.2487996,34.6528386 C43.2459007,34.6916658 43.2308271,34.7270155 43.2331454,34.7670014 C43.2540167,35.0874756 43.458095,35.3517236 43.7340723,35.4716826 C43.7653806,35.4966016 43.7914704,35.5296326 43.8256774,35.5510757 C44.1254172,35.7440545 44.4901068,35.7678059 44.8246368,35.6154004 C44.8379717,35.6096053 44.8501478,35.5985949 44.8634821,35.5922201 C45.4635553,35.7115991 45.8931651,36.0338105 46.0526008,36.5275472 C46.2804594,37.2310712 45.9633156,38.2846512 44.7376641,39.0565367 C44.2918169,39.3399224 43.79089,39.2836963 43.3496736,39.232707 C42.8928135,39.1805517 42.2666475,39.1092721 41.8874718,39.6551745 C40.4351253,41.7437012 39.6587554,42.4194534 38.653488,42.997737 C36.4642521,44.2570097 33.5421045,44.3705895 33.5125683,44.3723252 C33.2029733,44.3827564 32.9246806,44.5647255 32.7907439,44.8434677 C32.7124746,45.0063158 32.5298463,45.3876299 32.7049377,47.9229986 C32.7298683,48.2898334 32.9925068,48.5958134 33.3508142,48.6769333 C33.7862273,48.7754492 35.1364886,49.145168 36.184205,49.4453622 L31.9976349,52.3384345 Z M19.3034802,13.4133292 L24.6977575,14.6163906 C24.9812747,14.6807153 25.2775266,14.5903129 25.4781348,14.3811161 C25.6793219,14.1719073 25.7564275,13.8723066 25.6816373,13.5924072 L24.8629966,10.5134696 C27.2702656,10.8321932 32.8598673,11.8248888 36.844722,14.4958827 C37.284187,14.7902762 37.7201789,14.6703172 37.9602082,14.4773384 C38.2640148,14.2333704 38.5359253,14.0148895 38.0622488,12.4276805 C39.6426545,13.2830299 41.6000541,14.5527022 42.3647282,15.8160843 L42.3641485,15.8155049 C44.9609534,20.1096095 45.2097099,29.3892965 45.0391722,31.3718984 C45.007285,31.7364041 44.863499,32.3176548 44.6918926,32.8531235 C44.6588447,32.1154039 44.6536277,31.2543131 44.6501487,30.6168363 C44.6426116,29.3170036 44.636234,28.089627 44.5005682,27.3710005 C44.036747,24.9109956 43.1995535,20.4691304 39.4669582,20.4691304 C39.2112703,20.4691304 38.9416752,20.4899934 38.6581728,20.5334552 C37.4018037,20.7275912 36.6834078,20.9628657 36.0491973,21.1709172 C35.107054,21.4797901 34.3614819,21.723773 31.9003354,21.6704546 C30.7483224,21.6461156 29.5864244,21.3378154 28.462864,21.0399504 C26.4932938,20.5189759 24.4578238,19.9782999 22.9079932,21.3013055 C20.8230985,23.0827395 19.7215046,25.5937782 19.7215046,28.5624888 C19.7215046,30.0605669 19.6333786,31.4773469 19.5342396,32.6115128 C19.3713159,32.191953 19.2350787,31.7480484 19.126077,31.2815494 C19.1249174,31.2769134 19.1237579,31.2716978 19.1225983,31.2670618 C18.9683722,30.6046911 18.4894861,25.2523482 18.1027705,20.6196999 L18.1126267,20.632449 C18.3364186,20.9175704 18.7167519,21.0253495 19.0553488,20.8996047 C19.3939308,20.7744311 19.6130919,20.4446922 19.5974333,20.0836581 L19.3034802,13.4133292 Z M38.3283115,49.9840576 C38.6895132,50.1277755 39.0246221,50.2755434 39.3365474,50.4279622 L37.0208553,56.5256057 L33.362976,53.4159588 L38.3283115,49.9840576 Z M46.931044,58.3702088 C46.6295676,56.4653443 46.1471936,55.001536 45.4833431,54.016911 C43.6993013,51.4444537 42.2493592,49.6544152 38.5062853,48.2693828 C38.4859929,48.2618491 38.4645413,48.2653262 38.444249,48.2595311 C38.3862721,48.2433041 38.3294529,48.2351921 38.2691546,48.2317147 C38.2169751,48.2282377 38.1665336,48.2270787 38.1155074,48.2334533 C38.0749227,48.2386688 38.0366578,48.2462025 37.9966534,48.2577922 C37.4951477,48.0816219 35.453726,47.5055933 34.3277908,47.2106211 C34.3057589,46.7620879 34.2935838,46.3141183 34.2953233,45.9780076 C35.4171917,45.8609475 37.6256336,45.5057081 39.4825509,44.4382421 C40.6287755,43.7787644 41.5546813,43.001642 43.063844,40.8719619 C43.0951523,40.8760185 43.1276198,40.8800751 43.1612465,40.8841317 C43.7334905,40.9496166 44.6877747,41.0579877 45.626994,40.460507 C47.3396444,39.3820481 48.1461738,37.5965343 47.6341152,36.0162682 C47.3604533,35.1719266 46.7586583,34.5506945 45.9498136,34.2001193 C46.4768332,33.0063301 46.6948217,31.5373146 46.6965582,31.5146164 C46.8838233,29.3367807 46.6327825,19.6602469 43.7883624,14.9553502 C43.7883624,14.9547708 43.7877826,14.9547708 43.7877826,14.9547708 C42.1678965,12.2780207 37.1382939,10.1135368 36.9256041,10.0225958 C36.6171667,9.89220609 36.2605958,9.957691 36.0205665,10.1906512 C35.7805372,10.4236114 35.7034316,10.7782663 35.8257616,11.0894683 C35.9631685,11.4394946 36.1040543,11.8237016 36.2304512,12.1888007 C30.8455245,9.28773947 24.1218243,8.74654431 23.8116207,8.72280769 C23.5402891,8.69962738 23.2811281,8.81379019 23.1095068,9.02009413 C22.9373067,9.2269737 22.8764385,9.50455874 22.9454254,9.76475671 L23.724645,12.6953403 L18.6070277,11.5537123 C18.35367,11.4963409 18.0904422,11.561246 17.8921643,11.7281469 C17.6938863,11.8938879 17.5843057,12.143078 17.5958976,12.4015402 L17.8243351,17.5655923 L17.7043219,17.4120163 C17.4782146,17.1228448 17.0909202,17.0179586 16.7471137,17.1500826 C16.4056226,17.2833697 16.191686,17.6252751 16.2212518,17.9903741 C16.3221333,19.2461605 17.2057104,30.1530231 17.4932795,31.5879024 C17.4996571,31.6319457 17.5089337,31.6742488 17.522268,31.7159734 C17.7721526,32.7619873 18.1530648,33.705993 18.638333,34.555616 C17.5112402,34.8308867 16.6613417,35.5106445 16.3469822,36.4824369 C15.8959106,37.8738336 16.6565773,39.4349769 18.2822668,40.4584707 C19.2244101,41.0571085 20.179852,40.9493145 20.7503891,40.8838311 C20.7845961,40.8797745 20.8176425,40.8757179 20.8489508,40.8716614 C22.3407481,42.9422372 23.5576664,43.7472057 24.7745847,44.4472879 C26.58935,45.4921446 28.5745046,45.8508496 29.6156904,45.9725147 C29.6180095,46.3092039 29.6058342,46.7594878 29.5838032,47.2103502 C28.4480276,47.5105296 26.4200234,48.0912017 25.9444768,48.2586785 C25.9038921,48.2470883 25.8650469,48.2389756 25.823303,48.2337595 C25.7676444,48.2262259 25.7137254,48.2285439 25.6569062,48.2326005 C25.6047267,48.2366571 25.5554459,48.2430316 25.5044315,48.2569395 C25.4789206,48.2638936 25.4534111,48.2598371 25.4284806,48.2691093 C21.6848129,49.6541268 20.2354645,51.4435867 18.4444469,54.0259837 C17.7956761,54.99202 17.3161963,56.4431143 17.0089167,58.3352204 C7.518616,52.9336537 1.66200172,42.9524009 1.66200172,31.9845946 C1.66200172,15.2636226 15.2716281,1.66105032 31.9996169,1.66105032 C48.7283479,1.66105032 62.3372321,15.2643644 62.3372321,31.9845946 C62.3372321,42.9859289 56.4577607,52.9796434 46.9309481,58.3708254 L46.931044,58.3702088 Z" id="Shape" fill="#303337" fill-rule="nonzero"></path>
                <path d="M40.7976212,61.0017109 C40.654417,60.8846507 40.4781709,60.804682 40.2787203,60.804682 C39.9186764,60.804682 39.6189366,61.0364851 39.5035527,61.3569592 C37.32248,61.9103936 35.081593,62.2152164 32.8315037,62.2754778 L32.8315037,55.1441041 L36.8412934,58.5528325 C36.9937681,58.6820621 37.1845211,58.7510185 37.3799048,58.7510185 C37.4488977,58.7510185 37.5184708,58.742326 37.5868804,58.7249409 C37.8483568,58.6577187 38.0611357,58.4676358 38.1573878,58.2143956 L40.7918921,51.2770689 C42.1804614,52.2523774 43.051332,53.4258273 44.1110706,54.9534278 C44.6867877,55.8087772 45.1187277,57.2738317 45.373243,59.2018394 C43.9017648,59.9250649 42.3688692,60.5271741 40.7976657,61.0018177 L40.7976212,61.0017109 Z" id="Path" fill="#F0AA3B"></path>
                <path d="M31.1686343,62.2753294 C28.9178623,62.2144806 26.6769752,61.9102452 24.4964963,61.3568109 C24.3811213,61.0363367 24.0819514,60.8045337 23.7213286,60.8045337 C23.5218781,60.8045337 23.3462198,60.8839268 23.2030066,61.000984 C21.6092429,60.5188337 20.0542174,59.9068737 18.5624201,59.1714832 C18.8238965,57.2538603 19.2546788,55.7998434 19.815895,54.9631272 C20.8931178,53.4100098 21.7743335,52.2249586 23.1942942,51.2415204 L25.8427502,58.2147487 C25.9389935,58.4679889 26.1517664,58.6574962 26.4132577,58.725294 C26.4816717,58.7420995 26.5512448,58.7513716 26.6202332,58.7513716 C26.815617,58.7513716 27.0063699,58.6824108 27.1588446,58.5531856 L31.1686343,55.1444572 L31.1686343,62.2753294 Z" id="Path" fill="#F0AA3B"></path>
            </g>
        </g>
    </g>
</svg>