<?xml version="1.0" encoding="UTF-8"?>
<svg width="64px" height="64px" viewBox="0 0 64 64" version="1.1" xmlns="http://www.w3.org/2000/svg" xmlns:xlink="http://www.w3.org/1999/xlink">
    <title>ico_2@1x</title>
    <g id="Page-1" stroke="none" stroke-width="1" fill="none" fill-rule="evenodd">
        <g id="Artboard" transform="translate(-286.000000, -147.000000)">
            <g id="Shape-18" transform="translate(286.000000, 147.000000)">
                <path d="M41.6764825,9.67715529 C42.2240372,12.0453156 44.329824,13.6921028 46.652513,13.6921028 C46.9012098,13.6921028 47.1519632,13.6732759 47.4042494,13.6340516 C50.0105607,13.2313519 51.91155,10.8109495 51.7319445,8.12387479 L51.5144527,4.85935345 C51.4177356,3.40964516 50.7263891,2.05660195 49.6179175,1.1471202 C48.5090005,0.237638448 47.0668897,-0.158259908 45.6612239,0.057736987 L45.1423328,0.137754779 C43.7366671,0.35531813 42.473664,1.1701297 41.6774258,2.37403826 C40.8816853,3.5779602 40.6125128,5.07891972 40.9395102,6.49314845 L41.6764825,9.67715529 Z M42.8938965,3.21358243 C43.4695906,2.34332902 44.3461994,1.77739654 45.3625232,1.62061704 L45.8814143,1.54059925 C46.067688,1.51183537 46.2534376,1.4977145 46.4376676,1.4977145 C47.2579711,1.4977145 48.0454714,1.78013181 48.7004881,2.31723883 C49.5018617,2.9741061 49.9818579,3.91395299 50.0513944,4.96147032 L50.2688862,8.22599167 C50.3963079,10.140683 49.0417518,11.8649897 47.1851988,12.1520395 C45.3265235,12.4396783 43.535577,11.2001965 43.104183,9.33255234 L42.3678002,6.14862985 C42.1313785,5.12618921 42.318674,4.08385324 42.8938572,3.21359983 L42.8938965,3.21358243 Z M59.4042462,18.5046042 C58.6356235,16.5549688 57.0988496,14.9917259 55.186594,14.2172004 L52.119806,12.9745856 C51.7416387,12.8213541 51.3168997,13.0101482 51.1674773,13.3950653 C51.0180549,13.7799824 51.2027866,14.2156339 51.5789064,14.3683433 L54.6456943,15.610958 C56.1860315,16.2348896 57.424406,17.4936509 58.0431347,19.064793 L59.4651759,22.6744702 L54.9158232,25.3804228 L53.3427352,22.188601 C53.2081555,21.916118 52.925673,21.7508636 52.62785,21.7785778 C52.330538,21.8031578 52.076719,22.0097439 51.9871652,22.3010378 L49.1936501,31.3785841 L36.3215249,25.3019393 L40.6359886,16.7662261 C40.8217513,16.398042 40.681021,15.9461796 40.3207684,15.7558084 C39.9594874,15.5659592 39.5178621,15.710831 39.3320993,16.0779628 L37.8521547,19.0061647 L35.1005608,15.2735809 L35.7719528,14.7066576 C37.312814,13.4054548 39.1775154,12.6010461 41.1645739,12.3814744 C41.5673044,12.3370205 41.8589964,11.9672606 41.8149793,11.5556709 C41.7714822,11.1440812 41.4096811,10.8438839 41.0069507,10.890958 C38.7333879,11.1419926 36.6003917,12.0619308 34.8369559,13.550854 L28.9458671,18.5270969 L18.3592259,18.3288799 C17.3690242,18.3053456 16.4264028,18.6918291 15.7166268,19.4046738 C15.0068507,20.1169829 14.6164084,21.0688661 14.6164084,22.0850543 C14.6164084,24.0985529 16.1583176,25.7470806 18.1263806,25.8379886 L27.8738144,26.2877623 C27.9674608,26.2919462 28.060599,26.2940381 28.1537292,26.2940381 C28.7043493,26.2940381 29.2513931,26.2197733 29.7831487,26.071762 L35.0141117,24.6204471 L33.5536865,27.5099561 L21.537668,33.3606028 C20.1498188,34.0357856 19.0368145,35.1968375 18.4027583,36.6282035 L12.5060364,49.94616 C12.0853978,50.8953788 12.0695333,51.9915232 12.4625394,52.9533541 C12.8555494,53.9156535 13.6298053,54.6744475 14.5862344,55.0368746 C15.0017639,55.1937746 15.4311011,55.269085 15.8553292,55.269085 C17.1812139,55.269085 18.4590203,54.5353275 19.115609,53.2885221 L25.2262594,41.6933997 C25.4857115,41.2002204 25.9360354,40.8325584 26.4626033,40.6845484 C27.9610194,40.2619801 29.3472967,39.8744362 30.6009985,39.5266561 C30.684411,39.5177653 30.7678182,39.4978922 30.8476516,39.4581444 C33.3960594,38.7521145 35.3616334,38.2217955 36.5048994,37.9321216 L33.8346585,44.9427491 L26.694453,58.2894909 C25.7114171,60.1273322 26.3249843,62.3985597 28.0919965,63.4608044 C28.6989088,63.8258556 29.3605804,64 30.0125054,64 C31.2657356,64 32.4830972,63.3556778 33.2011264,62.1831787 L41.6959064,48.3100006 L42.8693032,46.5119231 C42.9731849,46.4449806 43.0637646,46.3529345 43.1261877,46.2342186 C43.161497,46.1667525 43.1748017,46.0950985 43.1881077,46.0234566 L48.6395493,37.6718355 C48.8355434,37.3721604 48.9885553,37.0452932 49.0944845,36.7011682 L52.8455029,24.5134702 L55.8504573,30.60993 L53.2774209,39.5928195 C52.6853513,41.6606755 53.7129022,43.8274725 55.6682317,44.6329255 C56.7229133,45.0670079 57.9167728,45.0309259 58.9438389,44.5335573 C59.9708789,44.0356653 60.753781,43.1137054 61.0916385,42.0043332 L63.7096091,33.4115849 C64.1502126,31.9634833 64.0877764,30.3912701 63.5335668,28.9854761 L59.4042462,18.5046042 Z M29.3992434,24.6256988 C28.9243563,24.7574927 28.4351375,24.8129238 27.9402593,24.7904445 L18.1928255,24.3406708 C17.0102191,24.2862799 16.0839339,23.2957374 16.0839339,22.086045 C16.0839339,21.4751941 16.3188229,20.9035715 16.7450946,20.4758085 C17.1713663,20.046961 17.7404186,19.8121398 18.332462,19.8288755 L29.190411,20.0323139 C29.3592874,20.0218542 29.5358275,19.9742627 29.6709312,19.8607803 L33.9679715,16.2307525 L37.1043222,20.4852206 L35.9186373,22.8308882 C35.8961204,22.8350721 35.8741171,22.8293192 35.8510893,22.8355951 L29.3992434,24.6256988 Z M26.0724138,39.2392618 C25.1620455,39.4955313 24.3831259,40.1309636 23.9344395,40.9824463 L17.8237891,52.5775687 C17.3013085,53.5691489 16.1299161,54.0204489 15.0952518,53.6308699 C14.510859,53.4091293 14.0569456,52.964055 13.8164366,52.3756967 C13.5764385,51.7883828 13.585648,51.1445827 13.842535,50.5640969 L19.7392569,37.2461405 C20.2305194,36.1374109 21.0927834,35.2378634 22.1684517,34.714908 L26.6107746,32.5518597 L29.457084,38.2895074 C28.4581836,38.5682562 27.3384981,38.8820562 26.072482,39.2392618 L26.0724138,39.2392618 Z M40.4631297,47.4956905 L31.9565594,61.3876125 C31.2897787,62.4769958 29.9178856,62.8195141 28.8344881,62.1679085 C27.7552433,61.5193957 27.3800891,60.1313817 27.9809228,59.0079515 L35.1436608,45.6194376 C35.1585009,45.5911958 35.1723178,45.5619085 35.1835763,45.5320989 L36.0652942,43.2173588 L41.3617588,46.1178464 L40.4631297,47.4956905 Z M62.307804,32.965538 L59.6898335,41.5577507 C59.4697872,42.2789498 58.9810793,42.8542408 58.3137745,43.1774931 C57.644937,43.5001831 56.9009036,43.5237067 56.2156252,43.2412974 C54.9634167,42.7251033 54.3053346,41.3370491 54.6844582,40.0129251 L57.3383237,30.7466007 C57.3905207,30.5640751 57.3731208,30.3684823 57.2891974,30.1990373 L55.5759359,26.7227096 L60.0177348,24.0806203 L62.1711676,29.5452761 C62.6005048,30.6315264 62.6486092,31.8464939 62.307804,32.9656398 L62.307804,32.965538 Z M7.08335008,42.3846253 C10.9893454,42.3846253 14.1667002,39.1368396 14.1667002,35.1454559 C14.1667002,31.1540721 10.9888214,27.9062864 7.08335008,27.9062864 C3.17787879,27.9062864 0,31.1540721 0,35.1454559 C0,39.1368396 3.17787879,42.3846253 7.08335008,42.3846253 Z" id="Shape" fill="#303337" fill-rule="nonzero"></path>
                <path d="M7.08335008,29.4056661 C10.1798758,29.4056661 12.6995939,31.9802773 12.6995939,35.1454559 C12.6995939,38.3100989 10.1798758,40.8852457 7.08335008,40.8852457 C3.98682436,40.8852457 1.4671063,38.3100989 1.4671063,35.1454559 C1.4671063,31.9802773 3.98630034,29.4056661 7.08335008,29.4056661 Z" id="Path" fill="#F0AA3B"></path>
                <path d="M47.6943825,36.2509455 C47.6304162,36.4590967 47.5377942,36.6567781 47.4190659,36.8382594 L42.1799807,44.8650751 L36.6015969,41.8103518 L39.4938884,34.2170561 C39.6412672,33.8310921 39.453973,33.3964875 39.0763153,33.2463889 C38.7012135,33.0957681 38.2739199,33.2861367 38.1265412,33.6731478 L37.1470817,36.2452152 C36.5749639,36.3639338 35.0770981,36.7342039 30.9029389,37.888923 L27.9359755,31.9074706 L34.407802,28.7559483 C34.5526262,28.6858674 34.6703196,28.5687233 34.744009,28.423324 L35.6472115,26.6356896 L48.7501646,32.8210492 L47.6943825,36.2509455 Z" id="Path" fill="#F0AA3B"></path>
            </g>
        </g>
    </g>
</svg>