<?xml version="1.0" encoding="UTF-8"?>
<svg width="64px" height="64px" viewBox="0 0 64 64" version="1.1" xmlns="http://www.w3.org/2000/svg" xmlns:xlink="http://www.w3.org/1999/xlink">
    <title>ico_3@1x</title>
    <g id="Page-1" stroke="none" stroke-width="1" fill="none" fill-rule="evenodd">
        <g id="Artboard" transform="translate(-400.000000, -147.000000)">
            <g id="ico_3" transform="translate(400.000000, 147.000000)">
                <rect id="Rectangle-Copy-2" x="0" y="0" width="64" height="64"></rect>
                <g id="Shape-21" transform="translate(0.000000, 10.000000)">
                    <path d="M17.9517532,5.61224847e-05 C15.2106207,5.61224847e-05 12.8615365,2.07125642 12.0491478,4.92831182 C11.6909246,4.83897605 11.312005,4.78033085 10.9271064,4.78033085 C8.34987326,4.78033085 6.24399,6.90793425 6.24399,9.51187724 C6.24399,12.1158202 8.34973389,14.2434236 10.9271064,14.2434236 C12.215737,14.2434236 13.3954915,13.7211057 14.2442558,12.8633858 C15.2797344,13.7600266 16.5623999,14.2928254 17.9517811,14.2928254 C21.3635628,14.2928254 24.1466457,11.086127 24.1466457,7.14646884 C24.1466457,3.20681072 21.3635628,5.61224847e-05 17.9517811,5.61224847e-05 L17.9517532,5.61224847e-05 Z M46.0487793,0 C42.6369976,0 39.8539147,3.2067546 39.8539147,7.14641272 C39.8539147,11.0860708 42.6369976,14.2927693 46.0487793,14.2927693 C47.4381327,14.2927693 48.7207842,13.7600407 49.7563046,12.8633296 C50.605041,13.7205164 51.7848374,14.2433675 53.073454,14.2433675 C55.6506872,14.2433675 57.7565704,12.1157641 57.7565704,9.51182112 C57.7565704,6.90787813 55.6508265,4.78027473 53.073454,4.78027473 C52.6885554,4.78027473 52.3101793,4.83836992 51.9514126,4.92825569 C51.1391493,2.0712003 48.7904972,0 46.0488072,0 L46.0487793,0 Z M32.0002663,0.0488349801 C27.6988847,0.0488349801 24.1955368,3.58876071 24.1955368,7.93446501 C24.1955368,12.2801693 27.6988847,15.7954011 32.0002663,15.7954011 C36.3016478,15.7954011 39.8049958,12.280029 39.8049958,7.93446501 C39.8049958,3.58890101 36.3016478,0.0488349801 32.0002663,0.0488349801 L32.0002663,0.0488349801 Z M32.0002663,1.60146352 C35.4579008,1.60146352 38.2441892,4.44098064 38.2441892,7.93446501 C38.2441892,11.4278091 35.4579008,14.2427726 32.0002663,14.2427726 C28.5426317,14.2427726 25.7563433,11.4279494 25.7563433,7.93446501 C25.7563433,4.44112094 28.5426317,1.60146352 32.0002663,1.60146352 L32.0002663,1.60146352 Z M17.9517532,1.6754526 C20.5746998,1.6754526 22.6832311,4.11762252 22.6832311,7.14627241 C22.6832311,10.1749223 20.5741423,12.6170922 17.9517532,12.6170922 C15.3288066,12.6170922 13.2202753,10.1749223 13.2202753,7.14627241 C13.2202753,4.11762252 15.3293641,1.6754526 17.9517532,1.6754526 Z M46.0487793,1.6754526 C48.6717259,1.6754526 50.7802572,4.11762252 50.7802572,7.14627241 C50.7802572,10.1749223 48.6711684,12.6170922 46.0487793,12.6170922 C43.4258328,12.6170922 41.3173015,10.1749223 41.3173015,7.14627241 C41.3173015,4.11762252 43.4263902,1.6754526 46.0487793,1.6754526 Z M10.9274967,6.3576112 C11.226376,6.3576112 11.5083915,6.4277643 11.781139,6.50559216 C11.7653511,6.71440989 11.7566405,6.93309116 11.7566405,7.14628645 C11.7566405,8.88257582 12.298874,10.4653702 13.1954981,11.7051159 C12.6282197,12.3041533 11.8192177,12.6664379 10.9275273,12.6664379 C9.19404116,12.6664379 7.80591427,11.2633758 7.80591427,9.51235428 C7.81843585,7.57991682 9.46260748,6.4026074 10.9275273,6.35827064 L10.9274967,6.3576112 Z M53.0730359,6.3576112 C54.806522,6.3576112 56.1946489,7.76067332 56.1946489,9.51169484 C56.1946489,11.2632776 54.8063966,12.6657785 53.0730359,12.6657785 C52.1812898,12.6657785 51.3717442,12.304055 50.8050651,11.7044564 C51.701717,10.4647248 52.2439227,8.88191638 52.2439227,7.14562701 C52.2439227,6.93188452 52.2357565,6.71375046 52.2194242,6.50493272 C52.5123246,6.40573202 52.8226323,6.3936741 53.0730665,6.35695176 L53.0730359,6.3576112 Z M13.9267427,14.2185473 C12.0991817,14.7183882 10.4604672,15.1393068 9.04878678,15.7711759 C8.6285021,15.3732815 8.22998704,15.3201195 7.9512467,15.3765647 C5.42237498,16.0578215 3.3557941,16.525869 1.95122154,18.3086839 C0.546648971,20.0926774 1.94058966e-05,22.8959955 1.94058966e-05,27.9684859 C-0.00213863143,28.2639007 0.175882509,28.5538294 0.438832208,28.6831777 L3.14623712,30.013898 C3.13589334,30.5471738 3.12173863,31.0656474 3.12173863,31.6406082 C3.11956097,31.9360229 3.29758197,32.2254045 3.56053167,32.3553 L7.39000581,34.2773548 C7.81246467,34.4806865 8.38682308,34.1967881 8.4875459,33.7353098 C9.08694912,31.028382 9.38202364,29.4691591 9.60958726,28.4370666 C9.84368733,29.6905062 10.1632631,31.7742499 10.804575,34.9920325 C10.8595607,35.3088159 11.1252378,35.577376 11.4388207,35.6327268 C12.2750417,35.7724844 13.1760699,35.8727767 14.0971673,35.9527933 C14.0732124,36.826424 14.0481704,37.7186873 14.0481704,38.6882032 C14.0552479,38.975396 14.2310937,39.2527113 14.4869634,39.3782292 L19.1700798,41.7436516 C19.5860162,41.9475306 20.1549252,41.6789789 20.2676199,41.2262725 C20.8272748,38.8629546 21.2546395,36.2744453 21.8038973,33.9812806 C22.4648185,37.0608616 22.9564189,40.3306979 23.4382913,42.778901 C23.5019876,43.0869152 23.7654906,43.3428618 24.072537,43.3949295 C28.866174,44.2016902 35.1322568,44.2016902 39.9258938,43.3949295 C40.2329402,43.3428632 40.4964474,43.0869152 40.5601396,42.778901 C41.2662446,39.9420497 41.4910905,36.7232849 42.1945335,33.9812806 C42.8140758,36.6574813 43.2757394,39.1479165 43.7308109,41.2262725 C43.8304383,41.6482855 44.3225906,41.9267091 44.7309034,41.7929833 L49.4140198,40.2156609 C49.7205227,40.11372 49.9464557,39.802417 49.950818,39.4763173 C49.950818,38.2173917 49.914342,37.0571576 49.877866,35.9522461 C50.8077299,35.8716795 51.7174129,35.773033 52.5607418,35.6321796 C52.8743247,35.5773732 53.1399921,35.3082687 53.1949876,34.9914853 C53.8363133,31.7737027 54.1558752,29.6905763 54.3899753,28.4365194 C54.6175389,29.4685418 54.9126134,31.0278348 55.5120166,33.7347626 C55.611644,34.1562284 56.1037963,34.4351993 56.5121091,34.3014734 L60.3415832,33.0200848 C60.6480861,32.918144 60.8740191,32.6068409 60.8783814,32.2807413 C60.8783814,31.4915188 60.8473492,30.7526663 60.8293844,30.0380868 L63.4632019,29.175428 C63.7697047,29.0734872 63.9956377,28.7621842 64,28.4360845 C64,23.1384025 63.4490558,20.2259262 62.0488176,18.3823025 C60.6485655,16.5379774 58.5776642,16.0574286 56.0487925,15.3761016 C55.5936652,15.2966308 55.2806259,15.5635367 54.9267511,15.7953787 C53.5193911,15.15359 51.8911295,14.7156803 50.0733243,14.2180563 C49.8468478,14.1654414 49.5975006,14.2180563 49.4145773,14.3660372 C48.2375544,15.2517202 47.1323908,15.6474258 46.0490664,15.6474258 C44.9656864,15.6474258 43.8605367,15.2517202 42.6835556,14.3660372 C42.428773,14.1621583 42.1979342,14.1588611 42.0253521,14.2180563 C38.5208892,15.1766283 35.7220574,15.8507996 33.8547759,18.2595767 C33.6794761,18.4859327 33.5226847,18.7435209 33.3669803,18.9989203 C32.3957375,19.269122 31.4300137,19.1419625 30.5376265,18.9748044 C30.4080555,18.7648923 30.2893804,18.548947 30.1472785,18.358776 C28.2843175,15.8666571 25.4811653,15.1771923 21.9767024,14.2186203 C21.7502258,14.1660055 21.5008787,14.2186203 21.3179553,14.3666013 C20.1409324,15.2522842 19.0357688,15.6479898 17.9524445,15.6479898 C16.8690644,15.6479898 15.7639147,15.2522842 14.5869336,14.3666013 C14.33813,14.1561419 14.0828038,14.153406 13.9281866,14.2191675 L13.9267427,14.2185473 Z M14.0241931,15.8452295 C15.2904965,16.7123079 16.6107641,17.2252954 17.951087,17.2252954 C19.2914378,17.2252954 20.6116635,16.7123079 21.8779809,15.8452295 C23.8683263,16.3900385 25.4765187,16.8367174 26.7559368,17.520654 C22.6548302,18.6469341 19.4150313,19.5052854 17.2439228,22.3261418 C15.4124594,24.7053142 14.4641847,28.3417706 14.1706712,34.3519275 C13.5054016,34.2927365 12.8613581,34.220939 12.2440179,34.1299631 C11.7121256,31.3917471 11.3702367,29.3376641 11.1464779,28.141694 C10.9450462,26.9310057 10.7327157,26.1170753 9.65856193,25.7268838 C8.57353729,25.9028137 8.38735268,26.8405643 8.17064601,27.6983263 C7.96485201,28.5922312 7.63439141,30.3460449 7.19505482,32.4051788 L4.70701856,31.1731219 C4.7527487,24.581957 5.55739958,21.1061512 6.99951847,19.2459715 C8.43517059,17.3940698 10.6977059,16.754975 14.0234963,15.8452295 L14.0241931,15.8452295 Z M42.1212193,15.8452576 C43.3875227,16.7123079 44.7077902,17.2252954 46.0481131,17.2252954 C47.3884639,17.2252954 48.7086897,16.7123079 49.975007,15.8452576 C53.3002399,16.7550592 55.5595697,17.3940978 56.9989848,19.3200812 C58.4406299,21.2481692 59.2163642,24.8879929 59.2669556,31.7399871 L56.8525068,32.5533282 C56.3859373,30.3797043 56.0402435,28.6215272 55.827913,27.6984526 C55.6128649,26.6214902 55.3575387,25.9989235 54.3399971,25.72701 C53.1586119,25.9944617 53.0475618,27.2298299 52.8520812,28.1418202 C52.6283224,29.3377062 52.2864334,31.3918733 51.7545411,34.1300894 C51.1371731,34.2210695 50.4931296,34.2928726 49.8278879,34.3520538 C49.507225,28.4318332 48.5490551,24.8089865 46.7791654,22.4249033 C44.6074995,19.4992382 41.3339729,18.6509468 37.2180931,17.5207803 C38.5018178,16.8444623 40.116017,16.3939531 42.1205782,15.8452576 L42.1212193,15.8452576 Z M57.4380009,17.42258 C58.9645223,17.8829527 60.0560695,18.3597834 60.8035117,19.3446348 C61.7763852,20.6260234 62.3349111,23.1691015 62.3888474,27.8710433 L60.8503401,28.3845921 C60.2890546,25.1734038 60.1170161,20.9515899 58.2425849,18.3592923 C57.9921506,18.0085268 57.6834735,17.6955738 57.4379451,17.4231833 L57.4380009,17.42258 Z M6.46336143,17.4466958 C6.210753,17.6911373 5.9821023,17.9684666 5.75616932,18.2600369 C3.59272618,21.2026791 3.43537726,24.9015717 3.12235186,28.31438 L1.58607448,27.501039 C1.6328945,22.9493651 2.19636252,20.5339937 3.17141016,19.2953705 C3.90201646,18.3674834 4.97458141,17.8983415 6.46403041,17.447257 L6.46336143,17.4466958 Z" id="Shape" fill="#303337" fill-rule="nonzero"></path>
                    <path d="M27.2197608,19.0240183 C28.7685814,20.1108442 30.3724534,20.7488025 32.0002969,20.7488025 C33.6281405,20.7488025 35.2314549,20.110297 36.7808331,19.0240183 C40.8894657,20.1552371 43.6998652,20.9439685 45.5120955,23.3855772 C47.3310156,25.8354639 48.3191501,30.3181071 48.3659784,38.9104595 L45.0733582,40.0192013 C44.4712372,37.2076051 44.0455032,35.0185476 43.7809229,33.8583555 C43.5408299,32.6684887 43.2800543,31.8759691 42.1465289,31.5910071 C40.7893004,31.8612088 40.7033508,33.3738782 40.5121349,34.4003584 C40.2355687,35.8922344 39.8196324,38.4188686 39.1461957,41.8920086 C34.7914354,42.5579159 29.2084058,42.5579159 24.8537849,41.8920086 C24.1803482,38.4188686 23.7649554,35.8922344 23.4878457,34.4003584 C23.2532021,33.0351088 23.1236297,31.9959309 21.8534518,31.5910071 C20.6475792,31.7269288 20.4391233,32.9622759 20.2190578,33.8583555 C19.9593693,34.9950603 19.530374,37.1802454 18.9505662,39.8958721 L15.6334168,38.1957818 C15.6753366,29.9456362 16.6438506,25.6493197 18.4627706,23.2868437 C20.2713773,20.9378371 23.1082571,20.1557703 27.2185622,19.0233588 L27.2197608,19.0240183 Z" id="Path" fill="#F0AA3B"></path>
                </g>
            </g>
        </g>
    </g>
</svg>