<?xml version="1.0" encoding="UTF-8"?>
<svg width="64px" height="64px" viewBox="0 0 64 64" version="1.1" xmlns="http://www.w3.org/2000/svg" xmlns:xlink="http://www.w3.org/1999/xlink">
    <title>ico-4@1x</title>
    <g id="Page-1" stroke="none" stroke-width="1" fill="none" fill-rule="evenodd">
        <g id="Artboard" transform="translate(-464.000000, -420.000000)">
            <g id="ico-4" transform="translate(464.000000, 420.000000)">
                <rect id="Rectangle-Copy" x="0" y="0" width="64" height="64"></rect>
                <g id="Shape-4" transform="translate(2.000000, 8.000000)" fill-rule="nonzero">
                    <g id="Shape-2">
                        <path d="M0,46.1455099 L0,48 L60,48 L60,46.1455099 L42.4960933,46.1455099 L42.4960933,22.8163772 L57.1283965,22.8163772 C57.6356851,22.8163772 58.0467638,22.4013247 58.0467638,21.8891322 C58.0429373,17.6404069 56.4297376,13.554453 53.5385423,10.467451 C50.6473469,7.38044911 46.6966531,5.52652415 42.4957434,5.28533446 L42.4957434,3.10911679 L40.6590087,3.10911679 L40.6590087,5.28533446 C36.4575394,5.52652415 32.5062857,7.38044911 29.6139708,10.4668859 C26.721656,13.5538878 25.1074286,17.6398418 25.1019708,21.8891322 C25.1019708,22.4013247 25.5130496,22.8163772 26.0203382,22.8163772 L40.6596385,22.8163772 L40.6596385,46.1455099 L32.5719883,46.1455099 L31.653621,42.5971814 L34.2370845,42.5971814 C35.2478414,42.5502674 36.1624023,41.9790181 36.6548571,41.0866021 C37.1468362,40.1946806 37.1468362,39.1084793 36.6548571,38.2166285 C36.1623324,37.324156 35.2477434,36.7529589 34.2370845,36.7060491 L33.2454717,36.7060491 C33.4766974,36.2484952 33.5986006,35.7423783 33.6007977,35.2285327 C33.6007977,34.3454421 33.2525808,33.4988056 32.6337726,32.8751317 C32.0144187,32.2508927 31.1753003,31.9015279 30.3006647,31.9031811 L11.8115685,31.9031811 L8.00361516,26.0615018 L8.00306855,26.0615018 C7.52092744,25.3252304 6.7698324,24.8119216 5.91429887,24.633721 C5.05824756,24.4554498 4.1672668,24.626546 3.43579158,25.1094878 C2.7071152,25.5962897 2.19873502,26.3546455 2.02210062,27.2190145 C1.84499041,28.0827901 2.01444763,28.9823697 2.49276651,29.720916 L7.041991,36.7062328 L4.89920383,36.7062328 C3.88844697,36.7531468 2.97388604,37.3243962 2.481991,38.2168122 C1.98946622,39.1087336 1.98946622,40.194935 2.481991,41.0867858 C2.97397001,41.9792583 3.88854493,42.5504553 4.89920383,42.5973651 L7.4706324,42.5973651 L6.54624756,46.1456935 L0,46.1455099 Z M42.4960933,20.9611806 L42.4960933,7.30577497 C45.1167813,8.31967595 47.6389504,13.4874088 47.8345889,20.9672563 L42.4960933,20.9611806 Z M56.1857493,20.9611806 L49.6718834,20.9611806 C49.5248327,15.3418989 48.0800466,10.5450924 45.9186472,7.7816548 C48.7470087,8.67688254 51.2407697,10.414395 53.0731662,12.7666656 C54.9055627,15.1185123 55.9906706,17.9752042 56.1857493,20.9611806 Z M37.2068571,7.78221998 C35.0765248,10.5452337 33.6251895,15.3420402 33.484688,20.9611806 L26.9702624,20.9611806 C27.1599534,17.9740739 28.2423044,15.1156864 30.0741691,12.7628506 C31.9065656,10.4100148 34.4020058,8.6736469 37.2314869,7.7816548 L37.2068571,7.78221998 Z M35.3214227,20.9611806 C35.5111137,13.4874088 38.0333528,8.31362854 40.6599184,7.30577497 L40.6599184,20.9672563 L35.3214227,20.9611806 Z M8.8108688,36.044367 L4.02934111,28.7063792 C3.73523965,28.2515805 3.71174344,27.6709591 3.96702367,27.1929739 C4.22230531,26.7144519 4.71593563,26.4158543 5.2538295,26.413099 C5.35331965,26.4042681 5.45390414,26.4042681 5.55338869,26.413099 C5.93002776,26.4892652 6.2618435,26.7111456 6.4783193,27.0312624 L10.5497829,33.2867932 L10.5497829,33.2873451 C10.7208896,33.5484149 11.0106108,33.706255 11.3210995,33.7073712 L30.2999916,33.7073712 C30.7034155,33.6808785 31.1002901,33.82438 31.3949234,34.1036599 C31.6901164,34.3829425 31.8579345,34.7731555 31.8579345,35.1815814 C31.8579345,35.5900072 31.6901164,35.9802202 31.3949234,36.2595029 C31.1002762,36.5387855 30.7034155,36.6822842 30.2999916,36.6563426 L10.0280383,36.6563426 C9.54644292,36.6679332 9.09054087,36.4388762 8.80956595,36.0442548 L8.8108688,36.044367 Z M3.80907289,39.6485068 L3.8085227,39.6479549 C3.8085227,39.3576371 3.92386901,39.0789196 4.1288668,38.8746926 C4.33330762,38.6699286 4.61046213,38.55678 4.8985461,38.5600863 L34.2373216,38.5600863 C34.8031059,38.6031373 35.2398779,39.0789055 35.2398779,39.6512612 C35.2398779,40.2236169 34.8031059,40.6993837 34.2373216,40.7424361 L4.8985461,40.7424361 C4.60937059,40.7457478 4.3316703,40.6314973 4.12668371,40.4256256 C3.92169712,40.2203106 3.80688896,39.9399258 3.8085227,39.6479549 L3.80907289,39.6485068 Z M9.36853644,42.5968988 L29.755242,42.5968988 L30.6736093,46.1452273 L8.44946939,46.1452273 L9.36853644,42.5968988 Z M11.4922915,15.3426054 C13.507172,15.3426054 15.4396268,14.5345705 16.8642332,13.0963056 C18.2893994,11.6584929 19.0901458,9.70749865 19.0907058,7.67356452 C19.0912523,5.63920651 18.2915125,3.68807094 16.8674519,2.24912789 C15.4428455,0.809619667 13.5116501,0.00113261542 11.4966297,1.12860926e-06 C9.48174927,-0.00110153299 7.54929446,0.805818845 6.12356851,2.24305223 C4.69784257,3.68029975 3.89597668,5.63087013 3.89429738,7.66522815 C3.89593735,9.69958616 4.69677901,11.6507217 6.12132945,13.09023 C7.54537609,14.529173 9.4771312,15.3393556 11.4921516,15.3426054 L11.4922915,15.3426054 Z" id="Shape" stroke="#303337" stroke-width="0.5" fill="#303337"></path>
                        <path d="M11.4922915,1.85449239 C13.0207347,1.85449239 14.4857843,2.46713116 15.566414,3.55779743 C16.6465959,4.64897236 17.2539708,6.12865061 17.2539708,7.67130381 C17.2539708,9.21395701 16.6466519,10.6937342 15.566414,11.784245 C14.4856863,12.8754199 13.0207347,13.4881152 11.4922915,13.4881152 C9.96440816,13.4881152 8.4993586,12.8754765 7.41872886,11.784245 C6.33854694,10.6936211 5.73117201,9.21395701 5.73117201,7.67130381 C5.73117201,6.12808543 6.33794519,4.64788439 7.4181691,3.55553672 C8.49889679,2.46381074 9.9638484,1.84954709 11.4922915,1.84785155 L11.4922915,1.85449239 Z" id="Path" fill="#F0AA3B"></path>
                    </g>
                </g>
            </g>
        </g>
    </g>
</svg>