<?xml version="1.0" encoding="UTF-8"?>
<svg width="64px" height="64px" viewBox="0 0 64 64" version="1.1" xmlns="http://www.w3.org/2000/svg" xmlns:xlink="http://www.w3.org/1999/xlink">
    <title>ico-3@1x</title>
    <g id="Page-1" stroke="none" stroke-width="1" fill="none" fill-rule="evenodd">
        <g id="Artboard" transform="translate(-365.000000, -420.000000)">
            <g id="ico-3" transform="translate(365.000000, 420.000000)">
                <rect id="Rectangle-Copy" x="0" y="0" width="64" height="64"></rect>
                <g id="Shape-17" transform="translate(2.000000, 2.000000)" fill="#303337" fill-rule="nonzero" stroke="#303337">
                    <g id="Shape-16">
                        <path d="M13.1973937,3.64956654 C17.2399663,-0.857101865 24.3389194,-1.23598597 29.1065475,2.76929231 L29.2503019,2.8920066 L31.1122035,4.50658619 L31.2364501,4.47277405 C31.2583835,4.46691641 31.2809234,4.46095407 31.3040602,4.45489663 L31.4499689,4.41748814 C31.5009423,4.40468969 31.5542276,4.39158799 31.6097487,4.3782601 L31.7829436,4.33767494 C34.5091567,3.71417962 41.7067158,2.78197544 46.2142052,8.800792 C48.2844044,11.5655322 48.7522222,14.5288826 48.5156831,17.1742663 L48.5083005,17.2543316 L48.5102374,17.2546113 C54.9647762,18.4032825 59.9004445,24.0060469 59.9985124,30.7721473 L60,30.9775333 L59.9989537,59.2497529 C59.9989537,59.6542534 59.6788863,59.9839612 59.2781885,60 L59.2487287,60 L30.7094812,60 C30.3049927,60 29.9752946,59.6799231 29.959824,59.2792135 L29.9592562,59.2497529 L29.9592562,30.9775333 C29.9592562,30.3178259 30.0209848,29.6601944 30.113062,29.0088311 L30.0419114,29.0182483 L30.0419114,29.0182483 C27.0238852,29.2610334 24.1089238,28.3180134 21.8108192,26.3579923 L21.7376855,26.2950934 L20.5977094,25.3062823 L6.8805489,41.1038487 C6.14500266,41.955069 5.11593437,42.3992491 4.09680372,42.3992491 C3.36058784,42.3992491 2.63030507,42.1679979 2.01820257,41.6908565 C1.25595059,41.0965894 0.784571528,40.2411636 0.690402324,39.2816439 C0.599304845,38.3563608 0.887708041,37.4220029 1.48214919,36.708833 L1.52223119,36.6616185 L2.08725712,36.0081658 L0.746345089,34.8451328 C-0.143407985,34.0729972 -0.251136814,32.7281778 0.495957153,31.8250758 L0.527141061,31.7882133 L1.12982825,31.091339 C1.50802116,30.653427 2.03485013,30.3892266 2.61190302,30.3478958 C3.16939202,30.302795 3.71265284,30.4806006 4.14369079,30.8365999 L4.18505052,30.8716062 L5.52435539,32.0330722 L6.88924099,30.4541192 L5.54832895,29.2910861 C4.65857588,28.519479 4.55084705,27.1746668 5.29794101,26.2715649 L5.32912492,26.2347024 L5.93181211,25.5378281 C6.31054074,25.0993937 6.83684738,24.8351933 7.4144226,24.7938625 C7.96625077,24.7553931 8.51321229,24.9266223 8.94431447,25.2814764 L8.98703438,25.3175729 L10.3294197,26.4816507 L15.3397592,20.7460425 L14.2018724,19.7587984 C11.8926429,17.7560768 10.5156768,14.9717139 10.3247187,11.9184106 C10.1326624,8.86470551 11.1533466,5.92805912 13.1973937,3.64956654 Z M28.267378,4.02371118 C24.1147293,0.421102605 17.8544166,0.70249885 14.3131606,4.65048414 C12.5407379,6.62708851 11.6555377,9.17505717 11.8213839,11.8233427 C11.9853056,14.4420638 13.1545694,16.8327435 15.1162853,18.5651892 L15.1842445,18.6246672 L16.890251,20.1047766 C17.0409268,20.235577 17.133004,20.4207815 17.1471297,20.6195938 C17.1598865,20.8059803 17.1027423,20.9900596 16.9873494,21.1360644 L16.9634976,21.1647471 L10.9664922,28.030494 C10.7028214,28.3338768 10.2479658,28.372291 9.93589114,28.1250087 L9.91022259,28.1037401 L8.00332031,26.4499177 C7.86938983,26.3332514 7.70093206,26.270992 7.52095627,26.2893035 C7.3554289,26.3010166 7.2040289,26.3724422 7.08972454,26.4912319 L7.0658069,26.5174073 L6.46311971,27.2148039 C6.22953955,27.4854668 6.25125923,27.8911589 6.50673975,28.1353165 L6.53060862,28.1570594 L8.4375109,29.8108818 C8.74139686,30.0745603 8.78180168,30.5294294 8.53463397,30.8419943 L8.51337047,30.8677048 L6.16744405,33.5809486 C6.03770559,33.7321498 5.85250651,33.8247534 5.65422243,33.8388795 C5.46932302,33.848686 5.28441184,33.7954981 5.13787047,33.6810395 L5.10908517,33.6573314 L3.20164717,32.003509 C3.07922131,31.897832 2.92698253,31.8408054 2.76741775,31.8408054 C2.7512001,31.8408054 2.73550479,31.8413287 2.71876348,31.842375 C2.55372362,31.854088 2.40235612,31.9255137 2.28805392,32.0443034 L2.26413644,32.0704788 L1.66144925,32.7678754 C1.42786908,33.0385383 1.44958876,33.4447224 1.70506929,33.688909 L1.72893816,33.7106532 L3.63584043,35.3639399 C3.93972639,35.6276184 3.98013121,36.0824874 3.7329635,36.3950524 L3.7117,36.4207629 L2.65647509,37.6413476 C2.29757754,38.0568122 2.12964077,38.5868041 2.18300403,39.1340468 C2.23688427,39.6807672 2.5057899,40.1678599 2.94054165,40.5068748 C3.74312797,41.1326783 4.97794084,40.9737601 5.71518335,40.1577453 L5.74785859,40.1207686 L19.956544,23.7566595 C20.2202147,23.452259 20.6755648,23.4123338 20.9886284,23.6604974 L21.0143805,23.6818451 L22.7203871,25.1619545 C24.7000305,26.8789582 27.2216038,27.7176852 29.8297419,27.5300467 L29.9207579,27.5230846 C32.5614573,27.3086142 34.9517147,26.067042 36.6510247,24.0266849 C40.0124764,19.9916837 39.4416143,13.8293349 35.3987307,10.2104031 L35.2751568,10.1015218 L28.267378,4.02371118 Z M44.9805983,22.949197 C43.5445554,22.949197 42.37632,24.1106764 42.37632,25.5378817 C42.37632,26.965087 43.5444617,28.1260307 44.9805983,28.1260307 C45.6525378,28.1260307 46.2659171,27.8716637 46.7283341,27.4546875 L46.7904466,27.3968278 C47.2797218,26.926025 47.5843409,26.2666674 47.5843409,25.5378817 C47.5843409,24.7358555 47.2076614,24.0269539 46.6300862,23.5519019 L46.5757454,23.6600895 L46.5757454,23.6600895 L46.5220737,23.765401 L46.5220737,23.765401 L46.4691459,23.8677916 L46.4691459,23.8677916 L46.4170371,23.9672162 L46.4170371,23.9672162 L46.3405737,24.110694 L46.3405737,24.110694 L46.2663748,24.2472457 L46.2663748,24.2472457 L46.2182921,24.3343576 L46.2182921,24.3343576 L46.1257837,24.4989651 L46.1257837,24.4989651 L46.0598976,24.6138294 L46.0598976,24.6138294 L45.9574953,24.7884564 L45.9574953,24.7884564 L45.8482792,24.9694019 L45.8482792,24.9694019 L45.7291749,25.1601259 L45.7291749,25.1601259 L45.629662,25.3132682 L45.629662,25.3132682 L45.5942142,25.3657759 L45.5942142,25.3657759 C45.4482568,25.5734774 45.2159677,25.6849149 44.9800224,25.6849149 C44.8314533,25.6849149 44.6812998,25.640971 44.549985,25.5488911 C44.2194319,25.3170641 44.1328725,24.8680387 44.3482783,24.530641 L44.4244196,24.4165662 L44.4244196,24.4165662 L44.525301,24.2587478 L44.525301,24.2587478 L44.6159515,24.1118484 L44.6159515,24.1118484 L44.667511,24.0263734 L44.667511,24.0263734 L44.7421344,23.9002961 L44.7421344,23.9002961 L44.8229065,23.7607263 L44.8229065,23.7607263 L44.9092073,23.608044 L44.9092073,23.608044 L44.9771882,23.4851557 L44.9771882,23.4851557 L45.0476686,23.3552656 L45.0476686,23.3552656 L45.1203871,23.2185338 L45.1203871,23.2185338 L45.1950821,23.0751208 L45.1950821,23.0751208 L45.2458476,22.9758794 L45.2458476,22.9758794 C45.1574267,22.9669848 45.0716295,22.949197 44.9805983,22.949197 Z M21.8432763,4.73159604 C23.7157463,4.59599757 25.536385,5.19025314 26.9698763,6.40422067 L27.0357613,6.46068958 L33.0500437,11.6773018 C36.0294078,14.260814 36.3548589,18.7906105 33.7745541,21.7737321 C32.5247148,23.2197954 30.7862971,24.0914139 28.8814038,24.2284824 C28.706678,24.2410381 28.5324613,24.2473163 28.3592891,24.2473163 C26.6708752,24.2473163 25.0562486,23.6572582 23.7564821,22.5567173 L23.6895349,22.499338 L17.6747167,17.2832615 C14.6952723,14.6992644 14.3708926,10.1700037 16.9506617,7.18634634 C18.200501,5.74028305 19.938383,4.86866454 21.8432763,4.73159604 Z M26.0532606,7.59350701 C24.9127086,6.60524501 23.4556788,6.12130374 21.9511037,6.22750973 C20.4459929,6.33572875 19.0732054,7.02478123 18.0854681,8.16688032 C16.0665552,10.502808 16.2976078,14.0355164 18.5877775,16.0882926 L18.6578066,16.1500422 L24.6726248,21.3661187 C25.8126411,22.3554254 27.2691352,22.8414614 28.7737102,22.732116 C30.2527841,22.6262579 31.6050305,21.958558 32.5893005,20.8504533 L32.6398816,20.7927454 C34.6593249,18.4578785 34.4277525,14.9246556 32.1375724,12.871869 L32.0675431,12.8101193 L26.0532606,7.59350701 Z M36.290599,5.36501484 C35.6576934,5.34705703 35.0541211,5.37099664 34.4978437,5.41917929 L34.3141942,5.43611384 C34.253578,5.44204184 34.1935703,5.44824493 34.1341958,5.45469887 L33.9579964,5.47478908 L33.9579964,5.47478908 L33.7857438,5.49623915 C33.7573722,5.49991941 33.7291712,5.50365028 33.7011438,5.50742873 L33.5350886,5.53064617 L33.5350886,5.53064617 L33.3733498,5.55486021 L33.3733498,5.55486021 L33.2160752,5.57992556 L33.2160752,5.57992556 L33.0634127,5.60569692 C33.0383614,5.61004291 33.0135086,5.61441226 32.9888571,5.61880194 L32.8433898,5.64535986 L32.8433898,5.64535986 L32.7029041,5.67226052 L32.7029041,5.67226052 L32.5675478,5.69935863 L32.5675478,5.69935863 L32.5018395,5.71293631 L36.2581878,8.97075747 C38.841573,11.2110787 40.2170311,14.3475553 40.3227103,17.4986307 C41.4367976,17.2033149 42.584458,17.0400982 43.7460216,17.0275134 L43.8912881,17.0267261 L46.0671228,17.0267261 C46.2969475,17.0267261 46.5232941,17.0403396 46.7492229,17.0559361 L47.0203328,17.0748595 L47.0203328,17.0748595 C47.2312734,14.7272567 46.8231872,12.1166068 45.0140541,9.70056352 C42.9661833,6.96578981 40.0695513,5.50885158 36.4021296,5.36881246 L36.290599,5.36501484 Z" id="Shape"></path>
                    </g>
                </g>
                <path d="M48.0675165,20.5255518 L45.8916818,20.5255518 C44.6731823,20.5255518 43.4694017,20.7013274 42.3137289,21.0487265 C42.3011729,21.0523888 42.2891398,21.0487265 42.2771069,21.0518657 C42.0600056,23.1832982 41.2479851,25.2544603 39.8040805,26.987304 C38.199995,28.9126115 36.057643,30.2080253 33.6641712,30.7547457 C33.541617,31.4364005 33.4696431,32.1317876 33.4605913,32.8280467 L33.4596192,32.9772537 L33.4596192,60.4994404 L60.4988452,60.4994404 L60.4985291,32.9778754 C60.4985291,26.8738136 56.0877964,21.7921939 50.2926242,20.7369379 C50.0462055,22.0044933 49.6653474,23.1628789 49.2656453,24.1443638 C50.3611297,24.8788602 51.0836177,26.1256559 51.0836177,27.5377266 C51.0836177,29.7915752 49.2426092,31.6258073 46.9798537,31.6258073 C44.7165623,31.6258073 42.8755539,29.792111 42.8755539,27.5377266 C42.8755539,25.2833422 44.7166963,23.4491101 46.9798537,23.4491101 C47.2947912,23.4491101 47.5998045,23.4878252 47.8943444,23.5547924 C48.2469566,22.6878349 48.5817828,21.6707903 48.8046565,20.5626972 C48.6001893,20.5509266 48.3975358,20.5329783 48.1915494,20.5273224 L48.0675165,20.5255518 Z" id="Path" stroke="#303337" fill="#F0AA3B" fill-rule="nonzero"></path>
            </g>
        </g>
    </g>
</svg>