<?xml version="1.0" encoding="UTF-8"?>
<svg width="64px" height="64px" viewBox="0 0 64 64" version="1.1" xmlns="http://www.w3.org/2000/svg" xmlns:xlink="http://www.w3.org/1999/xlink">
    <title>ico-6@1x</title>
    <g id="Page-1" stroke="none" stroke-width="1" fill="none" fill-rule="evenodd">
        <g id="Artboard" transform="translate(-670.000000, -420.000000)">
            <g id="ico-6" transform="translate(670.000000, 420.000000)">
                <rect id="Rectangle-Copy" x="0" y="0" width="64" height="64"></rect>
                <g id="noun-no-phone-5599063-4" transform="translate(6.000000, 2.000000)" fill-rule="nonzero">
                    <g id="noun-no-phone-5599063">
                        <path d="M39.2419678,0 C40.8328973,0.00183683433 42.3580691,0.656227434 43.4829854,1.81907827 C44.5905369,2.96402703 45.2212764,4.51011966 45.2421885,6.12725787 L45.2427216,6.203112 L45.2427216,38.2766886 C45.2242417,39.1056886 44.5689754,39.7677082 43.7670545,39.7677082 C42.977284,39.7677082 42.3297863,39.1255622 42.2926657,38.314252 L42.2913875,38.2766886 L42.2913875,6.20236575 C42.2904635,5.36672859 41.9688541,4.56552594 41.3969132,3.97477553 C40.8384456,3.39698454 40.0855173,3.06633942 39.2970561,3.05071567 L39.2419915,3.05013762 L38.1462285,3.05013762 L37.7913079,5.33515953 C37.5687199,6.79213652 36.8482054,8.11809824 35.7607702,9.07287248 C34.6921653,10.0112212 33.3383333,10.5300468 31.937419,10.539032 L20.0617703,10.5390306 C18.6608583,10.5300192 17.3070857,10.0111646 16.2379453,9.07238266 C15.169224,8.13357663 14.4553949,6.83629601 14.2198369,5.40846837 L14.2078814,5.33320024 L14.2083442,5.33320024 L13.8534236,3.05001516 C10.0715019,2.73699978 9.66978597,5.04895389 9.67478207,7.76042045 L9.67571804,7.94588613 C9.67596744,7.97689155 9.67626064,8.00794202 9.67659326,8.03903429 L9.67902724,8.22606329 L9.67902724,8.22606329 L9.68399439,8.50814458 L9.68399439,8.50814458 L9.69863697,9.19891782 C9.70146138,9.33793454 9.70401095,9.47698286 9.70591509,9.61578545 L9.70824093,9.82377036 L51.5865269,53.0114192 C52.1447452,53.6103501 52.1364174,54.5594057 51.5695585,55.1472906 C51.0117045,55.7253787 50.1150721,55.7451847 49.5336031,55.1994444 L49.5043117,55.1712075 L45.2424451,50.7766425 L45.2424451,53.796888 C45.2378251,55.4403649 44.6043201,57.0151197 43.4798658,58.177493 C42.3732007,59.3220077 40.8789373,59.9744689 39.3155007,59.9992964 L39.2421652,60 L12.757869,60 C11.1669395,59.9981632 9.64176768,59.3437726 8.51685143,58.1809217 C7.40919493,57.035973 6.77890169,55.4898803 6.75800339,53.8727421 L6.75747062,53.796888 L6.75747062,19.404002 C6.76066906,18.5635768 7.42011702,17.8843277 8.23313765,17.8843277 C9.03402364,17.8843277 9.68584747,18.5434282 9.7082228,19.3664794 L9.70880468,19.404002 L9.70880468,53.796888 C9.70972868,54.6325252 10.0313381,55.4337278 10.602817,56.0244782 C11.1617477,56.6022692 11.914234,56.9329142 12.7026748,56.9485381 L12.7577387,56.9491161 L39.2420349,56.9491161 C40.0494642,56.9443404 40.8222673,56.6104529 41.3932842,56.0206576 C41.950872,55.443836 42.272018,54.6677737 42.2906465,53.8537177 L42.2914545,53.7968635 L42.2909918,47.7333509 L0.412705824,4.54570209 C-0.144434592,3.94775129 -0.13656879,2.99869573 0.430752152,2.41081077 C0.988140151,1.8327215 1.88521158,1.81291545 2.466256,2.3582017 L2.49552508,2.38641517 L6.75739172,6.7814699 C6.62826938,5.045539 7.20022214,3.33213994 8.33671201,2.04733555 C9.4571046,0.78110324 11.027466,0.0431165016 12.6845116,0.00138867415 L12.7576716,0 L39.2419678,0 Z M30.5250003,49 C31.3450933,49.0187876 32,49.6849538 32,50.4997591 C32,51.3026815 31.3647534,51.9609617 30.5621601,51.9987006 L30.5250003,52 L21.4749997,52 C20.6549067,51.9816941 20,51.3155038 20,50.4997591 C20,49.6968487 20.6352466,49.0385674 21.4378399,49.0012784 L21.4749997,49 L30.5250003,49 Z" id="Shape" stroke="#FFFFFF" stroke-width="0.5" fill="#303337"></path>
                        <path d="M35,3 L17,3 L17.2751053,5.02842596 C17.3874267,5.86206554 17.7480099,6.61975918 18.2913991,7.16512146 C18.8205552,7.69574422 19.4883208,7.99017053 20.179926,7.99974137 L31.7628648,7.99987851 C32.4744625,8.00688678 33.1647577,7.71048374 33.7081469,7.16619753 C34.2368499,6.63612512 34.5929312,5.90454733 34.7152443,5.09798969 L34.7248947,5.0306057 L35,3 Z" id="Path" fill="#F0AA3B"></path>
                    </g>
                </g>
            </g>
        </g>
    </g>
</svg>