<?xml version="1.0" encoding="UTF-8"?>
<svg width="64px" height="64px" viewBox="0 0 64 64" version="1.1" xmlns="http://www.w3.org/2000/svg" xmlns:xlink="http://www.w3.org/1999/xlink">
    <title>ico-7@1x</title>
    <g id="Page-1" stroke="none" stroke-width="1" fill="none" fill-rule="evenodd">
        <g id="Artboard" transform="translate(-766.000000, -420.000000)">
            <g id="Group" transform="translate(766.000000, 420.000000)">
                <rect id="Rectangle-Copy-2" x="0" y="0" width="64" height="64"></rect>
                <g id="Shape-7" transform="translate(2.000000, 4.000000)" fill-rule="nonzero">
                    <g id="Shape-5">
                        <path d="M57.1403498,10.6266637 L51.4213826,10.6266637 C51.8882786,7.54920229 51.1767738,4.01726296 49.3961308,1.91952908 C47.7745723,0.00985904764 45.5294381,-0.496152793 43.0665643,0.497682445 L35.3893697,3.59461482 C34.4704587,2.67599346 33.2120931,2.15819411 31.89887,2.15866048 L28.0321772,2.15866048 C26.728716,2.15774955 25.4791838,2.66738893 24.5616776,3.57421112 L16.9332928,0.497216074 C14.4732762,-0.496094497 12.2252849,0.00943931432 10.6037263,1.91906271 C8.82311904,4.01679659 8.11251901,7.54920229 8.57752215,10.6261973 L2.85998358,10.6266527 C2.10197847,10.6284745 1.3755688,10.9240571 0.839850904,11.4491785 C0.303668715,11.9738452 0.00185715539,12.6856429 0,13.4276382 L0,19.1042982 C0.0018601316,19.8466665 0.303668715,20.5580912 0.839850904,21.0832242 C1.3755688,21.6078909 2.10200228,21.9039311 2.85998358,21.9052952 L3.77470404,21.9052952 L3.77470404,51.0056398 C3.77470404,53.7596734 6.36674533,56 9.55224301,56 L50.447757,56 C53.6332547,56 56.225296,53.7596734 56.225296,51.0056398 L56.225296,21.9052952 L57.1400164,21.9052952 C57.8980215,21.903929 58.6244312,21.6078909 59.1601491,21.0832242 C59.6963313,20.5581028 59.9981428,19.8467598 60,19.1042982 L60,13.4276382 C59.9981399,12.6857245 59.6963313,11.9738452 59.1601491,11.4491785 C58.6244312,10.9240571 57.8979977,10.6284716 57.1400164,10.6266527 L57.1403498,10.6266637 Z M25.9699573,20.1239463 C27.2074657,18.1318453 28.6058085,17.0552293 29.9999845,17.0552293 C31.3941606,17.0552293 32.7925034,18.1314373 34.0300117,20.1239463 L25.9699573,20.1239463 Z M33.4667936,21.9046649 L33.4667936,54.2194672 L26.5331754,54.2194672 L26.5331754,21.9046649 L33.4667936,21.9046649 Z M1.81731821,19.1038195 L1.81731821,13.4271594 C1.81834358,12.8642387 2.28477375,12.4078837 2.85955143,12.407429 L8.99983095,12.407429 C9.21282048,13.0628076 9.51090583,13.688082 9.88711075,14.2688297 C10.8004383,15.7881477 12.4690329,16.7182068 14.2691641,16.7113278 C14.8737039,16.7072288 15.4745294,16.6220611 16.0558428,16.4590098 L16.6557397,16.2959667 L16.6557397,16.2955112 C15.9572588,17.5316259 15.3406118,18.8104134 14.8095368,20.1234791 L2.85945619,20.1234791 C2.28467851,20.1234791 1.81824679,19.6671241 1.81731821,19.1037487 L1.81731821,19.1038195 Z M5.59208177,51.005884 L5.59208177,21.9055394 L14.1398775,21.9055394 C13.2065617,24.6231961 12.5410572,27.4214182 12.1518879,30.2628963 L12.1518879,30.2843015 C12.1518879,30.3020632 12.1477027,30.3193702 12.1472375,30.3380437 C12.1467725,30.3562613 12.1472375,30.3662812 12.1472375,30.3803994 L12.1472375,30.4227552 C12.1472375,30.4373293 12.1472375,30.4587345 12.1514229,30.4764974 L12.1514229,30.5101996 C12.1514229,30.5293278 12.1579333,30.5475454 12.1621186,30.5662189 C12.166304,30.5853471 12.166304,30.5876241 12.1686291,30.5980999 C12.1714194,30.6085751 12.1779298,30.6322581 12.1835102,30.6481986 L12.1956007,30.6846338 L12.2123425,30.7256231 L12.2304783,30.7661577 L12.2486142,30.8003158 C12.2565197,30.8148899 12.264425,30.8299198 12.2732608,30.8435821 C12.2820964,30.8572456 12.2858168,30.8631662 12.2927919,30.8731862 C12.2993023,30.8832058 12.3113932,30.9014237 12.3220885,30.9150872 L12.3453398,30.9446912 C12.3555705,30.9565324 12.3653364,30.9688294 12.3760317,30.9806706 L12.4067236,31.0107293 C12.4169544,31.0212044 12.4262547,31.0307692 12.4369512,31.0403333 C12.4476469,31.0494422 12.4615978,31.0612838 12.4736883,31.0708479 L12.4722932,31.0708479 C12.4820588,31.0790459 12.4918243,31.0867885 12.5025208,31.0940755 C12.5160066,31.1045506 12.5299579,31.1136596 12.5439091,31.1227678 C12.5578604,31.1318766 12.5639057,31.1364313 12.574601,31.1423518 C12.5852968,31.1482726 12.6034334,31.1587482 12.6178489,31.16649 L12.6527265,31.1847076 C12.6662124,31.1910837 12.6792339,31.1965487 12.693184,31.2024693 L12.7359676,31.2193204 L12.7713107,31.2311616 C12.7894465,31.2370823 12.8066538,31.2420921 12.8247896,31.2466462 L12.8554815,31.2530223 C12.8750126,31.2575768 12.8950091,31.2607649 12.9154712,31.2639529 L12.9401178,31.2639529 C12.9712751,31.267141 13.0028968,31.2698736 13.0349851,31.2703291 L13.0666067,31.2712399 L13.0991593,31.2712399 C13.1186904,31.2703291 13.1377572,31.2680519 13.1572883,31.2653192 L13.167984,31.2653192 L17.008248,30.7839201 L20.6750584,34.929836 L20.6792437,34.9339349 L20.6783137,34.9339349 C20.6997055,34.9571625 20.7220271,34.9790236 20.7452784,34.9995183 L20.7578344,35.0095379 C20.7773655,35.026389 20.7964323,35.0427854 20.8178241,35.058726 L20.8489815,35.0796765 L20.8950199,35.1097352 L20.930363,35.1288634 C20.9457095,35.1375168 20.9615203,35.1452586 20.9777966,35.1530016 L21.0145338,35.1680315 C21.0312744,35.1753185 21.0480162,35.1812391 21.0652222,35.1871597 L21.0652222,35.1862488 C21.0773128,35.1908032 21.0898688,35.1944467 21.1024249,35.1980899 C21.1191654,35.2030998 21.1363727,35.2081095 21.1535788,35.2117534 L21.1940362,35.2204068 L21.2442603,35.2281492 L21.2889035,35.2327037 L21.3665635,35.2327037 L21.4465498,35.2327037 L21.4791024,35.2281492 C21.495843,35.2281492 21.5125848,35.2240503 21.5293265,35.2208622 L21.5651339,35.2131197 C21.5804805,35.2099316 21.5953615,35.2067436 21.6102426,35.2021892 L21.6451202,35.191714 L21.6897633,35.1766841 L21.7232457,35.1630206 C21.737197,35.1566444 21.752078,35.1507236 21.7660293,35.1434365 L21.7981165,35.1270413 C21.8120677,35.1197543 21.8255535,35.1120113 21.8385739,35.1042696 L21.870661,35.0833191 L21.9064684,35.058725 C21.9176292,35.0509826 21.9283245,35.0418739 21.939021,35.0332204 L21.9571568,35.0195569 L21.9697129,35.0077158 C21.9822689,34.9967852 21.9943594,34.9849441 22.00645,34.9731018 L22.0338871,34.9457748 L22.064579,34.9107061 C22.0734146,34.9002309 22.0827148,34.8897555 22.0906208,34.878825 C22.0985268,34.8678944 22.1078269,34.8546868 22.1166627,34.8428457 L22.1394497,34.8082317 C22.1473552,34.7950241 22.1547962,34.7822712 22.1622368,34.7690636 C22.1696773,34.755856 22.1757226,34.7453813 22.1808381,34.7339948 C22.1859535,34.7221537 22.1943239,34.7043908 22.2008346,34.6898167 C22.2073452,34.6747868 22.2110654,34.6674998 22.2147859,34.6565692 C22.2189712,34.6456386 22.2254816,34.6246881 22.2305968,34.6087476 C22.2357121,34.5932629 22.2380373,34.5864306 22.2412925,34.5745895 C22.2445478,34.5627483 22.2478029,34.5449854 22.2515232,34.5304114 C22.2547785,34.5153814 22.2575687,34.5035403 22.2594289,34.4907885 C22.261289,34.4775809 22.262684,34.464828 22.2640791,34.4516204 C22.2654743,34.4384128 22.2682645,34.4201952 22.2691945,34.4037988 L22.2696595,34.3992443 C22.4352083,30.3649075 23.2611067,26.382571 24.7152713,22.6047379 L24.7152713,54.2199847 L9.55207372,54.2199847 C7.36920186,54.2199847 5.59228511,52.7785505 5.59228511,51.0064597 L5.59208177,51.005884 Z M54.4066968,51.005884 C54.4066968,52.7779747 52.62978,54.2194089 50.4473844,54.2194089 L35.2853773,54.2194089 L35.2853773,22.6018303 C36.7405062,26.3805962 37.5668213,30.3633991 37.7328938,34.3986686 L37.7328938,34.4132427 C37.7328938,34.4378367 37.7370791,34.4624308 37.7407994,34.4856572 C37.7407994,34.4993207 37.7459146,34.5116177 37.7487049,34.5248253 C37.7514951,34.5380329 37.7547503,34.5553399 37.7589357,34.5712804 C37.7631209,34.5867651 37.7677712,34.6008845 37.7724215,34.6150027 C37.7770718,34.6295767 37.780327,34.6409632 37.7859073,34.6541708 C37.7910227,34.6673784 37.7970681,34.6824083 37.8031134,34.6965265 C37.8091588,34.7111006 37.8138091,34.7220312 37.8203194,34.7343282 C37.8268299,34.7466252 37.8342707,34.7602887 37.8407815,34.7734963 C37.8472919,34.7867039 37.8547328,34.7990009 37.8621733,34.8108421 C37.8696138,34.8226832 37.8789139,34.8354361 37.8872854,34.8481878 L37.9119319,34.8832566 C37.9226277,34.89692 37.933788,34.9092171 37.9444845,34.9224247 C37.9551803,34.9356323 37.9602954,34.9415529 37.9686657,34.9497516 C37.987267,34.9693357 38.0058683,34.9875533 38.0258649,35.0057709 L38.0323753,35.0116916 C38.041676,35.020345 38.0523718,35.0271762 38.0626028,35.0358297 C38.0728335,35.0444831 38.0872494,35.0567803 38.1007352,35.0658885 L38.1160818,35.0763636 C38.1346831,35.0886606 38.1532844,35.1018682 38.1728155,35.1127988 L38.1900216,35.1219076 C38.2095526,35.1323827 38.2286194,35.1428581 38.248616,35.1524222 L38.2732626,35.1624419 C38.2904687,35.1701844 38.3086057,35.1779266 38.3272058,35.1847589 L38.3583632,35.1947786 L38.4085873,35.2098085 L38.4439304,35.217551 L38.4927593,35.2266597 L38.5294965,35.2316696 L38.5797206,35.236224 L38.7113286,35.236224 L38.7564373,35.2316696 L38.8043352,35.2243826 L38.8457236,35.2152737 C38.8624642,35.2120857 38.879206,35.2075312 38.8959478,35.2029766 L38.9340802,35.1911355 L38.9829091,35.1729179 C38.9954651,35.167908 39.0080211,35.1628983 39.0201117,35.1574332 L39.0661501,35.1351163 L39.1019575,35.1150775 L39.1452054,35.0882064 L39.1786878,35.0654347 C39.1940343,35.0545041 39.2089153,35.042663 39.2233309,35.030366 C39.238212,35.018069 39.2419322,35.0157919 39.250768,35.008049 C39.2716943,34.9893755 39.2916909,34.9697926 39.3102922,34.9492968 L39.3163376,34.9442871 L42.9217191,31.0011257 L46.8619838,31.2734743 L46.9587106,31.2734743 L46.9582456,31.2734743 C46.9954482,31.2725634 47.0326509,31.2698308 47.069388,31.2648209 C47.0772935,31.2648209 47.0851988,31.2648209 47.0940346,31.2602666 C47.1154264,31.2570785 47.1358873,31.2538904 47.1572791,31.2484254 C47.1786709,31.2434156 47.1884364,31.239772 47.2047127,31.2352178 C47.2205236,31.2306634 47.2293593,31.2288416 47.2419154,31.2242873 C47.2544714,31.2197328 47.2846978,31.2088026 47.3051598,31.1996932 L47.3223659,31.1933171 C47.3456173,31.182842 47.3688686,31.1705454 47.3888652,31.1582484 L47.3967708,31.1541494 C47.4195579,31.1409418 47.441414,31.1272783 47.4632701,31.1122483 L47.4707106,31.107694 C47.4907072,31.0931199 47.5102382,31.07809 47.5288396,31.0626053 L47.5400003,31.0539519 C47.5567409,31.0393778 47.5725529,31.0238932 47.5878983,31.0088632 L47.6037091,30.9933786 C47.6171949,30.9797151 47.6288212,30.965141 47.6409117,30.9510228 L47.6613738,30.9273405 C47.6716045,30.9141329 47.6799751,30.90138 47.6892764,30.8881724 C47.6985776,30.8749648 47.7046229,30.8667672 47.7120634,30.8562913 C47.7195039,30.8458155 47.7269445,30.8307867 47.7339195,30.8184897 C47.74136,30.8061927 47.7488006,30.7938956 47.7553113,30.780688 C47.7618217,30.7674804 47.7674019,30.7538169 47.7734472,30.7410652 C47.7794926,30.7278576 47.7855377,30.7155606 47.7906532,30.702353 C47.7957686,30.6891454 47.801814,30.6691054 47.807395,30.6527102 C47.8125103,30.6363149 47.8153005,30.6313049 47.8180907,30.6199185 L47.8194858,30.6199185 C47.8259963,30.5985133 47.8311116,30.5766522 47.8348323,30.5543352 L47.8390176,30.5365735 C47.844133,30.5078812 47.8478533,30.4782772 47.8501784,30.449129 L47.8501784,30.3794463 L47.8501784,30.3571293 L47.8501784,30.3375452 C47.8501784,30.3134071 47.8501784,30.2892689 47.844133,30.2651307 C47.4549042,27.4236527 46.7894354,24.6254306 45.8561434,21.9077739 L54.4071535,21.9077739 L54.4066968,51.005884 Z M58.1813651,19.1038195 L58.1818302,19.1038195 C58.1809001,19.6671948 57.7144699,20.1235499 57.1396923,20.1235499 L45.1884212,20.1235499 C44.657358,18.8104842 44.0407229,17.5316966 43.3426944,16.295582 L43.9425913,16.4586251 L43.9425913,16.4590805 C44.5234167,16.6221236 45.1247064,16.7072944 45.72927,16.7113985 C47.5294012,16.71823 49.1979839,15.7882184 50.1113234,14.2689003 C50.4875402,13.6886656 50.7860899,13.0628666 50.9990675,12.4074996 L57.139347,12.4074996 C57.7141247,12.407955 58.1805564,12.8643094 58.181485,13.4272301 L58.1813651,19.1038195 Z" id="Shape" fill="#303337"></path>
                        <path d="M43.6825768,21.2389213 C43.6983876,21.2990387 43.7207092,21.3577874 43.7495416,21.4133554 C44.7307625,24.0048589 45.4450292,26.6860221 45.8826512,29.4168538 L42.6088196,29.1905009 L42.6088196,29.1900454 C42.328401,29.1709172 42.0545063,29.279311 41.8675527,29.4847099 L39.3800359,32.2014338 C39.0638195,28.3538783 38.1156226,24.5810587 36.5712074,21.0295318 C36.5047082,20.8865193 36.4377422,20.7467015 36.366587,20.6091572 L36.3558912,20.587752 C35.0110012,17.9106695 33.3467042,16.1732068 31.5422873,15.5427906 L31.898504,15.5427906 L31.898504,15.5423352 C33.2043461,15.543246 34.4566165,15.0313332 35.3745989,14.1213047 L40.7996355,15.6009813 C41.959429,17.3758703 42.9252451,19.26502 43.682393,21.2375335 L43.6825768,21.2389213 Z" id="Path" fill="#F0AA3B"></path>
                        <path d="M11.999744,3.0583472 C13.100942,1.76078827 14.527142,1.45286724 16.2384631,2.14428462 L23.520417,5.08230129 L23.520417,5.08275671 C23.26232,5.67573496 23.1297953,6.31385786 23.1302596,6.95826511 L23.1302596,10.7451924 C23.1297946,11.3750606 23.2567486,11.9985628 23.5032145,12.5801266 L15.5701848,14.7457174 C13.7700536,15.2362224 12.3702823,14.7516382 11.4146806,13.3042832 C9.65681157,10.6413084 9.9531231,5.47439122 11.9996964,3.05824297 L11.999744,3.0583472 Z" id="Path" fill="#F0AA3B"></path>
                        <path d="M28.0319951,3.93998772 L31.8986878,3.93998772 C32.8673491,3.94053408 33.7792957,4.38823726 34.360133,5.14786131 C34.3801295,5.17883063 34.4024511,5.20843466 34.4266322,5.23667222 C34.787968,5.74220603 34.981886,6.34430182 34.9814248,6.96096003 L34.9814248,10.7478874 C34.9823517,11.3918749 34.7721584,12.0194461 34.3815248,12.5373504 C34.3596687,12.5619445 34.3392067,12.5874491 34.3206053,12.6138643 C33.7374585,13.3407492 32.8459525,13.7656709 31.9020176,13.7656709 L28.0353248,13.7656709 C27.0968899,13.7656709 26.2100744,13.3462057 25.6269753,12.6261648 C25.6069787,12.5988379 25.5860524,12.5724226 25.5632653,12.5473739 C25.1675245,12.0277207 24.9536064,11.3964768 24.9540699,10.7478839 L24.9540699,6.96095653 C24.9536057,6.33609021 25.1521792,5.72670737 25.5228007,5.21754753 C25.5465176,5.19067644 25.5688392,5.16198417 25.5893,5.13238014 C26.1691968,4.38363419 27.0727624,3.94278595 28.0321736,3.93998772 L28.0319951,3.93998772 Z" id="Path" fill="#F0AA3B"></path>
                        <path d="M43.7593071,2.14455278 C45.4706282,1.45455783 46.8968283,1.76198917 47.9980262,3.05861537 C50.0464924,5.47429724 50.3426849,10.6421472 48.5848992,13.3027901 C47.6273927,14.7501705 46.2304785,15.2351957 44.429395,14.7442243 L36.42946,12.562194 L36.42946,12.5626494 C36.6712712,11.9860641 36.795903,11.3685081 36.7954387,10.7449709 L36.7954387,6.95804358 C36.7959038,6.32179782 36.6666283,5.69196465 36.4155076,5.1057371 L43.7593071,2.14455278 Z" id="Path" fill="#F0AA3B"></path>
                        <path d="M20.6252784,32.1540969 L18.0666897,29.2568771 C17.8676527,29.0323431 17.5677102,28.9193998 17.2663629,28.9562897 L14.1330084,29.3479709 C14.5706066,26.6403412 15.2807067,23.9820301 16.2531418,21.4115133 C16.2815086,21.3559499 16.3038302,21.2976536 16.3201065,21.2375338 C17.0757902,19.2650204 18.0411896,17.3758706 19.2000069,15.6009816 L24.5693288,14.1363455 C25.4863707,15.0372098 26.7317244,15.5431517 28.0305427,15.5423356 L28.4560455,15.5423356 C26.6522238,16.1731248 24.9892364,17.9069499 23.6424416,20.5872969 L23.632211,20.6082475 C23.5657117,20.7467012 23.494091,20.886519 23.426662,21.0295315 L23.427127,21.0295315 C21.8892595,24.5660179 20.9434197,28.3225146 20.6253224,32.1540969 L20.6252784,32.1540969 Z" id="Path" fill="#F0AA3B"></path>
                    </g>
                </g>
            </g>
        </g>
    </g>
</svg>