<?xml version="1.0" encoding="UTF-8"?>
<svg width="64px" height="64px" viewBox="0 0 64 64" version="1.1" xmlns="http://www.w3.org/2000/svg" xmlns:xlink="http://www.w3.org/1999/xlink">
    <title>ico-2@1x</title>
    <g id="Page-1" stroke="none" stroke-width="1" fill="none" fill-rule="evenodd">
        <g id="Artboard" transform="translate(-275.000000, -420.000000)">
            <g id="ico-2" transform="translate(275.000000, 420.000000)">
                <rect id="Rectangle-Copy" x="0" y="0" width="64" height="64"></rect>
                <g id="noun-food-1272555" transform="translate(0.000000, 2.000000)" fill-rule="nonzero">
                    <path d="M27.5281315,0.454176185 C27.8995873,0.125310457 28.4047508,-0.0350722775 28.9066052,0.00643775029 L28.9536402,0.0109218177 L49.9975197,2.56498208 C50.9036231,2.68080418 51.5882747,3.43993082 51.607381,4.34126578 L51.607791,4.37998003 L51.6073425,11.7786103 L63.18228,19.3054699 C63.1903549,19.3108317 63.2011201,19.3108317 63.2091941,19.3161938 C63.2152492,19.3182038 63.2182768,19.3232307 63.221683,19.3278806 L63.2253416,19.332279 L63.2387986,19.3430029 C63.3971387,19.4444424 63.5016507,19.5860779 63.5846343,19.740685 C63.8166807,20.0435828 63.986513,20.3857276 63.9992337,20.7722851 L64,20.8188855 L64,51.334232 C64,52.0765562 63.5424208,52.7516077 62.8530183,53.0305729 L62.8158655,53.0451367 L47.1552506,58.8824821 C46.9623694,58.9570976 46.7398849,59 46.5120148,59 C46.4542412,59 46.3927349,58.9948476 46.3334676,58.984551 L46.2895303,58.9758641 L22.6298067,53.9472434 C20.3870477,57.1130519 16.6011934,59 12.3488967,59 C5.37823157,59 0.106329742,54.1034007 0.00158877168,47.5775488 L0,47.3793003 C0,42.4088781 2.98794335,38.1411678 7.25907234,36.1979407 C2.82104699,34.4854598 2.36693324,31.6983863 2.5976698,29.9567551 L2.60486804,29.9043006 L2.60486804,29.8855341 C2.57526468,29.31985 2.99601596,28.8283375 3.56388836,28.7698028 C7.40084236,28.3721893 9.79621138,29.148771 11.1732615,30.9879048 C11.5805546,31.5352525 11.835341,32.1224187 11.9959203,32.7041857 C12.2879349,32.3386811 12.6683117,32.0473457 13.1828107,31.8954267 C13.7511195,31.7327781 14.3459082,32.0477918 14.5172587,32.6134759 C14.6832235,33.1795946 14.3616056,33.774768 13.7937332,33.9427814 C13.6372828,33.9898288 13.5313562,34.2110409 13.465736,34.5057471 L13.4522878,34.5699866 C13.450148,34.5808685 13.4480587,34.5918349 13.4460194,34.6028813 L13.43438,34.6700829 L13.43438,34.6700829 L13.4239187,34.7389839 L13.4239187,34.7389839 L13.414613,34.8093643 C13.4131572,34.8212055 13.4117485,34.8330991 13.4103866,34.8450405 L13.4027726,34.9172273 L13.4027726,34.9172273 L13.3962584,34.9903431 L13.3962584,34.9903431 L13.3908217,35.0641679 L13.3908217,35.0641679 L13.3864401,35.1384815 L13.3864401,35.1384815 C14.6982663,35.249836 15.9827745,35.5691698 17.1882404,36.0801806 L17.3010197,36.1286489 L17.3010197,20.818929 C17.3010197,20.4851442 17.4136112,20.1835367 17.5800239,19.9060538 L17.5954641,19.872774 L17.5954641,19.872774 L17.625316,19.8060663 C17.6405896,19.7729133 17.6570753,19.7403115 17.6778803,19.7093863 L17.7002402,19.6790618 L26.9010524,8.68795492 L26.9010524,1.82866508 C26.9010524,1.30046602 27.1316095,0.798679199 27.5281315,0.454176185 Z M19.4442874,21.2015553 L19.4439981,37.3151956 C22.7183963,39.6025026 24.7010637,43.328127 24.7010637,47.3799867 C24.7010637,48.9667496 24.3884322,50.5023317 23.7908534,51.9072835 L23.7496681,52.0028724 L45.6995621,56.6709414 L45.600431,26.7744352 L19.4442874,21.2015553 Z M61.8561229,43.246225 L47.8192145,48.1304878 L47.8461285,56.367355 L61.8561229,51.1278024 L61.8561229,43.246225 Z M25.7982185,29.9523437 C26.1016717,29.6993782 26.525249,29.5962271 26.9311479,29.6671838 L26.9716737,29.6748607 L38.8807687,32.2132498 C38.8947638,32.2164668 38.9073953,32.2218287 38.9195818,32.2277912 L38.9557249,32.2459359 C38.9618324,32.2487456 38.9680584,32.2513193 38.9745177,32.2534641 C39.0440362,32.2749119 39.1086331,32.3039551 39.1700859,32.338808 C39.2288459,32.373661 39.2853633,32.4080667 39.3360507,32.4509622 C39.3898799,32.4965437 39.4351841,32.5448018 39.4782456,32.597974 C39.5213071,32.6511451 39.5585376,32.7047646 39.5908337,32.7632993 C39.6226809,32.8218317 39.6442116,32.883495 39.6657424,32.9500724 C39.6872731,33.0193345 39.7007299,33.0863534 39.7088039,33.1582933 L39.7131103,33.1786008 L39.7131103,33.1786008 L39.7243062,33.2172638 C39.7260286,33.2236767 39.7275358,33.230136 39.7286123,33.2367348 L39.7303347,33.2570423 L39.7760878,46.7148169 L39.7866559,46.7364753 L39.7866559,46.7364753 L39.811129,46.7774548 C39.8192388,46.7912243 39.8267746,46.8055228 39.8321574,46.8216086 C39.9927367,47.3100234 39.6877233,47.8279046 39.2373686,48.0812517 C39.1866847,48.1107421 39.1409315,48.1451478 39.084862,48.1665956 C39.0714061,48.1746394 39.0606396,48.1853628 39.0444921,48.1907246 C38.9350469,48.2251303 38.7017912,48.2653447 38.5865127,48.2653447 C38.528739,48.2653447 38.4672327,48.2601966 38.4079655,48.2499018 L38.3640281,48.2412156 L26.3814415,45.692074 C25.7502825,45.5589897 25.2867691,45.0024198 25.2732409,44.3600595 L25.2729483,44.3255672 L25.2729483,31.0439505 C25.2729483,30.6167791 25.465841,30.219097 25.7982185,29.9523437 Z M27.4158137,31.95748 L27.4162225,43.7283714 L37.6272007,45.9008326 L37.5868308,34.1245649 L27.4158137,31.95748 Z M61.8544912,32.8123032 L47.7819852,37.4830032 L47.8095446,45.8717779 L61.8544912,40.9847699 L61.8544912,32.8123032 Z M61.8570393,21.2657271 L47.7466392,26.6438039 L47.7762437,35.235389 L61.8567878,30.5620581 L61.8570393,21.2657271 Z M9.44891434,32.2577491 C8.68773638,31.2464935 7.23262048,30.7483326 5.00417591,30.8144612 L4.85103723,30.819845 L4.85103723,30.819845 L4.69549628,30.8269812 C4.78122891,32.6952841 6.58441586,34.0379616 10.0679209,34.8333143 L10.0710164,34.7902013 L10.0710164,34.7902013 L10.076318,34.7021423 C10.0778756,34.6723966 10.0792157,34.6422681 10.0803145,34.6117861 L10.0828628,34.5193087 C10.0961885,33.8182142 9.97528184,32.9529941 9.44891434,32.2577491 Z M28.4160801,10.2187988 L20.8094629,19.3068288 L45.9149053,24.6584818 L49.1705862,13.2402493 L28.4160801,10.2187988 Z M51.1685731,14.0455424 L48.2858625,24.1532291 L59.9032874,19.7251465 L51.1685731,14.0455424 Z M29.0499457,2.17410379 L29.0499457,8.1527187 L49.4645528,11.1232665 L49.4645528,4.65358293 L29.0499457,2.17410379 Z" id="Shape" fill="#303337"></path>
                    <path d="M12.3506191,37.2138065 L12.1821224,37.2152125 C6.63015023,37.3051767 2.14458545,41.8311283 2.14280917,47.3801011 C2.14280917,52.7903209 6.52876888,56.8658589 12.3483903,56.8658589 C16.0780924,56.8658589 19.3709784,55.1764592 21.1607301,52.3390593 C22.0878734,50.873975 22.5566125,49.2059659 22.5566125,47.3828464 C22.5566125,43.5955667 20.4663487,40.1468761 17.0985931,38.38015 C15.6745794,37.6319613 14.0708807,37.2297959 12.4479685,37.2143123 L12.3506191,37.2138065 Z" id="Path" fill="#F0AA3B"></path>
                </g>
            </g>
        </g>
    </g>
</svg>