<?xml version="1.0" encoding="UTF-8"?>
<svg width="64px" height="64px" viewBox="0 0 64 64" version="1.1" xmlns="http://www.w3.org/2000/svg" xmlns:xlink="http://www.w3.org/1999/xlink">
    <title>ico-1@1x</title>
    <g id="Page-1" stroke="none" stroke-width="1" fill="none" fill-rule="evenodd">
        <g id="Artboard" transform="translate(-165.000000, -420.000000)">
            <g id="ico-1" transform="translate(165.000000, 420.000000)">
                <rect id="Rectangle" x="0" y="0" width="64" height="64"></rect>
                <g id="Shape-13" transform="translate(0.000000, 3.000000)" fill-rule="nonzero">
                    <g id="Shape-11">
                        <path d="M17.1464396,0 C17.7540351,0 18.2481468,0.485063973 18.2659136,1.08972541 L18.2664083,1.12343843 L18.2664083,7.1320362 L45.7335384,7.1320362 L45.7335384,1.12343843 C45.7335384,0.514472792 46.2166029,0.0183367169 46.8198708,0 L46.853507,0 L53.6639471,0 C54.2715425,0 54.7656542,0.485063973 54.783421,1.08972541 L54.7839157,1.12343843 L54.7839157,7.1320362 L59.8405241,7.1320362 C62.1116891,7.1320362 63.9626497,9.03150231 64,11.3829595 L64,11.4543527 L64,52.6776835 C64,55.0375945 62.1712283,56.9611841 59.9092015,56.9994199 L59.8405241,57 L4.15947591,57 C1.88936702,57 0.0373713929,55.1000095 0,52.7490609 L0,52.6776835 L0,11.4543527 C0,9.09444172 1.82877174,7.17085208 4.09079847,7.13261628 L4.15947591,7.1320362 L9.21603094,7.1320362 L9.21603094,1.12343843 C9.21603094,0.514472792 9.69909543,0.0183367169 10.3023634,0 L10.3359996,0 L17.1464396,0 Z M61.7589158,16.8968436 L2.23991065,16.8968436 L2.23991065,52.6771485 C2.23991065,53.8068634 3.07909862,54.7282627 4.11842924,54.7517026 L4.15902251,54.75216 L59.8400707,54.75216 C60.8842814,54.7516318 61.7368047,53.8446831 61.7589158,52.7210351 L61.7589158,52.6771485 L61.7589158,16.8968436 Z M16.8662874,37.9268021 C17.4743935,37.9268021 17.9680132,38.4123689 17.9857619,39.0165549 L17.9862561,39.0502405 L17.9862561,46.2715803 C17.9862561,46.880546 17.5031916,47.376682 16.8999237,47.394522 L16.8662874,47.3950188 L9.66725093,47.3950188 C9.05965547,47.3950188 8.56554378,46.9099548 8.54777694,46.3052933 L8.54728227,46.2715803 L8.54728227,39.0502405 C8.54728227,38.4412749 9.03034676,37.9451388 9.63361468,37.9272988 L9.66725093,37.9268021 L16.8662874,37.9268021 Z M29.35365,37.9268021 C29.9617561,37.9268021 30.4558778,38.4123689 30.4731522,39.0165549 L30.473619,39.0502405 L30.473619,46.2715803 C30.473619,46.880546 29.9905541,47.376682 29.3872862,47.394522 L29.35365,47.3950188 L22.1546135,47.3950188 C21.547018,47.3950188 21.0529063,46.9099548 21.0351395,46.3052933 L21.0346448,46.2715803 L21.0346448,39.0502405 C21.0346448,38.4412749 21.5177093,37.9451388 22.1209772,37.9272988 L22.1546135,37.9268021 L29.35365,37.9268021 Z M41.842346,37.9268021 C42.4504521,37.9268021 42.9445739,38.4123689 42.9618483,39.0165549 L42.9623151,39.0502405 L42.9623151,46.2715803 C42.9623151,46.880546 42.4792502,47.376682 41.8759823,47.394522 L41.842346,47.3950188 L34.6433095,47.3950188 C34.0357141,47.3950188 33.5416024,46.9099548 33.5238356,46.3052933 L33.5233409,46.2715803 L33.5233409,39.0502405 C33.5233409,38.4412749 34.0064054,37.9451388 34.6096733,37.9272988 L34.6433095,37.9268021 L41.842346,37.9268021 Z M54.3310421,37.9268021 C54.9391482,37.9268021 55.43327,38.4123689 55.4505444,39.0165549 L55.4510112,39.0502405 L55.4510112,46.2715803 C55.4510112,46.880546 54.9679463,47.376682 54.3646784,47.394522 L54.3310421,47.3950188 L47.1320056,47.3950188 C46.5244102,47.3950188 46.0302985,46.9099548 46.0125316,46.3052933 L46.012037,46.2715803 L46.012037,39.0502405 C46.012037,38.4412749 46.4951015,37.9451388 47.0983694,37.9272988 L47.1320056,37.9268021 L54.3310421,37.9268021 Z M15.7463188,40.174107 L10.7876463,40.174107 L10.7876463,45.1481419 L15.7463188,45.1481419 L15.7463188,40.174107 Z M28.2336813,40.174107 L23.2750089,40.174107 L23.2750089,45.1481419 L28.2336813,45.1481419 L28.2336813,40.174107 Z M40.7223774,40.174107 L35.7637049,40.174107 L35.7637049,45.1481419 L40.7223774,45.1481419 L40.7223774,40.174107 Z M53.2110735,40.174107 L48.252401,40.174107 L48.252401,45.1481419 L53.2110735,45.1481419 L53.2110735,40.174107 Z M54.3310421,22.3267604 C55.5543843,22.3267604 56.5481877,23.3104322 56.571134,24.5310223 L56.5715395,24.5741991 L56.5715395,31.7955389 C56.5715395,33.0226711 55.5914139,34.0195534 54.3741033,34.0425708 L54.3310421,34.0429776 L47.1320056,34.0429776 C45.9086634,34.0429776 44.91486,33.0598155 44.8919137,31.8387335 L44.8915082,31.7955389 L44.8915082,24.5741991 C44.8915082,23.3470668 45.8716338,22.3501846 47.0889444,22.3271672 L47.1320056,22.3267604 L54.3310421,22.3267604 Z M16.8662874,23.4504129 C17.4743935,23.4504129 17.9680132,23.9354768 17.9857619,24.5401383 L17.9862561,24.5738513 L17.9862561,31.7951911 C17.9862561,32.4041567 17.5031916,32.9002928 16.8999237,32.9181328 L16.8662874,32.9186295 L9.66725093,32.9186295 C9.05965547,32.9186295 8.56554378,32.4335656 8.54777694,31.8289041 L8.54728227,31.7951911 L8.54728227,24.5738513 C8.54728227,23.9648856 9.03034676,23.4687496 9.63361468,23.4509096 L9.66725093,23.4504129 L16.8662874,23.4504129 Z M29.35365,23.4504129 C29.9617561,23.4504129 30.4558778,23.9354768 30.4731522,24.5401383 L30.473619,24.5738513 L30.473619,31.7951911 C30.473619,32.4041567 29.9905541,32.9002928 29.3872862,32.9181328 L29.35365,32.9186295 L22.1546135,32.9186295 C21.547018,32.9186295 21.0529063,32.4335656 21.0351395,31.8289041 L21.0346448,31.7951911 L21.0346448,24.5738513 C21.0346448,23.9648856 21.5177093,23.4687496 22.1209772,23.4509096 L22.1546135,23.4504129 L29.35365,23.4504129 Z M41.842346,23.4504129 C42.4504521,23.4504129 42.9445739,23.9354768 42.9618483,24.5401383 L42.9623151,24.5738513 L42.9623151,31.7951911 C42.9623151,32.4041567 42.4792502,32.9002928 41.8759823,32.9181328 L41.842346,32.9186295 L34.6433095,32.9186295 C34.0357141,32.9186295 33.5416024,32.4335656 33.5238356,31.8289041 L33.5233409,31.7951911 L33.5233409,24.5738513 C33.5233409,23.9648856 34.0064054,23.4687496 34.6096733,23.4509096 L34.6433095,23.4504129 L41.842346,23.4504129 Z M15.7463188,25.6967814 L10.7876463,25.6967814 L10.7876463,30.6708163 L15.7463188,30.6708163 L15.7463188,25.6967814 Z M28.2336813,25.6967814 L23.2750089,25.6967814 L23.2750089,30.6708163 L28.2336813,30.6708163 L28.2336813,25.6967814 Z M40.7223774,25.6967814 L35.7637049,25.6967814 L35.7637049,30.6708163 L40.7223774,30.6708163 L40.7223774,25.6967814 Z M9.21557753,9.37934113 L4.15923588,9.37934113 C3.11476188,9.37934113 2.2622352,10.2857876 2.24012402,11.4104267 L2.24012402,11.4543527 L2.24012402,14.6502076 L61.7591292,14.6502076 L61.7591292,11.4543527 C61.7591292,10.3246378 60.9199412,9.40323844 59.8806106,9.37979851 L59.8400173,9.37934113 L54.7834623,9.37934113 L54.7834623,11.7317878 C54.7834623,12.3407535 54.3003978,12.8368895 53.6971299,12.8547295 L53.6634937,12.8552263 L46.8530536,12.8552263 C46.2454582,12.8552263 45.7513465,12.3701623 45.7335796,11.7655008 L45.733085,11.7317878 L45.733085,9.37934113 L18.2659549,9.37934113 L18.2659549,11.7317878 C18.2659549,12.3407535 17.7828904,12.8368895 17.1796225,12.8547295 L17.1459862,12.8552263 L10.3355462,12.8552263 C9.72795073,12.8552263 9.23383905,12.3701623 9.21607221,11.7655008 L9.21557753,11.7317878 L9.21557753,9.37934113 Z M52.5439517,2.24682336 L47.9734757,2.24682336 L47.9734757,10.6078678 L52.5439517,10.6078678 L52.5439517,2.24682336 Z M16.0260176,2.24682336 L11.4555415,2.24682336 L11.4555415,10.6078678 L16.0260176,10.6078678 L16.0260176,2.24682336 Z" id="Shape" fill="#303337"></path>
                        <polygon id="Path" fill="#F0AA3B" points="54.3310421 24.5741991 47.1320056 24.5741991 47.1320056 31.7955389 54.3310421 31.7955389"></polygon>
                    </g>
                </g>
            </g>
        </g>
    </g>
</svg>