<?xml version="1.0" encoding="UTF-8"?>
<svg width="64px" height="64px" viewBox="0 0 64 64" version="1.1" xmlns="http://www.w3.org/2000/svg" xmlns:xlink="http://www.w3.org/1999/xlink">
    <title>ico-5@1x</title>
    <g id="Page-1" stroke="none" stroke-width="1" fill="none" fill-rule="evenodd">
        <g id="Artboard" transform="translate(-560.000000, -420.000000)">
            <g id="ico-5" transform="translate(560.000000, 420.000000)">
                <rect id="Rectangle-Copy" x="0" y="0" width="64" height="64"></rect>
                <polygon id="Path" fill="#F0AA3B" fill-rule="nonzero" points="44.4308425 8.94215567 54.6970425 12.0398089 16.3395573 34.060752 16.3395573 25.0698743"></polygon>
                <g id="Shape-20" transform="translate(1.000000, 4.000000)" fill="#303337" fill-rule="nonzero" stroke="#303337" stroke-width="0.5">
                    <g id="Shape-18">
                        <path d="M37.9063196,0.0216998457 L38.2844539,0.134237044 L38.2844539,0.134237044 L43.660879,1.75367371 L43.660879,1.75367371 L59.8044587,6.62658125 L59.8044587,6.62658125 C61.3879207,7.06261029 62.3328128,8.71187224 61.8913262,10.2971139 L59.3448495,20.2699454 C59.1319844,21.7305501 57.873521,22.8260036 56.3981654,22.8260036 C56.2713324,22.8260036 56.1430269,22.8172048 56.0137272,22.8020511 L49.0103499,21.9040895 L49.0103499,53.2047277 C49.0103499,55.003579 47.7405096,55.999298 45.9210763,55.999298 L45.9219446,56 L15.1273719,56 C13.3801773,56 12.2072425,55.0321367 12.2072425,53.2054298 L12.2072425,22.0224208 L6.06267502,22.8016018 C4.40395391,23.0049502 2.90166606,21.8537855 2.66858931,20.270446 L0.107765552,10.2824728 C-0.32636581,8.7270827 0.590065386,7.09516075 2.15726352,6.63576241 L2.22943108,6.6149141 L2.22943108,6.6149141 L23.0348856,0.416848848 L23.0348856,0.416848848 L23.8891446,0.160977863 L23.8891446,0.160977863 C24.3742444,0.0241802981 24.5817651,0.273262281 24.6704954,0.505508009 L24.6832305,0.541050979 L24.6832305,0.541050979 L24.6942196,0.576002416 L24.6942196,0.576002416 L24.7035913,0.610036451 L24.7035913,0.610036451 L24.7148972,0.658654527 L24.7148972,0.658654527 L24.7232867,0.70337542 L24.7232867,0.70337542 L24.7291935,0.743099314 L24.7291935,0.743099314 L24.733051,0.776726393 L24.733051,0.776726393 L24.7366781,0.830663608 C25.2174681,3.8765099 27.8166388,6.08743893 30.9166098,6.08743893 C33.9905649,6.08743893 36.6313255,3.82705019 37.09792,0.814197302 L37.1121302,0.7194293 L37.1121302,0.7194293 L37.1236935,0.674991049 L37.1236935,0.674991049 L37.1398057,0.62164992 L37.1398057,0.62164992 L37.15665,0.57215917 L37.15665,0.57215917 L37.1702613,0.535626451 L37.1702613,0.535626451 L37.1858493,0.496870994 L37.1858493,0.496870994 L37.2034754,0.456414258 L37.2034754,0.456414258 L37.2232009,0.414777702 C37.2335987,0.393751379 37.2448068,0.372478171 37.2568595,0.351251398 L37.2821015,0.308946677 C37.4052487,0.11262474 37.6039806,-0.0626177892 37.9063196,0.0216998457 Z M38.4851629,1.82435657 C37.6002767,5.19918931 34.4922764,7.64525166 30.9168389,7.64525166 C27.3419047,7.64525166 24.2988185,5.29304242 23.3765796,1.94023388 L2.64004874,8.11889702 C1.8598709,8.33398333 1.41054374,9.12341313 1.62193629,9.88258469 L4.21560726,20.0220994 C4.3119315,20.7695544 5.04022722,21.3502232 5.82708394,21.2624384 L13.7732111,20.2544784 L13.7732111,53.20568 C13.7732111,54.1101554 14.173421,54.399565 14.9334903,54.4382239 L15.0094103,54.4412306 L15.0094103,54.4412306 L15.0876428,54.4428768 L15.0876428,54.4428768 L45.9234549,54.4428768 L46.0107934,54.4421993 L46.0107934,54.4421993 L46.098301,54.4399614 L46.098301,54.4399614 L46.1565805,54.4374503 L46.1565805,54.4374503 L46.2436824,54.4319265 L46.2436824,54.4319265 L46.301405,54.4269394 L46.301405,54.4269394 L46.3587444,54.420802 L46.3587444,54.420802 L46.415609,54.413423 L46.415609,54.413423 L46.4719071,54.404711 C47.0037575,54.3153265 47.4465082,54.0331266 47.4465082,53.20568 L47.4465082,20.1330951 L56.2148251,21.2573803 C56.9979605,21.3600318 57.6994938,20.8066851 57.7987905,20.0226237 L57.8159969,19.9297479 L60.378205,9.89872742 C60.5925425,9.12492729 60.1378037,8.33500945 59.3689399,8.12327683 L38.4851629,1.82435657 Z" id="Shape"></path>
                    </g>
                </g>
            </g>
        </g>
    </g>
</svg>