<?xml version="1.0" encoding="UTF-8"?>
<svg width="64px" height="64px" viewBox="0 0 64 64" version="1.1" xmlns="http://www.w3.org/2000/svg" xmlns:xlink="http://www.w3.org/1999/xlink">
    <title>water-polo@1x</title>
    <g id="Page-1" stroke="none" stroke-width="1" fill="none" fill-rule="evenodd">
        <g id="Artboard" transform="translate(-805.000000, -148.000000)" fill-rule="nonzero">
            <g id="Group-12-Copy-3" transform="translate(71.000000, 108.000000)">
                <g id="Group-10" transform="translate(630.000000, 0.000000)">
                    <g id="water-polo" transform="translate(104.000000, 40.000000)">
                        <path d="M64,49.5451545 L64,41.9924977 L56.2797419,30.9603531 L43.3548387,30.9603531 L43.3548387,37.1552869 L42.9357419,37.1552869 L37.5009032,27.1907359 L42.0232258,24.3637811 C44.1496774,23.0339353 45.4193548,20.7428423 45.4193548,18.2338941 L45.4193548,17.8601331 C45.4193548,14.2866888 42.752,11.2109042 39.2154839,10.7049846 L32.283871,9.71482768 L40.0299355,6.83005351 C41.4007742,6.32103645 42.3225806,4.99428813 42.3225806,3.53125126 C42.3225806,1.62630912 40.832,0.080673143 38.9295484,0.0114963824 L38.6652903,0.00220398167 C38.2482581,-0.0122508638 37.8498065,0.0445360292 37.4637419,0.168434705 L25.696,3.94114938 C24.1796129,4.42022426 22.8913548,5.37321158 21.9912258,6.63904305 C20.6647742,5.09753702 18.7045161,4.11564002 16.516129,4.11564002 C12.5326452,4.11564002 9.29032258,7.35765537 9.29032258,11.3430628 C9.29032258,15.3284702 12.5326452,18.5704855 16.516129,18.5704855 C18.7396129,18.5704855 20.7298065,17.5596788 22.0562581,15.9748083 C23.0709677,17.3480186 24.5532903,18.341273 26.2461935,18.7325863 L33.7734194,20.4702652 L30.427871,23.0752349 C29.4585806,23.8277903 28.9032258,24.9646897 28.9032258,26.1923191 C28.9032258,26.855177 29.0725161,27.5139049 29.3935484,28.0982937 L34.3814194,37.1552869 L30.9677419,37.1552869 L30.9677419,49.4408731 C28.6152258,48.9607657 26.8387097,46.8761705 26.8387097,44.3827097 L24.7741935,44.3827097 C24.7741935,47.2292817 22.4588387,49.5451545 19.6129032,49.5451545 C16.7669677,49.5451545 14.4516129,47.2292817 14.4516129,44.3827097 L12.3870968,44.3827097 C12.3870968,47.2292817 10.0717419,49.5451545 7.22580645,49.5451545 C4.37987097,49.5451545 2.06451613,47.2292817 2.06451613,44.3827097 L0,44.3827097 C0,47.9840312 2.64980645,50.9689568 6.09858065,51.5130785 C5.65677419,53.9136153 3.55819355,55.7400883 1.03225806,55.7400883 L0,55.7400883 L0,56.7725772 C0,60.7579846 3.24232258,64 7.22580645,64 C9.85083871,64 12.1538065,62.5927175 13.4193548,60.492635 C14.6849032,62.5927175 16.987871,64 19.6129032,64 C22.2379355,64 24.5409032,62.5927175 25.8064516,60.492635 C26.9027097,62.3118805 28.7793548,63.6076542 30.9677419,63.9225633 L30.9677419,64 L64,64 L64,53.6751103 L59.8709677,53.6751103 L59.8709677,49.5451545 L64,49.5451545 Z M16.516129,16.5055076 C13.6701935,16.5055076 11.3548387,14.1896349 11.3548387,11.3430628 C11.3548387,8.4964907 13.6701935,6.18061795 16.516129,6.18061795 C19.3620645,6.18061795 21.6774194,8.4964907 21.6774194,11.3430628 C21.6774194,14.1896349 19.3620645,16.5055076 16.516129,16.5055076 Z M7.22580645,61.9350221 C4.70296774,61.9350221 2.59716129,60.114744 2.15122581,57.7183371 C4.30348387,57.3827782 6.144,56.0931995 7.22580645,54.2977012 C8.3076129,56.0931995 10.148129,57.3827782 12.3003871,57.7183371 C11.8544516,60.114744 9.74864516,61.9350221 7.22580645,61.9350221 Z M8.35303226,51.5130785 C10.500129,51.1744221 12.3396129,49.8951682 13.4193548,48.1017349 C14.4990968,49.8941358 16.3385806,51.1744221 18.4856774,51.5130785 C18.043871,53.9136153 15.9442581,55.7400883 13.4193548,55.7400883 C10.8944516,55.7400883 8.79483871,53.9136153 8.35303226,51.5130785 Z M19.6129032,61.9350221 C17.0900645,61.9350221 14.9842581,60.114744 14.5383226,57.7183371 C16.6905806,57.3827782 18.5310968,56.0931995 19.6129032,54.2977012 C20.6947097,56.0931995 22.5352258,57.3827782 24.6874839,57.7183371 C24.2415484,60.114744 22.1357419,61.9350221 19.6129032,61.9350221 Z M25.8064516,55.7400883 C23.2815484,55.7400883 21.1819355,53.9136153 20.740129,51.5130785 C22.8872258,51.1744221 24.7267097,49.8951682 25.8064516,48.1017349 C26.8861935,49.8941358 28.7256774,51.1744221 30.8727742,51.5130785 C30.4309677,53.9136153 28.3313548,55.7400883 25.8064516,55.7400883 Z M30.9677419,61.8224808 C28.9207742,61.4043227 27.3083871,59.7781526 26.9254194,57.7183371 C28.4996129,57.4726048 29.9024516,56.7126929 30.9677419,55.621352 L30.9677419,61.8224808 Z M33.3388387,18.250414 L26.7096774,16.7202653 C25.1984516,16.371284 23.9256774,15.3439575 23.2443871,13.9583573 C23.5612903,13.146821 23.7419355,12.2661079 23.7419355,11.3430628 C23.7419355,10.3921404 23.5530323,9.48664762 23.2175484,8.65446151 C23.8296774,7.34836297 24.932129,6.34788116 26.3215484,5.90907335 L38.0954839,2.13429369 C38.2544516,2.08266925 38.4216774,2.05582453 38.5909677,2.06614942 L38.8541935,2.07544182 C39.6418065,2.10331903 40.2580645,2.7424297 40.2580645,3.53125126 C40.2580645,4.1362898 39.8771613,4.68557393 39.3104516,4.89620168 L28.8485161,8.79178254 L28.932129,11.322413 L34.8583226,12.1690539 L33.3388387,18.250414 Z M31.2030968,27.1029743 C31.0482581,26.8242023 30.9677419,26.5082607 30.9677419,26.1923191 C30.9677419,25.6068978 31.2330323,25.0638086 31.6954839,24.7045025 L32.1723871,24.3338389 L35.2939355,27.4560856 L40.5832258,37.1552869 L36.7390968,37.1552869 L31.2030968,27.1029743 Z M61.9354839,55.7400883 L61.9354839,61.9350221 L33.0322581,61.9350221 L33.0322581,55.7400883 L53.6774194,55.7400883 L53.6774194,53.6751103 L33.0322581,53.6751103 L33.0322581,50.7954986 L33.0363871,50.7954986 L33.0322581,50.5776435 L33.0322581,43.3502207 L45.4193548,43.3502207 L45.4193548,41.2852428 L33.0322581,41.2852428 L33.0322581,39.2202648 L51.0750968,39.2202648 L57.8064516,48.8378995 L57.8064516,53.6751103 L55.7419355,53.6751103 L55.7419355,55.7400883 L61.9354839,55.7400883 Z M59.3765161,47.4801766 L52.1507097,37.1552869 L45.4193548,37.1552869 L45.4193548,33.025331 L55.204129,33.025331 L61.9354839,42.6429658 L61.9354839,47.4801766 L59.3765161,47.4801766 Z" id="Shape" fill="#303337"></path>
                        <path d="M36.9135484,12.4633133 L38.9243871,12.7503452 C41.4492903,13.1106839 43.3548387,15.3078204 43.3548387,17.8601331 L43.3548387,18.2338941 C43.3548387,20.0252625 42.4474839,21.66279 40.928,22.6116473 L36.2776774,25.5191363 L33.8136774,23.0545851 L36.1290323,21.2528919 L36.1290323,18.8946871 L35.3507097,18.715034 L36.9135484,12.4633133 Z" id="Path" fill="#F0AA3B"></path>
                    </g>
                </g>
            </g>
        </g>
    </g>
</svg>