<svg width="384" height="190" viewBox="0 0 384 190" fill="none" xmlns="http://www.w3.org/2000/svg">
<path d="M94.588 132.307H47.3848V113.562L92.0728 43.4705H113.404V115.297H129.599V132.307H113.404V154.986H94.588V132.307ZM94.588 70.2477H94.2712L66.5176 115.297H94.588V70.2477Z" fill="#FEC311"/>
<path d="M301.641 132.307H254.447V113.562L299.135 43.4705H320.466V115.297H336.614V132.307H320.466V154.986H301.641V132.307ZM304.924 70.2477H304.607L276.854 115.297H304.924V70.2477Z" fill="#FEC311"/>
<path d="M188.62 49.0342C178.758 49.0323 169.116 51.9673 160.915 57.4683C152.713 62.9693 146.319 70.7892 142.542 79.9395C138.764 89.0898 137.773 99.1596 139.692 108.876C141.611 118.592 146.356 127.519 153.325 134.527C160.295 141.536 169.176 146.312 178.848 148.251C188.519 150.19 198.546 149.205 207.66 145.421C216.774 141.638 224.567 135.225 230.053 126.993C235.54 118.762 238.473 109.081 238.482 99.1752C238.49 92.5933 237.206 86.0745 234.703 79.9914C232.201 73.9084 228.529 68.3804 223.898 63.7236C219.267 59.0669 213.768 55.3726 207.715 52.8521C201.661 50.3315 195.173 49.0342 188.62 49.0342Z" fill="white" stroke="#303337" stroke-width="1.04545" stroke-linecap="round" stroke-linejoin="round"/>
<path d="M214.761 86.2735C216.034 86.2735 217.065 84.7323 217.065 82.8311C217.065 80.9299 216.034 79.3887 214.761 79.3887C213.489 79.3887 212.457 80.9299 212.457 82.8311C212.457 84.7323 213.489 86.2735 214.761 86.2735Z" fill="#303337"/>
<path d="M130.039 84.2871L247.159 58.2524L224.119 51.5027C224.119 51.5027 211.639 30.7231 208.308 30.2892C204.977 29.8552 144.439 42.8244 144.439 42.8244L140.599 72.099L130.039 84.2871Z" fill="#303337"/>
<path d="M169.219 109.56C169.219 109.56 198.979 97.6131 211.996 119.868L169.219 109.56Z" fill="white"/>
<path d="M154.424 154.774L141.186 133.753L199.054 123.812L203.029 143.955L208.904 125.403L238.51 131.275L232.491 154.774H154.424Z" fill="#303337"/>
<path d="M228.578 109.192L233.913 108.45L236.669 128.451C236.761 129.12 236.585 129.798 236.179 130.336C235.774 130.875 235.172 131.229 234.506 131.322L234.192 131.365C233.526 131.458 232.851 131.281 232.315 130.873C231.779 130.466 231.426 129.861 231.334 129.193L228.578 109.192Z" fill="white"/>
<path d="M233.846 131.883C233.119 131.88 232.417 131.615 231.868 131.135C231.32 130.655 230.962 129.993 230.861 129.269L228.106 109.261C228.089 109.135 228.123 109.007 228.201 108.906C228.278 108.804 228.392 108.738 228.518 108.721L233.846 107.979C233.909 107.971 233.973 107.975 234.034 107.991C234.094 108.008 234.152 108.036 234.202 108.075C234.252 108.112 234.295 108.16 234.326 108.215C234.358 108.27 234.377 108.33 234.384 108.393L237.12 128.392C237.177 128.786 237.155 129.188 237.056 129.573C236.957 129.959 236.783 130.321 236.544 130.639C236.304 130.956 236.005 131.223 235.662 131.423C235.319 131.623 234.94 131.753 234.547 131.805L234.24 131.854C234.11 131.872 233.978 131.882 233.846 131.883ZM229.123 109.608L231.811 129.134C231.887 129.675 232.173 130.164 232.607 130.495C233.04 130.825 233.585 130.97 234.125 130.899H234.442C234.98 130.822 235.465 130.535 235.793 130.099C236.12 129.664 236.263 129.116 236.189 128.575L233.501 109.049L229.123 109.608Z" fill="#303337"/>
<path d="M233.086 90.3419L224.48 91.5383L227.176 111.1L235.782 109.903L233.086 90.3419Z" fill="white"/>
<path d="M227.172 111.595C227.069 111.592 226.968 111.559 226.884 111.498C226.832 111.462 226.789 111.414 226.758 111.36C226.726 111.305 226.707 111.243 226.702 111.18L224.004 91.6058C223.994 91.5435 223.997 91.4799 224.011 91.4186C224.026 91.3574 224.053 91.2997 224.09 91.249C224.17 91.1506 224.283 91.0854 224.407 91.0658L233.047 89.8701C233.11 89.8607 233.174 89.864 233.235 89.8799C233.296 89.8958 233.354 89.9239 233.404 89.9626C233.454 90.0013 233.496 90.0498 233.527 90.1052C233.558 90.1605 233.578 90.2216 233.585 90.2848L236.283 109.849C236.299 109.976 236.265 110.104 236.187 110.205C236.11 110.306 235.996 110.373 235.87 110.389L227.23 111.585L227.172 111.595ZM225.022 91.9529L227.585 110.563L235.265 109.502L232.702 90.8923L225.022 91.9529Z" fill="#303337"/>
<path d="M234.608 123.88L232.088 124.23C230.407 124.464 229.233 126.021 229.466 127.709L233.312 155.619C233.544 157.307 235.095 158.486 236.776 158.252L239.296 157.902C240.977 157.668 242.15 156.11 241.918 154.422L238.072 126.513C237.839 124.825 236.289 123.646 234.608 123.88Z" fill="white"/>
<path d="M236.342 158.775C235.485 158.774 234.658 158.462 234.013 157.897C233.367 157.332 232.946 156.552 232.828 155.699L228.988 127.784C228.923 127.321 228.949 126.848 229.066 126.395C229.183 125.942 229.388 125.516 229.67 125.142C230.24 124.391 231.081 123.895 232.012 123.764L234.547 123.416C235.477 123.287 236.421 123.535 237.17 124.104C237.919 124.674 238.412 125.519 238.54 126.454L242.38 154.417C242.506 155.351 242.259 156.298 241.692 157.049C241.126 157.801 240.286 158.297 239.356 158.428L236.822 158.785L236.342 158.775ZM235.036 124.342C234.918 124.333 234.799 124.333 234.681 124.342L232.147 124.689C231.809 124.735 231.484 124.849 231.191 125.023C230.897 125.196 230.641 125.427 230.438 125.702C230.229 125.973 230.078 126.283 229.992 126.615C229.906 126.946 229.888 127.292 229.939 127.63L233.779 155.593C233.877 156.267 234.232 156.876 234.77 157.29C235.308 157.704 235.986 157.891 236.659 157.811L239.193 157.454C239.865 157.358 240.472 157.002 240.885 156.461C241.298 155.92 241.483 155.238 241.401 154.562L237.561 126.598C237.476 125.978 237.17 125.409 236.701 124.997C236.232 124.584 235.631 124.355 235.007 124.352L235.036 124.342Z" fill="#303337"/>
<path d="M228.096 109.126C240.837 109.126 251.165 98.7523 251.165 85.9553C251.165 73.1584 240.837 62.7844 228.096 62.7844C215.356 62.7844 205.027 73.1584 205.027 85.9553C205.027 98.7523 215.356 109.126 228.096 109.126Z" fill="white"/>
<path d="M228.075 109.608C223.554 109.606 219.129 108.297 215.328 105.838C211.527 103.379 208.511 99.8729 206.64 95.7388C204.768 91.6048 204.121 87.0172 204.775 82.5236C205.429 78.0301 207.356 73.8205 210.327 70.3972C213.298 66.9739 217.187 64.4816 221.529 63.2178C225.872 61.9539 230.485 61.972 234.818 63.2697C239.151 64.5674 243.02 67.09 245.964 70.5363C248.908 73.9827 250.803 78.2073 251.422 82.7058C252.271 88.9142 250.636 95.2074 246.876 100.208C243.115 105.208 237.536 108.509 231.358 109.387C230.27 109.534 229.173 109.608 228.075 109.608ZM228.075 63.2569C227.031 63.2558 225.989 63.3267 224.955 63.469C220.527 64.0836 216.381 66.0032 213.039 68.9851C209.698 71.967 207.312 75.8773 206.183 80.2213C205.054 84.5654 205.233 89.1481 206.697 93.3899C208.162 97.6317 210.845 101.342 214.409 104.052C217.973 106.761 222.257 108.349 226.719 108.613C231.181 108.877 235.621 107.806 239.477 105.536C243.333 103.265 246.432 99.8972 248.383 95.8575C250.333 91.8178 251.046 87.2879 250.433 82.8408C249.679 77.4265 247.007 72.4667 242.908 68.87C238.809 65.2733 233.556 63.2805 228.113 63.2569H228.075Z" fill="#303337"/>
<path d="M228.095 104.777C238.444 104.777 246.834 96.3505 246.834 85.9553C246.834 75.5601 238.444 67.1332 228.095 67.1332C217.745 67.1332 209.355 75.5601 209.355 85.9553C209.355 96.3505 217.745 104.777 228.095 104.777Z" fill="white"/>
<path d="M228.087 105.26C223.109 105.26 218.326 103.318 214.747 99.8444C211.167 96.3707 209.07 91.6364 208.898 86.6398C208.726 81.6432 210.493 76.7749 213.826 73.0615C217.159 69.3482 221.798 67.0801 226.763 66.7355C231.729 66.3909 236.634 67.9967 240.444 71.2144C244.253 74.432 246.67 79.01 247.184 83.9828C247.698 88.9557 246.269 93.9347 243.199 97.8699C240.129 101.805 235.657 104.389 230.727 105.076C229.852 105.199 228.97 105.261 228.087 105.26ZM228.087 67.6539C227.236 67.6544 226.386 67.7124 225.543 67.8274C220.861 68.4795 216.613 70.932 213.696 74.668C210.779 78.4039 209.419 83.1316 209.904 87.8546C210.389 92.5776 212.681 96.9269 216.296 99.986C219.911 103.045 224.568 104.575 229.284 104.253C234 103.931 238.408 101.783 241.578 98.2611C244.748 94.7391 246.433 90.1184 246.278 85.373C246.123 80.6275 244.14 76.1279 240.746 72.8225C237.353 69.517 232.814 67.664 228.087 67.6539Z" fill="#303337"/>
<path d="M250.128 138.189C248.861 136.573 247.255 135.256 245.424 134.332C239.924 131.439 233.616 131.535 227.828 133.367C225.773 134.023 221.789 134.959 221.578 137.697C221.586 138.243 221.768 138.773 222.098 139.207C222.428 139.641 222.889 139.957 223.412 140.108C224.462 140.381 225.559 140.424 226.628 140.233C225.105 140.192 223.601 140.572 222.279 141.332C221.04 142.21 220.359 144.129 221.376 145.295C221.826 145.78 222.412 146.117 223.056 146.26C224.457 146.646 225.939 146.626 227.328 146.202C225.824 146.491 224.359 146.954 222.96 147.581C222.116 147.957 221.175 148.622 221.271 149.509C221.367 150.396 222.231 150.801 223.018 151.071C224.674 151.642 226.404 151.967 228.154 152.035C226.644 152.311 225.216 152.927 223.978 153.839C222.058 155.458 222.058 158.534 224.66 159.412C225.494 159.657 226.364 159.758 227.232 159.711C234.912 159.711 244.109 158.747 249.312 152.325C250.574 150.844 251.457 149.078 251.885 147.177C252.313 145.277 252.274 143.301 251.77 141.419C251.414 140.254 250.859 139.161 250.128 138.189Z" fill="white"/>
<path d="M227.173 160.164C226.272 160.208 225.37 160.101 224.504 159.846C223.93 159.67 223.415 159.342 223.012 158.895C222.61 158.449 222.336 157.901 222.219 157.31C222.11 156.597 222.184 155.868 222.437 155.192C222.689 154.517 223.11 153.918 223.659 153.453C224.278 152.937 224.979 152.529 225.733 152.247C224.754 152.081 223.791 151.832 222.853 151.505C221.576 151.061 220.933 150.406 220.789 149.577C220.645 148.747 221.384 147.744 222.709 147.118L223.39 146.828C223.216 146.796 223.043 146.754 222.872 146.703C222.134 146.547 221.462 146.162 220.952 145.604C220.718 145.316 220.547 144.981 220.449 144.623C220.352 144.264 220.33 143.889 220.386 143.521C220.46 143.009 220.636 142.517 220.903 142.075C221.17 141.633 221.523 141.249 221.941 140.946C222.24 140.736 222.562 140.561 222.901 140.426C222.355 140.202 221.888 139.818 221.561 139.325C221.234 138.832 221.062 138.251 221.067 137.658C221.288 134.843 224.754 133.801 227.038 133.097L227.653 132.914C234.066 130.88 240.45 131.236 245.614 133.879C247.513 134.844 249.176 136.221 250.482 137.909C251.248 138.919 251.836 140.054 252.219 141.265C252.751 143.223 252.797 145.282 252.353 147.262C251.91 149.242 250.99 151.083 249.675 152.624C244.232 159.306 234.805 160.174 227.202 160.183L227.173 160.164ZM226.261 146.867C225.195 147.139 224.154 147.503 223.15 147.957C222.699 148.159 221.672 148.709 221.749 149.422C221.826 150.136 222.555 150.386 223.17 150.589C224.781 151.155 226.466 151.48 228.171 151.553C228.286 151.555 228.397 151.599 228.482 151.677C228.567 151.756 228.62 151.862 228.632 151.977C228.645 152.093 228.616 152.209 228.551 152.304C228.486 152.4 228.388 152.469 228.277 152.498C226.837 152.766 225.474 153.349 224.283 154.205C223.857 154.557 223.53 155.014 223.333 155.531C223.136 156.048 223.076 156.608 223.16 157.156C223.244 157.579 223.442 157.972 223.734 158.29C224.025 158.608 224.398 158.839 224.811 158.959C225.592 159.191 226.408 159.282 227.221 159.229C234.622 159.229 243.771 158.399 248.955 152.026C250.171 150.609 251.023 148.915 251.438 147.091C251.853 145.268 251.818 143.37 251.336 141.564C250.983 140.46 250.444 139.427 249.742 138.507C248.527 136.929 246.975 135.644 245.202 134.746C240.258 132.191 234.142 131.854 227.97 133.782L227.346 133.975C225.31 134.592 222.219 135.527 222.046 137.687C222.064 138.128 222.221 138.552 222.493 138.899C222.766 139.245 223.14 139.496 223.563 139.616C224.118 139.794 224.701 139.866 225.282 139.828C225.733 139.78 226.174 139.751 226.597 139.722C226.721 139.719 226.843 139.762 226.937 139.844C227.031 139.927 227.091 140.041 227.106 140.165C227.114 140.291 227.074 140.416 226.993 140.512C226.913 140.609 226.798 140.672 226.674 140.686C226.242 140.686 225.79 140.783 225.33 140.792C224.344 140.856 223.39 141.168 222.555 141.699C222.243 141.926 221.979 142.213 221.78 142.545C221.58 142.876 221.449 143.244 221.394 143.627C221.356 143.862 221.367 144.103 221.427 144.334C221.486 144.564 221.593 144.78 221.739 144.967C222.13 145.37 222.631 145.645 223.179 145.758C224.117 146.012 225.096 146.078 226.059 145.951C226.443 145.855 226.837 145.768 227.221 145.691C227.341 145.667 227.466 145.691 227.57 145.757C227.674 145.824 227.748 145.928 227.778 146.047C227.805 146.167 227.787 146.293 227.727 146.4C227.666 146.508 227.568 146.588 227.451 146.626C227.062 146.739 226.664 146.82 226.261 146.867Z" fill="#303337"/>
<path d="M196.598 86.3217C196.598 86.3217 208.29 103.967 201.215 104.218C194.14 104.469 193.535 102.608 193.535 102.608" fill="white"/>
<path d="M199.948 104.777C194.015 104.777 193.16 103.148 193.045 102.849C193.005 102.722 193.016 102.585 193.075 102.466C193.134 102.348 193.237 102.257 193.362 102.213C193.487 102.173 193.622 102.184 193.739 102.243C193.855 102.303 193.944 102.406 193.986 102.531C193.986 102.531 194.85 104.025 201.196 103.794C201.505 103.823 201.816 103.761 202.091 103.618C202.367 103.474 202.596 103.254 202.751 102.984C204.268 100.024 198.527 90.2077 196.184 86.6785C196.122 86.5686 196.102 86.4389 196.131 86.3154C196.16 86.192 196.234 86.0839 196.338 86.0131C196.443 85.9422 196.57 85.9138 196.695 85.9335C196.819 85.9532 196.932 86.0195 197.01 86.1192C197.903 87.4692 205.65 99.4259 203.634 103.476C203.403 103.908 203.055 104.265 202.63 104.505C202.206 104.746 201.721 104.861 201.234 104.835L199.948 104.777Z" fill="#303337"/>
<path d="M229.159 92.6279C231.503 92.6279 233.402 89.3771 233.402 85.3671C233.402 81.357 231.503 78.1063 229.159 78.1063C226.816 78.1063 224.916 81.357 224.916 85.3671C224.916 89.3771 226.816 92.6279 229.159 92.6279Z" fill="#E1E5E9"/>
<path d="M177.235 91.2394C179.022 91.2394 180.47 88.6103 180.47 85.3672C180.47 82.124 179.022 79.4949 177.235 79.4949C175.448 79.4949 174 82.124 174 85.3672C174 88.6103 175.448 91.2394 177.235 91.2394Z" fill="#303337"/>
</svg>
