<svg width="280" height="280" viewBox="0 0 280 280" fill="none" xmlns="http://www.w3.org/2000/svg">
<g clip-path="url(#clip0_102_990)">
<path d="M115.343 257.728C115.343 257.728 86.8315 262.05 80.3515 258.763C73.8716 255.476 68.3765 215.396 66.8991 215.396C65.4217 215.396 59.9331 255.443 53.4402 258.763C48.9042 261.08 33.417 259.616 24.6496 258.555L22.7056 258.307C20.1136 257.975 18.5001 257.728 18.5001 257.728C13.7568 235.954 18.39 205.613 21.3837 197.059C23.9109 189.807 24.3062 178.24 24.3645 174.406C24.3645 173.592 24.3645 173.104 24.3645 173.104C25.8755 172.748 27.4153 172.53 28.9653 172.453C29.6586 172.388 30.4038 172.323 31.2009 172.264C43.4156 171.379 66.8926 170.962 66.8926 170.962C66.8926 170.962 105.287 171.691 109.414 173.15C109.414 173.15 109.414 178.077 109.946 183.936C110.36 188.356 111.099 193.303 112.414 197.079C115.389 205.613 120.028 235.954 115.343 257.728Z" fill="#4D3C8F"/>
<path d="M28.0522 195.946C24.9678 204.819 20.2179 235.654 24.6438 258.555L22.6998 258.308C18.1249 235.843 22.8553 205.144 25.8944 196.389C28.6289 188.545 28.9465 175.806 28.9853 172.453C29.6787 172.388 30.4304 172.323 31.2209 172.265C31.1043 176.587 30.6637 188.454 28.0522 195.946Z" fill="#39287B"/>
<path d="M105.727 195.946C108.812 204.819 113.562 235.654 109.142 258.555L111.086 258.308C115.622 235.843 110.931 205.144 107.892 196.389C105.151 188.545 104.833 175.806 104.794 172.453C104.107 172.388 103.356 172.323 102.559 172.265C102.662 176.587 103.122 188.454 105.727 195.946Z" fill="#39287B"/>
<path d="M66.8927 215.397C64.8339 212.441 61.8175 210.294 58.3585 209.323C60.0556 208.957 61.8217 209.091 63.4453 209.707C60.025 205.19 57.8925 199.824 57.2764 194.182C59.7674 200.07 63.0368 205.595 66.9963 210.606C69.0365 205.149 72.9192 200.585 77.9669 197.71C73.0445 202.731 69.266 208.765 66.8927 215.397Z" fill="#39287B"/>
<path d="M109.946 183.904C95.8044 188.384 80.8884 189.852 66.1504 188.214C51.4124 186.577 37.1764 181.87 24.3516 174.393C24.3516 173.58 24.3516 173.091 24.3516 173.091C25.8625 172.736 27.4024 172.518 28.9523 172.44C29.6457 172.375 30.3909 172.31 31.1879 172.252C43.4027 171.366 66.8797 170.95 66.8797 170.95C66.8797 170.95 105.274 171.679 109.401 173.137C109.414 173.117 109.395 178.045 109.946 183.904Z" fill="#39287B"/>
<path d="M105.507 111.784C104.736 118.834 108.404 131.183 107.036 139.124C107.004 139.352 106.959 139.567 106.913 139.775C105.967 144.189 107.678 163.151 109.181 169.472C99.4612 176.411 84.1879 180.915 66.8929 180.915C60.2547 180.931 53.6338 180.238 47.1419 178.845C38.1477 176.88 30.3911 173.625 24.6239 169.498C25.2719 166.816 26.3346 152.013 26.7234 149.364C27.2159 145.744 27.4103 142.379 26.8595 139.775C25.8292 134.919 26.8595 131.469 27.6954 123.814C28.1944 118.99 28.5832 114.57 28.2786 111.765C28.1944 110.977 28.1102 110.085 28.0194 109.096C27.7667 106.303 27.514 102.84 27.3002 99.5072C27.015 95.3346 26.7882 91.3508 26.6522 89.1376C26.5938 87.9919 26.555 87.3149 26.555 87.3149L23.2178 93.6812C21.9801 93.4729 20.7359 93.2125 19.5177 92.9131C12.7471 91.1883 6.19767 88.6829 0 85.4466C0 85.4466 6.97894 66.0808 7.82134 62.123C8.66374 58.1652 9.46725 37.7448 23.14 34.49C32.9701 32.1466 42.7031 27.1603 47.8223 23.8469L47.9519 23.7493C49.1483 23.0417 50.2631 22.2034 51.2761 21.2496C51.3288 21.2026 51.3765 21.1502 51.4187 21.0934C51.4631 21.0285 51.513 20.9676 51.5677 20.9111C51.6638 20.8156 51.7679 20.7285 51.8787 20.6508C53.3173 19.427 55.5464 20.2407 58.1578 21.1194C61.0673 22.0959 66.8929 21.9396 66.8929 21.9396C66.8929 21.9396 72.7248 22.0959 75.6279 21.1194C78.5309 20.143 80.935 19.2447 82.3411 21.1194C83.7473 22.9942 97.0766 31.2808 110.652 34.5161C124.325 37.7708 125.115 58.2238 125.958 62.149C126.8 66.0743 133.786 85.4727 133.786 85.4727C133.786 85.4727 122.349 91.7218 110.561 93.7333L107.231 87.367C107.231 87.367 106.693 97.2549 106.09 105.171C105.896 107.696 105.695 110.04 105.507 111.784Z" fill="#4D3C8F"/>
<g clip-path="url(#clip1_102_990)">
<path fill-rule="evenodd" clip-rule="evenodd" d="M98.3438 75.8916H79.2037C78.7829 75.8916 78.4404 76.2496 78.4404 76.6897V80.1114C78.4404 80.5512 78.7829 80.9093 79.2037 80.9093H98.3438C98.7647 80.9093 99.1071 80.5512 99.1071 80.1114V76.6897C99.1071 76.2496 98.7647 75.8916 98.3438 75.8916Z" fill="white"/>
<path fill-rule="evenodd" clip-rule="evenodd" d="M88.7741 68.1943C84.8353 68.1943 81.6309 71.5444 81.6309 75.6622C81.6309 79.7799 84.8353 83.1299 88.7741 83.1299C92.713 83.1299 95.9175 79.7799 95.9175 75.6622C95.9175 71.5444 92.713 68.1943 88.7741 68.1943Z" fill="white"/>
<path fill-rule="evenodd" clip-rule="evenodd" d="M85.0149 71.8643C85.034 71.8429 85.054 71.822 85.0742 71.8009C85.8408 70.9995 86.806 70.4753 87.8686 70.282L87.9763 70.2623L87.9044 70.3485C87.7932 70.4823 87.706 70.5962 87.6454 70.6872C87.6195 70.7265 87.584 70.7802 87.559 70.8382L87.5507 70.8574L87.5311 70.8613C87.5199 70.8637 86.3988 71.0999 85.3877 71.9882L85.3735 72.0006L84.9675 71.9177L85.0149 71.8643ZM89.0035 71.9068L89.0243 71.9221L88.6531 73.7732L88.6348 73.7816C87.612 74.2464 86.9685 74.6733 86.7394 74.8353L86.7193 74.8496L85.3004 73.9954L85.3023 73.9698C85.3193 73.7526 85.41 72.6492 85.5365 72.2459L85.5399 72.2353L85.5481 72.228C86.4885 71.3743 87.6513 71.1407 87.6629 71.1384L87.6974 71.1364L87.7128 71.1431C87.8438 71.2079 88.5123 71.544 89.0035 71.9068ZM89.3186 71.9539C89.6828 71.8139 90.6381 71.7193 91.1451 71.6854L91.1574 71.6846L91.168 71.6914C92.1173 72.305 92.6126 73.2011 92.6175 73.21L92.6243 73.2225L92.6222 73.2365C92.5792 73.5163 92.4241 74.4703 92.2253 75.0014L92.2179 75.0212L90.4814 75.4579L88.9236 73.8294L89.2985 71.9614L89.3186 71.9539ZM91.1359 70.7875C91.6276 71.0472 92.0762 71.387 92.4692 71.7979C92.8662 72.2128 93.1942 72.6874 93.4443 73.2084L93.4881 73.2997L92.8525 73.0573L92.8454 73.0449C92.84 73.0354 92.2917 72.0855 91.3242 71.4527L91.3134 71.4458L91.0446 70.7393L91.1359 70.7875ZM83.7234 77.0705C83.547 76.377 83.5024 75.6508 83.5959 74.9272L83.6117 74.8061L83.8722 75.2977L83.8709 75.3106C83.8059 75.9284 83.8759 76.5798 83.9602 77.0705H84.2414C84.1548 76.5841 84.0802 75.9307 84.1469 75.3233L84.1518 75.3077C84.3364 74.9758 84.7748 74.3231 85.1133 74.2287L85.1288 74.2244L86.6047 75.1124L86.9955 77.0705H89.8272L90.53 75.7421L92.2638 75.3064L92.2791 75.3276C92.5499 75.703 93.0244 76.4235 93.084 76.7428L93.0858 76.7521L93.085 76.755C93.0846 76.7876 93.0797 76.897 93.0395 77.0705H93.3231C93.3389 76.993 93.3482 76.9283 93.3535 76.8781L93.3562 76.8523L93.3797 76.844C93.4996 76.8022 93.6807 76.7106 93.8633 76.5124L93.9495 76.4189L93.9295 76.5469C93.9019 76.7243 93.8653 76.8987 93.8219 77.0705H94.1067C94.2045 76.6624 94.2613 76.2411 94.2718 75.8116C94.2726 75.7915 94.273 75.7715 94.273 75.7512C94.2845 74.9836 94.1531 74.2352 93.8824 73.526L93.8639 73.4772C93.5882 72.7717 93.1845 72.1381 92.6642 71.5941C92.1443 71.0507 91.5385 70.6289 90.8631 70.3403L90.8246 70.3238C90.1716 70.0508 89.4824 69.9121 88.7764 69.9121C88.6348 69.9121 88.4917 69.918 88.3507 69.9294L88.3486 69.9296H88.3473L88.339 69.9303L88.338 69.9299C88.3228 69.9307 88.3079 69.9321 88.2938 69.9338C87.0057 70.0508 85.7945 70.6403 84.8821 71.5941C84.7862 71.6943 84.693 71.7992 84.6051 71.9055C84.597 71.9154 84.5932 71.9199 84.5896 71.9247C84.0252 72.6138 83.622 73.4438 83.4222 74.3261C83.4175 74.3446 83.4136 74.3622 83.4096 74.3803L83.4087 74.3862C83.2163 75.2761 83.2333 76.1986 83.4423 77.0705H83.7234Z" fill="#303337"/>
<path fill-rule="evenodd" clip-rule="evenodd" d="M88.774 68.4785C84.9849 68.4785 81.9023 71.7011 81.9023 75.6624C81.9023 79.6235 84.9849 82.8462 88.774 82.8462C92.5631 82.8462 95.6457 79.6235 95.6457 75.6624C95.6457 71.7011 92.5631 68.4785 88.774 68.4785ZM88.774 68.7625C92.4191 68.7625 95.3741 71.8515 95.3741 75.6624C95.3741 79.4729 92.4191 82.5621 88.774 82.5621C85.1289 82.5621 82.174 79.4729 82.174 75.6624C82.174 71.8515 85.1289 68.7625 88.774 68.7625Z" fill="#303337"/>
<path fill-rule="evenodd" clip-rule="evenodd" d="M79.2034 80.483C79.0073 80.483 78.8477 80.3162 78.8477 80.1111V76.6894C78.8477 76.4842 79.0073 76.3174 79.2034 76.3174H98.3436C98.5398 76.3174 98.6995 76.4842 98.6995 76.6894V80.1111C98.6995 80.3162 98.5398 80.483 98.3436 80.483H79.2034Z" fill="#FEC311"/>
<path fill-rule="evenodd" clip-rule="evenodd" d="M98.3437 76.1753H79.2035C78.9325 76.1753 78.7119 76.4059 78.7119 76.6894V80.1111C78.7119 80.3944 78.9325 80.6249 79.2035 80.6249H98.3437C98.6148 80.6249 98.8354 80.3944 98.8354 80.1111V76.6894C98.8354 76.4059 98.6148 76.1753 98.3437 76.1753ZM98.3437 76.4593C98.4648 76.4593 98.5637 76.5627 98.5637 76.6894V80.1111C98.5637 80.2375 98.4648 80.341 98.3437 80.341H79.2035C79.0825 80.341 78.9836 80.2375 78.9836 80.1111V76.6894C78.9836 76.5627 79.0825 76.4593 79.2035 76.4593H98.3437Z" fill="#303337"/>
<path fill-rule="evenodd" clip-rule="evenodd" d="M80 79.2809V77.52H80.4451V78.8659H80.8784V77.52H81.3234V78.8659H81.7567V77.52H82.2018V79.2809H80Z" fill="#303337"/>
<path fill-rule="evenodd" clip-rule="evenodd" d="M82.5195 79.2809V77.52H82.9647V78.1867H83.1765L83.559 77.52H84.0523L83.523 78.3776L84.0765 79.2809H83.5832L83.174 78.6018H82.9647V79.2809H82.5195Z" fill="#303337"/>
<path fill-rule="evenodd" clip-rule="evenodd" d="M84.9511 77.9097C84.66 77.9097 84.506 78.1185 84.506 78.4002C84.506 78.6819 84.66 78.8907 84.9511 78.8907C85.2423 78.8907 85.3963 78.6819 85.3963 78.4002C85.3963 78.1185 85.2423 77.9097 84.9511 77.9097ZM84.9511 77.4819C85.5528 77.4819 85.8534 77.9097 85.8534 78.4002C85.8534 78.8907 85.5528 79.3185 84.9511 79.3185C84.3496 79.3185 84.0488 78.8907 84.0488 78.4002C84.0488 77.9097 84.3496 77.4819 84.9511 77.4819Z" fill="#303337"/>
<path fill-rule="evenodd" clip-rule="evenodd" d="M87.5495 77.52V79.2809H87.1042V77.9351H86.741C86.688 78.657 86.6038 79.3011 86.1202 79.3036C86.0576 79.3036 85.9877 79.2935 85.9131 79.2684V78.8634C85.9445 78.8734 85.983 78.8784 86.0286 78.8734C86.3005 78.8432 86.2958 78.0533 86.3343 77.52H87.5495Z" fill="#303337"/>
<path fill-rule="evenodd" clip-rule="evenodd" d="M88.3968 78.6268H88.8299L88.6568 78.1187C88.6423 78.0759 88.6278 78.0331 88.6135 77.9401C88.5989 78.0331 88.5844 78.0759 88.5701 78.1187L88.3968 78.6268ZM87.7109 79.2809L88.3728 77.52H88.854L89.5159 79.2809H89.0587L88.9623 79.0041H88.2645L88.1683 79.2809H87.7109Z" fill="#303337"/>
<path fill-rule="evenodd" clip-rule="evenodd" d="M92.2043 77.52V79.2809H91.7591V78.345L91.3982 78.9236H91.1432L90.7822 78.3425V79.2809H90.3369V77.52H90.758L91.2706 78.345L91.7832 77.52H92.2043Z" fill="#303337"/>
<path fill-rule="evenodd" clip-rule="evenodd" d="M93.185 78.33H93.4449V77.9224H93.185C93.0334 77.9224 92.9468 77.9904 92.9468 78.1262C92.9468 78.2621 93.0334 78.33 93.185 78.33ZM92.3838 79.2809L92.8384 78.6444C92.6364 78.5664 92.4897 78.403 92.4897 78.1262C92.4897 77.6859 92.8145 77.52 93.1801 77.52H93.8902V79.2809H93.4449V78.7073H93.2885L92.8914 79.2809H92.3838Z" fill="#303337"/>
<path fill-rule="evenodd" clip-rule="evenodd" d="M95.1362 79.2809V78.6821C94.9991 78.725 94.8668 78.7475 94.7465 78.7475C94.3807 78.7475 94.1328 78.5514 94.1328 78.1387V77.52H94.5779V78.1137C94.5779 78.2571 94.7007 78.3274 94.8596 78.3274C94.9462 78.3274 95.0426 78.3075 95.1362 78.2672V77.52H95.5816V79.2809H95.1362Z" fill="#303337"/>
<path fill-rule="evenodd" clip-rule="evenodd" d="M96.4281 78.6268H96.8612L96.6879 78.1187C96.6735 78.0759 96.6589 78.0331 96.6446 77.9401C96.63 78.0331 96.6156 78.0759 96.6012 78.1187L96.4281 78.6268ZM95.7422 79.2809L96.4038 77.52H96.8851L97.5469 79.2809H97.0897L96.9935 79.0041H96.2956L96.1995 79.2809H95.7422Z" fill="#303337"/>
<path fill-rule="evenodd" clip-rule="evenodd" d="M88.7121 69.2298L88.7004 69.2531L88.6761 69.2575L88.5352 69.2797L88.6379 69.3859L88.6549 69.4036L88.6506 69.4292L88.6273 69.5787L88.7513 69.5088L88.7735 69.4968L88.7957 69.5088L88.9197 69.5787L88.8964 69.4292L88.8922 69.4036L88.9091 69.3859L89.0119 69.2797L88.8709 69.2575L88.8466 69.2531L88.8349 69.2298L88.7735 69.0957L88.7121 69.2298Z" fill="#303337"/>
<path fill-rule="evenodd" clip-rule="evenodd" d="M85.8969 69.9757L85.8968 70.0021L85.8771 70.0177L85.7617 70.105L85.8995 70.1501L85.9224 70.1577L85.9298 70.1825L85.9747 70.3265L86.0543 70.2049L86.0686 70.1836L86.0938 70.1837L86.2347 70.1863L86.1482 70.0645L86.1334 70.044L86.1405 70.02L86.1852 69.8763L86.0503 69.9241L86.0268 69.9319L86.0062 69.9169L85.8928 69.8271L85.8969 69.9757Z" fill="#303337"/>
<path fill-rule="evenodd" clip-rule="evenodd" d="M83.7232 71.9884L83.7347 72.0118L83.724 72.0351L83.6596 72.1681L83.8019 72.1421L83.8256 72.138L83.8431 72.1563L83.9461 72.2628L83.9636 72.1167L83.967 72.0907L83.9893 72.0789L84.1156 72.0135L83.9855 71.9468L83.9632 71.9356L83.9591 71.9108L83.9358 71.7617L83.8368 71.869L83.8194 71.8873L83.7944 71.8836L83.6543 71.8584L83.7232 71.9884Z" fill="#303337"/>
<path fill-rule="evenodd" clip-rule="evenodd" d="M82.674 74.8194L82.6944 74.8348L82.6951 74.8605L82.6963 75.0096L82.8113 74.9182L82.8306 74.9031L82.8542 74.911L82.9925 74.9563L82.9439 74.8182L82.9355 74.7935L82.9501 74.7722L83.0337 74.6536L82.8888 74.6567L82.8641 74.6575L82.8496 74.6375L82.7635 74.5161L82.7226 74.6589L82.7151 74.6834L82.6913 74.6922L82.5557 74.7369L82.674 74.8194Z" fill="#303337"/>
<path fill-rule="evenodd" clip-rule="evenodd" d="M91.6543 69.8271L91.5409 69.9169L91.5203 69.9319L91.4968 69.9241L91.3618 69.8763L91.4065 70.02L91.4138 70.044L91.3989 70.0645L91.3125 70.1863L91.4533 70.1837L91.4783 70.1836L91.4929 70.2049L91.5725 70.3265L91.6172 70.1825L91.6248 70.1577L91.6475 70.1501L91.7854 70.105L91.6699 70.0177L91.6502 70.0021L91.6501 69.9757L91.6543 69.8271Z" fill="#303337"/>
<path fill-rule="evenodd" clip-rule="evenodd" d="M93.8939 71.8584L93.7538 71.8836L93.7288 71.8873L93.7113 71.869L93.6124 71.7617L93.5891 71.9108L93.585 71.9356L93.5628 71.9468L93.4326 72.0135L93.5589 72.0789L93.5812 72.0907L93.5847 72.1167L93.6021 72.2628L93.7051 72.1563L93.7226 72.138L93.7462 72.1421L93.8886 72.1681L93.8242 72.0351L93.8135 72.0118L93.825 71.9884L93.8939 71.8584Z" fill="#303337"/>
<path fill-rule="evenodd" clip-rule="evenodd" d="M94.9917 74.7369L94.8561 74.6922L94.8323 74.6834L94.8248 74.6589L94.7839 74.5161L94.6978 74.6375L94.6833 74.6575L94.6586 74.6567L94.5137 74.6536L94.5973 74.7722L94.6119 74.7935L94.6035 74.8182L94.5549 74.9563L94.6933 74.911L94.7168 74.9031L94.7361 74.9182L94.8511 75.0096L94.8523 74.8605L94.853 74.8348L94.8734 74.8194L94.9917 74.7369Z" fill="#303337"/>
<path fill-rule="evenodd" clip-rule="evenodd" d="M87.1584 81.591C87.254 81.4993 87.3092 81.4221 87.3092 81.2996C87.3092 81.1313 87.1948 81.0269 87.0103 81.0269C86.9248 81.0269 86.8388 81.0474 86.7747 81.0831L86.7568 81.0931L86.8179 81.2585L86.8409 81.2448C86.8823 81.22 86.9392 81.2048 86.9893 81.2048C87.0476 81.2048 87.117 81.2208 87.117 81.2974C87.117 81.3589 87.0929 81.4039 87.0217 81.4755C86.9324 81.5645 86.8542 81.6318 86.7828 81.6817L86.7726 81.6888V81.8219H87.3213V81.6461H87.0944C87.1153 81.63 87.1367 81.6119 87.1584 81.591Z" fill="#303337"/>
<path fill-rule="evenodd" clip-rule="evenodd" d="M88.1776 81.6566C88.0577 81.6566 87.9705 81.5617 87.9705 81.4308C87.9705 81.2999 88.0577 81.2048 88.1776 81.2048C88.2976 81.2048 88.3846 81.2999 88.3846 81.4308C88.3846 81.5617 88.2976 81.6566 88.1776 81.6566ZM88.1776 81.0269C87.9501 81.0269 87.7783 81.2005 87.7783 81.4308C87.7783 81.6609 87.9501 81.8346 88.1776 81.8346C88.4053 81.8346 88.577 81.6609 88.577 81.4308C88.577 81.2005 88.4053 81.0269 88.1776 81.0269Z" fill="#303337"/>
<path fill-rule="evenodd" clip-rule="evenodd" d="M89.4032 81.6566C89.2833 81.6566 89.1962 81.5617 89.1962 81.4308C89.1962 81.2999 89.2833 81.2048 89.4032 81.2048C89.5232 81.2048 89.6103 81.2999 89.6103 81.4308C89.6103 81.5617 89.5232 81.6566 89.4032 81.6566ZM89.4032 81.0269C89.1755 81.0269 89.0039 81.2005 89.0039 81.4308C89.0039 81.6609 89.1755 81.8346 89.4032 81.8346C89.6307 81.8346 89.8024 81.6609 89.8024 81.4308C89.8024 81.2005 89.6307 81.0269 89.4032 81.0269Z" fill="#303337"/>
<path fill-rule="evenodd" clip-rule="evenodd" d="M90.2451 81.0396V81.2153H90.5739L90.3288 81.8219H90.5343L90.789 81.1691L90.7907 81.0396H90.2451Z" fill="#303337"/>
<path fill-rule="evenodd" clip-rule="evenodd" d="M97.807 76.8998C97.629 76.8998 97.4488 77.0224 97.4488 77.2567C97.4488 77.4911 97.629 77.6137 97.807 77.6137C97.9846 77.6137 98.1643 77.4911 98.1643 77.2567C98.1643 77.0224 97.9846 76.8998 97.807 76.8998ZM97.807 77.6981C97.589 77.6981 97.3682 77.5465 97.3682 77.2567C97.3682 76.967 97.589 76.8154 97.807 76.8154C98.0247 76.8154 98.245 76.967 98.245 77.2567C98.245 77.5465 98.0247 77.6981 97.807 77.6981Z" fill="#303337"/>
<path fill-rule="evenodd" clip-rule="evenodd" d="M97.8292 77.2405H97.7443V77.1363H97.8292C97.8586 77.1363 97.8984 77.1418 97.8984 77.1889C97.8984 77.235 97.8586 77.2405 97.8292 77.2405ZM97.9184 77.315C97.9667 77.2997 98.0055 77.2569 98.0055 77.1845C98.0055 77.0771 97.9184 77.0376 97.8418 77.0376H97.6436V77.4664H97.7443V77.326H97.8051C97.8082 77.326 97.8114 77.326 97.8145 77.326L97.9152 77.4664H98.0296L97.9184 77.315Z" fill="#303337"/>
</g>
<path d="M85.5677 23.5996C84.3848 22.9077 83.2958 22.0654 82.3277 21.0934C82.2836 21.0282 82.2337 20.9672 82.1786 20.9111C82.088 20.8071 81.9906 20.7092 81.887 20.6182C80.455 19.3944 78.2323 20.2146 75.6144 21.0934C72.7114 22.0698 66.8794 21.9136 66.8794 21.9136C66.8794 21.9136 61.0474 22.0698 58.1444 21.0934C55.5394 20.2146 53.3168 19.3944 51.8847 20.6508C51.7812 20.7418 51.6837 20.8396 51.5931 20.9437C51.54 21.0015 51.4902 21.0623 51.4441 21.126C50.476 22.0979 49.387 22.9403 48.2041 23.6321L51.1914 24.8559C50.3295 22.0698 55.1312 22.9681 57.8787 24.205C60.6262 25.4418 66.9118 25.1879 66.9118 25.1879C66.9118 25.1879 73.1974 25.4157 75.9449 24.205C78.6924 22.9942 83.4941 22.0959 82.6322 24.8559L85.5677 23.5996Z" fill="#39287B"/>
<path d="M47.9519 23.7497L47.7963 23.8473C42.7031 27.1607 32.9701 32.147 23.14 34.4904C9.46725 37.7452 8.66373 58.1981 7.82134 62.1234C6.97894 66.0486 0 85.447 0 85.447C0 85.447 0.693358 85.8246 1.94399 86.4235C2.51423 86.6969 3.19463 87.0288 3.97871 87.3934C4.62671 87.6993 5.38486 88.0443 6.1819 88.3763C6.8299 88.6627 7.52974 88.9557 8.26846 89.2421C13.092 91.2561 18.1137 92.7529 23.2502 93.7076L26.5679 87.3413C26.5679 76.7373 26.5679 66.0681 24.6758 55.6334C24.0731 52.3395 23.3409 48.7072 25.0646 45.8691C26.4383 43.5842 29.0238 42.4125 31.4149 41.2733C33.5716 40.2623 35.672 39.1345 37.707 37.8949C39.6955 36.6912 41.5734 35.3122 43.3187 33.7743C43.552 33.5725 43.7788 33.3512 44.0056 33.1234C45.3139 31.8402 46.4946 30.4318 47.5307 28.9182C48.4262 27.6438 49.2172 26.2984 49.8959 24.8953C50.4747 23.7237 50.9516 22.5041 51.3214 21.25C50.2943 22.2065 49.1641 23.0449 47.9519 23.7497Z" fill="#39287B"/>
<path d="M83.968 24.9276C84.0159 24.9662 84.0681 24.9989 84.1236 25.0252C89.2427 28.319 98.9757 33.3249 108.806 35.6683C122.479 38.9231 123.282 59.376 124.124 63.3078C124.922 67.0247 131.129 84.3596 131.9 86.4231L129.866 87.3931C129.367 86.0326 122.887 68.1444 122.09 64.3623C121.247 60.4566 120.444 40.212 106.771 36.9832C99.6374 35.1701 92.7613 32.4557 86.3073 28.9049C85.419 27.6328 84.6325 26.292 83.9551 24.895L83.968 24.9276Z" fill="white"/>
<path d="M82.4834 21.25C82.8504 22.505 83.3275 23.7249 83.909 24.8953C84.5864 26.2923 85.373 27.6331 86.2612 28.9052C87.2976 30.4204 88.4805 31.829 89.7928 33.1104C90.0131 33.3252 90.2464 33.5465 90.4732 33.7613C92.2197 35.2977 94.0975 36.6765 96.0849 37.8819C98.1216 39.1184 100.224 40.2419 102.383 41.2473C104.775 42.3865 107.36 43.5582 108.734 45.843C110.457 48.7072 109.719 52.3526 109.123 55.6073C107.179 66.0226 107.179 76.7112 107.224 87.3153L110.561 93.6816C115.699 92.7259 120.723 91.2291 125.549 89.216C126.282 88.9296 126.975 88.6367 127.629 88.3503C128.433 88.0053 129.165 87.6993 129.839 87.3673L131.874 86.3974C133.092 85.7985 133.818 85.421 133.818 85.421C133.818 85.421 126.839 66.0551 125.99 62.0973C125.141 58.1395 124.351 37.7191 110.678 34.4644C100.848 32.1209 91.1083 27.1151 85.9891 23.8213L85.8336 23.7236C84.63 23.0249 83.5065 22.1953 82.4834 21.25Z" fill="#39287B"/>
<path d="M52.7143 25.9886C52.1354 25.1646 51.6974 24.2494 51.4183 23.2806C51.2109 22.4944 51.2679 21.6615 51.5803 20.9111C51.5271 20.9689 51.4773 21.0298 51.4312 21.0934C50.3976 22.126 49.2344 23.0188 47.9709 23.7493L47.8154 23.8534C47.66 24.4278 47.5944 25.0229 47.621 25.6175C47.7247 27.5704 48.7096 29.3345 49.8242 30.9619L50.0121 31.2353C51.9179 33.9407 54.4434 36.1461 57.3756 37.6653C60.3079 39.1846 63.5608 39.9732 66.8601 39.9645C60.7494 36.7944 56.1746 31.5542 52.7143 25.9886Z" fill="#39287B"/>
<path d="M85.9566 23.8534L85.8011 23.7493C84.5376 23.0188 83.3744 22.126 82.3408 21.0934C82.2967 21.0282 82.2468 20.9672 82.1917 20.9111C82.4983 21.6537 82.5552 22.4765 82.3537 23.2546C82.0722 24.2224 81.6344 25.1372 81.0577 25.9625C77.5974 31.5282 73.0161 36.7684 66.873 39.9385C70.1723 39.9471 73.4252 39.1586 76.3575 37.6393C79.2897 36.12 81.8152 33.9147 83.721 31.2092L83.9089 30.9358C85.0235 29.3084 86.0084 27.5183 86.1121 25.5915C86.1487 25.0076 86.0963 24.4214 85.9566 23.8534Z" fill="#39287B"/>
<path d="M107.036 139.124C105.209 141.908 102.931 144.366 100.297 146.396C96.2343 149.592 91.5558 151.896 86.7995 153.921C91.2659 150.756 94.9776 146.636 97.667 141.856C100.356 137.077 101.956 131.757 102.351 126.281C102.416 125.233 102.306 123.957 101.373 123.508C100.44 123.059 99.5327 123.671 98.781 124.218C91.653 129.269 84.6222 134.952 76.1982 137.276C83.4817 132.244 90.8365 127.147 96.7916 120.579C101.036 116.21 104.226 110.921 106.116 105.119C105.922 107.67 105.721 110.014 105.533 111.765C104.736 118.841 108.404 131.189 107.036 139.124Z" fill="#39287B"/>
<path d="M82.3804 98.5829C85.6389 95.3152 88.6803 91.8359 91.4847 88.1676C92.5151 86.8657 93.5259 85.4987 94.5303 84.1513C94.8349 83.7477 96.5262 80.7663 97.1807 82.0617C97.3119 82.453 97.2864 82.8803 97.1094 83.2529C94.2323 91.6047 88.7761 100.262 81.7129 105.62C76.4188 109.623 70.347 111.576 63.9448 112.93C62.0851 113.32 63.4329 111.96 64.2364 111.582C70.9727 108.311 77.1077 103.916 82.3804 98.5829Z" fill="#39287B"/>
<path d="M26.7041 149.364C27.216 145.745 27.4104 142.379 26.8596 139.775C25.8293 134.919 26.8596 131.469 27.6955 123.814C28.1945 118.99 28.5833 114.57 28.2787 111.765C28.1945 110.977 28.1103 110.085 28.0195 109.096C27.7668 106.303 27.5141 102.84 27.3003 99.5073C32.3287 106.451 37.3615 113.394 42.3986 120.338C41.3489 121.353 39.6057 120.409 38.6273 119.322C37.6488 118.235 36.4953 116.881 35.0568 117.148C33.359 117.467 32.9573 119.713 33.0739 121.438C33.396 125.751 34.5657 129.956 36.5155 133.812C38.4652 137.668 41.1564 141.097 44.4333 143.902C45.1461 144.508 45.9432 145.497 45.3729 146.233C44.8027 146.968 43.5391 146.311 42.6254 145.894C40.5713 144.963 38.0311 146.037 36.7092 147.847C35.3873 149.657 35.0438 152.033 35.0568 154.292C35.1086 159.883 37.0915 165.358 40.0529 170.064C42.0892 173.245 44.4665 176.192 47.142 178.852C38.1477 176.88 30.3912 173.625 24.624 169.498C25.272 166.816 26.3153 152.013 26.7041 149.364Z" fill="#39287B"/>
<path d="M261.526 257.728C261.526 257.728 233.014 262.051 226.534 258.763C220.054 255.476 214.772 216.751 213.191 215.436C213.167 215.42 213.141 215.407 213.114 215.397C212.271 215.397 210.133 228.383 207.249 240.179C205.059 249.097 202.448 257.338 199.655 258.763C195.119 261.081 179.632 259.616 170.864 258.555L168.92 258.308C166.328 257.976 164.715 257.728 164.715 257.728C159.997 235.954 164.63 205.613 167.611 197.046C170.138 189.795 170.534 178.227 170.592 174.393C170.592 173.58 170.592 173.091 170.592 173.091C172.103 172.736 173.643 172.518 175.193 172.44C175.886 172.375 176.631 172.31 177.428 172.252C189.643 171.366 213.12 170.95 213.12 170.95C213.12 170.95 251.514 171.679 255.642 173.137C255.642 173.137 255.642 178.065 256.173 183.923C256.588 188.343 257.326 193.29 258.642 197.066C261.603 205.613 266.243 235.954 261.526 257.728Z" fill="#4D3C8F"/>
<path d="M174.266 195.946C171.181 204.819 166.431 235.654 170.851 258.555L168.907 258.308C164.332 235.843 169.062 205.144 172.101 196.389C174.836 188.545 175.153 175.806 175.192 172.453C175.886 172.388 176.631 172.323 177.428 172.265C177.337 176.587 176.903 188.454 174.266 195.946Z" fill="#39287B"/>
<path d="M251.942 195.946C255.027 204.819 259.776 235.654 255.357 258.555L257.301 258.308C261.837 235.843 257.139 205.144 254.1 196.389C251.365 188.545 251.048 175.806 251.009 172.453C250.322 172.388 249.57 172.323 248.773 172.265C248.877 176.587 249.337 188.454 251.942 195.946Z" fill="#39287B"/>
<path d="M256.16 183.904C242.019 188.384 227.103 189.852 212.365 188.214C197.627 186.577 183.391 181.87 170.566 174.393C170.566 173.58 170.566 173.091 170.566 173.091C172.077 172.736 173.617 172.518 175.167 172.44C175.854 172.375 176.606 172.31 177.403 172.252C189.618 171.366 213.095 170.95 213.095 170.95C213.095 170.95 251.488 171.679 255.616 173.137C255.629 173.117 255.61 178.045 256.16 183.904Z" fill="#39287B"/>
<path d="M238.379 213.06C234.714 215.541 230.487 217.059 226.087 217.474C221.686 217.889 217.252 217.188 213.191 215.436C213.167 215.42 213.141 215.407 213.114 215.397C212.271 215.397 210.133 228.383 207.249 240.178C205.71 239.425 204.438 238.213 203.607 236.709C202.959 235.407 202.7 233.793 201.566 232.868C200.646 232.133 199.382 232.042 198.287 231.605C197.192 231.169 196.155 229.958 196.674 228.891C196.999 228.368 197.493 227.973 198.074 227.771L201.087 226.32C201.981 225.884 202.992 225.298 203.115 224.308C203.132 223.935 203.048 223.565 202.871 223.237C202.694 222.909 202.431 222.636 202.111 222.447C201.465 222.074 200.762 221.812 200.03 221.672C193.68 220.036 187.761 217.031 182.684 212.864C190.537 214.668 198.987 215.208 206.485 212.214C213.982 209.219 220.216 202.098 220.248 193.987C220.817 197.308 220.708 200.71 219.928 203.988C219.148 207.265 217.714 210.349 215.712 213.053C223.042 215.673 231.047 215.675 238.379 213.06Z" fill="#39287B"/>
<path d="M174.719 111.784C175.497 118.834 171.823 131.183 173.19 139.124C173.229 139.352 173.274 139.567 173.32 139.775C174.259 144.189 172.549 163.151 171.052 169.472C180.772 176.411 196.039 180.915 213.34 180.915C219.978 180.931 226.599 180.237 233.091 178.845C242.079 176.893 249.835 173.605 255.628 169.472C254.98 166.79 253.918 151.987 253.522 149.338C252.998 145.718 252.816 142.32 253.367 139.775C254.404 134.919 253.367 131.469 252.538 123.814C252.039 118.99 251.643 114.57 251.948 111.765C252.039 110.977 252.123 110.085 252.207 109.096C252.46 106.303 252.712 102.84 252.933 99.5072C253.211 95.3346 253.445 91.3508 253.581 89.1376C253.639 87.9919 253.678 87.3149 253.678 87.3149L257.015 93.6812C258.259 93.4729 259.497 93.2125 260.715 92.9131C267.489 91.1808 274.041 88.6665 280.239 85.4206C280.239 85.4206 273.254 66.0808 272.392 62.123C271.53 58.1652 270.753 37.7448 257.08 34.49C247.25 32.1466 237.51 27.1408 232.391 23.8469C232.337 23.8182 232.285 23.7856 232.236 23.7493C231.633 23.3587 231.095 23.0007 230.629 22.6687C230.014 22.2531 229.441 21.7778 228.918 21.2496C228.864 21.2043 228.816 21.1517 228.775 21.0934C228.731 21.0285 228.681 20.9676 228.626 20.9111C228.533 20.8179 228.433 20.7309 228.328 20.6508C226.896 19.427 224.667 20.2407 222.049 21.1194C219.146 22.0959 213.321 21.9396 213.321 21.9396C213.321 21.9396 207.489 22.0959 204.579 21.1194C201.67 20.143 199.272 19.2447 197.872 21.1194C196.473 22.9942 183.137 31.2808 169.561 34.5161C155.986 37.7513 155.105 58.1977 154.275 62.123C153.446 66.0482 146.447 85.4467 146.447 85.4467C146.447 85.4467 157.884 91.6958 169.672 93.7073L172.996 87.3409C172.996 87.3409 173.54 97.2289 174.143 105.145C174.337 107.696 174.544 110.04 174.719 111.784Z" fill="#4D3C8F"/>
<path d="M178.35 71.3159H179.926V77.1797H182.113V71.3159H183.689V77.1797H185.856V71.3159H187.432V78.5857H178.35V71.3159Z" fill="#FEC311"/>
<path d="M189.031 71.3159H190.607V74.2113H191.655L192.733 72.1804C192.892 71.8887 193.068 71.6735 193.262 71.5346C193.462 71.3888 193.718 71.3159 194.029 71.3159H194.672V72.722H194.029L193.282 74.1384C193.186 74.3259 193.075 74.4717 192.951 74.5759C192.833 74.6731 192.691 74.7495 192.525 74.805V74.8675C192.705 74.9022 192.857 74.9717 192.982 75.0758C193.113 75.173 193.227 75.3223 193.324 75.5237L194.174 77.1797H194.817V78.5857H193.998C193.707 78.5857 193.465 78.5233 193.272 78.3983C193.085 78.2733 192.906 78.0407 192.733 77.7005L191.655 75.607H190.607V78.5857H189.031V71.3159Z" fill="#FEC311"/>
<path d="M198.698 78.7107C198.221 78.7107 197.786 78.6309 197.392 78.4712C196.998 78.3115 196.662 78.0754 196.386 77.7629C196.109 77.4435 195.895 77.0512 195.743 76.586C195.591 76.1139 195.515 75.5688 195.515 74.9508C195.515 74.3329 195.591 73.7913 195.743 73.326C195.895 72.8539 196.109 72.4616 196.386 72.1491C196.662 71.8297 196.998 71.5902 197.392 71.4305C197.786 71.2708 198.221 71.1909 198.698 71.1909C199.175 71.1909 199.61 71.2708 200.004 71.4305C200.398 71.5902 200.734 71.8297 201.01 72.1491C201.287 72.4616 201.501 72.8539 201.653 73.326C201.805 73.7913 201.881 74.3329 201.881 74.9508C201.881 75.5688 201.805 76.1139 201.653 76.586C201.501 77.0512 201.287 77.4435 201.01 77.7629C200.734 78.0754 200.398 78.3115 200.004 78.4712C199.61 78.6309 199.175 78.7107 198.698 78.7107ZM198.698 77.3047C199.175 77.3047 199.545 77.1484 199.807 76.836C200.077 76.5235 200.212 76.0757 200.212 75.4924V74.4092C200.212 73.826 200.077 73.3781 199.807 73.0657C199.545 72.7532 199.175 72.597 198.698 72.597C198.221 72.597 197.848 72.7532 197.578 73.0657C197.316 73.3781 197.184 73.826 197.184 74.4092V75.4924C197.184 76.0757 197.316 76.5235 197.578 76.836C197.848 77.1484 198.221 77.3047 198.698 77.3047Z" fill="#FEC311"/>
<path d="M202.291 77.1797H203.152C203.263 77.0617 203.359 76.9158 203.442 76.7422C203.525 76.5617 203.594 76.3326 203.65 76.0548C203.712 75.7771 203.757 75.4438 203.784 75.055C203.819 74.6592 203.836 74.1836 203.836 73.6281V71.3159H208.948V78.5857H207.372V72.722H205.371V73.8468C205.371 74.4856 205.347 75.0411 205.298 75.5132C205.25 75.9785 205.184 76.3777 205.101 76.711C205.018 77.0443 204.918 77.3186 204.8 77.5338C204.69 77.7491 204.569 77.9226 204.438 78.0546C204.223 78.2698 203.992 78.4226 203.743 78.5128C203.501 78.6031 203.197 78.6482 202.831 78.6482H202.291V77.1797Z" fill="#FEC311"/>
<path d="M215.005 78.5857L214.487 76.8568H212.071L211.553 78.5857H209.956L212.341 71.3159H214.29L216.643 78.5857H215.005ZM213.295 72.7532H213.243L212.444 75.5132H214.103L213.295 72.7532Z" fill="#FEC311"/>
<path d="M225.507 73.8156H225.476L224.947 74.8779L223.537 77.4505L222.158 74.8883L221.609 73.7427H221.577V78.5857H220.095V71.3159H221.764L223.537 74.7217H223.558L225.31 71.3159H226.99V78.5857H225.507V73.8156Z" fill="#FEC311"/>
<path d="M228.227 77.1797H228.87L229.461 76.2527C229.544 76.1208 229.633 76.0167 229.73 75.9403C229.834 75.8639 229.979 75.8083 230.166 75.7736V75.7111C229.633 75.6556 229.205 75.4473 228.88 75.0862C228.562 74.7252 228.403 74.2426 228.403 73.6385C228.403 73.2913 228.455 72.9754 228.559 72.6907C228.662 72.406 228.807 72.163 228.994 71.9616C229.188 71.7533 229.419 71.5936 229.689 71.4825C229.958 71.3714 230.259 71.3159 230.591 71.3159H234.023V78.5857H232.447V75.9194H231.493L230.28 77.8254C230.183 77.9851 230.086 78.1136 229.989 78.2108C229.9 78.308 229.803 78.3844 229.699 78.4399C229.595 78.4955 229.485 78.5337 229.367 78.5545C229.257 78.5753 229.132 78.5857 228.994 78.5857H228.227V77.1797ZM232.447 74.5863V72.6907H230.788C230.553 72.6907 230.366 72.7532 230.228 72.8782C230.097 72.9962 230.031 73.1733 230.031 73.4094V73.8572C230.031 74.1002 230.097 74.2842 230.228 74.4092C230.366 74.5273 230.553 74.5863 230.788 74.5863H232.447Z" fill="#FEC311"/>
<path d="M239.473 76.0132H239.421C239.256 76.0896 239.062 76.1486 238.841 76.1902C238.62 76.2319 238.354 76.2527 238.043 76.2527C236.266 76.2527 235.378 75.3605 235.378 73.576V71.3159H236.954V73.6385C236.954 74.4648 237.365 74.8779 238.188 74.8779C238.492 74.8779 238.744 74.864 238.945 74.8363C239.145 74.8015 239.321 74.7529 239.473 74.6904V71.3159H241.049V78.5857H239.473V76.0132Z" fill="#FEC311"/>
<path d="M247.101 78.5857L246.583 76.8568H244.167L243.649 78.5857H242.052L244.437 71.3159H246.386L248.74 78.5857H247.101ZM245.391 72.7532H245.339L244.541 75.5132H246.199L245.391 72.7532Z" fill="#FEC311"/>
<path d="M232.022 23.7493C232.072 23.7856 232.123 23.8183 232.178 23.847C237.297 27.1408 247.03 32.1466 256.86 34.4901C270.533 37.7448 271.336 58.1978 272.172 62.123C273.008 66.0483 280 85.4467 280 85.4467C280 85.4467 279.307 85.8243 278.056 86.4231L276.047 87.3931C275.399 87.699 274.641 88.044 273.837 88.376C273.189 88.6624 272.496 88.9553 271.757 89.2418C266.932 91.2566 261.908 92.7534 256.769 93.7073L253.438 87.341C253.438 76.7369 253.438 66.0678 255.331 55.633C255.933 52.3392 256.665 48.7069 254.942 45.8687C253.568 43.5839 250.983 42.4122 248.591 41.273C246.435 40.262 244.334 39.1342 242.299 37.8946C240.31 36.6925 238.432 35.3134 236.688 33.774C236.454 33.5722 236.228 33.3509 236.001 33.1231C234.692 31.8399 233.512 30.4315 232.476 28.9179C231.583 27.6474 230.794 26.3064 230.117 24.908C229.538 23.7364 229.061 22.5168 228.691 21.2627C229.707 22.2123 230.824 23.0462 232.022 23.7493Z" fill="#39287B"/>
<path d="M194.198 23.7497C194.149 23.786 194.097 23.8186 194.043 23.8473C188.923 27.1411 179.184 32.147 169.354 34.4904C155.681 37.7452 154.878 58.1981 154.042 62.1234C153.206 66.0486 146.214 85.447 146.214 85.447C146.214 85.447 146.907 85.8246 148.158 86.4235L150.193 87.3934C150.841 87.6993 151.599 88.0443 152.402 88.3763C153.05 88.6627 153.744 88.9557 154.482 89.2421C159.308 91.2552 164.332 92.7519 169.471 93.7076L172.808 87.3413C172.808 76.7373 172.808 66.0681 170.909 55.6334C170.313 52.3395 169.574 48.7072 171.298 45.8691C172.672 43.5842 175.257 42.4125 177.648 41.2733C179.808 40.2637 181.91 39.1359 183.947 37.8949C185.934 36.6896 187.812 35.3107 189.558 33.7743C189.785 33.5725 190.019 33.3512 190.206 33.1234C191.524 31.8386 192.711 30.4256 193.751 28.9052C194.639 27.6331 195.426 26.2923 196.103 24.8953C196.682 23.7237 197.159 22.5041 197.529 21.25C196.513 22.2033 195.396 23.0415 194.198 23.7497Z" fill="#39287B"/>
<path d="M197.516 21.2498C197.569 21.2027 197.616 21.1504 197.659 21.0936C197.703 21.0287 197.753 20.9677 197.808 20.9113C197.895 20.8169 197.991 20.7298 198.093 20.6509C199.531 19.4271 201.76 20.2408 204.372 21.1196C207.281 22.096 213.107 21.9398 213.107 21.9398C213.107 21.9398 218.939 22.096 221.835 21.1196C224.427 20.2408 226.682 19.4271 228.114 20.6509C228.218 20.7397 228.315 20.8354 228.406 20.9373C228.461 20.9938 228.511 21.0548 228.555 21.1196C228.595 21.178 228.643 21.2305 228.698 21.2758C229.22 21.804 229.793 22.2793 230.408 22.6949C227.952 23.8731 222.211 26.0473 213.107 26.0473C204.002 26.0473 198.287 23.8471 195.799 22.6689C196.416 22.2529 196.991 21.7777 197.516 21.2498Z" fill="#39287B"/>
<path d="M172.957 139.124C174.79 141.907 177.069 144.364 179.703 146.396C183.766 149.592 188.445 151.896 193.201 153.921C188.735 150.756 185.023 146.636 182.333 141.856C179.644 137.077 178.044 131.757 177.649 126.281C177.584 125.233 177.694 123.957 178.627 123.508C179.561 123.059 180.468 123.671 181.219 124.218C188.347 129.269 195.378 134.952 203.802 137.276C196.519 132.244 189.164 127.147 183.209 120.579C178.965 116.21 175.775 110.921 173.884 105.119C174.079 107.67 174.279 110.014 174.467 111.765C175.264 118.841 171.59 131.189 172.957 139.124Z" fill="#39287B"/>
<path d="M197.639 98.5829C194.38 95.3152 191.339 91.8359 188.535 88.1676C187.504 86.8657 186.493 85.4987 185.489 84.1513C185.184 83.7477 183.493 80.7663 182.839 82.0617C182.707 82.453 182.733 82.8803 182.91 83.2529C185.761 91.6047 191.211 100.262 198.287 105.62C203.581 109.623 209.653 111.576 216.055 112.93C217.915 113.32 216.567 111.96 215.763 111.582C209.034 108.309 202.906 103.914 197.639 98.5829Z" fill="#39287B"/>
<path d="M253.296 149.364C252.765 145.745 252.59 142.347 253.141 139.802C254.171 134.946 253.141 131.496 252.305 123.84C251.806 119.017 251.417 114.597 251.722 111.791C251.806 111.003 251.89 110.112 251.981 109.122C252.234 106.33 252.486 102.867 252.7 99.5337C247.672 106.477 242.639 113.421 237.602 120.364C238.645 121.38 240.395 120.436 241.373 119.349C242.352 118.262 243.505 116.908 244.944 117.175C246.641 117.493 247.043 119.739 246.926 121.464C246.604 125.777 245.435 129.983 243.485 133.839C241.535 137.694 238.844 141.124 235.567 143.929C234.854 144.534 234.057 145.524 234.627 146.259C235.198 146.995 236.461 146.337 237.375 145.921C239.429 144.99 241.969 146.064 243.291 147.873C244.613 149.683 244.957 152.059 244.944 154.318C244.892 159.91 242.909 165.384 239.947 170.091C237.911 173.271 235.534 176.218 232.858 178.878C241.853 176.926 249.609 173.638 255.396 169.505C254.761 166.816 253.685 152.014 253.296 149.364Z" fill="#39287B"/>
</g>
<defs>
<clipPath id="clip0_102_990">
<rect width="280" height="280" fill="white"/>
</clipPath>
<clipPath id="clip1_102_990">
<rect width="20.7359" height="14.9719" fill="white" transform="translate(78.4082 68.1704)"/>
</clipPath>
</defs>
</svg>
