<svg width="280" height="241" viewBox="0 0 280 241" fill="none" xmlns="http://www.w3.org/2000/svg">
<path d="M115.343 238.728C115.343 238.728 86.8315 243.05 80.3515 239.763C73.8716 236.476 68.3765 196.396 66.8991 196.396C65.4217 196.396 59.9331 236.443 53.4402 239.763C48.9042 242.08 33.417 240.616 24.6496 239.555L22.7056 239.307C20.1136 238.975 18.5001 238.728 18.5001 238.728C13.7568 216.954 18.39 186.613 21.3837 178.059C23.9109 170.807 24.3062 159.24 24.3645 155.406C24.3645 154.592 24.3645 154.104 24.3645 154.104C25.8755 153.748 27.4153 153.53 28.9653 153.453C29.6586 153.388 30.4038 153.323 31.2009 153.264C43.4156 152.379 66.8926 151.962 66.8926 151.962C66.8926 151.962 105.287 152.691 109.414 154.15C109.414 154.15 109.414 159.077 109.946 164.936C110.36 169.356 111.099 174.303 112.414 178.079C115.389 186.613 120.028 216.954 115.343 238.728Z" fill="#FEC311"/>
<path d="M28.0522 176.946C24.9678 185.819 20.2179 216.654 24.6438 239.555L22.6998 239.308C18.1249 216.843 22.8553 186.144 25.8944 177.389C28.6289 169.545 28.9465 156.806 28.9853 153.453C29.6787 153.388 30.4304 153.323 31.2209 153.265C31.1043 157.587 30.6637 169.454 28.0522 176.946Z" fill="#EAAF00"/>
<path d="M105.727 176.946C108.812 185.819 113.562 216.654 109.142 239.555L111.086 239.308C115.622 216.843 110.931 186.144 107.892 177.389C105.151 169.545 104.833 156.806 104.794 153.453C104.107 153.388 103.356 153.323 102.559 153.265C102.662 157.587 103.122 169.454 105.727 176.946Z" fill="#EAAF00"/>
<path d="M66.8927 196.397C64.8339 193.441 61.8175 191.294 58.3585 190.323C60.0556 189.957 61.8217 190.091 63.4453 190.707C60.025 186.19 57.8925 180.824 57.2764 175.182C59.7674 181.07 63.0368 186.595 66.9963 191.606C69.0365 186.149 72.9192 181.585 77.9669 178.71C73.0445 183.731 69.266 189.765 66.8927 196.397Z" fill="#EAAF00"/>
<path d="M109.946 164.904C95.8044 169.384 80.8884 170.852 66.1504 169.214C51.4124 167.577 37.1764 162.87 24.3516 155.393C24.3516 154.58 24.3516 154.091 24.3516 154.091C25.8625 153.736 27.4024 153.518 28.9523 153.44C29.6457 153.375 30.3909 153.31 31.1879 153.252C43.4027 152.366 66.8797 151.95 66.8797 151.95C66.8797 151.95 105.274 152.679 109.401 154.137C109.414 154.117 109.395 159.045 109.946 164.904Z" fill="#EAAF00"/>
<path d="M105.507 92.7842C104.736 99.8341 108.404 112.183 107.036 120.124C107.004 120.352 106.959 120.567 106.913 120.775C105.967 125.189 107.678 144.151 109.181 150.472C99.4612 157.411 84.1879 161.915 66.8929 161.915C60.2547 161.931 53.6338 161.238 47.1419 159.845C38.1477 157.88 30.3911 154.625 24.6239 150.498C25.2719 147.816 26.3346 133.013 26.7234 130.364C27.2159 126.744 27.4103 123.379 26.8595 120.775C25.8292 115.919 26.8595 112.469 27.6954 104.814C28.1944 99.9903 28.5832 95.5703 28.2786 92.7647C28.1944 91.977 28.1102 91.0852 28.0194 90.0958C27.7667 87.3032 27.514 83.8401 27.3002 80.5072C27.015 76.3346 26.7882 72.3508 26.6522 70.1376C26.5938 68.9919 26.555 68.3149 26.555 68.3149L23.2178 74.6812C21.9801 74.4729 20.7359 74.2125 19.5177 73.9131C12.7471 72.1883 6.19767 69.6829 0 66.4466C0 66.4466 6.97894 47.0808 7.82134 43.123C8.66374 39.1652 9.46725 18.7448 23.14 15.49C32.9701 13.1466 42.7031 8.16029 47.8223 4.84693L47.9519 4.74929C49.1483 4.04168 50.2631 3.20336 51.2761 2.24963C51.3288 2.20256 51.3765 2.15021 51.4187 2.0934C51.4631 2.02854 51.513 1.96757 51.5677 1.91113C51.6638 1.81559 51.7679 1.72848 51.8787 1.65075C53.3173 0.42696 55.5464 1.24065 58.1578 2.11944C61.0673 3.09587 66.8929 2.93964 66.8929 2.93964C66.8929 2.93964 72.7248 3.09587 75.6279 2.11944C78.5309 1.14301 80.935 0.244693 82.3411 2.11944C83.7473 3.99418 97.0766 12.2808 110.652 15.5161C124.325 18.7708 125.115 39.2238 125.958 43.149C126.8 47.0743 133.786 66.4727 133.786 66.4727C133.786 66.4727 122.349 72.7218 110.561 74.7333L107.231 68.367C107.231 68.367 106.693 78.2549 106.09 86.1705C105.896 88.6962 105.695 91.0397 105.507 92.7842Z" fill="#FEC311"/>
<g clip-path="url(#clip0_102_817)">
<path fill-rule="evenodd" clip-rule="evenodd" d="M98.3438 56.8916H79.2037C78.7829 56.8916 78.4404 57.2496 78.4404 57.6897V61.1114C78.4404 61.5512 78.7829 61.9093 79.2037 61.9093H98.3438C98.7647 61.9093 99.1071 61.5512 99.1071 61.1114V57.6897C99.1071 57.2496 98.7647 56.8916 98.3438 56.8916Z" fill="white"/>
<path fill-rule="evenodd" clip-rule="evenodd" d="M88.7741 49.1943C84.8353 49.1943 81.6309 52.5444 81.6309 56.6622C81.6309 60.7799 84.8353 64.1299 88.7741 64.1299C92.713 64.1299 95.9175 60.7799 95.9175 56.6622C95.9175 52.5444 92.713 49.1943 88.7741 49.1943Z" fill="white"/>
<path fill-rule="evenodd" clip-rule="evenodd" d="M85.0149 52.8643C85.034 52.8429 85.054 52.822 85.0742 52.8009C85.8408 51.9995 86.806 51.4753 87.8686 51.282L87.9763 51.2623L87.9044 51.3485C87.7932 51.4823 87.706 51.5962 87.6454 51.6872C87.6195 51.7265 87.584 51.7802 87.559 51.8382L87.5507 51.8574L87.5311 51.8613C87.5199 51.8637 86.3988 52.0999 85.3877 52.9882L85.3735 53.0006L84.9675 52.9177L85.0149 52.8643ZM89.0035 52.9068L89.0243 52.9221L88.6531 54.7732L88.6348 54.7816C87.612 55.2464 86.9685 55.6733 86.7394 55.8353L86.7193 55.8496L85.3004 54.9954L85.3023 54.9698C85.3193 54.7526 85.41 53.6492 85.5365 53.2459L85.5399 53.2353L85.5481 53.228C86.4885 52.3743 87.6513 52.1407 87.6629 52.1384L87.6974 52.1364L87.7128 52.1431C87.8438 52.2079 88.5123 52.544 89.0035 52.9068ZM89.3186 52.9539C89.6828 52.8139 90.6381 52.7193 91.1451 52.6854L91.1574 52.6846L91.168 52.6914C92.1173 53.305 92.6126 54.2011 92.6175 54.21L92.6243 54.2225L92.6222 54.2365C92.5792 54.5163 92.4241 55.4703 92.2253 56.0014L92.2179 56.0212L90.4814 56.4579L88.9236 54.8294L89.2985 52.9614L89.3186 52.9539ZM91.1359 51.7875C91.6276 52.0472 92.0762 52.387 92.4692 52.7979C92.8662 53.2128 93.1942 53.6874 93.4443 54.2084L93.4881 54.2997L92.8525 54.0573L92.8454 54.0449C92.84 54.0354 92.2917 53.0855 91.3242 52.4527L91.3134 52.4458L91.0446 51.7393L91.1359 51.7875ZM83.7234 58.0705C83.547 57.377 83.5024 56.6508 83.5959 55.9272L83.6117 55.8061L83.8722 56.2977L83.8709 56.3106C83.8059 56.9284 83.8759 57.5798 83.9602 58.0705H84.2414C84.1548 57.5841 84.0802 56.9307 84.1469 56.3233L84.1518 56.3077C84.3364 55.9758 84.7748 55.3231 85.1133 55.2287L85.1288 55.2244L86.6047 56.1124L86.9955 58.0705H89.8272L90.53 56.7421L92.2638 56.3064L92.2791 56.3276C92.5499 56.703 93.0244 57.4235 93.084 57.7428L93.0858 57.7521L93.085 57.755C93.0846 57.7876 93.0797 57.897 93.0395 58.0705H93.3231C93.3389 57.993 93.3482 57.9283 93.3535 57.8781L93.3562 57.8523L93.3797 57.844C93.4996 57.8022 93.6807 57.7106 93.8633 57.5124L93.9495 57.4189L93.9295 57.5469C93.9019 57.7243 93.8653 57.8987 93.8219 58.0705H94.1067C94.2045 57.6624 94.2613 57.2411 94.2718 56.8116C94.2726 56.7915 94.273 56.7715 94.273 56.7512C94.2845 55.9836 94.1531 55.2352 93.8824 54.526L93.8639 54.4772C93.5882 53.7717 93.1845 53.1381 92.6642 52.5941C92.1443 52.0507 91.5385 51.6289 90.8631 51.3403L90.8246 51.3238C90.1716 51.0508 89.4824 50.9121 88.7764 50.9121C88.6348 50.9121 88.4917 50.918 88.3507 50.9294L88.3486 50.9296H88.3473L88.339 50.9303L88.338 50.9299C88.3228 50.9307 88.3079 50.9321 88.2938 50.9338C87.0057 51.0508 85.7945 51.6403 84.8821 52.5941C84.7862 52.6943 84.693 52.7992 84.6051 52.9055C84.597 52.9154 84.5932 52.9199 84.5896 52.9247C84.0252 53.6138 83.622 54.4438 83.4222 55.3261C83.4175 55.3446 83.4136 55.3622 83.4096 55.3803L83.4087 55.3862C83.2163 56.2761 83.2333 57.1986 83.4423 58.0705H83.7234Z" fill="#303337"/>
<path fill-rule="evenodd" clip-rule="evenodd" d="M88.774 49.4785C84.9849 49.4785 81.9023 52.7011 81.9023 56.6624C81.9023 60.6235 84.9849 63.8462 88.774 63.8462C92.5631 63.8462 95.6457 60.6235 95.6457 56.6624C95.6457 52.7011 92.5631 49.4785 88.774 49.4785ZM88.774 49.7625C92.4191 49.7625 95.3741 52.8515 95.3741 56.6624C95.3741 60.4729 92.4191 63.5621 88.774 63.5621C85.1289 63.5621 82.174 60.4729 82.174 56.6624C82.174 52.8515 85.1289 49.7625 88.774 49.7625Z" fill="#303337"/>
<path fill-rule="evenodd" clip-rule="evenodd" d="M79.2034 61.483C79.0073 61.483 78.8477 61.3162 78.8477 61.1111V57.6894C78.8477 57.4842 79.0073 57.3174 79.2034 57.3174H98.3436C98.5398 57.3174 98.6995 57.4842 98.6995 57.6894V61.1111C98.6995 61.3162 98.5398 61.483 98.3436 61.483H79.2034Z" fill="#FEC311"/>
<path fill-rule="evenodd" clip-rule="evenodd" d="M98.3437 57.1753H79.2035C78.9325 57.1753 78.7119 57.4059 78.7119 57.6894V61.1111C78.7119 61.3944 78.9325 61.6249 79.2035 61.6249H98.3437C98.6148 61.6249 98.8354 61.3944 98.8354 61.1111V57.6894C98.8354 57.4059 98.6148 57.1753 98.3437 57.1753ZM98.3437 57.4593C98.4648 57.4593 98.5637 57.5627 98.5637 57.6894V61.1111C98.5637 61.2375 98.4648 61.341 98.3437 61.341H79.2035C79.0825 61.341 78.9836 61.2375 78.9836 61.1111V57.6894C78.9836 57.5627 79.0825 57.4593 79.2035 57.4593H98.3437Z" fill="#303337"/>
<path fill-rule="evenodd" clip-rule="evenodd" d="M80 60.2809V58.52H80.4451V59.8659H80.8784V58.52H81.3234V59.8659H81.7567V58.52H82.2018V60.2809H80Z" fill="#303337"/>
<path fill-rule="evenodd" clip-rule="evenodd" d="M82.5195 60.2809V58.52H82.9647V59.1867H83.1765L83.559 58.52H84.0523L83.523 59.3776L84.0765 60.2809H83.5832L83.174 59.6018H82.9647V60.2809H82.5195Z" fill="#303337"/>
<path fill-rule="evenodd" clip-rule="evenodd" d="M84.9511 58.9097C84.66 58.9097 84.506 59.1185 84.506 59.4002C84.506 59.6819 84.66 59.8907 84.9511 59.8907C85.2423 59.8907 85.3963 59.6819 85.3963 59.4002C85.3963 59.1185 85.2423 58.9097 84.9511 58.9097ZM84.9511 58.4819C85.5528 58.4819 85.8534 58.9097 85.8534 59.4002C85.8534 59.8907 85.5528 60.3185 84.9511 60.3185C84.3496 60.3185 84.0488 59.8907 84.0488 59.4002C84.0488 58.9097 84.3496 58.4819 84.9511 58.4819Z" fill="#303337"/>
<path fill-rule="evenodd" clip-rule="evenodd" d="M87.5495 58.52V60.2809H87.1042V58.9351H86.741C86.688 59.657 86.6038 60.3011 86.1202 60.3036C86.0576 60.3036 85.9877 60.2935 85.9131 60.2684V59.8634C85.9445 59.8734 85.983 59.8784 86.0286 59.8734C86.3005 59.8432 86.2958 59.0533 86.3343 58.52H87.5495Z" fill="#303337"/>
<path fill-rule="evenodd" clip-rule="evenodd" d="M88.3968 59.6268H88.8299L88.6568 59.1187C88.6423 59.0759 88.6278 59.0331 88.6135 58.9401C88.5989 59.0331 88.5844 59.0759 88.5701 59.1187L88.3968 59.6268ZM87.7109 60.2809L88.3728 58.52H88.854L89.5159 60.2809H89.0587L88.9623 60.0041H88.2645L88.1683 60.2809H87.7109Z" fill="#303337"/>
<path fill-rule="evenodd" clip-rule="evenodd" d="M92.2043 58.52V60.2809H91.7591V59.345L91.3982 59.9236H91.1432L90.7822 59.3425V60.2809H90.3369V58.52H90.758L91.2706 59.345L91.7832 58.52H92.2043Z" fill="#303337"/>
<path fill-rule="evenodd" clip-rule="evenodd" d="M93.185 59.33H93.4449V58.9224H93.185C93.0334 58.9224 92.9468 58.9904 92.9468 59.1262C92.9468 59.2621 93.0334 59.33 93.185 59.33ZM92.3838 60.2809L92.8384 59.6444C92.6364 59.5664 92.4897 59.403 92.4897 59.1262C92.4897 58.6859 92.8145 58.52 93.1801 58.52H93.8902V60.2809H93.4449V59.7073H93.2885L92.8914 60.2809H92.3838Z" fill="#303337"/>
<path fill-rule="evenodd" clip-rule="evenodd" d="M95.1362 60.2809V59.6821C94.9991 59.725 94.8668 59.7475 94.7465 59.7475C94.3807 59.7475 94.1328 59.5514 94.1328 59.1387V58.52H94.5779V59.1137C94.5779 59.2571 94.7007 59.3274 94.8596 59.3274C94.9462 59.3274 95.0426 59.3075 95.1362 59.2672V58.52H95.5816V60.2809H95.1362Z" fill="#303337"/>
<path fill-rule="evenodd" clip-rule="evenodd" d="M96.4281 59.6268H96.8612L96.6879 59.1187C96.6735 59.0759 96.6589 59.0331 96.6446 58.9401C96.63 59.0331 96.6156 59.0759 96.6012 59.1187L96.4281 59.6268ZM95.7422 60.2809L96.4038 58.52H96.8851L97.5469 60.2809H97.0897L96.9935 60.0041H96.2956L96.1995 60.2809H95.7422Z" fill="#303337"/>
<path fill-rule="evenodd" clip-rule="evenodd" d="M88.7121 50.2298L88.7004 50.2531L88.6761 50.2575L88.5352 50.2797L88.6379 50.3859L88.6549 50.4036L88.6506 50.4292L88.6273 50.5787L88.7513 50.5088L88.7735 50.4968L88.7957 50.5088L88.9197 50.5787L88.8964 50.4292L88.8922 50.4036L88.9091 50.3859L89.0119 50.2797L88.8709 50.2575L88.8466 50.2531L88.8349 50.2298L88.7735 50.0957L88.7121 50.2298Z" fill="#303337"/>
<path fill-rule="evenodd" clip-rule="evenodd" d="M85.8969 50.9757L85.8968 51.0021L85.8771 51.0177L85.7617 51.105L85.8995 51.1501L85.9224 51.1577L85.9298 51.1825L85.9747 51.3265L86.0543 51.2049L86.0686 51.1836L86.0938 51.1837L86.2347 51.1863L86.1482 51.0645L86.1334 51.044L86.1405 51.02L86.1852 50.8763L86.0503 50.9241L86.0268 50.9319L86.0062 50.9169L85.8928 50.8271L85.8969 50.9757Z" fill="#303337"/>
<path fill-rule="evenodd" clip-rule="evenodd" d="M83.7232 52.9884L83.7347 53.0118L83.724 53.0351L83.6596 53.1681L83.8019 53.1421L83.8256 53.138L83.8431 53.1563L83.9461 53.2628L83.9636 53.1167L83.967 53.0907L83.9893 53.0789L84.1156 53.0135L83.9855 52.9468L83.9632 52.9356L83.9591 52.9108L83.9358 52.7617L83.8368 52.869L83.8194 52.8873L83.7944 52.8836L83.6543 52.8584L83.7232 52.9884Z" fill="#303337"/>
<path fill-rule="evenodd" clip-rule="evenodd" d="M82.674 55.8194L82.6944 55.8348L82.6951 55.8605L82.6963 56.0096L82.8113 55.9182L82.8306 55.9031L82.8542 55.911L82.9925 55.9563L82.9439 55.8182L82.9355 55.7935L82.9501 55.7722L83.0337 55.6536L82.8888 55.6567L82.8641 55.6575L82.8496 55.6375L82.7635 55.5161L82.7226 55.6589L82.7151 55.6834L82.6913 55.6922L82.5557 55.7369L82.674 55.8194Z" fill="#303337"/>
<path fill-rule="evenodd" clip-rule="evenodd" d="M91.6543 50.8271L91.5409 50.9169L91.5203 50.9319L91.4968 50.9241L91.3618 50.8763L91.4065 51.02L91.4138 51.044L91.3989 51.0645L91.3125 51.1863L91.4533 51.1837L91.4783 51.1836L91.4929 51.2049L91.5725 51.3265L91.6172 51.1825L91.6248 51.1577L91.6475 51.1501L91.7854 51.105L91.6699 51.0177L91.6502 51.0021L91.6501 50.9757L91.6543 50.8271Z" fill="#303337"/>
<path fill-rule="evenodd" clip-rule="evenodd" d="M93.8939 52.8584L93.7538 52.8836L93.7288 52.8873L93.7113 52.869L93.6124 52.7617L93.5891 52.9108L93.585 52.9356L93.5628 52.9468L93.4326 53.0135L93.5589 53.0789L93.5812 53.0907L93.5847 53.1167L93.6021 53.2628L93.7051 53.1563L93.7226 53.138L93.7462 53.1421L93.8886 53.1681L93.8242 53.0351L93.8135 53.0118L93.825 52.9884L93.8939 52.8584Z" fill="#303337"/>
<path fill-rule="evenodd" clip-rule="evenodd" d="M94.9917 55.7369L94.8561 55.6922L94.8323 55.6834L94.8248 55.6589L94.7839 55.5161L94.6978 55.6375L94.6833 55.6575L94.6586 55.6567L94.5137 55.6536L94.5973 55.7722L94.6119 55.7935L94.6035 55.8182L94.5549 55.9563L94.6933 55.911L94.7168 55.9031L94.7361 55.9182L94.8511 56.0096L94.8523 55.8605L94.853 55.8348L94.8734 55.8194L94.9917 55.7369Z" fill="#303337"/>
<path fill-rule="evenodd" clip-rule="evenodd" d="M87.1584 62.591C87.254 62.4993 87.3092 62.4221 87.3092 62.2996C87.3092 62.1313 87.1948 62.0269 87.0103 62.0269C86.9248 62.0269 86.8388 62.0474 86.7747 62.0831L86.7568 62.0931L86.8179 62.2585L86.8409 62.2448C86.8823 62.22 86.9392 62.2048 86.9893 62.2048C87.0476 62.2048 87.117 62.2208 87.117 62.2974C87.117 62.3589 87.0929 62.4039 87.0217 62.4755C86.9324 62.5645 86.8542 62.6318 86.7828 62.6817L86.7726 62.6888V62.8219H87.3213V62.6461H87.0944C87.1153 62.63 87.1367 62.6119 87.1584 62.591Z" fill="#303337"/>
<path fill-rule="evenodd" clip-rule="evenodd" d="M88.1776 62.6566C88.0577 62.6566 87.9705 62.5617 87.9705 62.4308C87.9705 62.2999 88.0577 62.2048 88.1776 62.2048C88.2976 62.2048 88.3846 62.2999 88.3846 62.4308C88.3846 62.5617 88.2976 62.6566 88.1776 62.6566ZM88.1776 62.0269C87.9501 62.0269 87.7783 62.2005 87.7783 62.4308C87.7783 62.6609 87.9501 62.8346 88.1776 62.8346C88.4053 62.8346 88.577 62.6609 88.577 62.4308C88.577 62.2005 88.4053 62.0269 88.1776 62.0269Z" fill="#303337"/>
<path fill-rule="evenodd" clip-rule="evenodd" d="M89.4032 62.6566C89.2833 62.6566 89.1962 62.5617 89.1962 62.4308C89.1962 62.2999 89.2833 62.2048 89.4032 62.2048C89.5232 62.2048 89.6103 62.2999 89.6103 62.4308C89.6103 62.5617 89.5232 62.6566 89.4032 62.6566ZM89.4032 62.0269C89.1755 62.0269 89.0039 62.2005 89.0039 62.4308C89.0039 62.6609 89.1755 62.8346 89.4032 62.8346C89.6307 62.8346 89.8024 62.6609 89.8024 62.4308C89.8024 62.2005 89.6307 62.0269 89.4032 62.0269Z" fill="#303337"/>
<path fill-rule="evenodd" clip-rule="evenodd" d="M90.2451 62.0396V62.2153H90.5739L90.3288 62.8219H90.5343L90.789 62.1691L90.7907 62.0396H90.2451Z" fill="#303337"/>
<path fill-rule="evenodd" clip-rule="evenodd" d="M97.807 57.8998C97.629 57.8998 97.4488 58.0224 97.4488 58.2567C97.4488 58.4911 97.629 58.6137 97.807 58.6137C97.9846 58.6137 98.1643 58.4911 98.1643 58.2567C98.1643 58.0224 97.9846 57.8998 97.807 57.8998ZM97.807 58.6981C97.589 58.6981 97.3682 58.5465 97.3682 58.2567C97.3682 57.967 97.589 57.8154 97.807 57.8154C98.0247 57.8154 98.245 57.967 98.245 58.2567C98.245 58.5465 98.0247 58.6981 97.807 58.6981Z" fill="#303337"/>
<path fill-rule="evenodd" clip-rule="evenodd" d="M97.8292 58.2405H97.7443V58.1363H97.8292C97.8586 58.1363 97.8984 58.1418 97.8984 58.1889C97.8984 58.235 97.8586 58.2405 97.8292 58.2405ZM97.9184 58.315C97.9667 58.2997 98.0055 58.2569 98.0055 58.1845C98.0055 58.0771 97.9184 58.0376 97.8418 58.0376H97.6436V58.4664H97.7443V58.326H97.8051C97.8082 58.326 97.8114 58.326 97.8145 58.326L97.9152 58.4664H98.0296L97.9184 58.315Z" fill="#303337"/>
</g>
<path d="M85.5677 4.59957C84.3848 3.90774 83.2958 3.06539 82.3277 2.0934C82.2836 2.02824 82.2337 1.96724 82.1786 1.91114C82.088 1.80709 81.9906 1.70923 81.887 1.61821C80.455 0.394415 78.2323 1.21462 75.6144 2.0934C72.7114 3.06983 66.8794 2.9136 66.8794 2.9136C66.8794 2.9136 61.0474 3.06983 58.1444 2.0934C55.5394 1.21462 53.3168 0.394415 51.8847 1.65076C51.7812 1.74178 51.6837 1.83964 51.5931 1.94368C51.54 2.00148 51.4902 2.06234 51.4441 2.12595C50.476 3.09794 49.387 3.94029 48.2041 4.63212L51.1914 5.85591C50.3295 3.06983 55.1312 3.96815 57.8787 5.20496C60.6262 6.44177 66.9118 6.1879 66.9118 6.1879C66.9118 6.1879 73.1974 6.41573 75.9449 5.20496C78.6924 3.99419 83.4941 3.09587 82.6322 5.85591L85.5677 4.59957Z" fill="#EAAF00"/>
<path d="M47.9519 4.74966L47.7963 4.8473C42.7031 8.16066 32.9701 13.147 23.14 15.4904C9.46725 18.7452 8.66373 39.1981 7.82134 43.1234C6.97894 47.0486 0 66.447 0 66.447C0 66.447 0.693358 66.8246 1.94399 67.4235C2.51423 67.6969 3.19463 68.0288 3.97871 68.3934C4.62671 68.6993 5.38486 69.0443 6.1819 69.3763C6.8299 69.6627 7.52974 69.9557 8.26846 70.2421C13.092 72.2561 18.1137 73.7529 23.2502 74.7076L26.5679 68.3413C26.5679 57.7373 26.5679 47.0681 24.6758 36.6334C24.0731 33.3395 23.3409 29.7072 25.0646 26.8691C26.4383 24.5842 29.0238 23.4125 31.4149 22.2733C33.5716 21.2623 35.672 20.1345 37.707 18.8949C39.6955 17.6912 41.5734 16.3122 43.3187 14.7743C43.552 14.5725 43.7788 14.3512 44.0056 14.1234C45.3139 12.8402 46.4946 11.4318 47.5307 9.91823C48.4262 8.64382 49.2172 7.29843 49.8959 5.89534C50.4747 4.72373 50.9516 3.50408 51.3214 2.25C50.2943 3.20647 49.1641 4.04487 47.9519 4.74966Z" fill="#EAAF00"/>
<path d="M83.968 5.92757C84.0159 5.96616 84.0681 5.99894 84.1236 6.02521C89.2427 9.31903 98.9757 14.3249 108.806 16.6683C122.479 19.9231 123.282 40.376 124.124 44.3078C124.922 48.0247 131.129 65.3596 131.9 67.4231L129.866 68.3931C129.367 67.0326 122.887 49.1444 122.09 45.3623C121.247 41.4566 120.444 21.212 106.771 17.9832C99.6374 16.1701 92.7613 13.4557 86.3073 9.90489C85.419 8.63278 84.6325 7.29196 83.9551 5.89502L83.968 5.92757Z" fill="white"/>
<path d="M82.4834 2.25C82.8504 3.50505 83.3275 4.72493 83.909 5.89534C84.5864 7.29227 85.373 8.63309 86.2612 9.90521C87.2976 11.4204 88.4805 12.829 89.7928 14.1104C90.0131 14.3252 90.2464 14.5465 90.4732 14.7613C92.2197 16.2977 94.0975 17.6765 96.0849 18.8819C98.1216 20.1184 100.224 21.2419 102.383 22.2473C104.775 23.3865 107.36 24.5582 108.734 26.843C110.457 29.7072 109.719 33.3526 109.123 36.6073C107.179 47.0226 107.179 57.7112 107.224 68.3153L110.561 74.6816C115.699 73.7259 120.723 72.2291 125.549 70.216C126.282 69.9296 126.975 69.6367 127.629 69.3503C128.433 69.0053 129.165 68.6993 129.839 68.3673L131.874 67.3974C133.092 66.7985 133.818 66.421 133.818 66.421C133.818 66.421 126.839 47.0551 125.99 43.0973C125.141 39.1395 124.351 18.7191 110.678 15.4644C100.848 13.1209 91.1083 8.11509 85.9891 4.82127L85.8336 4.72362C84.63 4.02486 83.5065 3.19534 82.4834 2.25Z" fill="#EAAF00"/>
<path d="M52.7143 6.98857C52.1354 6.16459 51.6974 5.24938 51.4183 4.2806C51.2109 3.49442 51.2679 2.66145 51.5803 1.91113C51.5271 1.96893 51.4773 2.02979 51.4312 2.0934C50.3976 3.12601 49.2344 4.01883 47.9709 4.74929L47.8154 4.85344C47.66 5.42779 47.5944 6.02293 47.621 6.61753C47.7247 8.57039 48.7096 10.3345 49.8242 11.9619L50.0121 12.2353C51.9179 14.9407 54.4434 17.1461 57.3756 18.6653C60.3079 20.1846 63.5608 20.9732 66.8601 20.9645C60.7494 17.7944 56.1746 12.5542 52.7143 6.98857Z" fill="#EAAF00"/>
<path d="M85.9566 4.85344L85.8011 4.74929C84.5376 4.01883 83.3744 3.12601 82.3408 2.0934C82.2967 2.02824 82.2468 1.96723 82.1917 1.91113C82.4983 2.65371 82.5552 3.47654 82.3537 4.25457C82.0722 5.22239 81.6344 6.13722 81.0577 6.96253C77.5974 12.5282 73.0161 17.7684 66.873 20.9385C70.1723 20.9471 73.4252 20.1586 76.3575 18.6393C79.2897 17.12 81.8152 14.9147 83.721 12.2092L83.9089 11.9358C85.0235 10.3084 86.0084 8.51831 86.1121 6.59149C86.1487 6.00756 86.0963 5.42145 85.9566 4.85344Z" fill="#EAAF00"/>
<path d="M107.036 120.124C105.209 122.908 102.931 125.366 100.297 127.396C96.2343 130.592 91.5558 132.896 86.7995 134.921C91.2659 131.756 94.9776 127.636 97.667 122.856C100.356 118.077 101.956 112.757 102.351 107.281C102.416 106.233 102.306 104.957 101.373 104.508C100.44 104.059 99.5327 104.671 98.781 105.218C91.653 110.269 84.6222 115.952 76.1982 118.276C83.4817 113.244 90.8365 108.147 96.7916 101.579C101.036 97.2095 104.226 91.9205 106.116 86.1187C105.922 88.6704 105.721 91.0138 105.533 92.7649C104.736 99.8408 108.404 112.189 107.036 120.124Z" fill="#EAAF00"/>
<path d="M82.3804 79.5829C85.6389 76.3152 88.6803 72.8359 91.4847 69.1676C92.5151 67.8657 93.5259 66.4987 94.5303 65.1513C94.8349 64.7477 96.5262 61.7663 97.1807 63.0617C97.3119 63.453 97.2864 63.8803 97.1094 64.2529C94.2323 72.6047 88.7761 81.2624 81.7129 86.6197C76.4188 90.6231 70.347 92.5759 63.9448 93.9299C62.0851 94.3205 63.4329 92.96 64.2364 92.5824C70.9727 89.3112 77.1077 84.9156 82.3804 79.5829Z" fill="#EAAF00"/>
<path d="M26.7041 130.364C27.216 126.745 27.4104 123.379 26.8596 120.775C25.8293 115.919 26.8596 112.469 27.6955 104.814C28.1945 99.9904 28.5833 95.5704 28.2787 92.7648C28.1945 91.9771 28.1103 91.0853 28.0195 90.0959C27.7668 87.3033 27.5141 83.8402 27.3003 80.5073C32.3287 87.4508 37.3615 94.3943 42.3986 101.338C41.3489 102.353 39.6057 101.409 38.6273 100.322C37.6488 99.2353 36.4953 97.8813 35.0568 98.1482C33.359 98.4671 32.9573 100.713 33.0739 102.438C33.396 106.751 34.5657 110.956 36.5155 114.812C38.4652 118.668 41.1564 122.097 44.4333 124.902C45.1461 125.508 45.9432 126.497 45.3729 127.233C44.8027 127.968 43.5391 127.311 42.6254 126.894C40.5713 125.963 38.0311 127.037 36.7092 128.847C35.3873 130.657 35.0438 133.033 35.0568 135.292C35.1086 140.883 37.0915 146.358 40.0529 151.064C42.0892 154.245 44.4665 157.192 47.142 159.852C38.1477 157.88 30.3912 154.625 24.624 150.498C25.272 147.816 26.3153 133.013 26.7041 130.364Z" fill="#EAAF00"/>
<path d="M261.526 238.728C261.526 238.728 233.014 243.051 226.534 239.763C220.054 236.476 214.772 197.751 213.191 196.436C213.167 196.42 213.141 196.407 213.114 196.397C212.271 196.397 210.133 209.383 207.249 221.179C205.059 230.097 202.448 238.338 199.655 239.763C195.119 242.081 179.632 240.616 170.864 239.555L168.92 239.308C166.328 238.976 164.715 238.728 164.715 238.728C159.997 216.954 164.63 186.613 167.611 178.046C170.138 170.795 170.534 159.227 170.592 155.393C170.592 154.58 170.592 154.091 170.592 154.091C172.103 153.736 173.643 153.518 175.193 153.44C175.886 153.375 176.631 153.31 177.428 153.252C189.643 152.366 213.12 151.95 213.12 151.95C213.12 151.95 251.514 152.679 255.642 154.137C255.642 154.137 255.642 159.065 256.173 164.923C256.588 169.343 257.326 174.29 258.642 178.066C261.603 186.613 266.243 216.954 261.526 238.728Z" fill="#FEC311"/>
<path d="M174.266 176.946C171.181 185.819 166.431 216.654 170.851 239.555L168.907 239.308C164.332 216.843 169.062 186.144 172.101 177.389C174.836 169.545 175.153 156.806 175.192 153.453C175.886 153.388 176.631 153.323 177.428 153.265C177.337 157.587 176.903 169.454 174.266 176.946Z" fill="#EAAF00"/>
<path d="M251.942 176.946C255.027 185.819 259.776 216.654 255.357 239.555L257.301 239.308C261.837 216.843 257.139 186.144 254.1 177.389C251.365 169.545 251.048 156.806 251.009 153.453C250.322 153.388 249.57 153.323 248.773 153.265C248.877 157.587 249.337 169.454 251.942 176.946Z" fill="#EAAF00"/>
<path d="M256.16 164.904C242.019 169.384 227.103 170.852 212.365 169.214C197.627 167.577 183.391 162.87 170.566 155.393C170.566 154.58 170.566 154.091 170.566 154.091C172.077 153.736 173.617 153.518 175.167 153.44C175.854 153.375 176.606 153.31 177.403 153.252C189.618 152.366 213.095 151.95 213.095 151.95C213.095 151.95 251.488 152.679 255.616 154.137C255.629 154.117 255.61 159.045 256.16 164.904Z" fill="#EAAF00"/>
<path d="M238.379 194.06C234.714 196.541 230.487 198.059 226.087 198.474C221.686 198.889 217.252 198.188 213.191 196.436C213.167 196.42 213.141 196.407 213.114 196.397C212.271 196.397 210.133 209.383 207.249 221.178C205.71 220.425 204.438 219.213 203.607 217.709C202.959 216.407 202.7 214.793 201.566 213.868C200.646 213.133 199.382 213.042 198.287 212.605C197.192 212.169 196.155 210.958 196.674 209.891C196.999 209.368 197.493 208.973 198.074 208.771L201.087 207.32C201.981 206.884 202.992 206.298 203.115 205.308C203.132 204.935 203.048 204.565 202.871 204.237C202.694 203.909 202.431 203.636 202.111 203.447C201.465 203.074 200.762 202.812 200.03 202.672C193.68 201.036 187.761 198.031 182.684 193.864C190.537 195.668 198.987 196.208 206.485 193.214C213.982 190.219 220.216 183.098 220.248 174.987C220.817 178.308 220.708 181.71 219.928 184.988C219.148 188.265 217.714 191.349 215.712 194.053C223.042 196.673 231.047 196.675 238.379 194.06Z" fill="#EAAF00"/>
<path d="M174.719 92.7842C175.497 99.8341 171.823 112.183 173.19 120.124C173.229 120.352 173.274 120.567 173.32 120.775C174.259 125.189 172.549 144.151 171.052 150.472C180.772 157.411 196.039 161.915 213.34 161.915C219.978 161.931 226.599 161.237 233.091 159.845C242.079 157.893 249.835 154.605 255.628 150.472C254.98 147.79 253.918 132.987 253.522 130.338C252.998 126.718 252.816 123.32 253.367 120.775C254.404 115.919 253.367 112.469 252.538 104.814C252.039 99.9903 251.643 95.5703 251.948 92.7647C252.039 91.9771 252.123 91.0852 252.207 90.0958C252.46 87.3032 252.712 83.8401 252.933 80.5072C253.211 76.3346 253.445 72.3508 253.581 70.1376C253.639 68.9919 253.678 68.3149 253.678 68.3149L257.015 74.6812C258.259 74.4729 259.497 74.2125 260.715 73.9131C267.489 72.1808 274.041 69.6665 280.239 66.4206C280.239 66.4206 273.254 47.0808 272.392 43.123C271.53 39.1652 270.753 18.7448 257.08 15.49C247.25 13.1466 237.51 8.14076 232.391 4.84693C232.337 4.81823 232.285 4.7856 232.236 4.74929C231.633 4.35872 231.095 4.00069 230.629 3.66871C230.014 3.25312 229.441 2.77781 228.918 2.24963C228.864 2.2043 228.816 2.15174 228.775 2.0934C228.731 2.02854 228.681 1.96757 228.626 1.91113C228.533 1.81788 228.433 1.7309 228.328 1.65075C226.896 0.42696 224.667 1.24065 222.049 2.11944C219.146 3.09587 213.321 2.93964 213.321 2.93964C213.321 2.93964 207.489 3.09587 204.579 2.11944C201.67 1.14301 199.272 0.244693 197.872 2.11944C196.473 3.99418 183.137 12.2808 169.561 15.5161C155.986 18.7513 155.105 39.1977 154.275 43.123C153.446 47.0482 146.447 66.4467 146.447 66.4467C146.447 66.4467 157.884 72.6958 169.672 74.7073L172.996 68.3409C172.996 68.3409 173.54 78.2289 174.143 86.1445C174.337 88.6963 174.544 91.0397 174.719 92.7842Z" fill="#FEC311"/>
<path d="M178.35 52.3159H179.926V58.1797H182.113V52.3159H183.689V58.1797H185.856V52.3159H187.432V59.5857H178.35V52.3159Z" fill="#303337"/>
<path d="M189.031 52.3159H190.607V55.2113H191.655L192.733 53.1804C192.892 52.8887 193.068 52.6735 193.262 52.5346C193.462 52.3888 193.718 52.3159 194.029 52.3159H194.672V53.722H194.029L193.282 55.1384C193.186 55.3259 193.075 55.4717 192.951 55.5759C192.833 55.6731 192.691 55.7495 192.525 55.805V55.8675C192.705 55.9022 192.857 55.9717 192.982 56.0758C193.113 56.173 193.227 56.3223 193.324 56.5237L194.174 58.1797H194.817V59.5857H193.998C193.707 59.5857 193.465 59.5233 193.272 59.3983C193.085 59.2733 192.906 59.0407 192.733 58.7005L191.655 56.607H190.607V59.5857H189.031V52.3159Z" fill="#303337"/>
<path d="M198.698 59.7107C198.221 59.7107 197.786 59.6309 197.392 59.4712C196.998 59.3115 196.662 59.0754 196.386 58.7629C196.109 58.4435 195.895 58.0512 195.743 57.586C195.591 57.1139 195.515 56.5688 195.515 55.9508C195.515 55.3329 195.591 54.7913 195.743 54.326C195.895 53.8539 196.109 53.4616 196.386 53.1491C196.662 52.8297 196.998 52.5902 197.392 52.4305C197.786 52.2708 198.221 52.1909 198.698 52.1909C199.175 52.1909 199.61 52.2708 200.004 52.4305C200.398 52.5902 200.734 52.8297 201.01 53.1491C201.287 53.4616 201.501 53.8539 201.653 54.326C201.805 54.7913 201.881 55.3329 201.881 55.9508C201.881 56.5688 201.805 57.1139 201.653 57.586C201.501 58.0512 201.287 58.4435 201.01 58.7629C200.734 59.0754 200.398 59.3115 200.004 59.4712C199.61 59.6309 199.175 59.7107 198.698 59.7107ZM198.698 58.3047C199.175 58.3047 199.545 58.1484 199.807 57.836C200.077 57.5235 200.212 57.0757 200.212 56.4924V55.4092C200.212 54.826 200.077 54.3781 199.807 54.0657C199.545 53.7532 199.175 53.597 198.698 53.597C198.221 53.597 197.848 53.7532 197.578 54.0657C197.316 54.3781 197.184 54.826 197.184 55.4092V56.4924C197.184 57.0757 197.316 57.5235 197.578 57.836C197.848 58.1484 198.221 58.3047 198.698 58.3047Z" fill="#303337"/>
<path d="M202.291 58.1797H203.152C203.263 58.0617 203.359 57.9158 203.442 57.7422C203.525 57.5617 203.594 57.3326 203.65 57.0548C203.712 56.7771 203.757 56.4438 203.784 56.055C203.819 55.6592 203.836 55.1836 203.836 54.6281V52.3159H208.948V59.5857H207.372V53.722H205.371V54.8468C205.371 55.4856 205.347 56.0411 205.298 56.5132C205.25 56.9785 205.184 57.3777 205.101 57.711C205.018 58.0443 204.918 58.3186 204.8 58.5338C204.69 58.7491 204.569 58.9226 204.438 59.0546C204.223 59.2698 203.992 59.4226 203.743 59.5128C203.501 59.6031 203.197 59.6482 202.831 59.6482H202.291V58.1797Z" fill="#303337"/>
<path d="M215.005 59.5857L214.487 57.8568H212.071L211.553 59.5857H209.956L212.341 52.3159H214.29L216.643 59.5857H215.005ZM213.295 53.7532H213.243L212.444 56.5132H214.103L213.295 53.7532Z" fill="#303337"/>
<path d="M225.507 54.8156H225.476L224.947 55.8779L223.537 58.4505L222.158 55.8883L221.609 54.7427H221.577V59.5857H220.095V52.3159H221.764L223.537 55.7217H223.558L225.31 52.3159H226.99V59.5857H225.507V54.8156Z" fill="#303337"/>
<path d="M228.227 58.1797H228.87L229.461 57.2527C229.544 57.1208 229.633 57.0167 229.73 56.9403C229.834 56.8639 229.979 56.8083 230.166 56.7736V56.7111C229.633 56.6556 229.205 56.4473 228.88 56.0862C228.562 55.7252 228.403 55.2426 228.403 54.6385C228.403 54.2913 228.455 53.9754 228.559 53.6907C228.662 53.406 228.807 53.163 228.994 52.9616C229.188 52.7533 229.419 52.5936 229.689 52.4825C229.958 52.3714 230.259 52.3159 230.591 52.3159H234.023V59.5857H232.447V56.9194H231.493L230.28 58.8254C230.183 58.9851 230.086 59.1136 229.989 59.2108C229.9 59.308 229.803 59.3844 229.699 59.4399C229.595 59.4955 229.485 59.5337 229.367 59.5545C229.257 59.5753 229.132 59.5857 228.994 59.5857H228.227V58.1797ZM232.447 55.5863V53.6907H230.788C230.553 53.6907 230.366 53.7532 230.228 53.8782C230.097 53.9962 230.031 54.1733 230.031 54.4094V54.8572C230.031 55.1002 230.097 55.2842 230.228 55.4092C230.366 55.5273 230.553 55.5863 230.788 55.5863H232.447Z" fill="#303337"/>
<path d="M239.473 57.0132H239.421C239.256 57.0896 239.062 57.1486 238.841 57.1902C238.62 57.2319 238.354 57.2527 238.043 57.2527C236.266 57.2527 235.378 56.3605 235.378 54.576V52.3159H236.954V54.6385C236.954 55.4648 237.365 55.8779 238.188 55.8779C238.492 55.8779 238.744 55.864 238.945 55.8363C239.145 55.8015 239.321 55.7529 239.473 55.6904V52.3159H241.049V59.5857H239.473V57.0132Z" fill="#303337"/>
<path d="M247.101 59.5857L246.583 57.8568H244.167L243.649 59.5857H242.052L244.437 52.3159H246.386L248.74 59.5857H247.101ZM245.391 53.7532H245.339L244.541 56.5132H246.199L245.391 53.7532Z" fill="#303337"/>
<path d="M232.022 4.74934C232.072 4.78565 232.123 4.81828 232.178 4.84698C237.297 8.1408 247.03 13.1466 256.86 15.4901C270.533 18.7448 271.336 39.1978 272.172 43.123C273.008 47.0483 280 66.4467 280 66.4467C280 66.4467 279.307 66.8243 278.056 67.4231L276.047 68.3931C275.399 68.699 274.641 69.044 273.837 69.376C273.189 69.6624 272.496 69.9553 271.757 70.2418C266.932 72.2566 261.908 73.7534 256.769 74.7073L253.438 68.341C253.438 57.7369 253.438 47.0678 255.331 36.633C255.933 33.3392 256.665 29.7069 254.942 26.8687C253.568 24.5839 250.983 23.4122 248.591 22.273C246.435 21.262 244.334 20.1342 242.299 18.8946C240.31 17.6925 238.432 16.3134 236.688 14.774C236.454 14.5722 236.228 14.3509 236.001 14.1231C234.692 12.8399 233.512 11.4315 232.476 9.91791C231.583 8.64744 230.794 7.30643 230.117 5.90803C229.538 4.73642 229.061 3.51678 228.691 2.2627C229.707 3.21227 230.824 4.04621 232.022 4.74934Z" fill="#EAAF00"/>
<path d="M194.198 4.74966C194.149 4.78597 194.097 4.8186 194.043 4.8473C188.923 8.14113 179.184 13.147 169.354 15.4904C155.681 18.7452 154.878 39.1981 154.042 43.1234C153.206 47.0486 146.214 66.447 146.214 66.447C146.214 66.447 146.907 66.8246 148.158 67.4235L150.193 68.3934C150.841 68.6993 151.599 69.0443 152.402 69.3763C153.05 69.6627 153.744 69.9557 154.482 70.2421C159.308 72.2552 164.332 73.7519 169.471 74.7076L172.808 68.3413C172.808 57.7373 172.808 47.0681 170.909 36.6334C170.313 33.3395 169.574 29.7072 171.298 26.8691C172.672 24.5842 175.257 23.4125 177.648 22.2733C179.808 21.2637 181.91 20.1359 183.947 18.8949C185.934 17.6896 187.812 16.3107 189.558 14.7743C189.785 14.5725 190.019 14.3512 190.206 14.1234C191.524 12.8386 192.711 11.4256 193.751 9.90521C194.639 8.6331 195.426 7.29227 196.103 5.89534C196.682 4.72373 197.159 3.50408 197.529 2.25C196.513 3.20327 195.396 4.04152 194.198 4.74966Z" fill="#EAAF00"/>
<path d="M197.516 2.24981C197.569 2.20274 197.616 2.15039 197.659 2.09358C197.703 2.02872 197.753 1.96775 197.808 1.91131C197.895 1.81689 197.991 1.72981 198.093 1.65093C199.531 0.427138 201.76 1.24083 204.372 2.11962C207.281 3.09605 213.107 2.93982 213.107 2.93982C213.107 2.93982 218.939 3.09605 221.835 2.11962C224.427 1.24083 226.682 0.427138 228.114 1.65093C228.218 1.73968 228.315 1.83537 228.406 1.93735C228.461 1.99378 228.511 2.05476 228.555 2.11962C228.595 2.17796 228.643 2.23052 228.698 2.27585C229.22 2.80403 229.793 3.27934 230.408 3.69492C227.952 4.87315 222.211 7.04733 213.107 7.04733C204.002 7.04733 198.287 4.84711 195.799 3.66889C196.416 3.25294 196.991 2.77768 197.516 2.24981Z" fill="#EAAF00"/>
<path d="M172.957 120.124C174.79 122.907 177.069 125.364 179.703 127.396C183.766 130.592 188.445 132.896 193.201 134.921C188.735 131.756 185.023 127.636 182.333 122.856C179.644 118.077 178.044 112.757 177.649 107.281C177.584 106.233 177.694 104.957 178.627 104.508C179.561 104.059 180.468 104.671 181.219 105.218C188.347 110.269 195.378 115.952 203.802 118.276C196.519 113.244 189.164 108.147 183.209 101.579C178.965 97.2095 175.775 91.9205 173.884 86.1187C174.079 88.6704 174.279 91.0138 174.467 92.7649C175.264 99.8408 171.59 112.189 172.957 120.124Z" fill="#EAAF00"/>
<path d="M197.639 79.5829C194.38 76.3152 191.339 72.8359 188.535 69.1676C187.504 67.8657 186.493 66.4987 185.489 65.1513C185.184 64.7477 183.493 61.7663 182.839 63.0617C182.707 63.453 182.733 63.8803 182.91 64.2529C185.761 72.6047 191.211 81.2624 198.287 86.6197C203.581 90.6231 209.653 92.5759 216.055 93.9299C217.915 94.3205 216.567 92.96 215.763 92.5824C209.034 89.3093 202.906 84.9138 197.639 79.5829Z" fill="#EAAF00"/>
<path d="M253.296 130.364C252.765 126.745 252.59 123.347 253.141 120.802C254.171 115.946 253.141 112.496 252.305 104.84C251.806 100.017 251.417 95.5967 251.722 92.7911C251.806 92.0035 251.89 91.1117 251.981 90.1222C252.234 87.3296 252.486 83.8666 252.7 80.5337C247.672 87.4772 242.639 94.4207 237.602 101.364C238.645 102.38 240.395 101.436 241.373 100.349C242.352 99.2616 243.505 97.9076 244.944 98.1745C246.641 98.4935 247.043 100.739 246.926 102.464C246.604 106.777 245.435 110.983 243.485 114.839C241.535 118.694 238.844 122.124 235.567 124.929C234.854 125.534 234.057 126.524 234.627 127.259C235.198 127.995 236.461 127.337 237.375 126.921C239.429 125.99 241.969 127.064 243.291 128.873C244.613 130.683 244.957 133.059 244.944 135.318C244.892 140.91 242.909 146.384 239.947 151.091C237.911 154.271 235.534 157.218 232.858 159.878C241.853 157.926 249.609 154.638 255.396 150.505C254.761 147.816 253.685 133.014 253.296 130.364Z" fill="#EAAF00"/>
<defs>
<clipPath id="clip0_102_817">
<rect width="20.7359" height="14.9719" fill="white" transform="translate(78.4082 49.1704)"/>
</clipPath>
</defs>
</svg>
