<svg width="384" height="264" viewBox="0 0 384 264" fill="none" xmlns="http://www.w3.org/2000/svg">
<path d="M340.114 220.75H43.884C43.7361 220.75 43.5942 220.692 43.4896 220.588C43.3849 220.484 43.3262 220.344 43.3262 220.197C43.3262 220.051 43.3849 219.91 43.4896 219.807C43.5942 219.703 43.7361 219.645 43.884 219.645H340.114C340.262 219.645 340.404 219.703 340.509 219.807C340.613 219.91 340.672 220.051 340.672 220.197C340.672 220.344 340.613 220.484 340.509 220.588C340.404 220.692 340.262 220.75 340.114 220.75Z" fill="#E1E5E9"/>
<path d="M114.807 239.322L113.691 248.459C113.691 248.459 122.349 248.879 122.494 248.459C122.639 248.04 125.473 236.615 125.473 236.615L114.807 239.322Z" fill="white"/>
<path d="M119.904 249.211C118.543 249.211 116.557 249.156 113.646 249.012C113.568 249.008 113.493 248.988 113.424 248.954C113.354 248.92 113.293 248.872 113.244 248.813C113.194 248.756 113.157 248.689 113.134 248.617C113.111 248.544 113.103 248.468 113.11 248.393L114.226 239.256C114.243 239.145 114.292 239.041 114.367 238.957C114.442 238.873 114.54 238.811 114.65 238.781L125.293 236.085C125.385 236.06 125.483 236.061 125.575 236.086C125.667 236.111 125.751 236.161 125.817 236.229C125.887 236.294 125.938 236.377 125.966 236.468C125.993 236.559 125.996 236.656 125.974 236.748C125.684 237.919 123.117 248.205 122.984 248.636C122.85 249.067 122.827 249.211 119.904 249.211ZM114.326 247.94C117.673 248.084 121.098 248.15 122.046 248.029C122.37 246.791 123.709 241.399 124.724 237.378L115.341 239.764L114.326 247.94Z" fill="#303337"/>
<path d="M67.9683 225.423L63.0371 233.224C63.0371 233.224 70.7017 237.234 71.0141 236.914C71.3265 236.594 78.8237 227.434 78.8237 227.434L67.9683 225.423Z" fill="white"/>
<path d="M71.0175 237.477C70.3927 237.477 68.6858 236.803 62.7839 233.71C62.7145 233.677 62.6534 233.629 62.6051 233.57C62.5568 233.511 62.5226 233.441 62.505 233.367C62.4824 233.295 62.4767 233.219 62.4883 233.144C62.4999 233.069 62.5285 232.998 62.572 232.936L67.5032 225.125C67.565 225.032 67.653 224.96 67.7562 224.917C67.8594 224.873 67.9732 224.861 68.0833 224.882L78.8829 226.893C78.979 226.909 79.0689 226.951 79.1438 227.013C79.2187 227.074 79.2759 227.155 79.3098 227.245C79.3437 227.336 79.353 227.433 79.3368 227.529C79.3206 227.624 79.2795 227.713 79.2176 227.788C78.4478 228.727 71.7315 236.969 71.408 237.289C71.3644 237.351 71.3057 237.401 71.2374 237.434C71.169 237.466 71.0934 237.481 71.0175 237.477ZM63.8327 233.058C66.7557 234.572 69.8795 236.096 70.7832 236.372C71.6088 235.378 75.1008 231.102 77.7561 227.843L68.2507 226.009L63.8327 233.058Z" fill="#303337"/>
<path d="M91.2441 123.468C93.3751 124.738 112.219 168.17 114.673 172.192C117.127 176.213 112.364 241.3 112.364 241.3H126.175C126.175 241.3 141.505 189.063 141.505 175.672C141.505 162.281 123.654 118.507 123.654 118.507L91.2999 119.612" fill="#303337"/>
<path d="M126.173 241.852H112.405C112.328 241.853 112.252 241.837 112.181 241.807C112.11 241.776 112.047 241.731 111.994 241.675C111.942 241.619 111.902 241.553 111.877 241.481C111.851 241.409 111.841 241.332 111.848 241.256C113.778 215.159 116.009 175.307 114.246 172.479C113.231 170.855 109.694 163.11 105.589 154.138C99.9436 141.808 92.2009 124.915 90.9402 123.932C90.8173 123.854 90.7298 123.732 90.6965 123.592C90.6631 123.452 90.6865 123.304 90.7617 123.18C90.8419 123.058 90.9669 122.971 91.1105 122.938C91.2541 122.905 91.405 122.929 91.5315 123.004C92.7476 123.733 97.1098 133.058 106.604 153.685C110.687 162.624 114.213 170.335 115.183 171.893C117.649 175.849 113.655 231.787 112.952 240.748H125.693C127.11 235.886 140.888 188.223 140.888 175.672C140.888 163.121 124.934 123.258 123.239 119.07L91.2637 120.175C91.1158 120.175 90.9739 120.117 90.8693 120.013C90.7647 119.91 90.7059 119.769 90.7059 119.623C90.7059 119.476 90.7647 119.336 90.8693 119.232C90.9739 119.129 91.1158 119.07 91.2637 119.07L123.618 117.965C123.732 117.96 123.845 117.99 123.941 118.051C124.037 118.113 124.112 118.203 124.153 118.308C124.89 120.098 142.082 162.325 142.082 175.672C142.082 189.019 127.288 239.322 126.697 241.477C126.659 241.585 126.588 241.679 126.494 241.746C126.4 241.813 126.288 241.85 126.173 241.852Z" fill="#303337"/>
<path d="M86.2438 126.948L88.2408 172.623L63.9863 226.009L76.0578 233.268C76.6714 234.837 107.731 190.587 111.201 177.119C113.6 167.85 111.491 123.457 111.491 123.457L86.2438 126.948Z" fill="#303337"/>
<path d="M76.1378 233.864C76.0087 233.863 75.8835 233.82 75.7808 233.743L63.6982 226.495C63.5818 226.426 63.495 226.317 63.4539 226.189C63.4128 226.061 63.4203 225.922 63.475 225.799L87.6291 172.512L85.6878 126.97C85.6861 126.835 85.7337 126.703 85.8218 126.6C85.9099 126.496 86.0326 126.428 86.1676 126.407L111.415 122.926C111.492 122.915 111.57 122.921 111.645 122.941C111.719 122.962 111.789 122.998 111.849 123.047C111.908 123.096 111.957 123.156 111.992 123.225C112.027 123.294 112.047 123.369 112.051 123.446C112.14 125.257 114.126 168.026 111.738 177.274C108.392 190.19 78.5364 233.732 76.1601 233.864H76.1378ZM64.6911 225.81L76.1266 232.638C79.4736 229.799 107.365 189.781 110.712 176.965C112.943 168.457 111.248 129.456 111.013 124.064L86.8704 127.379L88.7894 172.545C88.8116 172.628 88.8116 172.716 88.7894 172.799L64.6911 225.81Z" fill="#303337"/>
<path d="M113.668 248.459L112.396 255.486C112.396 255.486 135.245 256.889 134.542 255.486C133.839 254.083 122.471 248.459 122.471 248.459H113.668Z" fill="#303337"/>
<path d="M128.296 256.669C123.833 256.669 117.786 256.37 112.364 256.039C112.286 256.034 112.209 256.012 112.139 255.976C112.069 255.939 112.008 255.889 111.96 255.827C111.911 255.765 111.876 255.694 111.858 255.619C111.839 255.543 111.837 255.464 111.851 255.387L113.123 248.36C113.146 248.233 113.214 248.119 113.314 248.036C113.414 247.953 113.539 247.908 113.67 247.907H122.472C122.559 247.907 122.643 247.93 122.718 247.973C125.429 249.31 134.298 253.785 134.99 255.243C135.051 255.347 135.083 255.465 135.083 255.586C135.083 255.706 135.051 255.824 134.99 255.928C134.633 256.47 132 256.669 128.296 256.669ZM113.056 254.978C121.814 255.497 131.331 255.785 133.685 255.365C130.059 252.984 126.268 250.861 122.338 249.012H114.138L113.056 254.978Z" fill="#303337"/>
<path d="M63.0403 233.224L62.3709 234.008C61.166 235.444 58.8008 238.427 59.4367 239.19C60.2958 240.173 79.2397 251.288 78.7823 250.581C78.3249 249.874 70.9727 236.914 70.9727 236.914" fill="#303337"/>
<path d="M78.8606 251.144C78.3363 251.144 76.7297 250.36 69.0205 245.819C66.7892 244.537 59.6489 240.295 58.9795 239.554C58.6672 239.201 57.9531 238.372 61.9026 233.655C62.3042 233.168 62.5831 232.859 62.5831 232.859C62.634 232.808 62.6948 232.767 62.7618 232.739C62.8289 232.711 62.9009 232.697 62.9736 232.697C63.0463 232.697 63.1183 232.711 63.1854 232.739C63.2524 232.767 63.3132 232.808 63.3641 232.859C63.4175 232.909 63.46 232.969 63.4891 233.035C63.5181 233.102 63.5331 233.173 63.5331 233.246C63.5331 233.318 63.5181 233.39 63.4891 233.456C63.46 233.523 63.4175 233.583 63.3641 233.632C63.3641 233.632 63.0963 233.931 62.7059 234.395C60.2514 237.334 59.7382 238.648 59.8051 238.925C60.4857 239.632 72.9476 247.045 77.3433 249.41C75.3351 245.918 70.6494 237.654 70.4374 237.256C70.4023 237.193 70.3802 237.124 70.3724 237.053C70.3647 236.981 70.3714 236.909 70.3922 236.84C70.4129 236.771 70.4474 236.707 70.4934 236.651C70.5395 236.596 70.5963 236.55 70.6605 236.516C70.723 236.479 70.7925 236.456 70.8645 236.446C70.9366 236.437 71.0099 236.442 71.0798 236.462C71.1497 236.482 71.2149 236.515 71.2713 236.561C71.3278 236.606 71.3743 236.662 71.408 236.726C73.9406 241.201 78.8048 249.819 79.2176 250.36C79.2935 250.483 79.3218 250.629 79.2972 250.771C79.2725 250.914 79.1967 251.042 79.0838 251.133C79.0118 251.157 78.9346 251.161 78.8606 251.144Z" fill="#303337"/>
<path d="M316.835 134.396L279.572 134.621L279.929 192.514L317.192 192.289L316.835 134.396Z" fill="#E1E5E9"/>
<path d="M279.935 193.007C279.8 193.002 279.673 192.946 279.578 192.852C279.483 192.758 279.427 192.632 279.421 192.499L279.02 134.616C279.018 134.548 279.03 134.482 279.056 134.419C279.081 134.357 279.119 134.3 279.167 134.253C279.215 134.205 279.272 134.168 279.335 134.143C279.398 134.118 279.465 134.106 279.533 134.107L316.785 133.875C316.853 133.87 316.922 133.881 316.985 133.906C317.049 133.931 317.106 133.969 317.153 134.019C317.246 134.118 317.297 134.248 317.298 134.384L317.655 192.267C317.656 192.333 317.645 192.399 317.62 192.46C317.595 192.522 317.559 192.578 317.512 192.625C317.465 192.673 317.409 192.71 317.348 192.736C317.286 192.762 317.22 192.775 317.153 192.775L279.89 193.007H279.935ZM280.091 135.113L280.437 191.991L316.684 191.77L316.327 134.892L280.091 135.113Z" fill="#303337"/>
<path d="M271.405 146.195L219.307 153.786L225.889 198.089L277.987 190.498L271.405 146.195Z" fill="#FEC311"/>
<path d="M225.904 198.564C225.781 198.565 225.663 198.522 225.57 198.443C225.478 198.364 225.418 198.254 225.402 198.134L218.819 153.829C218.808 153.765 218.811 153.7 218.826 153.638C218.841 153.575 218.869 153.516 218.909 153.464C218.947 153.409 218.996 153.363 219.054 153.329C219.112 153.294 219.176 153.273 219.243 153.265L271.333 145.664C271.468 145.645 271.605 145.68 271.713 145.761C271.822 145.841 271.894 145.962 271.914 146.095L278.507 190.4C278.519 190.533 278.483 190.665 278.407 190.775C278.324 190.88 278.204 190.951 278.072 190.974L225.982 198.564H225.904ZM219.89 154.194L226.328 197.504L277.403 190.057L270.976 146.747L219.89 154.194Z" fill="#303337"/>
<path d="M255.106 117.063L214.695 125.46L220.453 152.633L260.863 144.236L255.106 117.063Z" fill="#E1E5E9"/>
<path d="M220.448 153.155C220.33 153.153 220.216 153.111 220.125 153.037C220.034 152.963 219.971 152.86 219.946 152.746L214.189 125.578C214.176 125.513 214.177 125.447 214.19 125.382C214.203 125.318 214.23 125.257 214.267 125.202C214.302 125.147 214.347 125.098 214.401 125.06C214.454 125.022 214.515 124.996 214.579 124.981L254.989 116.584C255.124 116.561 255.263 116.588 255.379 116.662C255.436 116.697 255.484 116.744 255.52 116.799C255.557 116.855 255.581 116.917 255.591 116.982L261.348 144.151C261.363 144.215 261.364 144.282 261.352 144.347C261.341 144.412 261.316 144.475 261.28 144.53C261.243 144.586 261.196 144.634 261.141 144.671C261.085 144.708 261.023 144.734 260.957 144.747L220.548 153.144L220.448 153.155ZM215.294 125.865L220.872 152.05L260.277 143.863L254.699 117.678L215.294 125.865Z" fill="#303337"/>
<path d="M291.023 106.596L260.578 111.161L263.935 133.119L294.381 128.553L291.023 106.596Z" fill="#303337"/>
<path d="M263.937 133.61C263.828 133.613 263.722 133.578 263.636 133.511C263.58 133.472 263.533 133.423 263.497 133.366C263.46 133.309 263.436 133.246 263.424 133.179L260.077 111.226C260.066 111.16 260.068 111.094 260.084 111.029C260.099 110.964 260.128 110.904 260.167 110.85C260.207 110.797 260.256 110.751 260.314 110.717C260.371 110.683 260.435 110.661 260.501 110.651L290.936 106.088C291.002 106.077 291.07 106.08 291.135 106.095C291.2 106.11 291.262 106.138 291.316 106.177C291.37 106.216 291.415 106.266 291.45 106.323C291.484 106.379 291.507 106.442 291.517 106.508L294.864 128.462C294.875 128.527 294.873 128.594 294.857 128.658C294.842 128.723 294.814 128.784 294.774 128.837C294.736 128.892 294.687 128.938 294.629 128.973C294.571 129.007 294.507 129.029 294.44 129.036L263.993 133.61H263.937ZM261.171 111.579L264.373 132.572L293.804 128.152L290.602 107.16L261.171 111.579Z" fill="#303337"/>
<path d="M258.963 93.7382L231.189 107.409L237.546 120.073L265.319 106.402L258.963 93.7382Z" fill="#FEC311"/>
<path d="M237.54 120.595C237.445 120.595 237.353 120.569 237.272 120.521C237.191 120.472 237.126 120.402 237.083 120.319L230.734 107.646C230.685 107.526 230.685 107.391 230.734 107.27C230.781 107.144 230.872 107.038 230.991 106.972L258.771 93.3052C258.896 93.2554 259.036 93.2554 259.162 93.3052C259.224 93.3264 259.282 93.3598 259.332 93.4034C259.382 93.447 259.423 93.5 259.452 93.5593L265.811 106.221C265.861 106.345 265.861 106.483 265.811 106.608C265.789 106.67 265.756 106.727 265.712 106.777C265.668 106.826 265.614 106.866 265.554 106.895L237.741 120.54C237.678 120.57 237.61 120.588 237.54 120.595ZM231.872 107.657L237.741 119.413L264.595 106.155L258.693 94.3879L231.872 107.657Z" fill="#303337"/>
<path d="M311.377 110.362L297.047 115.628L303.141 131.891L317.471 126.625L311.377 110.362Z" fill="white"/>
<path d="M303.142 132.406C303.072 132.422 303 132.422 302.93 132.406C302.869 132.38 302.814 132.342 302.768 132.294C302.722 132.247 302.686 132.191 302.662 132.13L296.571 115.866C296.524 115.74 296.529 115.601 296.586 115.479C296.642 115.357 296.745 115.262 296.872 115.214L311.197 109.955C311.324 109.909 311.465 109.914 311.588 109.97C311.712 110.026 311.808 110.128 311.855 110.254L317.947 126.506C317.972 126.568 317.984 126.635 317.982 126.702C317.98 126.769 317.965 126.835 317.936 126.895C317.908 126.956 317.868 127.011 317.818 127.056C317.768 127.101 317.709 127.136 317.646 127.158L303.321 132.428L303.142 132.406ZM297.698 115.944L303.443 131.257L316.831 126.34L311.097 111.027L297.698 115.944Z" fill="#303337"/>
<path d="M272.189 128.96L255.814 131.06L257.935 147.277L274.31 145.176L272.189 128.96Z" fill="#E1E5E9"/>
<path d="M257.935 147.774C257.812 147.773 257.693 147.727 257.601 147.646C257.509 147.565 257.449 147.454 257.433 147.332L255.313 131.124C255.295 130.991 255.331 130.856 255.414 130.749C255.452 130.695 255.502 130.65 255.559 130.617C255.617 130.585 255.682 130.565 255.748 130.561L272.126 128.451C272.261 128.435 272.396 128.473 272.503 128.555C272.609 128.638 272.678 128.759 272.695 128.892L274.815 145.112C274.824 145.177 274.82 145.244 274.804 145.308C274.787 145.371 274.757 145.431 274.717 145.484C274.676 145.536 274.626 145.58 274.568 145.613C274.51 145.646 274.446 145.667 274.38 145.675L258.002 147.774H257.935ZM256.384 131.489L258.381 146.703L273.744 144.736L271.747 129.522L256.384 131.489Z" fill="#303337"/>
<path d="M228.067 256.448C232.769 256.448 236.58 252.673 236.58 248.018C236.58 243.362 232.769 239.588 228.067 239.588C223.366 239.588 219.555 243.362 219.555 248.018C219.555 252.673 223.366 256.448 228.067 256.448Z" fill="#303337"/>
<path d="M228.066 257C226.272 257 224.519 256.473 223.027 255.486C221.536 254.499 220.373 253.096 219.687 251.455C219 249.814 218.82 248.008 219.17 246.265C219.52 244.523 220.384 242.922 221.653 241.666C222.921 240.41 224.537 239.554 226.297 239.208C228.056 238.861 229.88 239.039 231.537 239.719C233.195 240.399 234.611 241.55 235.608 243.027C236.605 244.504 237.137 246.241 237.137 248.018C237.134 250.399 236.177 252.682 234.477 254.366C232.776 256.05 230.471 256.997 228.066 257ZM228.066 240.14C226.493 240.14 224.955 240.602 223.647 241.468C222.339 242.333 221.319 243.563 220.717 245.003C220.115 246.442 219.958 248.026 220.265 249.554C220.572 251.083 221.329 252.486 222.442 253.588C223.554 254.69 224.971 255.44 226.515 255.744C228.058 256.048 229.657 255.892 231.111 255.295C232.564 254.699 233.806 253.69 234.68 252.394C235.555 251.099 236.021 249.576 236.021 248.018C236.018 245.929 235.179 243.927 233.688 242.45C232.197 240.974 230.175 240.143 228.066 240.14Z" fill="#303337"/>
<path d="M226.184 235.632V246.515C226.184 249.332 229.441 249.498 230.925 246.515C232.409 243.532 235.577 235.257 235.577 235.257L226.184 235.632Z" fill="#E1E5E9"/>
<path d="M228.025 249.211C227.847 249.234 227.667 249.234 227.49 249.211C226.925 249.055 226.435 248.707 226.104 248.228C225.773 247.749 225.624 247.17 225.682 246.592V235.709C225.682 235.58 225.731 235.456 225.821 235.361C225.91 235.267 226.032 235.21 226.162 235.201L235.567 234.837C235.65 234.832 235.734 234.848 235.809 234.883C235.885 234.917 235.951 234.97 236.002 235.036C236.052 235.103 236.083 235.183 236.093 235.266C236.103 235.349 236.091 235.433 236.058 235.511C235.935 235.853 232.856 243.852 231.383 246.824C231.101 247.49 230.637 248.066 230.045 248.487C229.452 248.909 228.753 249.159 228.025 249.211ZM226.698 236.14V246.537C226.698 247.432 227.066 248.018 227.724 248.172C228.382 248.327 229.699 247.852 230.468 246.316C231.662 243.907 234.027 237.886 234.831 235.82L226.698 236.14Z" fill="#303337"/>
<path d="M299.571 256.448C304.272 256.448 308.084 252.673 308.084 248.018C308.084 243.362 304.272 239.588 299.571 239.588C294.87 239.588 291.059 243.362 291.059 248.018C291.059 252.673 294.87 256.448 299.571 256.448Z" fill="#303337"/>
<path d="M299.571 257C297.777 256.998 296.025 256.469 294.535 255.481C293.045 254.492 291.884 253.089 291.199 251.447C290.514 249.806 290.336 248 290.687 246.258C291.039 244.517 291.903 242.917 293.172 241.662C294.441 240.407 296.057 239.553 297.817 239.207C299.576 238.861 301.399 239.04 303.056 239.72C304.712 240.4 306.128 241.551 307.125 243.028C308.121 244.505 308.652 246.241 308.652 248.018C308.649 250.401 307.691 252.686 305.989 254.37C304.286 256.054 301.978 257 299.571 257ZM299.571 240.14C297.998 240.142 296.461 240.606 295.155 241.473C293.848 242.34 292.83 243.571 292.23 245.011C291.629 246.45 291.473 248.034 291.782 249.561C292.09 251.089 292.848 252.491 293.961 253.592C295.074 254.692 296.492 255.442 298.034 255.745C299.577 256.048 301.176 255.891 302.629 255.294C304.082 254.698 305.323 253.688 306.197 252.393C307.07 251.098 307.537 249.575 307.537 248.018C307.534 245.927 306.693 243.924 305.2 242.447C303.706 240.97 301.682 240.14 299.571 240.14Z" fill="#303337"/>
<path d="M297.697 235.632V246.515C297.697 249.332 300.955 249.498 302.428 246.515C303.9 243.532 307.091 235.257 307.091 235.257L297.697 235.632Z" fill="#E1E5E9"/>
<path d="M299.529 249.211C299.355 249.233 299.178 249.233 299.004 249.211C298.438 249.057 297.945 248.71 297.612 248.231C297.279 247.751 297.128 247.171 297.186 246.592V235.71C297.188 235.579 297.24 235.455 297.331 235.361C297.422 235.266 297.545 235.21 297.677 235.201L307.071 234.837C307.154 234.831 307.238 234.847 307.314 234.881C307.39 234.916 307.456 234.969 307.506 235.036C307.555 235.104 307.586 235.182 307.598 235.265C307.61 235.348 307.601 235.432 307.573 235.511C307.439 235.853 304.36 243.852 302.887 246.824C302.607 247.492 302.144 248.069 301.551 248.49C300.957 248.912 300.257 249.161 299.529 249.211ZM298.212 236.14V246.537C298.212 247.432 298.58 248.018 299.228 248.172C299.875 248.327 301.213 247.852 301.972 246.316C303.177 243.908 305.531 237.886 306.345 235.82L298.212 236.14Z" fill="#303337"/>
<path d="M327.998 146.46L196.216 139.565C196.067 139.557 195.927 139.491 195.827 139.381C195.727 139.272 195.674 139.127 195.68 138.98C195.684 138.907 195.703 138.836 195.735 138.771C195.767 138.705 195.812 138.647 195.867 138.599C195.922 138.55 195.986 138.513 196.055 138.49C196.125 138.466 196.198 138.456 196.271 138.46L328.02 145.355C328.169 145.363 328.308 145.429 328.409 145.539C328.509 145.649 328.561 145.793 328.555 145.94C328.547 146.081 328.484 146.213 328.381 146.31C328.277 146.406 328.14 146.46 327.998 146.46Z" fill="#303337"/>
<path d="M205.232 162.546C205.159 162.548 205.087 162.535 205.019 162.508C204.951 162.482 204.89 162.442 204.838 162.392C204.786 162.341 204.745 162.281 204.716 162.215C204.688 162.148 204.674 162.077 204.674 162.005C204.674 161.859 204.731 161.719 204.833 161.614C204.934 161.509 205.074 161.447 205.221 161.441L326.928 160.259C327.076 160.259 327.218 160.317 327.322 160.421C327.427 160.525 327.486 160.665 327.486 160.812C327.486 160.958 327.427 161.099 327.322 161.202C327.218 161.306 327.076 161.364 326.928 161.364L205.221 162.546H205.232Z" fill="#303337"/>
<path d="M217.581 188.444C217.433 188.444 217.291 188.386 217.187 188.282C217.082 188.179 217.023 188.038 217.023 187.892C217.023 187.745 217.082 187.605 217.187 187.501C217.291 187.397 217.433 187.339 217.581 187.339L324.74 179.605C324.888 179.595 325.034 179.643 325.146 179.74C325.258 179.836 325.327 179.972 325.337 180.119C325.348 180.265 325.299 180.41 325.202 180.521C325.104 180.632 324.967 180.7 324.819 180.71L217.715 188.444H217.581Z" fill="#303337"/>
<path d="M226.585 205.47C224.792 205.468 223.042 204.932 221.561 203.93C220.081 202.929 218.939 201.51 218.284 199.857C201.862 157.972 190.772 130.561 189.199 128.042C187.883 127.081 180.04 125.103 173.39 123.81C173.166 123.777 172.951 123.7 172.759 123.582C172.566 123.464 172.399 123.309 172.269 123.126C172.138 122.943 172.047 122.735 172 122.516C171.952 122.297 171.951 122.07 171.995 121.85C172.038 121.63 172.127 121.421 172.255 121.236C172.382 121.051 172.547 120.893 172.737 120.773C172.928 120.653 173.142 120.572 173.366 120.535C173.589 120.499 173.818 120.508 174.037 120.562C178.656 121.457 189.657 123.766 191.631 125.755C192.111 126.23 193.573 127.666 221.408 198.675C221.842 199.769 222.617 200.697 223.62 201.325C224.623 201.953 225.803 202.248 226.987 202.166L316.239 194.653C317.45 194.548 318.587 194.034 319.461 193.197C320.334 192.36 320.891 191.252 321.037 190.057L326.336 145.741C326.387 145.305 326.61 144.906 326.957 144.633C327.305 144.359 327.747 144.233 328.188 144.283C328.629 144.338 329.03 144.563 329.305 144.908C329.58 145.253 329.708 145.691 329.661 146.128L324.361 190.444C324.123 192.391 323.217 194.199 321.796 195.566C320.375 196.933 318.525 197.777 316.552 197.957L227.299 205.459L226.585 205.47Z" fill="#303337"/>
<path d="M177.015 118.838L174.884 126.329L157.469 121.656C157.058 121.542 156.674 121.35 156.339 121.088C156.004 120.827 155.724 120.503 155.517 120.134C155.309 119.765 155.178 119.359 155.13 118.939C155.082 118.52 155.118 118.095 155.237 117.689C155.466 116.931 155.973 116.284 156.658 115.875C157.343 115.466 158.157 115.325 158.941 115.48L177.015 118.838Z" fill="white"/>
<path d="M174.884 126.915H174.739L157.324 122.241C156.838 122.112 156.384 121.888 155.988 121.583C155.591 121.277 155.26 120.896 155.014 120.462C154.765 120.031 154.607 119.554 154.55 119.06C154.492 118.566 154.536 118.066 154.679 117.59C154.936 116.691 155.525 115.92 156.329 115.431C157.133 114.942 158.093 114.77 159.019 114.949L177.115 118.341C177.191 118.355 177.264 118.385 177.327 118.429C177.39 118.473 177.444 118.529 177.484 118.595C177.561 118.729 177.585 118.887 177.551 119.037L175.42 126.572C175.378 126.678 175.304 126.767 175.207 126.829C175.111 126.89 174.998 126.92 174.884 126.915ZM158.305 115.955C157.662 115.963 157.042 116.2 156.561 116.624C156.08 117.047 155.769 117.628 155.685 118.26C155.601 118.892 155.749 119.533 156.104 120.065C156.458 120.598 156.994 120.986 157.614 121.158L174.494 125.688L176.312 119.302L158.807 115.988C158.642 115.96 158.473 115.949 158.305 115.955Z" fill="#303337"/>
<path d="M235.298 202.708C235.181 202.708 235.066 202.67 234.971 202.6C234.877 202.531 234.808 202.433 234.774 202.321L214.436 140.239C214.39 140.1 214.402 139.949 214.469 139.818C214.536 139.688 214.652 139.589 214.793 139.543C214.862 139.519 214.936 139.509 215.009 139.514C215.083 139.519 215.154 139.539 215.22 139.572C215.286 139.605 215.344 139.651 215.391 139.706C215.439 139.762 215.474 139.827 215.495 139.897L235.834 201.978C235.88 202.118 235.868 202.269 235.801 202.4C235.734 202.53 235.617 202.629 235.477 202.674C235.42 202.696 235.359 202.707 235.298 202.708Z" fill="#303337"/>
<path d="M244.299 202.222C244.177 202.221 244.058 202.18 243.961 202.107C243.865 202.033 243.795 201.93 243.763 201.813L226.582 140.781C226.562 140.71 226.556 140.637 226.564 140.564C226.573 140.491 226.596 140.421 226.633 140.357C226.669 140.294 226.718 140.238 226.776 140.193C226.834 140.148 226.901 140.115 226.973 140.096C227.116 140.058 227.269 140.078 227.398 140.15C227.527 140.222 227.623 140.341 227.664 140.482L244.89 201.514C244.91 201.585 244.916 201.658 244.908 201.731C244.899 201.804 244.876 201.874 244.839 201.938C244.803 202.002 244.754 202.057 244.696 202.102C244.638 202.147 244.571 202.18 244.5 202.199L244.299 202.222Z" fill="#303337"/>
<path d="M253.003 201.47C252.877 201.471 252.755 201.43 252.656 201.354C252.557 201.278 252.486 201.171 252.456 201.05L237.54 141.388C237.52 141.319 237.515 141.246 237.524 141.174C237.534 141.102 237.558 141.033 237.596 140.971C237.633 140.909 237.684 140.855 237.743 140.813C237.802 140.77 237.87 140.741 237.941 140.725C238.013 140.707 238.087 140.703 238.159 140.713C238.232 140.723 238.302 140.747 238.365 140.784C238.428 140.821 238.484 140.87 238.528 140.928C238.572 140.986 238.604 141.053 238.622 141.123L253.538 200.785C253.557 200.855 253.561 200.927 253.55 200.999C253.54 201.07 253.516 201.138 253.478 201.2C253.441 201.262 253.391 201.316 253.333 201.358C253.274 201.401 253.207 201.431 253.137 201.448L253.003 201.47Z" fill="#303337"/>
<path d="M261.07 200.664C260.94 200.665 260.812 200.621 260.712 200.538C260.612 200.454 260.545 200.338 260.524 200.211L249.088 141.919C249.074 141.846 249.075 141.772 249.09 141.699C249.105 141.627 249.135 141.558 249.177 141.497C249.218 141.436 249.272 141.384 249.335 141.344C249.397 141.303 249.467 141.275 249.54 141.261C249.613 141.248 249.688 141.248 249.761 141.263C249.834 141.278 249.904 141.307 249.965 141.349C250.027 141.39 250.08 141.444 250.121 141.505C250.162 141.567 250.19 141.636 250.204 141.709L261.628 200.001C261.654 200.146 261.622 200.295 261.539 200.417C261.456 200.538 261.327 200.623 261.182 200.653L261.07 200.664Z" fill="#303337"/>
<path d="M269.863 199.702C269.731 199.702 269.604 199.654 269.504 199.57C269.404 199.485 269.337 199.367 269.316 199.238L259.532 142.615C259.519 142.543 259.521 142.469 259.537 142.398C259.553 142.327 259.583 142.26 259.626 142.2C259.668 142.14 259.722 142.09 259.785 142.051C259.847 142.012 259.917 141.986 259.989 141.974C260.062 141.96 260.137 141.96 260.209 141.976C260.282 141.991 260.35 142.021 260.411 142.063C260.472 142.105 260.523 142.159 260.562 142.222C260.6 142.285 260.626 142.354 260.636 142.427L270.41 199.051C270.432 199.195 270.397 199.343 270.312 199.463C270.227 199.582 270.098 199.664 269.952 199.691L269.863 199.702Z" fill="#303337"/>
<path d="M278.721 198.653C278.585 198.654 278.454 198.607 278.352 198.519C278.249 198.432 278.182 198.31 278.163 198.178L270.61 143.012C270.599 142.941 270.602 142.867 270.62 142.797C270.637 142.726 270.669 142.66 270.712 142.601C270.756 142.543 270.811 142.493 270.873 142.456C270.936 142.418 271.006 142.393 271.079 142.383C271.226 142.364 271.376 142.403 271.494 142.492C271.613 142.58 271.692 142.712 271.714 142.858L279.267 198.023C279.278 198.096 279.275 198.17 279.256 198.241C279.238 198.312 279.206 198.379 279.161 198.438C279.116 198.496 279.06 198.546 278.996 198.582C278.932 198.619 278.861 198.643 278.788 198.653H278.721Z" fill="#303337"/>
<path d="M287.265 197.581C287.126 197.577 286.993 197.523 286.891 197.43C286.789 197.336 286.724 197.21 286.708 197.073L281.866 143.576C281.859 143.503 281.867 143.43 281.889 143.361C281.911 143.291 281.946 143.227 281.993 143.171C282.041 143.115 282.098 143.069 282.164 143.035C282.229 143.001 282.3 142.98 282.373 142.974C282.446 142.967 282.52 142.975 282.59 142.997C282.661 143.019 282.726 143.054 282.782 143.1C282.839 143.147 282.885 143.204 282.92 143.269C282.954 143.333 282.975 143.404 282.981 143.476L287.823 196.973C287.836 197.119 287.79 197.265 287.697 197.378C287.603 197.492 287.468 197.564 287.321 197.581H287.265Z" fill="#303337"/>
<path d="M296.4 196.366C296.259 196.363 296.123 196.309 296.02 196.213C295.917 196.117 295.853 195.986 295.842 195.847L292.406 144.117C292.4 144.044 292.409 143.97 292.432 143.9C292.455 143.83 292.492 143.765 292.541 143.71C292.59 143.654 292.65 143.609 292.717 143.576C292.784 143.544 292.856 143.525 292.931 143.521C293.077 143.517 293.22 143.569 293.329 143.665C293.439 143.762 293.508 143.895 293.522 144.04L296.947 195.769C296.953 195.841 296.944 195.914 296.922 195.982C296.899 196.051 296.863 196.115 296.815 196.169C296.767 196.224 296.709 196.268 296.643 196.3C296.578 196.332 296.507 196.351 296.434 196.355L296.4 196.366Z" fill="#303337"/>
<path d="M305.092 197.581C304.946 197.581 304.806 197.524 304.702 197.423C304.597 197.322 304.537 197.184 304.534 197.04L303.274 144.659C303.272 144.586 303.285 144.514 303.312 144.446C303.338 144.379 303.378 144.317 303.429 144.265C303.48 144.212 303.54 144.171 303.608 144.141C303.675 144.112 303.747 144.097 303.82 144.095C303.967 144.095 304.109 144.151 304.215 144.252C304.321 144.353 304.383 144.491 304.389 144.637L305.65 197.018C305.647 197.162 305.59 197.301 305.488 197.406C305.387 197.51 305.249 197.573 305.103 197.581H305.092Z" fill="#303337"/>
<path d="M314.655 196.056C314.508 196.056 314.366 195.998 314.261 195.895C314.156 195.791 314.098 195.65 314.098 195.504V145.211C314.098 145.065 314.156 144.924 314.261 144.821C314.366 144.717 314.508 144.659 314.655 144.659C314.803 144.659 314.945 144.717 315.05 144.821C315.155 144.924 315.213 145.065 315.213 145.211V195.504C315.213 195.65 315.155 195.791 315.05 195.895C314.945 195.998 314.803 196.056 314.655 196.056Z" fill="#303337"/>
<path d="M310.325 237.72H218.841C218.058 237.722 217.287 237.525 216.602 237.149C215.918 236.774 215.341 236.231 214.928 235.572C214.514 234.914 214.277 234.161 214.24 233.387C214.202 232.612 214.365 231.841 214.713 231.146L228.469 203.602C228.566 203.407 228.702 203.233 228.867 203.09C229.032 202.946 229.225 202.837 229.433 202.767C229.641 202.697 229.861 202.669 230.081 202.683C230.3 202.698 230.514 202.755 230.711 202.851C230.908 202.948 231.084 203.082 231.229 203.245C231.374 203.409 231.485 203.6 231.555 203.806C231.625 204.012 231.654 204.23 231.64 204.447C231.625 204.665 231.567 204.877 231.47 205.072L217.725 232.638C217.63 232.826 217.585 233.036 217.595 233.246C217.604 233.457 217.668 233.661 217.78 233.84C217.892 234.02 218.048 234.168 218.233 234.27C218.419 234.373 218.628 234.427 218.841 234.428H310.325C310.769 234.428 311.194 234.602 311.508 234.913C311.822 235.224 311.998 235.646 311.998 236.085C311.998 236.525 311.822 236.946 311.508 237.257C311.194 237.568 310.769 237.742 310.325 237.742V237.72Z" fill="#303337"/>
<path d="M111.213 43.0013C110.448 43.3315 109.583 43.3547 108.8 43.0663C108.018 42.7778 107.379 42.2 107.018 41.4545C106.809 41.1699 106.672 40.84 106.617 40.4921C106.563 40.1443 106.593 39.7886 106.706 39.4547C106.767 39.2926 106.863 39.1454 106.987 39.0234C107.111 38.9013 107.261 38.8071 107.425 38.7474C107.589 38.6876 107.764 38.6636 107.939 38.677C108.113 38.6904 108.282 38.7408 108.435 38.825C106.844 36.9102 105.554 34.7684 104.608 32.4721C104.147 31.3173 103.948 30.0757 104.027 28.8361C104.106 27.5966 104.461 26.3896 105.066 25.3016C103.247 24.3514 101.306 23.2797 100.402 21.4456C99.9212 20.2993 99.8219 19.0307 100.119 17.8246C100.416 16.6185 101.094 15.5376 102.054 14.7392C103.039 13.9714 104.18 13.4245 105.4 13.1365C106.619 12.8484 107.887 12.8261 109.116 13.0709C108.94 12.4803 108.642 11.9324 108.241 11.4625C107.839 10.9925 107.343 10.6108 106.784 10.3419C109.517 7.75653 113.478 6.91685 117.26 6.77321C123.53 6.5412 130.112 8.13218 134.664 12.3969C136.403 14.022 137.735 16.0272 138.552 18.2524C139.37 20.4777 139.651 22.8613 139.372 25.2132C138.446 31.4666 133.939 28.6161 129.677 30.9584C127.569 32.0633 126.13 34.2067 124.322 35.7424C121.276 38.3278 117.36 39.057 114.281 41.2667C113.343 41.9806 112.311 42.5642 111.213 43.0013Z" fill="white"/>
<path d="M109.82 43.8078C109.136 43.7873 108.47 43.5846 107.893 43.221C107.316 42.8574 106.848 42.3464 106.54 41.7418C106.288 41.3816 106.125 40.9685 106.063 40.535C106.001 40.1016 106.042 39.6599 106.183 39.2448C106.289 39.0079 106.443 38.7947 106.634 38.6181C106.826 38.4415 107.052 38.3052 107.298 38.2173C105.967 36.5387 104.889 34.6779 104.096 32.693C103.643 31.5524 103.429 30.3323 103.467 29.1071C103.506 27.8819 103.796 26.6773 104.319 25.5667C102.467 24.7772 100.908 23.4376 99.8568 21.7329C99.3239 20.4754 99.2107 19.0821 99.5339 17.7563C99.857 16.4306 100.599 15.2418 101.653 14.3635C103.491 12.8949 105.842 12.2076 108.191 12.4521C107.802 11.7732 107.214 11.2263 106.506 10.8833C106.425 10.8444 106.355 10.7871 106.3 10.7161C106.246 10.645 106.209 10.5622 106.194 10.4745C106.179 10.386 106.186 10.2953 106.216 10.2105C106.245 10.1256 106.295 10.0493 106.361 9.98832C108.782 7.69023 112.43 6.44175 117.194 6.26497C124.435 6.01085 130.761 8.05483 135.045 12.0433C136.841 13.7269 138.216 15.8014 139.062 18.1026C139.909 20.4038 140.202 22.8685 139.92 25.3016C139.262 29.721 136.807 30.0414 134.197 30.3507C132.72 30.4336 131.274 30.8093 129.946 31.4556C128.691 32.2326 127.563 33.1937 126.599 34.3061C125.989 34.9616 125.345 35.5849 124.669 36.1733C122.935 37.5259 121.011 38.6203 118.957 39.4216C117.448 40.0419 116.002 40.8041 114.639 41.6976C113.646 42.4571 112.549 43.0745 111.382 43.5316C110.88 43.7077 110.352 43.801 109.82 43.8078ZM107.867 39.2116C107.816 39.2002 107.762 39.2002 107.711 39.2116C107.598 39.2411 107.494 39.295 107.405 39.3696C107.316 39.4441 107.246 39.5374 107.198 39.6425C107.125 39.8967 107.111 40.1641 107.157 40.4243C107.204 40.6846 107.309 40.9311 107.466 41.1451C107.76 41.7828 108.297 42.2791 108.96 42.5254C109.623 42.7718 110.357 42.7483 111.002 42.4599C112.065 42.0345 113.064 41.4656 113.97 40.7695C115.376 39.8334 116.871 39.0342 118.433 38.383C120.408 37.6297 122.264 36.599 123.944 35.3226C124.591 34.7573 125.21 34.1599 125.796 33.5327C126.834 32.328 128.053 31.2883 129.411 30.4502C130.86 29.7283 132.443 29.3072 134.063 29.2127C136.607 28.9144 138.28 28.7156 138.816 25.1027C139.081 22.8392 138.808 20.5457 138.02 18.405C137.232 16.2643 135.949 14.3355 134.275 12.7725C128.853 7.67918 121.3 7.1599 117.283 7.24829C113.267 7.33668 109.942 8.35314 107.733 10.1761C108.657 10.8246 109.333 11.7627 109.652 12.8388C109.68 12.9284 109.683 13.0237 109.662 13.1149C109.64 13.2061 109.595 13.29 109.53 13.3581C109.469 13.4284 109.39 13.4817 109.302 13.5127C109.214 13.5437 109.12 13.5514 109.028 13.5349C107.879 13.3043 106.694 13.3231 105.554 13.5902C104.413 13.8572 103.345 14.3661 102.423 15.0817C101.552 15.7966 100.934 16.769 100.661 17.8565C100.388 18.944 100.474 20.0894 100.906 21.1252C101.698 22.7383 103.382 23.7106 105.368 24.7381C105.435 24.7742 105.494 24.8231 105.542 24.8819C105.59 24.9406 105.626 25.0082 105.647 25.0806C105.681 25.231 105.657 25.3886 105.58 25.5225C105.026 26.5303 104.702 27.6463 104.63 28.7917C104.559 29.9371 104.742 31.084 105.167 32.1516C106.101 34.3929 107.365 36.4852 108.916 38.3609C108.997 38.4673 109.036 38.5989 109.026 38.7315C109.017 38.8642 108.959 38.989 108.864 39.083C108.769 39.177 108.643 39.234 108.509 39.2434C108.375 39.2528 108.242 39.2141 108.135 39.1343C108.046 39.1289 107.959 39.1565 107.89 39.2116H107.867Z" fill="#303337"/>
<path d="M133.56 31.8091C133.56 31.8091 136.561 38.4383 135.535 39.5431C134.509 40.648 131.887 39.3774 131.887 39.3774" fill="white"/>
<path d="M134.263 40.5596C133.352 40.5142 132.46 40.2849 131.641 39.8856C131.576 39.8537 131.517 39.8092 131.468 39.7548C131.419 39.7003 131.382 39.6369 131.358 39.5681C131.335 39.4994 131.325 39.4267 131.329 39.3541C131.334 39.2816 131.353 39.2107 131.385 39.1454C131.417 39.0801 131.462 39.0217 131.517 38.9736C131.572 38.9255 131.636 38.8886 131.706 38.865C131.775 38.8414 131.848 38.8316 131.922 38.8361C131.995 38.8406 132.066 38.8593 132.132 38.8913C132.858 39.2559 134.553 39.7862 135.122 39.1785C135.513 38.6813 134.553 35.3447 133.058 32.0301C133.023 31.9634 133.002 31.8902 132.996 31.815C132.99 31.7398 133 31.6642 133.024 31.5929C133.049 31.5216 133.088 31.4561 133.14 31.4003C133.191 31.3446 133.253 31.2999 133.323 31.2689C133.392 31.2379 133.467 31.2214 133.543 31.2202C133.62 31.2191 133.695 31.2334 133.765 31.2623C133.836 31.2911 133.899 31.334 133.952 31.3881C134.005 31.4423 134.047 31.5066 134.074 31.5771C135.022 33.6764 137.097 38.6924 135.937 39.9298C135.719 40.1469 135.458 40.3155 135.169 40.4241C134.88 40.5327 134.571 40.5789 134.263 40.5596Z" fill="#303337"/>
<path d="M133.987 23.7547C136.219 26.2296 134.724 30.4501 134.233 33.2785C133.541 37.256 132.756 41.2114 131.879 45.1446C131.321 47.6416 124.716 46.6251 123.679 45.6749L122.898 54.116C122.898 54.116 120.588 58.4691 115.668 55.2209C110.748 51.9726 110.09 48.3376 110.09 48.3376L112.444 36.9024C112.444 36.9024 116.795 37.6537 120.254 32.936C123.712 28.2183 124.906 20.2965 124.906 20.2965C124.906 20.2965 131.89 21.3351 133.987 23.7547Z" fill="white"/>
<path d="M119.18 56.9667C117.813 56.9045 116.496 56.439 115.398 55.6298C110.355 52.2268 109.597 48.5477 109.563 48.393C109.547 48.324 109.547 48.2521 109.563 48.1831L111.917 36.7479C111.944 36.6075 112.026 36.4833 112.146 36.4026C112.265 36.3219 112.411 36.2911 112.553 36.317C112.721 36.317 116.625 36.9246 119.794 32.5605C123.141 28.0085 124.323 20.2524 124.335 20.1751C124.346 20.1027 124.371 20.0332 124.409 19.9706C124.448 19.908 124.498 19.8536 124.558 19.8105C124.616 19.7675 124.683 19.7365 124.754 19.7194C124.825 19.7024 124.898 19.6995 124.971 19.7111C125.272 19.7111 132.178 20.8159 134.442 23.4013C136.451 25.611 135.714 29.1023 135.123 31.8644C135.011 32.4058 134.9 32.914 134.811 33.3891C134.119 37.3445 133.327 41.3441 132.457 45.2773C132.347 45.7068 132.119 46.0975 131.798 46.4058C131.476 46.7141 131.075 46.9278 130.638 47.023C128.5 47.4936 126.271 47.3518 124.212 46.6142L123.509 54.2156C123.499 54.2888 123.476 54.3597 123.442 54.4255C122.757 55.6183 121.628 56.4985 120.296 56.8783C119.929 56.9532 119.554 56.9829 119.18 56.9667ZM110.69 48.2825C110.835 48.846 111.806 51.8843 116.023 54.7128C116.569 55.1671 117.207 55.5008 117.894 55.6913C118.581 55.8818 119.301 55.9249 120.006 55.8176C121.004 55.5335 121.857 54.8863 122.393 54.0057L123.163 45.6972C123.175 45.5952 123.214 45.4982 123.277 45.4167C123.34 45.3352 123.424 45.2723 123.521 45.2348C123.617 45.1973 123.722 45.1865 123.824 45.2038C123.926 45.221 124.022 45.2655 124.1 45.3326C126.039 46.2079 128.211 46.4366 130.292 45.9844C130.928 45.7856 131.285 45.4872 131.408 45.0895C132.278 41.1783 133.07 37.2009 133.762 33.2455C133.84 32.7704 133.963 32.2401 134.074 31.6876C134.621 29.1686 135.29 26.0308 133.65 24.1857C132.01 22.3406 127.046 21.2579 125.394 20.9485C125.049 22.8709 123.721 29.1686 120.742 33.2676C117.763 37.3666 114.294 37.5544 112.933 37.5102L110.69 48.2825Z" fill="#303337"/>
<path d="M132.31 42.1616C132.31 42.1616 128.885 43.5538 127.758 40.0956L132.31 42.1616Z" fill="white"/>
<path d="M130.784 42.9903C130.238 42.9998 129.696 42.8865 129.2 42.6588C128.718 42.4209 128.292 42.0841 127.952 41.6707C127.611 41.2573 127.364 40.7768 127.225 40.2613C127.18 40.1148 127.194 39.9562 127.267 39.8205C127.339 39.6848 127.462 39.583 127.61 39.5376C127.758 39.4922 127.918 39.5068 128.055 39.5783C128.192 39.6498 128.295 39.7723 128.341 39.9188C128.432 40.2866 128.6 40.6313 128.834 40.9302C129.069 41.2292 129.365 41.4756 129.702 41.6534C130.494 41.9445 131.365 41.9445 132.157 41.6534C132.225 41.6265 132.298 41.6133 132.371 41.6143C132.444 41.6153 132.517 41.6306 132.584 41.6593C132.651 41.6881 132.712 41.7296 132.763 41.7817C132.814 41.8338 132.855 41.8953 132.882 41.9627C132.909 42.0302 132.922 42.1023 132.921 42.1749C132.92 42.2475 132.905 42.3192 132.876 42.3859C132.847 42.4526 132.805 42.513 132.752 42.5636C132.7 42.6142 132.638 42.6541 132.569 42.6809C131.997 42.885 131.393 42.9896 130.784 42.9903Z" fill="#303337"/>
<path d="M123.945 32.229C124.004 31.2136 123.772 30.2024 123.276 29.3121C123.008 28.58 122.632 27.8911 122.16 27.2682C121.914 26.9613 121.602 26.712 121.247 26.5382C120.892 26.3644 120.503 26.2703 120.107 26.2628C119.756 26.2915 119.415 26.3941 119.108 26.5637C118.8 26.7333 118.532 26.9659 118.322 27.2461C117.903 27.8055 117.617 28.4513 117.485 29.1354C117.174 30.6216 117.262 32.1627 117.739 33.605C118.217 35.0473 119.068 36.3404 120.208 37.3555L120.018 37.0793" fill="white"/>
<path d="M120.14 37.9079C120.072 37.9093 120.004 37.8973 119.941 37.8726C119.878 37.848 119.82 37.8111 119.772 37.7643C118.559 36.6833 117.655 35.3064 117.148 33.771C116.64 32.2355 116.549 30.5953 116.882 29.0138C117.023 28.2439 117.344 27.5174 117.819 26.8925C118.081 26.5459 118.417 26.2604 118.802 26.0561C119.188 25.8519 119.614 25.7338 120.051 25.7103C120.532 25.7106 121.007 25.8191 121.44 26.0278C121.873 26.2364 122.252 26.5396 122.55 26.9146C123.07 27.5867 123.487 28.3314 123.788 29.1243C124.328 30.1079 124.575 31.2225 124.502 32.3394C124.493 32.4119 124.468 32.4818 124.431 32.5448C124.394 32.6078 124.344 32.6626 124.284 32.706C124.225 32.7493 124.157 32.7803 124.085 32.7971C124.013 32.8138 123.939 32.816 123.866 32.8035C123.722 32.7816 123.592 32.7045 123.504 32.5889C123.417 32.4732 123.378 32.3281 123.398 32.1848C123.427 31.2725 123.212 30.3688 122.773 29.5663C122.499 28.8813 122.123 28.2408 121.657 27.6659C121.465 27.4225 121.222 27.2234 120.945 27.0822C120.667 26.9411 120.362 26.8613 120.051 26.8483C119.78 26.8742 119.517 26.9564 119.281 27.0897C119.044 27.223 118.839 27.4043 118.678 27.6217C118.314 28.1173 118.066 28.6873 117.953 29.29C117.681 30.5829 117.732 31.9219 118.101 33.1908C118.471 34.4597 119.148 35.62 120.073 36.571C120.142 36.5868 120.208 36.6166 120.266 36.6584C120.323 36.7002 120.371 36.7531 120.408 36.8141L120.597 37.0793C120.666 37.1922 120.694 37.3252 120.676 37.456C120.658 37.5868 120.594 37.7074 120.497 37.7974C120.395 37.8755 120.268 37.9148 120.14 37.9079Z" fill="#303337"/>
<path d="M123.72 45.675C121.858 44.7327 120.308 43.2789 119.258 41.4876C119.258 41.4876 118.477 47.5753 123.43 50.1938L123.72 45.675Z" fill="#303337"/>
<path d="M123.443 50.7463C123.349 50.7454 123.258 50.7227 123.175 50.68C117.954 47.9179 118.712 41.4766 118.712 41.4214C118.727 41.3012 118.781 41.1891 118.865 41.1015C118.95 41.014 119.06 40.9557 119.181 40.9352C119.301 40.921 119.422 40.9442 119.528 41.0017C119.634 41.0591 119.72 41.1479 119.772 41.2556C120.762 42.9264 122.208 44.2861 123.945 45.1779C124.043 45.2269 124.125 45.3031 124.18 45.3972C124.236 45.4913 124.262 45.5993 124.257 45.7082L123.978 50.227C123.972 50.3191 123.942 50.408 123.891 50.4853C123.84 50.5627 123.771 50.6259 123.688 50.669C123.615 50.717 123.53 50.7437 123.443 50.7463ZM119.817 43.3217C119.863 44.4746 120.167 45.6029 120.707 46.6252C121.248 47.6474 122.01 48.538 122.941 49.2327L123.141 45.9844C121.891 45.2866 120.767 44.3866 119.817 43.3217Z" fill="#303337"/>
<path d="M132.274 28.8553C132.535 28.1052 132.505 27.415 132.208 27.3138C131.911 27.2126 131.459 27.7386 131.198 28.4888C130.938 29.2389 130.967 29.929 131.265 30.0302C131.562 30.1315 132.014 29.6054 132.274 28.8553Z" fill="#303337"/>
<path d="M103.206 47.7743C103.206 47.7743 120.599 50.669 123.946 60.6127C127.293 70.5563 121.715 102.597 123.946 105.569C126.177 108.541 131.756 127.898 131.756 128.506C131.756 133.886 84.8979 135.621 84.8979 135.621C84.8979 135.621 83.7153 112.253 83.336 98.0561C82.9566 83.8587 90.4762 44.5039 103.206 47.7743Z" fill="#FEC311"/>
<path d="M129.322 118.838C129.263 118.849 129.203 118.849 129.144 118.838C129.034 118.802 128.938 118.732 128.87 118.639C128.802 118.546 128.765 118.434 128.764 118.319C128.653 117.8 127.403 114.883 126.31 112.298C124.737 108.618 123.108 104.807 122.851 103.669C122.595 102.531 123.074 93.5372 123.788 82.113C124.101 77.1081 124.369 72.7881 124.413 71.1529C124.363 67.66 124.008 64.1778 123.353 60.7452C123.325 60.5987 123.357 60.4471 123.442 60.3238C123.526 60.2006 123.657 60.1157 123.805 60.0878C123.953 60.06 124.106 60.0915 124.231 60.1754C124.355 60.2593 124.441 60.3888 124.469 60.5353C125.161 64.0417 125.535 67.6025 125.585 71.175C125.585 72.8323 125.272 77.1633 124.96 82.2235C124.424 90.6646 123.699 102.221 123.989 103.47C124.235 104.508 125.908 108.442 127.336 111.911C129.991 118.153 129.969 118.22 129.858 118.54C129.805 118.634 129.728 118.712 129.633 118.765C129.538 118.818 129.431 118.843 129.322 118.838Z" fill="#303337"/>
<path d="M101.206 39.8525C99.8248 38.9461 98.2726 38.3259 96.6429 38.0295C92.8405 37.6202 89.0267 38.6942 86.0107 41.0237C81.6484 44.0289 77.0073 47.5865 75.8916 52.7351C75.4381 55.182 75.8258 57.7088 76.9927 59.9118C78.1596 62.1149 80.0384 63.8671 82.329 64.8885C83.1417 65.2831 84.0512 65.4402 84.9508 65.3415C86.6578 65.0763 87.7957 63.5406 88.9672 62.281C92.0129 58.9665 94.7798 58.3809 99.0081 57.95C101.629 57.6352 104.268 57.5023 106.907 57.5523C112.318 57.7511 117.584 59.2979 122.939 60.1155C126.286 60.6238 124.88 57.1545 123.53 55.906C121.299 53.84 118.967 51.8844 116.569 50.0172C111.691 46.282 106.558 42.8857 101.206 39.8525Z" fill="#FEC311"/>
<path d="M170.656 126.572C170.589 126.871 170.277 127.014 169.998 127.136C166.651 128.484 162.824 129.113 159.411 127.92C155.394 126.517 153.263 122.959 149.236 121.733C147.774 121.291 146.324 120.882 144.862 120.485C142.765 119.91 140.656 119.38 138.548 118.816C132.59 117.258 125.282 116.308 119.86 113.292C115.398 110.762 102.757 88.9852 99.2541 79.826C95.7509 70.6668 106.584 65.3083 106.584 65.3083C112.419 60.469 127.782 100.476 127.782 100.476L149.849 110.762L154.424 112.883C155.339 113.399 156.303 113.824 157.302 114.154C159.611 114.717 162.479 113.657 164.721 113.181C165.032 113.092 165.358 113.062 165.681 113.093C165.908 113.131 166.129 113.198 166.339 113.292C167.288 113.651 168.185 114.134 169.005 114.728C169.412 115.028 169.755 115.406 170.014 115.838C170.272 116.27 170.442 116.75 170.511 117.247L167.365 117.17C164.944 117.104 163.94 120.032 165.134 121.954C166.328 123.876 169.34 124.097 170.5 126.053C170.603 126.207 170.657 126.388 170.656 126.572Z" fill="white"/>
<path d="M163.314 129.058C161.921 129.068 160.537 128.844 159.22 128.395C157.339 127.642 155.603 126.573 154.088 125.235C152.629 123.912 150.924 122.884 149.067 122.208C147.617 121.777 146.178 121.368 144.716 120.971C142.764 120.44 140.789 119.932 138.825 119.413L138.402 119.313C136.828 118.894 135.188 118.529 133.448 118.142C128.628 117.037 123.63 115.933 119.58 113.723C115.017 111.104 102.276 89.1952 98.7286 79.9365C95.1808 70.6778 105.423 65.2199 106.282 64.7558C106.563 64.5284 106.896 64.3723 107.251 64.301C107.607 64.2298 107.975 64.2456 108.323 64.347C111.235 65.0983 115.497 71.3849 120.986 83.0411C124.679 90.8745 127.68 98.6306 128.26 99.9896L150.116 110.165L154.69 112.298L155.438 112.662C156.078 113.027 156.76 113.316 157.468 113.524C159.13 113.933 161.217 113.402 163.046 112.938C163.593 112.795 164.162 112.662 164.62 112.552C165.001 112.448 165.398 112.415 165.791 112.452C166.06 112.503 166.322 112.585 166.572 112.695C167.573 113.066 168.516 113.575 169.372 114.209C169.842 114.553 170.236 114.988 170.531 115.488C170.827 115.987 171.017 116.541 171.09 117.115C171.1 117.193 171.092 117.272 171.067 117.346C171.042 117.421 171 117.489 170.945 117.546C170.89 117.601 170.824 117.645 170.751 117.673C170.678 117.702 170.6 117.715 170.521 117.711L167.375 117.634C167.01 117.615 166.647 117.699 166.329 117.877C166.011 118.055 165.751 118.32 165.579 118.639C165.319 119.086 165.181 119.593 165.181 120.109C165.181 120.625 165.319 121.132 165.579 121.578C166.213 122.4 167.061 123.035 168.033 123.412C169.207 123.874 170.219 124.665 170.945 125.688C171.123 125.964 171.198 126.292 171.157 126.616C171.086 126.841 170.96 127.045 170.791 127.211C170.622 127.376 170.414 127.498 170.187 127.567C168.012 128.491 165.68 128.997 163.314 129.058ZM107.676 65.3635C107.409 65.3665 107.152 65.4646 106.951 65.6397L106.839 65.7171C106.416 65.927 96.4861 70.9651 99.7773 79.5498C103.191 88.4549 115.843 110.287 120.138 112.695C124.043 114.905 128.952 116.01 133.693 117.048C135.445 117.435 137.04 117.8 138.692 118.22L139.104 118.33C141.079 118.838 143.054 119.347 145.017 119.888C146.479 120.286 147.94 120.694 149.391 121.136C151.386 121.848 153.221 122.94 154.791 124.352C156.216 125.627 157.859 126.641 159.644 127.346C163.303 128.638 167.208 127.644 169.83 126.583C169.943 126.542 170.048 126.482 170.142 126.407C170.116 126.342 170.086 126.28 170.053 126.219C169.418 125.379 168.555 124.735 167.565 124.363C166.41 123.907 165.405 123.142 164.664 122.153C164.308 121.533 164.121 120.833 164.121 120.12C164.121 119.407 164.308 118.707 164.664 118.087C164.938 117.595 165.345 117.188 165.84 116.913C166.335 116.638 166.897 116.505 167.464 116.529L169.885 116.595C169.66 115.997 169.274 115.47 168.77 115.071C167.995 114.5 167.143 114.043 166.237 113.712C166.073 113.638 165.901 113.583 165.724 113.546C165.464 113.529 165.203 113.559 164.954 113.634C164.475 113.734 163.961 113.866 163.426 113.999C161.462 114.507 159.231 115.104 157.29 114.607C156.514 114.363 155.767 114.041 155.058 113.646L154.344 113.292L149.603 111.171L127.535 100.896C127.404 100.83 127.301 100.72 127.245 100.586C123.664 91.2612 113.21 66.7556 107.989 65.4187C107.887 65.3886 107.782 65.3701 107.676 65.3635Z" fill="#303337"/>
<path d="M149.882 110.673L144.862 120.44C142.764 119.866 140.656 119.336 138.547 118.772C132.589 117.214 125.282 116.264 119.86 113.248C115.397 110.718 104.017 96.675 98.5505 85.3834C91.8565 71.4402 107.476 62.0158 107.476 62.0158C113.311 57.1655 127.825 100.431 127.825 100.431L149.882 110.673Z" fill="#303337"/>
<path d="M144.864 121.048H144.719C142.766 120.518 140.792 119.943 138.828 119.49L138.415 119.38C136.831 118.971 135.191 118.606 133.451 118.275C128.631 117.17 123.633 116.065 119.583 113.855C114.897 111.204 103.395 96.8297 98.0507 85.748C95.2169 79.8592 95.8975 73.8156 100.048 68.2803C102.011 65.6721 104.425 63.4279 107.177 61.6512C107.441 61.4382 107.755 61.2934 108.09 61.2298C108.425 61.1662 108.77 61.1857 109.096 61.2866C110.211 61.5849 113.413 62.5019 121.368 81.6601C124.905 90.2116 127.817 98.6748 128.319 100.155L150.163 110.32C150.297 110.386 150.401 110.501 150.453 110.64C150.484 110.708 150.499 110.782 150.499 110.856C150.499 110.93 150.484 111.003 150.453 111.071L145.433 120.838C145.368 120.923 145.28 120.987 145.179 121.025C145.078 121.062 144.969 121.07 144.864 121.048ZM108.46 62.1373C108.223 62.1416 107.997 62.2321 107.824 62.3915C105.166 64.1081 102.829 66.2689 100.918 68.7775C96.9908 74.0366 96.366 79.5277 99.0548 85.0962C104.711 96.8186 116.024 110.397 120.141 112.717C124.046 114.927 128.954 116.032 133.696 117.071C135.448 117.457 137.043 117.822 138.694 118.242L139.107 118.352C140.937 118.827 142.766 119.302 144.574 119.789L149.137 110.95L127.582 100.918C127.514 100.884 127.453 100.838 127.403 100.781C127.353 100.724 127.316 100.658 127.292 100.586C123.867 90.3995 113.904 63.6399 108.794 62.2147C108.687 62.1744 108.574 62.1484 108.46 62.1373Z" fill="#303337"/>
<path d="M109.362 166.944C109.284 166.945 109.207 166.93 109.136 166.899C109.065 166.869 109.001 166.824 108.949 166.767C103.616 160.999 91.2881 141.201 90.7749 140.361C90.7345 140.3 90.7069 140.231 90.694 140.159C90.6811 140.087 90.683 140.013 90.6997 139.942C90.7164 139.871 90.7474 139.803 90.7911 139.744C90.8347 139.685 90.8899 139.636 90.9534 139.598C91.0782 139.524 91.2273 139.501 91.3691 139.534C91.5109 139.567 91.634 139.654 91.7121 139.775C91.846 139.985 104.509 160.337 109.775 166.027C109.845 166.106 109.891 166.204 109.907 166.308C109.923 166.413 109.909 166.52 109.865 166.616C109.822 166.713 109.751 166.795 109.662 166.853C109.573 166.911 109.469 166.942 109.362 166.944Z" fill="white"/>
<path d="M91.2455 60.8557C91.1238 60.8545 91.0058 60.8138 90.9095 60.74C90.8133 60.6661 90.7441 60.5632 90.7125 60.4467C90.6809 60.3303 90.6886 60.2068 90.7345 60.0951C90.7804 59.9835 90.8619 59.8897 90.9666 59.8282C91.5914 59.4636 106.497 50.9894 115.924 54.6464C116.06 54.7029 116.168 54.8092 116.226 54.9431C116.285 55.077 116.288 55.2281 116.236 55.3646C116.209 55.4321 116.169 55.4937 116.118 55.5458C116.067 55.5979 116.006 55.6395 115.938 55.6682C115.871 55.6969 115.799 55.7122 115.725 55.7132C115.652 55.7142 115.579 55.7009 115.511 55.674C106.586 52.1937 91.6695 60.69 91.5244 60.7784C91.4411 60.8307 91.3441 60.8576 91.2455 60.8557Z" fill="#303337"/>
</svg>
