<svg width="224" height="144" viewBox="0 0 224 144" fill="none" xmlns="http://www.w3.org/2000/svg">
<path d="M205.461 4.7157H37.2351C34.0062 4.7157 31.3887 7.33322 31.3887 10.5621V123.42C31.3887 126.649 34.0062 129.266 37.2351 129.266H205.461C208.69 129.266 211.308 126.649 211.308 123.42V10.5621C211.308 7.33322 208.69 4.7157 205.461 4.7157Z" fill="white"/>
<path d="M205.461 130.281H37.2349C35.416 130.279 33.6723 129.555 32.3862 128.269C31.1 126.983 30.3762 125.239 30.3735 123.42V10.5621C30.3762 8.74315 31.1 6.99949 32.3862 5.71331C33.6723 4.42713 35.416 3.70337 37.2349 3.70068H205.461C207.28 3.70337 209.024 4.42713 210.31 5.71331C211.596 6.99949 212.32 8.74315 212.322 10.5621V123.42C212.32 125.239 211.596 126.983 210.31 128.269C209.024 129.555 207.28 130.279 205.461 130.281ZM37.2349 5.73068C35.9544 5.73337 34.7271 6.24325 33.8216 7.14873C32.9161 8.05422 32.4062 9.28154 32.4035 10.5621V123.42C32.4062 124.7 32.9161 125.928 33.8216 126.833C34.7271 127.739 35.9544 128.249 37.2349 128.251H205.461C206.742 128.251 207.971 127.742 208.877 126.836C209.783 125.93 210.292 124.701 210.292 123.42V10.5621C210.292 9.28072 209.783 8.05183 208.877 7.14577C207.971 6.23971 206.742 5.73068 205.461 5.73068H37.2349Z" fill="#303337"/>
<path d="M201.726 16.9261V117.056C201.723 118.109 201.303 119.119 200.557 119.863C199.811 120.607 198.801 121.025 197.747 121.025H45.0098C44.4878 121.026 43.9706 120.924 43.488 120.725C43.0053 120.527 42.5666 120.234 42.197 119.866C41.8274 119.497 41.5341 119.059 41.3341 118.577C41.134 118.095 41.031 117.578 41.031 117.056V16.9261C41.031 15.8709 41.4502 14.8589 42.1964 14.1127C42.9425 13.3665 43.9546 12.9473 45.0098 12.9473H197.747C198.801 12.95 199.812 13.3701 200.557 14.1156C201.303 14.8612 201.723 15.8717 201.726 16.9261Z" fill="#FEC311"/>
<path d="M197.747 122.04H45.0098C44.354 122.041 43.7044 121.913 43.098 121.663C42.4916 121.414 41.9403 121.047 41.4757 120.584C41.011 120.121 40.6421 119.572 40.3899 118.966C40.1377 118.361 40.0072 117.712 40.0059 117.056V16.9261C40.0085 15.6007 40.5369 14.3306 41.4751 13.3943C42.4132 12.4581 43.6844 11.9323 45.0098 11.9323H197.747C199.071 11.935 200.339 12.462 201.275 13.3979C202.211 14.3339 202.738 15.6025 202.741 16.9261V117.056C202.738 118.379 202.211 119.646 201.275 120.58C200.338 121.515 199.07 122.04 197.747 122.04ZM45.0098 13.9623C44.6142 13.9529 44.2206 14.0225 43.8523 14.167C43.4839 14.3116 43.148 14.5283 42.8644 14.8043C42.5809 15.0803 42.3552 15.4102 42.2007 15.7745C42.0462 16.1389 41.966 16.5304 41.9648 16.9261V117.056C41.966 117.451 42.0463 117.842 42.2009 118.206C42.3555 118.57 42.5813 118.899 42.865 119.174C43.1488 119.449 43.4847 119.665 43.853 119.809C44.2214 119.952 44.6147 120.02 45.0098 120.01H197.747C198.136 120.011 198.521 119.935 198.88 119.788C199.24 119.64 199.567 119.422 199.842 119.148C200.117 118.874 200.336 118.548 200.485 118.189C200.634 117.83 200.711 117.445 200.711 117.056V16.9261C200.711 16.1401 200.399 15.3862 199.843 14.8304C199.287 14.2746 198.533 13.9623 197.747 13.9623H45.0098Z" fill="#303337"/>
<path d="M121.348 122.05C121.079 122.05 120.821 121.943 120.63 121.752C120.44 121.562 120.333 121.304 120.333 121.035V12.9473C120.333 12.6781 120.44 12.4199 120.63 12.2296C120.821 12.0392 121.079 11.9323 121.348 11.9323C121.617 11.9323 121.875 12.0392 122.066 12.2296C122.256 12.4199 122.363 12.6781 122.363 12.9473V121.035C122.363 121.304 122.256 121.562 122.066 121.752C121.875 121.943 121.617 122.05 121.348 122.05Z" fill="#303337"/>
<path d="M121.348 88.5344C117.086 88.5344 112.92 87.2706 109.376 84.9028C105.833 82.5351 103.071 79.1697 101.44 75.2322C99.8089 71.2947 99.3822 66.962 100.214 62.7821C101.045 58.6021 103.097 54.7625 106.111 51.7489C109.125 48.7353 112.964 46.683 117.144 45.8516C121.324 45.0201 125.657 45.4468 129.594 47.0778C133.532 48.7087 136.897 51.4707 139.265 55.0143C141.633 58.5579 142.896 62.7241 142.896 66.986C142.891 72.6993 140.619 78.1771 136.579 82.2171C132.539 86.257 127.061 88.529 121.348 88.5344ZM121.348 47.4777C117.487 47.4777 113.713 48.6226 110.503 50.7678C107.293 52.913 104.791 55.9619 103.314 59.5291C101.837 63.0962 101.451 67.0212 102.205 70.8077C102.959 74.5942 104.819 78.072 107.55 80.8013C110.281 83.5306 113.76 85.3888 117.546 86.1408C121.333 86.8927 125.258 86.5047 128.824 85.0259C132.391 83.547 135.438 81.0437 137.582 77.8326C139.725 74.6215 140.868 70.8468 140.866 66.986C140.861 61.8119 138.803 56.8515 135.143 53.1939C131.484 49.5362 126.522 47.4803 121.348 47.4777Z" fill="#303337"/>
<path d="M66.0203 91.2038H40.9498C40.6806 91.2038 40.4224 91.0969 40.2321 90.9066C40.0418 90.7162 39.9348 90.458 39.9348 90.1888V43.7932C39.9348 43.524 40.0418 43.2658 40.2321 43.0755C40.4224 42.8851 40.6806 42.7782 40.9498 42.7782H66.0203C66.2895 42.7782 66.5477 42.8851 66.738 43.0755C66.9284 43.2658 67.0353 43.524 67.0353 43.7932V90.1888C67.0353 90.458 66.9284 90.7162 66.738 90.9066C66.5477 91.0969 66.2895 91.2038 66.0203 91.2038ZM41.9953 89.1738H65.0053V44.8082H41.9648L41.9953 89.1738Z" fill="#303337"/>
<path d="M66.0204 86.9713C65.8214 86.9697 65.6273 86.9097 65.4621 86.7987C65.3225 86.7068 65.2077 86.5818 65.1281 86.4348C65.0484 86.2878 65.0062 86.1235 65.0054 85.9563V48.0257C65.0062 47.8586 65.0484 47.6942 65.1281 47.5472C65.2077 47.4002 65.3225 47.2752 65.4621 47.1833C65.6001 47.0924 65.7583 47.0365 65.9228 47.0206C66.0873 47.0047 66.2532 47.0292 66.4061 47.0919C70.3457 48.7184 73.7139 51.4776 76.0839 55.0201C78.4539 58.5626 79.7191 62.7288 79.7191 66.991C79.7191 71.2532 78.4539 75.4194 76.0839 78.9619C73.7139 82.5044 70.3457 85.2636 66.4061 86.8901C66.2841 86.9421 66.153 86.9697 66.0204 86.9713ZM67.0354 49.6091V84.3729C70.2409 82.7395 72.9324 80.2515 74.8121 77.1839C76.6919 74.1164 77.6868 70.5887 77.6868 66.991C77.6868 63.3933 76.6919 59.8657 74.8121 56.7981C72.9324 53.7305 70.2409 51.2425 67.0354 49.6091Z" fill="#303337"/>
<path d="M201.726 91.2038H176.676C176.406 91.2038 176.148 91.0969 175.958 90.9066C175.768 90.7162 175.661 90.458 175.661 90.1888V43.7932C175.661 43.524 175.768 43.2658 175.958 43.0755C176.148 42.8851 176.406 42.7782 176.676 42.7782H201.726C201.995 42.7782 202.253 42.8851 202.444 43.0755C202.634 43.2658 202.741 43.524 202.741 43.7932V90.1888C202.741 90.458 202.634 90.7162 202.444 90.9066C202.253 91.0969 201.995 91.2038 201.726 91.2038ZM177.691 89.1738H200.711V44.8082H177.691V89.1738Z" fill="#303337"/>
<path d="M176.676 86.9713C176.543 86.9697 176.412 86.9421 176.29 86.8901C172.351 85.2615 168.984 82.5009 166.615 78.9578C164.246 75.4146 162.981 71.2482 162.981 66.9859C162.981 62.7237 164.246 58.5572 166.615 55.014C168.984 51.4709 172.351 48.7103 176.29 47.0818C176.445 47.0187 176.613 46.9949 176.78 47.0127C176.946 47.0304 177.106 47.089 177.244 47.1833C177.382 47.2764 177.495 47.4019 177.573 47.5488C177.65 47.6957 177.691 47.8594 177.691 48.0257V85.9563C177.691 86.2255 177.584 86.4836 177.393 86.674C177.203 86.8643 176.945 86.9713 176.676 86.9713ZM175.661 49.6091C172.455 51.2425 169.764 53.7305 167.884 56.7981C166.004 59.8656 165.009 63.3933 165.009 66.991C165.009 70.5887 166.004 74.1163 167.884 77.1839C169.764 80.2515 172.455 82.7395 175.661 84.3729V49.6091Z" fill="#303337"/>
<path d="M201.726 111.494V117.056C201.723 118.109 201.303 119.119 200.557 119.863C199.811 120.607 198.801 121.025 197.747 121.025H192.185C192.188 118.496 193.194 116.072 194.983 114.285C196.772 112.498 199.197 111.494 201.726 111.494Z" fill="#FEC311"/>
<path d="M197.747 122.04H192.185C191.916 122.04 191.658 121.933 191.467 121.742C191.277 121.552 191.17 121.294 191.17 121.025C191.178 118.235 192.287 115.562 194.257 113.587C196.226 111.612 198.896 110.495 201.685 110.479C201.952 110.48 202.207 110.586 202.396 110.773C202.492 110.867 202.568 110.979 202.62 111.103C202.673 111.227 202.7 111.359 202.7 111.494V117.056C202.698 118.372 202.176 119.633 201.248 120.566C200.321 121.499 199.063 122.029 197.747 122.04ZM193.291 120.01H197.747C198.136 120.011 198.521 119.935 198.881 119.788C199.24 119.64 199.567 119.422 199.842 119.148C200.118 118.874 200.336 118.548 200.485 118.189C200.634 117.83 200.711 117.445 200.711 117.056V112.6C198.828 112.839 197.078 113.696 195.735 115.037C194.392 116.378 193.533 118.127 193.291 120.01Z" fill="#303337"/>
<path d="M201.726 16.9261V22.4883C199.201 22.4803 196.782 21.4715 194.999 19.6831C193.216 17.8947 192.215 15.4725 192.215 12.9473H197.747C198.802 12.95 199.812 13.3701 200.558 14.1156C201.303 14.8612 201.723 15.8717 201.726 16.9261Z" fill="#FEC311"/>
<path d="M201.726 23.5033C198.928 23.4979 196.246 22.3841 194.268 20.4056C192.289 18.4271 191.175 15.7453 191.17 12.9473C191.17 12.6781 191.277 12.4199 191.467 12.2296C191.658 12.0392 191.916 11.9323 192.185 11.9323H197.717C199.04 11.935 200.309 12.462 201.245 13.3979C202.181 14.3339 202.708 15.6025 202.71 16.9261V22.4883C202.71 22.6226 202.683 22.7554 202.63 22.8792C202.578 23.0029 202.502 23.115 202.406 23.209C202.224 23.3893 201.982 23.4944 201.726 23.5033ZM193.291 13.9623C193.524 15.8521 194.38 17.6104 195.724 18.9596C197.067 20.3087 198.822 21.1718 200.711 21.4124V16.9261C200.711 16.1401 200.399 15.3862 199.843 14.8304C199.287 14.2746 198.533 13.9623 197.747 13.9623H193.291Z" fill="#303337"/>
<path d="M50.4807 121.025H45.0098C44.4878 121.026 43.9706 120.924 43.488 120.725C43.0053 120.527 42.5666 120.234 42.197 119.866C41.8274 119.497 41.5341 119.059 41.3341 118.577C41.134 118.095 41.031 117.578 41.031 117.056V111.494C43.5446 111.515 45.948 112.529 47.7179 114.314C49.4878 116.099 50.4807 118.511 50.4807 121.025Z" fill="#FEC311"/>
<path d="M50.4807 122.04H45.0098C44.354 122.041 43.7044 121.913 43.098 121.663C42.4916 121.414 41.9403 121.047 41.4757 120.584C41.011 120.121 40.6421 119.572 40.3899 118.966C40.1377 118.361 40.0072 117.712 40.0059 117.056V111.494C40.0064 111.359 40.0336 111.227 40.0859 111.103C40.1382 110.979 40.2144 110.867 40.3103 110.773C40.4994 110.586 40.7546 110.48 41.0209 110.479C43.81 110.495 46.4799 111.612 48.4494 113.587C50.4188 115.562 51.5283 118.235 51.5362 121.025C51.5364 121.161 51.5088 121.297 51.4553 121.423C51.4018 121.548 51.3234 121.662 51.2248 121.757C51.1262 121.852 51.0094 121.926 50.8815 121.974C50.7537 122.023 50.6173 122.045 50.4807 122.04ZM41.9648 112.6V117.086C41.97 117.479 42.0533 117.867 42.2097 118.227C42.3661 118.587 42.5925 118.913 42.8758 119.185C43.1591 119.457 43.4937 119.67 43.86 119.811C44.2264 119.953 44.6172 120.02 45.0098 120.01H49.4555C49.2109 118.117 48.341 116.359 46.984 115.017C45.6269 113.675 43.8604 112.824 41.9648 112.6Z" fill="#303337"/>
<path d="M50.5215 12.9473C50.5215 15.4778 49.5163 17.9046 47.727 19.6939C45.9377 21.4831 43.5109 22.4883 40.9805 22.4883V16.9261C40.9804 16.3993 41.085 15.8778 41.2881 15.3917C41.4912 14.9056 41.7889 14.4647 42.1637 14.0946C42.5386 13.7245 42.9832 13.4325 43.4718 13.2355C43.9604 13.0386 44.4833 12.9406 45.01 12.9473H50.5215Z" fill="#FEC311"/>
<path d="M40.9498 23.5033C40.6806 23.5033 40.4224 23.3964 40.2321 23.206C40.0418 23.0157 39.9348 22.7575 39.9348 22.4883V16.9261C39.9361 16.2638 40.0688 15.6084 40.3253 14.9978C40.5818 14.3872 40.957 13.8335 41.4291 13.369C41.9012 12.9045 42.4607 12.5383 43.0754 12.2917C43.6901 12.0451 44.3476 11.9229 45.0098 11.9323H50.572C50.8412 11.9323 51.0994 12.0393 51.2897 12.2296C51.4801 12.42 51.587 12.6781 51.587 12.9473C51.5857 14.34 51.3091 15.7188 50.7731 17.0042C50.237 18.2896 49.4521 19.4564 48.4636 20.4374C47.475 21.4184 46.3023 22.1943 45.0128 22.7205C43.7233 23.2466 42.3425 23.5127 40.9498 23.5033ZM44.9388 13.9623C44.1518 13.9623 43.3969 14.2743 42.8394 14.8298C42.282 15.3853 41.9675 16.1391 41.9648 16.9261V21.4124C43.8636 21.1871 45.6315 20.3299 46.9846 18.9788C48.3376 17.6276 49.1971 15.8608 49.4251 13.9623H44.9388Z" fill="#303337"/>
<path d="M94.8159 97.9637C94.9018 103.444 93.8966 108.886 91.8589 113.974C89.8211 119.062 86.7915 123.694 82.9465 127.6C79.1015 131.505 74.5179 134.607 69.4625 136.724C64.4072 138.842 58.9811 139.932 53.5003 139.932C48.0195 139.932 42.5935 138.842 37.5382 136.724C32.4828 134.607 27.8992 131.505 24.0541 127.6C20.2091 123.694 17.1795 119.062 15.1418 113.974C13.1041 108.886 12.0989 103.444 12.1848 97.9637C12.1848 97.1416 12.1848 96.3296 12.266 95.5176C12.9045 85.0147 17.5267 75.1513 25.1895 67.9402C32.8523 60.729 42.9781 56.7138 53.5003 56.7138C64.0226 56.7138 74.1483 60.729 81.8111 67.9402C89.4739 75.1513 94.0962 85.0147 94.7347 95.5176C94.7449 96.36 94.8159 97.1416 94.8159 97.9637Z" fill="white"/>
<path d="M53.5054 140.299C47.9456 140.302 42.4397 139.209 37.3027 137.082C32.1656 134.955 27.4982 131.837 23.5673 127.905C19.6363 123.973 16.5189 119.305 14.3934 114.167C12.2679 109.03 11.1759 103.524 11.1799 97.9637C11.1799 97.1619 11.1799 96.3397 11.251 95.4567C11.8976 84.6899 16.6304 74.5762 24.4827 67.1814C32.3349 59.7866 42.7142 55.6686 53.5004 55.6686C64.2865 55.6686 74.6658 59.7866 82.5181 67.1814C90.3703 74.5762 95.1031 84.6899 95.7497 95.4567C95.7497 96.3397 95.8309 97.1619 95.8309 97.9637C95.8336 103.523 94.7407 109.029 92.6147 114.166C90.4887 119.303 87.3713 123.97 83.4407 127.902C79.51 131.834 74.8431 134.952 69.7066 137.079C64.5702 139.207 59.0649 140.301 53.5054 140.299ZM53.5054 57.6784C43.2333 57.6733 33.3473 61.5934 25.8701 68.6367C18.3928 75.68 13.8893 85.3142 13.281 95.5684C13.281 96.4209 13.2099 97.2025 13.2099 97.9637C13.2099 108.651 17.4553 118.9 25.0122 126.457C32.5691 134.014 42.8184 138.259 53.5054 138.259C64.1925 138.259 74.4418 134.014 81.9987 126.457C89.5555 118.9 93.8009 108.651 93.8009 97.9637C93.8009 97.2025 93.8009 96.4209 93.7197 95.5684C93.1163 85.3142 88.6157 75.6787 81.1396 68.6347C73.6634 61.5906 63.7773 57.671 53.5054 57.6784Z" fill="#303337"/>
<path d="M53.5053 83.9263L38.5239 94.8071L44.2485 112.407H62.752L68.4766 94.8071L53.5053 83.9263Z" fill="#303337"/>
<path d="M62.7522 113.422H44.2487C44.0347 113.422 43.8262 113.354 43.653 113.228C43.4798 113.103 43.3508 112.925 43.2845 112.722L37.5599 95.1217C37.4939 94.9169 37.4947 94.6964 37.5622 94.4921C37.6297 94.2877 37.7604 94.1102 37.9354 93.985L52.9067 83.1042C53.0796 82.9795 53.2873 82.9124 53.5005 82.9124C53.7136 82.9124 53.9214 82.9795 54.0942 83.1042L69.0757 93.985C69.2489 94.1115 69.3775 94.2897 69.4432 94.4939C69.5088 94.6982 69.5081 94.918 69.4411 95.1217L63.7164 112.722C63.6501 112.925 63.5211 113.103 63.3479 113.228C63.1747 113.354 62.9662 113.422 62.7522 113.422ZM44.9897 111.392H62.0214L67.2791 95.1522L53.5055 85.1951L39.7218 95.203L44.9897 111.392Z" fill="#303337"/>
<path d="M70.3241 60.226L53.5056 72.406L36.687 60.226C41.9829 57.8772 47.7121 56.6637 53.5056 56.6637C59.299 56.6637 65.0282 57.8772 70.3241 60.226Z" fill="#303337"/>
<path d="M53.5055 73.4616C53.2912 73.4584 53.0826 73.3913 52.9067 73.2688L36.0881 61.0888C35.9439 60.9847 35.8296 60.8447 35.7566 60.6826C35.6835 60.5205 35.6544 60.342 35.672 60.1651C35.6906 59.9875 35.7558 59.818 35.861 59.6736C35.9661 59.5293 36.1075 59.4152 36.2708 59.343C41.7027 56.9276 47.5811 55.6795 53.5258 55.6795C59.4705 55.6795 65.349 56.9276 70.7808 59.343C70.9423 59.4166 71.0816 59.5313 71.1849 59.6755C71.2882 59.8198 71.3518 59.9886 71.3695 60.1651C71.3883 60.3411 71.3606 60.5189 71.2894 60.681C71.2182 60.843 71.1059 60.9836 70.9635 61.0888L54.145 73.2688C53.9577 73.3993 53.7337 73.4668 53.5055 73.4616ZM38.7373 60.4696L53.5055 71.188L68.2738 60.4696C58.7799 56.7483 48.2311 56.7483 38.7373 60.4696Z" fill="#303337"/>
<path d="M27.9885 88.5141L12.2661 95.5176C12.8832 84.8614 17.614 74.8612 25.4611 67.6254L25.7961 67.7066L27.958 88.24L27.9885 88.5141Z" fill="#303337"/>
<path d="M12.2661 96.5326C12.1275 96.5329 11.9904 96.5047 11.8631 96.4499C11.7358 96.3952 11.6211 96.3149 11.526 96.2141C11.4309 96.1133 11.3574 95.9941 11.3102 95.8639C11.2629 95.7336 11.2428 95.595 11.2511 95.4567C11.884 84.5519 16.7321 74.3205 24.7709 66.9251C24.892 66.8134 25.0384 66.7328 25.1976 66.6904C25.3567 66.648 25.5238 66.6449 25.6844 66.6815L26.0193 66.7525C26.2272 66.7981 26.4155 66.9079 26.5576 67.0664C26.6997 67.2248 26.7883 67.4239 26.811 67.6356L28.9933 88.4532C29.0123 88.6625 28.9659 88.8726 28.8605 89.0544C28.755 89.2362 28.5957 89.3808 28.4046 89.4682L12.6823 96.4717C12.5493 96.5208 12.4075 96.5416 12.2661 96.5326ZM24.9637 69.5133C18.4086 76.0506 14.326 84.6607 13.4131 93.8733L26.9024 87.8645L24.9637 69.5133Z" fill="#303337"/>
<path d="M94.7448 95.5176L79.0225 88.5141V88.2401L81.1844 67.7066L81.5194 67.6356C89.3789 74.8613 94.1214 84.8595 94.7448 95.5176Z" fill="#303337"/>
<path d="M94.7449 96.5326C94.6045 96.5327 94.4658 96.5015 94.3389 96.4412L78.6165 89.4377C78.4235 89.3519 78.2621 89.208 78.1547 89.0261C78.0474 88.8441 77.9995 88.6332 78.0177 88.4227V88.1487L80.1898 67.6051C80.2131 67.3921 80.3033 67.192 80.4473 67.0333C80.5914 66.8747 80.7819 66.7658 80.9916 66.722L81.3266 66.651C81.4849 66.6192 81.6486 66.6256 81.8039 66.6697C81.9593 66.7139 82.1018 66.7944 82.2198 66.9047C90.2761 74.2979 95.1332 84.5402 95.7599 95.4567C95.7682 95.595 95.7481 95.7336 95.7008 95.8638C95.6536 95.9941 95.5801 96.1133 95.485 96.2141C95.3899 96.3149 95.2752 96.3952 95.1479 96.4499C95.0206 96.5047 94.8835 96.5328 94.7449 96.5326ZM80.1086 87.8848L93.5979 93.8936C92.6907 84.6794 88.6073 76.0675 82.0473 69.5336L80.1086 87.8848Z" fill="#303337"/>
<path d="M89.8525 117.604C84.7778 126.987 76.2765 134.048 66.1218 137.315L70.0194 119.563H70.2529L89.8525 117.604Z" fill="#303337"/>
<path d="M66.1218 138.33C65.8703 138.33 65.6279 138.236 65.4418 138.066C65.3025 137.942 65.2003 137.781 65.1466 137.602C65.0928 137.423 65.0896 137.232 65.1373 137.051L69.0247 119.299C69.0715 119.088 69.1843 118.898 69.3467 118.755C69.5092 118.613 69.7129 118.526 69.9281 118.507H70.1615L89.751 116.569C89.9361 116.546 90.1238 116.575 90.2935 116.652C90.4633 116.729 90.6085 116.851 90.7134 117.005C90.8182 117.159 90.8786 117.339 90.8879 117.526C90.8972 117.712 90.855 117.897 90.766 118.061C85.5881 127.688 76.8716 134.927 66.4568 138.249C66.3521 138.3 66.238 138.327 66.1218 138.33ZM70.8517 120.507L67.5022 135.732C76.0647 132.576 83.294 126.593 87.9951 118.771L70.8517 120.507Z" fill="#303337"/>
<path d="M40.9498 137.346C30.8099 134.104 22.3079 127.081 17.209 117.736L36.7883 119.421V119.482L40.9498 137.346Z" fill="#303337"/>
<path d="M40.9498 138.361C40.8454 138.375 40.7395 138.375 40.6351 138.361C30.2167 135.073 21.4825 127.868 16.2751 118.264C16.1861 118.109 16.1392 117.934 16.1392 117.756C16.1392 117.578 16.1861 117.403 16.2751 117.249C16.3752 117.095 16.5148 116.972 16.6791 116.892C16.8435 116.811 17.0266 116.777 17.2089 116.792L36.7985 118.487C37.0123 118.505 37.215 118.59 37.3773 118.731C37.5396 118.871 37.6532 119.06 37.7018 119.269L41.9648 137.112C42.0137 137.292 42.0121 137.482 41.9601 137.661C41.9082 137.84 41.808 138.001 41.6705 138.127C41.4694 138.295 41.2111 138.379 40.9498 138.361ZM19.0562 118.913C23.775 126.701 31.0014 132.653 39.5491 135.793L35.9661 120.375L19.0562 118.913Z" fill="#303337"/>
<path d="M38.5241 95.8221C38.3375 95.8208 38.1549 95.7682 37.9963 95.6699L24.0502 87.0119C23.8513 86.8582 23.7165 86.6363 23.6719 86.389C23.6273 86.1416 23.676 85.8865 23.8086 85.6731C23.9412 85.4596 24.1484 85.3029 24.3899 85.2334C24.6314 85.1638 24.8901 85.1863 25.1159 85.2966L39.062 93.9443C39.2499 94.0608 39.3946 94.2353 39.4742 94.4415C39.5538 94.6477 39.564 94.8742 39.5031 95.0866C39.4422 95.2991 39.3137 95.4859 39.137 95.6186C38.9603 95.7514 38.7451 95.8228 38.5241 95.8221Z" fill="#303337"/>
<path d="M68.4565 95.8221C68.2355 95.8228 68.0203 95.7514 67.8436 95.6186C67.6669 95.4859 67.5384 95.2991 67.4775 95.0866C67.4166 94.8742 67.4268 94.6477 67.5064 94.4415C67.586 94.2353 67.7307 94.0608 67.9186 93.9443L81.8646 85.2965C81.977 85.2097 82.1064 85.1474 82.2443 85.1137C82.3822 85.08 82.5257 85.0756 82.6655 85.1008C82.8052 85.1261 82.9381 85.1803 83.0556 85.2601C83.173 85.3399 83.2725 85.4434 83.3474 85.5641C83.4223 85.6847 83.4711 85.8197 83.4906 85.9603C83.5101 86.101 83.4999 86.2442 83.4606 86.3806C83.4213 86.5171 83.3538 86.6438 83.2625 86.7525C83.1711 86.8612 83.058 86.9496 82.9304 87.0119L68.9843 95.6698C68.8257 95.7681 68.6431 95.8208 68.4565 95.8221Z" fill="#303337"/>
<path d="M53.5055 87.8036C53.2363 87.8036 52.9781 87.6966 52.7878 87.5063C52.5974 87.3159 52.4905 87.0578 52.4905 86.7886V72.4466C52.4905 72.1774 52.5974 71.9193 52.7878 71.7289C52.9781 71.5386 53.2363 71.4316 53.5055 71.4316C53.7747 71.4316 54.0328 71.5386 54.2232 71.7289C54.4135 71.9193 54.5205 72.1774 54.5205 72.4466V86.7886C54.5205 87.0578 54.4135 87.3159 54.2232 87.5063C54.0328 87.6966 53.7747 87.8036 53.5055 87.8036Z" fill="#303337"/>
<path d="M34.0173 123.166C33.8153 123.165 33.6182 123.104 33.4511 122.991C33.284 122.877 33.1545 122.717 33.0793 122.529C33.0041 122.342 32.9866 122.136 33.0289 121.938C33.0712 121.741 33.1715 121.561 33.317 121.42L43.5482 111.666C43.7433 111.48 44.0043 111.38 44.2736 111.387C44.543 111.393 44.7987 111.507 44.9844 111.702C45.1701 111.897 45.2707 112.158 45.2641 112.427C45.2574 112.697 45.144 112.952 44.9489 113.138L34.7177 122.892C34.5279 123.07 34.2772 123.168 34.0173 123.166Z" fill="#303337"/>
<path d="M72.9936 123.166C72.7336 123.168 72.483 123.07 72.2932 122.892L62.0518 113.138C61.8567 112.952 61.7433 112.697 61.7366 112.427C61.73 112.158 61.8306 111.897 62.0163 111.702C62.2021 111.507 62.4577 111.393 62.7271 111.387C62.9964 111.38 63.2574 111.48 63.4525 111.666L73.6939 121.42C73.8829 121.611 73.9891 121.868 73.9891 122.136C73.9891 122.404 73.8829 122.661 73.6939 122.852C73.5106 123.044 73.2592 123.157 72.9936 123.166Z" fill="#303337"/>
<path d="M154.275 103.069C157.414 103.069 159.959 100.524 159.959 97.3852C159.959 94.246 157.414 91.7012 154.275 91.7012C151.135 91.7012 148.591 94.246 148.591 97.3852C148.591 100.524 151.135 103.069 154.275 103.069Z" fill="#FEC311"/>
<path d="M154.275 104.084C152.947 104.084 151.65 103.69 150.546 102.953C149.443 102.215 148.583 101.167 148.075 99.9402C147.568 98.7136 147.435 97.3641 147.695 96.0624C147.955 94.7607 148.595 93.5653 149.534 92.6274C150.473 91.6895 151.67 91.0513 152.972 90.7936C154.274 90.5359 155.623 90.6702 156.849 91.1795C158.075 91.6889 159.122 92.5504 159.858 93.655C160.594 94.7597 160.986 96.0578 160.984 97.3852C160.981 99.1628 160.273 100.867 159.015 102.123C157.757 103.379 156.052 104.084 154.275 104.084ZM154.275 92.706C153.349 92.706 152.444 92.9805 151.675 93.4946C150.905 94.0088 150.306 94.7396 149.952 95.5946C149.597 96.4496 149.505 97.3904 149.685 98.2981C149.866 99.2057 150.312 100.039 150.966 100.694C151.62 101.348 152.454 101.794 153.362 101.974C154.269 102.155 155.21 102.062 156.065 101.708C156.92 101.354 157.651 100.754 158.165 99.9848C158.679 99.2153 158.954 98.3106 158.954 97.3852C158.954 96.1442 158.461 94.9541 157.583 94.0765C156.706 93.199 155.516 92.706 154.275 92.706Z" fill="#303337"/>
<path d="M162.933 46.2799C166.072 46.2799 168.617 43.7351 168.617 40.5959C168.617 37.4567 166.072 34.9119 162.933 34.9119C159.793 34.9119 157.249 37.4567 157.249 40.5959C157.249 43.7351 159.793 46.2799 162.933 46.2799Z" fill="#FEC311"/>
<path d="M162.933 47.3051C161.606 47.3051 160.308 46.9116 159.205 46.1744C158.102 45.4372 157.242 44.3893 156.734 43.1634C156.226 41.9375 156.093 40.5885 156.352 39.287C156.611 37.9856 157.25 36.7901 158.188 35.8518C159.127 34.9136 160.322 34.2746 161.624 34.0157C162.925 33.7568 164.274 33.8897 165.5 34.3975C166.726 34.9053 167.774 35.7652 168.511 36.8685C169.248 37.9718 169.642 39.269 169.642 40.5959C169.642 42.3753 168.935 44.0818 167.677 45.34C166.418 46.5982 164.712 47.3051 162.933 47.3051ZM162.933 35.9269C162.007 35.9269 161.102 36.2016 160.332 36.7162C159.562 37.2308 158.962 37.9622 158.609 38.8178C158.255 39.6734 158.163 40.6147 158.344 41.5227C158.525 42.4306 158.972 43.2643 159.627 43.9183C160.283 44.5723 161.118 45.0172 162.026 45.1966C162.934 45.376 163.875 45.2818 164.73 44.9261C165.585 44.5704 166.315 43.9691 166.828 43.1983C167.341 42.4275 167.614 41.5218 167.612 40.5959C167.609 39.3567 167.115 38.1692 166.238 37.2938C165.36 36.4185 164.172 35.9269 162.933 35.9269Z" fill="#303337"/>
<path d="M97.8407 40.5959C100.98 40.5959 103.525 38.0511 103.525 34.9119C103.525 31.7727 100.98 29.2279 97.8407 29.2279C94.7016 29.2279 92.1567 31.7727 92.1567 34.9119C92.1567 38.0511 94.7016 40.5959 97.8407 40.5959Z" fill="#FC5252"/>
<path d="M97.8406 41.6109C96.5128 41.6129 95.2143 41.2209 94.1094 40.4845C93.0045 39.748 92.143 38.7003 91.634 37.4739C91.1249 36.2476 90.9912 34.8978 91.2498 33.5954C91.5083 32.293 92.1475 31.0966 93.0864 30.1577C94.0253 29.2188 95.2217 28.5796 96.5241 28.3211C97.8265 28.0625 99.1763 28.1962 100.403 28.7053C101.629 29.2143 102.677 30.0758 103.413 31.1807C104.15 32.2856 104.542 33.5841 104.54 34.9119C104.534 36.687 103.827 38.3878 102.572 39.6429C101.316 40.8981 99.6157 41.6056 97.8406 41.6109ZM97.8406 30.2328C96.9148 30.2308 96.0091 30.5035 95.2383 31.0164C94.4675 31.5293 93.8661 32.2594 93.5104 33.1142C93.1547 33.9691 93.0606 34.9102 93.24 35.8185C93.4194 36.7269 93.8642 37.5616 94.5182 38.217C95.1722 38.8724 96.0059 39.319 96.9139 39.5004C97.8218 39.6818 98.7632 39.5897 99.6188 39.2359C100.474 38.882 101.206 38.2823 101.72 37.5126C102.235 36.7429 102.51 35.8378 102.51 34.9119C102.507 33.6735 102.015 32.4864 101.14 31.6098C100.265 30.7332 99.079 30.2381 97.8406 30.2328Z" fill="#303337"/>
<path d="M154.275 69.8381C157.414 69.8381 159.959 67.2933 159.959 64.1541C159.959 61.0149 157.414 58.4701 154.275 58.4701C151.135 58.4701 148.591 61.0149 148.591 64.1541C148.591 67.2933 151.135 69.8381 154.275 69.8381Z" fill="#FC5252"/>
<path d="M154.275 70.8531C152.947 70.8531 151.65 70.4593 150.546 69.7216C149.443 68.984 148.583 67.9356 148.075 66.709C147.568 65.4825 147.435 64.133 147.695 62.8313C147.955 61.5296 148.595 60.3341 149.534 59.3962C150.473 58.4583 151.67 57.8202 152.972 57.5624C154.274 57.3047 155.623 57.439 156.849 57.9484C158.075 58.4577 159.122 59.3192 159.858 60.4239C160.594 61.5285 160.986 62.8267 160.984 64.1541C160.981 65.9317 160.273 67.6356 159.015 68.8916C157.757 70.1476 156.052 70.8531 154.275 70.8531ZM154.275 59.4749C153.349 59.4749 152.444 59.7493 151.675 60.2635C150.905 60.7776 150.306 61.5084 149.952 62.3634C149.597 63.2184 149.505 64.1593 149.685 65.0669C149.866 65.9746 150.312 66.8083 150.966 67.4627C151.62 68.1171 152.454 68.5628 153.362 68.7433C154.269 68.9239 155.21 68.8312 156.065 68.477C156.92 68.1229 157.651 67.5231 158.165 66.7537C158.679 65.9842 158.954 65.0795 158.954 64.1541C158.954 63.5396 158.833 62.9311 158.598 62.3634C158.362 61.7957 158.018 61.2799 157.583 60.8454C157.149 60.4109 156.633 60.0662 156.065 59.8311C155.498 59.5959 154.889 59.4749 154.275 59.4749Z" fill="#303337"/>
<path d="M120.404 79.0644C123.543 79.0644 126.088 76.5196 126.088 73.3804C126.088 70.2412 123.543 67.6964 120.404 67.6964C117.265 67.6964 114.72 70.2412 114.72 73.3804C114.72 76.5196 117.265 79.0644 120.404 79.0644Z" fill="#FEC311"/>
<path d="M120.404 80.12C119.077 80.12 117.78 79.7265 116.677 78.9893C115.573 78.2521 114.713 77.2043 114.206 75.9784C113.698 74.7524 113.565 73.4034 113.824 72.102C114.083 70.8005 114.722 69.6051 115.66 68.6668C116.598 67.7285 117.794 67.0895 119.095 66.8306C120.397 66.5718 121.746 66.7046 122.971 67.2124C124.197 67.7202 125.245 68.5802 125.982 69.6835C126.72 70.7868 127.113 72.0839 127.113 73.4109C127.11 75.1894 126.403 76.8944 125.145 78.152C123.887 79.4096 122.183 80.1173 120.404 80.12ZM120.404 68.7419C119.478 68.7419 118.573 69.0166 117.803 69.5312C117.034 70.0458 116.434 70.7772 116.08 71.6327C115.726 72.4883 115.634 73.4297 115.815 74.3376C115.997 75.2456 116.444 76.0793 117.099 76.7333C117.754 77.3873 118.589 77.8321 119.497 78.0115C120.406 78.1909 121.347 78.0968 122.202 77.7411C123.056 77.3854 123.787 76.784 124.299 76.0132C124.812 75.2424 125.085 74.3367 125.083 73.4109C125.086 72.7947 124.967 72.1841 124.733 71.614C124.499 71.044 124.155 70.5257 123.72 70.0891C123.285 69.6524 122.768 69.306 122.199 69.0695C121.63 68.8331 121.02 68.7114 120.404 68.7114V68.7419Z" fill="#303337"/>
<path d="M163.998 94.4214C163.729 94.4604 163.455 94.3909 163.237 94.2282C163.019 94.0655 162.875 93.8228 162.836 93.5536C162.797 93.2844 162.867 93.0107 163.029 92.7928C163.192 92.5748 163.435 92.4304 163.704 92.3914C163.856 92.3914 179.7 87.3164 188.277 68.9449C188.395 68.7064 188.601 68.5235 188.852 68.4356C189.103 68.3476 189.378 68.3617 189.619 68.4747C189.86 68.5878 190.046 68.7907 190.139 69.04C190.232 69.2893 190.223 69.5649 190.114 69.8077C181.142 88.9709 164.983 94.1677 164.293 94.3301C164.2 94.3766 164.101 94.4075 163.998 94.4214Z" fill="#303337"/>
<path d="M192.185 74.3955C191.949 74.4007 191.718 74.3235 191.533 74.1772C191.348 74.0308 191.219 73.8245 191.17 73.5936L189.881 67.6356L185.273 69.2596C185.018 69.3484 184.739 69.3325 184.496 69.2155C184.254 69.0984 184.068 68.8897 183.979 68.6353C183.89 68.381 183.906 68.1017 184.023 67.859C184.14 67.6163 184.349 67.4301 184.603 67.3412L190.297 65.3112C190.433 65.2633 190.577 65.2449 190.721 65.2572C190.864 65.2694 191.004 65.3121 191.129 65.3823C191.255 65.4523 191.364 65.5483 191.45 65.6638C191.536 65.7792 191.596 65.9116 191.627 66.0522L193.149 73.1572C193.207 73.4196 193.158 73.6941 193.013 73.9205C192.869 74.1469 192.64 74.3068 192.378 74.365L192.185 74.3955Z" fill="#303337"/>
<path d="M114.943 23.5033C114.674 23.5195 114.41 23.428 114.208 23.2491C114.006 23.0702 113.884 22.8184 113.868 22.5492C113.851 22.28 113.943 22.0154 114.122 21.8137C114.301 21.6119 114.552 21.4895 114.822 21.4733C114.822 21.4733 115.38 21.4023 116.405 21.3414C116.674 21.3414 116.932 21.4483 117.123 21.6387C117.313 21.829 117.42 22.0872 117.42 22.3564C117.421 22.6153 117.322 22.8647 117.145 23.0534C116.967 23.2421 116.724 23.3558 116.466 23.3714C115.542 23.4221 115.035 23.483 115.015 23.483L114.943 23.5033Z" fill="#303337"/>
<path d="M149.555 31.1564C149.385 31.1545 149.218 31.1127 149.068 31.0346C148.235 30.5813 147.403 30.1448 146.571 29.7253C146.441 29.6731 146.324 29.5947 146.226 29.4951C146.129 29.3955 146.052 29.2769 146.003 29.1465C145.953 29.0161 145.93 28.8769 145.937 28.7375C145.943 28.5981 145.978 28.4615 146.04 28.3362C146.101 28.211 146.188 28.0998 146.295 28.0096C146.401 27.9194 146.525 27.8521 146.659 27.8119C146.792 27.7718 146.933 27.7596 147.071 27.7762C147.21 27.7929 147.344 27.8379 147.464 27.9084C148.327 28.3347 149.19 28.7813 150.052 29.2584C150.247 29.3688 150.4 29.5404 150.487 29.7467C150.574 29.9529 150.59 30.1822 150.534 30.3987C150.477 30.6153 150.35 30.807 150.173 30.944C149.996 31.0811 149.779 31.1558 149.555 31.1564ZM144.48 28.6291C144.341 28.6267 144.203 28.5992 144.074 28.5479C143.201 28.1622 142.328 27.8069 141.465 27.5329C141.214 27.4373 141.01 27.2457 140.9 27.0001C140.789 26.7546 140.781 26.4752 140.877 26.2235C140.972 25.9718 141.164 25.7684 141.409 25.658C141.655 25.5476 141.934 25.5393 142.186 25.6348C143.079 25.9698 143.983 26.3352 144.886 26.731C145.009 26.784 145.12 26.8608 145.213 26.9569C145.306 27.053 145.38 27.1666 145.429 27.2911C145.478 27.4157 145.502 27.5487 145.499 27.6825C145.496 27.8163 145.467 27.9483 145.414 28.0708C145.327 28.2429 145.193 28.3868 145.028 28.4857C144.863 28.5845 144.673 28.6343 144.48 28.6291ZM139.121 26.5991C139.017 26.6186 138.91 26.6186 138.806 26.5991C137.893 26.3047 136.989 26.0205 136.106 25.7769C135.978 25.7417 135.857 25.6815 135.752 25.5996C135.646 25.5178 135.558 25.416 135.492 25.3C135.426 25.1841 135.384 25.0562 135.367 24.9239C135.351 24.7915 135.36 24.6571 135.396 24.5285C135.431 24.3987 135.491 24.2772 135.574 24.171C135.657 24.0648 135.759 23.9761 135.876 23.91C135.993 23.8439 136.123 23.8017 136.256 23.7859C136.39 23.7701 136.525 23.781 136.654 23.818C137.568 24.0819 138.502 24.3661 139.435 24.6706C139.563 24.7119 139.681 24.7782 139.783 24.8655C139.885 24.9529 139.969 25.0596 140.029 25.1795C140.09 25.2994 140.126 25.4301 140.135 25.564C140.145 25.6979 140.128 25.8324 140.085 25.9596C140.002 26.1565 139.86 26.3222 139.678 26.4334C139.495 26.5445 139.283 26.5954 139.07 26.5788L139.121 26.5991ZM133.599 25.0461C133.522 25.056 133.443 25.056 133.366 25.0461C132.422 24.833 131.498 24.6401 130.605 24.4676C130.336 24.4178 130.097 24.2631 129.942 24.0375C129.787 23.812 129.728 23.534 129.778 23.2648C129.827 22.9956 129.982 22.7572 130.208 22.6021C130.433 22.447 130.711 22.3878 130.98 22.4376C131.904 22.6203 132.858 22.8131 133.833 23.0466C134.102 23.0775 134.348 23.2142 134.516 23.4264C134.685 23.6387 134.762 23.9091 134.731 24.1783C134.7 24.4475 134.563 24.6934 134.351 24.8618C134.139 25.0303 133.868 25.1075 133.599 25.0766V25.0461ZM127.956 24.0311H127.814C126.799 23.889 125.895 23.7774 125.012 23.6962C124.879 23.6835 124.749 23.6445 124.631 23.5814C124.512 23.5183 124.408 23.4323 124.323 23.3285C124.238 23.2247 124.174 23.105 124.136 22.9765C124.097 22.848 124.085 22.7131 124.099 22.5797C124.127 22.3137 124.259 22.0696 124.466 21.9005C124.673 21.7313 124.939 21.6508 125.205 21.6763C126.129 21.7677 127.093 21.8793 128.098 22.0214C128.367 22.0403 128.618 22.1653 128.795 22.369C128.972 22.5726 129.061 22.8383 129.042 23.1075C129.023 23.3767 128.898 23.6274 128.694 23.8044C128.491 23.9814 128.225 24.0703 127.956 24.0514V24.0311ZM122.251 23.4729H122.15C121.196 23.4221 120.252 23.3917 119.328 23.3917C119.059 23.3917 118.801 23.2848 118.611 23.0944C118.42 22.9041 118.313 22.6459 118.313 22.3767C118.313 22.1075 118.42 21.8493 118.611 21.659C118.801 21.4686 119.059 21.3617 119.328 21.3617C120.282 21.3617 121.267 21.3617 122.251 21.4429C122.521 21.4429 122.779 21.5498 122.969 21.7402C123.16 21.9305 123.266 22.1887 123.266 22.4579C123.266 22.7271 123.16 22.9853 122.969 23.1756C122.779 23.366 122.521 23.4729 122.251 23.4729Z" fill="#303337"/>
<path d="M153.351 33.43C153.156 33.4295 152.966 33.3731 152.803 33.2676L151.585 32.415C151.368 32.268 151.217 32.0432 151.163 31.7874C151.108 31.5316 151.154 31.2645 151.292 31.042C151.429 30.8194 151.647 30.6585 151.9 30.5929C152.154 30.5272 152.422 30.5618 152.651 30.6895C153.09 30.9534 153.527 31.2275 153.96 31.5117C154.145 31.6309 154.285 31.8068 154.362 32.013C154.438 32.2192 154.445 32.4444 154.382 32.655C154.319 32.8655 154.189 33.05 154.013 33.1806C153.836 33.3112 153.621 33.3809 153.402 33.3793L153.351 33.43Z" fill="#303337"/>
<path d="M108.782 70.8531H108.6C100.599 69.4062 92.9908 66.2939 86.2697 61.7181C86.1623 61.6389 86.0716 61.5393 86.0027 61.4249C85.9339 61.3106 85.8882 61.1838 85.8684 61.0518C85.8486 60.9198 85.855 60.7852 85.8873 60.6557C85.9196 60.5262 85.9771 60.4044 86.0566 60.2971C86.1358 60.1897 86.2354 60.099 86.3497 60.0301C86.4641 59.9612 86.5909 59.9156 86.7229 59.8958C86.8548 59.876 86.9894 59.8824 87.1189 59.9147C87.2484 59.947 87.3703 60.0045 87.4776 60.084C93.957 64.4518 101.269 67.434 108.955 68.8434C109.224 68.869 109.472 69.0004 109.644 69.2089C109.817 69.4173 109.899 69.6856 109.874 69.9548C109.848 70.224 109.717 70.472 109.508 70.6443C109.3 70.8166 109.031 70.899 108.762 70.8734L108.782 70.8531Z" fill="#303337"/>
<path d="M106.326 74.3954C106.101 74.3943 105.882 74.3181 105.705 74.1789C105.527 74.0397 105.401 73.8454 105.346 73.6266C105.292 73.4079 105.311 73.1771 105.403 72.9708C105.494 72.7645 105.651 72.5943 105.849 72.4872L109.523 70.5181L106.834 64.5702C106.769 64.4476 106.73 64.3131 106.72 64.175C106.709 64.0368 106.727 63.898 106.772 63.7669C106.817 63.6359 106.888 63.5155 106.982 63.4131C107.075 63.3107 107.188 63.2285 107.315 63.1716C107.441 63.1147 107.578 63.0843 107.716 63.0821C107.855 63.08 107.992 63.1063 108.12 63.1594C108.248 63.2124 108.364 63.2911 108.46 63.3906C108.557 63.4901 108.632 63.6083 108.681 63.7379L111.726 70.5486C111.834 70.784 111.848 71.0517 111.765 71.297C111.682 71.5423 111.508 71.7466 111.279 71.8681L106.763 74.2736C106.628 74.3466 106.479 74.3882 106.326 74.3954Z" fill="#303337"/>
<path d="M149.017 35.115C148.748 35.1271 148.485 35.0318 148.286 34.85C148.087 34.6682 147.968 34.4148 147.956 34.1456C147.944 33.8764 148.04 33.6135 148.221 33.4145C148.403 33.2156 148.656 33.0971 148.926 33.085L154.051 32.6181L152.377 28.2231C152.281 27.9714 152.289 27.6921 152.4 27.4465C152.51 27.201 152.714 27.0093 152.965 26.9138C153.217 26.8182 153.496 26.8265 153.742 26.9369C153.988 27.0473 154.179 27.2508 154.275 27.5025L156.427 33.1459C156.482 33.2932 156.503 33.4515 156.487 33.6083C156.472 33.7651 156.419 33.9161 156.335 34.0492C156.251 34.1812 156.138 34.292 156.004 34.373C155.87 34.454 155.72 34.503 155.564 34.5161L149.108 35.1048L149.017 35.115Z" fill="#303337"/>
</svg>
