<svg width="34" height="34" viewBox="0 0 34 34" xmlns="http://www.w3.org/2000/svg">
    <g transform="translate(1 1)" fill="none" fill-rule="evenodd">
        <rect stroke="#039BE5" fill-opacity=".8" fill="#FFF" x="-.5" y="-.5" width="33" height="33" rx="4"/>
        <path d="m13.755 13.242-.243 3.35c.348 0 .498-.146.678-.322l1.628-1.527 3.372 2.425c.618.338 1.054.16 1.22-.559l2.214-10.183h.001c.196-.898-.33-1.249-.933-1.029L8.68 10.287c-.888.34-.875.825-.151 1.045l3.326 1.016 7.727-4.746c.363-.237.694-.106.422.13l-6.25 5.51z" fill="#039BE5" fill-rule="nonzero"/>
        <path d="M32.5 20.833V28a4.486 4.486 0 0 1-1.318 3.182A4.486 4.486 0 0 1 28 32.5H4a4.486 4.486 0 0 1-3.182-1.318A4.486 4.486 0 0 1-.5 28v-7.167h33z" stroke="#039BE5" fill="#039BE5"/>
        <path d="M12.684 29.43c.533 0 .936-.189 1.208-.565.272-.376.408-.921.408-1.636 0-.714-.136-1.258-.408-1.632-.272-.373-.675-.56-1.208-.56a1.22 1.22 0 0 0-.724.224.984.984 0 0 0-.404.576h-.04v-2.424h-1.184v5.92h1.184v-.704h.04a1.093 1.093 0 0 0 .404.572c.099.072.21.128.332.168.123.04.253.06.392.06zm-.392-.96a.905.905 0 0 1-.556-.165.533.533 0 0 1-.22-.452v-1.24c0-.192.073-.342.22-.452a.905.905 0 0 1 .556-.164c.224 0 .41.079.556.236.147.158.22.37.22.636v.728c0 .267-.073.479-.22.636a.727.727 0 0 1-.556.236zm4.608.96c.31 0 .585-.051.828-.153.243-.101.448-.248.616-.44.168-.192.297-.424.388-.696.09-.272.136-.576.136-.912 0-.336-.045-.64-.136-.912a1.963 1.963 0 0 0-.388-.692 1.673 1.673 0 0 0-.616-.436 2.132 2.132 0 0 0-.828-.152c-.31 0-.585.051-.828.152a1.673 1.673 0 0 0-.616.436c-.168.19-.297.42-.388.692-.09.272-.136.576-.136.912 0 .336.045.64.136.912.09.272.22.504.388.696.168.192.373.339.616.44.243.102.519.152.828.152zm0-.937c-.235 0-.416-.072-.544-.216-.128-.144-.192-.349-.192-.616v-.856c0-.266.064-.472.192-.616.128-.144.31-.216.544-.216.235 0 .416.072.544.216.128.144.192.35.192.616v.856c0 .267-.064.472-.192.616-.128.144-.31.216-.544.216zm4.984.84v-.92h-.768v-2.36h.832v-.92h-.832v-1.136h-1.064v.688a.54.54 0 0 1-.088.332c-.059.078-.168.116-.328.116h-.296v.92h.592v2.056c0 .4.105.704.316.912.21.208.521.312.932.312h.704z" fill="#FFF" fill-rule="nonzero"/>
    </g>
</svg>
