<svg width="80" height="56" viewBox="0 0 80 56" xmlns="http://www.w3.org/2000/svg">
    <g fill="none" fill-rule="evenodd">
        <path d="M76.913 28.88H3.07c-1.624 0-2.945 1.339-2.945 2.985v12.798c0 1.646 1.321 2.985 2.945 2.985h73.843c1.624 0 2.945-1.34 2.945-2.985V31.865c0-1.646-1.321-2.985-2.945-2.985" fill="#FFFFFE"/>
        <path d="M39.991.09c-15.196 0-27.559 12.53-27.559 27.933 0 15.4 12.363 27.931 27.56 27.931 15.196 0 27.559-12.53 27.559-27.931C67.55 12.62 55.188.09 39.99.09" fill="#FFFFFE"/>
        <path d="M25.49 13.818c.073-.08.15-.159.228-.237C28.676 10.583 32.4 8.622 36.5 7.899l.416-.073-.277.322c-.43.5-.766.927-1 1.267-.1.147-.237.348-.333.565l-.032.072-.076.014c-.043.01-4.368.892-8.27 4.215l-.054.046-1.566-.31.183-.2zm15.388.159.08.057-1.432 6.924-.07.031c-3.947 1.739-6.43 3.335-7.313 3.941l-.078.054-5.474-3.195.008-.096c.065-.812.415-4.94.903-6.448l.013-.04.032-.027c3.628-3.193 8.114-4.067 8.159-4.075l.133-.008.06.025c.505.243 3.084 1.5 4.979 2.857zm1.216.176c1.405-.524 5.09-.878 7.046-1.004l.048-.004.04.026c3.663 2.295 5.574 5.647 5.593 5.68l.026.047-.008.052c-.166 1.047-.764 4.615-1.531 6.601l-.029.074-6.7 1.634-6.01-6.091 1.447-6.987.078-.028zm7.01-4.363a20.065 20.065 0 0 1 5.145 3.78 20.343 20.343 0 0 1 3.761 5.275l.17.342-2.453-.907-.027-.046c-.02-.036-2.136-3.589-5.869-5.956l-.041-.026-1.038-2.642.353.18zm-28.597 23.5a20.743 20.743 0 0 1-.492-8.016l.061-.453 1.005 1.839-.005.048c-.25 2.31.02 4.747.345 6.583h1.085c-.334-1.82-.622-4.264-.365-6.535l.019-.059c.712-1.241 2.403-3.682 3.71-4.036l.059-.016 5.694 3.322 1.508 7.324h10.925l2.711-4.97 6.69-1.629.058.08c1.045 1.404 2.876 4.099 3.106 5.293l.006.035-.002.01c-.002.123-.021.532-.176 1.18h1.094c.06-.29.097-.531.117-.719l.01-.097.091-.03c.463-.157 1.162-.5 1.866-1.241l.333-.35-.078.48a20.935 20.935 0 0 1-.415 1.958h1.1a21.93 21.93 0 0 0 .64-4.935 21.689 21.689 0 0 0-1.506-8.323l-.071-.182A21.343 21.343 0 0 0 55 12.807a21.02 21.02 0 0 0-6.948-4.69l-.148-.061a20.939 20.939 0 0 0-9.545-1.475H38.346l-.032.003-.004-.002a21.115 21.115 0 0 0-13.333 6.225c-.37.375-.73.767-1.068 1.165l-.06.072a21.579 21.579 0 0 0-4.553 9.184l-.003.022a21.984 21.984 0 0 0 .13 10.04h1.084z" fill="#1A1919"/>
        <path d="M39.991 1.152c-14.618 0-26.51 12.054-26.51 26.87s11.892 26.87 26.51 26.87c14.619 0 26.512-12.054 26.512-26.87S54.61 1.153 39.99 1.153zm0 1.062c14.063 0 25.464 11.554 25.464 25.809 0 14.252-11.4 25.807-25.464 25.807-14.063 0-25.463-11.555-25.463-25.807 0-14.255 11.4-25.809 25.463-25.809z" fill="#1A1919"/>
        <path d="M3.07 46.054a1.384 1.384 0 0 1-1.373-1.39V31.864c0-.767.616-1.392 1.373-1.392h73.843c.757 0 1.373.625 1.373 1.392v12.798c0 .767-.616 1.391-1.373 1.391H3.07" fill="#F0A936"/>
        <path d="M76.913 29.942H3.07c-1.046 0-1.897.863-1.897 1.923v12.798c0 1.06.85 1.923 1.897 1.923h73.843c1.046 0 1.897-.863 1.897-1.923V31.865c0-1.06-.85-1.923-1.897-1.923zm0 1.062c.467 0 .849.388.849.861v12.798c0 .473-.382.86-.849.86H3.07a.857.857 0 0 1-.849-.86V31.865c0-.473.382-.86.849-.86h73.843z" fill="#1A1919"/>
        <path fill="#1A1919" d="M6.143 41.557v-6.586H7.86v5.034h1.672v-5.034h1.717v5.034h1.671v-5.034h1.718v6.586H6.143M15.86 41.557v-6.586h1.718v2.494h.817l1.476-2.494h1.903l-2.042 3.208 2.135 3.378h-1.903l-1.578-2.54h-.808v2.54h-1.717"/>
        <path d="M25.245 36.43c-1.123 0-1.717.78-1.717 1.834s.594 1.835 1.717 1.835c1.123 0 1.717-.781 1.717-1.835 0-1.054-.594-1.835-1.717-1.835zm0-1.6c2.321 0 3.481 1.6 3.481 3.434 0 1.835-1.16 3.435-3.481 3.435-2.32 0-3.481-1.6-3.481-3.435s1.16-3.435 3.481-3.435zM35.27 34.971v6.586h-1.718v-5.034h-1.401c-.205 2.7-.53 5.11-2.396 5.12-.241 0-.51-.039-.798-.132v-1.515c.12.037.27.056.445.037 1.05-.113 1.031-3.067 1.18-5.062h4.688M38.536 39.11h1.67l-.667-1.9c-.056-.16-.112-.32-.167-.668-.057.348-.112.508-.168.668l-.668 1.9zm-2.646 2.447 2.553-6.586H40.3l2.553 6.586H41.09l-.371-1.035h-2.693l-.371 1.035H35.89zM53.226 34.971v6.586h-1.718v-3.5l-1.392 2.164h-.984l-1.393-2.174v3.51h-1.718v-6.586h1.625l1.978 3.086L51.6 34.97h1.625M57.011 38h1.003v-1.524h-1.003c-.585 0-.918.254-.918.762 0 .509.333.762.918.762zm-3.09 3.557 1.753-2.38c-.78-.292-1.345-.903-1.345-1.939 0-1.646 1.253-2.267 2.664-2.267h2.74v6.586h-1.719v-2.145h-.603l-1.532 2.145H53.92zM64.539 41.557v-2.24c-.53.161-1.04.245-1.504.245-1.411 0-2.367-.733-2.367-2.277v-2.314h1.717v2.22c0 .537.474.8 1.087.8.333 0 .705-.075 1.067-.225V34.97h1.718v6.586h-1.718M69.523 39.11h1.671l-.668-1.9c-.056-.16-.112-.32-.168-.668a3.395 3.395 0 0 1-.167.668l-.668 1.9zm-2.646 2.447 2.553-6.586h1.857l2.553 6.586h-1.764l-.371-1.035h-2.693l-.37 1.035h-1.765zM39.754 3.964l-.045.087-.093.016-.544.083.396.397.066.067-.017.095-.09.56.479-.262.086-.045.085.045.479.262-.09-.56-.017-.095.066-.067.396-.397-.544-.083-.094-.016-.045-.087-.236-.502-.238.502M28.893 6.753v.099l-.076.058-.445.327.531.169.089.028.028.093.173.538.308-.454.055-.08h.097l.543.01-.333-.456-.057-.076.027-.09.173-.538-.52.18-.091.028-.08-.056-.437-.335.015.555M20.505 14.281l.044.088-.041.087-.248.497.549-.097.091-.015.068.068.397.399.067-.547.014-.097.086-.044.487-.245-.502-.25-.086-.041-.016-.093-.09-.557-.382.4-.067.07-.096-.015-.54-.094.265.486M16.457 24.87l.08.058.002.096.004.558.444-.342.074-.057.091.03.534.17-.187-.517-.033-.093.056-.08.323-.443-.56.012-.094.003-.056-.075-.332-.454-.158.534-.03.092-.091.032-.523.167.456.31M51.106 6.198l-.438.335-.08.056-.09-.029-.521-.179.172.538.028.09-.057.076-.333.456.543-.01h.096l.057.08.307.454.172-.538.03-.093.087-.028.532-.17-.445-.326-.076-.058v-.099l.016-.555M59.744 13.795l-.54.094-.097.014-.068-.068-.381-.401-.09.557-.016.093-.086.042-.502.25.487.244.086.044.014.097.067.547.397-.399.068-.068.09.015.55.097-.248-.497-.041-.087.044-.088.266-.486M63.982 24.561l-.523-.167-.092-.032-.029-.092-.158-.534-.332.454-.056.075-.095-.003-.56-.012.323.444.057.08-.033.092-.187.516.534-.17.09-.029.075.057.444.342.004-.558.003-.096.079-.058.456-.309M33.76 50.199c.368-.343.581-.632.581-1.09 0-.63-.442-1.02-1.153-1.02-.33 0-.662.077-.91.21l-.068.037.236.62.088-.052c.16-.093.38-.15.573-.15.225 0 .492.06.492.346 0 .23-.093.399-.367.667a7.014 7.014 0 0 1-.922.77l-.04.028v.497h2.118v-.657h-.876c.081-.06.163-.128.247-.206M37.692 50.444c-.463 0-.8-.355-.8-.844 0-.49.337-.846.8-.846s.798.356.798.846-.335.844-.798.844zm0-2.355c-.878 0-1.54.65-1.54 1.51 0 .861.662 1.51 1.54 1.51s1.54-.649 1.54-1.51c0-.86-.662-1.51-1.54-1.51zM42.421 50.444c-.463 0-.799-.355-.799-.844 0-.49.336-.846.799-.846s.799.356.799.846-.336.844-.799.844zm0-2.355c-.879 0-1.54.65-1.54 1.51 0 .861.661 1.51 1.54 1.51.878 0 1.54-.649 1.54-1.51 0-.86-.662-1.51-1.54-1.51zM45.668 48.136v.657h1.268l-.945 2.27h.792l.983-2.443.007-.484h-2.105M74.841 32.652c-.687 0-1.382.458-1.382 1.335s.695 1.335 1.382 1.335c.685 0 1.378-.458 1.378-1.335s-.693-1.335-1.378-1.335zm0 2.986c-.841 0-1.693-.567-1.693-1.651s.852-1.65 1.693-1.65c.84 0 1.69.566 1.69 1.65s-.85 1.65-1.69 1.65z" fill="#1A1919"/>
        <path d="M74.926 33.925H74.6v-.39h.327c.114 0 .267.021.267.198 0 .172-.153.192-.267.192zm.344.28c.187-.058.336-.218.336-.489 0-.402-.336-.55-.631-.55h-.765v1.604h.389v-.525h.271l.388.525h.441l-.429-.566z" fill="#1A1919"/>
    </g>
</svg>
