<svg width="66" height="66" viewBox="0 0 66 66" xmlns="http://www.w3.org/2000/svg">
    <g stroke-width=".8" fill="none" fill-rule="evenodd">
        <path d="M45.438 13.524c0-5.518-4.89-9.764-10.207-9.764-5.315 0-10.206 4.246-10.206 9.764 0 4.67 7.23 14.86 10.206 18.467 2.765-3.184 10.207-13.585 10.207-18.467zm2.339 2.972 16.585 9.764c.425.213.638.637.638 1.274V63.62c0 1.062-1.276 1.698-2.126 1.062L43.313 53.219 23.75 64.682c-.638.424-1.275.424-1.7 0L1.637 52.794C1.213 52.37 1 51.945 1 51.521V15.435c0-1.062 1.276-1.699 2.126-1.062L22.9 25.836l3.19-1.911-.639-1.062c-1.913-3.608-3.19-7.005-3.19-9.34C22.262 6.308 28.216 1 35.232 1c7.017 0 13.184 5.307 13.184 12.524 0 .849-.212 1.91-.638 2.972zm14.46 11.675-15.522-8.915c-.638 1.273-1.276 2.76-2.126 4.033v27.383l17.648 10.401V28.171zM3.763 17.982v32.69l17.648 10.4v-32.9L3.764 17.981zM35.233 6.944c3.615 0 6.804 2.972 6.804 6.792 0 3.609-3.19 6.58-6.804 6.58-3.615 0-6.592-2.971-6.592-6.58 0-3.82 2.977-6.792 6.592-6.792zm0 2.76c-2.126 0-3.827 1.698-3.827 4.033a3.808 3.808 0 0 0 3.827 3.82 3.808 3.808 0 0 0 3.827-3.82c0-2.335-1.7-4.033-3.827-4.033z" stroke="#FFF" fill="#303337" fill-rule="nonzero"/>
        <path d="M41.824 50.672V27.747c-2.126 3.184-4.04 5.943-5.528 7.43-.638.636-1.489.636-2.126 0-1.701-1.911-4.253-5.308-6.592-8.916l-3.402 1.91v32.902l17.649-10.4v-.001z" stroke="#F0AA3B" fill="#F0AA3B"/>
    </g>
</svg>
