<svg width="70" height="66" viewBox="0 0 70 66" xmlns="http://www.w3.org/2000/svg">
    <g fill-rule="nonzero" fill="none">
        <path d="M50.773 1c.942 0 1.708.764 1.729 1.714v2.579h8.951c4.126.005 7.475 3.358 7.546 7.524l.001.127v44.403c-.004 4.183-3.312 7.58-7.422 7.652l-.125.001H8.547C4.42 64.996 1.072 61.64 1 57.473L1 57.347V16.943c0-.968.775-1.753 1.729-1.753.941 0 1.708.764 1.728 1.714V19.123h61.085v-6.186c-.032-2.253-1.808-4.076-4.022-4.144l-.067-.002h-8.951v2.534c0 .967-.774 1.752-1.729 1.752a1.741 1.741 0 0 1-1.728-1.713V8.79h-28.09v2.534c0 .964-.772 1.75-1.726 1.75a1.738 1.738 0 0 1-1.731-1.711V8.79H8.546a4.002 4.002 0 0 0-2.057.58 1.716 1.716 0 0 1-2.314-.594 1.767 1.767 0 0 1 .544-2.416A7.41 7.41 0 0 1 8.46 5.287l.088-.001h8.95V2.753c0-.968.775-1.753 1.73-1.753.94 0 1.707.764 1.728 1.714v2.572h28.09V2.753c0-.968.774-1.753 1.728-1.753zm14.77 21.628H4.457v34.718c.03 2.253 1.808 4.078 4.022 4.147l.067.001h52.907c2.223-.032 4.023-1.835 4.088-4.08l.002-.068V22.628zM16.296 44.294h5.86c1.693.002 3.068 1.381 3.098 3.091v5.992c-.002 1.717-1.36 3.111-3.047 3.141H16.296c-1.693-.002-3.068-1.378-3.097-3.089v-5.992c.002-1.716 1.36-3.113 3.046-3.143h.051zm21.633 0c1.693.002 3.07 1.381 3.1 3.091v5.992c-.002 1.717-1.362 3.111-3.049 3.141H32.069c-1.692-.002-3.07-1.378-3.1-3.088v-5.992c.002-1.717 1.362-3.113 3.05-3.143h5.91zm15.774 0c1.693.002 3.068 1.381 3.098 3.091v5.992c-.002 1.717-1.36 3.111-3.047 3.141H47.843c-1.693-.002-3.068-1.378-3.097-3.088v-5.992c.002-1.717 1.36-3.113 3.046-3.143h5.911zM21.796 47.8h-5.14v5.214h5.14v-5.214zm15.776 0h-5.145v5.214h5.145v-5.214zM22.156 27.601c1.693.004 3.068 1.383 3.098 3.093v5.991c-.002 1.716-1.36 3.112-3.047 3.142H16.296c-1.693-.002-3.068-1.38-3.097-3.09v-5.991c.002-1.716 1.36-3.112 3.046-3.145H22.156zm15.773 0c1.695.004 3.07 1.383 3.1 3.093v5.991c-.002 1.716-1.362 3.112-3.049 3.142H32.069c-1.692-.002-3.07-1.38-3.1-3.09v-5.991c.002-1.718 1.36-3.112 3.05-3.145h5.91zm15.774 0c1.693.004 3.068 1.383 3.098 3.093v5.991c-.002 1.716-1.36 3.112-3.047 3.142H47.843c-1.693-.002-3.068-1.38-3.097-3.09v-5.991c.002-1.716 1.36-3.112 3.046-3.145h5.911zm-.36 3.505h-5.14v5.216h5.14v-5.216z" stroke="#FFF" fill="#303337"/>
        <path stroke="#F0AA3B" fill="#F0AA3B" d="M53.343 47.8h-5.14v5.213h5.14zM21.796 31.106h-5.14v5.216h5.14zM37.572 31.106h-5.145v5.216h5.145z"/>
    </g>
</svg>
