<svg width="72" height="66" viewBox="0 0 72 66" xmlns="http://www.w3.org/2000/svg">
    <g fill-rule="nonzero" fill="none">
        <path d="M12.567 1a5.75 5.75 0 0 1 5.196 3.28 18.504 18.504 0 0 1 5.766-1.99c4.794-.812 9.613.27 13.608 3.048l.004-.006 13.142 9.494-.001.001 15.935 11.508c1.892 1.367 2.391 3.985 1.184 5.957l-.16.243-2.988 4.242c-1.843 2.62-4.081 2.519-5.745 2.242l-.197-.034-19.698-3.668a18.593 18.593 0 0 1-12.008 4.437 18.51 18.51 0 0 1-10.817-3.505c-7.663-5.536-9.941-15.907-5.682-24.117A5.898 5.898 0 0 1 6.793 6.85c0-.495.062-.975.177-1.434l.096-.34h-.134c-1.647 0-3.05 1.054-3.187 2.345l-.01.206V24.97c4.138 13.868 9.276 17.47 14.781 19.773l1.145.46 2.422.922.96.372c3.368 1.332 6.807 3.015 10.19 6.701 2.293 2.499 1.86 4.693 1.227 5.974l-.071.138-.15.263C32.205 62.923 25.978 65 19.55 65c-2.512 0-5.053-.317-7.388-.998-3.321-.97-5.973-2.563-7.882-4.739-2.096-2.389-3.196-5.372-3.275-8.876L1 49.8V7.627c0-2.836 2.487-5.16 5.607-5.312l.325-.008h2.003A5.7 5.7 0 0 1 12.567 1zM3.734 33.055l.003 17.238c.136 6.309 4.185 9.276 8.025 10.671l.588.203.568.175c3.534 1.031 7.809 1.18 11.728.407 3.547-.699 6.33-2.088 7.264-3.626.36-.594.682-1.555-.68-3.04-2.962-3.228-5.954-4.724-9.071-5.963l-.493-.194-3.128-1.193c-2.916-1.142-5.874-2.523-8.657-5.255-2.228-2.188-4.135-5.023-5.814-8.68l-.333-.743zM23.98 5.021a15.74 15.74 0 0 0-6.17 2.456c-.058.048-.12.09-.187.128a15.988 15.988 0 0 0-3.958 3.941l-.163.237-.158.238-.268.424c-4.355 7.14-2.545 16.605 4.3 21.55 6.048 4.369 14.423 3.87 19.915-1.185.27-.249.626-.376.986-.358l.18.021 20.253 3.771.513.084c1.137.162 1.861.054 2.637-.933l.167-.225 2.988-4.243a1.694 1.694 0 0 0-.236-2.216l-.15-.122-5.03-3.633-2.856 4.052a2.848 2.848 0 0 1-2.348 1.219 2.804 2.804 0 0 1-1.443-.4l-.215-.141-6.121-4.425a2.879 2.879 0 0 1-1.163-1.879 2.917 2.917 0 0 1 .337-1.93l.154-.244 2.854-4.052-2.968-2.144-.004-.002-9.995-7.218c-3.454-2.497-7.663-3.48-11.85-2.771zm9.157 6.596c5.052 3.648 6.231 10.777 2.63 15.892-1.746 2.477-4.34 4.119-7.304 4.622a11.052 11.052 0 0 1-7.974-1.672l-.419-.289-.324-.243c-4.776-3.718-5.828-10.65-2.304-15.653 1.745-2.477 4.339-4.118 7.303-4.62a11.075 11.075 0 0 1 8.392 1.963zm17.887 7.146-2.853 4.052a.138.138 0 0 0-.022.104l.017.05.033.035 6.129 4.43a.122.122 0 0 0 .07.024l.058-.01.031-.017.03-.03 2.855-4.053-6.348-4.585zm19.956-1.892a1.385 1.385 0 0 1-.955 1.554l-.167.04-6.88 1.165a1.372 1.372 0 0 1-1.574-1.137 1.385 1.385 0 0 1 .956-1.554l.167-.04 6.88-1.165a1.369 1.369 0 0 1 1.573 1.137zm-6.837-9.932c.564.407.731 1.167.418 1.77l-.098.16-3.782 5.373a1.36 1.36 0 0 1-1.907.323 1.395 1.395 0 0 1-.417-1.77l.097-.16 3.783-5.372a1.356 1.356 0 0 1 1.906-.324zm-9.741-1.012.038.17.93 5.634a1.383 1.383 0 0 1-1.35 1.612 1.37 1.37 0 0 1-1.305-.976l-.042-.18-.93-5.635a1.383 1.383 0 0 1 1.123-1.593 1.367 1.367 0 0 1 1.536.968zM12.567 3.769l-.237.01c-1.565.122-2.802 1.453-2.802 3.07a3.1 3.1 0 0 0 2.044 2.905 18.78 18.78 0 0 1 3.854-3.96 3.031 3.031 0 0 0-2.6-2.014l-.259-.011z" fill="#303337" stroke="#FFF" stroke-width=".5"/>
        <path d="M31.55 13.87a8.386 8.386 0 0 0-6.354-1.485 8.446 8.446 0 0 0-5.528 3.497c-2.727 3.871-1.834 9.27 1.99 12.035a8.381 8.381 0 0 0 6.353 1.483 8.453 8.453 0 0 0 5.529-3.499c2.727-3.872 1.834-9.269-1.99-12.03z" fill="#F0AA3B"/>
    </g>
</svg>
