<svg width="44" height="60" viewBox="0 0 44 60" xmlns="http://www.w3.org/2000/svg">
    <g fill="none" fill-rule="evenodd">
        <path d="M41.671 22.407c.033.015.095.033.118.042.1.04.184.094.253.176.16.187.16.396.15.622.123.114.33.23.454.345.222.21.33.327.404.633.044.18.028.397.008.587a.49.49 0 0 1 .13.37c-.013.396-.02.793-.045 1.188l.028.014c.203.105.33.26.347.492.01.14-.07.333-.098.467.388.024.618.208.575.634-.054.528-.432 1.008-.851 1.31-.266.191-.624.406-.7.748-.01.042-.024.084-.038.125l.006.036a.815.815 0 0 1 .182.313c.21.055.32.227.331.464.018.369-.105 1.034-.248 1.43l.031.02c.204.13.351.306.335.562a.503.503 0 0 1-.082.23c-.023.038-.07.093-.103.14.052.03.133.07.167.097.152.116.22.278.237.465.044.475-.45.953-.79 1.226-.16.128-.347.227-.522.333-.104.063-.347.196-.423.28-.022.024-.1.09-.074.127.17.241.216.495.08.748.102.461.057.949-.097 1.394-.198.574-.467 1.12-.715 1.675-.395.885-.65 1.962-1.364 2.656a3.49 3.49 0 0 1-.975.686 5.812 5.812 0 0 1-.34.15c-.027.559-.332 1.178-.659 1.639.16.155.24.346.182.57-.036.137-.11.181-.18.263.036.04.111.113.126.13a.66.66 0 0 1 .145.514c-.06.666-1.546 1.278-2.113 1.419-.15.037-.175.05-.183.207-.024.469.046.802-.458 1.05-.09.045-.182.086-.276.12-.086.532-.48 1.024-.995 1.194-.103.034-.21.052-.318.062a.743.743 0 0 1-.095.706c-.042.052-.098.099-.136.15a.15.15 0 0 0-.03.098c0 .429.294.829.038 1.271-.244.42-.822.693-1.24.91a.827.827 0 0 1-.372.071c-.055 0-.201-.008-.293 0h.056l-.691.586c-1.214 1.03-2.362 2.139-3.631 3.104-.383.291-.616.482-1.125.34-.234-.067-.47-.128-.706-.185a61.694 61.694 0 0 1-2.603 2.115l-.62.474-.607-.487a81.453 81.453 0 0 1-2.543-2.137c-.255.061-.507.13-.755.214-.465.157-.597-.004-.951-.251-1.344-.936-2.501-2.092-3.752-3.141l-.588-.493c-.342-.154-.744-.362-.992-.614l-4.075-4.143.6-.121c.066-.014.133-.026.2-.038l-3.123-3.925.262-.01c.198-.007.395-.016.592-.022a9.735 9.735 0 0 0-.945-1.879l-.066-.1a3.143 3.143 0 0 1-.93-.574c-.75-.683-.829-1.678-1.219-2.551-.26-.581-.604-1.128-.812-1.731-.157-.455-.215-.952-.1-1.423l.104-.43c-.208-.34-.397-.69-.567-1.054l-.288-.611.63.14a20.52 20.52 0 0 0-.368-1.422 28.95 28.95 0 0 0-1.28-3.515L0 29.018l.694.214c.242.074.482.157.719.247a6.708 6.708 0 0 1-.451-1.319c-.425-1.868.068-3.996 1.12-5.58l.159-.24a94.703 94.703 0 0 1-.181-5.071l-.006-.815c.46.031.898-.051 1.352-.136 1.503-.281 2.812-.921 4.23-1.572 2.258-1.039 4.448-2.217 6.651-3.369.505-.264 1.01-.528 1.516-.79l-3.797-3.391 7.008-.687L21.831 0l2.817 6.51 7.009.686-3.728 3.328c.913.479 1.82.967 2.73 1.453 1.83.979 3.661 1.959 5.555 2.808 1.442.647 3.05 1.305 4.623 1.515l.892.12-.03.898c-.053 1.624-.064 3.25-.115 4.874.027.072.055.145.087.215zM20.411 57.09c.487.414.977.824 1.473 1.225.512-.396 1.016-.8 1.514-1.213a12.262 12.262 0 0 0-2.986-.012z" fill="#161413"/>
        <path d="M6.697 19.563c2.847-1.112 5.615-2.48 8.313-3.913.677-.36 1.35-.724 2.022-1.093l.608-2.774-.725-.647C13.38 12.94 9.642 14.962 6.75 16.22c-1.473.64-2.778 1.023-3.684 1.123.016 2.62.166 5.143.35 7.464a20.793 20.793 0 0 1-.809-1.941c-.114-1.864-.2-3.73-.215-5.6l-.004-.503a9.752 9.752 0 0 0 2.067-.4c1.167-.371 2.453-.92 3.32-1.317 2.257-1.038 4.465-2.225 6.667-3.376.643-.336 1.29-.675 1.942-1.01L12.79 7.45l6.45-.631L21.832.834l2.59 5.986 6.451.632-3.521 3.144c1.055.549 2.103 1.113 3.151 1.673 1.832.98 3.68 1.968 5.576 2.818 1.44.647 3.144 1.332 4.715 1.542l.595.079-.02.6c-.05 1.51-.063 3.023-.106 4.534-.076-.094-.172-.164-.268-.242-.117-.096-.244-.186-.384-.19.028-1.176.04-2.432.096-4.125-3.709-.495-9.06-3.723-13.884-6.216l-.8.714.608 2.777c.5.267 1.002.534 1.503.799 1.574.833 3.156 1.655 4.762 2.426 1.349.646 2.747 1.282 4.162 1.77l.472.162-.026.499c-.233 4.339-.654 8.74-1.824 12.939-2.13 7.642-6.267 13.847-11.642 19.483-.28-.034-.56-.061-.84-.081 5.839-6.034 9.795-12.231 11.843-19.58 1.105-3.963 1.555-8.205 1.8-12.796-2.763-.953-6.462-2.874-10.023-4.77l.602 2.748-5.588-3.308-5.588 3.308.602-2.744c-3.271 1.783-6.644 3.49-9.907 4.766.34 4.497.597 8.898 1.713 12.884 2.05 7.328 6.62 14.371 12.055 19.503-.29.023-.58.052-.868.088-5.411-5.245-9.819-12.24-11.826-19.413a31.46 31.46 0 0 1-.449-1.818l.002-.004.163-.375-.232.06c-.737-3.56-.947-7.284-1.219-10.875l-.037-.49.457-.178zM19.834 57.03a79.945 79.945 0 0 0 2.046 1.707 59.717 59.717 0 0 0 2.096-1.686c.28.046.558.1.835.16a61.388 61.388 0 0 1-2.528 2.052l-.412.316-.406-.325a80.49 80.49 0 0 1-2.473-2.076c.274-.057.557-.107.842-.148zM4.122 26.407c-.842-1.181-1.398-2.63-1.765-3.643-1.173 1.767-1.411 3.832-1.072 5.323.143.631.366 1.157.573 1.531a6.183 6.183 0 0 1 .676-1.467c-.262-.965-.466-2.737-.326-3.814 0 .7.063 1.53.173 2.289.059-.33.166-.711.33-1.012-.141.494-.256 1.105-.252 1.498.056.313.121.606.194.86.385-.558.9-1.112 1.469-1.565z" fill="#F6CA00"/>
        <path d="M5.719 25.71c-1.35.473-2.612 1.804-3.173 2.806-.24.428-.427.885-.552 1.347.47.212.94.461 1.379.748.03-.134.065-.275.104-.423-.034-.389-.23-1.008-.438-1.498.252.352.432.845.52 1.205.27-.938.685-2.046 1.128-2.764a18.518 18.518 0 0 0-1.162 3.582c.657.449 1.236.984 1.631 1.6.187-.151.383-.295.584-.427.022-.129.04-.255.051-.381.065-.667-.056-1.466-.23-2.25-.215-.962-.168-2.594.158-3.545zM3.287 37.173a10.872 10.872 0 0 1-1.39-2.224c2.29.51 3.382 1.273 4.342 2.1-.199.293-.37.605-.517.932-.68-.636-1.574-1.391-2.36-1.824.706.56 1.573 1.264 2.286 1.995a6.958 6.958 0 0 0-.093.235c-.201-.08-.402-.164-.6-.254a8.99 8.99 0 0 1-1.668-.96z" fill="#F6CA00"/>
        <path d="M2.326 34.846c-.371-1.873-1.183-4.057-1.73-5.298 1.865.574 3.602 1.623 4.406 2.895a6.37 6.37 0 0 0-1.123 1.242c-.293.435-.52.912-.678 1.41-.288-.094-.58-.176-.875-.249zm-.75-4.321a22.96 22.96 0 0 1 1.565 1.857c-.25-.146-.543-.256-.966-.354.409.172.833.374 1.125.574.228.322.44.65.63.988l.106-.162c-.503-.89-1.44-1.994-2.46-2.903z" fill="#F6CA00"/>
        <path d="M7.382 31.342c-1.384.362-2.696 1.501-3.338 2.454-.289.43-.505.89-.655 1.363a8.97 8.97 0 0 1 1.65.76c.175-.698.424-1.417.75-2.012a26.491 26.491 0 0 0-.6 2.104c.181.114.354.233.522.359.226-.241.465-.561.674-.875-.228.46-.372.72-.575.95.184.14.364.287.543.44.203-.279.43-.54.685-.777-.004-.436-.05-.9-.114-1.36-.136-.975.057-2.485.458-3.406zM7.663 43.4c-.073.664-.1 1.516-.063 1.955.171.05.92.2 1.293.32a21.49 21.49 0 0 1-.001-1.706 6.707 6.707 0 0 0-1.23-.57zm1.403 2.334a8.516 8.516 0 0 1 .802.324c.102-.395.228-.785.377-1.17a13.81 13.81 0 0 0-1.271-.87c.022.57.047 1.146.092 1.716z" fill="#F6CA00"/>
        <path d="m8.874 48.85-2.927-3.68a8.984 8.984 0 0 1 3.772.65c-.104.393-.174.79-.205 1.192a15.35 15.35 0 0 0-2.007-1.078c.631.382 1.395.871 1.994 1.295a6.02 6.02 0 0 0-.005.36c-.24.02-.477.037-.91.074.296.033.628.044.913.05.013.355.057.712.136 1.071-.253.01-.507.033-.761.066z" fill="#F6CA00"/>
        <path d="M11.092 43.32c-1.185 1.794-1.665 3.648-1.255 5.458.465-.008.926.023 1.38.095-.236-.974-.375-2.233-.306-3.687.054.985.149 2.026.337 3.01.1-.372.253-.62.585-1.152-.24.476-.483 1.115-.52 1.478.028.129.058.256.09.383.285.052.568.121.848.207.146-.254.338-.477.549-.687-.129.196-.291.44-.418.728a7.703 7.703 0 0 1 1.467.656 5.626 5.626 0 0 0-.629-1.697c-.32-.577-.757-1.08-1.134-1.783-.467-.868-.823-2.08-.994-3.008z" fill="#F6CA00"/>
        <path d="M13.743 53.769c-.706-.247-1.5-.575-1.83-.91L8.267 49.15c4.456-.897 6.97 1.886 7.636 2.594.196.21.497.94.711 1.513-.253.059-.506.117-.76.173-.417-.46-.95-.942-1.64-1.444-.024-.421-.062-.732-.245-1.199.088.376.116.737.083 1.082-1.004-.71-2.323-1.46-4.07-2.246.718.393 1.44.772 2.147 1.182-.318.028-.518.03-1.069.048.478.054 1.014.086 1.324.102.795.472 1.57.99 2.298 1.62-.442.034-1.247.048-1.824.067.465.053 1.567.072 1.997.086.261.235.515.485.763.753-.19.04-.381.079-.572.115-.37.068-.884.18-1.303.172z" stroke="#161413" stroke-width=".5"/>
        <path d="M13.743 53.769c-.706-.247-1.5-.575-1.83-.91L8.267 49.15c4.456-.897 6.97 1.886 7.636 2.594.196.21.497.94.711 1.513-.253.059-.506.117-.76.173-.417-.46-.95-.942-1.64-1.444-.024-.421-.062-.732-.245-1.199.088.376.116.737.083 1.082-1.004-.71-2.323-1.46-4.07-2.246.718.393 1.44.772 2.147 1.182-.318.028-.518.03-1.069.048.478.054 1.014.086 1.324.102.795.472 1.57.99 2.298 1.62-.442.034-1.247.048-1.824.067.465.053 1.567.072 1.997.086.261.235.515.485.763.753-.19.04-.381.079-.572.115-.37.068-.884.18-1.303.172zM5.52 42.858c.496.754.89 1.565 1.224 2.47.322.003.61.027 1.043.09a8.866 8.866 0 0 1 .099-2.005c-.757-.2-1.593-.312-2.366-.555z" fill="#F6CA00"/>
        <path d="M2.382 36.652c-.1.412-.046.837.092 1.237.178.514.495 1.016.802 1.704.35.784.473 1.835 1.139 2.441.817.745 1.891.764 3.023 1.073.899.245 1.833.73 2.78 1.358.103-.222.218-.44.34-.657-.408-1.147-.921-2.477-1.158-2.965-.413-.85-1.259-1.224-2.077-1.562-1.46-.602-3.427-1.101-4.94-2.629z" stroke="#161413" stroke-width=".5"/>
        <path d="M7.754 35.787c-1.028.705-1.65 1.701-2.014 2.673.357.14.716.27 1.074.407.072-.685.21-1.395.435-2.003a27.44 27.44 0 0 0-.274 2.064c.142.055.283.112.424.17.429.176.81.35 1.14.554a8.825 8.825 0 0 1-.227-.563c-.332-.929-.526-2.358-.558-3.302z" fill="#F6CA00"/>
        <path d="M2.382 36.652c-.1.412-.046.837.092 1.237.178.514.495 1.016.802 1.704.35.784.473 1.835 1.139 2.441.817.745 1.891.764 3.023 1.073.899.245 1.833.73 2.78 1.358.103-.222.218-.44.34-.657-.408-1.147-.921-2.477-1.158-2.965-.413-.85-1.259-1.224-2.077-1.562-1.46-.602-3.427-1.101-4.94-2.629zM41.2 36.666c.1.412.06.851-.077 1.25-.178.515-.397.961-.704 1.649-.35.784-.647 1.925-1.293 2.554a3.037 3.037 0 0 1-.887.625c-.724.348-1.572.54-2.346.728-.934.225-2.116.693-3.26 1.43.506-1.132 1.484-3.535 1.704-4.03.483-1.088 1.217-1.295 2.035-1.633 1.431-.574 3.329-1.087 4.828-2.573z" fill="#D91521"/>
        <path d="M27.167 53.248c.034-.509.042-1.058.32-1.376.246-.28.715.02.972-.212.234-.212.126-1.102.614-1.675.199-.233.627-.048.927-.112.404-.086.452-.528.793-.57.332-.039.517.371.838.28.187-.053.335-.267.525-.449s.423-.33.602-.255c.261.111.311.376.275.637-.035.26-.213.462-.174.692.025.15.207.22.167.491-.042.284-.305.238-.305.615 0 .381.247.82.082 1.105-.184.317-.666.554-1.106.782-.135.07-.576.001-.72.078-.238.126-.422.285-.604.421h-.038c-.577.002-1.127-.012-1.693-.12.484-.377.972-.808 1.493-1.332.512.038 1.34.01 1.83-.067-.383.01-1.264.03-1.711-.053.643-.657 1.339-1.455 2.14-2.463-.497.536-.98 1.081-1.48 1.613.038-.346.064-.598.107-1.01-.125.444-.191.884-.273 1.187-.368.386-.747.765-1.148 1.128-.004-.436.043-1.265.066-1.856-.087.467-.189 1.59-.233 2.004-.313.274-.64.538-.986.789l-.3-1.035c.043.378.12.738.169 1.028a50.923 50.923 0 0 1-1.149-.265zM36.173 43.609a30.214 30.214 0 0 1-1.333 2.16c-.116-.457-.228-.833-.373-1.139.112.398.216.822.291 1.26a28.83 28.83 0 0 1-.487.695.808.808 0 0 0-.016-.088c-.063-.26-.216-.32-.325-.529-.072-.137-.021-.59-.037-.772-.025-.294-.106-.526-.36-.593.762-.408 1.59-.74 2.406-.938l.234-.056zm1.538-.432c-.028.574-.41 1.221-.687 1.582-.174.228.293.275.22.56-.028.107-.232.166-.208.36.036.282.322.243.29.6-.03.343-1.117.941-1.863 1.126-.21.052-.414.132-.434.512-.016.326.074.6-.274.77a2.642 2.642 0 0 1-.243.107.687.687 0 0 0-.26-.516c-.209-.18-.393-.389-.416-.62.158-.318.318-.655.543-.996.674-.09 1.383-.118 1.981-.241-.65.027-1.298.082-1.874.085.23-.331.509-.742.788-1.186.235-.095.506-.2.775-.331l-.693.2c.322-.518.638-1.074.875-1.595.496-.12.998-.245 1.48-.417z" fill="#F6CA00"/>
        <path d="M30.047 49.647c-.05-.328-.072-.64-.018-.849.047-.183.371-.29.479-.48.155-.274-.131-.996-.1-1.291.043-.415.47-.296.735-.381.326-.105.136-.484.389-.608.292-.143.224.23.526.04.134-.083.283-.44.339-.6.058-.168.206-.224.301-.3.258-.21.512-.39.639-.396.283-.011.334.15.358.431.022.262-.05.64.059.847.115.222.257.276.308.484.062.256-.078.377-.232.566-.437.54-.059 1.014.29 1.318.208.18.21.358.185.578-.062.532-.471.876-.777.977a1.757 1.757 0 0 1-.461.06c.039-.15.14-.324.163-.5.048-.35-.044-.697-.394-.847-.253-.107-.52.04-.721.209.184-.467.385-1.006.56-1.559.198-.17.431-.365.652-.584l-.6.42a11.2 11.2 0 0 0 .358-1.467c-.24 1.018-.738 2.34-1.192 3.407a3.42 3.42 0 0 1-.14.143c-.139-.75-.25-1.323-.432-1.765.134.587.25 1.228.28 1.882a.153.153 0 0 1-.024.01c-.173.049-.424-.332-.808-.286-.392.048-.482.418-.722.541zM37.575 35.336c.001-.22.034-.424.131-.59.189-.323.706-.117.914-.393.19-.252-.084-1.106.288-1.76.151-.267.574-.216.857-.335.38-.161.163-.163.48-.294.36-.149.399-.401.625-.507.13-.06.277.16.64-.24.176-.194.464-.311.654-.35.193-.038.417-.14.43.122.013.256-.106 1.052-.273 1.41-.12.26.41.272.391.565-.006.11-.266.291-.205.478.088.27.392.15.425.505.023.244-.242.597-.667.937-.193.154-.837.488-.983.648-.156.17-.238.345-.1.541.228.327.017.52-.291.752a1.693 1.693 0 0 0-.326-.618c-.057-.068-.294-.28-.317-.324-.022-.061-.004-.334-.026-.449a.712.712 0 0 0-.077-.212c.512-.081 1.28-.232 1.635-.372-.535.117-1.283.218-1.74.233a.727.727 0 0 0-.161-.12c.502-.799 1.712-2.223 2.229-2.804-.546.505-1.985 1.963-2.373 2.738a1.24 1.24 0 0 0-.152-.043c-.337-.074-.956.118-1.282.223-.244.08-.486.167-.726.259z" fill="#F6CA00"/>
        <path d="M38.531 30.111a.992.992 0 0 1-.004-.265c.058.111.103.203.004.265zm1.319-2.843c.04-.28.14-.53.32-.637.355-.21.56-.155.856-.328.337-.196.173-.41.382-.545.12-.078.31.078.56-.24.16-.208.263-.345.447-.408.186-.065.451-.201.442.061-.009.252-.018.805-.05 1.253-.02.285.359.184.38.477.009.11-.168.48-.082.656.124.255.607-.068.56.386-.032.308-.244.736-.715 1.075-.227.164-.65.416-.799.837a1.448 1.448 0 0 0-.334-.396c-.066-.056-.44-.302-.475-.347a1.766 1.766 0 0 1-.007-.081c.46-.22 1.065-.532 1.342-.743-.395.212-.93.451-1.35.607a1.477 1.477 0 0 0-.008-.082c.268-.941.657-2.145.854-2.72-.15.328-.385.919-.612 1.55-.146-.247-.247-.408-.434-.728.128.345.27.625.38.877a24.65 24.65 0 0 0-.262.783.499.499 0 0 0-.287-.216c-.026-.009-.12-.032-.145-.047-.098-.18-.154-.361-.266-.545-.138-.224-.416-.5-.697-.5zm2.515 3.366c.02.09.01.178-.027.265l.003-.027a8.53 8.53 0 0 1 .024-.238z" fill="#F6CA00"/>
        <path d="M38.612 32.77a.972.972 0 0 1-.047-.15c-.04-.185.202-.426.213-.643.017-.316-.563-.833-.668-1.11-.147-.39.288-.475.487-.67.244-.24-.094-.494.076-.718.197-.259.302.104.488-.2.083-.134.085-.408.062-.575-.023-.176.084-.4.135-.517.068-.157.234-.608.366-.681.206-.137.506.125.653.365.138.224.163.358.264.542.078.142.301.09.412.233.093.118.062.238.092.496.02.166.29.251.543.468.153.13.304.3.38.557.044.15.023.31.008.517a1.468 1.468 0 0 0-.714.4c-.313.345-.31.069-.576.193a.799.799 0 0 0-.261.21c-.009-.161-.021-.332-.036-.51.154-.249.362-.552.545-.885l-.562.707a26.252 26.252 0 0 0-.345-2.434c.077.698.22 2.27.26 3.27a.697.697 0 0 1-.218.145.703.703 0 0 0-.283.18c-.048.055-.134.087-.199.114-.316.134-.741.048-.952.42-.051.09-.091.182-.123.276z" fill="#F6CA00"/>
        <path d="M39.202 28.045c-.257-.209-.466-.474-.62-.62-.35-.333-.13-.082-.34-.402-.168-.254.045-.596.284-.765a.604.604 0 0 0 .254-.386c.033-.314-.356-.658-.473-1.03-.1-.319.107-.969.79-1.08.203-.032.145-.407.26-.516.33-.313.67.141.644-.439a1.201 1.201 0 0 1 .118-.509c.075-.154.264-.596.4-.662.115-.07.226.017.35.118.102.084.222.167.283.279.127.23.146.365.238.553.07.147.283.116.4.253.086.102.078.213.067.473-.007.167.319.293.561.522.146.137.247.208.31.47.031.127.016.322-.005.514a.864.864 0 0 0-.257.061c-.039.014-.077.03-.116.043-.248.085-.384.275-.54.473-.194.25-.296.058-.51.196-.287.185-.126.395-.374.54a1.08 1.08 0 0 1-.284.11l-.062.017c.055-.375.099-.87.131-1.383.187-.235.45-.53.675-.843l-.664.656a25.31 25.31 0 0 0 .046-2.042 65 65 0 0 1-.246 2.948c-.326-.343-.74-.743-1.06-.9.388.324.77.753 1.038 1.095-.023.19-.046.364-.069.512a1.61 1.61 0 0 0-.362.159c-.277.165-.39.525-.427.863l-.022.014c-.183.11-.324.48-.418.708zM36.296 39.055a1.25 1.25 0 0 1-.002-.296c.063-.278.441-.314.632-.577.169-.232.04-.499-.1-.834-.18-.431-.398-.958-.223-1.479.043-.415.288-.072.554-.158.083-.027.896-.37 1.58-.557-.143.67-.311 1.345-.495 2.026-.316-.4-.788-.929-1.131-1.207.268.287.869.976 1.09 1.362-.1.369-.205.74-.313 1.112-.528.208-1.062.396-1.59.608h-.002zm2.457-3.905c.324-.088.618-.139.787-.102.68.15.444.683.52.903.06.17.448.307.634.911-.606.518-1.286.917-2.017 1.252-.198.091-.399.176-.6.258l.114-.47c.427-.285 1.2-.847 1.54-1.226-.295.25-1.084.808-1.492 1.02.088-.38.175-.785.263-1.219.19-.233.457-.52.699-.844l-.655.623c.069-.35.138-.718.207-1.106z" fill="#F6CA00"/>
        <path d="m21.831 2.503-2.137 4.938-5.336.523 4.012 3.583-1.153 5.266 4.614-2.732 4.615 2.732-1.154-5.266 4.012-3.583-5.336-.523-2.137-4.938z" fill="#D91521"/>
        <path d="m21.89 5.432-.137 4.714-4.637-1.297 4.51 1.683-2.639 3.844 2.916-3.65 2.802 3.561-2.514-3.777 4.252-1.539-4.346 1.209-.206-4.748z" fill="#F6CA00"/>
        <path d="M13.47 53.944c1.236 1.037 2.332 2.15 3.728 3.123.269.187.325.32.656.21 1.016-.342 2.658-.596 3.964-.603 1.348-.008 2.74.23 4.066.602.385.108.54-.06.834-.284 1.262-.96 2.408-2.066 3.618-3.093-.636.002-1.184-.012-1.795-.136-1.918-.39-3.876-1.08-6.684-1.048-2.81.032-5.226.789-6.775 1.077-.64.12-1.188.223-1.612.152z" fill="#D91521"/>
        <path d="M6.624 19.378c2.847-1.112 5.596-2.472 8.293-3.904.65-.345 1.296-.695 1.94-1.048l.564-2.572-.54-.482c-.685.353-1.365.709-2.041 1.062-2.215 1.158-4.436 2.352-6.707 3.396-.505.232-1.113.506-1.756.762-1.046.418-2.076.772-3.112.926a97.6 97.6 0 0 0 .301 6.697c.027.351.055.701.085 1.052.19.355.399.698.627 1.019.441-.333.911-.6 1.375-.763l.387-.136-.133.388c-.313.914-.363 2.494-.153 3.437.163.728.308 1.566.235 2.312a5.042 5.042 0 0 1-.026.221 5.334 5.334 0 0 1 1.34-.588c-.745-3.579-.95-7.282-1.224-10.911l-.048-.636.593-.232zm10.188 33.835c.382-.088.763-.174 1.146-.25a26.033 26.033 0 0 1 1.628-.275c-5.388-5.26-9.763-12.234-11.765-19.391-.142-.508-.27-1.02-.387-1.534-.296.887-.43 2.118-.313 2.959.053.385.1.799.114 1.211.13-.109.265-.212.407-.31l.3-.205.011.362c.033.995.212 2.307.547 3.241.105.293.231.575.362.855.128.1.247.209.354.328.286.315.46.727.667 1.256.198.505.619 1.606.807 2.137l.508-.797.09.485c.168.91.543 2.15.973 2.95.337.627.792 1.166 1.133 1.78.334.602.578 1.252.678 1.927.747.461 1.357 1.009 1.975 1.667.238.253.548 1.011.765 1.604zm3.284 3.78a74.7 74.7 0 0 0 1.786 1.491c.621-.478 1.231-.97 1.832-1.473a12.679 12.679 0 0 0-1.895-.139 14.49 14.49 0 0 0-1.723.122zm6.875-3.792c.03-.498.047-1.095.366-1.46.316-.36.83-.087.988-.229.063-.056.132-.5.15-.593.076-.384.187-.759.447-1.063.257-.303.623-.151.93-.164-.056-.353-.079-.699-.016-.944.076-.292.4-.355.499-.528.094-.167-.154-.935-.125-1.214a.524.524 0 0 1 .213-.392c.225-.159.44-.087.66-.157.158-.052.02-.43.362-.597.109-.055.266-.06.343.01a.297.297 0 0 0 .075.053l.008-.01a.542.542 0 0 1 .203-.146l.134-.293c.056-.218.143-.435.243-.652.258-.579.503-1.165.748-1.75.317-.757.623-1.532.956-2.282.45-1.013 1.044-1.283 1.945-1.654a1.607 1.607 0 0 1 0-.421c.089-.392.488-.406.666-.65.116-.161-.058-.484-.123-.64-.213-.51-.412-1.047-.236-1.599.019-.144.071-.29.22-.346.19-.071.361.077.468.042.092-.03.188-.07.282-.109-.006-.278.028-.547.157-.768.243-.414.8-.242.927-.412.051-.067.036-.516.036-.61.001-.185.01-.37.04-.549a1.601 1.601 0 0 1-.166-.413c-.064-.293.198-.495.209-.695.01-.192-.557-.767-.656-1.03a.525.525 0 0 1 .015-.446c.087-.162.216-.23.341-.305-.032-.247-.026-.49.063-.703.132-.32.468-.36.684-.426.015-.111.009-.254 0-.326-.023-.17.03-.336.094-.493-.245-.194-.441-.445-.676-.669-.057-.053-.208-.177-.251-.24-.04-.057-.077-.133-.118-.195-.24-.363.024-.817.335-1.038.068-.048.163-.156.172-.243.014-.144-.19-.426-.266-.546a1.785 1.785 0 0 1-.2-.404c-.078-.25-.009-.554.12-.777a1.14 1.14 0 0 1 .807-.555c.057-.1.024-.324.177-.468a.627.627 0 0 1 .413-.177c.042-.003.115.005.167.005a.878.878 0 0 0 .002-.114 1.379 1.379 0 0 1 .137-.606c.101-.204.268-.622.47-.742.035-1.337.05-2.674.091-4.011-1.609-.246-3.307-.924-4.775-1.583-1.915-.86-3.78-1.856-5.63-2.845-1.079-.577-2.157-1.158-3.244-1.72l-.61.545.563 2.573c.473.253.947.506 1.421.756 1.572.832 3.151 1.653 4.755 2.422 1.35.648 2.724 1.273 4.14 1.761l.615.212-.035.649c-.233 4.36-.655 8.761-1.83 12.981-2.127 7.628-6.252 13.84-11.589 19.46.43.059.858.132 1.29.218.469.095.934.204 1.399.315z" fill="#D91521"/>
        <path d="M7.147 20.312c.316 4.21.555 8.626 1.695 12.7 2.032 7.261 6.588 14.348 12.134 19.537a16.955 16.955 0 0 1 1.959-.009c5.508-5.664 9.76-11.888 11.914-19.616 1.139-4.087 1.555-8.38 1.785-12.605-1.398-.491-2.778-1.118-4.111-1.758a136.822 136.822 0 0 1-4.793-2.44l-.627-.333.608 2.775-5.88-3.481-5.88 3.481.606-2.766c-.38.206-.76.41-1.142.613-2.685 1.426-5.438 2.787-8.268 3.902z" fill="#D91521"/>
        <path d="M7.147 20.312c.316 4.21.555 8.626 1.695 12.7.915 3.27 2.343 6.506 4.143 9.55V17.668c-1.91.96-3.855 1.862-5.838 2.643zM18.97 50.543a43.303 43.303 0 0 0 2.006 2.006 16.955 16.955 0 0 1 1.959-.009 67.5 67.5 0 0 0 1.759-1.878V16.777l-2.863-1.695-2.86 1.694v33.767zm11.71-7.907a39.885 39.885 0 0 0 4.169-9.712c1.139-4.087 1.555-8.38 1.785-12.605-1.398-.491-2.778-1.118-4.111-1.758a98.17 98.17 0 0 1-1.844-.909v24.984z" fill="#293484"/>
        <path d="m17.184 12.936-5.482 2.823c-.872.442-1.747.88-2.635 1.29-1.234.572-2.543 1.132-3.854 1.495l-.096.027-.053-.192.095-.026c1.301-.36 2.6-.917 3.825-1.484a82.14 82.14 0 0 0 2.627-1.287l5.628-2.898-.055.252zM26.401 12.584l5.822 2.998c.87.441 1.743.877 2.628 1.287 1.224.567 2.523 1.123 3.825 1.484l.095.026-.053.192-.096-.027c-1.312-.363-2.62-.923-3.854-1.495a82.59 82.59 0 0 1-2.635-1.29l-5.677-2.923-.055-.252zM5.419 18.932c.053 2.27.899 4.522 1.775 6.778-.267.03-.533.064-.798.098-.89-2.289-1.756-4.572-1.81-6.875l-.003-.1h.834l.002.1zM41.12 18.933c-.046 1.555-.56 3.1-1.238 4.645-.376.015-.739.036-1.086.062.692-1.565 1.221-3.132 1.269-4.708l.002-.1 1.056.002-.003.1zM36.95 35.219l-.089.26a.393.393 0 0 0-.207-.008l.108-.316.033-.094.188.064-.032.094zm-.543 1.543a53.002 53.002 0 0 1-1.065 2.717 3.06 3.06 0 0 0-.294.178 53.106 53.106 0 0 0 1.294-3.3c.007.136.031.272.065.405zm-4.059 8.297c-.175.28-.352.558-.533.834a.516.516 0 0 1-.027-.023.239.239 0 0 0-.162-.052c.461-.7.9-1.416 1.32-2.142-.162.383-.326.766-.495 1.146-.037.079-.071.158-.103.237zm-1.999 2.918a63.489 63.489 0 0 1-4.189 5.035l-.224-.05a63.189 63.189 0 0 0 4.37-5.26c.018.098.034.193.043.275zM7.257 35.713l.156.214a12.11 12.11 0 0 0-.13.052 5.285 5.285 0 0 0-.026-.266zm3.228 7.325c.088.156.177.312.267.467l-.06.092c-.054-.15-.126-.344-.207-.559zm1.385 2.321a38.53 38.53 0 0 0 1.143 1.69 62.205 62.205 0 0 0 4.86 5.93l-.226.047a62.181 62.181 0 0 1-4.795-5.86l-.034-.048a9.667 9.667 0 0 1-.557-.883 7.474 7.474 0 0 1-.39-.876z" fill="#F6CA00"/>
        <path d="M4.973 17.874c.544 0 .986.43.986.96s-.442.96-.986.96a.973.973 0 0 1-.985-.96c0-.53.44-.96.985-.96z" fill="#161413"/>
        <path d="M5.43 18.073c.685 0 1.242.542 1.242 1.21 0 .668-.557 1.21-1.243 1.21s-1.243-.542-1.243-1.21c0-.668.557-1.21 1.243-1.21z" fill="#F6CA00"/>
        <path d="M11.791 14.867c.544 0 .986.43.986.96s-.442.96-.986.96a.973.973 0 0 1-.985-.96c0-.53.441-.96.985-.96z" fill="#161413"/>
        <path d="M12.247 15.066c.686 0 1.243.542 1.243 1.21 0 .668-.557 1.21-1.243 1.21s-1.243-.542-1.243-1.21c0-.668.557-1.21 1.243-1.21z" fill="#F6CA00"/>
        <path d="M39.185 17.874c.544 0 .986.43.986.96s-.442.96-.986.96a.973.973 0 0 1-.985-.96c0-.53.441-.96.985-.96z" fill="#161413"/>
        <path d="M39.641 18.073c.686 0 1.243.542 1.243 1.21 0 .668-.557 1.21-1.243 1.21s-1.243-.542-1.243-1.21c0-.668.557-1.21 1.243-1.21z" fill="#F6CA00"/>
        <path d="M32.35 14.867c.544 0 .986.43.986.96s-.442.96-.986.96a.973.973 0 0 1-.985-.96c0-.53.441-.96.985-.96z" fill="#161413"/>
        <path d="M32.806 15.066c.686 0 1.243.542 1.243 1.21 0 .668-.557 1.21-1.243 1.21s-1.243-.542-1.243-1.21c0-.668.557-1.21 1.243-1.21z" fill="#F6CA00"/>
        <path d="m10.285 20.158 3.617-.824.34 1.09 1.73-1.423 3.843-.28 2.531 1.92-.194 9.342.168 2.562-2.141 2.188-4.444.2-.974-.832-.169 2.743-4.307.43-1.2-1.527-2.117.42L2.993 34.2l3.935-13.26 3.357-.783z" fill="#161413"/>
        <path d="m7.39 30.023 1.089-.163 2.138-9.37 2.908-.662-1.613 9.565.54-.035 1.266-7.975 2.357-1.977 3.617-.276 2.126 1.65-.003 3.162-3.43.019.037-2.164-1.42.066-.792 7.204 2.028-.086.187-3.243 3.417-.112-.084 4.16-2.567 2.026-4.7.312-1.687-1.42-.52 3.925-3.424.273.312-2.162-5.618.962 3.669-12.456 2.51-.553-2.343 9.33z" fill="#F6CA00"/>
        <path d="M7.458 21.503 3.975 33.327l5.55-.95-.316 2.198 2.812-.224.559-4.227 2.011 1.695 4.488-.298 2.384-1.881.075-3.706-2.831.094-.186 3.24-2.645.111.857-7.802 2.011-.093-.037 2.123H21.5l.019-2.644-1.937-1.49-3.427.26-2.16 1.807-1.285 8.1-1.155.075 1.602-9.497-2.29.521-2.143 9.385-1.732.26 2.31-9.254-1.844.373z" fill="#FFF"/>
        <path d="m26.189 21.48 1.062-2.586 3.966.708-.455 1.303 1.301-1.084 4.774 1.336L41.001 34.3l-3.38 1.935-5.148-.81-5.025-.541-.767-1.339-.156 1.296-4.892-.143.186-16.023 4.19.166.18 2.64z" fill="#161413"/>
        <path d="m25.908 23.212 1.589-3.87 3.19.57-1.781 5.112 3.23 5.252-1.574-8.686 1.595-1.33 4.366 1.222 3.892 12.283-3.087-.67-.608-2.45-1.11-.097.453 2.391-3.274-.489-3.573-.31-3.018-5.235.313 5.033-4.113-.088-.176-12.762 3.415.135.27 3.989zm7.81-.313 1.117 4.649 1.22.169-1.366-4.539-.971-.28z" fill="#F6CA00"/>
        <path d="m22.525 19.398.167 12.16 3.502.074-.373-5.977 3.576 6.201 3.427.298 2.868.428-.447-2.365 1.713.15.615 2.476 2.402.521-3.687-11.638-4.06-1.136-1.341 1.117 1.825 10.075-4.135-6.723 1.714-4.916-2.608-.465-1.955 4.953-.372-5.12-2.831-.113zm10.783 3.073 1.285 5.344 1.88.26-1.545-5.139-1.62-.465zM21.891 35.363a6.829 6.829 0 0 1 6.83 6.828 6.83 6.83 0 0 1-13.658 0 6.829 6.829 0 0 1 6.828-6.828z" fill="#FFF"/>
        <path d="M21.891 35.264a6.928 6.928 0 1 1 0 13.852 6.928 6.928 0 0 1 0-13.852zm4.803 5.447-2.484.879a6.525 6.525 0 0 1-.831 2.537l1.53 2.105c.643-.022 1.317-.25 1.964-.713a5.958 5.958 0 0 0 1.005-3.095c-.243-.733-.65-1.32-1.184-1.713zm-2.536.722 2.476-.877c.19-.623.205-1.307-.038-2.073a6.004 6.004 0 0 0-2.63-1.913c-.77.004-1.453.208-1.992.591v2.699c.812.36 1.545.874 2.184 1.573zm.6 4.872-1.528-2.101a6.517 6.517 0 0 1-2.596-.004l-1.543 2.185c.225.595.62 1.138 1.26 1.596a5.991 5.991 0 0 0 3.167-.023c.628-.461 1.036-1.013 1.24-1.653zm-5.777-.051 1.512-2.142a6.526 6.526 0 0 1-.826-2.557l-2.567-.834c-.522.393-.94.94-1.195 1.705a5.958 5.958 0 0 0 1.056 3.167c.648.45 1.343.676 2.02.66zm-1.848-5.696 2.613.849a6.516 6.516 0 0 1 2.063-1.503V37.18c-.537-.376-1.186-.604-1.995-.61a6.006 6.006 0 0 0-2.629 1.914c-.233.733-.249 1.445-.052 2.074zm9.555-2.226c.363.095.699.237.999.438a6.74 6.74 0 0 0-4.29-3.138c.275.246.532.525.708.813a6.174 6.174 0 0 1 2.583 1.887zm1.907 3.265c-.15.338-.336.668-.555.925a6.121 6.121 0 0 1-.996 3.038c.022.373-.01.735-.107 1.082a6.701 6.701 0 0 0 1.658-5.045zm-4.066 6.785a3.828 3.828 0 0 1-1.051-.242 6.16 6.16 0 0 1-3.115.015c-.347.142-.7.229-1.061.247a6.708 6.708 0 0 0 2.59.517c.936 0 1.827-.191 2.637-.537zm-7.648-1.7a3.824 3.824 0 0 1-.11-1.072 6.121 6.121 0 0 1-1.03-3.117 3.251 3.251 0 0 1-.549-.94 6.702 6.702 0 0 0 1.689 5.128zm-.762-7.95c.32-.186.666-.344.994-.422a6.174 6.174 0 0 1 2.592-1.875 3.25 3.25 0 0 1 .725-.813 6.74 6.74 0 0 0-4.31 3.11z" fill="#161413"/>
        <path d="M22.67 56.244v-.453h.487c.295-.001.554-.093.554-.392v-.992c0-.256-.33-.376-.635-.376h-.41v-.445h-.57v.445h-.42c-.295 0-.626.119-.626.376v1.002c0 .291.28.382.58.382h.466v.453h.574zm0-.69V54.27l.206-.001c.15 0 .261.01.261.188v.955c0 .11-.102.14-.203.141l-.264.002zm-.574-1.284v1.285h-.244c-.132 0-.228-.053-.228-.143v-.974c0-.129.09-.168.229-.168h.243z" fill="#F6CA00" fill-rule="nonzero"/>
        <path d="M4.956 39.658c.258-.03.53-.067.69-.294l.482.037 1.2 2.578-.764-.055-.915-2.03-.588.002-.105-.238zM38.385 39.8c.38-.055.802-.137 1.251-.432l.57-.05-1.699 2.556-.862.079 1.248-1.965-.685.072.177-.26z" fill="#F6CA00"/>
        <path d="M36.788 40.403c.38-.054.804-.136 1.256-.432l.57-.049-1.727 2.555-.863.079 1.27-1.965-.686.072.18-.26zM8.607 40.579l.732 1.574c.16.342-.17.464-.558.44l-.297-.02c-.574-.035-.936-.35-1.002-.5l-.097-.22.705.081.096.216c.03.068.164.157.342.175.135.013.246-.013.188-.14l-.256-.57c-.107.019-.255.015-.417.003-.595-.042-.841-.208-.977-.53l-.313-.741c-.141-.334.175-.428.61-.407l.193.01c.607.029.9.302 1.051.629zm-.316.7-.433-.89c-.039-.08-.116-.162-.32-.18-.23-.02-.178.094-.146.163l.396.857c.045.097.173.144.286.154.094.01.29.047.217-.105zM20.158 53.763l.451 2.508-.445.036-.404-2.246-.507.04.406 2.25-.445.036-.453-2.513 1.397-.111zM24.375 53.738l-.446-.043-.393 2.45.445.042.206-1.275.337 1.32.445.043-.351-1.346.762-1.074-.446-.043-.743 1.072.184-1.146z" fill="#F6CA00"/>
    </g>
</svg>
