<svg width="900" height="900" viewBox="0 0 900 900" fill="none" xmlns="http://www.w3.org/2000/svg">
<path d="M438.879 63.4201L450 41L461.121 63.4201L486 67.005L468 84.4176L472.299 109L450 97.3917L427.758 109L432 84.4176L414 67.005L438.879 63.4201Z" fill="#303337"/>
<path d="M287.5 112L279.159 128.815L260.5 131.504L274 144.563L270.818 163L287.5 154.294L304.225 163L301 144.563L314.5 131.504L295.841 128.815L287.5 112Z" fill="#303337"/>
<path d="M225 208L219.44 219.21L207 221.003L216 229.709L213.879 242L225 236.196L236.15 242L234 229.709L243 221.003L230.56 219.21L225 208Z" fill="#303337"/>
<path d="M612.5 112L604.159 128.815L585.5 131.504L599 144.563L595.818 163L612.5 154.294L629.225 163L626 144.563L639.5 131.504L620.841 128.815L612.5 112Z" fill="#303337"/>
<path d="M669.439 219.21L675 208L680.561 219.21L693 221.003L684 229.709L686.15 242L675 236.196L663.879 242L666 229.709L657 221.003L669.439 219.21Z" fill="#303337"/>
<path d="M450.001 150C469.641 150 488.409 153.691 505.635 160.41L449.925 192.111L394.688 160.286C411.826 153.646 430.483 150 450.001 150Z" fill="#303337"/>
<path d="M300.023 277.411C305.871 239.123 326.355 205.581 355.658 182.536L355.159 246.036L300.023 277.411Z" fill="#303337"/>
<path d="M544.637 182.766C573.819 205.832 594.2 239.331 600 277.55L544.56 245.813L544.637 182.766Z" fill="#303337"/>
<path fill-rule="evenodd" clip-rule="evenodd" d="M567.392 505.073C589.663 466.536 605.688 417.093 612.579 361.749H658.931C658.931 430.673 624.439 488.287 578.341 502.548C575.146 503.536 571.895 504.317 568.597 504.878C568.373 504.916 568.15 504.953 567.926 504.989C567.894 504.994 567.862 504.999 567.83 505.004C567.684 505.027 567.538 505.05 567.392 505.073ZM619.821 450.167C613.71 459.662 606.79 467.612 599.336 473.893C611.329 444.74 620.321 411.935 625.678 376.787H643.297C641.023 405.249 632.388 430.641 619.821 450.167Z" fill="#303337"/>
<path fill-rule="evenodd" clip-rule="evenodd" d="M332.612 505.073C310.336 466.536 294.317 417.093 287.42 361.749H241.073C241.073 436.031 281.13 497.175 332.612 505.073ZM300.667 473.893C288.673 444.74 279.683 411.934 274.323 376.787H256.708C258.982 405.25 267.616 430.641 280.183 450.167C286.294 459.662 293.213 467.611 300.667 473.893Z" fill="#303337"/>
<path d="M290.56 740.034C290.309 738.758 290.096 737.414 289.92 736C289.508 732.689 289.302 729 289.302 724.932C289.302 719.036 289.722 714.002 290.56 709.83C291.458 705.567 292.865 702.302 294.781 700.034C296.698 697.676 299.212 696.497 302.326 696.497C307.057 696.497 310.38 699.036 312.296 704.116C314.212 709.195 315.17 716.134 315.17 724.932C315.17 729 314.964 732.689 314.552 736C314.377 737.414 314.163 738.758 313.913 740.034C313.074 744.206 311.697 747.426 309.781 749.694C307.925 751.961 305.41 753.095 302.236 753.095C299.182 753.095 296.697 751.961 294.781 749.694C292.865 747.426 291.458 744.206 290.56 740.034Z" fill="#303337"/>
<path d="M428.976 752.823L428.976 731.599H433.557C435.054 731.599 436.401 732.007 437.598 732.823C438.701 733.575 439.575 734.634 440.221 736C440.276 736.118 440.33 736.238 440.383 736.361C441.101 737.812 441.46 739.671 441.46 741.939C441.46 745.476 440.772 748.197 439.395 750.102C438.077 751.916 436.011 752.823 433.197 752.823H428.976Z" fill="#303337"/>
<path d="M625.266 697.993C626.584 696.905 628.44 696.361 630.835 696.361H634.518V718.537H631.284C628.53 718.537 626.284 717.676 624.548 715.952C622.811 714.138 621.943 710.964 621.943 706.429C621.943 704.887 622.183 703.345 622.662 701.803C623.141 700.261 624.009 698.991 625.266 697.993Z" fill="#303337"/>
<path d="M762.374 710.646C762.913 713.821 763.333 716.27 763.632 717.993L766.416 733.912H752.764L755.548 717.993C755.907 715.816 756.327 713.141 756.806 709.966C757.345 706.791 757.854 703.571 758.333 700.306C758.871 697.041 759.261 694.32 759.5 692.143C759.8 694.32 760.219 697.132 760.758 700.578C761.297 704.025 761.835 707.381 762.374 710.646Z" fill="#303337"/>
<path fill-rule="evenodd" clip-rule="evenodd" d="M122.668 81.2706C254.703 8.75739 450 0 450 0C450 0 645.497 8.92474 777.332 81.2706C777.332 81.2706 847.786 358.104 740.276 605.286C744.68 601.62 749.481 598.371 754.615 595.6C754.615 595.6 756.051 628.421 733.092 650H748.611C759.349 641.36 772.161 635.322 785.939 632.419C800.273 629.399 815.183 629.873 829.271 633.794C829.271 633.794 819.794 643.181 804.74 650H900L857.254 821.941C794.472 813.096 703.903 806.382 598.365 803.089C557.327 839.72 508.344 872.605 450 900C391.656 872.605 342.673 839.72 301.635 803.089C195.865 806.389 105.13 813.125 42.3333 822L0 650H95.2595C80.2061 643.181 70.7294 633.794 70.7294 633.794C84.8169 629.873 99.7269 629.399 114.061 632.419C127.839 635.322 140.651 641.36 151.389 650H166.908C143.949 628.421 145.385 595.6 145.385 595.6C150.519 598.371 155.32 601.62 159.724 605.286C52.2142 358.104 122.668 81.2706 122.668 81.2706ZM337.568 802.115C370.108 828.462 407.373 852.471 450 873.38C492.627 852.471 529.892 828.462 562.432 802.115C526.293 801.28 488.659 800.839 450 800.839C411.341 800.839 373.707 801.28 337.568 802.115ZM695.035 643.167C691.179 645.177 687.491 647.461 684.002 650H516.481V638.559H507.999V612.295H517.701V582.912C534.585 571.814 549.554 557.296 563.138 539.01C601.894 536.508 635.581 513.492 659.462 480.006C684.799 444.478 700 396.169 700 343.502V328.464H630.634C630.868 324.158 631.048 319.825 631.173 315.469L631.617 300H518.26V262.5L450.001 225L381.742 262.5V300H268.369L268.822 315.478C268.949 319.83 269.131 324.16 269.365 328.464C269.365 328.464 269.365 328.463 269.365 328.464L200 328.464V343.502C200 396.166 215.201 444.475 240.538 480.004C264.418 513.489 298.104 536.507 336.86 539.01C350.444 557.302 365.42 571.817 382.299 582.912L382.299 612.295H392.001V638.559H383.519V650H215.998C212.509 647.461 208.821 645.177 204.966 643.167C199.629 633.442 194.619 623.627 189.919 613.745C157.015 544.569 139.266 472.067 130.706 403.411C119.995 317.505 123.819 238.21 130.37 180.299C133.64 151.386 137.577 127.916 140.677 111.755C141.785 105.976 142.785 101.136 143.609 97.3204C204.526 66.0186 278.72 47.6371 339.921 37.0945C371.877 31.5898 399.806 28.3011 419.713 26.3917C429.659 25.4377 437.582 24.83 442.98 24.4625C445.679 24.2788 447.745 24.1553 449.115 24.0786C449.275 24.0696 449.425 24.0614 449.566 24.0537C449.568 24.0536 449.569 24.0535 449.571 24.0534L449.991 24.0308C450.241 24.0443 450.534 24.0604 450.869 24.0794C452.241 24.1572 454.31 24.2824 457.011 24.4683C462.415 24.8399 470.346 25.4535 480.301 26.4139C500.227 28.3364 528.177 31.6409 560.148 37.1562C621.375 47.7187 695.562 66.0992 756.393 97.3256C757.216 101.14 758.216 105.978 759.323 111.755C762.423 127.916 766.36 151.386 769.63 180.299C776.181 238.21 780.005 317.505 769.294 403.411C759.511 481.875 737.727 565.362 695.035 643.167ZM509.941 570.015C507.553 571.6 505.127 573.105 502.663 574.532V597.257H483.927V625.393H492.961V650H407.038V625.393H416.067V597.257H397.336V574.532C394.872 573.105 392.447 571.6 390.059 570.016C373.342 558.925 358.43 543.928 344.736 524.199H343.905C343.118 524.199 342.333 524.189 341.549 524.17C329.796 523.874 318.427 521.372 307.644 516.947C254.125 494.984 215.037 425.641 215.037 343.502H285.493C284.686 334.152 284.134 324.653 283.853 315.037H585.457C583.441 389.6 565.209 455.709 537.564 500C572.489 462.731 597.784 395.045 604.242 315.037H616.141C615.899 323.451 615.446 331.776 614.797 339.989C614.704 341.162 614.607 342.333 614.506 343.502H684.962C684.962 438.538 632.641 516.437 566.184 523.653C562.855 524.015 559.49 524.199 556.094 524.199H555.263C541.565 543.923 526.66 558.924 509.941 570.015ZM79.3705 758.037L67.5 735L79.3707 711.915L67.0655 701.983L50 734.092V735.861L50.0742 736L67.0653 767.833L79.3705 758.037ZM104.609 758.037L92.5 735L104.61 711.915L92.2147 701.983L75.239 734.092V735.861L92.2145 767.833L104.609 758.037ZM198.709 773.639L198.709 676.497H181.284L181.284 752.143H165.297L165.297 676.497H148.231L148.231 752.143H132.243L132.244 676.497H114.819L114.819 773.639H198.709ZM212.531 773.639L212.531 676.497H229.956V723.571L248.279 676.497H267.321L247.561 722.891L268.578 773.639H248.998L229.956 724.388L229.956 773.639H212.531ZM331.607 745.476C332.189 742.478 332.63 739.319 332.929 736C333.245 732.49 333.403 728.801 333.403 724.932C333.403 714.864 332.326 706.111 330.17 698.673C328.074 691.145 324.721 685.34 320.11 681.259C315.559 677.086 309.631 675 302.326 675C295.141 675 289.243 677.041 284.632 681.122C280.021 685.204 276.608 691.009 274.393 698.537C272.177 705.975 271.069 714.728 271.069 724.796C271.069 728.723 271.228 732.458 271.546 736C271.846 739.329 272.285 742.488 272.865 745.476C274.123 751.553 276.009 756.814 278.524 761.259C281.099 765.703 284.332 769.104 288.224 771.463C292.176 773.821 296.847 775 302.236 775C307.745 775 312.445 773.821 316.338 771.463C320.29 769.104 323.523 765.703 326.038 761.259C328.553 756.814 330.409 751.553 331.607 745.476ZM348.199 736C347.589 741.254 346.978 745.183 346.368 747.789C345.709 750.601 344.991 752.46 344.212 753.367C343.494 754.184 342.655 754.592 341.697 754.592C340.979 754.592 340.29 754.456 339.632 754.184C338.973 753.912 338.224 753.594 337.386 753.231V773.503C338.404 773.957 339.452 774.32 340.53 774.592C341.667 774.864 342.895 775 344.212 775C348.224 775 351.488 774.002 354.002 772.007C356.577 769.921 358.583 766.973 360.02 763.163C361.517 759.354 362.655 754.773 363.433 749.422C363.912 746.156 364.391 742.347 364.87 737.993C364.942 737.332 365.012 736.667 365.082 736C365.483 732.182 365.861 728.266 366.218 724.252C366.637 719.444 366.996 714.773 367.296 710.238C367.655 705.703 367.954 701.621 368.194 697.993H380.409L380.409 773.639H397.834L397.834 676.497H353.554C353.074 683.118 352.566 689.512 352.027 695.68C351.488 701.848 350.979 707.517 350.5 712.687C350.081 717.857 349.661 722.347 349.242 726.156C348.883 729.966 348.584 732.823 348.344 734.728C348.314 734.997 348.284 735.263 348.254 735.525L348.199 736ZM411.641 773.639H432.928C438.377 773.639 443.017 772.324 446.85 769.694C450.682 767.063 453.616 763.299 455.652 758.401C457.747 753.413 458.795 747.517 458.795 740.714C458.795 739.088 458.729 737.516 458.597 736C458.25 732.021 457.448 728.422 456.191 725.204C454.454 720.669 451.82 717.132 448.287 714.592C444.754 712.052 440.233 710.782 434.724 710.782H428.976V676.497H411.641L411.641 773.639ZM463.286 773.639H480.711L480.711 676.497H463.286L463.286 773.639ZM517.862 773.639H533.22L533.221 731.463C533.221 728.107 533.161 724.66 533.041 721.122C532.921 717.494 532.802 714.138 532.682 711.054C532.562 707.971 532.442 705.522 532.323 703.708H532.682L545.795 773.639H562.322L575.256 703.844H575.615C575.555 705.658 575.465 708.152 575.346 711.327C575.226 714.41 575.136 717.721 575.076 721.259C575.016 724.705 574.986 727.971 574.986 731.054V773.639H590.884L590.884 676.497H567.801L554.687 745.476H554.328L540.945 676.497H517.862L517.862 773.639ZM616.554 773.639L629.218 738.265H634.518V773.639H651.853L651.853 676.497H630.566C621.883 676.497 615.356 678.946 610.985 683.844C606.614 688.651 604.428 695.771 604.428 705.204C604.428 709.649 604.878 713.549 605.776 716.905C606.734 720.261 607.991 723.118 609.548 725.476C611.105 727.744 612.752 729.649 614.488 731.19L596.884 773.639H616.554ZM668.533 736.769C668.344 736.518 668.161 736.262 667.983 736C664.937 731.521 663.413 725.383 663.413 717.585V676.497H680.838V708.878C680.838 713.231 681.407 716.542 682.545 718.81C683.742 720.986 685.808 722.075 688.742 722.075C690.539 722.075 692.604 721.712 694.94 720.986C697.275 720.261 699.82 719.127 702.574 717.585V676.497H719.999L719.999 773.639H702.574V737.721C698.622 739.717 695.029 741.213 691.796 742.211C688.622 743.118 685.598 743.571 682.724 743.571C676.736 743.571 672.006 741.304 668.533 736.769ZM726.896 773.639L747.824 676.088H770.907L792.104 773.639H773.152L770.009 755.408H749.171L745.938 773.639H726.896ZM795.39 758.037L807.5 735L795.39 711.915L807.785 701.983L824.761 734.092V735.861L824.687 736L807.785 767.833L795.39 758.037ZM820.539 758.037L832.5 735L820.54 711.915L833.024 701.983L850 734.092V735.861L833.024 767.833L820.539 758.037Z" fill="#303337"/>
<path d="M36.7661 334.726C41.2246 347.956 42.067 362.039 39.2147 375.66C-1.32578 349.427 13.7176 300 13.7176 300C24.3782 309.549 32.3076 321.496 36.7661 334.726Z" fill="#303337"/>
<path d="M76.1537 363.699C71.5443 376.877 63.4861 388.738 52.7283 398.18C36.1551 354.443 79.0924 322.81 79.0924 322.81C81.7741 336.456 80.7631 350.522 76.1537 363.699Z" fill="#303337"/>
<path d="M57.3687 455.998C66.9895 445.512 73.6368 432.888 76.6873 419.308C79.7377 405.729 79.0912 391.639 74.8087 378.361C74.8087 378.361 35.8491 414.238 57.3687 455.998Z" fill="#303337"/>
<path d="M84.4236 478.477C84.1382 492.361 80.128 505.948 72.7693 517.965C43.2946 480.834 74.4011 438.592 74.4011 438.592C81.2603 450.87 84.709 464.594 84.4236 478.477Z" fill="#303337"/>
<path d="M100.102 574.287C105.657 561.429 107.677 547.451 105.974 533.655C104.271 519.86 98.8998 506.697 90.3618 495.396C90.3618 495.396 65.5786 541.207 100.102 574.287Z" fill="#303337"/>
<path d="M135.536 582.413C140.11 595.609 141.078 609.685 138.348 623.33C97.5526 597.435 112.188 547.863 112.188 547.863C122.93 557.332 130.962 569.218 135.536 582.413Z" fill="#303337"/>
<path d="M30.9877 383.59C37.3715 396.094 40.307 409.921 39.5211 423.786C-4.53809 403.243 3.00903 352.273 3.00903 352.273C14.9791 360.313 24.6039 371.087 30.9877 383.59Z" fill="#303337"/>
<path d="M47.9857 469.308C46.4541 455.501 41.2504 442.286 32.8596 430.894C24.4689 419.502 13.1643 410.305 0 404.16C0 404.16 1.0199 455.613 47.9857 469.308Z" fill="#303337"/>
<path d="M37.7173 477.951C47.4803 488.321 54.3106 500.859 57.5728 514.396C9.2301 506.054 1.73386 455.083 1.73386 455.083C15.5759 459.714 27.9543 467.581 37.7173 477.951Z" fill="#303337"/>
<path d="M73.483 555.915C67.4637 543.255 58.153 532.242 46.4186 523.903C34.6842 515.564 20.9081 510.17 6.37439 508.223C6.37439 508.223 24.6304 556.783 73.483 555.915Z" fill="#303337"/>
<path d="M60.8837 564.233C74.4639 569.503 86.412 577.938 95.6144 588.753C48.2917 601.291 17.95 558.615 17.95 558.615C32.5333 557.03 47.3035 558.963 60.8837 564.233Z" fill="#303337"/>
<path d="M122.795 621.257C112.597 611.264 99.8824 603.884 85.843 599.81C71.8034 595.736 56.8995 595.101 42.5297 597.966C42.5297 597.966 76.8998 637.845 122.795 621.257Z" fill="#303337"/>
<path d="M764.464 582.413C759.89 595.609 758.922 609.685 761.652 623.33C802.448 597.435 787.812 547.863 787.812 547.863C777.07 557.332 769.038 569.218 764.464 582.413Z" fill="#303337"/>
<path d="M799.898 574.287C794.343 561.429 792.323 547.451 794.026 533.655C795.729 519.86 801.1 506.697 809.638 495.396C809.638 495.396 834.421 541.207 799.898 574.287Z" fill="#303337"/>
<path d="M815.576 478.477C815.862 492.361 819.872 505.948 827.231 517.965C856.705 480.834 825.599 438.592 825.599 438.592C818.74 450.87 815.291 464.594 815.576 478.477Z" fill="#303337"/>
<path d="M842.631 455.998C833.01 445.512 826.363 432.888 823.313 419.308C820.262 405.729 820.909 391.639 825.191 378.361C825.191 378.361 864.151 414.238 842.631 455.998Z" fill="#303337"/>
<path d="M823.846 363.699C828.456 376.877 836.514 388.738 847.272 398.18C863.845 354.443 820.908 322.81 820.908 322.81C818.226 336.456 819.237 350.522 823.846 363.699Z" fill="#303337"/>
<path d="M863.234 334.726C858.775 347.956 857.933 362.039 860.785 375.66C901.326 349.427 886.282 300 886.282 300C875.622 309.549 867.692 321.496 863.234 334.726Z" fill="#303337"/>
<path d="M860.479 423.786C859.693 409.921 862.628 396.094 869.012 383.59C875.396 371.087 885.021 360.313 896.991 352.273C896.991 352.273 904.538 403.243 860.479 423.786Z" fill="#303337"/>
<path d="M867.14 430.894C858.75 442.286 853.546 455.501 852.014 469.308C898.98 455.613 900 404.16 900 404.16C886.836 410.305 875.531 419.502 867.14 430.894Z" fill="#303337"/>
<path d="M842.427 514.396C845.689 500.859 852.52 488.321 862.283 477.951C872.046 467.581 884.424 459.714 898.266 455.083C898.266 455.083 890.77 506.054 842.427 514.396Z" fill="#303337"/>
<path d="M853.581 523.903C841.847 532.242 832.536 543.255 826.517 555.915C875.37 556.783 893.626 508.223 893.626 508.223C879.092 510.17 865.316 515.564 853.581 523.903Z" fill="#303337"/>
<path d="M804.386 588.753C813.588 577.938 825.536 569.503 839.116 564.233C852.697 558.963 867.467 557.03 882.05 558.615C882.05 558.615 851.708 601.291 804.386 588.753Z" fill="#303337"/>
<path d="M814.157 599.81C800.118 603.884 787.403 611.264 777.205 621.257C823.1 637.845 857.47 597.966 857.47 597.966C843.101 595.101 828.197 595.736 814.157 599.81Z" fill="#303337"/>
<path d="M337.568 802.115C370.108 828.462 407.373 852.471 450 873.38C492.627 852.471 529.892 828.462 562.432 802.115C526.293 801.28 488.659 800.839 450 800.839C411.341 800.839 373.707 801.28 337.568 802.115Z" fill="white"/>
<path fill-rule="evenodd" clip-rule="evenodd" d="M684.002 650H516.481V638.559H507.999V612.295H517.701V582.912C534.585 571.814 549.554 557.296 563.138 539.01C601.894 536.508 635.581 513.492 659.462 480.006C684.799 444.478 700 396.169 700 343.502V328.464H630.634C630.868 324.158 631.048 319.825 631.173 315.469L631.617 300H518.26V262.5L450.001 225L381.742 262.5V300H268.369L268.822 315.478C268.949 319.83 269.131 324.16 269.365 328.464H200V343.502C200 396.166 215.201 444.475 240.538 480.004C264.418 513.489 298.104 536.507 336.86 539.01C350.444 557.302 365.42 571.817 382.299 582.912L382.299 612.295H392.001V638.559H383.519V650H215.998C212.509 647.461 208.821 645.177 204.965 643.167C162.273 565.362 140.489 481.875 130.706 403.411C119.995 317.505 123.819 238.21 130.37 180.299C133.64 151.386 137.577 127.916 140.676 111.755C141.785 105.976 142.785 101.136 143.608 97.3204C204.526 66.0186 278.72 47.6371 339.921 37.0945C371.877 31.5898 399.806 28.3011 419.713 26.3917C429.659 25.4377 437.582 24.83 442.98 24.4625C445.679 24.2788 447.745 24.1553 449.115 24.0786C449.277 24.0695 449.429 24.0611 449.571 24.0534L449.991 24.0308C450.241 24.0443 450.534 24.0604 450.869 24.0794C452.241 24.1572 454.31 24.2824 457.011 24.4683C462.415 24.8399 470.346 25.4535 480.301 26.4139C500.227 28.3364 528.177 31.6409 560.148 37.1562C621.375 47.7187 695.562 66.0992 756.393 97.3256C757.216 101.14 758.216 105.978 759.323 111.755C762.423 127.916 766.36 151.386 769.63 180.299C776.181 238.21 780.005 317.505 769.294 403.411C759.511 481.875 737.727 565.362 695.035 643.167C691.179 645.177 687.491 647.461 684.002 650ZM438.879 63.4201L450 41L461.121 63.4201L486 67.005L468 84.4176L472.299 109L450 97.3917L427.758 109L432 84.4176L414 67.005L438.879 63.4201ZM287.5 112L279.159 128.815L260.5 131.504L274 144.563L270.818 163L287.5 154.294L304.225 163L301 144.563L314.5 131.504L295.841 128.815L287.5 112ZM225 208L219.439 219.21L207 221.003L216 229.709L213.879 242L225 236.196L236.15 242L234 229.709L243 221.003L230.56 219.21L225 208ZM612.5 112L604.159 128.815L585.5 131.504L599 144.563L595.818 163L612.5 154.294L629.225 163L626 144.563L639.5 131.504L620.841 128.815L612.5 112ZM669.439 219.21L675 208L680.561 219.21L693 221.003L684 229.709L686.15 242L675 236.196L663.879 242L666 229.709L657 221.003L669.439 219.21ZM450.001 150C469.641 150 488.409 153.691 505.635 160.41L449.925 192.111L394.687 160.286C411.826 153.646 430.483 150 450.001 150ZM300.023 277.411C305.871 239.123 326.355 205.581 355.658 182.536L355.159 246.036L300.023 277.411ZM544.637 182.766C573.819 205.832 594.2 239.331 600 277.55L544.56 245.813L544.637 182.766Z" fill="white"/>
<path d="M274.323 376.787C279.683 411.934 288.673 444.74 300.666 473.893C293.213 467.611 286.294 459.662 280.183 450.167C267.616 430.641 258.982 405.25 256.708 376.787H274.323Z" fill="white"/>
<path d="M599.336 473.893C606.79 467.612 613.71 459.662 619.821 450.167C632.388 430.641 641.023 405.249 643.297 376.787H625.678C620.321 411.935 611.329 444.74 599.336 473.893Z" fill="white"/>
<path fill-rule="evenodd" clip-rule="evenodd" d="M492.961 625.393V650H407.038V625.393H416.067V597.257H397.336V574.532C377.628 563.114 360.386 546.746 344.736 524.199H343.905C272.731 524.199 215.037 443.294 215.037 343.502H285.493C284.686 334.152 284.134 324.653 283.853 315.037H585.457C583.441 389.6 565.209 455.709 537.564 500C572.489 462.731 597.784 395.045 604.242 315.037H616.141C615.865 324.653 615.312 334.152 614.506 343.502H684.962C684.962 443.3 627.268 524.199 556.094 524.199H555.263C539.608 546.74 522.377 563.114 502.663 574.532V597.257H483.927V625.393H492.961ZM241.073 361.749H287.42C294.317 417.093 310.336 466.536 332.612 505.073C281.13 497.175 241.073 436.03 241.073 361.749ZM612.579 361.749C605.688 417.093 589.663 466.536 567.392 505.073C618.869 497.175 658.931 436.03 658.931 361.749H612.579Z" fill="white"/>
<path d="M271.547 736H289.92C289.508 732.689 289.302 729 289.302 724.932C289.302 719.036 289.722 714.002 290.56 709.83C291.458 705.567 292.865 702.302 294.781 700.034C296.698 697.676 299.212 696.497 302.326 696.497C307.057 696.497 310.38 699.036 312.296 704.116C314.212 709.195 315.17 716.134 315.17 724.932C315.17 729 314.964 732.689 314.553 736H332.929C333.245 732.49 333.403 728.801 333.403 724.932C333.403 714.864 332.326 706.111 330.17 698.673C328.074 691.145 324.721 685.34 320.11 681.258C315.559 677.086 309.631 675 302.326 675C295.141 675 289.243 677.041 284.632 681.122C280.021 685.204 276.608 691.009 274.393 698.537C272.177 705.975 271.069 714.728 271.069 724.796C271.069 728.723 271.228 732.458 271.547 736Z" fill="white"/>
<path d="M365.083 736H348.199C348.247 735.584 348.296 735.16 348.344 734.728C348.584 732.823 348.883 729.966 349.242 726.156C349.661 722.347 350.081 717.857 350.5 712.687C350.979 707.517 351.488 701.848 352.027 695.68C352.566 689.512 353.074 683.118 353.554 676.497H397.834V736H380.409V697.993H368.194C367.954 701.621 367.655 705.703 367.296 710.238C366.996 714.773 366.637 719.444 366.218 724.252C365.861 728.266 365.483 732.182 365.083 736Z" fill="white"/>
<path d="M458.597 736C458.25 732.021 457.448 728.422 456.191 725.204C454.454 720.669 451.82 717.132 448.287 714.592C444.754 712.052 440.233 710.782 434.724 710.782H428.976V676.497H411.641V736H428.976V731.599H433.557C435.054 731.599 436.401 732.007 437.598 732.823C438.701 733.575 439.575 734.634 440.221 736H458.597Z" fill="white"/>
<path d="M480.711 736H463.287V676.497H480.711V736Z" fill="white"/>
<path d="M533.221 736H517.862V676.497H540.945L552.49 736H538.737L532.682 703.708H532.323C532.442 705.522 532.562 707.971 532.682 711.054C532.802 714.138 532.921 717.494 533.041 721.122C533.161 724.66 533.221 728.107 533.221 731.463V736Z" fill="white"/>
<path d="M574.986 736V731.054C574.986 727.971 575.016 724.705 575.076 721.258C575.136 717.721 575.226 714.41 575.346 711.327C575.465 708.152 575.555 705.658 575.615 703.844H575.256L569.297 736H556.489L567.801 676.497H590.884V736H574.986Z" fill="white"/>
<path fill-rule="evenodd" clip-rule="evenodd" d="M651.853 736H612.494L614.488 731.19C612.752 729.649 611.105 727.744 609.548 725.476C607.991 723.118 606.734 720.261 605.776 716.905C604.878 713.549 604.429 709.649 604.429 705.204C604.429 695.771 606.614 688.651 610.985 683.844C615.356 678.946 621.883 676.497 630.566 676.497H651.853V736ZM630.835 696.361C628.44 696.361 626.584 696.905 625.266 697.993C624.009 698.991 623.141 700.261 622.662 701.803C622.183 703.345 621.943 704.887 621.943 706.429C621.943 710.964 622.811 714.138 624.548 715.952C626.284 717.676 628.53 718.537 631.284 718.537H634.518V696.361H630.835Z" fill="white"/>
<path d="M719.999 736H667.983C664.937 731.521 663.413 725.383 663.413 717.585V676.497H680.838V708.878C680.838 713.231 681.407 716.542 682.545 718.81C683.742 720.986 685.808 722.075 688.742 722.075C690.539 722.075 692.604 721.712 694.94 720.986C697.275 720.261 699.82 719.127 702.574 717.585V676.497H719.999V736Z" fill="white"/>
<path fill-rule="evenodd" clip-rule="evenodd" d="M783.925 736H734.971L747.824 676.088H770.907L783.925 736ZM763.632 717.993C763.332 716.27 762.913 713.821 762.374 710.646C761.836 707.381 761.297 704.025 760.758 700.578C760.219 697.132 759.8 694.32 759.5 692.143C759.261 694.32 758.871 697.041 758.333 700.306C757.854 703.571 757.345 706.791 756.806 709.966C756.327 713.141 755.908 715.816 755.548 717.993L752.764 733.912H766.416L763.632 717.993Z" fill="white"/>
<path d="M824.687 736H806.974L807.5 735L795.39 711.915L807.785 701.983L824.761 734.092V735.861L824.687 736Z" fill="white"/>
<path d="M234.446 736L229.956 724.388V736H212.531V676.497H229.956V723.571L248.279 676.497H267.321L247.561 722.891L252.99 736H234.446Z" fill="white"/>
<path d="M198.709 736H181.284V676.497H198.709V736Z" fill="white"/>
<path d="M165.297 736V676.497H148.231V736H165.297Z" fill="white"/>
<path d="M132.244 736V676.497H114.819V736H132.244Z" fill="white"/>
<path d="M93.0257 736H75.313L75.239 735.861V734.092L92.2147 701.983L104.61 711.915L92.5 735L93.0257 736Z" fill="white"/>
<path d="M68.0153 736H50.0744L50 735.861V734.092L67.0655 701.983L79.3707 711.915L67.5 735L68.0153 736Z" fill="white"/>
<path d="M849.926 736H831.981L832.5 735L820.54 711.915L833.024 701.983L850 734.092V735.861L849.926 736Z" fill="white"/>
<path d="M419.133 360.773H421.499C422.736 360.773 423.653 361.257 424.25 362.224C424.847 363.191 425.146 364.457 425.146 366.022C425.146 367.495 424.932 368.692 424.506 369.613C424.079 370.488 423.546 371.133 422.907 371.547C422.267 371.915 421.627 372.099 420.988 372.099H419.133V360.773Z" fill="#FEC311"/>
<path d="M557.432 360.773H555.065V372.099H556.92C557.56 372.099 558.2 371.915 558.839 371.547C559.479 371.133 560.012 370.488 560.439 369.613C560.865 368.692 561.078 367.495 561.078 366.022C561.078 364.457 560.78 363.191 560.183 362.224C559.586 361.257 558.669 360.773 557.432 360.773Z" fill="#FEC311"/>
<path fill-rule="evenodd" clip-rule="evenodd" d="M537.564 500C565.209 455.709 583.441 389.6 585.457 315.037H301.511C309.801 434.806 351.427 533.687 407.371 574.227C425.466 592.273 433.188 619.356 430.565 650H492.961V625.393H483.927V597.257H502.663L502.663 574.532C522.377 563.114 539.608 546.74 555.263 524.199H556.094C559.49 524.199 562.855 524.015 566.184 523.653C570.412 517.011 574.47 509.966 578.342 502.548C574.759 503.656 571.105 504.503 567.393 505.073C589.663 466.536 605.688 417.093 612.579 361.749H621.438C622.33 355.737 623.136 349.653 623.852 343.502H614.507C615.313 334.152 615.865 324.653 616.141 315.037H604.242C597.784 395.045 572.489 462.731 537.564 500ZM335.787 399.309H348.837V360.912H358.624V350H326V360.912H335.787V399.309ZM385.588 392.887C387.123 390.493 388.552 387.592 389.874 384.185L402.987 350H388.723L383.861 366.644C383.69 367.196 383.498 367.864 383.285 368.646C383.072 369.429 382.859 370.258 382.646 371.133C382.432 372.007 382.24 372.882 382.07 373.757H381.814C381.686 372.882 381.537 372.053 381.366 371.271C381.238 370.488 381.068 369.728 380.854 368.992C380.684 368.209 380.471 367.426 380.215 366.644L375.161 350H361.024L374.586 385.29C374.458 385.843 374.223 386.418 373.882 387.017C373.583 387.615 373.136 388.122 372.539 388.536C371.941 388.904 371.153 389.088 370.172 389.088C369.148 389.088 367.975 388.996 366.653 388.812C365.331 388.628 364.095 388.306 362.943 387.845V398.964C364.265 399.332 365.673 399.586 367.165 399.724C368.658 399.908 369.873 400 370.811 400C374.564 400 377.592 399.401 379.895 398.204C382.198 397.007 384.095 395.235 385.588 392.887ZM421.563 350C426.979 350 431.073 351.358 433.845 354.075C436.66 356.791 438.067 360.658 438.067 365.677C438.067 367.933 437.79 370.097 437.236 372.169C436.681 374.194 435.786 376.036 434.549 377.693C433.312 379.305 431.67 380.594 429.623 381.561C427.576 382.482 425.039 382.942 422.011 382.942H419.133V399.309H406.083V350H421.563ZM468.815 399.309H481.993V350H468.815V368.301H457.365V350H444.252V399.309H457.365V379.213H468.815V399.309ZM490.416 350H502.698V372.583C502.698 373.596 502.677 374.655 502.634 375.76C502.634 376.865 502.613 377.97 502.57 379.075C502.57 380.134 502.528 381.146 502.442 382.113C502.4 383.08 502.314 383.932 502.186 384.669H502.506L518.946 350H533.595V399.309H521.249V374.862C521.292 373.665 521.334 372.445 521.377 371.202C521.391 370.786 521.406 370.378 521.42 369.978C521.448 369.182 521.477 368.415 521.505 367.68C521.59 366.529 521.676 365.516 521.761 364.641H521.569L505.129 399.309H490.416V350ZM569.778 354.075C567.006 351.358 562.912 350 557.496 350H542.016V399.309H555.065V382.942H557.944C560.972 382.942 563.509 382.482 565.556 381.561C567.603 380.594 569.245 379.305 570.482 377.693C571.719 376.036 572.614 374.194 573.168 372.169C573.723 370.097 574 367.933 574 365.677C574 360.658 572.593 356.791 569.778 354.075Z" fill="#FEC311"/>
<path d="M236.973 343.501C225.33 421.547 251.83 489.049 307.644 516.947C254.125 494.985 215.037 425.641 215.037 343.501H236.973Z" fill="#FEC311"/>
<path d="M68.0151 736L79.3705 758.037L67.0653 767.833L50.0742 736H68.0151Z" fill="#FEC311"/>
<path d="M104.609 758.037L93.0255 736H75.3129L92.2145 767.833L104.609 758.037Z" fill="#FEC311"/>
<path d="M198.709 736V773.639H114.819V736H132.243V752.143H148.231V736H165.297V752.143H181.284V736H198.709Z" fill="#FEC311"/>
<path d="M212.531 773.639V736H229.956V773.639H212.531Z" fill="#FEC311"/>
<path d="M252.99 736L268.578 773.639H248.998L234.446 736H252.99Z" fill="#FEC311"/>
<path d="M331.607 745.476C332.189 742.478 332.63 739.319 332.929 736H314.552C314.377 737.414 314.163 738.758 313.913 740.034C313.074 744.206 311.697 747.426 309.781 749.694C307.925 751.961 305.41 753.095 302.236 753.095C299.182 753.095 296.697 751.961 294.781 749.694C292.865 747.426 291.458 744.206 290.56 740.034C290.309 738.758 290.096 737.414 289.92 736H271.546C271.846 739.329 272.285 742.488 272.865 745.476C274.123 751.553 276.009 756.814 278.524 761.259C281.099 765.703 284.332 769.104 288.224 771.463C292.176 773.821 296.847 775 302.236 775C307.745 775 312.445 773.821 316.338 771.463C320.29 769.104 323.523 765.703 326.038 761.259C328.553 756.814 330.409 751.553 331.607 745.476Z" fill="#FEC311"/>
<path d="M346.368 747.789C346.978 745.183 347.589 741.254 348.199 736H365.082C365.012 736.667 364.942 737.332 364.87 737.993C364.391 742.347 363.912 746.156 363.433 749.422C362.655 754.773 361.517 759.354 360.02 763.163C358.583 766.973 356.577 769.921 354.002 772.007C351.488 774.002 348.224 775 344.212 775C342.895 775 341.667 774.864 340.53 774.592C339.452 774.32 338.404 773.957 337.386 773.503V753.231C338.224 753.594 338.973 753.912 339.632 754.184C340.29 754.456 340.979 754.592 341.697 754.592C342.655 754.592 343.494 754.184 344.212 753.367C344.991 752.46 345.709 750.601 346.368 747.789Z" fill="#FEC311"/>
<path d="M380.409 736V773.639H397.834V736H380.409Z" fill="#FEC311"/>
<path d="M411.641 773.639V736H428.976V752.823H433.197C436.011 752.823 438.077 751.916 439.395 750.102C440.772 748.197 441.46 745.476 441.46 741.939C441.46 739.671 441.101 737.812 440.383 736.361C440.33 736.238 440.276 736.118 440.221 736H458.597C458.729 737.516 458.795 739.088 458.795 740.714C458.795 747.517 457.747 753.413 455.652 758.401C453.616 763.299 450.682 767.063 446.85 769.694C443.017 772.324 438.377 773.639 432.928 773.639H411.641Z" fill="#FEC311"/>
<path d="M463.286 736V773.639H480.711V736H463.286Z" fill="#FEC311"/>
<path d="M517.862 773.639V736H533.22V773.639H517.862Z" fill="#FEC311"/>
<path d="M538.737 736L545.795 773.639H562.322L569.297 736H556.489L554.687 745.476H554.328L552.489 736H538.737Z" fill="#FEC311"/>
<path d="M574.986 736H590.884V773.639H574.986V736Z" fill="#FEC311"/>
<path d="M616.554 773.639L629.218 738.265H634.518V773.639H651.853V736H612.493L596.884 773.639H616.554Z" fill="#FEC311"/>
<path d="M667.983 736C668.161 736.262 668.344 736.518 668.533 736.769C672.006 741.304 676.736 743.571 682.724 743.571C685.598 743.571 688.622 743.118 691.796 742.211C695.029 741.213 698.622 739.717 702.574 737.721V773.639H719.999V736H667.983Z" fill="#FEC311"/>
<path d="M726.896 773.639L734.971 736H783.925L792.104 773.639H773.152L770.009 755.408H749.171L745.938 773.639H726.896Z" fill="#FEC311"/>
<path d="M806.974 736L795.39 758.037L807.785 767.833L824.687 736H806.974Z" fill="#FEC311"/>
<path d="M820.539 758.037L831.981 736H849.926L833.024 767.833L820.539 758.037Z" fill="#FEC311"/>
<path d="M348.837 399.309H335.787V360.912H326V350H358.624V360.912H348.837V399.309Z" fill="#303337"/>
<path d="M389.874 384.185C388.552 387.592 387.123 390.493 385.588 392.887C384.095 395.235 382.198 397.007 379.895 398.204C377.592 399.401 374.564 400 370.811 400C369.873 400 368.658 399.908 367.165 399.724C365.673 399.586 364.265 399.332 362.943 398.964V387.845C364.095 388.306 365.331 388.628 366.653 388.812C367.975 388.996 369.148 389.088 370.172 389.088C371.153 389.088 371.941 388.904 372.539 388.536C373.136 388.122 373.583 387.615 373.882 387.017C374.223 386.418 374.458 385.843 374.585 385.29L361.024 350H375.161L380.215 366.644C380.471 367.426 380.684 368.209 380.854 368.992C381.068 369.728 381.238 370.488 381.366 371.271C381.537 372.053 381.686 372.882 381.814 373.757H382.07C382.24 372.882 382.432 372.007 382.646 371.133C382.859 370.258 383.072 369.429 383.285 368.646C383.498 367.864 383.69 367.196 383.861 366.644L388.723 350H402.987L389.874 384.185Z" fill="#303337"/>
<path d="M421.563 350C426.979 350 431.073 351.358 433.845 354.075C436.66 356.791 438.067 360.658 438.067 365.677C438.067 367.933 437.79 370.097 437.236 372.169C436.681 374.194 435.786 376.036 434.549 377.693C433.312 379.305 431.67 380.594 429.623 381.561C427.576 382.482 425.039 382.942 422.011 382.942H419.132V399.309H406.083V350H421.563ZM421.499 360.773H419.132V372.099H420.988C421.627 372.099 422.267 371.915 422.907 371.547C423.546 371.133 424.079 370.488 424.506 369.613C424.932 368.692 425.146 367.495 425.146 366.022C425.146 364.457 424.847 363.191 424.25 362.224C423.653 361.257 422.736 360.773 421.499 360.773Z" fill="#303337"/>
<path d="M481.993 399.309H468.815V379.213H457.365V399.309H444.252V350H457.365V368.301H468.815V350H481.993V399.309Z" fill="#303337"/>
<path d="M490.416 350H502.698V372.583C502.698 373.596 502.677 374.655 502.634 375.76C502.634 376.865 502.613 377.97 502.57 379.075C502.57 380.134 502.528 381.146 502.442 382.113C502.4 383.08 502.314 383.932 502.186 384.669H502.506L518.946 350H533.595V399.309H521.249V377.97C521.249 377.049 521.249 376.013 521.249 374.862C521.292 373.665 521.334 372.445 521.377 371.202C521.42 369.959 521.462 368.785 521.505 367.68C521.59 366.529 521.676 365.516 521.761 364.641H521.569L505.129 399.309H490.416V350Z" fill="#303337"/>
<path d="M557.496 350C562.912 350 567.006 351.358 569.778 354.075C572.593 356.791 574 360.658 574 365.677C574 367.933 573.723 370.097 573.168 372.169C572.614 374.194 571.718 376.036 570.482 377.693C569.245 379.305 567.603 380.594 565.556 381.561C563.509 382.482 560.972 382.942 557.944 382.942H555.065V399.309H542.016V350H557.496ZM557.432 360.773H555.065V372.099H556.92C557.56 372.099 558.2 371.915 558.839 371.547C559.479 371.133 560.012 370.488 560.439 369.613C560.865 368.692 561.078 367.495 561.078 366.022C561.078 364.457 560.78 363.191 560.183 362.224C559.586 361.257 558.669 360.773 557.432 360.773Z" fill="#303337"/>
</svg>
