<?xml version="1.0" standalone="no"?>
<!DOCTYPE svg PUBLIC "-//W3C//DTD SVG 20010904//EN"
 "http://www.w3.org/TR/2001/REC-SVG-20010904/DTD/svg10.dtd">
<svg version="1.0" xmlns="http://www.w3.org/2000/svg"
 width="992.000000pt" height="992.000000pt" viewBox="0 0 992.000000 992.000000"
 preserveAspectRatio="xMidYMid meet">
<metadata>
Created by potrace 1.14, written by Peter Selinger 2001-2017
</metadata>
<g transform="translate(0.000000,992.000000) scale(0.100000,-0.100000)"
fill="#000000" stroke="none">
<path d="M4868 8994 c-2 -1 -37 -5 -78 -8 -97 -8 -127 -13 -230 -37 -100 -24
-284 -88 -288 -100 -2 -5 -8 -9 -14 -9 -11 0 -99 -41 -108 -50 -3 -3 -29 -21
-59 -40 -57 -36 -424 -308 -452 -335 -9 -8 -21 -15 -27 -15 -5 0 -12 -4 -14
-8 -1 -4 -113 -90 -248 -191 -135 -101 -247 -188 -248 -192 -2 -5 -8 -7 -13
-4 -4 3 -14 -3 -21 -15 -7 -11 -16 -20 -20 -20 -10 0 -172 -122 -176 -132 -2
-5 -10 -8 -17 -8 -7 0 -15 -3 -17 -7 -1 -5 -57 -48 -123 -98 -66 -49 -123 -94
-127 -100 -4 -5 -8 -6 -8 -2 0 4 -15 -6 -32 -22 -18 -17 -36 -31 -40 -31 -4 0
-13 -6 -20 -13 -16 -16 -283 -216 -318 -238 -14 -9 -35 -26 -47 -38 -12 -11
-25 -21 -28 -21 -8 0 -139 -103 -143 -112 -2 -5 -8 -8 -14 -8 -6 0 -25 -12
-43 -27 -17 -16 -42 -35 -54 -43 -13 -8 -31 -22 -41 -30 -10 -8 -31 -24 -46
-35 -15 -11 -124 -93 -243 -182 -119 -89 -236 -176 -261 -195 -67 -49 -70 -51
-91 -70 -10 -10 -22 -18 -25 -18 -18 0 -172 -159 -227 -234 -21 -28 -45 -59
-53 -69 -7 -9 -14 -22 -14 -27 0 -6 -5 -10 -12 -10 -6 0 -8 -3 -5 -7 4 -3 1
-13 -7 -22 -7 -9 -29 -45 -47 -81 -19 -36 -38 -68 -44 -72 -5 -4 -7 -8 -3 -8
4 0 -5 -26 -19 -57 -21 -49 -61 -164 -69 -198 -42 -195 -46 -230 -46 -365 0
-105 2 -127 22 -229 5 -29 7 -57 4 -62 -3 -5 -1 -9 3 -9 5 0 10 -12 11 -27 1
-16 4 -39 7 -53 3 -14 8 -38 10 -55 3 -16 7 -41 10 -55 3 -14 8 -41 11 -60 4
-19 8 -44 10 -55 3 -11 6 -33 9 -50 3 -16 8 -41 10 -55 3 -14 7 -41 10 -60 3
-19 7 -46 10 -60 4 -14 8 -38 11 -55 22 -131 60 -336 65 -347 1 -2 2 -14 3
-28 1 -14 6 -41 9 -60 4 -19 9 -46 11 -60 3 -14 5 -25 6 -25 1 0 3 -11 6 -25
2 -14 6 -38 9 -55 3 -16 7 -41 9 -55 3 -24 30 -174 42 -235 3 -16 7 -39 9 -50
1 -11 5 -36 9 -55 3 -19 8 -46 10 -60 3 -14 7 -35 10 -46 2 -12 7 -39 10 -60
4 -22 15 -88 26 -149 11 -60 22 -123 25 -140 2 -16 7 -41 10 -55 3 -14 7 -41
10 -60 5 -35 10 -61 21 -113 3 -16 7 -38 9 -50 2 -12 8 -49 15 -82 15 -84 31
-175 36 -205 2 -14 8 -45 13 -70 5 -25 12 -64 15 -85 4 -33 28 -163 51 -277 3
-15 9 -38 15 -52 5 -13 6 -27 3 -30 -4 -3 -1 -6 5 -6 6 0 9 -6 6 -14 -3 -8 -1
-17 5 -21 6 -3 11 -14 11 -23 0 -30 115 -247 176 -332 60 -85 221 -255 283
-300 19 -14 43 -33 53 -43 10 -9 21 -17 24 -17 3 0 20 -11 38 -25 18 -14 38
-25 44 -25 7 0 12 -4 12 -9 0 -5 8 -11 17 -14 10 -3 46 -21 80 -41 60 -33 229
-104 267 -112 10 -2 33 -8 50 -13 17 -6 42 -12 56 -15 14 -3 36 -7 50 -11 29
-6 75 -13 145 -21 45 -6 4828 -7 4932 -1 24 1 43 4 43 7 0 3 15 7 33 8 69 5
240 55 357 105 14 6 28 11 32 11 4 1 13 7 19 14 7 6 21 12 30 12 10 0 21 4 24
10 3 5 31 22 61 37 30 14 54 31 54 36 0 6 3 8 6 4 6 -6 81 46 164 113 68 55
240 231 240 246 0 6 20 31 43 52 9 9 17 22 17 29 0 6 7 18 15 27 22 22 120
219 144 291 19 56 43 152 55 220 3 17 8 41 11 55 5 23 8 40 19 120 2 14 5 25
6 25 1 0 3 11 5 25 2 23 5 38 20 110 3 14 8 45 11 70 3 25 8 47 9 50 2 3 6 24
9 46 4 22 9 51 11 64 3 14 8 42 11 63 8 49 12 72 14 72 1 0 3 11 5 25 2 14 6
41 10 60 7 39 9 55 20 120 3 24 8 47 10 50 2 3 6 30 10 60 4 30 9 58 10 61 2
3 7 28 11 55 3 27 9 53 12 58 3 5 6 28 7 52 2 23 6 47 9 53 4 6 9 27 11 48 2
21 7 49 10 63 3 14 7 39 10 55 2 17 6 39 8 50 3 11 7 36 11 55 3 19 8 46 11
60 6 29 26 145 30 175 2 11 4 20 5 20 1 0 3 9 4 20 3 23 18 115 22 130 1 6 5
28 8 50 4 22 8 47 11 55 2 8 6 31 9 50 3 19 8 46 11 60 3 14 7 41 10 60 2 19
4 35 5 35 2 0 7 22 14 70 13 82 17 100 22 119 4 10 8 35 10 55 1 20 6 47 9 61
3 14 8 41 11 60 3 19 8 43 10 53 7 23 17 85 18 115 1 12 3 22 6 22 3 0 6 15 8
33 2 32 9 72 12 72 1 0 3 9 4 20 2 11 6 43 11 70 27 163 20 333 -20 510 -8 39
-17 75 -18 80 -21 73 -52 154 -99 255 -22 47 -39 87 -38 89 1 2 -2 7 -7 10 -5
3 -21 27 -36 53 -76 131 -210 281 -342 381 -44 34 -84 65 -90 69 -75 60 -238
178 -245 178 -4 0 -10 3 -12 8 -4 8 -135 112 -143 112 -3 0 -15 9 -27 19 -18
16 -271 205 -677 508 -13 10 -94 70 -180 135 -86 64 -176 131 -201 150 -25 18
-50 38 -56 43 -6 6 -21 17 -34 25 -25 17 -166 124 -193 145 -9 8 -21 15 -26
15 -5 0 -11 4 -13 8 -1 5 -39 35 -83 67 -89 66 -87 65 -131 100 -18 14 -37 25
-44 25 -6 0 -8 5 -5 10 3 6 1 10 -5 10 -11 0 -71 43 -114 82 -11 10 -23 18
-26 18 -4 0 -18 9 -31 20 -35 29 -72 57 -249 187 -30 22 -68 52 -85 67 -16 14
-34 26 -38 26 -5 0 -15 6 -22 13 -49 43 -192 147 -204 147 -6 0 -11 3 -11 8 0
4 -10 12 -23 18 -12 7 -58 30 -102 53 -44 22 -86 41 -92 41 -7 0 -13 5 -13 12
0 6 -3 9 -6 6 -3 -4 -21 0 -40 8 -19 8 -34 12 -34 9 0 -3 -10 0 -22 6 -21 11
-102 36 -143 44 -11 2 -31 6 -44 9 -21 5 -54 10 -151 22 -40 5 -268 12 -272 8z
m238 -487 c29 -3 57 -8 64 -12 6 -4 14 -5 17 -2 2 3 22 -1 44 -8 22 -8 42 -14
44 -14 17 2 105 -26 105 -33 0 -4 3 -7 8 -6 14 3 115 -42 120 -54 2 -5 8 -8
14 -8 12 0 102 -61 106 -72 2 -4 10 -8 17 -8 7 0 15 -3 17 -8 2 -4 50 -42 108
-85 58 -43 112 -84 120 -90 8 -7 31 -23 50 -37 19 -13 37 -27 40 -30 3 -3 21
-17 40 -30 19 -13 37 -27 40 -30 3 -3 34 -27 70 -53 88 -64 121 -90 136 -104
7 -7 16 -13 19 -13 4 0 19 -10 34 -22 15 -13 40 -32 55 -43 16 -11 34 -26 41
-32 8 -7 16 -13 19 -13 3 0 14 -8 25 -17 10 -10 53 -43 96 -73 43 -30 83 -60
89 -66 6 -5 38 -30 71 -54 33 -24 62 -47 63 -52 2 -4 10 -8 17 -8 7 0 15 -3
17 -7 4 -11 85 -73 94 -73 4 0 17 -11 30 -25 13 -14 26 -25 29 -25 6 0 73 -47
85 -60 3 -3 32 -25 65 -50 33 -24 65 -48 70 -52 6 -5 98 -74 205 -153 107 -80
202 -151 210 -158 8 -6 49 -37 90 -66 41 -30 79 -58 85 -63 5 -5 33 -25 60
-45 28 -21 55 -41 60 -46 6 -4 125 -94 265 -198 140 -104 262 -195 270 -202 8
-7 33 -25 55 -41 57 -41 152 -153 207 -244 41 -67 105 -209 113 -252 2 -8 4
-16 5 -17 2 -2 3 -6 4 -10 1 -5 5 -17 8 -28 4 -11 9 -36 12 -55 3 -19 8 -46
11 -60 7 -31 7 -187 0 -220 -6 -31 -86 -478 -90 -505 -6 -37 -16 -90 -20 -105
-2 -8 -7 -30 -10 -47 -15 -96 -22 -134 -29 -168 -2 -11 -11 -63 -20 -115 -9
-52 -18 -106 -21 -120 -12 -61 -25 -138 -29 -170 -3 -19 -6 -35 -7 -35 -1 0
-3 -10 -4 -21 -1 -12 -6 -34 -10 -50 -5 -16 -8 -32 -7 -36 1 -4 -3 -31 -8 -60
-6 -29 -13 -64 -15 -78 -3 -14 -7 -36 -10 -50 -2 -13 -7 -40 -10 -60 -3 -20
-8 -47 -10 -60 -3 -14 -8 -41 -11 -60 -7 -41 -12 -63 -14 -70 -1 -3 -2 -8 -1
-13 1 -4 -3 -27 -9 -52 -6 -25 -13 -62 -16 -83 -3 -20 -7 -44 -9 -52 -3 -8 -7
-35 -10 -59 -3 -24 -7 -47 -10 -51 -2 -3 -6 -28 -10 -54 -3 -27 -7 -52 -10
-56 -3 -4 -7 -27 -9 -51 -3 -24 -8 -55 -11 -69 -3 -14 -8 -40 -11 -59 -3 -18
-8 -43 -10 -55 -2 -11 -6 -34 -9 -51 -8 -45 -15 -84 -26 -145 -6 -30 -12 -68
-14 -85 -2 -16 -4 -31 -5 -32 -4 -4 -6 -14 -15 -73 -9 -58 -11 -68 -14 -72 -1
-2 -5 -21 -7 -43 -6 -43 -7 -48 -19 -110 -10 -57 -43 -155 -56 -171 -6 -8 -9
-14 -5 -14 9 0 -41 -87 -89 -156 -47 -66 -221 -244 -239 -244 -4 0 -25 -13
-48 -30 -22 -16 -47 -30 -55 -30 -7 0 -13 -4 -13 -8 0 -5 -28 -21 -62 -37 -83
-36 -188 -76 -188 -70 0 2 -11 0 -26 -5 -14 -6 -38 -12 -55 -15 -16 -3 -44 -8
-61 -11 -46 -8 -4789 -8 -4863 0 -191 22 -397 108 -558 235 -49 38 -165 160
-197 206 -18 28 -36 52 -40 55 -24 19 -101 215 -114 290 -3 19 -8 46 -11 60
-3 14 -7 41 -10 60 -4 37 -4 38 -6 43 -3 5 -30 144 -34 172 -2 17 -6 41 -9 55
-5 27 -22 122 -31 180 -3 19 -8 42 -10 50 -5 16 -10 49 -20 115 -3 23 -8 52
-11 65 -10 48 -13 66 -28 152 -9 48 -18 97 -21 110 -3 13 -7 39 -9 58 -3 19
-5 35 -6 35 -1 0 -3 11 -5 25 -2 14 -6 39 -10 55 -8 43 -24 134 -30 175 -3 19
-8 45 -11 58 -4 20 -12 63 -40 226 -3 16 -7 33 -10 38 -3 4 -7 29 -10 55 -2
27 -9 73 -15 103 -5 30 -12 69 -15 85 -2 17 -7 41 -10 55 -3 14 -8 39 -10 55
-3 17 -7 41 -10 55 -3 14 -8 36 -10 50 -2 14 -7 41 -10 60 -4 19 -8 42 -9 50
-8 51 -15 89 -20 115 -3 17 -10 55 -15 85 -6 30 -12 67 -15 83 -3 15 -7 39
-10 55 -3 15 -10 54 -15 87 -12 62 -18 96 -25 130 -2 11 -6 36 -9 55 -3 19
-10 60 -16 90 -30 156 -30 281 1 395 6 22 11 48 12 58 1 9 5 17 9 17 4 0 7 3
6 8 -7 26 72 193 138 292 69 102 128 158 325 305 101 76 196 147 210 159 14
12 36 28 49 36 12 8 45 33 74 55 29 22 65 49 80 60 48 35 301 224 311 232 23
19 249 189 269 203 18 12 121 90 151 113 5 4 44 33 85 63 41 31 84 63 95 72
11 9 23 16 28 14 4 -1 7 1 7 5 0 5 34 33 76 63 42 30 84 63 93 73 8 9 20 17
25 17 5 0 16 7 25 15 23 22 361 275 368 275 3 0 11 6 17 13 6 7 99 78 206 158
107 79 202 150 210 156 8 7 103 78 210 158 188 140 282 198 365 225 22 7 46
17 53 23 6 5 12 7 12 3 0 -3 11 -1 26 4 14 6 37 12 52 15 15 3 38 7 52 10 14
3 52 8 85 11 33 3 61 7 62 8 4 3 169 -2 229 -7z"/>
<path d="M4967 5784 c-3 -3 -48 -7 -100 -9 -53 -2 -105 -6 -115 -9 -11 -4 -33
-9 -48 -11 -25 -4 -49 -9 -124 -30 -132 -35 -373 -162 -454 -239 -12 -12 -42
-40 -67 -62 -62 -58 -99 -100 -147 -166 -84 -115 -170 -295 -183 -383 -1 -5
-6 -21 -11 -35 -9 -25 -12 -44 -24 -149 -14 -135 -5 -265 29 -406 34 -141 140
-346 236 -459 76 -89 209 -206 292 -255 42 -25 152 -85 159 -86 3 0 14 -6 25
-12 23 -12 100 -38 100 -33 0 2 10 -2 23 -9 13 -7 31 -14 40 -16 54 -13 149
-32 162 -33 8 -1 33 -4 55 -7 54 -7 243 -8 280 -2 17 3 55 9 85 12 30 3 69 10
85 15 17 5 62 19 100 31 39 11 90 30 115 42 25 11 50 21 55 23 20 4 142 79
213 131 73 54 174 150 222 213 14 18 34 44 46 59 83 106 175 324 198 466 2 17
5 30 6 30 5 0 10 86 11 180 1 111 -2 134 -23 235 -6 30 -12 57 -13 60 -11 56
-66 189 -109 265 -148 265 -404 477 -691 573 -54 18 -79 24 -180 48 -33 7 -78
12 -167 18 -31 3 -61 7 -66 10 -5 3 -12 3 -15 0z m143 -497 c193 -36 378 -144
492 -287 68 -86 127 -217 143 -315 9 -58 5 -240 -5 -252 -2 -2 -4 -7 -5 -13
-1 -5 -3 -11 -4 -12 -2 -2 -4 -13 -7 -26 -2 -12 -11 -38 -19 -57 -8 -20 -14
-38 -14 -40 -1 -6 -67 -111 -84 -132 -7 -8 -39 -42 -72 -75 -114 -114 -258
-187 -425 -218 -59 -11 -214 -15 -265 -6 -63 10 -145 30 -175 43 -99 44 -130
60 -184 96 -65 44 -186 163 -186 184 0 7 -5 13 -10 13 -6 0 -16 12 -22 28 -7
15 -17 34 -24 42 -14 18 -52 119 -59 157 -3 16 -7 39 -10 53 -11 49 -6 186 10
253 59 255 247 446 532 542 34 12 59 17 56 12 -4 -6 -1 -7 6 -3 7 5 27 10 44
13 18 3 34 7 36 9 5 5 217 -3 251 -9z"/>
</g>
</svg>
