<?xml version="1.0" encoding="UTF-8"?>
<svg width="90px" height="64px" viewBox="0 0 90 64" version="1.1" xmlns="http://www.w3.org/2000/svg" xmlns:xlink="http://www.w3.org/1999/xlink">
    <title>ico-2@1x</title>
    <g id="Page-1" stroke="none" stroke-width="1" fill="none" fill-rule="evenodd">
        <g id="ШФ_Страница-клуба-2" transform="translate(-635.000000, -1310.000000)">
            <g id="ico-2" transform="translate(635.000000, 1310.000000)">
                <path d="M86.0873422,0 L3.91272751,0 C1.75442104,0 0,1.74307992 0,3.8858667 L0,59.9928413 C0,62.136322 1.7551198,63.8786917 3.91272751,63.8786917 L44.5266224,63.8786917 C44.6671945,63.9559489 44.8282438,64 45.0008734,64 C45.1728356,64 45.334568,63.9559489 45.4751243,63.8786917 L86.0872723,63.8793693 C88.2455788,63.8793693 90,62.1363057 90,59.9935189 L90,3.88654435 C90,1.74306362 88.2455788,0 86.0872723,0 L86.0873422,0 Z M1.95618906,18.7023412 L11.4946634,18.7023412 C12.5735196,18.7023412 13.4510271,19.5745322 13.4510271,20.6452664 L13.4510271,24.2046068 L13.4510271,24.2256148 L13.4510271,39.8960117 L13.4510271,39.9170198 L13.4503448,43.4763602 C13.4503448,44.5478056 12.572121,45.4192854 11.493981,45.4192854 L1.95618906,45.419963 L1.95618906,18.7023412 Z M44.0217656,19.3043548 C37.3746009,19.8024647 32.1195483,25.3331654 32.1195483,32.0606242 C32.1195483,38.7873889 37.3746009,44.318107 44.0217656,44.8161996 L44.0217656,61.935593 L3.91272751,61.935593 C2.83387125,61.935593 1.95636375,61.0634019 1.95636375,59.9926678 L1.95636375,47.3623528 L11.4948381,47.3623528 C13.6531445,47.3623528 15.4075656,45.6192892 15.4075656,43.4765024 L15.4075656,40.6010634 C18.8966676,39.2368519 21.2775303,35.8246839 21.2775303,32.0606242 C21.2775303,28.2967379 18.8973663,24.8845178 15.4075656,23.520185 L15.4075656,20.6447459 C15.4075656,18.5012651 13.6524458,16.7588955 11.4948381,16.7588955 L1.95636375,16.7582178 L1.95636375,3.88536253 C1.95636375,2.8139171 2.83458748,1.94243734 3.91272751,1.94243734 L44.0217656,1.94243734 L44.0217656,19.3043548 Z M15.4073909,38.4664307 L15.4073909,25.6544707 C17.7643209,26.886534 19.3201184,29.3588495 19.3201184,32.0607976 C19.3201184,34.7627458 17.7635872,37.2342979 15.4073909,38.4664307 Z M88.0438806,45.4194276 L78.5054063,45.4194276 C77.4265501,45.4194276 76.5490426,44.5472366 76.5490426,43.4765024 L76.5490426,39.917162 L76.5490426,39.896154 L76.5497249,24.2250631 L76.5497249,24.2040551 L76.5497249,20.6447147 C76.5497249,19.5732692 77.4279486,18.7017895 78.5060887,18.7017895 L88.0438806,18.7017895 L88.0438806,45.4194276 Z M88.0438806,16.758722 L78.5054063,16.758722 C76.3470998,16.758722 74.5926788,18.5017856 74.5926788,20.6445724 L74.5926788,23.5200115 C71.1035768,24.8842229 68.7227141,28.2963909 68.7227141,32.0604507 C68.7227141,35.8243369 71.1028781,39.236557 74.5926788,40.6008899 L74.5926788,43.4763289 C74.5926788,45.6198097 76.3477986,47.3621793 78.5054063,47.3621793 L88.0438806,47.362857 L88.0438806,59.9931719 C88.0438806,61.0646174 87.1656569,61.9360971 86.0875169,61.9360971 L45.9784788,61.9360971 L45.9784788,44.8167037 C52.6263422,44.3185939 57.8813948,38.7885871 57.8813948,32.0611283 C57.8807125,25.3336696 52.6256434,19.8029515 45.9784788,19.3048589 L45.9784788,1.94361916 L86.0875169,1.94361916 C87.1663731,1.94361916 88.0438806,2.81581023 88.0438806,3.88654435 L88.0438806,16.758722 Z M74.5926788,25.6548177 L74.5926788,38.4667776 C72.2357487,37.2347143 70.6799513,34.7623988 70.6799513,32.0604507 C70.6799513,29.3591965 72.2364825,26.8869504 74.5926788,25.6548177 L74.5926788,25.6548177 Z" id="Shape" fill="#303337" fill-rule="nonzero"></path>
                <path d="M45.9783041,21.2556075 C51.54518,21.7489811 55.9241576,26.406207 55.9241576,32.0607976 C55.9241576,37.7148678 51.5446559,42.372753 45.9783041,42.8659878 L45.9783041,21.2556075 Z" id="Path" fill="#F0AA3B"></path>
                <path d="M44.0217656,42.8661613 C38.4555884,42.3727877 34.0759121,37.7150413 34.0759121,32.0609711 C34.0759121,26.406207 38.4554137,21.7484953 44.0217656,21.255781 L44.0217656,42.8661613 Z" id="Path" fill="#F0AA3B"></path>
            </g>
        </g>
    </g>
</svg>