<?xml version="1.0" encoding="UTF-8"?>
<svg width="64px" height="64px" viewBox="0 0 64 64" version="1.1" xmlns="http://www.w3.org/2000/svg" xmlns:xlink="http://www.w3.org/1999/xlink">
    <title>ico-6@1x</title>
    <g id="Page-1" stroke="none" stroke-width="1" fill="none" fill-rule="evenodd">
        <g id="ШФ_Страница-клуба-2" transform="translate(-1068.000000, -1558.000000)" fill-rule="nonzero">
            <g id="Shape-7" transform="translate(1068.000000, 1558.000000)">
                <path d="M62.9677717,0 C63.5285223,0 63.9834907,0.452732115 64,1.01868688 L64,1.04966739 L64,7.34474935 L63.9981569,7.35505386 L63.9981569,62.9508197 C63.9981569,63.5207794 63.5532019,63.9832195 62.996408,64 L62.9659285,64 L1.03222834,64 C0.471477666,64 0.0165093336,63.5477377 0,62.9817997 L0,62.9508197 L0,1.04918033 C0,0.479220609 0.444954927,0.0167804617 1.00174885,0 L1.03222834,0 L62.9677717,0 Z M20.6457464,8.39344262 L2.06445667,8.39344262 L2.06445667,61.9016393 L20.6457464,61.9016393 L20.6457464,8.39344262 Z M61.9337002,8.39344262 L43.3524104,8.39344262 L43.3524104,61.9016393 L61.9337002,61.9016393 L61.9337002,8.39344262 Z M16.5180246,55.6023607 C17.0889707,55.6023607 17.5502521,56.0712184 17.550713,56.651541 C17.550713,57.2215007 17.105758,57.6839408 16.5489641,57.7002748 L16.5184846,57.7007213 L6.19301611,57.7007213 C5.62206997,57.7007213 5.16078777,57.2318636 5.16078777,56.651541 C5.16078777,56.0815813 5.6057427,55.6191411 6.16253662,55.6028071 L6.19301611,55.6023607 L16.5180246,55.6023607 Z M57.807158,55.6023607 C58.3781041,55.6023607 58.8393855,56.0712184 58.8398464,56.651541 C58.8398464,57.2215007 58.3948915,57.6839408 57.8380976,57.7002748 L57.8076181,57.7007213 L47.4821496,57.7007213 C46.9112034,57.7007213 46.4499212,57.2318636 46.4499212,56.651541 C46.4499212,56.0815813 46.8948762,55.6191411 47.4516701,55.6028071 L47.4821496,55.6023607 L57.807158,55.6023607 Z M16.5180246,52.4548197 C17.0889707,52.4548197 17.5502521,52.9236774 17.550713,53.504 C17.550713,54.0739597 17.105758,54.5363999 16.5489641,54.5527338 L16.5184846,54.5531803 L6.19301611,54.5531803 C5.62206997,54.5531803 5.16078777,54.0843226 5.16078777,53.504 C5.16078777,52.9340403 5.6057427,52.4716001 6.16253662,52.4552662 L6.19301611,52.4548197 L16.5180246,52.4548197 Z M57.807158,52.4548197 C58.3781041,52.4548197 58.8393855,52.9236774 58.8398464,53.504 C58.8398464,54.0739597 58.3948915,54.5363999 57.8380976,54.5527338 L57.8076181,54.5531803 L47.4821496,54.5531803 C46.9112034,54.5531803 46.4499212,54.0843226 46.4499212,53.504 C46.4499212,52.9340403 46.8948762,52.4716001 47.4516701,52.4552662 L47.4821496,52.4548197 L57.807158,52.4548197 Z M16.5180246,49.3072787 C17.0889707,49.3072787 17.5502521,49.7761364 17.550713,50.356459 C17.550713,50.9264187 17.105758,51.3888589 16.5489641,51.4051929 L16.5184846,51.4056393 L6.19301611,51.4056393 C5.62206997,51.4056393 5.16078777,50.9367816 5.16078777,50.356459 C5.16078777,49.7864993 5.6057427,49.3240592 6.16253662,49.3077252 L6.19301611,49.3072787 L16.5180246,49.3072787 Z M57.807158,49.3072787 C58.3781041,49.3072787 58.8393855,49.7761364 58.8398464,50.356459 C58.8398464,50.9264187 58.3948915,51.3888589 57.8380976,51.4051929 L57.8076181,51.4056393 L47.4821496,51.4056393 C46.9112034,51.4056393 46.4499212,50.9367816 46.4499212,50.356459 C46.4499212,49.7864993 46.8948762,49.3240592 47.4516701,49.3077252 L47.4821496,49.3072787 L57.807158,49.3072787 Z M47.4848629,30.4276684 C49.1922275,30.4276684 50.5815479,31.8398052 50.5815479,33.5752094 C50.5815479,34.9239318 49.7366463,36.0664892 48.5607917,36.5126565 L48.5170912,36.5288618 L48.5170912,37.7701321 C48.5170912,38.3504547 48.055809,38.8193124 47.4848629,38.8193124 C46.9241122,38.8193124 46.4691438,38.3670501 46.4530738,37.8011121 L46.4526345,37.7701321 L46.4526345,36.5288618 C45.2545182,36.094681 44.3881778,34.9415419 44.3881778,33.5752094 C44.3881778,31.8398052 45.7774982,30.4276684 47.4848629,30.4276684 Z M6.1957294,30.4274286 C7.90309405,30.4274286 9.29241441,31.8395653 9.29241441,33.5749696 C9.29241441,34.923692 8.44751284,36.0662494 7.27165826,36.5124166 L7.22795773,36.528622 L7.22795773,37.7698923 C7.22795773,38.3502149 6.76667553,38.8190726 6.1957294,38.8190726 C5.63497873,38.8190726 5.18001039,38.3668103 5.16394034,37.8008723 L5.16350106,37.7698923 L5.16350106,36.528622 C3.96491291,36.0939616 3.09904439,34.9408225 3.09904439,33.5749696 C3.09904439,31.8395653 4.48836474,30.4274286 6.1957294,30.4274286 Z M47.4848629,32.526029 C46.915297,32.526029 46.4526345,32.9962896 46.4526345,33.5752094 C46.4526345,34.1541291 46.915297,34.6243897 47.4848629,34.6243897 C48.0544288,34.6243897 48.5170912,34.1541291 48.5170912,33.5752094 C48.5170912,32.9962896 48.0544288,32.526029 47.4848629,32.526029 Z M6.1957294,32.5259091 C5.6261635,32.5259091 5.16350106,32.9961697 5.16350106,33.5750895 C5.16350106,34.1540092 5.6261635,34.6242698 6.1957294,34.6242698 C6.7652953,34.6242698 7.22795773,34.1540092 7.22795773,33.5750895 C7.22795773,32.9961697 6.7652953,32.5259091 6.1957294,32.5259091 Z M16.5180246,18.8810492 C17.0889707,18.8810492 17.5502521,19.3499069 17.550713,19.9302295 C17.550713,20.5001892 17.105758,20.9626294 16.5489641,20.9789633 L16.5184846,20.9794098 L6.19301611,20.9794098 C5.62206997,20.9794098 5.16078777,20.5105521 5.16078777,19.9302295 C5.16078777,19.3602698 5.6057427,18.8978296 6.16253662,18.8814957 L6.19301611,18.8810492 L16.5180246,18.8810492 Z M57.8067923,18.8810492 C58.3777384,18.8810492 58.8390206,19.3499069 58.8390206,19.9302295 C58.8390206,20.5001892 58.3940657,20.9626294 57.8372718,20.9789633 L57.8067923,20.9794098 L47.4813238,20.9794098 C46.9103776,20.9794098 46.4490954,20.5105521 46.4490954,19.9302295 C46.4490954,19.3602698 46.8940504,18.8978296 47.4508443,18.8814957 L47.4813238,18.8810492 L57.8067923,18.8810492 Z M16.5180246,15.7335082 C17.0889707,15.7335082 17.5502521,16.2023659 17.550713,16.7826885 C17.550713,17.3526482 17.105758,17.8150884 16.5489641,17.8314224 L16.5184846,17.8318689 L6.19301611,17.8318689 C5.62206997,17.8318689 5.16078777,17.3630111 5.16078777,16.7826885 C5.16078777,16.2127288 5.6057427,15.7502887 6.16253662,15.7339547 L6.19301611,15.7335082 L16.5180246,15.7335082 Z M57.8067923,15.7335082 C58.3777384,15.7335082 58.8390206,16.2023659 58.8390206,16.7826885 C58.8390206,17.3526482 58.3940657,17.8150884 57.8372718,17.8314224 L57.8067923,17.8318689 L47.4813238,17.8318689 C46.9103776,17.8318689 46.4490954,17.3630111 46.4490954,16.7826885 C46.4490954,16.2127288 46.8940504,15.7502887 47.4508443,15.7339547 L47.4813238,15.7335082 L57.8067923,15.7335082 Z M16.5180246,12.5859672 C17.0889707,12.5859672 17.5502521,13.0548249 17.550713,13.6351475 C17.550713,14.2051073 17.105758,14.6675474 16.5489641,14.6838814 L16.5184846,14.6843279 L6.19301611,14.6843279 C5.62206997,14.6843279 5.16078777,14.2154702 5.16078777,13.6351475 C5.16078777,13.0651878 5.6057427,12.6027477 6.16253662,12.5864137 L6.19301611,12.5859672 L16.5180246,12.5859672 Z M57.8067923,12.5859672 C58.3777384,12.5859672 58.8390206,13.0548249 58.8390206,13.6351475 C58.8390206,14.2051073 58.3940657,14.6675474 57.8372718,14.6838814 L57.8067923,14.6843279 L47.4813238,14.6843279 C46.9103776,14.6843279 46.4490954,14.2154702 46.4490954,13.6351475 C46.4490954,13.0651878 46.8940504,12.6027477 47.4508443,12.5864137 L47.4813238,12.5859672 L57.8067923,12.5859672 Z M61.9360596,2.09836066 L2.06445667,2.09836066 L2.06563636,6.29508197 L20.6469261,6.29508197 C20.6469261,5.71475934 21.1082083,5.24590164 21.6791544,5.24590164 C22.2399051,5.24590164 22.6948734,5.69816393 22.7109435,6.26410192 L22.7113828,6.29508197 L41.2891335,6.29508197 C41.2891335,5.71475934 41.7504157,5.24590164 42.3213618,5.24590164 C42.8821125,5.24590164 43.3370808,5.69816393 43.3531509,6.26410192 L43.3535901,6.29508197 L61.9360596,6.29508197 L61.9360596,2.09836066 Z" id="Shape" fill="#303337"></path>
                <path d="M37.1625913,12.5859672 C37.7335374,12.5859672 38.1948188,13.0548249 38.1952797,13.6351475 C38.1952797,14.2051073 37.7503248,14.6675474 37.1935309,14.6838814 L37.1630514,14.6843279 L26.8375828,14.6843279 C26.2666367,14.6843279 25.8053545,14.2154702 25.8053545,13.6351475 C25.8053545,13.0651878 26.2503094,12.6027477 26.8071033,12.5864137 L26.8375828,12.5859672 L37.1625913,12.5859672 Z" id="Path" fill="#000000"></path>
                <path d="M37.1625913,55.6023607 C37.7335374,55.6023607 38.1948188,56.0712184 38.1952797,56.651541 C38.1952797,57.2215007 37.7503248,57.6839408 37.1935309,57.7002748 L37.1630514,57.7007213 L26.8375828,57.7007213 C26.2666367,57.7007213 25.8053545,57.2318636 25.8053545,56.651541 C25.8053545,56.0815813 26.2503094,55.6191411 26.8071033,55.6028071 L26.8375828,55.6023607 L37.1625913,55.6023607 Z" id="Path" fill="#000000"></path>
                <polygon id="Path" fill="#F0AA3B" points="41.2879538 8.39344262 22.7102031 8.39344262 22.7102031 61.9016393 41.2879538 61.9016393"></polygon>
                <path d="M26.8402961,30.4274286 C28.5476608,30.4274286 29.9369811,31.8395653 29.9369811,33.5749696 C29.9369811,34.923692 29.0920796,36.0662494 27.916225,36.5124166 L27.8725245,36.528622 L27.8725245,37.7698923 C27.8725245,38.3502149 27.4112423,38.8190726 26.8402961,38.8190726 C26.2795455,38.8190726 25.8245771,38.3668103 25.8085071,37.8008723 L25.8080678,37.7698923 L25.8080678,36.528622 C24.6094796,36.0939616 23.7436111,34.9408225 23.7436111,33.5749696 C23.7436111,31.8395653 25.1329315,30.4274286 26.8402961,30.4274286 Z" id="Path" fill="#303337"></path>
                <path d="M26.8402961,32.5259091 C26.2707302,32.5259091 25.8080678,32.9961697 25.8080678,33.5750895 C25.8080678,34.1540092 26.2707302,34.6242698 26.8402961,34.6242698 C27.409862,34.6242698 27.8725245,34.1540092 27.8725245,33.5750895 C27.8725245,32.9961697 27.409862,32.5259091 26.8402961,32.5259091 Z" id="Path" fill="#F0AA3B"></path>
                <path d="M37.1625913,18.8810492 C37.7335374,18.8810492 38.1948188,19.3499069 38.1952797,19.9302295 C38.1952797,20.5001892 37.7503248,20.9626294 37.1935309,20.9789633 L37.1630514,20.9794098 L26.8375828,20.9794098 C26.2666367,20.9794098 25.8053545,20.5105521 25.8053545,19.9302295 C25.8053545,19.3602698 26.2503094,18.8978296 26.8071033,18.8814957 L26.8375828,18.8810492 L37.1625913,18.8810492 Z" id="Path" fill="#303337"></path>
                <path d="M37.1625913,52.4548197 C37.7335374,52.4548197 38.1948188,52.9236774 38.1952797,53.504 C38.1952797,54.0739597 37.7503248,54.5363999 37.1935309,54.5527338 L37.1630514,54.5531803 L26.8375828,54.5531803 C26.2666367,54.5531803 25.8053545,54.0843226 25.8053545,53.504 C25.8053545,52.9340403 26.2503094,52.4716001 26.8071033,52.4552662 L26.8375828,52.4548197 L37.1625913,52.4548197 Z" id="Path" fill="#303337"></path>
                <path d="M37.1625913,15.7335082 C37.7335374,15.7335082 38.1948188,16.2023659 38.1952797,16.7826885 C38.1952797,17.3526482 37.7503248,17.8150884 37.1935309,17.8314224 L37.1630514,17.8318689 L26.8375828,17.8318689 C26.2666367,17.8318689 25.8053545,17.3630111 25.8053545,16.7826885 C25.8053545,16.2127288 26.2503094,15.7502887 26.8071033,15.7339547 L26.8375828,15.7335082 L37.1625913,15.7335082 Z" id="Path" fill="#303337"></path>
                <path d="M37.1625913,49.3072787 C37.7335374,49.3072787 38.1948188,49.7761364 38.1952797,50.356459 C38.1952797,50.9264187 37.7503248,51.3888589 37.1935309,51.4051929 L37.1630514,51.4056393 L26.8375828,51.4056393 C26.2666367,51.4056393 25.8053545,50.9367816 25.8053545,50.356459 C25.8053545,49.7864993 26.2503094,49.3240592 26.8071033,49.3077252 L26.8375828,49.3072787 L37.1625913,49.3072787 Z" id="Path" fill="#303337"></path>
            </g>
        </g>
    </g>
</svg>