<?xml version="1.0" encoding="UTF-8"?>
<svg width="38px" height="64px" viewBox="0 0 38 64" version="1.1" xmlns="http://www.w3.org/2000/svg" xmlns:xlink="http://www.w3.org/1999/xlink">
    <title>ico-5@1x</title>
    <g id="Page-1" stroke="none" stroke-width="1" fill="none" fill-rule="evenodd">
        <g id="ШФ_Страница-клуба-2" transform="translate(-661.000000, -1558.000000)">
            <g id="ico-5" transform="translate(661.000000, 1558.000000)">
                <path d="M33.7778979,64 C34.897368,64 35.971396,63.5505223 36.7634077,62.7506129 C37.5550801,61.9503036 38,60.86522 38,59.7342128 L38,51.2021813 C37.9942569,47.4300242 36.5761206,43.8003571 34.0310069,41.0404847 C31.4854408,38.2811835 28.0011774,36.5970134 24.277829,36.3256311 L24.277829,34.0251089 C26.3365166,33.0703574 28.1045472,31.5759264 29.3980269,29.6968181 C30.6916196,27.8181668 31.4638395,25.6234552 31.633936,23.3412156 C32.5409098,23.1001824 33.3449662,22.5654507 33.922774,21.8191893 C34.500627,21.0724366 34.820474,20.1552443 34.8332877,19.2076344 C34.8301952,18.2631554 34.5165283,17.3458946 33.9417741,16.600993 C33.36702,15.8555886 32.5638117,15.3244106 31.6582516,15.0900505 C31.6582516,15.0418439 31.6666455,14.9896208 31.6666455,14.9418586 L31.6666455,11.7424039 C31.663553,9.3418988 30.7707098,7.02983572 29.1648476,5.26088008 C27.5585442,3.4923815 25.3553199,2.39531135 22.9887849,2.18551853 C22.5973707,1.47715927 22.0142135,0.896938159 21.3078382,0.511746668 C20.6014289,0.126543751 19.8004939,-0.0470837991 19,0.0109405969 C18.1994948,-0.0470849418 17.3985598,0.126543751 16.6921618,0.511746668 C15.9857525,0.896949585 15.4026406,1.47720497 15.0112151,2.18551853 C12.644567,2.39529992 10.4414558,3.49249577 8.83515243,5.26088008 C7.2293015,7.02972146 6.33640811,9.3418988 6.33335452,11.7424039 L6.33335452,14.9418586 C6.33335452,14.9900653 6.34086478,15.0422884 6.3417484,15.0900505 C5.43609778,15.3243877 4.63298005,15.8555429 4.05822587,16.600993 C3.4834717,17.3459517 3.16979979,18.263224 3.16671226,19.2076344 C3.17952378,20.1552443 3.49937301,21.0724594 4.07722601,21.8191893 C4.65507902,22.565485 5.45914675,23.1002281 6.36606405,23.3412156 C6.53614921,25.6234552 7.30838041,27.8181668 8.60197313,29.6968181 C9.89556585,31.5759264 11.6634834,33.0703002 13.722171,34.0251089 L13.722171,36.3256311 C9.99882255,36.5970134 6.51455917,38.2810693 3.96899308,41.0404847 C1.42387938,43.8002429 0.00576789899,47.4300242 0,51.2021813 L0,59.7342128 C0,60.8652657 0.444874657,61.9504065 1.23659231,62.7506129 C2.02870579,63.5504766 3.10267727,64 4.22210206,64 L33.7778979,64 Z M8.44415459,22.4073176 C8.44415459,22.1243259 8.33282509,21.8533892 8.13490473,21.6529776 C7.93698663,21.4530117 7.66838349,21.3409737 7.38828979,21.3409737 C6.83076015,21.3333856 6.29797592,21.1061908 5.90390402,20.7080415 C5.50939104,20.3094466 5.28452214,19.7711498 5.27745364,19.2078401 C5.27922076,18.7378288 5.43472502,18.2812095 5.71968185,17.9098899 C6.00462737,17.538079 6.40312133,17.2720558 6.85324364,17.1528761 C8.02175212,19.6791883 11.3740324,22.4072948 18.9997603,22.4072948 C26.6254883,22.4072948 29.9775424,19.6791883 31.1462771,17.1528761 C31.5964559,17.2720558 31.9949386,17.538079 32.2798389,17.9098899 C32.5647844,18.2812552 32.7202915,18.7378745 32.7220671,19.2078401 C32.7149986,19.7711384 32.4901297,20.3094352 32.0956167,20.7080415 C31.7015448,21.1061908 31.1687606,21.3333864 30.6112309,21.3409737 C30.028085,21.3409737 29.5553774,21.8181266 29.5553774,22.4073062 C29.5553774,26.2173997 27.5435116,29.738171 24.2778629,31.6432178 C21.0117619,33.5482645 16.9880303,33.5482645 13.7219292,31.6432178 C10.4562805,29.738171 8.44441471,26.2173997 8.44441471,22.4073062 L8.44415459,22.4073176 Z M22.1660994,34.7857793 L22.1660994,37.33803 C22.1660994,38.4811494 21.5626301,39.537198 20.5827546,40.1085292 C19.602879,40.680306 18.3959292,40.680306 17.4160649,40.1085292 C16.4361894,39.537198 15.8327201,38.4811494 15.8327201,37.33803 L15.8327201,34.7857793 C17.9078066,35.3446097 20.0910129,35.3446097 22.1660994,34.7857793 Z M13.84517,38.4525829 C14.1831349,40.0553954 15.2324062,41.4118499 16.6906668,42.1305846 C18.1490405,42.8487707 19.8529457,42.8487707 21.3112063,42.1305846 C22.76958,41.4119528 23.8192245,40.0555097 24.1567031,38.4525829 C25.9251862,38.5793498 27.6471868,39.0828297 29.209835,39.9295883 C28.4451134,43.0236895 26.3457904,45.6075919 23.4910197,46.9681601 C22.580506,45.5564007 21.0003052,44.7345979 19.3338348,44.8064713 C17.6674775,44.8787802 16.162282,45.8339762 15.374568,47.3189574 C12.1063181,46.1048786 9.64116328,43.340207 8.78581779,39.9295883 C10.3501625,39.0815157 12.074425,38.5785043 13.8450569,38.4525829 L13.84517,38.4525829 Z M22.1661002,49.6024539 C22.1665411,50.1630669 21.9915922,50.7089625 21.666441,51.1633307 C21.3412898,51.6172762 20.8827193,51.9560528 20.3556577,52.1310287 C19.9761639,52.2582413 19.7000511,52.5916587 19.643062,52.9915906 L19.1367762,56.5347581 L16.8880873,56.5347581 L16.8880873,49.6024539 C16.8880873,48.649942 17.3912743,47.7697377 18.2076921,47.293476 C19.0241099,46.8172144 20.0300089,46.8172144 20.8464493,47.293476 C21.6628898,47.7697377 22.1661002,48.6499306 22.1661002,49.6024539 L22.1661002,49.6024539 Z M2.1107753,51.2021813 C2.11121706,47.293019 3.88366912,43.59902 6.92086378,41.1771471 C8.12737253,45.0126076 11.0426496,48.0554033 14.7974388,49.3989458 C14.7974388,49.4672381 14.7775588,49.5301691 14.7775588,49.598466 L14.7775588,56.5347695 C14.7775588,57.100296 14.9997699,57.6430606 15.3956061,58.0429696 C15.7914423,58.4428786 16.3286486,58.6674117 16.888361,58.6674117 L19.1370499,58.6674117 C19.644659,58.66518 20.1345911,58.4790553 20.5176135,58.1429526 C20.901077,57.8068498 21.1524556,57.3426433 21.2257871,56.8351755 L21.648133,53.8951051 C22.4384822,53.4982928 23.1037924,52.8859057 23.5685041,52.1275207 C24.03282,51.3691699 24.278442,50.4943133 24.2775598,49.6024653 C24.2704913,49.3913356 24.2492858,49.1811086 24.2139433,48.9731098 C27.4923719,47.4778218 29.9871578,44.6443618 31.075255,41.1802665 C34.112902,43.6008825 35.8862482,47.2935103 35.8885102,51.2022155 L35.8885102,59.7342471 C35.8885102,60.2997735 35.666299,60.8425382 35.2704628,61.2424471 C34.8746266,61.6423561 34.3374203,61.8668893 33.7777079,61.8668893 L4.22118395,61.8668893 C3.66144894,61.8668893 3.12424266,61.642379 2.72842907,61.2424471 C2.33261548,60.8425153 2.11038173,60.2997507 2.11038173,59.7342471 L2.1107753,51.2021813 Z" id="Shape" fill="#303337" fill-rule="nonzero"></path>
                <path d="M18.9996359,2.14425699 C20.2883655,2.14425699 21.1109132,2.77539514 21.1109132,3.21058953 C21.1109132,3.64578393 20.2887614,4.27692207 18.9996359,4.27692207 C17.7109064,4.27692207 16.8883587,3.64578393 16.8883587,3.21058953 C16.8883587,2.77539514 17.7109516,2.14425699 18.9996359,2.14425699 Z" id="Path" fill="#F0AA3B"></path>
                <path d="M8.44415459,11.742621 C8.44636347,9.90099208 9.12140772,8.12540899 10.3398707,6.75592812 C11.5579153,5.38610445 13.2335465,4.51928077 15.0456846,4.32068604 C15.4503536,5.00316401 16.0335109,5.55933207 16.7310421,5.92795496 C17.4290597,6.2966464 18.2140707,6.46357795 18.9996359,6.41002136 C19.785122,6.46358366 20.5702009,6.29664755 21.2682298,5.92795496 C21.9658063,5.55926351 22.5489296,5.00310687 22.9535873,4.32068604 C24.7657254,4.51931505 26.4414697,5.38612731 27.6594012,6.75592812 C28.877785,8.12529473 29.5528554,9.90087781 29.5551173,11.742621 L29.5551173,13.8757432 L8.44460698,13.8752968 L8.44415459,11.742621 Z" id="Path" fill="#F0AA3B"></path>
                <path d="M29.351092,16.0084083 C28.6543977,17.9281953 25.9648829,20.2741955 19.0002014,20.2741955 C12.0355199,20.2741955 9.34598256,17.9277383 8.64931084,16.0084083 L29.351092,16.0084083 Z" id="Path" fill="#F0AA3B"></path>
            </g>
        </g>
    </g>
</svg>