<?xml version="1.0" encoding="UTF-8"?>
<svg width="66px" height="64px" viewBox="0 0 66 64" version="1.1" xmlns="http://www.w3.org/2000/svg" xmlns:xlink="http://www.w3.org/1999/xlink">
    <title>ico-4@1x</title>
    <g id="Page-1" stroke="none" stroke-width="1" fill="none" fill-rule="evenodd">
        <g id="ШФ_Страница-клуба-2" transform="translate(-227.000000, -1558.000000)">
            <g id="Shape-2" transform="translate(227.000000, 1558.000000)">
                <path d="M56.76,28.7346939 L55.44,28.7346939 L55.44,22.2040816 C55.44,19.7790227 54.4665038,17.453677 52.733472,15.739298 C51.0010286,14.0244711 48.650976,13.0612245 46.2,13.0612245 L43.56,13.0612245 L43.56,9.14285714 C43.56,6.71779825 42.5865038,4.39245248 40.853472,2.67807347 C39.1210286,0.963246647 36.770976,0 34.32,0 L31.68,0 C29.2291749,0 26.8791223,0.963261574 25.146528,2.67807347 C23.4134811,4.39230321 22.44,6.71764898 22.44,9.14285714 L22.44,13.0612245 L19.8,13.0612245 C17.3491749,13.0612245 14.9991223,14.0244861 13.266528,15.739298 C11.5334811,17.4535277 10.56,19.7788735 10.56,22.2040816 L10.56,28.7346939 L9.24,28.7346939 C6.78917486,28.7346939 4.43912229,29.6979555 2.706528,31.4127673 C0.973481143,33.1269971 0,35.4523429 0,37.877551 L0,64 L2.64,64 L2.64,57.4693878 L31.68,57.4693878 L31.68,64 L34.32,64 L34.32,57.4693878 L63.36,57.4693878 L63.36,64 L66,64 L66,37.877551 C66,35.4524921 65.0265038,33.1271464 63.293472,31.4127673 C61.5610286,29.6979405 59.210976,28.7346939 56.76,28.7346939 Z M21.0144,36.5714286 L22.5452983,36.5714286 C22.4769419,37.0034939 22.441584,37.4402314 22.439816,37.877551 L22.439816,49.6326531 L21.119816,49.6326531 L21.119816,37.877551 C21.1180481,37.4402314 21.0826915,37.0034939 21.0143336,36.5714286 L21.0144,36.5714286 Z M31.6798491,23.5102041 L34.3198491,23.5102041 L34.3198491,28.7346939 L31.6798491,28.7346939 L31.6798491,23.5102041 Z M31.6798491,31.3469388 L34.3198491,31.3469388 C36.0700937,31.3469388 37.748832,32.0349892 38.9870674,33.2594006 C40.2245637,34.4844688 40.9198491,36.1457073 40.9198491,37.877551 L40.9198491,49.6326531 L25.0798491,49.6326531 L25.0798491,37.877551 C25.0798491,36.1457073 25.7752101,34.4846181 27.0126309,33.2594006 C28.2507154,32.0349145 29.9296046,31.3469388 31.6798491,31.3469388 Z M43.4544,36.5714286 L44.9852983,36.5714286 C44.9169419,37.0034939 44.881584,37.4402314 44.879816,37.877551 L44.879816,49.6326531 L43.559816,49.6326531 L43.559816,37.877551 C43.5580481,37.4402314 43.5226915,37.0034939 43.4543336,36.5714286 L43.4544,36.5714286 Z M31.6798491,2.6122449 L34.3198491,2.6122449 C36.0700937,2.6122449 37.748832,3.30029528 38.9870674,4.52470671 C40.2245637,5.74977493 40.9198491,7.41101341 40.9198491,9.14285714 L40.9198491,13.4530612 C39.2326629,13.9527762 37.7252983,14.9189486 36.5750126,16.2378636 C35.4241385,17.5568084 34.6787383,19.1737283 34.4252983,20.8979592 L31.5744,20.8979592 C31.3339639,19.1691009 30.5926519,17.5463743 29.4400731,16.2250262 C28.2874341,14.9037378 26.7735223,13.9410286 25.08,13.4530612 L25.08,9.14285714 C25.08,7.41101341 25.7753609,5.7499242 27.0127817,4.52470671 C28.2508663,3.30022064 29.9297554,2.6122449 31.68,2.6122449 L31.6798491,2.6122449 Z M2.63984914,37.877551 C2.63984914,36.1457073 3.33521006,34.4846181 4.57263086,33.2594006 C5.81071543,32.0349145 7.48960457,31.3469388 9.23984914,31.3469388 L11.8798491,31.3469388 C13.6300937,31.3469388 15.308832,32.0349892 16.5470674,33.2594006 C17.7845637,34.4844688 18.4798491,36.1457073 18.4798491,37.877551 L18.4798491,49.6326531 L2.63984914,49.6326531 L2.63984914,37.877551 Z M63.3598491,54.8571429 L2.63984914,54.8571429 L2.63984914,52.244898 L63.3598491,52.244898 L63.3598491,54.8571429 Z M47.5198491,49.6326531 L47.5198491,37.877551 C47.5198491,36.1457073 48.2152101,34.4846181 49.4526309,33.2594006 C50.6907154,32.0349145 52.3696046,31.3469388 54.1198491,31.3469388 L56.7598491,31.3469388 C58.5100937,31.3469388 60.188832,32.0349892 61.4270674,33.2594006 C62.6645637,34.4844688 63.3598491,36.1457073 63.3598491,37.877551 L63.3598491,49.6326531 L47.5198491,49.6326531 Z" id="Shape" fill="#303337" fill-rule="nonzero"></path>
                <path d="M19.7998491,15.6734694 L22.4398491,15.6734694 C22.8122853,15.6693877 23.1835296,15.704373 23.5488905,15.7778428 C25.0828059,16.0367386 26.4752174,16.8233229 27.4800768,17.9994451 C28.4848155,19.1749553 29.0369225,20.6642334 29.0399397,22.2041145 L29.0399397,29.1137261 C26.5360128,29.8594997 24.4688174,31.6204363 23.3509659,33.9592165 L20.2089134,33.9592165 C18.8836032,31.2011337 16.2535899,29.280462 13.1999397,28.8390672 L13.1999397,22.2041145 C13.1999397,20.4722707 13.8953006,18.8111815 15.1327214,17.585964 C16.3708059,16.361478 18.0496951,15.6735022 19.7999397,15.6735022 L19.7998491,15.6734694 Z" id="Path" fill="#F0AA3B"></path>
                <path d="M46.2,15.6733851 C47.9502446,15.6733851 49.6289829,16.3615198 50.8672183,17.5859312 C52.1047145,18.8109994 52.8,20.4722379 52.8,22.2040816 L52.8,28.8390344 C49.7463497,29.2804292 47.1163063,31.2011009 45.7910263,33.9591837 L42.6489737,33.9591837 C41.5310921,31.6204035 39.4639269,29.8594519 36.96,29.1136933 L36.96,22.2040816 C36.9605892,20.658379 37.5156974,19.1626822 38.5257463,17.9837388 C39.5363685,16.8047356 40.9364434,16.0187335 42.4774491,15.7651219 C42.8345582,15.7009816 43.1969623,15.6706616 43.5599698,15.6735769 L46.2,15.6733851 Z" id="Path" fill="#F0AA3B"></path>
            </g>
        </g>
    </g>
</svg>