<?xml version="1.0" encoding="UTF-8"?>
<svg width="66px" height="64px" viewBox="0 0 66 64" version="1.1" xmlns="http://www.w3.org/2000/svg" xmlns:xlink="http://www.w3.org/1999/xlink">
    <title>ico-3@1x</title>
    <g id="Page-1" stroke="none" stroke-width="1" fill="none" fill-rule="evenodd">
        <g id="ШФ_Страница-клуба-2" transform="translate(-1067.000000, -1310.000000)">
            <g id="ico-3" transform="translate(1067.000000, 1310.000000)">
                <path d="M28.1771887,0.699209785 C29.1567848,-0.251095431 30.8499221,-0.229229006 31.8049007,0.743468785 L31.8049007,0.743468785 L64.3115246,33.9038575 L64.5333962,33.9038575 C65.3395704,33.9038575 65.9990605,34.5600847 65.9990605,35.3623572 L65.9990605,35.3623572 L66,35.3623499 L66,62.5267278 C66,62.6274514 65.9887519,62.7266538 65.9688144,62.8222957 C65.9708595,62.8502753 65.9775054,62.8772378 65.9775054,62.9062359 C65.9775054,63.5106036 65.4851946,64 64.8783685,64 L64.8783685,64 L1.16208759,64 C0.555261508,64 0.0629506647,63.5106036 0.0629506647,62.9062359 C0.0629506647,62.3018682 0.555261508,61.8124718 1.16208759,61.8124718 L1.16208759,61.8124718 L5.12968084,61.811963 L5.12968084,56.7068885 L1.83177273,56.7068885 C1.22494665,56.7068885 0.732635802,56.2174921 0.732635802,55.6131244 L0.732635802,55.6131244 L0.732635802,46.9453463 C0.732635802,44.4398889 1.8480797,42.1938592 3.60415458,40.6559163 C1.61132762,40.6223157 0,39.0050598 0,37.0149416 C0,35.0043765 1.64404626,33.3683667 3.66448776,33.3683667 L3.66448776,33.3683667 L7.32897552,33.3683667 L8.44294053,27.827787 C8.83805084,25.8609808 10.8104614,24.2519296 12.8256679,24.2519296 L12.8256679,24.2519296 L37.7441846,24.2519296 C39.7599147,24.2519296 41.7838767,25.8499108 42.2414272,27.8029121 L42.2414272,27.8029121 L43.5466,33.3683667 L47.6385241,33.3683667 C49.6589656,33.3683667 51.3030118,35.0043765 51.3030118,37.0149416 C51.3030118,39.0055807 49.6916842,40.6228484 47.6988573,40.6559163 C49.4553902,42.1938592 50.570376,44.4404098 50.570376,46.9453463 L50.570376,46.9453463 L50.570376,55.6136454 C50.570376,56.218013 50.0780652,56.7074094 49.4712391,56.7074094 L49.4712391,56.7074094 L46.173331,56.7074094 L46.173331,61.812484 L54.2727651,61.8119751 L54.2727651,35.3625864 C54.2727651,35.0156409 54.4021084,34.6997173 54.6071103,34.4489111 L54.6071103,34.4489111 L26.558074,5.83632209 C26.0816121,5.34989505 25.8229245,4.70589691 25.8316155,4.02267204 C25.8403056,3.33895229 26.1143176,2.70150496 26.6040764,2.22686417 L26.6040764,2.22686417 Z M43.9746253,56.706476 L38.8444733,56.706476 L38.8444733,61.8115506 L43.9746253,61.8115506 L43.9746253,56.706476 Z M36.6456497,56.706476 L14.6587232,56.706476 L14.6587232,61.8115506 L36.6456497,61.8115506 L36.6456497,56.706476 Z M12.4598604,56.7063458 L7.32970841,56.7063458 L7.32970841,61.8114203 L12.4598604,61.8114203 L12.4598604,56.7063458 Z M42.1423421,40.7459389 L9.16195229,40.7459389 C5.72649502,40.7459389 2.93206135,43.5272336 2.93206135,46.9453766 L2.93206135,46.9453766 L2.93258485,54.5193125 L48.3722331,54.5193125 L48.3722331,46.9453766 C48.3722331,43.5267127 45.5772759,40.7459389 42.1423421,40.7459389 L42.1423421,40.7459389 Z M9.89444413,42.8495568 C12.5210966,42.8495568 14.6585278,44.9760308 14.6580166,47.5898436 C14.6580166,50.2036563 12.5210966,52.3301304 9.89444413,52.3301304 C7.26779166,52.3301304 5.1308718,50.2036563 5.1308718,47.5898436 C5.1308718,44.9760308 7.26779166,42.8495568 9.89444413,42.8495568 Z M41.4090389,42.8495568 C44.0356913,42.8495568 46.1731224,44.9760308 46.1726113,47.5898436 C46.1726113,50.2036563 44.0356913,52.3301304 41.4090389,52.3301304 C38.7823864,52.3301304 36.6454665,50.2036563 36.6454665,47.5898436 C36.6454665,44.9760308 38.7823864,42.8495568 41.4090389,42.8495568 Z M9.89444413,45.0369807 C8.47982098,45.0369807 7.32904095,46.1821355 7.32904095,47.5898436 C7.32904095,48.9975517 8.47982098,50.1427064 9.89444413,50.1427064 C11.3085569,50.1427064 12.4598473,48.9975517 12.4598473,47.5898436 C12.4598473,46.1821355 11.3090673,45.0369807 9.89444413,45.0369807 Z M41.4090389,45.0369807 C39.9944157,45.0369807 38.8436357,46.1821355 38.8436357,47.5898436 C38.8436357,48.9975517 39.9944157,50.1427064 41.4090389,50.1427064 C42.8231516,50.1427064 43.974442,48.9975517 43.974442,47.5898436 C43.974442,46.1821355 42.823662,45.0369807 41.4090389,45.0369807 Z M37.7449961,26.4397747 L12.8264793,26.4397747 C11.8515031,26.4397747 10.7901889,27.3061097 10.5989943,28.2564201 L10.5989943,28.2564201 L8.52213273,38.5897023 C8.73429348,38.5739321 8.94594383,38.5576528 9.16218787,38.5576528 L9.16218787,38.5576528 L42.1425777,38.5576528 C42.2673142,38.5576528 42.3874558,38.5708792 42.5106624,38.5759664 L42.5106624,38.5759664 L40.1007382,28.300179 C39.8762883,27.3432787 38.7321829,26.4397747 37.7449961,26.4397747 L37.7449961,26.4397747 Z M47.639113,35.5562117 L44.0605444,35.5562117 L44.7450838,38.4732111 L47.639113,38.4732111 C48.447342,38.4732111 49.1047772,37.8189896 49.1047772,37.0147114 C49.1047772,36.2104333 48.4473681,35.5562117 47.639113,35.5562117 L47.639113,35.5562117 Z M6.88896215,35.5562117 L3.66512904,35.5562117 C2.85690009,35.5562117 2.19946481,36.2104073 2.19946481,37.0147114 C2.19953025,37.8189896 2.85640277,38.4732111 3.66414748,38.4732111 L3.66414748,38.4732111 L6.30257867,38.4732111 L6.88896215,35.5562117 Z" id="Combined-Shape" fill="#303337" fill-rule="nonzero"></path>
                <polygon id="Path" fill="#F0AA3B" points="56.4712614 36.0918806 63.8002369 36.0918806 63.8002369 61.7976285 56.4712614 61.7976285"></polygon>
                <polygon id="Path" fill="#F0AA3B" points="38.5692441 14.9534546 33.4426257 9.72374538 35.527981 7.67306797 40.6540758 12.9027772"></polygon>
                <polygon id="Path" fill="#F0AA3B" points="57.145056 33.9038054 53.4299198 30.1137118 55.5142281 28.0630344 61.2405137 33.9043264"></polygon>
                <polygon id="Path" fill="#F0AA3B" points="42.188711 14.4701663 47.3158528 19.6998755 45.2304976 21.7505529 40.1038792 16.5208437"></polygon>
                <path d="M28.0320095,4.04980517 C28.0325208,3.99282743 28.0473467,3.88345624 28.1403907,3.79289094 L29.7135029,2.26523656 C29.805013,2.17722647 29.9128772,2.16399983 29.9701348,2.16399983 C30.0279042,2.16399983 30.1403765,2.17773569 30.231884,2.27184988 L33.9924337,6.10817684 L31.9081254,8.15885425 L28.1352735,4.31028522 C28.0427412,4.21667894 28.0309821,4.10679332 28.0319479,4.04981558 L28.0320095,4.04980517 Z" id="Path" fill="#F0AA3B"></path>
                <polygon id="Path" fill="#F0AA3B" points="48.851535 21.2668478 53.9781533 26.496557 51.893845 28.5472344 46.7672267 23.3175252"></polygon>
            </g>
        </g>
    </g>
</svg>