<?xml version="1.0" encoding="UTF-8"?>
<svg width="106px" height="64px" viewBox="0 0 106 64" version="1.1" xmlns="http://www.w3.org/2000/svg" xmlns:xlink="http://www.w3.org/1999/xlink">
    <title>ico-1@1x</title>
    <g id="Page-1" stroke="none" stroke-width="1" fill="none" fill-rule="evenodd">
        <g id="ШФ_Страница-клуба-2" transform="translate(-207.000000, -1310.000000)">
            <g id="ico-1" transform="translate(207.000000, 1310.000000)">
                <path d="M105.945117,63.1732919 C105.967222,63.0931907 105.992377,63.0146168 105.994664,62.9306996 C105.994664,62.9207825 106,62.9131537 106,62.9055244 C106,62.8406815 105.974845,62.7849919 105.964174,62.7232014 C105.951978,62.6583584 105.957314,62.5942771 105.934447,62.5294341 L83.3471305,0.719372255 C83.3440815,0.710980734 83.3364588,0.704877845 83.3326475,0.696485933 C83.2998701,0.613334311 83.2465113,0.544677296 83.1946785,0.472212078 C83.1641881,0.427203026 83.1413198,0.376091084 83.1039702,0.337948515 C83.0483244,0.279970091 82.9781974,0.242591115 82.9118795,0.197582063 C82.8615707,0.16477879 82.8188841,0.122058565 82.7640013,0.098410602 C82.7014964,0.0709466241 82.6321304,0.0656073284 82.5642963,0.0488238948 C82.4918822,0.0312782348 82.4232773,0.00762890445 82.3478093,0.00534007688 C82.3379,0.00534007688 82.329515,0 82.3196059,0 L23.5945344,0 C23.5861495,0 23.5770024,0.00534007688 23.568618,0.00534007688 C23.4824818,0.00762870916 23.4039697,0.0335656953 23.3216503,0.054926784 C23.2644805,0.0701840071 23.2057867,0.0732354517 23.1531909,0.0961217744 C23.085349,0.125872627 23.0319922,0.176222928 22.9717723,0.218943152 C22.9168895,0.257085721 22.8581957,0.286838527 22.8124591,0.334898047 C22.7712965,0.377618271 22.7461431,0.434069508 22.7110786,0.485945043 C22.6638179,0.553840418 22.6135092,0.617919778 22.5822558,0.695728198 C22.5792067,0.703356907 22.5723462,0.708696984 22.5692974,0.717850927 L0.0678419564,62.289656 C0.00457405355,62.4605369 0,62.6337027 0.0221053236,62.8007754 C0.0175316604,62.8366292 0,62.8686708 0,62.9060498 C0,63.5110072 0.489369091,64 1.09308952,64 L104.906933,64 C105.031182,64 105.158486,63.9778773 105.282731,63.9336318 C105.291116,63.9305804 105.297976,63.9229519 105.3056,63.9191374 C105.384112,63.888623 105.448906,63.8359858 105.51674,63.7886879 C105.566287,63.755121 105.621931,63.7299478 105.663094,63.6895164 C105.71569,63.6391681 105.748467,63.5758504 105.78963,63.5155851 C105.827742,63.4598955 105.873479,63.4095471 105.902443,63.3492818 C105.927599,63.2935922 105.930647,63.2325633 105.94513,63.1738233 L105.945117,63.1732919 Z M86.534855,61.8115762 L80.5015535,37.2828439 L94.3784592,37.2828439 L103.341184,61.8115762 L86.534855,61.8115762 Z M2.56857929,61.8115762 L13.1076358,32.9727394 L26.3762939,32.9727394 L19.2826081,61.8115762 L2.56857929,61.8115762 Z M24.3577781,2.18683687 L33.9478746,2.18683687 L26.9137061,30.7874168 L13.906534,30.7874168 L24.3577781,2.18683687 Z M45.8269492,2.18683687 L44.8283849,13.6655415 L33.3760788,13.6655415 L36.1987616,2.18683687 L45.8269492,2.18683687 Z M69.6221749,2.18683687 L71.0758029,8.09892534 L60.4354693,8.09892534 L59.9209469,2.18683687 L69.6221749,2.18683687 Z M81.555303,2.18683687 L93.5815123,35.0975213 L79.965312,35.0975213 L71.8723204,2.18683687 L81.555303,2.18683687 Z M63.4286644,42.5147287 C63.4317135,42.4773478 63.4507697,42.4460717 63.4507697,42.4079272 C63.4507697,42.3125698 63.4202793,42.2271294 63.395887,42.1401617 L60.6258916,10.2860094 L71.6145479,10.2860094 L81.9773941,52.4242624 L64.2905984,52.4234996 L63.4286644,42.5147287 Z M32.8373396,15.852524 L44.6379685,15.852524 L40.6407452,61.8126503 L21.534705,61.8126503 L32.8373396,15.852524 Z M44.4268283,43.5020298 L61.3199945,43.5020298 L62.9123662,61.8114785 L42.8345347,61.8114785 L44.4268283,43.5020298 Z M64.4812431,54.6108504 L82.5155811,54.6108504 L84.2855485,61.8114785 L65.1071118,61.8114785 L64.4812431,54.6108504 Z" id="Shape" fill="#303337" fill-rule="nonzero"></path>
                <polygon id="Path" fill="#F0AA3B" points="61.1305147 41.3147543 44.6176741 41.3147543 48.0205045 2.18791097 57.7278794 2.18791097"></polygon>
            </g>
        </g>
    </g>
</svg>