<?xml version="1.0" encoding="UTF-8"?>
<svg width="40px" height="40px" viewBox="0 0 40 40" version="1.1" xmlns="http://www.w3.org/2000/svg" xmlns:xlink="http://www.w3.org/1999/xlink">
    <title>noun-repeat-3889069@1x</title>
    <g id="Page-1" stroke="none" stroke-width="1" fill="none" fill-rule="evenodd">
        <g id="ШФ_Стартовая-(2)" transform="translate(-488.000000, -848.000000)" fill="#F0AA3B" fill-rule="nonzero">
            <g id="Group-50" transform="translate(72.000000, 848.000000)">
                <g id="noun-repeat-3889069" transform="translate(416.000000, 0.000000)">
                    <path d="M35,0 C37.7614286,0 40,2.23857143 40,5 L40,35 C40,37.7614286 37.7614286,40 35,40 L5,40 C2.23857143,40 0,37.7614286 0,35 L0,5 C0,2.23857143 2.23857143,0 5,0 L35,0 Z M10.4400643,14.6318071 C10.0603214,14.6318071 9.70120714,14.8045214 9.46406429,15.1011143 L6.52357143,18.7777429 C6.22335,19.1530214 6.16475714,19.6669571 6.3729,20.1000286 C6.58105,20.5333429 7.01910714,20.8087357 7.49954286,20.8087357 L9.26211429,20.8087357 C9.88181429,26.1893071 14.4526857,30.3673071 19.9992571,30.3673071 C22.5065429,30.3673071 24.8176143,29.5120929 26.6516143,28.0782357 C27.1954214,27.6530143 27.2916786,26.8673071 26.8664571,26.3235214 C26.4464854,25.786428 25.6748738,25.6859021 25.1319926,26.0931679 L25.1117429,26.1086786 C23.7018857,27.2111071 21.9289571,27.8673214 19.9993143,27.8673214 C15.8352429,27.8673214 12.3871714,24.80425 11.7836,20.8084643 L13.3812429,20.8084643 C13.8619929,20.8084643 14.2997429,20.5330714 14.5078857,20.0997571 C14.7160357,19.6667214 14.6577214,19.1527571 14.3574929,18.7774714 L11.4160643,15.1011143 C11.1789,14.8045214 10.8198,14.6318071 10.4400643,14.6318071 Z M19.9994214,8.74987143 C17.4921357,8.74987143 15.1810643,9.60508571 13.3470643,11.0389429 C12.8032571,11.4641571 12.707,12.2495643 13.1322214,12.7933714 C13.5574357,13.3374571 14.3431286,13.4337143 14.8869357,13.0082143 C16.2967929,11.9061071 18.06965,11.2498571 19.9993643,11.2498571 C24.1220779,11.2498571 27.5430818,14.2519734 28.1961384,18.1891227 L28.2150786,18.3087143 L26.6174357,18.3087143 C26.1367214,18.3087143 25.6989357,18.5840714 25.4907929,19.0171429 C25.2865772,19.4420431 25.3388586,19.94506 25.6244506,20.3183252 L25.6411857,20.3397143 L28.5826143,24.0160714 C28.8197571,24.3123857 29.1788714,24.4851 29.5586143,24.4851 C29.9288566,24.4851 30.2794821,24.3209135 30.5165999,24.0380625 L30.5346143,24.0160714 L33.4757571,20.3397143 C33.770321,19.9715094 33.8322815,19.4695348 33.6379259,19.0417396 L33.6264286,19.0171429 L33.6257786,19.0168714 C33.4214201,18.5917091 32.9954595,18.3185093 32.5253,18.3087153 L32.4991357,18.3084429 L30.7365643,18.3084429 C30.1172786,12.9278714 25.5462786,8.74987143 19.9994214,8.74987143 Z" id="Shape"></path>
                </g>
            </g>
        </g>
    </g>
</svg>