<?xml version="1.0" encoding="UTF-8"?>
<svg width="40px" height="40px" viewBox="0 0 40 40" version="1.1" xmlns="http://www.w3.org/2000/svg" xmlns:xlink="http://www.w3.org/1999/xlink">
    <title>Shape 13@1x</title>
    <g id="Page-1" stroke="none" stroke-width="1" fill="none" fill-rule="evenodd">
        <g id="ШФ_Стартовая-(2)" transform="translate(-904.000000, -848.000000)" fill="#F0AA3B" fill-rule="nonzero">
            <g id="Group-50" transform="translate(72.000000, 848.000000)">
                <g id="Shape-12" transform="translate(832.000000, 0.000000)">
                    <path d="M12.8571155,7.14285714 L12.8571155,1.42865646 C12.8571155,0.639770408 13.4961958,0 14.285769,0 C15.0753251,0 15.7144224,0.639413265 15.7144224,1.42865646 L15.7144224,7.14285714 C15.7144224,7.9317432 15.0753421,8.57151361 14.285769,8.57151361 C13.4962128,8.57151361 12.8571155,7.93176871 12.8571155,7.14285714 Z M19.2074422,8.33163265 C18.5504197,7.8945068 18.3730477,7.00697279 18.8111675,6.35059524 L21.6684743,2.06505102 C22.1052676,1.40869048 22.9894749,1.22932823 23.6495075,1.66877551 C24.30653,2.10590136 24.483902,2.99343537 24.0457822,3.64981293 L21.1884754,7.93535714 C20.7523453,8.59104592 19.8657741,8.7697534 19.2074422,8.33163265 Z M4.52550058,3.64957483 C4.08738077,2.99321429 4.26442121,2.10569728 4.92177525,1.66853741 C5.57879766,1.22908163 6.46598966,1.40845238 6.90280845,2.06481293 L9.76011531,6.35035714 C10.1982351,7.00671769 10.0211947,7.89423469 9.36384064,8.33139456 C8.70582333,8.76951531 7.81894596,8.59081633 7.38280743,7.93511905 L4.52550058,3.64957483 Z M38.5713466,11.4283163 L14.2856839,11.4283163 C6.40908501,11.4283163 0,17.8373299 0,25.7142857 C0,33.5915816 6.40908501,40 14.2856839,40 C21.8261441,40 28.0203486,34.1286565 28.536504,26.7168367 L39.0738965,22.7657313 C39.6306045,22.5568027 40,22.0240051 40,21.4284014 L40,12.8569728 C40,12.0772598 39.3756956,11.4432149 38.598828,11.4283163 L38.5713466,11.4283163 Z M14.2856839,32.8571429 C10.3472569,32.8571429 7.14284196,29.6527211 7.14284196,25.7142857 C7.14284196,21.7758503 10.3472569,18.5714286 14.2856839,18.5714286 C18.2241109,18.5714286 21.4285259,21.7758503 21.4285259,25.7142857 C21.4285259,29.6530612 18.2241109,32.8571429 14.2856839,32.8571429 Z" id="Shape"></path>
                </g>
            </g>
        </g>
    </g>
</svg>