<?xml version="1.0" encoding="UTF-8"?>
<svg width="40px" height="40px" viewBox="0 0 40 40" version="1.1" xmlns="http://www.w3.org/2000/svg" xmlns:xlink="http://www.w3.org/1999/xlink">
    <title>Path@1x</title>
    <g id="Page-1" stroke="none" stroke-width="1" fill="none" fill-rule="evenodd">
        <g id="ШФ_Стартовая-(2)" transform="translate(-72.000000, -848.000000)" fill="#F0AA3B" fill-rule="nonzero">
            <g id="Group-12" transform="translate(72.000000, 848.000000)">
                <path d="M39.2420369,17.7640754 C40.7263756,16.2522977 39.9072675,13.61843 37.8557418,13.3069783 L28.3686656,11.8666813 C27.5539409,11.7430275 26.8496657,11.2085168 26.4854606,10.4371457 L22.2429677,1.45649799 C21.3254626,-0.485499329 18.6748255,-0.485499329 17.7573205,1.45649799 L13.5145267,10.4379312 C13.1503367,11.209318 12.4460465,11.7438287 11.6313218,11.8674668 L2.14424559,13.3074496 C0.0927724961,13.6188856 -0.72638819,16.252769 0.757950522,17.7645467 L7.62258474,24.7552029 C8.21203458,25.3553738 8.48106815,26.2203218 8.34185219,27.0681144 L6.72119972,36.9395217 C6.37081398,39.0742027 8.51538343,40.7019206 10.350168,39.693964 L18.8357555,35.0334218 C19.5644213,34.6333027 20.4349797,34.6333027 21.1636154,35.0334218 L29.6492028,39.693964 C31.484213,40.7016064 33.6285418,39.0738492 33.2781711,36.9395217 L31.6575187,27.0681144 C31.5183027,26.2203218 31.7873363,25.3556408 32.3767861,24.7552029 L39.2420369,17.7640754 Z" id="Path"></path>
            </g>
        </g>
    </g>
</svg>