<?xml version="1.0" encoding="UTF-8"?>
<svg width="62px" height="48px" viewBox="0 0 62 48" version="1.1" xmlns="http://www.w3.org/2000/svg" xmlns:xlink="http://www.w3.org/1999/xlink">
    <title>Shape 17@1x</title>
    <g id="Page-1" stroke="none" stroke-width="1" fill="none" fill-rule="evenodd">
        <g id="ШФ_Стартовая-(2)" transform="translate(-805.000000, -1144.000000)" fill-rule="nonzero">
            <g id="Shape-16" transform="translate(805.000000, 1144.000000)">
                <path d="M21.845212,4.21099702 L21.8697173,4.20848485 L24.6450726,4.32329713 L24.6450726,4.32329713 L26.7418046,4.40498154 L26.7418046,4.40498154 L28.7688245,4.4785886 L28.7688245,4.4785886 L29.437904,4.50149165 L30.0396015,4.52139455 L30.0396015,4.52139455 L30.8395846,4.54670781 L30.8395846,4.54670781 L31.8513293,4.57651346 L31.8513293,4.57651346 L32.5080496,4.59426622 L32.5080496,4.59426622 L33.2488957,4.61242689 L33.2488957,4.61242689 L33.7574048,4.62349588 L33.7574048,4.62349588 L34.2455695,4.63280516 L34.2455695,4.63280516 L34.619602,4.63888245 L34.619602,4.63888245 L35.0642042,4.64463747 L35.0642042,4.64463747 L35.3998162,4.64767245 L35.3998162,4.64767245 L35.7919298,4.64937595 C35.8170008,4.64940903 35.8418516,4.64942567 35.8664787,4.64942567 C41.8402952,4.64942567 44.9994686,10.1328952 47.4288823,15.1948127 L47.589785,15.5315846 L47.589785,15.5315846 L47.7486627,15.8667185 L47.7486627,15.8667185 L47.9056527,16.1998259 L47.9056527,16.1998259 L48.2550563,16.9452479 L48.2550563,16.9452479 L48.6183183,17.7210716 L48.6183183,17.7210716 L48.8191669,18.1460341 L48.8191669,18.1460341 L48.979512,18.4819227 L48.979512,18.4819227 L49.0996391,18.7310812 L49.0996391,18.7310812 L49.1796837,18.8957389 L49.1796837,18.8957389 L49.25971,19.0591544 L49.25971,19.0591544 L49.3797417,19.3017914 L49.3797417,19.3017914 L49.459775,19.4617872 L49.459775,19.4617872 L49.5398322,19.6202894 L49.5398322,19.6202894 L49.6599887,19.8550851 L49.6599887,19.8550851 L49.7401578,20.009539 L49.7401578,20.009539 L49.8203926,20.162248 L49.8203926,20.162248 L49.9007052,20.3131402 C49.9140978,20.3381335 49.9274941,20.3630481 49.9408945,20.3878825 L50.0213462,20.5359148 L50.0213462,20.5359148 L50.1019057,20.6819507 L50.1019057,20.6819507 L50.1825849,20.8259184 L50.1825849,20.8259184 L50.2633958,20.967746 C50.276876,20.9912016 50.2903621,21.0145651 50.3038544,21.0378349 L50.3848855,21.1763177 L50.3848855,21.1763177 L50.4660782,21.312481 L50.4660782,21.312481 L50.5474446,21.4462528 C50.5610209,21.4683449 50.5746048,21.4903343 50.5881967,21.5122195 L50.6698462,21.6422695 C51.2012169,22.4793163 51.7454965,23.1534251 52.3175066,23.5758289 C52.7189253,23.8708785 53.7085644,24.0192974 54.9717311,24.0536243 L55.1497305,24.0576769 C55.1796823,24.05823 55.2097742,24.0587223 55.2400022,24.059154 L55.4229709,24.0610221 C55.792047,24.0633199 56.1795757,24.057027 56.5787173,24.0428504 L56.7792242,24.0351084 L56.7792242,24.0351084 L56.9814767,24.0260721 L56.9814767,24.0260721 L57.1852846,24.0157612 C57.2193717,24.0139376 57.2535157,24.0120617 57.2877126,24.0101339 L57.4934976,23.9979478 C57.5278904,23.9958141 57.5623283,23.9936294 57.5968072,23.991394 L57.8041418,23.977377 L57.8041418,23.977377 L58.012272,23.9621639 C58.0470161,23.9595298 58.0817855,23.9568467 58.1165761,23.954115 L58.3255435,23.9371447 L58.3255435,23.9371447 L58.5348314,23.9190274 C58.5697289,23.9159133 58.6046318,23.9127523 58.6395363,23.9095447 L58.8489489,23.8897438 L58.8489489,23.8897438 L59.0582073,23.8688451 L59.0582073,23.8688451 L59.2671212,23.8468681 L59.2671212,23.8468681 L59.4755009,23.8238326 C59.5101758,23.8199063 59.5448204,23.8159366 59.579431,23.8119241 L59.7866529,23.7873375 C59.8211111,23.7831551 59.8555272,23.7789307 59.8898973,23.7746645 L60.0955341,23.7485712 L60.0955341,23.7485712 L60.2998766,23.7214979 L60.2998766,23.7214979 L60.5027348,23.6934643 L60.5027348,23.6934643 L60.7039188,23.6644899 L60.7039188,23.6644899 L60.8036569,23.6495752 C61.1962846,23.5903797 61.5839736,23.7605455 61.8007815,24.0870884 L61.8189427,24.115459 C62.0363147,24.4479151 62.0478254,24.8744858 61.8534666,25.2194426 L61.8289701,25.2609074 L61.8289701,25.2609074 L61.7992665,25.3089889 L61.7992665,25.3089889 L61.7508329,25.3856371 L61.7508329,25.3856371 L61.684056,25.4890608 L61.684056,25.4890608 L61.5993223,25.6174689 C61.5889242,25.6330582 61.5782007,25.6490769 61.5671542,25.6655142 L61.4590797,25.8244487 C61.4461168,25.8432972 61.432838,25.8625308 61.4192458,25.8821388 L61.3339505,26.0041886 C61.3191141,26.0252492 61.303969,26.0466619 61.2885177,26.0684156 L61.1921533,26.2029425 L61.1921533,26.2029425 L61.0885527,26.3451241 C59.7487963,28.1680242 56.7399036,31.6606113 53.0686504,32.1585902 C50.9822112,32.4458006 49.0179127,31.7367536 47.2333642,30.0581036 C47.0168228,29.8544243 46.7843949,29.5854179 46.5429364,29.273061 L46.4573519,29.1610531 L46.4573519,29.1610531 L46.3710844,29.0456599 L46.3710844,29.0456599 L46.284201,28.9270961 L46.284201,28.9270961 L46.1967686,28.8055764 L46.1967686,28.8055764 L46.1088541,28.6813154 L46.1088541,28.6813154 L46.0205246,28.554528 C46.0057722,28.5331982 45.9910052,28.511772 45.9762251,28.490254 L45.8873987,28.3600794 L45.8873987,28.3600794 L45.7983246,28.2279151 L45.7983246,28.2279151 L45.7090699,28.0939758 L45.7090699,28.0939758 L45.6197016,27.9584762 L45.6197016,27.9584762 L45.5302867,27.8216311 L45.5302867,27.8216311 L45.3962233,27.6143101 L45.3962233,27.6143101 L45.2624317,27.4051693 L45.2624317,27.4051693 L45.1735,27.2650889 L45.1735,27.2650889 L45.0810101,27.1186314 C44.9963947,26.9843175 44.9122709,26.8499378 44.8289024,26.7163377 L44.5813267,26.3187224 L44.5813267,26.3187224 L44.1877084,25.6917913 L44.1877084,25.6917913 L44.0581862,25.4877096 L44.0581862,25.4877096 L43.9340213,25.2949 C43.9206232,25.2742991 43.9073744,25.254005 43.8942917,25.2340503 L43.8179228,25.1186575 C43.8055714,25.1001915 43.7934196,25.0821303 43.7814841,25.0645067 L43.7145409,25.0953918 C43.7030964,25.1007838 43.691511,25.1062973 43.679789,25.1119313 L43.6078508,25.1471735 L43.6078508,25.1471735 L43.5328353,25.1852584 C43.5200875,25.19184 43.5072199,25.198538 43.4942367,25.2053514 L43.4149841,25.2476073 C43.4015554,25.2548779 43.3880195,25.2622617 43.3743806,25.2697579 L43.2913456,25.3160732 C43.2773117,25.3240141 43.2631833,25.3320653 43.2489645,25.3402255 L43.1626018,25.3904886 L43.1626018,25.3904886 L43.0742731,25.4433216 C43.044525,25.4613554 43.014483,25.4798092 42.9841807,25.4986747 L42.8925265,25.5564985 C42.8771319,25.5663389 42.8616807,25.5762802 42.846177,25.5863213 L42.7525592,25.6477579 C42.6426829,25.7208125 42.5306496,25.7986579 42.4179034,25.8809397 L42.3211229,25.9525452 C41.255358,26.7519741 40.1628968,27.9367815 40.2541426,29.2097998 C40.3052558,29.9364444 40.8877192,30.9301112 41.6449914,31.9424876 L41.7493058,32.0806316 C41.8019713,32.1497382 41.8553741,32.2188794 41.9094012,32.2879763 L42.0182543,32.426088 L42.0182543,32.426088 L42.1285713,32.5639419 L42.1285713,32.5639419 L42.2401512,32.7013981 C42.258842,32.7242665 42.277577,32.7471126 42.296352,32.7699333 L42.4094497,32.9065305 C42.4283683,32.9292383 42.4473186,32.951915 42.4662964,32.9745576 L42.5804598,33.1099811 L42.5804598,33.1099811 L42.6950826,33.2444473 L42.6950826,33.2444473 L42.8674386,33.4440453 L42.8674386,33.4440453 L42.9823308,33.5755058 L42.9823308,33.5755058 L43.0969792,33.7055192 L43.0969792,33.7055192 L43.2111828,33.8339456 L43.2111828,33.8339456 L43.3247408,33.960645 L43.3247408,33.960645 L43.4934278,34.14715 L43.4934278,34.14715 L43.659532,34.3289823 L43.659532,34.3289823 L43.8758146,34.5633405 L43.8758146,34.5633405 L44.1355673,34.8417206 L44.1355673,34.8417206 L44.4738079,35.2003422 L44.4738079,35.2003422 L44.6934081,35.4317488 L45.2093351,35.9796959 L45.3241263,36.1041253 L45.3241263,36.1041253 L45.3824141,36.1685913 L45.3824141,36.1685913 L45.4411419,36.2345359 L45.4411419,36.2345359 L45.5001938,36.301942 L45.5001938,36.301942 L45.589125,36.4057549 L45.589125,36.4057549 L45.6484788,36.4767414 L45.6484788,36.4767414 L45.7077504,36.5491305 L45.7077504,36.5491305 L45.7668235,36.6229054 L45.7668235,36.6229054 L45.8255822,36.6980492 L45.8255822,36.6980492 L45.8839103,36.7745451 L45.8839103,36.7745451 L45.9416917,36.8523763 L45.9416917,36.8523763 L45.9988105,36.9315258 C46.0082686,36.9448264 46.0176943,36.9581811 46.0270851,36.9715898 L46.0829921,37.0526853 C46.1014754,37.0799308 46.1197999,37.107389 46.1379463,37.1350571 L46.1918314,37.2186883 C46.6538684,37.948901 46.9823877,38.8191091 46.837356,39.7799526 C46.6760277,40.8550431 45.9542367,41.7617151 44.7012344,42.4759799 C43.4078498,43.2121656 41.0751722,44.1341436 38.6254625,45.0108619 L38.2273321,45.1525992 L38.2273321,45.1525992 L37.8280239,45.2933241 L37.8280239,45.2933241 L37.428412,45.4328176 L37.428412,45.4328176 L37.0293702,45.5708608 L37.0293702,45.5708608 L36.6317726,45.7072348 L36.6317726,45.7072348 L36.2364931,45.8417206 L36.2364931,45.8417206 L35.8444056,45.9740992 L35.8444056,45.9740992 L35.4563841,46.1041518 L35.4563841,46.1041518 L35.0733026,46.2316592 L35.0733026,46.2316592 L34.696035,46.3564027 L34.696035,46.3564027 L34.3254552,46.4781632 L34.3254552,46.4781632 L33.7840372,46.6547319 L33.7840372,46.6547319 L33.4340007,46.7680771 L33.4340007,46.7680771 L32.9274942,46.9309966 L32.9274942,46.9309966 L32.2913637,47.1338228 L32.2913637,47.1338228 L31.7064556,47.3185866 L31.7064556,47.3185866 L31.0580031,47.5214725 L31.0580031,47.5214725 L30.6139083,47.6591915 L30.6139083,47.6591915 L29.8957083,47.8795358 L29.8957083,47.8795358 L29.6468971,47.9549996 L29.6468971,47.9549996 C29.5478895,47.9841182 29.4488953,48 29.3498966,48 C28.8989587,48 28.485076,47.7048499 28.3494486,47.2464654 C28.1909176,46.6973127 28.4899587,46.1204707 29.0240705,45.9430898 L29.6188558,45.7614336 L29.6188558,45.7614336 L30.0832175,45.6181306 L30.0832175,45.6181306 L30.7912217,45.3974492 L30.7912217,45.3974492 L31.3431855,45.2237215 L31.3431855,45.2237215 L31.7939443,45.0807853 L31.7939443,45.0807853 L32.4381441,44.8748484 L32.4381441,44.8748484 L32.9496899,44.7099008 L32.9496899,44.7099008 L33.4821506,44.5368335 L33.4821506,44.5368335 L34.0324443,44.3564344 L34.0324443,44.3564344 L34.407692,44.2324844 L34.407692,44.2324844 L34.7885824,44.1058598 L34.7885824,44.1058598 L35.1742024,43.9767939 L35.1742024,43.9767939 L35.5636389,43.8455204 L35.5636389,43.8455204 L35.9559786,43.7122728 L35.9559786,43.7122728 L36.3503083,43.5772846 L36.3503083,43.5772846 L36.7457149,43.4407893 C36.811655,43.4179275 36.8776019,43.3950126 36.9435367,43.3720495 L37.3388463,43.2337315 L37.3388463,43.2337315 L37.7329499,43.0944903 C38.0606133,42.9781361 38.3860691,42.8610635 38.7069393,42.7438806 L39.0896302,42.6032471 L39.0896302,42.6032471 L39.4670056,42.4627412 C41.2142677,41.8077082 42.7580616,41.1644735 43.6807571,40.6398375 C43.7017308,40.6279874 43.7229136,40.6158154 43.7442501,40.6033286 L43.8086656,40.5649304 L43.8086656,40.5649304 L43.8736722,40.5246847 L43.8736722,40.5246847 L43.9389384,40.4826334 C44.3306516,40.224992 44.7184825,39.8721 44.7802128,39.4645679 C44.8439068,39.0264818 44.574763,38.4471196 43.9741576,37.7389959 L43.8989575,37.6516441 C43.8861481,37.6369786 43.8732007,37.6222595 43.8601152,37.6074872 L43.7799464,37.5182145 L43.7799464,37.5182145 L43.6964657,37.4276674 L43.1936236,36.8951706 L42.9729647,36.6624146 L42.6885716,36.3605447 L42.6885716,36.3605447 L42.4764348,36.1336347 L42.4764348,36.1336347 L42.2656502,35.9063859 L42.2656502,35.9063859 L42.0565414,35.6788848 L42.0565414,35.6788848 L41.9182264,35.52712 L41.9182264,35.52712 L41.780896,35.3753073 L41.780896,35.3753073 L41.644646,35.2234721 L41.644646,35.2234721 L41.5095723,35.0716403 C41.4871634,35.0463367 41.4648074,35.0210343 41.4425065,34.9957336 L41.3093772,34.8439548 C41.2873043,34.8186632 41.2652904,34.7933745 41.2433375,34.7680891 L41.1123682,34.616421 L41.1123682,34.616421 L40.9829588,34.4648589 C40.9615259,34.4396088 40.940162,34.4143641 40.9188691,34.3891255 L40.7919793,34.2377703 C40.7079754,34.1369206 40.6251713,34.0361843 40.5436947,33.9355955 L40.4224916,33.7848273 C40.3223455,33.6592865 40.2243736,33.5340029 40.1288257,33.4090434 L40.0153478,33.2592517 C38.9860923,31.887666 38.2622304,30.5585234 38.1761438,29.3607281 C38.0199132,27.1629107 39.6197479,25.4384005 40.8359958,24.4574633 L40.9337277,24.3795626 L40.9337277,24.3795626 L41.0295249,24.3049529 L41.0295249,24.3049529 L41.1231341,24.233666 C41.1539443,24.2104612 41.1843476,24.1878154 41.2143018,24.1657342 L41.3027745,24.1011892 C41.3172813,24.0907158 41.3316652,24.0803848 41.345921,24.0701969 L41.4298761,24.0107924 L41.4298761,24.0107924 L41.5105025,23.954855 L41.5105025,23.954855 L41.587547,23.9024165 L41.587547,23.9024165 L41.6958429,23.8303895 L41.6958429,23.8303895 L41.7628234,23.7868386 L41.7628234,23.7868386 L41.8831237,23.710602 L41.8831237,23.710602 L41.9424199,23.6739957 L41.9424199,23.6739957 L42.0585378,23.6036245 C42.1348583,23.5579587 42.2090069,23.5147704 42.2810504,23.4739433 L42.3875448,23.4144592 L42.3875448,23.4144592 L42.4909312,23.3584299 C42.6267299,23.2859888 42.7543734,23.2225284 42.874394,23.16712 L42.9629883,23.1270589 C42.9775186,23.1206288 42.9919319,23.114321 43.0062291,23.1081334 L43.0906291,23.0724383 C43.1044665,23.066725 43.1181901,23.0611284 43.1318007,23.0556468 L43.2121185,23.0241217 C43.2384451,23.0140633 43.2643286,23.0044502 43.2897771,22.9952677 L43.3648266,22.9689978 C43.4631752,22.9356553 43.5546989,22.9089715 43.6399297,22.8880176 L43.7026813,22.873362 C43.7540048,22.86202 43.8029222,22.8528256 43.8495633,22.845552 L43.9044484,22.8377311 C43.9223847,22.8354217 43.9399652,22.8334052 43.957198,22.831667 L44.0078623,22.8272727 L44.0078623,22.8272727 L44.056491,22.8244611 C44.0803047,22.8234364 44.1033738,22.8229726 44.1257264,22.8230207 L44.1694843,22.8237848 C44.1766209,22.8240211 44.1836798,22.8243106 44.1906623,22.8246516 L44.2316475,22.8272999 C44.2450088,22.8283788 44.2580724,22.8296488 44.2708466,22.8310956 L44.3083093,22.8359515 L44.3083093,22.8359515 L44.3440857,22.8417805 L44.3440857,22.8417805 L44.3782255,22.8484956 L44.3782255,22.8484956 L44.4107787,22.8560097 C44.4160748,22.8573238 44.4213069,22.8586676 44.426476,22.8600392 L44.4567428,22.8685885 L44.4567428,22.8685885 L44.4855476,22.8777191 L44.4855476,22.8777191 L44.5129405,22.8873439 L44.5129405,22.8873439 L44.5389712,22.8973758 L44.5389712,22.8973758 L44.5755723,22.9129967 L44.5755723,22.9129967 L44.6093891,22.9290437 L44.6093891,22.9290437 L44.6504381,22.9505949 L44.6504381,22.9505949 L44.6958176,22.9768036 L44.6958176,22.9768036 L44.7544405,23.0128829 L44.7544405,23.0128829 L44.7807794,23.0301937 L44.7807794,23.0301937 L44.8199612,23.0577359 L44.8199612,23.0577359 L44.8459467,23.0772423 L44.8459467,23.0772423 L44.8718893,23.0977402 L44.8718893,23.0977402 L44.9108457,23.1304874 L44.9108457,23.1304874 L44.9500216,23.1658292 L44.9500216,23.1658292 L44.9763546,23.1909397 L44.9763546,23.1909397 L45.0029258,23.217365 L45.0029258,23.217365 L45.043352,23.2596098 L45.043352,23.2596098 L45.0707645,23.2896052 L45.0707645,23.2896052 L45.0986119,23.3211419 L45.0986119,23.3211419 L45.1413214,23.3714782 L45.1413214,23.3714782 L45.1705019,23.4071509 L45.1705019,23.4071509 L45.2003142,23.4445913 L45.2003142,23.4445913 L45.24634,23.5042076 L45.24634,23.5042076 L45.2941032,23.5681649 L45.2941032,23.5681649 L45.3437936,23.6366816 L45.3437936,23.6366816 L45.395601,23.7099758 L45.395601,23.7099758 L45.431409,23.7616007 L45.431409,23.7616007 L45.5063255,23.8717703 L45.5063255,23.8717703 L45.5860174,23.9915977 L45.5860174,23.9915977 L45.6709344,24.1216004 L45.6709344,24.1216004 L45.7851136,24.299201 L45.7851136,24.299201 L45.988436,24.6206358 L45.988436,24.6206358 L46.2514743,25.0416215 L46.2514743,25.0416215 L46.6040864,25.6065822 L46.6040864,25.6065822 L46.8058407,25.9278507 L46.8058407,25.9278507 L46.943627,26.1457 L46.943627,26.1457 L47.0580858,26.3253812 L47.0580858,26.3253812 L47.2032509,26.5512156 L47.2032509,26.5512156 L47.3488899,26.7750323 L47.3488899,26.7750323 L47.4579506,26.9405107 L47.4579506,26.9405107 L47.5664934,27.1031194 L47.5664934,27.1031194 L47.6384015,27.2095639 L47.6384015,27.2095639 L47.7453338,27.365738 L47.7453338,27.365738 L47.815857,27.4672043 L47.815857,27.4672043 L47.8856518,27.5662939 L47.8856518,27.5662939 L47.9546188,27.6627865 C47.9660387,27.6786399 47.9774201,27.694376 47.9887607,27.70999 L48.0562989,27.8021741 C48.0674684,27.8172819 48.0785929,27.8322586 48.0896705,27.8470995 L48.155556,27.9344795 C48.1664375,27.9487591 48.1772678,27.9628938 48.1880451,27.9768789 L48.2520536,28.0589591 C48.2626098,28.0723279 48.2731087,28.085538 48.2835482,28.0985848 L48.3454557,28.1748697 C48.3556493,28.187245 48.3657793,28.1994479 48.3758437,28.2114738 L48.435426,28.2814677 C48.5137748,28.3718623 48.5876578,28.4503388 48.6560124,28.5145475 C49.9770071,29.758271 51.3290393,30.2801851 52.7930524,30.0693006 C54.2471413,29.8730896 55.619805,29.0122025 56.7732111,28.0050422 L56.885949,27.9055238 C56.9046191,27.8888648 56.9232292,27.8721712 56.9417785,27.855445 L57.0523404,27.754717 L57.0523404,27.754717 L57.1614152,27.6533196 L57.1614152,27.6533196 L57.2689739,27.5513625 C57.2867723,27.5343291 57.3045064,27.5172769 57.3221755,27.5002082 L57.4274052,27.397617 L57.4274052,27.397617 L57.5310458,27.2947401 L57.5310458,27.2947401 L57.6330682,27.1916872 C57.6499355,27.1745031 57.6667341,27.1573163 57.6834635,27.1401289 L57.7830039,27.0370175 L57.7830039,27.0370175 L57.8808532,26.934004 L57.8808532,26.934004 L57.9769823,26.8311982 L57.9769823,26.8311982 L58.071362,26.7287096 L58.071362,26.7287096 L58.1639632,26.626648 L58.1639632,26.626648 L58.2547567,26.5251228 L58.2547567,26.5251228 L58.3437134,26.4242439 L58.3437134,26.4242439 L58.4308041,26.3241207 L58.4308041,26.3241207 L58.5159997,26.2248629 L58.5159997,26.2248629 L58.599271,26.1265801 L58.599271,26.1265801 L58.680589,26.029382 L58.680589,26.029382 L58.5283124,26.042983 L58.5283124,26.042983 L58.3735533,26.0562234 L58.3735533,26.0562234 L58.2164681,26.0690533 L58.2164681,26.0690533 L57.9768208,26.0874183 L57.9768208,26.0874183 L57.8146041,26.0990018 L57.8146041,26.0990018 L57.5679923,26.115262 L57.5679923,26.115262 L57.4016212,26.1252855 L57.4016212,26.1252855 L57.2338618,26.134597 L57.2338618,26.134597 L57.0648705,26.1431465 L57.0648705,26.1431465 L56.8948036,26.1508836 L56.8948036,26.1508836 L56.7238174,26.1577582 L56.7238174,26.1577582 L56.5520682,26.1637201 L56.5520682,26.1637201 L56.3797124,26.168719 C56.3509445,26.1694691 56.3221579,26.170177 56.2933558,26.1708416 L56.1203831,26.174302 C56.091532,26.1747894 56.0626719,26.1752314 56.033806,26.1756271 L55.8605681,26.1774359 L55.8605681,26.1774359 L55.6873489,26.1780809 C55.6296296,26.1780964 55.5719394,26.1779095 55.5143045,26.1775119 L55.3415914,26.1756787 L55.3415914,26.1756787 L55.1693659,26.1725311 L55.1693659,26.1725311 L54.9977842,26.1680189 C53.3998464,26.1193801 51.9064676,25.8858695 51.0895588,25.2837872 C50.3680291,24.7510059 49.7291714,24.0112338 49.13001,23.1185364 L49.0357292,22.9763212 C49.004408,22.9284978 48.9731906,22.8802586 48.9420706,22.8316116 L48.8489965,22.684455 C48.771668,22.5608179 48.6949092,22.434681 48.6186223,22.3061675 L48.5272983,22.1508184 C48.5121133,22.1247394 48.4969456,22.0985673 48.4817944,22.0723031 L48.3910794,21.9136203 C48.360903,21.8603628 48.3307864,21.8067448 48.3007234,21.7527741 L48.2106889,21.589812 L48.2106889,21.589812 L48.1209381,21.424781 C48.1060013,21.3971061 48.0910746,21.369347 48.0761575,21.3415046 L47.9867621,21.1734592 C47.9718797,21.1452878 47.9570052,21.1170351 47.9421379,21.0887021 L47.8530131,20.9177487 L47.8530131,20.9177487 L47.7640219,20.7449157 L47.7640219,20.7449157 L47.6751265,20.5702505 L47.6751265,20.5702505 L47.5862893,20.3938003 L47.5862893,20.3938003 L47.4974729,20.2156123 L47.4974729,20.2156123 L47.4086395,20.035734 L47.4086395,20.035734 L47.2752756,19.7628505 L47.2752756,19.7628505 L47.0970469,19.3935309 L47.0970469,19.3935309 L46.9180739,19.018301 L46.9180739,19.018301 L46.647561,18.445202 L46.647561,18.445202 L46.0364873,17.1407919 L46.0364873,17.1407919 L45.8155674,16.6716427 C45.7908831,16.6194262 45.7661507,16.5671867 45.7413679,16.5149307 L45.5920484,16.2012487 C43.342643,11.4946132 40.6484871,6.76002056 35.8630634,6.76002056 L35.558587,6.75925415 L35.558587,6.75925415 L35.2347347,6.75700537 L35.2347347,6.75700537 L34.8047172,6.75222504 L34.8047172,6.75222504 L34.4421777,6.7469175 L34.4421777,6.7469175 L33.9680491,6.73855309 L33.9680491,6.73855309 L33.2698529,6.72387839 L33.2698529,6.72387839 L32.4311393,6.70334507 L32.4311393,6.70334507 L31.5592247,6.6793787 L31.5592247,6.6793787 L30.4390043,6.645515 L30.4390043,6.645515 L29.5617782,6.61704146 L28.0599361,6.5650738 L28.0599361,6.5650738 L26.1488999,6.49420225 L26.1488999,6.49420225 L24.0721366,6.41237523 L24.0721366,6.41237523 C27.423551,10.3486699 30.0664449,10.7199905 31.895028,10.54511 L32.0082532,10.533496 L32.0082532,10.533496 L32.1193521,10.5206235 L32.1193521,10.5206235 C35.5741115,10.0672897 37.0573337,11.2390125 38.0443593,12.6707503 L38.1073646,12.7634676 C38.1281466,12.7944846 38.1487139,12.8256083 38.169081,12.856825 L38.2295967,12.950741 L38.2295967,12.950741 L38.2594317,12.9978831 C39.2910978,14.6305624 39.2760084,16.0645173 38.2145295,17.3791492 L38.1813666,17.4197699 L32.5933761,22.7245208 C31.2518609,23.8839786 30.5431694,25.096293 30.4572545,26.3638358 C30.3529772,27.8713794 31.095311,29.5421235 32.6609219,31.3235502 L32.7300321,31.4013677 L32.7300321,31.4013677 L32.803504,31.4829421 L32.803504,31.4829421 L32.92155,31.6120382 L32.92155,31.6120382 L33.0485355,31.7487915 L33.0485355,31.7487915 L33.1378998,31.8439785 L33.1378998,31.8439785 L33.2786185,31.9924325 L33.2786185,31.9924325 L33.4268776,32.1472702 L33.4268776,32.1472702 L33.5821524,32.3080141 L33.5821524,32.3080141 L33.7991921,32.5307015 L33.7991921,32.5307015 L33.9687968,32.7033697 L33.9687968,32.7033697 L34.2440721,32.9815423 L34.2440721,32.9815423 L34.4736464,33.2118825 L34.4736464,33.2118825 L34.7092097,33.4469159 L34.7092097,33.4469159 L34.9497189,33.6856931 L34.9497189,33.6856931 L35.1941309,33.9272646 L35.1941309,33.9272646 L35.5854568,34.3120766 L35.8745824,34.5950311 L35.8745824,34.5950311 L36.3350859,35.0436478 L36.3350859,35.0436478 L36.9614487,35.650349 L36.9614487,35.650349 L38.0528293,36.6994891 L38.0528293,36.6994891 L39.5227925,38.0986869 C39.7835884,38.3409013 39.9004672,38.7022239 39.8381029,39.0551662 C39.7798562,39.3967232 39.558654,39.6841565 39.2491819,39.8290981 L39.2179433,39.843114 L28.6699706,44.3206811 C28.5369557,44.373182 28.4017524,44.4022994 28.266125,44.4022994 C27.8596668,44.4022994 27.4715185,44.1574535 27.3049205,43.7568612 C27.0873266,43.2286155 27.3244928,42.6246755 27.8342075,42.3884431 L27.8622793,42.375925 L36.9304968,38.5284588 L36.4028151,38.0236081 L36.4028151,38.0236081 L35.740445,37.3868689 L35.740445,37.3868689 L35.270444,36.9327919 L35.270444,36.9327919 L34.7864767,36.4629915 L34.7864767,36.4629915 L34.4784916,36.1626944 L34.1885178,35.8788981 L34.1885178,35.8788981 L33.7701498,35.4673872 C33.7247464,35.4225831 33.679463,35.3778475 33.6343272,35.3332052 L33.3655053,35.0666732 C33.3210707,35.0225049 33.276839,34.97848 33.2328378,34.9346238 L32.9718191,34.6737091 L32.9718191,34.6737091 L32.7176611,34.4180417 L32.7176611,34.4180417 L32.5269996,34.2250326 L32.5269996,34.2250326 L32.2923587,33.9858148 L32.2923587,33.9858148 L32.1229702,33.8117598 L32.1229702,33.8117598 L31.9069176,33.5877453 L31.9069176,33.5877453 L31.8034447,33.4795123 L31.8034447,33.4795123 L31.6543694,33.3222815 L31.6543694,33.3222815 L31.513127,33.1716204 L31.513127,33.1716204 L31.4235791,33.0750669 L31.4235791,33.0750669 L31.2965711,32.9364238 L31.2965711,32.9364238 L31.2170043,32.8483275 L31.2170043,32.8483275 L31.1417052,32.7638635 L31.1417052,32.7638635 L31.1057053,32.7230381 C29.1519238,30.5017041 28.2347748,28.3117678 28.3808747,26.2165894 C28.5071691,24.3837633 29.4365862,22.6973312 31.147056,21.2058663 L31.2099826,21.1513875 L36.672818,15.9727924 L36.7177214,15.9163318 L36.7177214,15.9163318 L36.7410842,15.8857061 L36.7410842,15.8857061 L36.76462,15.8532946 L36.76462,15.8532946 L36.7802455,15.8306249 L36.7802455,15.8306249 L36.8033451,15.7949221 L36.8033451,15.7949221 L36.8183781,15.769927 L36.8183781,15.769927 L36.8330051,15.7439283 L36.8330051,15.7439283 L36.8471296,15.7168839 L36.8471296,15.7168839 L36.8606549,15.688752 C36.8628538,15.6839704 36.8650237,15.6791417 36.8671627,15.6742651 L36.8796082,15.6444231 L36.8796082,15.6444231 L36.8912131,15.6133885 C36.8930718,15.6081144 36.8948915,15.6027888 36.8966702,15.5974109 L36.9068332,15.5645088 C36.9084395,15.5589182 36.9100008,15.5532735 36.911515,15.5475738 L36.9200188,15.5127097 C36.9687756,15.2935629 36.9475514,14.9968121 36.7544407,14.5781532 L36.7216026,14.509187 C36.6643078,14.392439 36.594055,14.2666112 36.5088324,14.1308289 L36.4678048,14.0665174 L36.4678048,14.0665174 L36.4058264,13.9714521 L36.4058264,13.9714521 L36.364082,13.9090686 L36.364082,13.9090686 L36.32189,13.8475266 L36.32189,13.8475266 L36.2791583,13.7868662 L36.2791583,13.7868662 L36.2357949,13.7271276 L36.2357949,13.7271276 L36.1917078,13.668351 L36.1917078,13.668351 L36.146805,13.6105764 L36.146805,13.6105764 L36.1009945,13.5538441 C35.4837279,12.8045401 34.5998743,12.3438746 32.4680643,12.6001249 L32.3875345,12.6100712 C28.280304,13.1526423 24.6644272,11.0050591 21.0041154,5.8794335 C20.993823,5.86372514 20.9863915,5.84710024 20.9798394,5.83029239 L20.9608387,5.78005359 C20.957451,5.77183352 20.9537876,5.7637511 20.9496009,5.75589805 C20.9129665,5.69280891 20.8820026,5.63192326 20.861069,5.5608932 C20.8401354,5.4894238 20.834902,5.42104222 20.8296686,5.34736594 C20.8244346,5.30236213 20.8061182,5.26309688 20.8082715,5.21545023 L20.8105714,5.20002972 L20.8105714,5.20002972 L20.8199181,5.1713394 C20.8212298,5.16672768 20.8221452,5.16217797 20.8222542,5.15765579 C20.8271964,5.10853375 20.8393107,5.06157367 20.8530404,5.01546341 L20.8938091,4.88170917 C20.9068604,4.83912905 20.9208163,4.79824722 20.94175,4.7597176 C20.9574498,4.73113164 20.9758189,4.70556177 20.9953499,4.68053136 L21.0355147,4.63045601 L21.0355147,4.63045601 C21.0900314,4.55678425 21.1449824,4.48795994 21.2151976,4.4301655 L21.2218212,4.42532605 L21.2218212,4.42532605 L21.2321247,4.41266974 C21.2340054,4.41047766 21.2361315,4.40832693 21.2387482,4.40634161 L21.2547891,4.39807621 L21.2547891,4.39807621 L21.2876886,4.38568162 C21.2931264,4.38342747 21.2984961,4.38086313 21.3037295,4.37766463 C21.3896522,4.32207593 21.4755615,4.27751711 21.5745602,4.25104587 C21.6347485,4.23516358 21.6892585,4.23251646 21.749007,4.22766359 C21.7821524,4.22589869 21.8129717,4.21589885 21.845212,4.21099702 Z M30.369033,34.8939641 C30.6277685,35.4013338 30.4388731,36.0227786 29.9482263,36.29935 L29.9211654,36.314091 L9.84164465,46.8238653 C9.6881315,46.9028385 9.52633421,46.9425442 9.36234867,46.9425442 C8.98684991,46.9425442 8.62224779,46.7343139 8.4373398,46.3707777 C8.17862627,45.863397 8.36752206,45.241527 8.85816885,44.9649405 L8.88522978,44.9501991 L28.9647505,34.4408766 C29.470194,34.1770452 30.1034385,34.3746929 30.369033,34.8939641 Z M26.8315987,28.2639573 C27.184737,28.7112261 27.1181755,29.3569846 26.6871733,29.7244596 L26.6623881,29.7449597 L9.13509338,43.7960157 C8.94498269,43.951316 8.71558379,44.0249927 8.48662032,44.0254339 C8.17915859,44.0254339 7.87693305,43.8882212 7.67108028,43.6248415 C7.31794193,43.1775728 7.38450351,42.5318143 7.81550566,42.1643393 L7.84029086,42.1438392 L25.3675856,28.0927832 C25.8154421,27.7261637 26.4722328,27.8082157 26.8315987,28.2639573 Z M22.9870041,23.2492404 C23.5600603,23.2492404 24.0288839,23.7235044 24.0288839,24.3032107 C24.0288839,24.8727468 23.5788876,25.3405078 23.0171994,25.3567452 L22.9870041,25.3571811 L8.08673808,25.3571811 C7.51368185,25.3571811 7.04485825,24.882917 7.04485825,24.3032107 C7.04485825,23.7336747 7.49485454,23.2659137 8.05654272,23.2496763 L8.08673808,23.2492404 L22.9870041,23.2492404 Z M16.8161101,17.8587669 C17.3891664,17.8587669 17.85799,18.3303881 17.85799,18.9127373 C17.85799,19.4853025 17.4050518,19.9505665 16.8461507,19.9662972 L16.8161101,19.966708 L1.91584418,19.966708 C1.34278794,19.966708 0.873964349,19.4924436 0.873964349,18.9127373 C0.873964349,18.3432013 1.32396064,17.8754402 1.88564882,17.8592028 L1.91584418,17.8587669 L16.8161101,17.8587669 Z M55.1957387,2.97002348 C58.9498332,2.97002348 62.0004362,6.05863557 62,9.85324518 C62,13.6477419 58.9472653,16.7364669 55.1957387,16.7364669 C51.4473382,16.7364669 48.3940453,13.6483066 48.3940453,9.85324518 C48.3940453,6.05603792 51.4468917,2.97002348 55.1957387,2.97002348 Z M22.9861109,11.1364869 C23.5591671,11.1364869 24.0279907,11.6081081 24.0279907,12.1904573 C24.0279907,12.7625897 23.5779944,13.2278454 23.0163062,13.2439941 L22.9861109,13.2444276 L8.08584492,13.2444276 C7.51278868,13.2444276 7.04396509,12.7728064 7.04396509,12.1904573 C7.04396509,11.6209212 7.49396138,11.1531602 8.05564956,11.1369228 L8.08584492,11.1364869 L22.9861109,11.1364869 Z M1.04187983,4.99067094 L15.9421458,4.99111221 C16.515202,4.99111221 16.9840256,5.46273346 16.9840256,6.04508259 C16.9840256,6.61721507 16.5340293,7.08247078 15.9723412,7.09861944 L15.9421458,7.09905297 L1.04187983,7.09861171 C0.468823594,7.09861171 0,6.62699046 0,6.04464133 C0,5.47250885 0.449996289,5.00725314 1.01168447,4.99110447 L1.04187983,4.99067094 Z M14.3980826,0 C13.8224138,0 13.3562027,0.471621252 13.3562027,1.05397038 C13.3562027,1.63631951 13.8250263,2.10794076 14.3980826,2.10794076 L29.2983485,2.10794076 C29.8740173,2.10794076 30.3402284,1.63631951 30.3402284,1.05397038 C30.3402284,0.471621252 29.8714048,0 29.2983485,0 L14.3980826,0 Z" id="Shape" fill="#303337"></path>
                <path d="M55.1957387,5.07762542 C52.5929371,5.07762542 50.477805,7.22035218 50.477805,9.85290636 C50.477805,12.4859123 52.5933837,14.6255896 55.1957387,14.6255896 C57.7984287,14.6255896 59.9162403,12.4857994 59.9162403,9.85290636 C59.9162403,7.22046512 57.7985403,5.07762542 55.1957387,5.07762542 Z" id="Path" fill="#F0AA3B"></path>
            </g>
        </g>
    </g>
</svg>