<?xml version="1.0" encoding="UTF-8"?>
<svg width="62px" height="48px" viewBox="0 0 62 48" version="1.1" xmlns="http://www.w3.org/2000/svg" xmlns:xlink="http://www.w3.org/1999/xlink">
    <title>Shape 3@1x</title>
    <g id="Page-1" stroke="none" stroke-width="1" fill="none" fill-rule="evenodd">
        <g id="ШФ_Стартовая-(2)" transform="translate(-1116.000000, -1144.000000)" fill-rule="nonzero">
            <g id="Shape-3" transform="translate(1116.000000, 1144.000000)">
                <path d="M3.82775586,16.1572099 L8.59578131,39.3111039 C8.59578131,39.3348154 8.6033522,39.3508066 8.61146383,39.3745181 L9.75089746,44.9004245 C9.78172259,45.0426907 9.83634148,45.1612552 9.90610298,45.2798057 C9.91367387,45.2957968 9.92935681,45.3035172 9.94503934,45.3195083 C10.0148008,45.4143543 10.0921323,45.5014842 10.1851503,45.5726173 C10.2240867,45.5963288 10.2624818,45.61232 10.3014181,45.6360315 C10.3787495,45.6834545 10.4641963,45.7231571 10.5572144,45.7468686 C10.5804683,45.7545885 10.5961508,45.7705801 10.6194046,45.7705801 C17.3564677,47.2566248 24.147661,48 30.946607,48 C37.7458298,48 44.5446373,47.2566812 51.3042662,45.7705801 C51.3275201,45.7628601 51.3432026,45.7468686 51.3664564,45.7468686 C51.4594718,45.7231571 51.5368073,45.6834545 51.6222527,45.6360315 C51.6611891,45.61232 51.7076968,45.5963288 51.7385205,45.564897 C51.8315358,45.4937625 51.9012987,45.4149091 51.9710588,45.3200603 C51.9867414,45.3040691 52.001884,45.2886285 52.0175665,45.2726373 C52.087328,45.1618001 52.1414056,45.0355223 52.172772,44.8932562 L53.3122056,39.3751138 C53.3197767,39.3514023 53.3278882,39.3276908 53.3278882,39.2962604 L58.0959136,16.1423664 C59.4137969,15.8738281 60.631034,15.0830778 61.3520316,13.8026966 C62.6856002,11.446934 61.8949809,8.42741323 59.5841478,7.05924142 C57.2738546,5.69942658 54.3126147,6.50560615 52.9708504,8.8619193 C52.2651228,10.1186131 52.1721186,11.5578897 52.5755339,12.8382569 L49.489836,15.1388239 L47.1564233,9.75521184 C47.8307803,9.05158868 48.2493409,8.09482834 48.2493409,7.03552569 C48.2493409,4.89320466 46.5437553,3.15405105 44.442784,3.15405105 C42.3418126,3.15405105 40.636227,4.89320466 40.636227,7.03552569 C40.636227,8.09481422 41.0547877,9.05926806 41.7372573,9.75521184 L38.2330542,17.8340885 L34.2247896,8.57733053 C35.201445,7.67630215 35.8298674,6.37995513 35.8298674,4.93301321 C35.8298674,2.21332706 33.6591221,0 30.992068,0 C28.3250139,0 26.1542686,2.21346822 26.1542686,4.93301321 C26.1542686,6.37939047 26.7821235,7.66808635 27.7593465,8.57733053 L23.7434677,17.8501813 L20.2316503,9.76297591 C20.9060073,9.05935276 21.3326806,8.10259242 21.3326806,7.04328977 C21.3326806,4.90096874 19.627095,3.16181513 17.5261237,3.16181513 C15.4251523,3.16181513 13.7195667,4.90096874 13.7195667,7.04328977 C13.7195667,8.1025783 14.1381274,9.05926806 14.8124844,9.76297591 L12.4790716,15.1382593 L9.40901753,12.8536439 C9.82001936,11.5412464 9.70374328,10.094855 9.013701,8.8773063 C8.36260201,7.73916296 7.32375917,6.92471111 6.07558062,6.58506797 C4.82740207,6.24542482 3.524678,6.42680781 2.41604737,7.0829995 C0.113368372,8.42682034 -0.684740472,11.4547404 0.640687815,13.8264547 C1.28421412,15.0583457 2.48582132,15.8805475 3.82703182,16.1573722 L3.82775586,16.1572099 Z M50.1111468,43.6914559 C37.3735235,46.3950492 24.4885996,46.3950492 11.7825406,43.6914559 L11.1465732,40.5846951 C17.7133546,41.9522317 24.318484,42.663633 30.9310892,42.663633 C37.5443866,42.663633 44.1651598,41.9440159 50.7474465,40.5846951 L50.1111468,43.6914559 Z M54.8791723,10.0235878 C55.3599342,9.1776985 56.2359988,8.69576096 57.1353353,8.69576096 C57.5771539,8.69576096 58.0189726,8.80659813 58.4299744,9.05142635 C59.6705249,9.77875111 60.0966583,11.407189 59.3833719,12.6720279 C58.6625127,13.936994 57.0730786,14.3715142 55.8326527,13.6441894 C54.5845296,12.9168646 54.1583547,11.2884268 54.8792553,10.0235878 L54.8791723,10.0235878 Z M44.4128019,5.44673405 C45.2812939,5.44673405 45.9788396,6.16635121 45.9788396,7.05135735 C45.9788396,7.93694227 45.2731121,8.65598065 44.4128019,8.65598065 C43.5524918,8.65598065 42.83915,7.93636349 42.83915,7.05135735 C42.83915,6.16577243 43.5448776,5.44673405 44.4128019,5.44673405 Z M43.6762575,10.8540619 C43.9163686,10.9014849 44.1570195,10.9329153 44.4128019,10.9329153 C44.6685844,10.9329153 44.916808,10.9014835 45.156919,10.8540619 L47.6147897,16.5298857 L40.0714498,22.1505139 L39.4279235,20.6644693 L43.6762575,10.8540619 Z M17.4801518,5.44673405 C18.3486437,5.44673405 19.0538037,6.16635121 19.0538037,7.05135735 C19.0538037,7.93694227 18.3480761,8.65598065 17.4801518,8.65598065 C16.6116598,8.65598065 15.9141141,7.93636349 15.9141141,7.05135735 C15.9141141,6.16577243 16.611729,5.44673405 17.4801518,5.44673405 Z M16.7360347,10.8540619 C16.9761457,10.9014849 17.2243554,10.9329153 17.4801518,10.9329153 C17.7359481,10.9329153 17.9765851,10.9014835 18.2166962,10.8540619 L22.4807986,20.6804209 L21.8448311,22.1505139 L14.285709,16.5221216 L16.7360347,10.8540619 Z M21.6430543,24.8305327 C21.6663081,24.8465238 21.6895619,24.8382527 21.7128158,24.8542442 C21.7593234,24.885676 21.7982598,24.9253786 21.852336,24.956809 C21.9994289,25.0202232 22.1546344,25.051655 22.3017273,25.051655 C22.4953224,25.051655 22.6813586,24.9882409 22.8522494,24.8856731 C22.9063284,24.8542413 22.9452647,24.8068198 22.9993423,24.7593968 C23.0691038,24.6959826 23.1545478,24.6568319 23.2086226,24.5774209 C23.2394478,24.5299979 23.247559,24.474856 23.2783841,24.427433 C23.2940667,24.4037215 23.3173205,24.3877303 23.3324617,24.3640188 L24.7509219,21.099012 L24.7509219,21.091292 L29.6893675,9.68388423 C30.0922567,9.7947214 30.5113573,9.87358185 30.953176,9.87358185 C31.3949946,9.87358185 31.8135553,9.79472846 32.2169845,9.68388423 L37.1397863,21.0438605 C37.1554688,21.0835632 37.1706114,21.1227139 37.1938638,21.1701369 L38.5814519,24.3717606 C38.5971344,24.3954721 38.6203882,24.4114633 38.6355294,24.4351748 C38.6587833,24.4825978 38.6663546,24.5377397 38.7052909,24.5851627 C38.7593685,24.664016 38.8448112,24.7037187 38.9145713,24.7671385 C38.9610789,24.8068412 39.0000153,24.8619845 39.0616642,24.8934149 C39.2320151,24.9959798 39.4180374,25.0593968 39.6121862,25.0593968 C39.7592792,25.0593968 39.9144847,25.027965 40.0615776,24.9645508 C40.1156552,24.9408393 40.1545929,24.8934163 40.2010978,24.8619859 C40.2243516,24.8459948 40.2476055,24.8542659 40.2708593,24.8382744 L53.7217275,14.8221896 C54.0164533,15.1227159 54.3420097,15.4072482 54.7216409,15.6283691 C55.0704415,15.8340466 55.4349274,15.9763128 55.8069859,16.086605 L51.2639261,38.1732912 C37.7665419,41.1140418 24.1143813,41.1140418 10.6635131,38.1732912 L6.1204533,16.0936633 C6.50008454,15.9828261 6.872683,15.8328326 7.22148356,15.6271551 C7.6011148,15.4060342 7.93476998,15.1369312 8.22949572,14.8364049 L21.6430543,24.8305327 Z M3.47829078,9.05957157 C3.88118,8.82245661 4.32353858,8.69618446 4.78048877,8.69618446 C5.00545441,8.69618446 5.22988012,8.72761627 5.44727306,8.78331012 C6.11405736,8.96528601 6.67971094,9.3998062 7.02909295,10.0085805 C7.4941696,10.8307541 7.4941696,11.8503611 7.03666384,12.6725065 C6.80412552,13.0756033 6.48614179,13.3998313 6.07515381,13.6369462 C4.83460332,14.3719927 3.2144216,13.8900552 2.53191048,12.6802282 C1.81159129,11.4075405 2.23772466,9.77914496 3.47827514,9.05962662 L3.47829078,9.05957157 Z" id="Shape" fill="#303337"></path>
                <path d="M30.954278,2.30030591 C32.388382,2.30030591 33.5516966,3.4858666 33.5516966,4.94884487 C33.5516966,6.41117378 32.3890188,7.59738382 30.954278,7.59738382 C29.520174,7.59738382 28.3568594,6.41182314 28.3568594,4.94884487 C28.3568594,3.4859513 29.5200771,2.30030591 30.954278,2.30030591 Z" id="Path" fill="#F0AA3B"></path>
            </g>
        </g>
    </g>
</svg>