<?xml version="1.0" encoding="UTF-8"?>
<svg width="46px" height="48px" viewBox="0 0 46 48" version="1.1" xmlns="http://www.w3.org/2000/svg" xmlns:xlink="http://www.w3.org/1999/xlink">
    <title>Shape 2@1x</title>
    <g id="Page-1" stroke="none" stroke-width="1" fill="none" fill-rule="evenodd">
        <g id="ШФ_Стартовая-(2)" transform="translate(-189.000000, -1144.000000)">
            <g id="Shape-2" transform="translate(189.000000, 1144.000000)">
                <path d="M5.50758422,48 L37.1818789,48 C37.7286163,48 38.1759081,47.5680812 38.1759081,47.0401347 L38.1759081,42.7586955 C38.1759081,39.6866535 39.2298538,36.6435145 41.148409,34.1857369 L44.8366066,29.4530622 C45.5822351,28.4931969 46,27.3027254 46,26.1025853 L46,20.4482054 C46,17.3761634 43.4053197,14.8705572 40.2238298,14.8705572 L38.1658954,14.8705572 C38.1758815,14.7745305 38.1858676,14.6688641 38.1858676,14.5728364 L38.1858676,5.33778477 C38.1858676,2.40028029 35.7105943,0.0096685956 32.6681108,0.0096685956 C30.7990335,0.0096685956 29.1388386,0.912077709 28.1448094,2.29464574 C27.1407888,0.902470828 25.4801465,0 23.6111756,0 C21.4637658,0 19.6047012,1.19047155 18.6901347,2.92783589 C17.6761333,1.82376456 16.2048487,1.12299709 14.5642531,1.12299709 C11.7806093,1.12299709 9.47427408,3.12953925 9.10646624,5.72144288 C8.1419746,4.92469917 6.88960647,4.43490252 5.51775672,4.43490252 C2.47569935,4.43490252 0,6.82510278 0,9.76301869 L0,24.3358551 C0,27.2829254 0.835082511,30.1629326 2.40582331,32.6877731 C3.78768578,34.9052758 4.52330147,37.4590194 4.52330147,40.050923 L4.52330147,47.0399805 C4.51331537,47.5679269 4.96061253,48 5.5077653,48 L5.50758422,48 Z M20.081424,5.32785903 C20.081424,3.44628862 21.6621562,1.9198848 23.6106963,1.9198848 C25.5592364,1.9198848 27.1399686,3.44628862 27.1399686,5.32785903 L27.1399686,14.5629107 C27.1399686,14.6589373 27.1299825,14.7646038 27.1199964,14.8606314 L25.7681721,14.8606314 C25.2214347,14.8606314 24.7741429,15.2925502 24.7741429,15.8204967 C24.7741429,16.4637566 24.8436291,17.0876999 24.973034,17.7020671 C24.5457143,17.8748367 24.0784503,17.9708644 23.6011842,17.9708644 C21.6526441,17.9708644 20.0719119,16.4444605 20.0719119,14.5628901 L20.0719119,6.45083556 L20.0714959,5.32783846 L20.081424,5.32785903 Z M11.034395,6.45126756 C11.034395,4.56969714 12.6151272,3.04329332 14.5636673,3.04329332 C16.5122073,3.04329332 18.0929396,4.56969714 18.0929396,6.45126756 L18.0929396,14.5633221 C18.0929396,16.4448925 16.5122073,17.9712964 14.5636673,17.9712964 C12.6151272,17.9712964 11.034395,16.4448925 11.034395,14.5633221 L11.034395,6.45126756 Z M1.97745979,9.76317298 C1.97745979,7.88160256 3.55819201,6.35519875 5.50673208,6.35519875 C7.45527214,6.35519875 9.03600436,7.88160256 9.03600436,9.76317298 L9.03600436,14.5633221 C9.03600436,16.4448925 7.45527214,17.9712964 5.50673208,17.9712964 C3.55819201,17.9712964 1.97745979,16.4448925 1.97745979,14.5633221 L1.97745979,9.76317298 Z M4.09536402,31.6995707 C2.70359534,29.482068 1.97788587,26.9283245 1.97788587,24.3364208 L1.97788587,18.6531381 C2.93238609,19.420948 4.16524005,19.8914383 5.50715815,19.8914383 C7.37623553,19.8914383 9.03643043,18.9890292 10.0304596,17.6064612 C11.0244888,18.9889675 12.6851098,19.8914383 14.5537611,19.8914383 C16.4228385,19.8914383 18.0830334,18.9890292 19.0770625,17.6064612 C20.0710917,18.9889675 21.7317127,19.8914383 23.600364,19.8914383 C24.2864913,19.8914383 24.9521883,19.7568391 25.5788357,19.5266134 C27.0600798,22.7617872 30.4104013,25.0274271 34.2975752,25.0274271 L36.6638802,25.0274271 C37.2106176,25.0274271 37.6579094,24.5955083 37.6579094,24.0675619 C37.6579094,23.5396154 37.2106176,23.1076966 36.6638802,23.1076966 L34.2975752,23.1076966 C30.9272283,23.1076966 28.0741345,20.9670284 27.1097174,18.0198553 C27.1097174,18.0102125 27.0997313,18.0005696 27.0997313,17.9909267 C26.9703328,17.606816 26.880868,17.203831 26.8213669,16.7907865 L28.302611,16.7907865 L28.3225832,16.7907865 L28.3425554,16.7907865 L40.2236114,16.7907865 C42.311584,16.7907865 44.0112972,18.4324935 44.0112972,20.4482928 L44.0112972,26.1026727 C44.0112972,26.8897684 43.7429242,27.667648 43.2456966,28.3012496 L39.5574989,33.0339243 C37.3900637,35.8178627 36.187152,39.274077 36.187152,42.7587829 L36.1875681,46.0807683 L6.50197088,46.0807683 L6.50197088,40.0519876 C6.50197088,37.1045059 5.67686914,34.2152415 4.09614757,31.6996581 L4.09536402,31.6995707 Z" id="Shape" fill="#303337" fill-rule="nonzero"></path>
                <path d="M32.6580449,1.91987523 C34.6065849,1.91987523 36.1873171,3.44628862 36.1873171,5.32785903 L36.1873171,14.5629107 C36.1873171,14.6589373 36.177331,14.7646038 36.1673449,14.8606314 L29.1587575,14.8610333 C29.1487714,14.7650067 29.1387385,14.6593402 29.1387385,14.5633126 L29.1387385,5.3282609 C29.1287992,3.44627905 30.7195175,1.91987523 32.6580449,1.91987523 L32.6580449,1.91987523 Z" id="Path" fill="#F0AA3B"></path>
            </g>
        </g>
    </g>
</svg>