<?xml version="1.0" encoding="UTF-8"?>
<svg width="61px" height="48px" viewBox="0 0 61 48" version="1.1" xmlns="http://www.w3.org/2000/svg" xmlns:xlink="http://www.w3.org/1999/xlink">
    <title>Shape 15@1x</title>
    <g id="Page-1" stroke="none" stroke-width="1" fill="none" fill-rule="evenodd">
        <g id="ШФ_Стартовая-(2)" transform="translate(-493.000000, -1144.000000)" fill-rule="nonzero">
            <g id="Shape-14" transform="translate(493.000000, 1144.000000)">
                <path d="M23.164817,14.6236017 L26.7295637,14.6236017 C27.866372,15.2250429 29.1266525,15.6619792 30.499072,15.6619792 C31.8743217,15.6619792 33.1351314,15.2250429 34.2714105,14.6236017 L37.8361572,14.6236017 L37.7362528,14.7213311 L37.7362528,14.7213311 L37.637455,14.8208201 C36.2950523,16.1924199 35.2794676,18.0503608 35.2794676,20.1219561 L35.2794676,29.4607233 C35.2794676,29.4918992 35.283313,29.521156 35.2881197,29.5523306 L37.0484305,45.7009025 C37.0612634,45.8377274 37.0451383,45.8804961 36.9758131,45.9364768 L36.9507011,45.9557735 L36.9507011,45.9557735 L36.8878566,46.0008344 L36.8878566,46.0008344 C36.7277882,46.1130656 36.384591,46.2238578 35.997156,46.2238578 C35.611173,46.2200208 35.1953864,46.1130656 34.912744,45.949511 C34.6301016,45.785485 34.4940779,45.6108995 34.4464807,45.3802022 L31.974329,33.7014327 C31.9070333,33.3796057 31.8065697,33.0529901 31.555663,32.7867961 C31.3047439,32.5201233 30.9096303,32.3321177 30.499135,32.3321177 C30.091999,32.3321177 29.6935138,32.5191656 29.4454865,32.7867961 C29.1945674,33.0525113 29.095546,33.3796057 29.0268204,33.7014327 L26.5546687,45.3802022 C26.5080424,45.6118572 26.3715277,45.7859638 26.0884054,45.949511 C25.805763,46.1121005 25.387097,46.219057 25.0006341,46.2238578 C24.6321817,46.2238578 24.2967178,46.1211205 24.1337368,46.0132931 L24.0515155,45.9558051 C23.9548188,45.8856194 23.9373399,45.8498022 23.9539902,45.6772609 L25.7144202,29.5523306 C25.7169838,29.5315467 25.7178383,29.5116157 25.7181232,29.4914008 L25.717785,20.1219561 C25.7168347,17.9745707 24.6255581,16.056639 23.2147419,14.6722407 L23.164817,14.6236017 Z M51.3035387,14.3881035 C51.7746011,14.3919405 52.1601042,14.7463849 52.5033137,15.3516692 L59.1789845,27.1057047 C59.3227114,27.3877255 59.3145407,27.5757311 59.2515666,27.7421637 C59.1871553,27.9133849 59.0362224,28.0639908 58.8444307,28.1752569 C58.3978806,28.4342558 57.887884,28.2553533 57.4446932,27.6304065 L52.950767,21.2960213 C52.4200973,20.5473262 51.2395803,21.0250388 51.3833072,21.9324803 L52.6277506,29.5762255 L54.3774532,45.6522296 L54.3804701,45.6783037 L54.3804701,45.6783037 L54.3849036,45.7248565 C54.3948687,45.8539918 54.3740062,45.8924293 54.3004637,45.9483903 L54.2739684,45.9678415 L54.2739684,45.9678415 L54.2265154,46.0014004 L54.2265154,46.0014004 C54.0741378,46.1093158 53.7328603,46.220593 53.3497568,46.2165083 C52.9671331,46.2124341 52.555678,46.1131528 52.2648649,45.9467251 L51.7750491,45.3620683 L49.2888239,34.8673625 C49.2157181,34.5694466 49.1190639,34.2716101 48.8905194,34.0300509 C48.6396003,33.7633781 48.2411273,33.5715293 47.8339914,33.5715293 C47.4234961,33.5715293 47.0283702,33.7633781 46.7774634,34.0300509 C46.5265443,34.295766 46.3986914,34.6257459 46.3587973,34.9566834 L45.1186607,45.4609088 C45.0028166,46.4273476 42.6311273,46.463802 42.5465894,45.5088704 L43.0488951,30.7306847 C43.0488951,30.6908759 43.0450497,30.6549041 43.040243,30.6198925 L41.8044132,17.8897305 C41.756346,17.4436837 41.3857472,17.1098607 40.938225,17.1098607 L38.0277555,17.1098607 L38.1081763,17.0001338 L38.1081763,17.0001338 L38.1898253,16.8903008 L38.1898253,16.8903008 L38.2727645,16.7805529 C38.3006328,16.7440056 38.3287264,16.7075043 38.3570557,16.6710808 L38.4427608,16.5620757 L38.4427608,16.5620757 L38.5299415,16.4537284 C38.5592546,16.4177434 38.5888239,16.3819 38.6186599,16.3462298 L38.7089776,16.239771 C39.3165649,15.5339359 40.0349043,14.9101471 40.9464696,14.6230098 L42.8205796,14.6230098 C43.9569079,15.2196625 45.2176684,15.6613874 46.5886112,15.6613874 C47.8485821,15.6613874 48.9999827,15.2826444 50.0807011,14.8246848 L50.2422835,14.7554342 L50.2422835,14.7554342 L50.4028341,14.68522 L50.4028341,14.68522 L50.5623813,14.6142668 L50.5623813,14.6142668 L50.7209535,14.5427993 C50.7473025,14.5308577 50.7736121,14.518904 50.7998828,14.5069429 C50.9806243,14.4225294 51.1435722,14.3875166 51.3036406,14.3875166 L51.3035387,14.3881035 Z M9.69780462,14.3881035 C9.84012356,14.3881035 9.99254463,14.4183298 10.1524708,14.4872789 L10.3545511,14.5786901 L10.3545511,14.5786901 L10.5137976,14.6499285 L10.5137976,14.6499285 L10.6740362,14.7205403 L10.6740362,14.7205403 L10.8352925,14.7903008 C10.889217,14.8133875 10.9433154,14.8362948 10.9975919,14.8589854 L11.16096,14.9263694 C12.1717448,15.3374322 13.2449501,15.6614942 14.4075427,15.6614942 C15.7832846,15.6614942 17.0436021,15.2207271 18.1798813,14.6231167 L20.0501766,14.6231167 C21.0984766,14.9524773 21.8937844,15.7284514 22.5557966,16.5621015 L22.6413999,16.6711335 L22.6413999,16.6711335 L22.7255504,16.780628 L22.7255504,16.780628 L22.808307,16.890393 L22.808307,16.890393 L22.8897289,17.0002368 L22.8897289,17.0002368 L22.9698751,17.1099676 L22.9698751,17.1099676 L20.0627281,17.1099676 C19.616178,17.1099676 19.2412452,17.4437905 19.1965398,17.8898373 L17.9597256,30.6187715 C17.9529961,30.6547433 17.9529961,30.6897549 17.9529961,30.7295637 L18.4553018,45.5077494 C18.367338,46.4636411 15.9990241,46.4267079 15.8827382,45.4597878 L14.6392792,34.9555624 C14.602747,34.6246249 14.4715199,34.294645 14.219641,34.0289299 C13.9720936,33.7622571 13.5740882,33.5704083 13.1669523,33.5704083 C12.756457,33.5704083 12.3574918,33.7622571 12.1104243,34.0289299 C11.9051269,34.2463332 11.8060189,34.5093211 11.7354381,34.7769253 L11.7128612,34.8662415 L11.7128612,34.8662415 L9.22686674,45.3609473 L8.731292,45.9456041 C8.44433045,46.1129944 8.02998355,46.2113192 7.64688003,46.215339 C7.27842766,46.2188485 6.95009551,46.1162445 6.79107105,46.0122759 L6.72488535,45.9666869 C6.7200431,45.9632804 6.71538171,45.9599641 6.71089627,45.9567197 L6.68605599,45.9379688 C6.62903822,45.892512 6.60940814,45.8549505 6.61064421,45.763209 L6.61221234,45.7234757 L6.61221234,45.7234757 L6.61577121,45.6770804 C6.6165172,45.6687436 6.61733635,45.6600925 6.61822376,45.6511086 L8.36927991,29.5751045 L9.61323119,21.9323415 C9.76031744,21.0249 8.58025572,20.5472243 8.04909382,21.2958825 L3.55565976,27.6307588 C3.10910968,28.2566708 2.60295232,28.4346082 2.15592233,28.1756093 C1.97225072,28.0713343 1.82689356,27.931372 1.76073328,27.7725184 L1.7492663,27.7425161 C1.684855,27.5751258 1.67668422,27.3880779 1.82040618,27.1060571 L8.49607705,15.3520216 C8.84024634,14.7467373 9.22718914,14.392299 9.69777164,14.3884559 L9.69780462,14.3881035 Z M9.71703178,12.6615262 C9.27048169,12.6735167 8.84027316,12.7967841 8.48889292,12.9876629 C7.79142375,13.369445 7.29680884,13.9435546 6.98197558,14.4965456 L0.302490051,26.2650696 C-0.0602055513,26.9020911 -0.0439156635,27.588226 0.0790510874,28.1686805 L0.0982621379,28.2549368 L0.0982621379,28.2549368 L0.11886911,28.3394917 L0.11886911,28.3394917 C0.281817006,28.9759507 0.813446514,29.4296714 1.37057278,29.715523 C2.48766785,30.2848319 4.10224499,29.9865055 4.99586198,28.5970417 L7.29684575,25.3508996 L6.65465237,29.321217 L4.89682825,45.4647519 C4.80886444,46.2599696 5.2068624,47.0134164 5.765896,47.41062 C6.32876888,47.8087077 6.99403486,47.9516274 7.66067904,47.9482754 C8.32209344,47.9444384 8.99987399,47.788559 9.59877704,47.4461167 C10.201544,47.103662 10.7351054,46.5314801 10.9148379,45.7593211 L13.0884609,36.5793125 L13.0884609,36.5793125 L14.1613427,45.6637958 C14.531944,48.7962407 20.3059132,48.7756131 20.1986103,45.62015 L19.6881337,30.7302316 L20.8489744,18.8403978 L23.7883615,18.8403978 C23.8889868,19.1563108 23.92616,19.4649714 23.9504408,19.760577 L23.9777343,20.1228646 C23.9795939,20.1465079 23.9815103,20.1700437 23.9835126,20.1934687 L23.9835126,29.4094527 L22.2324565,45.4658115 C22.1444927,46.2610292 22.5516335,47.0212291 23.1135466,47.4192922 C23.6764195,47.8173799 24.3455616,47.9564687 25.0122673,47.9564687 C25.677521,47.9526317 26.3562614,47.8015531 26.9579947,47.4552677 C27.5559625,47.1046603 28.0943231,46.5161727 28.2573202,45.7410915 L30.4992381,35.1127323 L32.7439863,45.7410915 C32.9069342,46.5166393 33.4424153,47.1045989 34.0433118,47.4552677 C34.6412796,47.8015531 35.3195032,47.9526379 35.9905157,47.9564687 C36.6557694,47.9564687 37.325896,47.8183376 37.8887443,47.4192922 C38.4516172,47.0212045 38.8534618,46.2610046 38.7698344,45.4658115 L37.015825,29.4094527 L37.0153443,20.1926092 L37.0266472,20.0507742 L37.0266472,20.0507742 L37.043075,19.8333784 C37.068212,19.5155567 37.1042974,19.1818129 37.214347,18.8395383 L40.1537341,18.8395383 L41.313615,30.7293721 L40.8031384,45.6192905 C40.6959474,48.7751871 46.4698908,48.7953235 46.8418826,45.6629363 L47.9137923,36.578453 L50.0831085,45.7584616 L50.0831085,45.7584616 C50.2667294,46.5306574 50.8007585,47.1028148 51.3991693,47.4452572 C52.0019362,47.7877118 52.6753607,47.9435851 53.3415742,47.9474159 C54.0029886,47.9502937 54.6730167,47.8078482 55.2310659,47.4097606 C55.7939388,47.0126306 56.1890647,46.2601046 56.1044651,45.4638924 L54.3456566,29.3203576 L53.6996239,25.3510223 L56.0006077,28.5971645 C56.8941878,29.9865792 58.5126288,30.2849424 59.6297116,29.7156458 C60.1877853,29.4293154 60.7174829,28.9760735 60.8784619,28.3396145 C61.0375706,27.7261774 61.0966856,26.9668983 60.6986926,26.2651924 L54.0192071,14.4961773 C53.7038816,13.943174 53.2097466,13.3690643 52.5069984,12.9872945 C52.1570579,12.7968824 51.7297411,12.6731415 51.2788595,12.6611578 C50.8501715,12.6496469 50.3957855,12.7446622 49.9718242,12.9814286 L49.9189916,13.0117652 C48.9542741,13.5801164 47.8020963,13.922571 46.5892777,13.922571 C45.3731612,13.922571 44.2166766,13.588748 43.2687928,13.0156083 C43.1332367,12.935512 42.9770199,12.8928251 42.8217628,12.8928251 L34.2705053,12.8923456 C34.1113967,12.8923456 33.9518205,12.9350324 33.8162644,13.0151288 C32.8669286,13.587323 31.7180733,13.9220914 30.4986098,13.9220914 C29.2820134,13.9220914 28.1288389,13.5882684 27.1847699,13.0151288 C27.0448946,12.9350324 26.8901174,12.8923456 26.7290892,12.8923456 L18.1793083,12.8923456 C18.0201997,12.8923456 17.8644628,12.9350324 17.7327582,13.0151288 C16.7834225,13.587323 15.6264456,13.9220914 14.4064899,13.9220914 C13.1942126,13.9220914 12.045825,13.5796368 11.0802215,13.0112856 C10.6566131,12.7635661 10.2055263,12.6581868 9.77122772,12.6607551 L9.71703178,12.6615262 Z M14.4070751,1.73861008 C16.939277,1.73861008 18.8331987,3.42638792 18.8331987,5.38035974 L18.8331987,7.22972026 C18.8331987,9.18798949 16.9384157,10.8749078 14.4070751,10.8749078 C11.8758576,10.8749078 9.98821168,9.18811227 9.98821168,7.22972026 L9.98821168,5.38035974 C9.98917298,3.42687906 11.8758576,1.73861008 14.4070751,1.73861008 Z M14.4070751,0 C11.0773612,0 8.25438306,2.33533643 8.25438306,5.38085087 L8.25438306,7.2302114 C8.25438306,10.2738841 11.0773612,12.6057826 14.4070751,12.6057826 C17.736789,12.6057826 20.5683809,10.2743752 20.5683809,7.2302114 L20.5683809,5.38085087 C20.5683809,2.36664246 17.7939819,0.0467947641 14.5068401,0.000699231036 L14.4070751,0 Z M46.490903,1.73861008 C49.023105,1.73861008 50.9097664,3.42638792 50.9097664,5.38035974 L50.9097664,7.22972026 C50.9097664,9.18798949 49.023105,10.8749078 46.490903,10.8749078 C43.9582089,10.8749078 42.0647787,9.18811227 42.0647787,7.22972026 L42.0647787,5.38035974 C42.0638277,3.44641386 43.9205106,1.77240198 46.4151149,1.73911514 L46.490903,1.73861008 Z M46.490903,0 C43.1611891,0 40.3295972,2.33533643 40.3295972,5.38085087 L40.3295972,7.2302114 C40.3295972,10.2738841 43.1603278,12.6057826 46.490903,12.6057826 C49.8214783,12.6057826 52.6435951,10.2743752 52.6435951,7.2302114 L52.6435951,5.38085087 C52.6435951,2.36664246 49.8767942,0.0467947641 46.5906401,0.000699231036 L46.490903,0 Z M30.4988259,0 C27.1725575,0 24.3451494,2.33533643 24.3451494,5.38085087 L24.3451494,7.2302114 C24.3451494,10.2738841 27.1729267,12.6057826 30.4988259,12.6057826 C33.8280475,12.6057826 36.6601317,10.2743752 36.6601317,7.2302114 L36.6601317,5.38085087 C36.6601317,2.33619591 33.8279245,0 30.4988259,0 Z" id="Shape" fill="#303337"></path>
                <path d="M30.4988259,1.73861008 C33.0348425,1.73861008 34.9249495,3.42638792 34.9249495,5.38035974 L34.9249495,7.22972026 C34.9249495,9.18798949 33.0344733,10.8749078 30.4988259,10.8749078 C27.9661317,10.8749078 26.0799624,9.18811227 26.0799624,7.22972026 L26.0799624,5.38035974 C26.0809239,3.42687906 27.9661317,1.73861008 30.4988259,1.73861008 Z" id="Path" fill="#F0AA3B"></path>
            </g>
        </g>
    </g>
</svg>