<svg width="37" height="44" viewBox="0 0 37 44" fill="none" xmlns="http://www.w3.org/2000/svg">
<mask id="path-1-inside-1_511_52" fill="white">
<path fill-rule="evenodd" clip-rule="evenodd" d="M22.0057 35.096C21.7273 34.8252 21.4913 34.6281 21.2867 34.5679L19.2416 41.4086L19.2308 41.4469C19.0597 42.0725 19.1561 42.6964 19.5204 43.2326C19.9853 43.871 20.9148 44.0533 21.5655 43.6887C25.1908 41.4998 28.909 41.5908 32.6272 43.6887C33.1848 43.9626 34.0212 43.8717 34.5793 43.1419C34.9511 42.6858 35.0442 41.9563 34.8581 41.4089L32.813 34.5682L32.799 34.5688C32.748 34.5736 32.6985 34.6032 32.6658 34.6273L32.6498 34.6398L32.6376 34.65L32.6272 34.6595C32.5715 34.6869 32.499 34.7389 32.4173 34.8081L32.3757 34.8441L32.3328 34.8828L32.2888 34.924L32.2439 34.9674L32.1983 35.0128L32.1521 35.0601L32.129 35.0844L32.0825 35.1341L32.0593 35.1594L32.013 35.211L31.967 35.2636L31.9216 35.3171L31.8769 35.3711L31.855 35.3983L31.8119 35.4529L31.7908 35.4802L31.538 35.7288L31.4164 35.8474L31.2913 35.9678L31.195 36.0591L31.0966 36.1509L30.9959 36.2429L30.9275 36.3042L30.8581 36.3655L30.7876 36.4267L30.716 36.4876L30.6433 36.5483L30.6066 36.5785L30.5322 36.6386L30.4946 36.6685L30.4184 36.7279C30.3801 36.7575 30.3413 36.7869 30.302 36.816L30.2229 36.8738L30.1425 36.9309C29.3323 37.4981 28.3328 37.9427 27.05 37.9427C25.1956 37.9427 23.8848 36.9352 22.9282 36.018L22.8288 35.9219C22.7634 35.858 22.6997 35.7948 22.6377 35.7327L22.5458 35.6402L22.2022 35.2913L22.0827 35.1716L22.0057 35.096ZM29.9313 4.4842C29.891 1.96694 27.8608 0 25.2842 0H4.64775L4.56984 0.000600732C2.0044 0.0401885 0 2.03222 0 4.56045V34.5682L0.00061204 34.6446C0.0409576 37.1619 2.07112 39.1286 4.64775 39.1286H17.8474L19.4275 33.9297L19.3855 33.9179L19.301 33.8935L19.2161 33.8684L19.1308 33.8424L19.0452 33.8156L18.9593 33.7879L18.9163 33.7736L18.83 33.7445L18.7868 33.7295L18.7003 33.6989L18.657 33.6831L18.5704 33.6509L18.4838 33.6176L18.3972 33.5832L18.3107 33.5476C18.1954 33.4994 18.0805 33.448 17.9665 33.3931L17.8811 33.3513C17.0721 32.9476 16.3149 32.3616 15.8023 31.4672C15.4304 30.8288 15.2446 30.1903 15.2446 29.5519L6.41391 29.5515L6.3875 29.5512C5.84457 29.5371 5.48444 29.0881 5.48444 28.6395C5.48444 28.1834 5.85631 27.7275 6.41391 27.7275H15.2446L15.295 27.476L15.3265 27.3206L15.3485 27.2164C15.4158 26.9038 15.4969 26.5939 15.6165 26.3593C15.6165 26.3319 15.6249 26.2963 15.6366 26.255L15.67 26.1412C15.6907 26.0674 15.7095 25.9853 15.7095 25.9031L6.41404 25.9034L6.39191 25.9031C5.93451 25.889 5.48458 25.44 5.48458 24.9914C5.48458 24.4443 5.94948 24.0794 6.41404 24.0794H15.7095L15.7095 24.0557L15.7091 24.0334L15.708 24.0117C15.7036 23.9479 15.686 23.8971 15.6165 23.8971C15.5979 23.8059 15.5756 23.711 15.551 23.6125L15.5206 23.4926L15.4389 23.1774L15.4055 23.0451C15.3445 22.7996 15.2856 22.5363 15.2446 22.2554L6.41391 22.2551L6.39177 22.2547C5.93437 22.2406 5.48444 21.7917 5.48444 21.3431C5.48444 20.7959 5.94935 20.4311 6.41391 20.4311H15.2446L15.2562 20.365C15.3527 19.833 15.5346 19.2235 15.8023 18.698L15.8953 18.6067H6.4139L6.39177 18.6064C5.93436 18.5951 5.48444 18.2331 5.48444 17.6947C5.48444 17.2385 5.94934 16.7827 6.4139 16.7827H18.0333L18.1083 16.7466C18.6362 16.4972 19.2191 16.3197 19.7549 16.1785L19.9066 16.1391L19.9813 16.1201L20.1281 16.0834L20.5632 15.9766L20.7619 15.9269L20.8736 15.8979L20.9791 15.8693L21.0457 15.8504L21.0778 15.841L21.1397 15.8222L21.1694 15.8128L21.2263 15.794C21.3274 15.7595 21.4108 15.7246 21.4727 15.6881L22.2164 14.9584H6.41406L6.38765 14.9581C5.84472 14.9467 5.48459 14.5848 5.48459 14.0464C5.48459 13.5902 5.85646 13.1343 6.41406 13.1343L7.47346 13.1394L8.48834 13.1436L9.45967 13.1471L10.3884 13.1498L11.2756 13.1518L12.1222 13.1532L12.9291 13.154L14.0674 13.1542L14.7796 13.1538L15.7804 13.1523L16.703 13.1501L17.5509 13.1472L18.3272 13.1439L19.6788 13.1366L21.67 13.1237L22.1515 13.1214L22.4611 13.1206L22.6447 13.1207L22.8113 13.1213L22.9618 13.1224L23.0973 13.1242L23.2186 13.1267L23.3269 13.1298C23.7859 13.1457 23.8762 13.1847 24.0004 13.2666L24.0755 13.3166C24.8192 12.7695 25.8417 12.4046 26.957 12.4046C28.0647 12.4046 28.9383 12.7879 29.7204 13.2732L29.8054 13.3266L29.8476 13.3535L29.9316 13.4079L29.9319 4.56065L29.9313 4.4842ZM30.8611 25.0825C30.8611 23.0174 29.1548 21.3431 27.0497 21.3431C24.9451 21.3431 23.2387 23.0174 23.2387 25.0825C23.2387 27.148 24.9451 28.8223 27.0497 28.8223C29.1548 28.8223 30.8611 27.148 30.8611 25.0825ZM6.41389 9.48589H12.363L12.3852 9.48624C12.8426 9.50038 13.2925 9.94931 13.2925 10.3979C13.2928 10.8541 12.9209 11.3099 12.363 11.3099H6.41389L6.38748 11.3096C5.84455 11.2954 5.48443 10.8465 5.48443 10.3979C5.48443 9.94173 5.85629 9.48589 6.41389 9.48589Z"/>
<path fill-rule="evenodd" clip-rule="evenodd" d="M26.9569 14.214C28.117 14.214 28.9754 14.8305 29.7153 15.5251L29.8001 15.6055L29.8422 15.6459L29.9256 15.7271L29.9669 15.7678L30.049 15.8492L30.1302 15.9306L30.4485 16.252L30.5267 16.3304L30.6044 16.4076L30.6818 16.4836C30.7076 16.5086 30.7333 16.5334 30.7589 16.558L30.8358 16.6307C31.0916 16.87 31.3444 17.078 31.6047 17.2239C31.891 17.3845 32.2403 17.5009 32.6228 17.6042L32.728 17.6321L32.8346 17.6595L32.9972 17.6999L33.5556 17.8347L33.7264 17.877L33.8407 17.9061L33.9552 17.9361L34.0125 17.9515L34.1269 17.9831C35.0996 18.2568 36.0553 18.6652 36.6243 19.5955C37.1662 20.5138 37.0293 21.5604 36.7809 22.5721L36.7523 22.6865L36.723 22.8005L36.6931 22.9142L36.6475 23.0837L36.541 23.4744L36.5114 23.5845L36.4825 23.6939L36.4683 23.7482L36.4408 23.8563C36.3328 24.2869 36.2525 24.6958 36.2524 25.0679C36.2524 25.4245 36.3262 25.8149 36.4273 26.2257L36.4543 26.3334L36.4823 26.4419L36.5113 26.5512L36.5862 26.8278L36.6626 27.1084L36.7079 27.2783L36.7376 27.3921L36.7666 27.5063C36.7761 27.5445 36.7855 27.5826 36.7947 27.6209L36.8218 27.7357C37.0426 28.6933 37.1355 29.6738 36.6243 30.5404C36.0444 31.4416 35.0622 31.8494 34.07 32.136L33.9555 32.1685L33.841 32.2001L33.6697 32.246L33.5559 32.2758L33.0522 32.4054L32.8887 32.4483L32.7813 32.4772L32.6754 32.5065C32.2723 32.6196 31.9041 32.744 31.6047 32.9119C31.2794 33.0715 30.9598 33.3394 30.6301 33.6515L30.5508 33.7273L30.471 33.8045L30.3908 33.883L30.0223 34.2472L29.9385 34.3294L29.8538 34.4116L29.7683 34.4936L29.7253 34.5345L29.6384 34.6158C28.896 35.305 28.0474 35.9219 26.9569 35.9219C25.73 35.9219 24.8123 35.2321 24.0337 34.4899L23.9493 34.4087L23.9075 34.3681L23.8247 34.2866L23.7429 34.2053L23.582 34.0434L23.3467 33.8054L23.2697 33.7282L23.1934 33.6523L23.1176 33.5779C23.0925 33.5533 23.0674 33.5291 23.0424 33.5051L22.9677 33.4343C22.7442 33.2248 22.5267 33.0432 22.3092 32.9119C22.0229 32.7513 21.6691 32.6349 21.2805 32.5316L21.1737 32.5037L21.0653 32.4763L20.9001 32.4359L20.6756 32.3825L20.3324 32.3011L20.1589 32.2588L20.0429 32.2297L19.9849 32.2148L19.8688 32.1843L19.7528 32.1527C18.7678 31.879 17.8111 31.4706 17.2896 30.5404C16.7784 29.6284 16.8713 28.6251 17.0921 27.6674L17.1192 27.5527C17.1284 27.5146 17.1378 27.4765 17.1473 27.4385L17.1763 27.3249L17.2059 27.2118L17.2361 27.0994L17.2819 26.9321L17.4026 26.495L17.4316 26.3881L17.4596 26.2822L17.4866 26.1774L17.5123 26.0738C17.6 25.7131 17.6615 25.3744 17.6615 25.0679C17.6615 24.7615 17.6 24.4188 17.5123 24.0527L17.4866 23.9474L17.4596 23.841L17.4457 23.7873L17.4026 23.6246L17.2513 23.0672L17.221 22.9534L17.1911 22.8389L17.1617 22.7239L17.1473 22.6662L17.1192 22.5505C16.8797 21.5458 16.7579 20.4966 17.2896 19.5955C17.8474 18.7289 18.777 18.3185 19.7297 18.0335L19.8442 17.9998L19.9587 17.9673L20.0731 17.9357L20.2445 17.8898L20.3582 17.86L20.8619 17.7305L21.0254 17.6875L21.1327 17.6586L21.2387 17.6293C21.6417 17.5162 22.0099 17.3918 22.3092 17.2239C22.5955 17.0634 22.8773 16.8278 23.1655 16.558L23.2442 16.4836L23.3234 16.4076L23.4029 16.3304L23.6039 16.1326L23.7673 15.9712L23.8916 15.8492L23.9754 15.7678L24.0601 15.6865L24.1455 15.6055C24.9189 14.8789 25.8024 14.214 26.9569 14.214ZM21.3796 24.9768C21.3796 21.9668 23.8893 19.413 27.0499 19.413C30.1175 19.413 32.7202 21.8755 32.7202 24.9768C32.6271 28.078 30.1175 30.5405 27.0499 30.5405C23.9823 30.5405 21.3796 28.078 21.3796 24.9768Z"/>
<path fill-rule="evenodd" clip-rule="evenodd" d="M26.9569 14.214C28.117 14.214 28.9754 14.8305 29.7153 15.5251L29.8001 15.6055L29.8422 15.6459L29.9256 15.7271L29.9669 15.7678L30.049 15.8492L30.1302 15.9306L30.4485 16.252L30.5267 16.3304L30.6044 16.4076L30.6818 16.4836C30.7076 16.5086 30.7333 16.5334 30.7589 16.558L30.8358 16.6307C31.0916 16.87 31.3444 17.078 31.6047 17.2239C31.891 17.3845 32.2403 17.5009 32.6228 17.6042L32.728 17.6321L32.8346 17.6595L32.9972 17.6999L33.5556 17.8347L33.7264 17.877L33.8407 17.9061L33.9552 17.9361L34.0125 17.9515L34.1269 17.9831C35.0996 18.2568 36.0553 18.6652 36.6243 19.5955C37.1662 20.5138 37.0293 21.5604 36.7809 22.5721L36.7523 22.6865L36.723 22.8005L36.6931 22.9142L36.6475 23.0837L36.541 23.4744L36.5114 23.5845L36.4825 23.6939L36.4683 23.7482L36.4408 23.8563C36.3328 24.2869 36.2525 24.6958 36.2524 25.0679C36.2524 25.4245 36.3262 25.8149 36.4273 26.2257L36.4543 26.3334L36.4823 26.4419L36.5113 26.5512L36.5862 26.8278L36.6626 27.1084L36.7079 27.2783L36.7376 27.3921L36.7666 27.5063C36.7761 27.5445 36.7855 27.5826 36.7947 27.6209L36.8218 27.7357C37.0426 28.6933 37.1355 29.6738 36.6243 30.5404C36.0444 31.4416 35.0622 31.8494 34.07 32.136L33.9555 32.1685L33.841 32.2001L33.6697 32.246L33.5559 32.2758L33.0522 32.4054L32.8887 32.4483L32.7813 32.4772L32.6754 32.5065C32.2723 32.6196 31.9041 32.744 31.6047 32.9119C31.2794 33.0715 30.9598 33.3394 30.6301 33.6515L30.5508 33.7273L30.471 33.8045L30.3908 33.883L30.0223 34.2472L29.9385 34.3294L29.8538 34.4116L29.7683 34.4936L29.7253 34.5345L29.6384 34.6158C28.896 35.305 28.0474 35.9219 26.9569 35.9219C25.73 35.9219 24.8123 35.2321 24.0337 34.4899L23.9493 34.4087L23.9075 34.3681L23.8247 34.2866L23.7429 34.2053L23.582 34.0434L23.3467 33.8054L23.2697 33.7282L23.1934 33.6523L23.1176 33.5779C23.0925 33.5533 23.0674 33.5291 23.0424 33.5051L22.9677 33.4343C22.7442 33.2248 22.5267 33.0432 22.3092 32.9119C22.0229 32.7513 21.6691 32.6349 21.2805 32.5316L21.1737 32.5037L21.0653 32.4763L20.9001 32.4359L20.6756 32.3825L20.3324 32.3011L20.1589 32.2588L20.0429 32.2297L19.9849 32.2148L19.8688 32.1843L19.7528 32.1527C18.7678 31.879 17.8111 31.4706 17.2896 30.5404C16.7784 29.6284 16.8713 28.6251 17.0921 27.6674L17.1192 27.5527C17.1284 27.5146 17.1378 27.4765 17.1473 27.4385L17.1763 27.3249L17.2059 27.2118L17.2361 27.0994L17.2819 26.9321L17.4026 26.495L17.4316 26.3881L17.4596 26.2822L17.4866 26.1774L17.5123 26.0738C17.6 25.7131 17.6615 25.3744 17.6615 25.0679C17.6615 24.7615 17.6 24.4188 17.5123 24.0527L17.4866 23.9474L17.4596 23.841L17.4457 23.7873L17.4026 23.6246L17.2513 23.0672L17.221 22.9534L17.1911 22.8389L17.1617 22.7239L17.1473 22.6662L17.1192 22.5505C16.8797 21.5458 16.7579 20.4966 17.2896 19.5955C17.8474 18.7289 18.777 18.3185 19.7297 18.0335L19.8442 17.9998L19.9587 17.9673L20.0731 17.9357L20.2445 17.8898L20.3582 17.86L20.8619 17.7305L21.0254 17.6875L21.1327 17.6586L21.2387 17.6293C21.6417 17.5162 22.0099 17.3918 22.3092 17.2239C22.5955 17.0634 22.8773 16.8278 23.1655 16.558L23.2442 16.4836L23.3234 16.4076L23.4029 16.3304L23.6039 16.1326L23.7673 15.9712L23.8916 15.8492L23.9754 15.7678L24.0601 15.6865L24.1455 15.6055C24.9189 14.8789 25.8024 14.214 26.9569 14.214ZM21.3796 24.9768C21.3796 21.9668 23.8893 19.413 27.0499 19.413C30.1175 19.413 32.7202 21.8755 32.7202 24.9768C32.6271 28.078 30.1175 30.5405 27.0499 30.5405C23.9823 30.5405 21.3796 28.078 21.3796 24.9768Z"/>
<path fill-rule="evenodd" clip-rule="evenodd" d="M26.9569 14.214C28.117 14.214 28.9754 14.8305 29.7153 15.5251L29.8001 15.6055L29.8422 15.6459L29.9256 15.7271L29.9669 15.7678L30.049 15.8492L30.1302 15.9306L30.4485 16.252L30.5267 16.3304L30.6044 16.4076L30.6818 16.4836C30.7076 16.5086 30.7333 16.5334 30.7589 16.558L30.8358 16.6307C31.0916 16.87 31.3444 17.078 31.6047 17.2239C31.891 17.3845 32.2403 17.5009 32.6228 17.6042L32.728 17.6321L32.8346 17.6595L32.9972 17.6999L33.5556 17.8347L33.7264 17.877L33.8407 17.9061L33.9552 17.9361L34.0125 17.9515L34.1269 17.9831C35.0996 18.2568 36.0553 18.6652 36.6243 19.5955C37.1662 20.5138 37.0293 21.5604 36.7809 22.5721L36.7523 22.6865L36.723 22.8005L36.6931 22.9142L36.6475 23.0837L36.541 23.4744L36.5114 23.5845L36.4825 23.6939L36.4683 23.7482L36.4408 23.8563C36.3328 24.2869 36.2525 24.6958 36.2524 25.0679C36.2524 25.4245 36.3262 25.8149 36.4273 26.2257L36.4543 26.3334L36.4823 26.4419L36.5113 26.5512L36.5862 26.8278L36.6626 27.1084L36.7079 27.2783L36.7376 27.3921L36.7666 27.5063C36.7761 27.5445 36.7855 27.5826 36.7947 27.6209L36.8218 27.7357C37.0426 28.6933 37.1355 29.6738 36.6243 30.5404C36.0444 31.4416 35.0622 31.8494 34.07 32.136L33.9555 32.1685L33.841 32.2001L33.6697 32.246L33.5559 32.2758L33.0522 32.4054L32.8887 32.4483L32.7813 32.4772L32.6754 32.5065C32.2723 32.6196 31.9041 32.744 31.6047 32.9119C31.2794 33.0715 30.9598 33.3394 30.6301 33.6515L30.5508 33.7273L30.471 33.8045L30.3908 33.883L30.0223 34.2472L29.9385 34.3294L29.8538 34.4116L29.7683 34.4936L29.7253 34.5345L29.6384 34.6158C28.896 35.305 28.0474 35.9219 26.9569 35.9219C25.73 35.9219 24.8123 35.2321 24.0337 34.4899L23.9493 34.4087L23.9075 34.3681L23.8247 34.2866L23.7429 34.2053L23.582 34.0434L23.3467 33.8054L23.2697 33.7282L23.1934 33.6523L23.1176 33.5779C23.0925 33.5533 23.0674 33.5291 23.0424 33.5051L22.9677 33.4343C22.7442 33.2248 22.5267 33.0432 22.3092 32.9119C22.0229 32.7513 21.6691 32.6349 21.2805 32.5316L21.1737 32.5037L21.0653 32.4763L20.9001 32.4359L20.6756 32.3825L20.3324 32.3011L20.1589 32.2588L20.0429 32.2297L19.9849 32.2148L19.8688 32.1843L19.7528 32.1527C18.7678 31.879 17.8111 31.4706 17.2896 30.5404C16.7784 29.6284 16.8713 28.6251 17.0921 27.6674L17.1192 27.5527C17.1284 27.5146 17.1378 27.4765 17.1473 27.4385L17.1763 27.3249L17.2059 27.2118L17.2361 27.0994L17.2819 26.9321L17.4026 26.495L17.4316 26.3881L17.4596 26.2822L17.4866 26.1774L17.5123 26.0738C17.6 25.7131 17.6615 25.3744 17.6615 25.0679C17.6615 24.7615 17.6 24.4188 17.5123 24.0527L17.4866 23.9474L17.4596 23.841L17.4457 23.7873L17.4026 23.6246L17.2513 23.0672L17.221 22.9534L17.1911 22.8389L17.1617 22.7239L17.1473 22.6662L17.1192 22.5505C16.8797 21.5458 16.7579 20.4966 17.2896 19.5955C17.8474 18.7289 18.777 18.3185 19.7297 18.0335L19.8442 17.9998L19.9587 17.9673L20.0731 17.9357L20.2445 17.8898L20.3582 17.86L20.8619 17.7305L21.0254 17.6875L21.1327 17.6586L21.2387 17.6293C21.6417 17.5162 22.0099 17.3918 22.3092 17.2239C22.5955 17.0634 22.8773 16.8278 23.1655 16.558L23.2442 16.4836L23.3234 16.4076L23.4029 16.3304L23.6039 16.1326L23.7673 15.9712L23.8916 15.8492L23.9754 15.7678L24.0601 15.6865L24.1455 15.6055C24.9189 14.8789 25.8024 14.214 26.9569 14.214ZM21.3796 24.9768C21.3796 21.9668 23.8893 19.413 27.0499 19.413C30.1175 19.413 32.7202 21.8755 32.7202 24.9768C32.6271 28.078 30.1175 30.5405 27.0499 30.5405C23.9823 30.5405 21.3796 28.078 21.3796 24.9768Z"/>
<path fill-rule="evenodd" clip-rule="evenodd" d="M26.9569 14.214C28.117 14.214 28.9754 14.8305 29.7153 15.5251L29.8001 15.6055L29.8422 15.6459L29.9256 15.7271L29.9669 15.7678L30.049 15.8492L30.1302 15.9306L30.4485 16.252L30.5267 16.3304L30.6044 16.4076L30.6818 16.4836C30.7076 16.5086 30.7333 16.5334 30.7589 16.558L30.8358 16.6307C31.0916 16.87 31.3444 17.078 31.6047 17.2239C31.891 17.3845 32.2403 17.5009 32.6228 17.6042L32.728 17.6321L32.8346 17.6595L32.9972 17.6999L33.5556 17.8347L33.7264 17.877L33.8407 17.9061L33.9552 17.9361L34.0125 17.9515L34.1269 17.9831C35.0996 18.2568 36.0553 18.6652 36.6243 19.5955C37.1662 20.5138 37.0293 21.5604 36.7809 22.5721L36.7523 22.6865L36.723 22.8005L36.6931 22.9142L36.6475 23.0837L36.541 23.4744L36.5114 23.5845L36.4825 23.6939L36.4683 23.7482L36.4408 23.8563C36.3328 24.2869 36.2525 24.6958 36.2524 25.0679C36.2524 25.4245 36.3262 25.8149 36.4273 26.2257L36.4543 26.3334L36.4823 26.4419L36.5113 26.5512L36.5862 26.8278L36.6626 27.1084L36.7079 27.2783L36.7376 27.3921L36.7666 27.5063C36.7761 27.5445 36.7855 27.5826 36.7947 27.6209L36.8218 27.7357C37.0426 28.6933 37.1355 29.6738 36.6243 30.5404C36.0444 31.4416 35.0622 31.8494 34.07 32.136L33.9555 32.1685L33.841 32.2001L33.6697 32.246L33.5559 32.2758L33.0522 32.4054L32.8887 32.4483L32.7813 32.4772L32.6754 32.5065C32.2723 32.6196 31.9041 32.744 31.6047 32.9119C31.2794 33.0715 30.9598 33.3394 30.6301 33.6515L30.5508 33.7273L30.471 33.8045L30.3908 33.883L30.0223 34.2472L29.9385 34.3294L29.8538 34.4116L29.7683 34.4936L29.7253 34.5345L29.6384 34.6158C28.896 35.305 28.0474 35.9219 26.9569 35.9219C25.73 35.9219 24.8123 35.2321 24.0337 34.4899L23.9493 34.4087L23.9075 34.3681L23.8247 34.2866L23.7429 34.2053L23.582 34.0434L23.3467 33.8054L23.2697 33.7282L23.1934 33.6523L23.1176 33.5779C23.0925 33.5533 23.0674 33.5291 23.0424 33.5051L22.9677 33.4343C22.7442 33.2248 22.5267 33.0432 22.3092 32.9119C22.0229 32.7513 21.6691 32.6349 21.2805 32.5316L21.1737 32.5037L21.0653 32.4763L20.9001 32.4359L20.6756 32.3825L20.3324 32.3011L20.1589 32.2588L20.0429 32.2297L19.9849 32.2148L19.8688 32.1843L19.7528 32.1527C18.7678 31.879 17.8111 31.4706 17.2896 30.5404C16.7784 29.6284 16.8713 28.6251 17.0921 27.6674L17.1192 27.5527C17.1284 27.5146 17.1378 27.4765 17.1473 27.4385L17.1763 27.3249L17.2059 27.2118L17.2361 27.0994L17.2819 26.9321L17.4026 26.495L17.4316 26.3881L17.4596 26.2822L17.4866 26.1774L17.5123 26.0738C17.6 25.7131 17.6615 25.3744 17.6615 25.0679C17.6615 24.7615 17.6 24.4188 17.5123 24.0527L17.4866 23.9474L17.4596 23.841L17.4457 23.7873L17.4026 23.6246L17.2513 23.0672L17.221 22.9534L17.1911 22.8389L17.1617 22.7239L17.1473 22.6662L17.1192 22.5505C16.8797 21.5458 16.7579 20.4966 17.2896 19.5955C17.8474 18.7289 18.777 18.3185 19.7297 18.0335L19.8442 17.9998L19.9587 17.9673L20.0731 17.9357L20.2445 17.8898L20.3582 17.86L20.8619 17.7305L21.0254 17.6875L21.1327 17.6586L21.2387 17.6293C21.6417 17.5162 22.0099 17.3918 22.3092 17.2239C22.5955 17.0634 22.8773 16.8278 23.1655 16.558L23.2442 16.4836L23.3234 16.4076L23.4029 16.3304L23.6039 16.1326L23.7673 15.9712L23.8916 15.8492L23.9754 15.7678L24.0601 15.6865L24.1455 15.6055C24.9189 14.8789 25.8024 14.214 26.9569 14.214ZM21.3796 24.9768C21.3796 21.9668 23.8893 19.413 27.0499 19.413C30.1175 19.413 32.7202 21.8755 32.7202 24.9768C32.6271 28.078 30.1175 30.5405 27.0499 30.5405C23.9823 30.5405 21.3796 28.078 21.3796 24.9768Z"/>
</mask>
<path fill-rule="evenodd" clip-rule="evenodd" d="M22.0057 35.096C21.7273 34.8252 21.4913 34.6281 21.2867 34.5679L19.2416 41.4086L19.2308 41.4469C19.0597 42.0725 19.1561 42.6964 19.5204 43.2326C19.9853 43.871 20.9148 44.0533 21.5655 43.6887C25.1908 41.4998 28.909 41.5908 32.6272 43.6887C33.1848 43.9626 34.0212 43.8717 34.5793 43.1419C34.9511 42.6858 35.0442 41.9563 34.8581 41.4089L32.813 34.5682L32.799 34.5688C32.748 34.5736 32.6985 34.6032 32.6658 34.6273L32.6498 34.6398L32.6376 34.65L32.6272 34.6595C32.5715 34.6869 32.499 34.7389 32.4173 34.8081L32.3757 34.8441L32.3328 34.8828L32.2888 34.924L32.2439 34.9674L32.1983 35.0128L32.1521 35.0601L32.129 35.0844L32.0825 35.1341L32.0593 35.1594L32.013 35.211L31.967 35.2636L31.9216 35.3171L31.8769 35.3711L31.855 35.3983L31.8119 35.4529L31.7908 35.4802L31.538 35.7288L31.4164 35.8474L31.2913 35.9678L31.195 36.0591L31.0966 36.1509L30.9959 36.2429L30.9275 36.3042L30.8581 36.3655L30.7876 36.4267L30.716 36.4876L30.6433 36.5483L30.6066 36.5785L30.5322 36.6386L30.4946 36.6685L30.4184 36.7279C30.3801 36.7575 30.3413 36.7869 30.302 36.816L30.2229 36.8738L30.1425 36.9309C29.3323 37.4981 28.3328 37.9427 27.05 37.9427C25.1956 37.9427 23.8848 36.9352 22.9282 36.018L22.8288 35.9219C22.7634 35.858 22.6997 35.7948 22.6377 35.7327L22.5458 35.6402L22.2022 35.2913L22.0827 35.1716L22.0057 35.096ZM29.9313 4.4842C29.891 1.96694 27.8608 0 25.2842 0H4.64775L4.56984 0.000600732C2.0044 0.0401885 0 2.03222 0 4.56045V34.5682L0.00061204 34.6446C0.0409576 37.1619 2.07112 39.1286 4.64775 39.1286H17.8474L19.4275 33.9297L19.3855 33.9179L19.301 33.8935L19.2161 33.8684L19.1308 33.8424L19.0452 33.8156L18.9593 33.7879L18.9163 33.7736L18.83 33.7445L18.7868 33.7295L18.7003 33.6989L18.657 33.6831L18.5704 33.6509L18.4838 33.6176L18.3972 33.5832L18.3107 33.5476C18.1954 33.4994 18.0805 33.448 17.9665 33.3931L17.8811 33.3513C17.0721 32.9476 16.3149 32.3616 15.8023 31.4672C15.4304 30.8288 15.2446 30.1903 15.2446 29.5519L6.41391 29.5515L6.3875 29.5512C5.84457 29.5371 5.48444 29.0881 5.48444 28.6395C5.48444 28.1834 5.85631 27.7275 6.41391 27.7275H15.2446L15.295 27.476L15.3265 27.3206L15.3485 27.2164C15.4158 26.9038 15.4969 26.5939 15.6165 26.3593C15.6165 26.3319 15.6249 26.2963 15.6366 26.255L15.67 26.1412C15.6907 26.0674 15.7095 25.9853 15.7095 25.9031L6.41404 25.9034L6.39191 25.9031C5.93451 25.889 5.48458 25.44 5.48458 24.9914C5.48458 24.4443 5.94948 24.0794 6.41404 24.0794H15.7095L15.7095 24.0557L15.7091 24.0334L15.708 24.0117C15.7036 23.9479 15.686 23.8971 15.6165 23.8971C15.5979 23.8059 15.5756 23.711 15.551 23.6125L15.5206 23.4926L15.4389 23.1774L15.4055 23.0451C15.3445 22.7996 15.2856 22.5363 15.2446 22.2554L6.41391 22.2551L6.39177 22.2547C5.93437 22.2406 5.48444 21.7917 5.48444 21.3431C5.48444 20.7959 5.94935 20.4311 6.41391 20.4311H15.2446L15.2562 20.365C15.3527 19.833 15.5346 19.2235 15.8023 18.698L15.8953 18.6067H6.4139L6.39177 18.6064C5.93436 18.5951 5.48444 18.2331 5.48444 17.6947C5.48444 17.2385 5.94934 16.7827 6.4139 16.7827H18.0333L18.1083 16.7466C18.6362 16.4972 19.2191 16.3197 19.7549 16.1785L19.9066 16.1391L19.9813 16.1201L20.1281 16.0834L20.5632 15.9766L20.7619 15.9269L20.8736 15.8979L20.9791 15.8693L21.0457 15.8504L21.0778 15.841L21.1397 15.8222L21.1694 15.8128L21.2263 15.794C21.3274 15.7595 21.4108 15.7246 21.4727 15.6881L22.2164 14.9584H6.41406L6.38765 14.9581C5.84472 14.9467 5.48459 14.5848 5.48459 14.0464C5.48459 13.5902 5.85646 13.1343 6.41406 13.1343L7.47346 13.1394L8.48834 13.1436L9.45967 13.1471L10.3884 13.1498L11.2756 13.1518L12.1222 13.1532L12.9291 13.154L14.0674 13.1542L14.7796 13.1538L15.7804 13.1523L16.703 13.1501L17.5509 13.1472L18.3272 13.1439L19.6788 13.1366L21.67 13.1237L22.1515 13.1214L22.4611 13.1206L22.6447 13.1207L22.8113 13.1213L22.9618 13.1224L23.0973 13.1242L23.2186 13.1267L23.3269 13.1298C23.7859 13.1457 23.8762 13.1847 24.0004 13.2666L24.0755 13.3166C24.8192 12.7695 25.8417 12.4046 26.957 12.4046C28.0647 12.4046 28.9383 12.7879 29.7204 13.2732L29.8054 13.3266L29.8476 13.3535L29.9316 13.4079L29.9319 4.56065L29.9313 4.4842ZM30.8611 25.0825C30.8611 23.0174 29.1548 21.3431 27.0497 21.3431C24.9451 21.3431 23.2387 23.0174 23.2387 25.0825C23.2387 27.148 24.9451 28.8223 27.0497 28.8223C29.1548 28.8223 30.8611 27.148 30.8611 25.0825ZM6.41389 9.48589H12.363L12.3852 9.48624C12.8426 9.50038 13.2925 9.94931 13.2925 10.3979C13.2928 10.8541 12.9209 11.3099 12.363 11.3099H6.41389L6.38748 11.3096C5.84455 11.2954 5.48443 10.8465 5.48443 10.3979C5.48443 9.94173 5.85629 9.48589 6.41389 9.48589Z" fill="white"/>
<path fill-rule="evenodd" clip-rule="evenodd" d="M26.9569 14.214C28.117 14.214 28.9754 14.8305 29.7153 15.5251L29.8001 15.6055L29.8422 15.6459L29.9256 15.7271L29.9669 15.7678L30.049 15.8492L30.1302 15.9306L30.4485 16.252L30.5267 16.3304L30.6044 16.4076L30.6818 16.4836C30.7076 16.5086 30.7333 16.5334 30.7589 16.558L30.8358 16.6307C31.0916 16.87 31.3444 17.078 31.6047 17.2239C31.891 17.3845 32.2403 17.5009 32.6228 17.6042L32.728 17.6321L32.8346 17.6595L32.9972 17.6999L33.5556 17.8347L33.7264 17.877L33.8407 17.9061L33.9552 17.9361L34.0125 17.9515L34.1269 17.9831C35.0996 18.2568 36.0553 18.6652 36.6243 19.5955C37.1662 20.5138 37.0293 21.5604 36.7809 22.5721L36.7523 22.6865L36.723 22.8005L36.6931 22.9142L36.6475 23.0837L36.541 23.4744L36.5114 23.5845L36.4825 23.6939L36.4683 23.7482L36.4408 23.8563C36.3328 24.2869 36.2525 24.6958 36.2524 25.0679C36.2524 25.4245 36.3262 25.8149 36.4273 26.2257L36.4543 26.3334L36.4823 26.4419L36.5113 26.5512L36.5862 26.8278L36.6626 27.1084L36.7079 27.2783L36.7376 27.3921L36.7666 27.5063C36.7761 27.5445 36.7855 27.5826 36.7947 27.6209L36.8218 27.7357C37.0426 28.6933 37.1355 29.6738 36.6243 30.5404C36.0444 31.4416 35.0622 31.8494 34.07 32.136L33.9555 32.1685L33.841 32.2001L33.6697 32.246L33.5559 32.2758L33.0522 32.4054L32.8887 32.4483L32.7813 32.4772L32.6754 32.5065C32.2723 32.6196 31.9041 32.744 31.6047 32.9119C31.2794 33.0715 30.9598 33.3394 30.6301 33.6515L30.5508 33.7273L30.471 33.8045L30.3908 33.883L30.0223 34.2472L29.9385 34.3294L29.8538 34.4116L29.7683 34.4936L29.7253 34.5345L29.6384 34.6158C28.896 35.305 28.0474 35.9219 26.9569 35.9219C25.73 35.9219 24.8123 35.2321 24.0337 34.4899L23.9493 34.4087L23.9075 34.3681L23.8247 34.2866L23.7429 34.2053L23.582 34.0434L23.3467 33.8054L23.2697 33.7282L23.1934 33.6523L23.1176 33.5779C23.0925 33.5533 23.0674 33.5291 23.0424 33.5051L22.9677 33.4343C22.7442 33.2248 22.5267 33.0432 22.3092 32.9119C22.0229 32.7513 21.6691 32.6349 21.2805 32.5316L21.1737 32.5037L21.0653 32.4763L20.9001 32.4359L20.6756 32.3825L20.3324 32.3011L20.1589 32.2588L20.0429 32.2297L19.9849 32.2148L19.8688 32.1843L19.7528 32.1527C18.7678 31.879 17.8111 31.4706 17.2896 30.5404C16.7784 29.6284 16.8713 28.6251 17.0921 27.6674L17.1192 27.5527C17.1284 27.5146 17.1378 27.4765 17.1473 27.4385L17.1763 27.3249L17.2059 27.2118L17.2361 27.0994L17.2819 26.9321L17.4026 26.495L17.4316 26.3881L17.4596 26.2822L17.4866 26.1774L17.5123 26.0738C17.6 25.7131 17.6615 25.3744 17.6615 25.0679C17.6615 24.7615 17.6 24.4188 17.5123 24.0527L17.4866 23.9474L17.4596 23.841L17.4457 23.7873L17.4026 23.6246L17.2513 23.0672L17.221 22.9534L17.1911 22.8389L17.1617 22.7239L17.1473 22.6662L17.1192 22.5505C16.8797 21.5458 16.7579 20.4966 17.2896 19.5955C17.8474 18.7289 18.777 18.3185 19.7297 18.0335L19.8442 17.9998L19.9587 17.9673L20.0731 17.9357L20.2445 17.8898L20.3582 17.86L20.8619 17.7305L21.0254 17.6875L21.1327 17.6586L21.2387 17.6293C21.6417 17.5162 22.0099 17.3918 22.3092 17.2239C22.5955 17.0634 22.8773 16.8278 23.1655 16.558L23.2442 16.4836L23.3234 16.4076L23.4029 16.3304L23.6039 16.1326L23.7673 15.9712L23.8916 15.8492L23.9754 15.7678L24.0601 15.6865L24.1455 15.6055C24.9189 14.8789 25.8024 14.214 26.9569 14.214ZM21.3796 24.9768C21.3796 21.9668 23.8893 19.413 27.0499 19.413C30.1175 19.413 32.7202 21.8755 32.7202 24.9768C32.6271 28.078 30.1175 30.5405 27.0499 30.5405C23.9823 30.5405 21.3796 28.078 21.3796 24.9768Z" fill="white"/>
<path fill-rule="evenodd" clip-rule="evenodd" d="M26.9569 14.214C28.117 14.214 28.9754 14.8305 29.7153 15.5251L29.8001 15.6055L29.8422 15.6459L29.9256 15.7271L29.9669 15.7678L30.049 15.8492L30.1302 15.9306L30.4485 16.252L30.5267 16.3304L30.6044 16.4076L30.6818 16.4836C30.7076 16.5086 30.7333 16.5334 30.7589 16.558L30.8358 16.6307C31.0916 16.87 31.3444 17.078 31.6047 17.2239C31.891 17.3845 32.2403 17.5009 32.6228 17.6042L32.728 17.6321L32.8346 17.6595L32.9972 17.6999L33.5556 17.8347L33.7264 17.877L33.8407 17.9061L33.9552 17.9361L34.0125 17.9515L34.1269 17.9831C35.0996 18.2568 36.0553 18.6652 36.6243 19.5955C37.1662 20.5138 37.0293 21.5604 36.7809 22.5721L36.7523 22.6865L36.723 22.8005L36.6931 22.9142L36.6475 23.0837L36.541 23.4744L36.5114 23.5845L36.4825 23.6939L36.4683 23.7482L36.4408 23.8563C36.3328 24.2869 36.2525 24.6958 36.2524 25.0679C36.2524 25.4245 36.3262 25.8149 36.4273 26.2257L36.4543 26.3334L36.4823 26.4419L36.5113 26.5512L36.5862 26.8278L36.6626 27.1084L36.7079 27.2783L36.7376 27.3921L36.7666 27.5063C36.7761 27.5445 36.7855 27.5826 36.7947 27.6209L36.8218 27.7357C37.0426 28.6933 37.1355 29.6738 36.6243 30.5404C36.0444 31.4416 35.0622 31.8494 34.07 32.136L33.9555 32.1685L33.841 32.2001L33.6697 32.246L33.5559 32.2758L33.0522 32.4054L32.8887 32.4483L32.7813 32.4772L32.6754 32.5065C32.2723 32.6196 31.9041 32.744 31.6047 32.9119C31.2794 33.0715 30.9598 33.3394 30.6301 33.6515L30.5508 33.7273L30.471 33.8045L30.3908 33.883L30.0223 34.2472L29.9385 34.3294L29.8538 34.4116L29.7683 34.4936L29.7253 34.5345L29.6384 34.6158C28.896 35.305 28.0474 35.9219 26.9569 35.9219C25.73 35.9219 24.8123 35.2321 24.0337 34.4899L23.9493 34.4087L23.9075 34.3681L23.8247 34.2866L23.7429 34.2053L23.582 34.0434L23.3467 33.8054L23.2697 33.7282L23.1934 33.6523L23.1176 33.5779C23.0925 33.5533 23.0674 33.5291 23.0424 33.5051L22.9677 33.4343C22.7442 33.2248 22.5267 33.0432 22.3092 32.9119C22.0229 32.7513 21.6691 32.6349 21.2805 32.5316L21.1737 32.5037L21.0653 32.4763L20.9001 32.4359L20.6756 32.3825L20.3324 32.3011L20.1589 32.2588L20.0429 32.2297L19.9849 32.2148L19.8688 32.1843L19.7528 32.1527C18.7678 31.879 17.8111 31.4706 17.2896 30.5404C16.7784 29.6284 16.8713 28.6251 17.0921 27.6674L17.1192 27.5527C17.1284 27.5146 17.1378 27.4765 17.1473 27.4385L17.1763 27.3249L17.2059 27.2118L17.2361 27.0994L17.2819 26.9321L17.4026 26.495L17.4316 26.3881L17.4596 26.2822L17.4866 26.1774L17.5123 26.0738C17.6 25.7131 17.6615 25.3744 17.6615 25.0679C17.6615 24.7615 17.6 24.4188 17.5123 24.0527L17.4866 23.9474L17.4596 23.841L17.4457 23.7873L17.4026 23.6246L17.2513 23.0672L17.221 22.9534L17.1911 22.8389L17.1617 22.7239L17.1473 22.6662L17.1192 22.5505C16.8797 21.5458 16.7579 20.4966 17.2896 19.5955C17.8474 18.7289 18.777 18.3185 19.7297 18.0335L19.8442 17.9998L19.9587 17.9673L20.0731 17.9357L20.2445 17.8898L20.3582 17.86L20.8619 17.7305L21.0254 17.6875L21.1327 17.6586L21.2387 17.6293C21.6417 17.5162 22.0099 17.3918 22.3092 17.2239C22.5955 17.0634 22.8773 16.8278 23.1655 16.558L23.2442 16.4836L23.3234 16.4076L23.4029 16.3304L23.6039 16.1326L23.7673 15.9712L23.8916 15.8492L23.9754 15.7678L24.0601 15.6865L24.1455 15.6055C24.9189 14.8789 25.8024 14.214 26.9569 14.214ZM21.3796 24.9768C21.3796 21.9668 23.8893 19.413 27.0499 19.413C30.1175 19.413 32.7202 21.8755 32.7202 24.9768C32.6271 28.078 30.1175 30.5405 27.0499 30.5405C23.9823 30.5405 21.3796 28.078 21.3796 24.9768Z" fill="white"/>
<path fill-rule="evenodd" clip-rule="evenodd" d="M26.9569 14.214C28.117 14.214 28.9754 14.8305 29.7153 15.5251L29.8001 15.6055L29.8422 15.6459L29.9256 15.7271L29.9669 15.7678L30.049 15.8492L30.1302 15.9306L30.4485 16.252L30.5267 16.3304L30.6044 16.4076L30.6818 16.4836C30.7076 16.5086 30.7333 16.5334 30.7589 16.558L30.8358 16.6307C31.0916 16.87 31.3444 17.078 31.6047 17.2239C31.891 17.3845 32.2403 17.5009 32.6228 17.6042L32.728 17.6321L32.8346 17.6595L32.9972 17.6999L33.5556 17.8347L33.7264 17.877L33.8407 17.9061L33.9552 17.9361L34.0125 17.9515L34.1269 17.9831C35.0996 18.2568 36.0553 18.6652 36.6243 19.5955C37.1662 20.5138 37.0293 21.5604 36.7809 22.5721L36.7523 22.6865L36.723 22.8005L36.6931 22.9142L36.6475 23.0837L36.541 23.4744L36.5114 23.5845L36.4825 23.6939L36.4683 23.7482L36.4408 23.8563C36.3328 24.2869 36.2525 24.6958 36.2524 25.0679C36.2524 25.4245 36.3262 25.8149 36.4273 26.2257L36.4543 26.3334L36.4823 26.4419L36.5113 26.5512L36.5862 26.8278L36.6626 27.1084L36.7079 27.2783L36.7376 27.3921L36.7666 27.5063C36.7761 27.5445 36.7855 27.5826 36.7947 27.6209L36.8218 27.7357C37.0426 28.6933 37.1355 29.6738 36.6243 30.5404C36.0444 31.4416 35.0622 31.8494 34.07 32.136L33.9555 32.1685L33.841 32.2001L33.6697 32.246L33.5559 32.2758L33.0522 32.4054L32.8887 32.4483L32.7813 32.4772L32.6754 32.5065C32.2723 32.6196 31.9041 32.744 31.6047 32.9119C31.2794 33.0715 30.9598 33.3394 30.6301 33.6515L30.5508 33.7273L30.471 33.8045L30.3908 33.883L30.0223 34.2472L29.9385 34.3294L29.8538 34.4116L29.7683 34.4936L29.7253 34.5345L29.6384 34.6158C28.896 35.305 28.0474 35.9219 26.9569 35.9219C25.73 35.9219 24.8123 35.2321 24.0337 34.4899L23.9493 34.4087L23.9075 34.3681L23.8247 34.2866L23.7429 34.2053L23.582 34.0434L23.3467 33.8054L23.2697 33.7282L23.1934 33.6523L23.1176 33.5779C23.0925 33.5533 23.0674 33.5291 23.0424 33.5051L22.9677 33.4343C22.7442 33.2248 22.5267 33.0432 22.3092 32.9119C22.0229 32.7513 21.6691 32.6349 21.2805 32.5316L21.1737 32.5037L21.0653 32.4763L20.9001 32.4359L20.6756 32.3825L20.3324 32.3011L20.1589 32.2588L20.0429 32.2297L19.9849 32.2148L19.8688 32.1843L19.7528 32.1527C18.7678 31.879 17.8111 31.4706 17.2896 30.5404C16.7784 29.6284 16.8713 28.6251 17.0921 27.6674L17.1192 27.5527C17.1284 27.5146 17.1378 27.4765 17.1473 27.4385L17.1763 27.3249L17.2059 27.2118L17.2361 27.0994L17.2819 26.9321L17.4026 26.495L17.4316 26.3881L17.4596 26.2822L17.4866 26.1774L17.5123 26.0738C17.6 25.7131 17.6615 25.3744 17.6615 25.0679C17.6615 24.7615 17.6 24.4188 17.5123 24.0527L17.4866 23.9474L17.4596 23.841L17.4457 23.7873L17.4026 23.6246L17.2513 23.0672L17.221 22.9534L17.1911 22.8389L17.1617 22.7239L17.1473 22.6662L17.1192 22.5505C16.8797 21.5458 16.7579 20.4966 17.2896 19.5955C17.8474 18.7289 18.777 18.3185 19.7297 18.0335L19.8442 17.9998L19.9587 17.9673L20.0731 17.9357L20.2445 17.8898L20.3582 17.86L20.8619 17.7305L21.0254 17.6875L21.1327 17.6586L21.2387 17.6293C21.6417 17.5162 22.0099 17.3918 22.3092 17.2239C22.5955 17.0634 22.8773 16.8278 23.1655 16.558L23.2442 16.4836L23.3234 16.4076L23.4029 16.3304L23.6039 16.1326L23.7673 15.9712L23.8916 15.8492L23.9754 15.7678L24.0601 15.6865L24.1455 15.6055C24.9189 14.8789 25.8024 14.214 26.9569 14.214ZM21.3796 24.9768C21.3796 21.9668 23.8893 19.413 27.0499 19.413C30.1175 19.413 32.7202 21.8755 32.7202 24.9768C32.6271 28.078 30.1175 30.5405 27.0499 30.5405C23.9823 30.5405 21.3796 28.078 21.3796 24.9768Z" fill="white"/>
<path fill-rule="evenodd" clip-rule="evenodd" d="M26.9569 14.214C28.117 14.214 28.9754 14.8305 29.7153 15.5251L29.8001 15.6055L29.8422 15.6459L29.9256 15.7271L29.9669 15.7678L30.049 15.8492L30.1302 15.9306L30.4485 16.252L30.5267 16.3304L30.6044 16.4076L30.6818 16.4836C30.7076 16.5086 30.7333 16.5334 30.7589 16.558L30.8358 16.6307C31.0916 16.87 31.3444 17.078 31.6047 17.2239C31.891 17.3845 32.2403 17.5009 32.6228 17.6042L32.728 17.6321L32.8346 17.6595L32.9972 17.6999L33.5556 17.8347L33.7264 17.877L33.8407 17.9061L33.9552 17.9361L34.0125 17.9515L34.1269 17.9831C35.0996 18.2568 36.0553 18.6652 36.6243 19.5955C37.1662 20.5138 37.0293 21.5604 36.7809 22.5721L36.7523 22.6865L36.723 22.8005L36.6931 22.9142L36.6475 23.0837L36.541 23.4744L36.5114 23.5845L36.4825 23.6939L36.4683 23.7482L36.4408 23.8563C36.3328 24.2869 36.2525 24.6958 36.2524 25.0679C36.2524 25.4245 36.3262 25.8149 36.4273 26.2257L36.4543 26.3334L36.4823 26.4419L36.5113 26.5512L36.5862 26.8278L36.6626 27.1084L36.7079 27.2783L36.7376 27.3921L36.7666 27.5063C36.7761 27.5445 36.7855 27.5826 36.7947 27.6209L36.8218 27.7357C37.0426 28.6933 37.1355 29.6738 36.6243 30.5404C36.0444 31.4416 35.0622 31.8494 34.07 32.136L33.9555 32.1685L33.841 32.2001L33.6697 32.246L33.5559 32.2758L33.0522 32.4054L32.8887 32.4483L32.7813 32.4772L32.6754 32.5065C32.2723 32.6196 31.9041 32.744 31.6047 32.9119C31.2794 33.0715 30.9598 33.3394 30.6301 33.6515L30.5508 33.7273L30.471 33.8045L30.3908 33.883L30.0223 34.2472L29.9385 34.3294L29.8538 34.4116L29.7683 34.4936L29.7253 34.5345L29.6384 34.6158C28.896 35.305 28.0474 35.9219 26.9569 35.9219C25.73 35.9219 24.8123 35.2321 24.0337 34.4899L23.9493 34.4087L23.9075 34.3681L23.8247 34.2866L23.7429 34.2053L23.582 34.0434L23.3467 33.8054L23.2697 33.7282L23.1934 33.6523L23.1176 33.5779C23.0925 33.5533 23.0674 33.5291 23.0424 33.5051L22.9677 33.4343C22.7442 33.2248 22.5267 33.0432 22.3092 32.9119C22.0229 32.7513 21.6691 32.6349 21.2805 32.5316L21.1737 32.5037L21.0653 32.4763L20.9001 32.4359L20.6756 32.3825L20.3324 32.3011L20.1589 32.2588L20.0429 32.2297L19.9849 32.2148L19.8688 32.1843L19.7528 32.1527C18.7678 31.879 17.8111 31.4706 17.2896 30.5404C16.7784 29.6284 16.8713 28.6251 17.0921 27.6674L17.1192 27.5527C17.1284 27.5146 17.1378 27.4765 17.1473 27.4385L17.1763 27.3249L17.2059 27.2118L17.2361 27.0994L17.2819 26.9321L17.4026 26.495L17.4316 26.3881L17.4596 26.2822L17.4866 26.1774L17.5123 26.0738C17.6 25.7131 17.6615 25.3744 17.6615 25.0679C17.6615 24.7615 17.6 24.4188 17.5123 24.0527L17.4866 23.9474L17.4596 23.841L17.4457 23.7873L17.4026 23.6246L17.2513 23.0672L17.221 22.9534L17.1911 22.8389L17.1617 22.7239L17.1473 22.6662L17.1192 22.5505C16.8797 21.5458 16.7579 20.4966 17.2896 19.5955C17.8474 18.7289 18.777 18.3185 19.7297 18.0335L19.8442 17.9998L19.9587 17.9673L20.0731 17.9357L20.2445 17.8898L20.3582 17.86L20.8619 17.7305L21.0254 17.6875L21.1327 17.6586L21.2387 17.6293C21.6417 17.5162 22.0099 17.3918 22.3092 17.2239C22.5955 17.0634 22.8773 16.8278 23.1655 16.558L23.2442 16.4836L23.3234 16.4076L23.4029 16.3304L23.6039 16.1326L23.7673 15.9712L23.8916 15.8492L23.9754 15.7678L24.0601 15.6865L24.1455 15.6055C24.9189 14.8789 25.8024 14.214 26.9569 14.214ZM21.3796 24.9768C21.3796 21.9668 23.8893 19.413 27.0499 19.413C30.1175 19.413 32.7202 21.8755 32.7202 24.9768C32.6271 28.078 30.1175 30.5405 27.0499 30.5405C23.9823 30.5405 21.3796 28.078 21.3796 24.9768Z" fill="#F0AA3B"/>
<path d="M29.7153 15.5251L30.0593 15.1622L30.0575 15.1605L29.7153 15.5251ZM29.8001 15.6055L30.1459 15.2443L30.1442 15.2427L29.8001 15.6055ZM29.8422 15.6459L30.1909 15.2876L30.1895 15.2863L29.8422 15.6459ZM29.9256 15.7271L30.2756 15.37L30.2742 15.3687L29.9256 15.7271ZM29.9669 15.7678L30.3191 15.4128L30.3181 15.4118L29.9669 15.7678ZM30.049 15.8492L30.4028 15.4959L30.4011 15.4942L30.049 15.8492ZM30.1302 15.9306L30.4855 15.5787L30.4841 15.5773L30.1302 15.9306ZM30.4485 16.252L30.0932 16.6038L30.0944 16.605L30.4485 16.252ZM30.5267 16.3304L30.1726 16.6834L30.1743 16.6851L30.5267 16.3304ZM30.6044 16.4076L30.252 16.7623L30.2543 16.7645L30.6044 16.4076ZM30.6818 16.4836L30.3317 16.8405L30.333 16.8418L30.6818 16.4836ZM30.7589 16.558L30.4133 16.9193L30.4153 16.9212L30.7589 16.558ZM30.8358 16.6307L30.4921 16.9939L30.4942 16.9958L30.8358 16.6307ZM31.6047 17.2239L31.8493 16.7878L31.8492 16.7878L31.6047 17.2239ZM32.6228 17.6042L32.4924 18.0869L32.4947 18.0875L32.6228 17.6042ZM32.728 17.6321L32.5998 18.1154L32.6037 18.1164L32.728 17.6321ZM32.8346 17.6595L32.7103 18.1438L32.714 18.1447L32.8346 17.6595ZM32.9972 17.6999L32.8765 18.1851L32.8798 18.1859L32.9972 17.6999ZM33.5556 17.8347L33.6758 17.3494L33.673 17.3487L33.5556 17.8347ZM33.7264 17.877L33.8498 17.3925L33.8466 17.3917L33.7264 17.877ZM33.8407 17.9061L33.9675 17.4224L33.9641 17.4216L33.8407 17.9061ZM33.9552 17.9361L34.0839 17.4529L34.082 17.4524L33.9552 17.9361ZM34.0125 17.9515L34.1455 17.4695L34.1432 17.4689L34.0125 17.9515ZM34.1269 17.9831L34.2624 17.5018L34.26 17.5011L34.1269 17.9831ZM36.6243 19.5955L37.0549 19.3413L37.0508 19.3346L36.6243 19.5955ZM36.7809 22.5721L37.266 22.6933L37.2665 22.6914L36.7809 22.5721ZM36.7523 22.6865L37.2366 22.8111L37.2374 22.8077L36.7523 22.6865ZM36.723 22.8005L37.2065 22.9279L37.2072 22.9251L36.723 22.8005ZM36.6931 22.9142L37.1759 23.044L37.1766 23.0415L36.6931 22.9142ZM36.6475 23.0837L37.1299 23.2152L37.1303 23.2136L36.6475 23.0837ZM36.541 23.4744L36.0586 23.343L36.0582 23.3446L36.541 23.4744ZM36.5114 23.5845L36.0286 23.4547L36.028 23.4567L36.5114 23.5845ZM36.4825 23.6939L35.9991 23.566L35.9988 23.5673L36.4825 23.6939ZM36.4683 23.7482L35.9842 23.6231L35.9838 23.6248L36.4683 23.7482ZM36.4408 23.8563L35.9563 23.7329L35.9558 23.7347L36.4408 23.8563ZM36.2524 25.0679L35.7524 25.0678V25.0679H36.2524ZM36.4273 26.2257L35.9418 26.3453L35.9423 26.3473L36.4273 26.2257ZM36.4543 26.3334L35.9693 26.455L35.9702 26.4585L36.4543 26.3334ZM36.4823 26.4419L35.9982 26.567L35.999 26.5697L36.4823 26.4419ZM36.5113 26.5512L36.0279 26.6791L36.0286 26.6819L36.5113 26.5512ZM36.5862 26.8278L36.1036 26.9585L36.1037 26.9592L36.5862 26.8278ZM36.6626 27.1084L37.1457 26.9794L37.145 26.977L36.6626 27.1084ZM36.7079 27.2783L37.1918 27.1522L37.191 27.1493L36.7079 27.2783ZM36.7376 27.3921L37.2222 27.2691L37.2214 27.2661L36.7376 27.3921ZM36.7666 27.5063L37.2517 27.3851L37.2512 27.3834L36.7666 27.5063ZM36.7947 27.6209L37.2814 27.5061L37.2808 27.5038L36.7947 27.6209ZM36.8218 27.7357L37.309 27.6233L37.3084 27.6209L36.8218 27.7357ZM36.6243 30.5404L37.0447 30.8109L37.05 30.8028L37.0549 30.7944L36.6243 30.5404ZM34.07 32.136L34.2067 32.6169L34.2087 32.6164L34.07 32.136ZM33.9555 32.1685L34.0885 32.6505L34.0922 32.6495L33.9555 32.1685ZM33.841 32.2001L33.9704 32.6831L33.974 32.6821L33.841 32.2001ZM33.6697 32.246L33.7963 32.7297L33.799 32.729L33.6697 32.246ZM33.5559 32.2758L33.6805 32.76L33.6825 32.7595L33.5559 32.2758ZM33.0522 32.4054L32.9276 31.9211L32.9253 31.9217L33.0522 32.4054ZM32.8887 32.4483L32.7618 31.9646L32.7587 31.9655L32.8887 32.4483ZM32.7813 32.4772L32.6514 31.9944L32.6481 31.9953L32.7813 32.4772ZM32.6754 32.5065L32.5422 32.0245L32.5403 32.0251L32.6754 32.5065ZM31.6047 32.9119L31.8249 33.3608L31.8372 33.3547L31.8492 33.348L31.6047 32.9119ZM30.6301 33.6515L30.2864 33.2884L30.2849 33.2899L30.6301 33.6515ZM30.5508 33.7273L30.2056 33.3656L30.203 33.368L30.5508 33.7273ZM30.471 33.8045L30.1233 33.4452L30.1214 33.4471L30.471 33.8045ZM30.3908 33.883L30.0411 33.5256L30.0393 33.5274L30.3908 33.883ZM30.0223 34.2472L30.3723 34.6043L30.3737 34.6028L30.0223 34.2472ZM29.9385 34.3294L30.2868 34.6881L30.2885 34.6864L29.9385 34.3294ZM29.8538 34.4116L30.2 34.7724L30.2022 34.7702L29.8538 34.4116ZM29.7683 34.4936L30.1132 34.8556L30.1145 34.8544L29.7683 34.4936ZM29.7253 34.5345L30.0671 34.8993L30.0687 34.8978L29.7253 34.5345ZM29.6384 34.6158L29.9786 34.9823L29.9803 34.9807L29.6384 34.6158ZM24.0337 34.4899L23.6872 34.8503L23.6887 34.8518L24.0337 34.4899ZM23.9493 34.4087L23.6013 34.7677L23.6028 34.7691L23.9493 34.4087ZM23.9075 34.3681L23.557 34.7246L23.5582 34.7258L23.9075 34.3681ZM23.8247 34.2866L23.4722 34.6412L23.4742 34.6432L23.8247 34.2866ZM23.7429 34.2053L23.3883 34.5578L23.3903 34.5598L23.7429 34.2053ZM23.582 34.0434L23.2264 34.3949L23.2273 34.3959L23.582 34.0434ZM23.3467 33.8054L23.7022 33.4539L23.7009 33.4525L23.3467 33.8054ZM23.2697 33.7282L23.6239 33.3753L23.6223 33.3737L23.2697 33.7282ZM23.1934 33.6523L23.546 33.2977L23.5437 33.2956L23.1934 33.6523ZM23.1176 33.5779L23.468 33.2211L23.4667 33.2199L23.1176 33.5779ZM23.0424 33.5051L23.3883 33.1441L23.3864 33.1423L23.0424 33.5051ZM22.9677 33.4343L23.3117 33.0714L23.3096 33.0695L22.9677 33.4343ZM22.3092 32.9119L22.5677 32.4839L22.5608 32.4797L22.5538 32.4758L22.3092 32.9119ZM21.2805 32.5316L21.409 32.0484L21.4068 32.0478L21.2805 32.5316ZM21.1737 32.5037L21.3 32.0199L21.2961 32.0189L21.1737 32.5037ZM21.0653 32.4763L21.1877 31.9915L21.1841 31.9907L21.0653 32.4763ZM20.9001 32.4359L21.0189 31.9502L21.0158 31.9495L20.9001 32.4359ZM20.6756 32.3825L20.7913 31.8961L20.791 31.896L20.6756 32.3825ZM20.3324 32.3011L20.2139 32.7869L20.217 32.7876L20.3324 32.3011ZM20.1589 32.2588L20.0372 32.7438L20.0405 32.7446L20.1589 32.2588ZM20.0429 32.2297L19.9196 32.7143L19.9212 32.7147L20.0429 32.2297ZM19.9849 32.2148L19.8578 32.6984L19.8598 32.6989L19.9849 32.2148ZM19.8688 32.1843L19.7373 32.6668L19.7417 32.6679L19.8688 32.1843ZM19.7528 32.1527L19.6189 32.6345L19.6213 32.6351L19.7528 32.1527ZM17.2896 30.5404L17.7258 30.2959L17.7258 30.2959L17.2896 30.5404ZM17.0921 27.6674L16.6055 27.5526L16.6049 27.5551L17.0921 27.6674ZM17.1192 27.5527L16.6331 27.4354L16.6326 27.4379L17.1192 27.5527ZM17.1473 27.4385L16.6628 27.315L16.6623 27.3169L17.1473 27.4385ZM17.1763 27.3249L16.6926 27.198L16.6918 27.2013L17.1763 27.3249ZM17.2059 27.2118L16.723 27.0823L16.7223 27.085L17.2059 27.2118ZM17.2361 27.0994L16.7538 26.9675L16.7532 26.9699L17.2361 27.0994ZM17.2819 26.9321L16.7999 26.7989L16.7996 26.8002L17.2819 26.9321ZM17.4026 26.495L17.8846 26.6282L17.8853 26.6255L17.4026 26.495ZM17.4316 26.3881L17.9142 26.5186L17.9149 26.5161L17.4316 26.3881ZM17.4596 26.2822L17.9429 26.4102L17.9438 26.4069L17.4596 26.2822ZM17.4866 26.1774L17.9708 26.3021L17.9718 26.2979L17.4866 26.1774ZM17.5123 26.0738L17.9976 26.1943L17.9982 26.1919L17.5123 26.0738ZM17.5123 24.0527L17.9986 23.9362L17.998 23.9339L17.5123 24.0527ZM17.4866 23.9474L17.9723 23.8287L17.9713 23.8246L17.4866 23.9474ZM17.4596 23.841L17.9443 23.7181L17.9438 23.7164L17.4596 23.841ZM17.4457 23.7873L17.9295 23.6612L17.929 23.6593L17.4457 23.7873ZM17.4026 23.6246L17.886 23.4967L17.8852 23.4937L17.4026 23.6246ZM17.2513 23.0672L16.7682 23.1959L16.7688 23.1982L17.2513 23.0672ZM17.221 22.9534L16.7372 23.0799L16.7378 23.0821L17.221 22.9534ZM17.1911 22.8389L16.7066 22.9625L16.7073 22.9654L17.1911 22.8389ZM17.1617 22.7239L16.6768 22.8459L16.6772 22.8475L17.1617 22.7239ZM17.1473 22.6662L16.6615 22.7843L16.662 22.7863L17.1473 22.6662ZM17.1192 22.5505L16.6328 22.6664L16.6333 22.6686L17.1192 22.5505ZM17.2896 19.5955L16.8692 19.3248L16.8639 19.333L16.859 19.3414L17.2896 19.5955ZM19.7297 18.0335L19.5888 17.5537L19.5864 17.5544L19.7297 18.0335ZM19.8442 17.9998L19.7074 17.5189L19.7032 17.5201L19.8442 17.9998ZM19.9587 17.9673L19.8256 17.4853L19.822 17.4863L19.9587 17.9673ZM20.0731 17.9357L19.9438 17.4527L19.9401 17.4537L20.0731 17.9357ZM20.2445 17.8898L20.1179 17.4061L20.1151 17.4068L20.2445 17.8898ZM20.3582 17.86L20.2337 17.3758L20.2316 17.3763L20.3582 17.86ZM20.8619 17.7305L20.9865 18.2147L20.9889 18.2141L20.8619 17.7305ZM21.0254 17.6875L21.1523 18.1712L21.1554 18.1704L21.0254 17.6875ZM21.1327 17.6586L21.2627 18.1415L21.266 18.1406L21.1327 17.6586ZM21.2387 17.6293L21.3719 18.1113L21.3738 18.1107L21.2387 17.6293ZM22.3092 17.2239L22.5537 17.6601L22.5538 17.6601L22.3092 17.2239ZM23.1655 16.558L23.5072 16.9229L23.5088 16.9214L23.1655 16.558ZM23.2442 16.4836L23.5876 16.847L23.5904 16.8443L23.2442 16.4836ZM23.3234 16.4076L23.6695 16.7684L23.6717 16.7663L23.3234 16.4076ZM23.4029 16.3304L23.7513 16.689L23.7536 16.6868L23.4029 16.3304ZM23.6039 16.1326L23.9546 16.489L23.9553 16.4883L23.6039 16.1326ZM23.7673 15.9712L23.4171 15.6143L23.4159 15.6155L23.7673 15.9712ZM23.8916 15.8492L23.5432 15.4905L23.5414 15.4923L23.8916 15.8492ZM23.9754 15.7678L23.6291 15.4071L23.627 15.4091L23.9754 15.7678ZM24.0601 15.6865L23.7163 15.3234L23.7137 15.3259L24.0601 15.6865ZM24.1455 15.6055L23.8032 15.2411L23.8018 15.2425L24.1455 15.6055ZM32.7202 24.9768L33.2199 24.9918L33.2202 24.9843V24.9768H32.7202ZM30.8045 37.0609C30.8179 37.0503 30.8311 37.0398 30.8443 37.0292L30.22 36.248C30.2083 36.2575 30.1965 36.2668 30.1847 36.2762L30.8045 37.0609ZM30.923 36.9657C30.936 36.9551 30.9489 36.9444 30.9618 36.9338L30.3249 36.1628C30.3133 36.1724 30.3018 36.1819 30.2902 36.1914L30.923 36.9657ZM32.245 35.7111C32.2515 35.703 32.2581 35.6949 32.2647 35.6868L31.4892 35.0554C31.481 35.0654 31.473 35.0754 31.4649 35.0855L32.245 35.7111ZM32.4291 35.496C32.4361 35.4883 32.4431 35.4806 32.45 35.4731L31.715 34.795C31.7065 34.8043 31.698 34.8136 31.6895 34.8229L32.4291 35.496ZM32.4918 35.4284C32.4988 35.4211 32.5057 35.4138 32.5126 35.4066L31.7917 34.7136C31.7832 34.7225 31.7746 34.7314 31.7661 34.7404L32.4918 35.4284ZM30.1176 12.9327C30.1029 12.9232 30.0881 12.9138 30.0733 12.9044L29.5375 13.7487C29.5509 13.7573 29.5643 13.7658 29.5777 13.7744L30.1176 12.9327ZM21.0167 15.3367C21.0082 15.3394 20.9996 15.3421 20.9909 15.3449L21.2885 16.2995C21.2999 16.296 21.3111 16.2925 21.3221 16.2889L21.0167 15.3367ZM20.9358 15.3616C20.9262 15.3644 20.9165 15.3673 20.9066 15.3701L21.1848 16.3307C21.1965 16.3273 21.2082 16.3238 21.2199 16.3204L20.9358 15.3616ZM19.8588 15.6354C19.8336 15.6417 19.8082 15.6482 19.7826 15.6547L20.0305 16.6235C20.055 16.6173 20.0795 16.611 20.1038 16.6049L19.8588 15.6354ZM18.4852 34.1527C18.5004 34.1583 18.5156 34.1638 18.5309 34.1693L18.8698 33.2284C18.8562 33.2236 18.8425 33.2186 18.8289 33.2136L18.4852 34.1527ZM18.6221 34.2016C18.6373 34.2069 18.6525 34.2122 18.6676 34.2174L18.9924 33.2716C18.9787 33.2669 18.9651 33.2622 18.9515 33.2574L18.6221 34.2016ZM18.7583 34.248C18.7734 34.2531 18.7885 34.258 18.8035 34.263L19.1151 33.3127C19.1015 33.3083 19.0878 33.3038 19.0742 33.2992L18.7583 34.248ZM26.9569 14.714C27.9207 14.714 28.6587 15.219 29.3731 15.8896L30.0575 15.1605C29.2922 14.4421 28.3133 13.714 26.9569 13.714V14.714ZM29.3712 15.8879L29.4561 15.9683L30.1442 15.2427L30.0593 15.1622L29.3712 15.8879ZM29.4544 15.9667C29.4679 15.9796 29.4814 15.9926 29.4949 16.0056L30.1895 15.2863C30.175 15.2723 30.1605 15.2583 30.1459 15.2443L29.4544 15.9667ZM29.4935 16.0043L29.5769 16.0854L30.2742 15.3687L30.1909 15.2876L29.4935 16.0043ZM29.5755 16.0841C29.589 16.0973 29.6024 16.1105 29.6157 16.1237L30.3181 15.4118C30.304 15.3979 30.2898 15.384 30.2756 15.37L29.5755 16.0841ZM29.6147 16.1227L29.6968 16.2041L30.4011 15.4942L30.3191 15.4128L29.6147 16.1227ZM29.6952 16.2025L29.7764 16.2839L30.4841 15.5773L30.4028 15.4959L29.6952 16.2025ZM29.775 16.2824L30.0932 16.6038L30.8038 15.9002L30.4855 15.5787L29.775 16.2824ZM30.0944 16.605L30.1726 16.6834L30.8807 15.9773L30.8026 15.8989L30.0944 16.605ZM30.1743 16.6851L30.252 16.7623L30.9569 16.0529L30.8791 15.9757L30.1743 16.6851ZM30.2543 16.7645L30.3317 16.8405L31.032 16.1266L30.9546 16.0507L30.2543 16.7645ZM30.333 16.8418C30.3597 16.8678 30.3865 16.8936 30.4133 16.9193L31.1045 16.1966C31.08 16.1732 31.0554 16.1495 31.0307 16.1253L30.333 16.8418ZM30.4153 16.9212L30.4921 16.9939L31.1794 16.2675L31.1026 16.1948L30.4153 16.9212ZM30.4942 16.9958C30.7607 17.2452 31.0479 17.485 31.3601 17.6601L31.8492 16.7878C31.6409 16.671 31.4224 16.4949 31.1774 16.2656L30.4942 16.9958ZM31.3601 17.66C31.7017 17.8516 32.0993 17.9807 32.4924 18.0869L32.7532 17.1215C32.3812 17.021 32.0803 16.9174 31.8493 16.7878L31.3601 17.66ZM32.4947 18.0875L32.5998 18.1154L32.8561 17.1488L32.751 17.1209L32.4947 18.0875ZM32.6037 18.1164L32.7103 18.1438L32.9589 17.1752L32.8523 17.1478L32.6037 18.1164ZM32.714 18.1447L32.8765 18.1851L33.1178 17.2147L32.9553 17.1743L32.714 18.1447ZM32.8798 18.1859L33.4383 18.3207L33.673 17.3487L33.1145 17.2139L32.8798 18.1859ZM33.4355 18.3201L33.6063 18.3623L33.8466 17.3917L33.6758 17.3494L33.4355 18.3201ZM33.6031 18.3615L33.7173 18.3906L33.9641 17.4216L33.8498 17.3925L33.6031 18.3615ZM33.714 18.3898L33.8284 18.4198L34.082 17.4524L33.9675 17.4224L33.714 18.3898ZM33.8265 18.4193C33.8449 18.4242 33.8633 18.4291 33.8817 18.4341L34.1432 17.4689C34.1234 17.4635 34.1036 17.4582 34.0839 17.4529L33.8265 18.4193ZM33.8794 18.4335L33.9939 18.4651L34.26 17.5011L34.1455 17.4695L33.8794 18.4335ZM33.9915 18.4644C34.9367 18.7304 35.7321 19.095 36.1977 19.8563L37.0508 19.3346C36.3786 18.2354 35.2625 17.7832 34.2624 17.5018L33.9915 18.4644ZM36.1937 19.8496C36.6267 20.5833 36.541 21.4525 36.2953 22.4529L37.2665 22.6914C37.5177 21.6683 37.7058 20.4443 37.0549 19.3413L36.1937 19.8496ZM36.2958 22.451L36.2672 22.5653L37.2374 22.8077L37.266 22.6933L36.2958 22.451ZM36.2681 22.5619L36.2388 22.676L37.2072 22.9251L37.2366 22.8111L36.2681 22.5619ZM36.2395 22.6732L36.2096 22.7868L37.1766 23.0415L37.2065 22.9279L36.2395 22.6732ZM36.2102 22.7843L36.1646 22.9539L37.1303 23.2136L37.1759 23.044L36.2102 22.7843ZM36.1651 22.9523L36.0586 23.343L37.0234 23.6059L37.1299 23.2152L36.1651 22.9523ZM36.0582 23.3446L36.0286 23.4547L36.9942 23.7144L37.0239 23.6043L36.0582 23.3446ZM36.028 23.4567L35.9991 23.566L36.9659 23.8217L36.9948 23.7124L36.028 23.4567ZM35.9988 23.5673C35.9939 23.5859 35.9891 23.6045 35.9843 23.6231L36.9524 23.8734C36.957 23.8558 36.9616 23.8382 36.9662 23.8205L35.9988 23.5673ZM35.9838 23.6248L35.9563 23.7329L36.9253 23.9798L36.9529 23.8717L35.9838 23.6248ZM35.9558 23.7347C35.8458 24.1735 35.7525 24.6316 35.7524 25.0678L36.7524 25.068C36.7525 24.76 36.8199 24.4003 36.9258 23.9779L35.9558 23.7347ZM35.7524 25.0679C35.7524 25.4866 35.8382 25.9244 35.9418 26.3453L36.9128 26.1062C36.8141 25.7053 36.7524 25.3625 36.7524 25.0679H35.7524ZM35.9423 26.3473L35.9693 26.455L36.9393 26.2118L36.9123 26.1042L35.9423 26.3473ZM35.9702 26.4585L35.9982 26.567L36.9664 26.3168L36.9384 26.2083L35.9702 26.4585ZM35.999 26.5697L36.0279 26.6791L36.9946 26.4234L36.9657 26.314L35.999 26.5697ZM36.0286 26.6819L36.1036 26.9585L37.0688 26.6971L36.9939 26.4205L36.0286 26.6819ZM36.1037 26.9592L36.1801 27.2397L37.145 26.977L37.0686 26.6964L36.1037 26.9592ZM36.1795 27.2373L36.2249 27.4073L37.191 27.1493L37.1457 26.9794L36.1795 27.2373ZM36.2241 27.4044L36.2538 27.5182L37.2214 27.2661L37.1918 27.1522L36.2241 27.4044ZM36.253 27.5151L36.2819 27.6293L37.2512 27.3834L37.2222 27.2691L36.253 27.5151ZM36.2815 27.6276C36.2907 27.6644 36.2998 27.7012 36.3086 27.738L37.2808 27.5038C37.2712 27.464 37.2615 27.4245 37.2517 27.3851L36.2815 27.6276ZM36.3081 27.7356L36.3351 27.8504L37.3084 27.6209L37.2813 27.5061L36.3081 27.7356ZM36.3346 27.848C36.5499 28.7822 36.6013 29.5954 36.1936 30.2863L37.0549 30.7944C37.6698 29.7523 37.5352 28.6044 37.309 27.6233L36.3346 27.848ZM36.2038 30.2698C35.7293 31.0072 34.9065 31.374 33.9313 31.6556L34.2087 32.6164C35.218 32.3249 36.3594 31.8759 37.0447 30.8109L36.2038 30.2698ZM33.9333 31.655L33.8188 31.6876L34.0922 32.6495L34.2067 32.6169L33.9333 31.655ZM33.8225 31.6866L33.708 31.7182L33.974 32.6821L34.0885 32.6505L33.8225 31.6866ZM33.7116 31.7172L33.5403 31.763L33.799 32.729L33.9704 32.6831L33.7116 31.7172ZM33.5431 31.7623L33.4293 31.7921L33.6825 32.7595L33.7963 32.7297L33.5431 31.7623ZM33.4313 31.7916L32.9276 31.9211L33.1768 32.8896L33.6805 32.76L33.4313 31.7916ZM32.9253 31.9217L32.7618 31.9647L33.0156 32.9319L33.1791 32.889L32.9253 31.9217ZM32.7587 31.9655L32.6514 31.9944L32.9113 32.96L33.0187 32.9311L32.7587 31.9655ZM32.6481 31.9953L32.5422 32.0245L32.8086 32.9884L32.9146 32.9591L32.6481 31.9953ZM32.5403 32.0251C32.1288 32.1406 31.7134 32.2777 31.3602 32.4757L31.8492 33.348C32.0948 33.2104 32.4158 33.0987 32.8105 32.9879L32.5403 32.0251ZM31.3845 32.463C30.9868 32.6581 30.6212 32.9714 30.2864 33.2884L30.9739 34.0146C31.2984 33.7074 31.5719 33.4849 31.8249 33.3608L31.3845 32.463ZM30.2849 33.2899L30.2056 33.3656L30.896 34.0889L30.9754 34.0132L30.2849 33.2899ZM30.203 33.368L30.1233 33.4452L30.8188 34.1637L30.8986 34.0865L30.203 33.368ZM30.1214 33.4471L30.0411 33.5256L30.7405 34.2404L30.8207 34.1619L30.1214 33.4471ZM30.0393 33.5274L29.6708 33.8916L30.3737 34.6028L30.7423 34.2386L30.0393 33.5274ZM29.6723 33.8901L29.5884 33.9723L30.2885 34.6864L30.3723 34.6043L29.6723 33.8901ZM29.5901 33.9707L29.5055 34.0529L30.2022 34.7702L30.2868 34.6881L29.5901 33.9707ZM29.5077 34.0508L29.4222 34.1328L30.1145 34.8544L30.2 34.7724L29.5077 34.0508ZM29.4235 34.1316C29.4096 34.1448 29.3957 34.1579 29.3818 34.1711L30.0687 34.8978C30.0836 34.8838 30.0984 34.8697 30.1132 34.8556L29.4235 34.1316ZM29.3834 34.1696L29.2965 34.251L29.9803 34.9807L30.0671 34.8993L29.3834 34.1696ZM29.2982 34.2494C28.5726 34.9229 27.8463 35.4219 26.9569 35.4219V36.4219C28.2485 36.4219 29.2193 35.6871 29.9786 34.9823L29.2982 34.2494ZM26.9569 35.4219C25.9335 35.4219 25.1385 34.8523 24.3787 34.128L23.6887 34.8518C24.486 35.6119 25.5265 36.4219 26.9569 36.4219V35.4219ZM24.3803 34.1295L24.2959 34.0483L23.6028 34.7691L23.6872 34.8503L24.3803 34.1295ZM24.2974 34.0497C24.2839 34.0366 24.2704 34.0235 24.2569 34.0104L23.5582 34.7258C23.5725 34.7398 23.5869 34.7537 23.6013 34.7677L24.2974 34.0497ZM24.2581 34.0115L24.1753 33.9301L23.4742 34.6432L23.557 34.7246L24.2581 34.0115ZM24.1773 33.9321L24.0954 33.8507L23.3903 34.5598L23.4722 34.6412L24.1773 33.9321ZM24.0975 33.8528L23.9366 33.6909L23.2273 34.3959L23.3883 34.5578L24.0975 33.8528ZM23.9375 33.6918L23.7022 33.4539L22.9912 34.157L23.2264 34.3949L23.9375 33.6918ZM23.7009 33.4525L23.6239 33.3753L22.9155 34.0811L22.9925 34.1584L23.7009 33.4525ZM23.6223 33.3737L23.546 33.2977L22.8408 34.0068L22.9171 34.0827L23.6223 33.3737ZM23.5437 33.2956L23.468 33.2212L22.7672 33.9346L22.843 34.009L23.5437 33.2956ZM23.4667 33.2199C23.4406 33.1944 23.4145 33.1691 23.3883 33.1441L22.6965 33.8662C22.7203 33.889 22.7443 33.9122 22.7686 33.9358L23.4667 33.2199ZM23.3864 33.1423L23.3117 33.0714L22.6237 33.7972L22.6984 33.868L23.3864 33.1423ZM23.3096 33.0695C23.0766 32.8511 22.8294 32.6419 22.5677 32.4839L22.0507 33.3399C22.224 33.4445 22.4118 33.5985 22.6257 33.7991L23.3096 33.0695ZM22.5538 32.4758C22.211 32.2835 21.8076 32.1544 21.409 32.0484L21.152 33.0148C21.5307 33.1155 21.8349 33.2191 22.0646 33.348L22.5538 32.4758ZM21.4068 32.0478L21.3 32.0199L21.0474 32.9875L21.1543 33.0154L21.4068 32.0478ZM21.2961 32.0189L21.1877 31.9916L20.9429 32.9611L21.0513 32.9885L21.2961 32.0189ZM21.1841 31.9907L21.0189 31.9502L20.7813 32.9216L20.9465 32.962L21.1841 31.9907ZM21.0158 31.9495L20.7913 31.8961L20.5598 32.8689L20.7843 32.9223L21.0158 31.9495ZM20.791 31.896L20.4477 31.8146L20.217 32.7876L20.5602 32.869L20.791 31.896ZM20.4508 31.8153L20.2773 31.773L20.0405 32.7446L20.2139 32.7869L20.4508 31.8153ZM20.2806 31.7739L20.1646 31.7447L19.9212 32.7147L20.0372 32.7438L20.2806 31.7739ZM20.1662 31.7451C20.1474 31.7404 20.1287 31.7356 20.1099 31.7307L19.8598 32.6989C19.8798 32.7041 19.8997 32.7092 19.9196 32.7143L20.1662 31.7451ZM20.1119 31.7312L19.9958 31.7007L19.7417 32.6679L19.8578 32.6984L20.1119 31.7312ZM20.0002 31.7019L19.8842 31.6703L19.6213 32.6351L19.7373 32.6667L20.0002 31.7019ZM19.8866 31.671C18.9241 31.4035 18.1431 31.0403 17.7258 30.2959L16.8535 30.7849C17.4791 31.9009 18.6115 32.3545 19.6189 32.6345L19.8866 31.671ZM17.7258 30.2959C17.3095 29.5533 17.3653 28.7083 17.5793 27.7798L16.6049 27.5551C16.3774 28.5419 16.2472 29.7034 16.8535 30.7849L17.7258 30.2959ZM17.5787 27.7823L17.6058 27.6676L16.6326 27.4379L16.6055 27.5526L17.5787 27.7823ZM17.6052 27.6701C17.6141 27.6335 17.6231 27.5969 17.6323 27.5602L16.6623 27.3169C16.6525 27.3562 16.6427 27.3957 16.6331 27.4354L17.6052 27.6701ZM17.6318 27.5621L17.6608 27.4484L16.6918 27.2013L16.6628 27.315L17.6318 27.5621ZM17.6599 27.4518L17.6896 27.3387L16.7223 27.085L16.6926 27.198L17.6599 27.4518ZM17.6889 27.3414L17.719 27.2289L16.7532 26.9699L16.723 27.0823L17.6889 27.3414ZM17.7184 27.2313L17.7641 27.064L16.7996 26.8002L16.7538 26.9675L17.7184 27.2313ZM17.7638 27.0653L17.8846 26.6282L16.9207 26.3619L16.7999 26.7989L17.7638 27.0653ZM17.8853 26.6255L17.9142 26.5186L16.9489 26.2576L16.92 26.3645L17.8853 26.6255ZM17.9149 26.5161L17.9429 26.4102L16.9762 26.1542L16.9482 26.2601L17.9149 26.5161ZM17.9438 26.4069L17.9708 26.3021L17.0024 26.0527L16.9754 26.1575L17.9438 26.4069ZM17.9718 26.2979L17.9976 26.1943L17.027 25.9533L17.0013 26.0569L17.9718 26.2979ZM17.9982 26.1919C18.0886 25.8197 18.1615 25.4348 18.1615 25.0679H17.1615C17.1615 25.314 17.1114 25.6065 17.0265 25.9556L17.9982 26.1919ZM18.1615 25.0679C18.1615 24.7016 18.0888 24.3131 17.9986 23.9362L17.0261 24.1691C17.1112 24.5246 17.1615 24.8214 17.1615 25.0679H18.1615ZM17.998 23.9339L17.9723 23.8287L17.0009 24.0662L17.0266 24.1714L17.998 23.9339ZM17.9713 23.8246L17.9443 23.7181L16.9749 23.9638L17.0019 24.0702L17.9713 23.8246ZM17.9438 23.7164C17.9391 23.698 17.9343 23.6796 17.9295 23.6612L16.9619 23.9134C16.9664 23.9308 16.9709 23.9482 16.9754 23.9655L17.9438 23.7164ZM17.929 23.6593L17.886 23.4967L16.9193 23.7526L16.9623 23.9152L17.929 23.6593ZM17.8852 23.4937L17.7339 22.9362L16.7688 23.1982L16.9201 23.7556L17.8852 23.4937ZM17.7345 22.9384L17.7041 22.8246L16.7378 23.0821L16.7682 23.1959L17.7345 22.9384ZM17.7047 22.8269L17.6748 22.7124L16.7073 22.9654L16.7373 23.0799L17.7047 22.8269ZM17.6755 22.7153L17.6462 22.6003L16.6772 22.8475L16.7066 22.9625L17.6755 22.7153ZM17.6466 22.602C17.6419 22.5833 17.6373 22.5647 17.6327 22.5461L16.662 22.7863C16.6669 22.8062 16.6718 22.8261 16.6768 22.8459L17.6466 22.602ZM17.6332 22.5482L17.6051 22.4324L16.6333 22.6686L16.6615 22.7843L17.6332 22.5482ZM17.6056 22.4346C17.3694 21.4436 17.2958 20.5689 17.7203 19.8495L16.859 19.3414C16.22 20.4244 16.3901 21.6479 16.6328 22.6664L17.6056 22.4346ZM17.7101 19.8661C18.1659 19.1578 18.9441 18.7904 19.873 18.5125L19.5864 17.5544C18.6098 17.8466 17.5288 18.3 16.8692 19.3248L17.7101 19.8661ZM19.8707 18.5132L19.9851 18.4795L19.7032 17.5201L19.5888 17.5537L19.8707 18.5132ZM19.9808 18.4808L20.0954 18.4482L19.822 17.4863L19.7075 17.5189L19.9808 18.4808ZM20.0917 18.4493L20.2062 18.4177L19.9401 17.4537L19.8256 17.4853L20.0917 18.4493ZM20.2025 18.4187L20.3738 18.3728L20.1151 17.4068L19.9438 17.4527L20.2025 18.4187ZM20.3711 18.3735L20.4848 18.3437L20.2316 17.3763L20.1179 17.4061L20.3711 18.3735ZM20.4828 18.3443L20.9865 18.2147L20.7373 17.2462L20.2337 17.3758L20.4828 18.3443ZM20.9889 18.2141L21.1523 18.1712L20.8984 17.2039L20.735 17.2468L20.9889 18.2141ZM21.1554 18.1704L21.2627 18.1414L21.0028 17.1758L20.8954 17.2047L21.1554 18.1704ZM21.266 18.1406L21.3719 18.1113L21.1054 17.1474L20.9995 17.1767L21.266 18.1406ZM21.3738 18.1107C21.7852 17.9952 22.2006 17.8581 22.5537 17.6601L22.0646 16.7878C21.8192 16.9255 21.4982 17.0371 21.1035 17.148L21.3738 18.1107ZM22.5538 17.6601C22.894 17.4692 23.2113 17.2001 23.5072 16.9229L22.8237 16.193C22.5433 16.4555 22.297 16.6575 22.0646 16.7878L22.5538 17.6601ZM23.5088 16.9214L23.5876 16.847L22.9009 16.1201L22.8221 16.1945L23.5088 16.9214ZM23.5904 16.8443L23.6695 16.7684L22.9772 16.0468L22.8981 16.1228L23.5904 16.8443ZM23.6717 16.7663L23.7513 16.689L23.0545 15.9717L22.975 16.049L23.6717 16.7663ZM23.7536 16.6868L23.9546 16.489L23.2532 15.7762L23.0522 15.974L23.7536 16.6868ZM23.9553 16.4883L24.1187 16.3268L23.4159 15.6155L23.2525 15.7769L23.9553 16.4883ZM24.1175 16.328L24.2418 16.2061L23.5414 15.4923L23.4171 15.6143L24.1175 16.328ZM24.24 16.2078L24.3238 16.1264L23.627 15.4091L23.5432 15.4905L24.24 16.2078ZM24.3218 16.1284L24.4064 16.0471L23.7137 15.3259L23.6291 15.4071L24.3218 16.1284ZM24.4039 16.0495L24.4893 15.9686L23.8018 15.2425L23.7163 15.3234L24.4039 16.0495ZM24.4879 15.9699C25.248 15.2558 26.0076 14.714 26.9569 14.714V13.714C25.5971 13.714 24.5899 14.502 23.8032 15.2411L24.4879 15.9699ZM27.0499 18.913C23.6167 18.913 20.8796 21.6871 20.8796 24.9768H21.8796C21.8796 22.2465 24.1618 19.913 27.0499 19.913V18.913ZM20.8796 24.9768C20.8796 28.3683 23.7205 31.0405 27.0499 31.0405V30.0405C24.2441 30.0405 21.8796 27.7877 21.8796 24.9768H20.8796ZM27.0499 31.0405C30.3929 31.0405 33.1189 28.3581 33.2199 24.9918L32.2204 24.9618C32.1353 27.798 29.8421 30.0405 27.0499 30.0405V31.0405ZM33.2202 24.9768C33.2202 21.5852 30.3793 18.913 27.0499 18.913V19.913C29.8557 19.913 32.2202 22.1658 32.2202 24.9768H33.2202ZM29.4536 15.9659L29.4956 16.0064L30.1887 15.2855L30.1467 15.2451L29.4536 15.9659ZM29.575 16.0836L29.6163 16.1242L30.3175 15.4113L30.2762 15.3706L29.575 16.0836ZM33.8255 18.419L33.8828 18.4344L34.1422 17.4686L34.0849 17.4532L33.8255 18.419ZM35.9986 23.568L35.9844 23.6224L36.9522 23.8741L36.9664 23.8198L35.9986 23.568ZM29.4242 34.1309L29.3811 34.1718L30.0694 34.8971L30.1125 34.8563L29.4242 34.1309ZM24.298 34.0504L24.2562 34.0097L23.5588 34.7264L23.6006 34.7671L24.298 34.0504ZM20.1671 31.7454L20.109 31.7305L19.8607 32.6992L19.9187 32.714L20.1671 31.7454ZM17.9436 23.7156L17.9297 23.6619L16.9617 23.9126L16.9756 23.9663L17.9436 23.7156ZM17.6468 22.6029L17.6324 22.5452L16.6622 22.7873L16.6766 22.845L17.6468 22.6029ZM21.2867 34.5679L21.5692 33.6086L20.6139 33.3272L20.3286 34.2814L21.2867 34.5679ZM22.0057 35.096L22.7065 34.3826L22.7029 34.3792L22.0057 35.096ZM22.0827 35.1716L22.7903 34.4649L22.7835 34.4583L22.0827 35.1716ZM22.2022 35.2913L22.9147 34.5896L22.9098 34.5846L22.2022 35.2913ZM22.5458 35.6402L21.8334 36.3419L21.8364 36.3449L22.5458 35.6402ZM22.6377 35.7327L21.9282 36.4374L21.9298 36.439L22.6377 35.7327ZM22.8288 35.9219L22.1304 36.6376L22.1335 36.6405L22.8288 35.9219ZM22.9282 36.018L22.2329 36.7367L22.2361 36.7398L22.9282 36.018ZM30.1425 36.9309L30.716 37.7502L30.7217 37.7461L30.1425 36.9309ZM30.2229 36.8738L30.8021 37.6891L30.813 37.6811L30.2229 36.8738ZM30.302 36.816L30.8921 37.6233L30.8975 37.6194L30.302 36.816ZM30.4184 36.7279L31.0289 37.52L31.0336 37.5163L30.4184 36.7279ZM30.4946 36.6685L31.1098 37.457L31.1167 37.4515L30.4946 36.6685ZM30.5322 36.6386L31.1543 37.4216L31.1608 37.4164L30.5322 36.6386ZM30.6066 36.5785L31.2352 37.3563L31.2414 37.3511L30.6066 36.5785ZM30.6433 36.5483L31.2782 37.321L31.2842 37.316L30.6433 36.5483ZM30.716 36.4876L31.3569 37.2554L31.3643 37.249L30.716 36.4876ZM30.7876 36.4267L31.436 37.1881L31.443 37.182L30.7876 36.4267ZM30.8581 36.3655L31.5135 37.1209L31.52 37.1152L30.8581 36.3655ZM30.9275 36.3042L31.5894 37.0539L31.5954 37.0485L30.9275 36.3042ZM30.9959 36.2429L31.6638 36.9872L31.6706 36.981L30.9959 36.2429ZM31.0966 36.1509L31.7713 36.889L31.7784 36.8823L31.0966 36.1509ZM31.195 36.0591L31.8769 36.7906L31.883 36.7848L31.195 36.0591ZM31.2913 35.9678L31.9792 36.6936L31.9849 36.6882L31.2913 35.9678ZM31.4164 35.8474L32.11 36.5677L32.1147 36.5632L31.4164 35.8474ZM31.538 35.7288L32.2363 36.4446L32.239 36.4419L31.538 35.7288ZM31.7908 35.4802L32.4919 36.1933L32.5408 36.1452L32.5827 36.0909L31.7908 35.4802ZM31.8119 35.4529L31.027 34.833L31.02 34.8422L31.8119 35.4529ZM31.855 35.3983L31.0771 34.7697L31.0702 34.7785L31.855 35.3983ZM31.8769 35.3711L31.1059 34.7342L31.0991 34.7426L31.8769 35.3711ZM31.9216 35.3171L31.1595 34.6694L31.1506 34.6802L31.9216 35.3171ZM31.967 35.2636L31.2139 34.6056L31.205 34.616L31.967 35.2636ZM32.013 35.211L31.2688 34.5429L31.2599 34.553L32.013 35.211ZM32.0593 35.1594L31.3219 34.4838L31.3152 34.4914L32.0593 35.1594ZM32.0825 35.1341L31.3521 34.451L31.3452 34.4585L32.0825 35.1341ZM32.129 35.0844L31.4056 34.3938L31.3986 34.4013L32.129 35.0844ZM32.1521 35.0601L31.4361 34.362L31.4288 34.3696L32.1521 35.0601ZM32.1983 35.0128L31.4925 34.3043L31.4873 34.3095L31.4822 34.3147L32.1983 35.0128ZM32.2439 34.9674L31.5491 34.2482L31.5436 34.2535L31.5382 34.2589L32.2439 34.9674ZM32.2888 34.924L31.606 34.1934L31.5999 34.199L31.594 34.2048L32.2888 34.924ZM32.3328 34.8828L31.6632 34.1402L31.6565 34.1462L31.65 34.1523L32.3328 34.8828ZM32.3757 34.8441L31.7209 34.0883L31.7134 34.0948L31.7061 34.1015L32.3757 34.8441ZM32.4173 34.8081L31.7707 34.0452L31.7625 34.0523L32.4173 34.8081ZM32.6272 34.6595L33.0683 35.557L33.1965 35.494L33.3019 35.3976L32.6272 34.6595ZM32.6376 34.65L31.9937 33.8849L31.978 33.898L31.9629 33.9119L32.6376 34.65ZM32.6498 34.6398L32.0379 33.8487L32.0216 33.8614L32.0059 33.8746L32.6498 34.6398ZM32.6658 34.6273L32.0721 33.8227L32.063 33.8294L32.054 33.8363L32.6658 34.6273ZM32.799 34.5688L32.7517 33.57L32.7288 33.571L32.706 33.5732L32.799 34.5688ZM32.813 34.5682L33.7711 34.2817L33.547 33.5323L32.7657 33.5693L32.813 34.5682ZM34.8581 41.4089L33.9 41.6953L33.9053 41.7131L33.9113 41.7307L34.8581 41.4089ZM34.5793 43.1419L33.8042 42.5101L33.7943 42.5221L33.7849 42.5345L34.5793 43.1419ZM32.6272 43.6887L32.1357 44.5597L32.1606 44.5737L32.1863 44.5863L32.6272 43.6887ZM21.5655 43.6887L22.0543 44.5612L22.0685 44.5532L22.0824 44.5448L21.5655 43.6887ZM19.5204 43.2326L18.6933 43.7946L18.7024 43.8081L18.712 43.8212L19.5204 43.2326ZM19.2308 41.4469L18.2684 41.1752L18.2662 41.183L19.2308 41.4469ZM19.2416 41.4086L18.2835 41.1221L18.2813 41.1295L18.2792 41.1369L19.2416 41.4086ZM29.9313 4.4842L30.9313 4.4762L30.9312 4.46818L29.9313 4.4842ZM29.9319 4.56065L30.9319 4.56069L30.9319 4.55265L29.9319 4.56065ZM29.9316 13.4079L29.3878 14.2472L30.9315 15.2473L30.9316 13.408L29.9316 13.4079ZM29.8476 13.3535L30.3914 12.5143L30.3855 12.5105L29.8476 13.3535ZM29.8054 13.3266L30.3433 12.4835L30.337 12.4796L29.8054 13.3266ZM29.7204 13.2732L30.2521 12.4263L30.2477 12.4235L29.7204 13.2732ZM24.0755 13.3166L23.5209 14.1488L24.1039 14.5373L24.6681 14.1221L24.0755 13.3166ZM24.0004 13.2666L24.555 12.4345L24.5507 12.4316L24.0004 13.2666ZM23.3269 13.1298L23.3615 12.1304L23.356 12.1302L23.3269 13.1298ZM23.2186 13.1267L23.2478 12.127L23.2388 12.1269L23.2186 13.1267ZM23.0973 13.1242L23.1174 12.1244L23.1104 12.1243L23.0973 13.1242ZM22.9618 13.1224L22.975 12.1225L22.9696 12.1225L22.9618 13.1224ZM22.8113 13.1213L22.8191 12.1213L22.8149 12.1213L22.8113 13.1213ZM22.6447 13.1207L22.6483 12.1207L22.6451 12.1207L22.6447 13.1207ZM22.4611 13.1206L22.4615 12.1206L22.4586 12.1206L22.4611 13.1206ZM22.1515 13.1214L22.1491 12.1214L22.1466 12.1214L22.1515 13.1214ZM21.67 13.1237L21.665 12.1238L21.6635 12.1238L21.67 13.1237ZM19.6788 13.1366L19.6842 14.1366L19.6853 14.1366L19.6788 13.1366ZM18.3272 13.1439L18.3315 14.1439L18.3327 14.1439L18.3272 13.1439ZM17.5509 13.1472L17.5542 14.1472L17.5551 14.1472L17.5509 13.1472ZM16.703 13.1501L16.7054 14.1501L16.7064 14.1501L16.703 13.1501ZM15.7804 13.1523L15.7818 14.1523L15.7828 14.1523L15.7804 13.1523ZM14.7796 13.1538L14.7803 14.1538L14.7811 14.1538L14.7796 13.1538ZM14.0674 13.1542L14.0672 14.1542L14.0681 14.1542L14.0674 13.1542ZM12.9291 13.154L12.9281 14.154L12.9289 14.154L12.9291 13.154ZM12.1222 13.1532L12.1205 14.1532L12.1212 14.1532L12.1222 13.1532ZM11.2756 13.1518L11.2733 14.1518L11.274 14.1518L11.2756 13.1518ZM10.3884 13.1498L10.3855 14.1498L10.3861 14.1498L10.3884 13.1498ZM9.45967 13.1471L9.45612 14.1471L9.45675 14.1471L9.45967 13.1471ZM8.48834 13.1436L8.48418 14.1436L8.4848 14.1436L8.48834 13.1436ZM7.47346 13.1394L7.4687 14.1394L7.46931 14.1394L7.47346 13.1394ZM6.41406 13.1343L6.41883 12.1343H6.41406V13.1343ZM6.38765 14.9581L6.36674 15.9579L6.37724 15.958L6.38765 14.9581ZM6.41406 14.9584L6.40365 15.9584H6.41406V14.9584ZM22.2164 14.9584L22.9168 15.6721L24.6634 13.9584H22.2164V14.9584ZM21.4727 15.6881L21.9803 16.5497L22.0857 16.4876L22.1731 16.4019L21.4727 15.6881ZM21.2263 15.794L21.5403 16.7434L21.5495 16.7403L21.2263 15.794ZM21.1694 15.8128L21.471 16.7663L21.4834 16.7622L21.1694 15.8128ZM21.1397 15.8222L21.4303 16.7791L21.4412 16.7756L21.1397 15.8222ZM21.0778 15.841L21.3589 16.8007L21.3684 16.7978L21.0778 15.841ZM21.0457 15.8504L21.3186 16.8125L21.3267 16.8101L21.0457 15.8504ZM20.9791 15.8693L21.2407 16.8345L21.252 16.8313L20.9791 15.8693ZM20.8736 15.8979L21.1251 16.8658L21.1353 16.863L20.8736 15.8979ZM20.7619 15.9269L21.0047 16.897L21.0134 16.8948L20.7619 15.9269ZM20.5632 15.9766L20.8015 16.9478L20.806 16.9467L20.5632 15.9766ZM20.1281 16.0834L19.8898 15.1122L19.8854 15.1133L20.1281 16.0834ZM19.9813 16.1201L19.7386 15.15L19.7349 15.151L19.9813 16.1201ZM19.9066 16.1391L19.6601 15.17L19.6553 15.1712L19.9066 16.1391ZM19.7549 16.1785L19.5036 15.2106L19.5001 15.2115L19.7549 16.1785ZM18.1083 16.7466L17.6812 15.8424L17.6745 15.8455L18.1083 16.7466ZM18.0333 16.7827V17.7827H18.2615L18.467 17.6837L18.0333 16.7827ZM6.39177 18.6064L6.36695 19.6062L6.37921 19.6063L6.39177 18.6064ZM6.4139 18.6067L6.40135 19.6067H6.4139V18.6067ZM15.8953 18.6067L16.5957 19.3205L18.3423 17.6067H15.8953V18.6067ZM15.8023 18.698L15.1019 17.9842L14.9853 18.0986L14.9112 18.2442L15.8023 18.698ZM15.2562 20.365L14.2723 20.1866L14.2713 20.1919L15.2562 20.365ZM15.2446 20.4311V21.4311H16.0843L16.2296 20.6041L15.2446 20.4311ZM6.39177 22.2547L6.36088 23.2543L6.36863 23.2545L6.37638 23.2546L6.39177 22.2547ZM6.41391 22.2551L6.39852 23.255L6.4062 23.2551L6.41387 23.2551L6.41391 22.2551ZM15.2446 22.2554L16.2342 22.1112L16.1095 21.2554L15.2447 21.2554L15.2446 22.2554ZM15.4055 23.0451L14.435 23.2864L14.436 23.2902L15.4055 23.0451ZM15.4389 23.1774L14.4694 23.4224L14.4709 23.4282L15.4389 23.1774ZM15.5206 23.4926L16.4899 23.2467L16.4886 23.2417L15.5206 23.4926ZM15.551 23.6125L16.5214 23.3708L16.5203 23.3667L15.551 23.6125ZM15.6165 23.8971L14.6367 24.097L14.7999 24.8971H15.6165V23.8971ZM15.708 24.0117L16.7069 23.9633L16.7064 23.9527L16.7056 23.9421L15.708 24.0117ZM15.7091 24.0334L16.7089 24.0156L16.7087 24.0003L16.7079 23.985L15.7091 24.0334ZM15.7095 24.0557L16.7095 24.0531L16.7095 24.0455L16.7093 24.038L15.7095 24.0557ZM15.7095 24.0794V25.0794H16.7121L16.7095 24.0768L15.7095 24.0794ZM6.39191 25.9031L6.36101 26.9026L6.3687 26.9029L6.37638 26.903L6.39191 25.9031ZM6.41404 25.9034L6.39852 26.9033L6.4063 26.9034L6.41408 26.9034L6.41404 25.9034ZM15.7095 25.9031H16.7095V24.9031L15.7095 24.9031L15.7095 25.9031ZM15.67 26.1412L16.6296 26.4226L16.6327 26.4116L15.67 26.1412ZM15.6366 26.255L14.677 25.9736L14.6746 25.982L15.6366 26.255ZM15.6165 26.3593L16.5073 26.8136L16.6165 26.5996V26.3593H15.6165ZM15.3485 27.2164L14.3709 27.0058L14.37 27.0101L15.3485 27.2164ZM15.3265 27.3206L14.348 27.1143L14.3464 27.1219L15.3265 27.3206ZM15.295 27.476L14.3149 27.2772L14.3144 27.2797L15.295 27.476ZM15.2446 27.7275V28.7275H16.0643L16.2252 27.9238L15.2446 27.7275ZM6.3875 29.5512L6.36146 30.5509L6.3746 30.5511L6.3875 29.5512ZM6.41391 29.5515L6.40101 30.5515L6.41387 30.5515L6.41391 29.5515ZM15.2446 29.5519H16.2446V28.5519L15.2447 28.5519L15.2446 29.5519ZM15.8023 31.4672L16.6699 30.9699L16.6664 30.9639L15.8023 31.4672ZM17.8811 33.3513L17.4347 34.2461L17.4411 34.2492L17.8811 33.3513ZM17.9665 33.3931L17.5264 34.2911L17.5328 34.2942L17.9665 33.3931ZM18.3107 33.5476L17.9247 34.4701L17.9303 34.4724L18.3107 33.5476ZM18.3972 33.5832L18.0168 34.5081L18.0277 34.5124L18.3972 33.5832ZM18.4838 33.6176L18.1143 34.5469L18.1249 34.551L18.4838 33.6176ZM18.5704 33.6509L18.2115 34.5843L18.2217 34.5881L18.5704 33.6509ZM18.657 33.6831L18.3083 34.6204L18.3157 34.6231L18.657 33.6831ZM18.7003 33.6989L18.359 34.6388L18.3662 34.6414L18.7003 33.6989ZM18.7868 33.7295L18.4527 34.6721L18.4597 34.6745L18.7868 33.7295ZM18.83 33.7445L18.5029 34.6895L18.5097 34.6918L18.83 33.7445ZM18.9163 33.7736L18.5959 34.721L18.6026 34.7232L18.9163 33.7736ZM18.9593 33.7879L18.6456 34.7374L18.652 34.7395L18.9593 33.7879ZM19.0452 33.8156L18.7379 34.7673L18.7461 34.7698L19.0452 33.8156ZM19.1308 33.8424L18.8317 34.7967L18.8396 34.7991L19.1308 33.8424ZM19.2161 33.8684L18.9248 34.8251L18.9323 34.8273L19.2161 33.8684ZM19.301 33.8935L19.0172 34.8524L19.0243 34.8545L19.301 33.8935ZM19.3855 33.9179L19.1088 34.8788L19.1139 34.8803L19.3855 33.9179ZM19.4275 33.9297L20.3843 34.2205L20.681 33.2444L19.6991 32.9673L19.4275 33.9297ZM17.8474 39.1286V40.1286H18.5886L18.8041 39.4194L17.8474 39.1286ZM0.00061204 34.6446L-0.999388 34.6526L-0.99926 34.6607L0.00061204 34.6446ZM0 34.5682L-1.00003 34.5682L-0.999968 34.5762L0 34.5682ZM4.56984 0.000600732L4.56213 -0.999399L4.55441 -0.99928L4.56984 0.000600732ZM4.64775 0L4.64775 -1.00003L4.64004 -0.99997L4.64775 0ZM12.363 9.48589L12.3785 8.48601L12.3708 8.48589H12.363V9.48589ZM6.38748 11.3096L6.36145 12.3093L6.37453 12.3095L6.38748 11.3096ZM6.41389 11.3099L6.40094 12.3099H6.41389V11.3099ZM13.2925 10.3979L12.2925 10.3979L12.2925 10.3986L13.2925 10.3979ZM12.3852 9.48624L12.416 8.48672L12.4084 8.48648L12.4007 8.48636L12.3852 9.48624ZM21.0042 35.5271C20.9655 35.5157 20.948 35.5048 20.9547 35.5086C20.9608 35.512 20.9799 35.5237 21.0137 35.5494C21.0846 35.6032 21.179 35.6869 21.3085 35.8128L22.7029 34.3792C22.554 34.2343 22.3912 34.0841 22.2233 33.9566C22.063 33.8348 21.8401 33.6884 21.5692 33.6086L21.0042 35.5271ZM21.3049 35.8093L21.3819 35.885L22.7835 34.4583L22.7065 34.3826L21.3049 35.8093ZM21.3751 35.8783L21.4946 35.998L22.9098 34.5846L22.7902 34.465L21.3751 35.8783ZM21.4897 35.993L21.8334 36.3419L23.2583 34.9385L22.9147 34.5896L21.4897 35.993ZM21.8364 36.3449L21.9282 36.4374L23.3472 35.0279L23.2553 34.9355L21.8364 36.3449ZM21.9298 36.439C21.9943 36.5036 22.0612 36.57 22.1304 36.6375L23.5272 35.2062C23.4657 35.1461 23.4052 35.0861 23.3455 35.0263L21.9298 36.439ZM22.1335 36.6405L22.2329 36.7367L23.6235 35.2993L23.5241 35.2032L22.1335 36.6405ZM22.2361 36.7398C23.2458 37.7079 24.7987 38.9427 27.05 38.9427V36.9427C25.5925 36.9427 24.5238 36.1625 23.6203 35.2962L22.2361 36.7398ZM27.05 38.9427C28.5861 38.9427 29.782 38.404 30.716 37.7501L29.569 36.1117C28.8827 36.5922 28.0795 36.9427 27.05 36.9427V38.9427ZM30.7217 37.7461L30.802 37.689L29.6437 36.0586L29.5633 36.1157L30.7217 37.7461ZM30.813 37.6811L30.8921 37.6233L29.7119 36.0087L29.6327 36.0665L30.813 37.6811ZM30.8975 37.6194C30.9419 37.5864 30.9858 37.5532 31.0289 37.52L29.808 35.9359C29.7744 35.9618 29.7406 35.9873 29.7066 36.0126L30.8975 37.6194ZM31.0336 37.5163L31.1097 37.4569L29.8794 35.8801L29.8033 35.9396L31.0336 37.5163ZM31.1608 37.4164L31.2352 37.3563L29.978 35.8008L29.9036 35.8609L31.1608 37.4164ZM31.2842 37.316L31.3569 37.2553L30.0752 35.72L30.0025 35.7806L31.2842 37.316ZM31.3643 37.249L31.4359 37.1881L30.1393 35.6653L30.0677 35.7263L31.3643 37.249ZM31.443 37.182L31.5134 37.1208L30.2027 35.6102L30.1322 35.6714L31.443 37.182ZM31.52 37.1152L31.5894 37.0539L30.2657 35.5546L30.1962 35.6159L31.52 37.1152ZM31.5954 37.0485L31.6638 36.9872L30.3281 35.4986L30.2597 35.5599L31.5954 37.0485ZM31.6706 36.981L31.7712 36.889L30.4219 35.4127L30.3212 35.5048L31.6706 36.981ZM31.7784 36.8823L31.8769 36.7906L30.5131 35.3276L30.4147 35.4194L31.7784 36.8823ZM31.883 36.7848L31.9792 36.6936L30.6033 35.2421L30.507 35.3334L31.883 36.7848ZM31.9849 36.6882L32.11 36.5677L30.7228 35.127L30.5976 35.2475L31.9849 36.6882ZM32.1147 36.5632L32.2363 36.4446L30.8396 35.013L30.7181 35.1316L32.1147 36.5632ZM32.239 36.4419L32.4919 36.1933L31.0897 34.7671L30.8369 35.0157L32.239 36.4419ZM32.5827 36.0909L32.6037 36.0635L31.02 34.8422L30.9989 34.8695L32.5827 36.0909ZM32.5966 36.0727L32.6397 36.0181L31.0702 34.7785L31.0271 34.8331L32.5966 36.0727ZM32.6479 36.008L32.6925 35.9539L31.1506 34.6802L31.106 34.7342L32.6479 36.008ZM32.6835 35.9647L32.729 35.9113L31.205 34.616L31.1596 34.6694L32.6835 35.9647ZM32.72 35.9216L32.766 35.869L31.2599 34.553L31.214 34.6056L32.72 35.9216ZM32.7571 35.8791L32.8034 35.8275L31.3152 34.4914L31.2689 34.543L32.7571 35.8791ZM32.8129 35.8171L32.8593 35.7675L31.3986 34.4013L31.3522 34.451L32.8129 35.8171ZM32.8682 35.7582L32.9143 35.7109L31.4822 34.3147L31.4361 34.362L32.8682 35.7582ZM32.904 35.7213L32.9496 35.6759L31.5382 34.2589L31.4925 34.3043L32.904 35.7213ZM32.9387 35.6866L32.9836 35.6432L31.594 34.2048L31.5491 34.2482L32.9387 35.6866ZM32.9717 35.6545L33.0157 35.6134L31.65 34.1523L31.606 34.1934L32.9717 35.6545ZM33.0025 35.6255L33.0454 35.5868L31.7061 34.1015L31.6632 34.1402L33.0025 35.6255ZM33.0305 35.6L33.0721 35.5639L31.7625 34.0523L31.7209 34.0883L33.0305 35.6ZM33.0639 35.571C33.0759 35.5608 33.086 35.5525 33.0943 35.546C33.1027 35.5394 33.1083 35.5353 33.1112 35.5333C33.1143 35.5311 33.1129 35.5322 33.1073 35.5357C33.1043 35.5375 33.0997 35.5403 33.0935 35.5438C33.0873 35.5472 33.0789 35.5517 33.0683 35.557L32.1861 33.762C32.018 33.8446 31.8704 33.9608 31.7707 34.0453L33.0639 35.571ZM33.3019 35.3976L33.3123 35.3881L31.9629 33.9119L31.9526 33.9214L33.3019 35.3976ZM33.2815 35.4151L33.2936 35.4049L32.0059 33.8746L31.9937 33.8849L33.2815 35.4151ZM33.2616 35.4308L33.2776 35.4184L32.054 33.8363L32.0379 33.8487L33.2616 35.4308ZM33.2595 35.432C33.242 35.445 33.2086 35.4681 33.1599 35.4916C33.1145 35.5135 33.0217 35.5524 32.8921 35.5645L32.706 33.5732C32.3748 33.6041 32.1424 33.7708 32.0721 33.8227L33.2595 35.432ZM32.8464 35.5677L32.8603 35.5671L32.7657 33.5693L32.7517 33.57L32.8464 35.5677ZM31.8549 34.8546L33.9 41.6953L35.8162 41.1224L33.7711 34.2817L31.8549 34.8546ZM33.9113 41.7307C34.0007 41.9937 33.9318 42.3535 33.8042 42.5101L35.3543 43.7738C35.9705 43.018 36.0876 41.9189 35.8049 41.087L33.9113 41.7307ZM33.7849 42.5345C33.5228 42.8773 33.2065 42.8592 33.068 42.7912L32.1863 44.5863C33.1631 45.0661 34.5197 44.8661 35.3736 43.7494L33.7849 42.5345ZM33.1186 42.8178C29.1148 40.5587 25.0098 40.4409 21.0486 42.8327L22.0824 44.5448C25.3717 42.5587 28.7031 42.6228 32.1357 44.5597L33.1186 42.8178ZM21.0768 42.8163C20.8618 42.9368 20.4915 42.8673 20.3288 42.6439L18.712 43.8212C19.4792 44.8748 20.9679 45.1698 22.0543 44.5612L21.0768 42.8163ZM20.3476 42.6706C20.1526 42.3836 20.0991 42.0628 20.1954 41.7107L18.2662 41.183C18.0203 42.0822 18.1597 43.0092 18.6933 43.7946L20.3476 42.6706ZM20.1932 41.7185L20.204 41.6802L18.2792 41.1369L18.2684 41.1752L20.1932 41.7185ZM20.1997 41.695L22.2448 34.8543L20.3286 34.2814L18.2835 41.1221L20.1997 41.695ZM25.2842 1C27.3321 1 28.9001 2.54608 28.9314 4.50023L30.9312 4.46818C30.8818 1.3878 28.3895 -1 25.2842 -1V1ZM28.9313 4.4922L28.9319 4.56865L30.9319 4.55265L30.9313 4.4762L28.9313 4.4922ZM28.9319 4.56061L28.9316 13.4079L30.9316 13.408L30.9319 4.56069L28.9319 4.56061ZM30.4753 12.5687L30.3914 12.5143L29.3039 14.1928L29.3878 14.2472L30.4753 12.5687ZM30.337 12.4796L30.2521 12.4263L29.1888 14.1202L29.2738 14.1736L30.337 12.4796ZM30.2477 12.4235C29.3766 11.883 28.3186 11.4046 26.957 11.4046V13.4046C27.8108 13.4046 28.4999 13.6928 29.1932 14.123L30.2477 12.4235ZM26.957 11.4046C25.63 11.4046 24.3995 11.8368 23.4829 12.5111L24.6681 14.1221C25.2389 13.7022 26.0535 13.4046 26.957 13.4046V11.4046ZM24.6301 12.4845L24.555 12.4345L23.4459 14.0987L23.5209 14.1488L24.6301 12.4845ZM24.5507 12.4316C24.4277 12.3505 24.2629 12.2563 24.0135 12.1989C23.8183 12.154 23.5994 12.1387 23.3615 12.1304L23.2923 14.1292C23.3958 14.1328 23.4656 14.1373 23.513 14.1418C23.5609 14.1464 23.5731 14.1499 23.5649 14.148C23.5515 14.1449 23.5217 14.1364 23.4852 14.1195C23.4525 14.1042 23.434 14.0909 23.4502 14.1016L24.5507 12.4316ZM23.356 12.1302L23.2478 12.1271L23.1895 14.1262L23.2977 14.1294L23.356 12.1302ZM23.2388 12.1269L23.1174 12.1244L23.0772 14.124L23.1985 14.1265L23.2388 12.1269ZM23.1104 12.1243L22.975 12.1225L22.9487 14.1224L23.0841 14.1241L23.1104 12.1243ZM22.9696 12.1225L22.8191 12.1213L22.8036 14.1212L22.9541 14.1224L22.9696 12.1225ZM22.8149 12.1213L22.6483 12.1207L22.6412 14.1207L22.8078 14.1213L22.8149 12.1213ZM22.6451 12.1207L22.4615 12.1206L22.4607 14.1206L22.6443 14.1207L22.6451 12.1207ZM22.4586 12.1206L22.1491 12.1214L22.154 14.1214L22.4635 14.1206L22.4586 12.1206ZM22.1466 12.1214L21.665 12.1238L21.6749 14.1237L22.1565 14.1213L22.1466 12.1214ZM21.6635 12.1238L19.6723 12.1367L19.6853 14.1366L21.6765 14.1237L21.6635 12.1238ZM19.6734 12.1367L18.3218 12.144L18.3327 14.1439L19.6842 14.1366L19.6734 12.1367ZM18.323 12.144L17.5466 12.1472L17.5551 14.1472L18.3315 14.1439L18.323 12.144ZM17.5475 12.1472L16.6997 12.1501L16.7064 14.1501L17.5542 14.1472L17.5475 12.1472ZM16.7006 12.1501L15.778 12.1523L15.7828 14.1523L16.7054 14.1501L16.7006 12.1501ZM15.7789 12.1523L14.7782 12.1538L14.7811 14.1538L15.7818 14.1523L15.7789 12.1523ZM14.779 12.1538L14.0668 12.1542L14.0681 14.1542L14.7803 14.1538L14.779 12.1538ZM14.0676 12.1542L12.9293 12.154L12.9289 14.154L14.0672 14.1542L14.0676 12.1542ZM12.9301 12.154L12.1232 12.1532L12.1212 14.1532L12.9281 14.154L12.9301 12.154ZM12.1238 12.1532L11.2772 12.1518L11.274 14.1518L12.1205 14.1532L12.1238 12.1532ZM11.2779 12.1518L10.3907 12.1498L10.3861 14.1498L11.2733 14.1518L11.2779 12.1518ZM10.3913 12.1498L9.46259 12.1471L9.45675 14.1471L10.3855 14.1498L10.3913 12.1498ZM9.46321 12.1471L8.49188 12.1436L8.4848 14.1436L9.45612 14.1471L9.46321 12.1471ZM8.4925 12.1436L7.47762 12.1394L7.46931 14.1394L8.48418 14.1436L8.4925 12.1436ZM7.47823 12.1394L6.41883 12.1344L6.4093 14.1343L7.4687 14.1394L7.47823 12.1394ZM6.41406 12.1343C5.25778 12.1343 4.48459 13.0855 4.48459 14.0464H6.48459C6.48459 14.0677 6.48042 14.0815 6.47741 14.0889C6.47438 14.0964 6.47036 14.1026 6.46473 14.1086C6.45857 14.115 6.44913 14.1224 6.43647 14.128C6.42261 14.1341 6.41319 14.1343 6.41406 14.1343V12.1343ZM4.48459 14.0464C4.48459 14.5446 4.65574 15.0343 5.0225 15.4041C5.3881 15.7727 5.87378 15.9476 6.36674 15.9579L6.40856 13.9583C6.38165 13.9577 6.37703 13.9534 6.38814 13.9578C6.40008 13.9626 6.42104 13.974 6.44255 13.9957C6.46415 14.0175 6.47676 14.04 6.48268 14.0554C6.48828 14.0699 6.48459 14.0692 6.48459 14.0464H4.48459ZM6.37724 15.958L6.40365 15.9583L6.42447 13.9584L6.39806 13.9581L6.37724 15.958ZM6.41406 15.9584H22.2164V13.9584H6.41406V15.9584ZM21.516 14.2446L20.7723 14.9743L22.1731 16.4019L22.9168 15.6721L21.516 14.2446ZM20.9651 14.8265C20.9811 14.8171 20.9856 14.8161 20.9717 14.822C20.9588 14.8275 20.9367 14.8362 20.903 14.8477L21.5495 16.7403C21.6753 16.6973 21.8325 16.6368 21.9803 16.5497L20.9651 14.8265ZM20.9123 14.8446L20.8554 14.8634L21.4834 16.7622L21.5403 16.7434L20.9123 14.8446ZM20.8491 14.8654L20.7872 14.8842L21.3684 16.7978L21.4303 16.779L20.8491 14.8654ZM20.7728 14.8884L20.7061 14.9073L21.252 16.8313L21.3186 16.8124L20.7728 14.8884ZM20.7174 14.9041L20.612 14.9327L21.1353 16.863L21.2407 16.8345L20.7174 14.9041ZM20.6222 14.93L20.5105 14.959L21.0134 16.8948L21.1251 16.8658L20.6222 14.93ZM20.5192 14.9568L20.3204 15.0066L20.806 16.9467L21.0047 16.897L20.5192 14.9568ZM20.3249 15.0054L19.8898 15.1122L20.3665 17.0546L20.8015 16.9478L20.3249 15.0054ZM19.8854 15.1133L19.7386 15.15L20.224 17.0902L20.3709 17.0535L19.8854 15.1133ZM19.6553 15.1712L19.5036 15.2106L20.0061 17.1464L20.1578 17.1071L19.6553 15.1712ZM19.5001 15.2115C18.9447 15.3578 18.2921 15.5538 17.6812 15.8424L18.5354 17.6508C18.9802 17.4406 19.4935 17.2815 20.0096 17.1455L19.5001 15.2115ZM17.6745 15.8455L17.5995 15.8817L18.467 17.6837L18.5421 17.6476L17.6745 15.8455ZM18.0333 15.7827H6.4139V17.7827H18.0333V15.7827ZM6.4139 15.7827C5.8631 15.7827 5.39118 16.0433 5.07468 16.3538C4.75933 16.6631 4.48444 17.1346 4.48444 17.6947H6.48444C6.48444 17.7505 6.47059 17.7825 6.46737 17.7893C6.46418 17.796 6.46555 17.791 6.47524 17.7815C6.48485 17.7721 6.49162 17.7691 6.48895 17.7703C6.48625 17.7715 6.46095 17.7827 6.4139 17.7827V15.7827ZM4.48444 17.6947C4.48444 18.8562 5.45119 19.5834 6.36695 19.6061L6.41658 17.6067C6.42919 17.607 6.43591 17.6094 6.43842 17.6105C6.441 17.6115 6.44514 17.6136 6.45087 17.619C6.45713 17.6249 6.46644 17.6359 6.4741 17.653C6.48238 17.6714 6.48444 17.6874 6.48444 17.6947H4.48444ZM6.37921 19.6063L6.40135 19.6066L6.42646 17.6068L6.40432 17.6065L6.37921 19.6063ZM6.4139 19.6067H15.8953V17.6067H6.4139V19.6067ZM15.1949 17.8929L15.1019 17.9842L16.5026 19.4118L16.5957 19.3205L15.1949 17.8929ZM14.9112 18.2442C14.5902 18.8743 14.3821 19.5807 14.2723 20.1866L16.2402 20.5433C16.3233 20.0853 16.479 19.5727 16.6933 19.1519L14.9112 18.2442ZM14.2713 20.1919L14.2597 20.258L16.2296 20.6041L16.2412 20.538L14.2713 20.1919ZM15.2446 19.4311H6.41391V21.4311H15.2446V19.4311ZM6.41391 19.4311C5.48176 19.4311 4.48444 20.1626 4.48444 21.3431H6.48444C6.48444 21.3506 6.48226 21.367 6.47372 21.3857C6.46584 21.4029 6.45641 21.4138 6.45031 21.4194C6.44478 21.4244 6.44079 21.4264 6.4381 21.4275C6.43546 21.4285 6.42794 21.4311 6.41391 21.4311V19.4311ZM4.48444 21.3431C4.48444 21.8944 4.75103 22.3597 5.05861 22.6681C5.36746 22.9777 5.82487 23.2377 6.36088 23.2543L6.42267 21.2552C6.46602 21.2565 6.48825 21.2672 6.48952 21.2678C6.49083 21.2684 6.48378 21.2648 6.47456 21.2556C6.46523 21.2462 6.46423 21.2417 6.4676 21.2489C6.471 21.2561 6.48444 21.2881 6.48444 21.3431H4.48444ZM6.37638 23.2546L6.39852 23.255L6.4293 21.2552L6.40716 21.2548L6.37638 23.2546ZM6.41387 23.2551L15.2446 23.2554L15.2447 21.2554L6.41395 21.2551L6.41387 23.2551ZM14.2551 22.3996C14.3028 22.7267 14.3702 23.0255 14.435 23.2864L16.376 22.8039C16.3187 22.5736 16.2684 22.346 16.2342 22.1112L14.2551 22.3996ZM14.436 23.2902L14.4694 23.4224L16.4084 22.9323L16.375 22.8001L14.436 23.2902ZM14.4709 23.4282L14.5526 23.7434L16.4886 23.2417L16.407 22.9265L14.4709 23.4282ZM14.5513 23.7384L14.5817 23.8584L16.5203 23.3667L16.4899 23.2467L14.5513 23.7384ZM14.5807 23.8543C14.6034 23.9456 14.622 24.0252 14.6367 24.097L16.5963 23.6973C16.5737 23.5866 16.5477 23.4765 16.5214 23.3708L14.5807 23.8543ZM15.6165 24.8971C15.5121 24.8971 15.3665 24.8777 15.2117 24.8002C15.0516 24.72 14.9323 24.6029 14.8521 24.4814C14.7161 24.2754 14.7106 24.0829 14.7105 24.0813L16.7056 23.9421C16.7011 23.8767 16.6845 23.627 16.5212 23.3796C16.2987 23.0425 15.9416 22.8971 15.6165 22.8971V24.8971ZM14.7092 24.06L14.7103 24.0817L16.7079 23.985L16.7069 23.9633L14.7092 24.06ZM14.7092 24.0511L14.7096 24.0734L16.7093 24.038L16.7089 24.0156L14.7092 24.0511ZM14.7095 24.0583L14.7095 24.082L16.7095 24.0768L16.7095 24.0531L14.7095 24.0583ZM15.7095 23.0794H6.41404V25.0794H15.7095V23.0794ZM6.41404 23.0794C5.48189 23.0794 4.48458 23.8109 4.48458 24.9914H6.48458C6.48458 24.999 6.48239 25.0154 6.47385 25.0341C6.46598 25.0513 6.45654 25.0622 6.45045 25.0677C6.44491 25.0728 6.44092 25.0748 6.43823 25.0758C6.4356 25.0769 6.42807 25.0794 6.41404 25.0794V23.0794ZM4.48458 24.9914C4.48458 25.5428 4.75117 26.0081 5.05874 26.3164C5.36759 26.626 5.825 26.8861 6.36101 26.9026L6.4228 24.9036C6.46615 24.9049 6.48839 24.9155 6.48965 24.9161C6.49096 24.9168 6.48391 24.9132 6.47469 24.904C6.46536 24.8946 6.46437 24.8901 6.46773 24.8972C6.47114 24.9045 6.48458 24.9365 6.48458 24.9914H4.48458ZM6.37638 26.903L6.39852 26.9033L6.42957 24.9036L6.40743 24.9032L6.37638 26.903ZM6.41408 26.9034L15.7096 26.9031L15.7095 24.9031L6.41401 24.9034L6.41408 26.9034ZM14.7095 25.9031C14.7095 25.8856 14.7105 25.8719 14.7115 25.8627C14.7124 25.8535 14.7134 25.8477 14.7138 25.8458C14.7141 25.844 14.714 25.8449 14.7129 25.8494C14.7118 25.8538 14.7101 25.8606 14.7072 25.8707L16.6327 26.4116C16.6598 26.3151 16.7095 26.126 16.7095 25.9031H14.7095ZM14.7104 25.8598L14.677 25.9736L16.5962 26.5364L16.6296 26.4226L14.7104 25.8598ZM14.6746 25.982C14.6658 26.0129 14.6165 26.1744 14.6165 26.3593H16.6165C16.6165 26.4022 16.6133 26.4368 16.6104 26.4599C16.6075 26.4835 16.6042 26.5014 16.6021 26.5119C16.5982 26.5307 16.5954 26.5394 16.5986 26.528L14.6746 25.982ZM14.7256 25.905C14.5415 26.266 14.4391 26.6891 14.3709 27.0058L16.326 27.427C16.3925 27.1185 16.4522 26.9218 16.5073 26.8136L14.7256 25.905ZM14.37 27.0101L14.348 27.1143L16.305 27.527L16.3269 27.4227L14.37 27.0101ZM14.3464 27.1219L14.3149 27.2772L16.275 27.6747L16.3065 27.5194L14.3464 27.1219ZM14.3144 27.2797L14.2641 27.5312L16.2252 27.9238L16.2755 27.6723L14.3144 27.2797ZM15.2446 26.7275H6.41391V28.7275H15.2446V26.7275ZM6.41391 26.7275C5.25763 26.7275 4.48444 27.6786 4.48444 28.6395H6.48444C6.48444 28.6608 6.48027 28.6747 6.47726 28.6821C6.47423 28.6895 6.47021 28.6958 6.46458 28.7017C6.45842 28.7082 6.44898 28.7155 6.43632 28.7211C6.42246 28.7272 6.41304 28.7275 6.41391 28.7275V26.7275ZM4.48444 28.6395C4.48444 29.5849 5.2323 30.5214 6.36147 30.5509L6.41353 28.5515C6.41334 28.5515 6.41618 28.5516 6.42129 28.5528C6.42634 28.554 6.43215 28.5559 6.4382 28.5587C6.45049 28.5644 6.45945 28.5717 6.46523 28.5779C6.47054 28.5836 6.47443 28.5898 6.47741 28.5972C6.48036 28.6045 6.48444 28.6184 6.48444 28.6395H4.48444ZM6.3746 30.5511L6.40101 30.5514L6.42681 28.5516L6.4004 28.5513L6.3746 30.5511ZM6.41387 30.5515L15.2446 30.5519L15.2447 28.5519L6.41395 28.5515L6.41387 30.5515ZM14.2446 29.5519C14.2446 30.3932 14.4914 31.2035 14.9382 31.9705L16.6664 30.9639C16.3694 30.4541 16.2446 29.9875 16.2446 29.5519H14.2446ZM14.9347 31.9646C15.5713 33.0752 16.5023 33.7809 17.4347 34.2461L18.3276 32.4565C17.6419 32.1143 17.0585 31.648 16.6698 30.9699L14.9347 31.9646ZM17.4411 34.2492L17.5264 34.2911L18.4066 32.4952L18.3212 32.4533L17.4411 34.2492ZM17.5328 34.2942C17.6636 34.3571 17.7945 34.4156 17.9248 34.4701L18.6966 32.6251C18.5964 32.5831 18.4974 32.5389 18.4002 32.4921L17.5328 34.2942ZM17.9303 34.4724L18.0168 34.508L18.7776 32.6583L18.6911 32.6228L17.9303 34.4724ZM18.0277 34.5124L18.1143 34.5468L18.8533 32.6884L18.7667 32.6539L18.0277 34.5124ZM18.1249 34.551L18.2115 34.5843L18.9294 32.7176L18.8427 32.6842L18.1249 34.551ZM18.2217 34.5881L18.3083 34.6204L19.0058 32.7459L18.9192 32.7137L18.2217 34.5881ZM18.3662 34.6414L18.4527 34.6721L19.1209 32.787L19.0344 32.7563L18.3662 34.6414ZM18.5097 34.6918L18.5959 34.7209L19.2366 32.8263L19.1503 32.7972L18.5097 34.6918ZM18.652 34.7395L18.7379 34.7672L19.3525 32.864L19.2666 32.8363L18.652 34.7395ZM18.7461 34.7698L18.8317 34.7967L19.4299 32.8882L19.3443 32.8614L18.7461 34.7698ZM18.8396 34.7991L18.9249 34.8251L19.5074 32.9118L19.4221 32.8858L18.8396 34.7991ZM18.9323 34.8273L19.0172 34.8524L19.5848 32.9347L19.4999 32.9095L18.9323 34.8273ZM19.0243 34.8545L19.1088 34.8788L19.6622 32.9569L19.5777 32.9326L19.0243 34.8545ZM19.1139 34.8803L19.1559 34.8921L19.6991 32.9673L19.6571 32.9554L19.1139 34.8803ZM18.4707 33.6389L16.8906 38.8378L18.8041 39.4194L20.3843 34.2205L18.4707 33.6389ZM17.8474 38.1286H4.64775V40.1286H17.8474V38.1286ZM4.64775 38.1286C2.59979 38.1286 1.0318 36.5827 1.00048 34.6286L-0.99926 34.6607C-0.949888 37.7411 1.54245 40.1286 4.64775 40.1286V38.1286ZM1.00058 34.6366L0.999968 34.5602L-0.999968 34.5762L-0.999356 34.6526L1.00058 34.6366ZM1 34.5682V4.56045H-1V34.5682H1ZM1 4.56045C1 2.59602 2.54832 1.03191 4.58527 1.00048L4.55441 -0.99928C1.46047 -0.951537 -1 1.46841 -1 4.56045H1ZM4.57755 1.00057L4.65546 0.99997L4.64004 -0.99997L4.56213 -0.99937L4.57755 1.00057ZM4.64775 1H25.2842V-1H4.64775V1ZM27.0497 22.3431C28.6205 22.3431 29.8611 23.5875 29.8611 25.0825H31.8611C31.8611 22.4473 29.689 20.3431 27.0497 20.3431V22.3431ZM29.8611 25.0825C29.8611 26.5779 28.6204 27.8223 27.0497 27.8223V29.8223C29.6891 29.8223 31.8611 27.7181 31.8611 25.0825H29.8611ZM27.0497 27.8223C25.4794 27.8223 24.2387 26.578 24.2387 25.0825H22.2387C22.2387 27.718 24.4107 29.8223 27.0497 29.8223V27.8223ZM24.2387 25.0825C24.2387 23.5875 25.4794 22.3431 27.0497 22.3431V20.3431C24.4107 20.3431 22.2387 22.4473 22.2387 25.0825H24.2387ZM12.363 8.48589H6.41389V10.4859H12.363V8.48589ZM6.41389 8.48589C5.25762 8.48589 4.48443 9.437 4.48443 10.3979H6.48443C6.48443 10.4192 6.48025 10.4331 6.47725 10.4405C6.47421 10.4479 6.4702 10.4542 6.46456 10.4601C6.45841 10.4666 6.44897 10.4739 6.43631 10.4795C6.42245 10.4856 6.41302 10.4859 6.41389 10.4859V8.48589ZM4.48443 10.3979C4.48443 11.3432 5.23228 12.2798 6.36145 12.3092L6.41351 10.3099C6.41333 10.3099 6.41617 10.31 6.42127 10.3112C6.42632 10.3124 6.43214 10.3143 6.43818 10.3171C6.45048 10.3228 6.45943 10.33 6.46521 10.3363C6.47052 10.342 6.47441 10.3481 6.47739 10.3556C6.48034 10.3629 6.48443 10.3767 6.48443 10.3979H4.48443ZM6.37453 12.3095L6.40094 12.3098L6.42685 10.31L6.40044 10.3097L6.37453 12.3095ZM6.41389 12.3099H12.363V10.3099H6.41389V12.3099ZM12.363 12.3099C13.5193 12.3099 14.2932 11.359 14.2925 10.3972L12.2925 10.3986C12.2925 10.3772 12.2967 10.3632 12.2997 10.3556C12.3028 10.3481 12.3069 10.3417 12.3126 10.3357C12.3188 10.3292 12.3283 10.3218 12.3409 10.3163C12.3547 10.3102 12.3641 10.3099 12.363 10.3099V12.3099ZM14.2925 10.3979C14.2925 9.84658 14.0259 9.38124 13.7183 9.07291C13.4095 8.7633 12.9521 8.50328 12.416 8.48672L12.3543 10.4858C12.3109 10.4844 12.2887 10.4738 12.2874 10.4732C12.2861 10.4726 12.2931 10.4761 12.3024 10.4854C12.3117 10.4947 12.3127 10.4993 12.3093 10.4921C12.3059 10.4848 12.2925 10.4529 12.2925 10.3979H14.2925ZM12.4007 8.48636L12.3785 8.48601L12.3475 10.4858L12.3696 10.4861L12.4007 8.48636ZM31.4288 34.3696L31.4057 34.3939L32.8523 35.7749L32.8755 35.7506L31.4288 34.3696ZM31.3452 34.4585L31.322 34.4839L32.7966 35.835L32.8198 35.8096L31.3452 34.4585ZM31.0991 34.7426L31.0772 34.7698L32.6328 36.0268L32.6547 35.9996L31.0991 34.7426ZM30.0085 35.7757L29.9717 35.8059L31.2414 37.3511L31.2782 37.3209L30.0085 35.7757ZM29.9101 35.8557L29.8725 35.8856L31.1167 37.4515L31.1543 37.4216L29.9101 35.8557ZM19.273 32.8383L19.23 32.8241L18.6026 34.7232L18.6456 34.7374L19.273 32.8383ZM19.1571 32.7995L19.1139 32.7845L18.4597 34.6745L18.5029 34.6895L19.1571 32.7995ZM19.0416 32.7589L18.9984 32.7432L18.3157 34.6231L18.359 34.6388L19.0416 32.7589ZM20.153 17.1083L20.2277 17.0893L19.7349 15.151L19.6601 15.17L20.153 17.1083ZM21.3267 16.8101L21.3589 16.8007L20.7967 14.8813L20.7646 14.8907L21.3267 16.8101ZM21.4412 16.7756L21.4709 16.7663L20.8679 14.8593L20.8382 14.8687L21.4412 16.7756ZM29.2675 14.1696L29.3097 14.1965L30.3855 12.5105L30.3433 12.4836L29.2675 14.1696Z" fill="black" mask="url(#path-1-inside-1_511_52)"/>
</svg>
