<svg width="38" height="38" viewBox="0 0 38 38" fill="none" xmlns="http://www.w3.org/2000/svg">
<g clip-path="url(#clip0_511_66)">
<path d="M33.8621 7.16073C31.7089 4.45702 28.8801 2.38692 25.6288 1.20405C21.3221 -0.40135 16.72 -0.40135 12.4133 1.20405C9.16217 2.42902 6.3333 4.45702 4.18005 7.16073C1.43547 10.5404 0 14.6382 0 18.9894V19.4542V19.7076C0.16876 23.214 1.26673 26.5937 3.16665 29.4663C5.70012 33.2682 9.49994 36.0144 13.891 37.2394C15.5801 37.7466 17.3112 38 19 38C20.6888 38 22.4199 37.7466 24.1511 37.2819C28.5421 36.0569 32.3422 33.2686 34.8755 29.4665C36.7754 26.5939 37.8734 23.2142 38 19.75V19.4966V18.9897C38 14.6385 36.5645 10.5407 33.8623 7.16102L33.8621 7.16073ZM33.7355 28.2412H26.7265L24.5309 25.2416C24.9954 23.8053 26.6842 18.5668 27.1486 17.1305L30.653 15.9898L36.3107 20.0876C36.1843 23.0026 35.2554 25.7909 33.7355 28.241V28.2412ZM11.2734 28.2412H4.26444C2.74445 25.791 1.81557 23.0027 1.64675 20.0878L7.30442 15.99L10.8088 17.1307L13.4265 25.2418L11.2734 28.2412ZM4.518 9.35749L6.24918 14.7649L1.60461 18.1446C1.77337 14.9762 2.74438 11.9766 4.518 9.35749ZM14.9046 24.6081L12.3711 16.8349L19.0001 12.019L25.5867 16.8349C24.1088 21.3129 23.4334 23.5097 23.0957 24.6081H14.9046ZM31.7512 14.8071L33.4823 9.39974C35.2135 12.0189 36.2266 15.0184 36.3533 18.1868L31.7512 14.8071ZM32.3423 7.79464L30.189 14.4694L26.6846 15.6101L19.8023 10.625V6.94973L25.46 2.85192C28.1201 3.90776 30.4845 5.59772 32.3423 7.79464ZM23.6023 2.21809L19.0002 5.55563L14.3981 2.21839C17.4381 1.37326 20.5623 1.37326 23.6025 2.2181L23.6023 2.21809ZM12.5402 2.85165L18.1978 6.94946V10.6247L11.3156 15.6098L7.81115 14.4691L5.6579 7.79437C7.51574 5.59783 9.8801 3.90779 12.5402 2.85165ZM5.40457 29.8465H11.1047L12.878 35.2539C9.92255 34.1553 7.34701 32.2965 5.40465 29.8465H5.40457ZM14.7356 35.8453L12.5824 29.1705L14.778 26.171H23.2646L25.4602 29.1705L23.307 35.8453C20.4354 36.5635 17.6066 36.6056 14.7359 35.8453H14.7356ZM25.1645 35.2539L26.8956 29.8465H32.5957C30.6531 32.2965 28.0775 34.1553 25.1645 35.2539H25.1645Z" fill="#141736"/>
</g>
<defs>
<clipPath id="clip0_511_66">
<rect width="38" height="38" fill="white"/>
</clipPath>
</defs>
</svg>
