<svg width="35" height="27" viewBox="0 0 35 27" fill="none" xmlns="http://www.w3.org/2000/svg">
<path d="M12.4082 9.42743L12.4081 9.4274L12.4033 9.43221C10.9058 10.9162 10.1034 12.9354 10.313 15.0464C10.6084 18.4052 13.3685 21.0947 16.8573 21.3842C17.1212 21.4248 17.3427 21.4248 17.5298 21.4248H17.5387C19.4537 21.4248 21.2902 20.7019 22.6691 19.3723C24.1803 17.9151 24.9318 15.8545 24.7649 13.7602L24.7649 13.7602L24.7645 13.7564C24.4701 10.391 21.7013 7.69685 18.2039 7.41423C16.0403 7.21442 13.9528 7.93797 12.4082 9.42743ZM22.8664 0.5C24.114 0.5 25.2199 1.36099 25.6224 2.49083C26.1886 4.12586 27.6816 5.37501 29.5164 5.37501C32.358 5.37501 34.5 7.10361 34.5 9.67497V21.5624C34.5 24.2145 32.2705 26.5 29.5554 26.5H5.5222C2.76143 26.5 0.5 24.2076 0.5 21.5624V9.67497C0.5 7.10769 2.67568 5.375 5.5222 5.37475C7.36229 5.37475 8.85013 4.08304 9.41481 2.49459C9.8191 1.39252 10.9307 0.5 12.1722 0.5H17.5387H22.8664ZM26.022 7.91255C26.022 8.6929 26.6518 9.27497 27.4163 9.27497C28.1274 9.27497 28.8107 8.70665 28.8107 7.91255C28.8107 7.13219 28.1809 6.55012 27.4163 6.55012C26.6522 6.55012 26.022 7.13175 26.022 7.91255Z" fill="white" stroke="black"/>
</svg>
