<svg width="33" height="38" viewBox="0 0 33 38" fill="none" xmlns="http://www.w3.org/2000/svg">
<mask id="path-1-inside-1_511_40" fill="white">
<path fill-rule="evenodd" clip-rule="evenodd" d="M11.8112 9.86104C11.021 9.63969 10.2037 9.49274 9.07451 9.59999C6.61221 9.83465 4.66334 11.1009 3.47036 12.0926L3.37529 12.1724L3.32901 12.2118L3.23897 12.2895L3.15231 12.3656L3.11026 12.403L3.02873 12.4764L2.95066 12.5479L2.87607 12.6172L2.805 12.6842L2.73747 12.7488L2.67351 12.8108L2.58433 12.8985L2.50335 12.9796L2.42492 13.0593L2.23606 13.2545L2.19806 13.2929C-3.71444 19.1481 3.44598 37.4216 10.17 37.9864L10.2191 37.9902C10.5617 38.0147 10.8791 37.9915 11.2002 37.9396L11.2921 37.924C11.3228 37.9185 11.3535 37.9128 11.3843 37.9069L11.4771 37.8885L11.5705 37.8688L11.6647 37.848L11.7598 37.8261L11.8561 37.8032L12.0029 37.7674L12.4655 37.6515L12.6287 37.6112L12.7405 37.5841L12.9129 37.5436L12.9718 37.5302L13.0916 37.5034L13.2145 37.4769C13.2559 37.4681 13.2979 37.4594 13.3404 37.4508L13.4697 37.4251L13.6024 37.4001C13.6696 37.3877 13.7382 37.3756 13.8082 37.3638L13.9502 37.3406C14.6217 37.2346 15.4229 37.1588 16.4225 37.1588C17.6006 37.1588 18.5031 37.264 19.2427 37.4001L19.3754 37.4251L19.5047 37.4508L19.6306 37.4769L19.7534 37.5034L19.8137 37.5167L19.9321 37.5436L20.0478 37.5706L20.1608 37.5977L20.3257 37.6381L20.8914 37.7795L21.0372 37.8148L21.1329 37.8371L21.2275 37.8585L21.2745 37.8688L21.3679 37.8885L21.4607 37.9069C21.8613 37.9838 22.2477 38.0224 22.6749 37.9864C29.2064 37.4361 36.995 20.1431 30.6415 13.2929L30.5532 13.1972L30.4442 13.0808L30.3638 12.9966L30.3039 12.935L30.2392 12.8694L30.1695 12.7998L30.0951 12.7267L30.0159 12.6502L29.932 12.5706L29.8433 12.4881C28.752 11.4817 26.6594 9.9043 23.9172 9.62869C22.7288 9.51013 21.917 9.6844 21.1015 9.92891L20.9849 9.9643L20.8094 10.0189L20.3927 10.1505L20.2707 10.1886L20.1469 10.2266L20.0211 10.2645L19.893 10.302C19.074 10.5381 18.104 10.7449 16.7012 10.7576C15.2021 10.7725 14.1642 10.5568 13.2796 10.3048L13.1447 10.2658L13.0119 10.2264L12.8811 10.1867L12.6879 10.127L12.4347 10.048L12.1847 9.97074L12.0602 9.9332C12.0188 9.92083 11.9773 9.90862 11.9358 9.89658L11.8112 9.86104ZM17.5974 7.49128L18.6139 7.89943L17.127 7.4279L17.224 7.44224L17.3254 7.45653L17.4311 7.47064L17.541 7.48449L17.5974 7.49128Z"/>
<path d="M28.2527 0.39795C26.3966 0.00983496 22.7515 -0.475641 20.3893 1.00552C18.7796 2.01097 17.7994 3.5993 17.2169 4.95771L17.1617 5.08843C17.0629 5.32665 16.9763 5.55682 16.9007 5.77438L16.8606 5.89177C16.8476 5.93047 16.8349 5.96872 16.8226 6.0065L16.7866 6.11841L16.7528 6.22732C16.7418 6.26311 16.7312 6.29837 16.7209 6.33308L16.6909 6.43552L16.6629 6.53447L16.6367 6.62979L16.6123 6.72129L16.579 6.85104L16.5589 6.93231L16.5404 7.00919L15.1206 8.86049L15.071 8.79418L14.9216 8.59569L14.8216 8.46381L14.7213 8.33235L14.6204 8.20134L14.5192 8.07086L14.4174 7.94093L14.3152 7.81162L14.2124 7.68296L14.1091 7.55502L14.0051 7.42785L13.9006 7.30148L13.8481 7.23862L13.7425 7.11356L13.6363 6.98944L13.5294 6.8663L13.4217 6.7442C12.341 5.52853 11.1442 4.47554 9.70466 3.80879L8.69056 5.81326L8.77466 5.8513C10.0315 6.42423 11.0749 7.10308 11.9518 7.81283L12.0678 7.90764C12.2402 8.05011 12.4061 8.19368 12.5658 8.33775L12.6713 8.43387C12.8108 8.56211 12.9455 8.69064 13.0756 8.81904L13.1724 8.91531C13.2203 8.96343 13.2676 9.01151 13.3143 9.05954L13.4069 9.15551L13.4526 9.20343L13.5427 9.29911L13.6313 9.39455L13.7183 9.48969L13.7612 9.53715L13.8459 9.63179L13.9291 9.72605L13.9701 9.77303L14.0511 9.86664L14.1307 9.95976L14.2088 10.0524L14.2855 10.1444L14.3981 10.2813L14.4715 10.3718C15.0141 10.4819 15.6328 10.563 16.3884 10.5773L15.9929 10.0387C15.861 9.85867 15.7292 9.67807 15.5974 9.49622L17.012 7.65491L17.0948 7.66884L18.6139 7.89943L17.9807 7.78668C18.0212 7.79082 18.0624 7.79485 18.1041 7.79877L18.2309 7.81013C18.2738 7.81379 18.3172 7.8173 18.3611 7.82066L18.4946 7.83026L18.5625 7.83467L18.7006 7.84267C20.3288 7.92924 22.5482 7.77254 24.355 6.64084C26.4546 5.32748 27.9438 3.25578 28.7439 1.93437L28.8169 1.81274L28.8858 1.69577L28.9187 1.63913L28.9816 1.52969L29.0403 1.42561L29.095 1.32718L29.1455 1.23465L29.1919 1.14833L29.2341 1.06846L29.2897 0.961404L29.3358 0.870451L29.3827 0.775846L29.4259 0.685186L29.3655 0.667569L29.2614 0.63853L29.1914 0.619618L29.0651 0.586507L28.9144 0.5485L28.801 0.520884L28.6777 0.491755L28.6125 0.476707L28.4752 0.445808L28.4032 0.430023L28.2527 0.39795Z"/>
</mask>
<path fill-rule="evenodd" clip-rule="evenodd" d="M11.8112 9.86104C11.021 9.63969 10.2037 9.49274 9.07451 9.59999C6.61221 9.83465 4.66334 11.1009 3.47036 12.0926L3.37529 12.1724L3.32901 12.2118L3.23897 12.2895L3.15231 12.3656L3.11026 12.403L3.02873 12.4764L2.95066 12.5479L2.87607 12.6172L2.805 12.6842L2.73747 12.7488L2.67351 12.8108L2.58433 12.8985L2.50335 12.9796L2.42492 13.0593L2.23606 13.2545L2.19806 13.2929C-3.71444 19.1481 3.44598 37.4216 10.17 37.9864L10.2191 37.9902C10.5617 38.0147 10.8791 37.9915 11.2002 37.9396L11.2921 37.924C11.3228 37.9185 11.3535 37.9128 11.3843 37.9069L11.4771 37.8885L11.5705 37.8688L11.6647 37.848L11.7598 37.8261L11.8561 37.8032L12.0029 37.7674L12.4655 37.6515L12.6287 37.6112L12.7405 37.5841L12.9129 37.5436L12.9718 37.5302L13.0916 37.5034L13.2145 37.4769C13.2559 37.4681 13.2979 37.4594 13.3404 37.4508L13.4697 37.4251L13.6024 37.4001C13.6696 37.3877 13.7382 37.3756 13.8082 37.3638L13.9502 37.3406C14.6217 37.2346 15.4229 37.1588 16.4225 37.1588C17.6006 37.1588 18.5031 37.264 19.2427 37.4001L19.3754 37.4251L19.5047 37.4508L19.6306 37.4769L19.7534 37.5034L19.8137 37.5167L19.9321 37.5436L20.0478 37.5706L20.1608 37.5977L20.3257 37.6381L20.8914 37.7795L21.0372 37.8148L21.1329 37.8371L21.2275 37.8585L21.2745 37.8688L21.3679 37.8885L21.4607 37.9069C21.8613 37.9838 22.2477 38.0224 22.6749 37.9864C29.2064 37.4361 36.995 20.1431 30.6415 13.2929L30.5532 13.1972L30.4442 13.0808L30.3638 12.9966L30.3039 12.935L30.2392 12.8694L30.1695 12.7998L30.0951 12.7267L30.0159 12.6502L29.932 12.5706L29.8433 12.4881C28.752 11.4817 26.6594 9.9043 23.9172 9.62869C22.7288 9.51013 21.917 9.6844 21.1015 9.92891L20.9849 9.9643L20.8094 10.0189L20.3927 10.1505L20.2707 10.1886L20.1469 10.2266L20.0211 10.2645L19.893 10.302C19.074 10.5381 18.104 10.7449 16.7012 10.7576C15.2021 10.7725 14.1642 10.5568 13.2796 10.3048L13.1447 10.2658L13.0119 10.2264L12.8811 10.1867L12.6879 10.127L12.4347 10.048L12.1847 9.97074L12.0602 9.9332C12.0188 9.92083 11.9773 9.90862 11.9358 9.89658L11.8112 9.86104ZM17.5974 7.49128L18.6139 7.89943L17.127 7.4279L17.224 7.44224L17.3254 7.45653L17.4311 7.47064L17.541 7.48449L17.5974 7.49128Z" fill="white"/>
<path d="M28.2527 0.39795C26.3966 0.00983496 22.7515 -0.475641 20.3893 1.00552C18.7796 2.01097 17.7994 3.5993 17.2169 4.95771L17.1617 5.08843C17.0629 5.32665 16.9763 5.55682 16.9007 5.77438L16.8606 5.89177C16.8476 5.93047 16.8349 5.96872 16.8226 6.0065L16.7866 6.11841L16.7528 6.22732C16.7418 6.26311 16.7312 6.29837 16.7209 6.33308L16.6909 6.43552L16.6629 6.53447L16.6367 6.62979L16.6123 6.72129L16.579 6.85104L16.5589 6.93231L16.5404 7.00919L15.1206 8.86049L15.071 8.79418L14.9216 8.59569L14.8216 8.46381L14.7213 8.33235L14.6204 8.20134L14.5192 8.07086L14.4174 7.94093L14.3152 7.81162L14.2124 7.68296L14.1091 7.55502L14.0051 7.42785L13.9006 7.30148L13.8481 7.23862L13.7425 7.11356L13.6363 6.98944L13.5294 6.8663L13.4217 6.7442C12.341 5.52853 11.1442 4.47554 9.70466 3.80879L8.69056 5.81326L8.77466 5.8513C10.0315 6.42423 11.0749 7.10308 11.9518 7.81283L12.0678 7.90764C12.2402 8.05011 12.4061 8.19368 12.5658 8.33775L12.6713 8.43387C12.8108 8.56211 12.9455 8.69064 13.0756 8.81904L13.1724 8.91531C13.2203 8.96343 13.2676 9.01151 13.3143 9.05954L13.4069 9.15551L13.4526 9.20343L13.5427 9.29911L13.6313 9.39455L13.7183 9.48969L13.7612 9.53715L13.8459 9.63179L13.9291 9.72605L13.9701 9.77303L14.0511 9.86664L14.1307 9.95976L14.2088 10.0524L14.2855 10.1444L14.3981 10.2813L14.4715 10.3718C15.0141 10.4819 15.6328 10.563 16.3884 10.5773L15.9929 10.0387C15.861 9.85867 15.7292 9.67807 15.5974 9.49622L17.012 7.65491L17.0948 7.66884L18.6139 7.89943L17.9807 7.78668C18.0212 7.79082 18.0624 7.79485 18.1041 7.79877L18.2309 7.81013C18.2738 7.81379 18.3172 7.8173 18.3611 7.82066L18.4946 7.83026L18.5625 7.83467L18.7006 7.84267C20.3288 7.92924 22.5482 7.77254 24.355 6.64084C26.4546 5.32748 27.9438 3.25578 28.7439 1.93437L28.8169 1.81274L28.8858 1.69577L28.9187 1.63913L28.9816 1.52969L29.0403 1.42561L29.095 1.32718L29.1455 1.23465L29.1919 1.14833L29.2341 1.06846L29.2897 0.961404L29.3358 0.870451L29.3827 0.775846L29.4259 0.685186L29.3655 0.667569L29.2614 0.63853L29.1914 0.619618L29.0651 0.586507L28.9144 0.5485L28.801 0.520884L28.6777 0.491755L28.6125 0.476707L28.4752 0.445808L28.4032 0.430023L28.2527 0.39795Z" fill="#F0AA20"/>
<path d="M21.4858 36.8914C21.4718 36.8884 21.4578 36.8853 21.4435 36.8821L21.0115 38.8349C21.0287 38.8387 21.046 38.8425 21.0632 38.8462L21.4858 36.8914ZM20.0318 36.5408C20.0107 36.5361 19.9894 36.5314 19.968 36.5267L19.5389 38.4801C19.5579 38.4843 19.5768 38.4884 19.5956 38.4926L20.0318 36.5408ZM12.7504 36.555C12.7296 36.5597 12.7089 36.5644 12.6884 36.5692L13.1375 38.5181C13.156 38.5138 13.1746 38.5096 13.1932 38.5053L12.7504 36.555ZM3.77642 13.1488C3.78927 13.1373 3.80225 13.1258 3.81535 13.1142L2.48927 11.617C2.47405 11.6305 2.45899 11.6439 2.44409 11.6572L3.77642 13.1488ZM3.97888 12.9718C3.99301 12.9598 4.00728 12.9476 4.0217 12.9354L2.72889 11.4094C2.71218 11.4236 2.69559 11.4377 2.67914 11.4518L3.97888 12.9718ZM28.1909 1.40723C28.214 1.41225 28.2368 1.41725 28.2592 1.42221L28.6912 -0.530591C28.6663 -0.536088 28.6411 -0.541622 28.6155 -0.547185L28.1909 1.40723ZM28.3893 1.45149C28.4103 1.45629 28.4309 1.46104 28.4511 1.46574L28.9043 -0.482226C28.8818 -0.48746 28.8589 -0.492746 28.8356 -0.498078L28.3893 1.45149ZM28.0533 1.13803C28.0432 1.15561 28.0328 1.1734 28.0223 1.19139L29.7493 2.20015C29.7611 2.17997 29.7727 2.15999 29.7841 2.14022L28.0533 1.13803ZM18.6251 6.83663C18.6039 6.8353 18.5828 6.83393 18.5618 6.83252L18.4275 8.828C18.4515 8.82962 18.4757 8.83119 18.5 8.83271L18.6251 6.83663ZM17.7149 6.49821C17.6972 6.49611 17.6797 6.494 17.6623 6.49187L17.4197 8.4771C17.4396 8.47954 17.4596 8.48195 17.4799 8.48435L17.7149 6.49821ZM14.7242 9.1163C14.7099 9.09984 14.6955 9.08336 14.681 9.06685L13.1771 10.3853C13.1901 10.4001 13.2031 10.4149 13.216 10.4298L14.7242 9.1163ZM14.504 8.8677C14.489 8.85103 14.4739 8.83433 14.4587 8.8176L12.9778 10.1618C12.9913 10.1767 13.0049 10.1917 13.0183 10.2066L14.504 8.8677ZM14.1778 8.51491C14.1617 8.498 14.1456 8.48108 14.1294 8.46416L12.6844 9.84686C12.6988 9.8619 12.7131 9.87693 12.7274 9.89195L14.1778 8.51491ZM13.0817 7.881C13.0985 7.90107 13.1153 7.9212 13.1321 7.94137L14.669 6.66159C14.6509 6.63978 14.6327 6.618 14.6144 6.59624L13.0817 7.881ZM9.07451 9.59999L8.8854 7.60895L8.88477 7.60901L9.07451 9.59999ZM11.8112 9.86104L12.3599 7.93774L12.3507 7.93516L11.8112 9.86104ZM11.9358 9.89658L12.4931 7.97577L12.4845 7.9733L11.9358 9.89658ZM12.0602 9.9332L12.6379 8.01843L12.632 8.01668L12.0602 9.9332ZM12.1847 9.97074L12.7749 8.05977L12.7623 8.05598L12.1847 9.97074ZM12.4347 10.048L13.0305 8.13876L13.0249 8.13703L12.4347 10.048ZM12.6879 10.127L12.0921 12.0362L12.0975 12.0379L12.6879 10.127ZM12.8811 10.1867L12.2907 12.0976L12.3004 12.1005L12.8811 10.1867ZM13.0119 10.2264L12.4312 12.1402L12.4423 12.1436L13.0119 10.2264ZM13.1447 10.2658L12.5751 12.183L12.582 12.1851L12.589 12.1871L13.1447 10.2658ZM13.2796 10.3048L12.7239 12.2261L12.7317 12.2283L13.2796 10.3048ZM16.7012 10.7576L16.6831 8.75766L16.6812 8.75768L16.7012 10.7576ZM19.893 10.302L20.447 12.2237L20.4548 12.2214L19.893 10.302ZM20.0211 10.2645L20.5829 12.1839L20.59 12.1819L20.597 12.1797L20.0211 10.2645ZM20.1469 10.2266L20.7229 12.1419L20.7342 12.1384L20.1469 10.2266ZM20.2707 10.1886L20.8581 12.1004L20.8666 12.0978L20.2707 10.1886ZM20.3927 10.1505L20.9887 12.0597L20.9953 12.0576L20.3927 10.1505ZM20.8094 10.0189L20.2157 8.109L20.2069 8.11177L20.8094 10.0189ZM20.9849 9.9643L20.404 8.05049L20.3912 8.05446L20.9849 9.9643ZM21.1015 9.92891L20.5271 8.01316L20.5205 8.01515L21.1015 9.92891ZM23.9172 9.62869L24.1172 7.63872L24.1158 7.63857L23.9172 9.62869ZM29.8433 12.4881L31.2061 11.0243L31.1992 11.0178L29.8433 12.4881ZM29.932 12.5706L31.3084 11.1196L31.3016 11.1132L31.2947 11.1068L29.932 12.5706ZM30.0159 12.6502L31.4052 11.2116L31.3988 11.2053L31.3923 11.1992L30.0159 12.6502ZM30.0951 12.7267L31.4966 11.2999L31.4905 11.294L31.4844 11.288L30.0951 12.7267ZM30.1695 12.7998L31.5827 11.3846L31.5769 11.3788L31.5711 11.3731L30.1695 12.7998ZM30.2392 12.8694L31.6633 11.4651L31.6578 11.4596L31.6523 11.4541L30.2392 12.8694ZM30.3039 12.935L31.7381 11.541L31.7331 11.5359L31.728 11.5308L30.3039 12.935ZM30.3638 12.9966L31.8094 11.6146L31.8037 11.6086L31.7979 11.6026L30.3638 12.9966ZM30.4442 13.0808L31.9046 11.7143L31.8973 11.7065L31.8899 11.6987L30.4442 13.0808ZM30.5532 13.1972L32.0231 11.8409L32.0136 11.8307L30.5532 13.1972ZM30.6415 13.2929L29.1716 14.6492L29.1751 14.653L30.6415 13.2929ZM22.6749 37.9864L22.507 35.9934L22.5066 35.9935L22.6749 37.9864ZM21.4607 37.9069L21.0712 39.8686L21.0836 39.871L21.4607 37.9069ZM21.3679 37.8885L20.9557 39.8455L20.967 39.8479L20.9784 39.8502L21.3679 37.8885ZM21.2745 37.8688L20.8471 39.8226L20.8547 39.8243L20.8623 39.8259L21.2745 37.8688ZM21.2275 37.8585L20.7869 39.8094L20.8002 39.8123L21.2275 37.8585ZM21.1329 37.8371L20.6773 39.7846L20.6848 39.7863L20.6923 39.788L21.1329 37.8371ZM21.0372 37.8148L20.567 39.7587L20.5743 39.7605L20.5816 39.7622L21.0372 37.8148ZM20.8914 37.7795L20.4062 39.7198L20.4137 39.7216L20.4212 39.7235L20.8914 37.7795ZM20.3257 37.6381L20.8109 35.6978L20.8016 35.6955L20.3257 37.6381ZM20.1608 37.5977L20.6366 35.6551L20.6262 35.6526L20.1608 37.5977ZM20.0478 37.5706L20.5132 35.6255L20.5026 35.623L20.0478 37.5706ZM19.9321 37.5436L20.387 35.596L20.3749 35.5932L19.9321 37.5436ZM19.8137 37.5167L20.2565 35.5663L20.2464 35.5641L19.8137 37.5167ZM19.7534 37.5034L20.1861 35.5507L20.1752 35.5483L19.7534 37.5034ZM19.6306 37.4769L20.0523 35.5218L20.0445 35.5201L20.0366 35.5185L19.6306 37.4769ZM19.5047 37.4508L19.9106 35.4924L19.9022 35.4906L19.8937 35.489L19.5047 37.4508ZM19.3754 37.4251L19.7644 35.4633L19.7555 35.4615L19.7465 35.4599L19.3754 37.4251ZM19.2427 37.4001L19.6138 35.4348L19.6045 35.4331L19.2427 37.4001ZM13.9502 37.3406L13.6382 35.3651L13.6279 35.3668L13.9502 37.3406ZM13.8082 37.3638L13.486 35.3899L13.4758 35.3916L13.8082 37.3638ZM13.6024 37.4001L13.2406 35.4331L13.2313 35.4348L13.6024 37.4001ZM13.4697 37.4251L13.0986 35.4599L13.0896 35.4616L13.0806 35.4633L13.4697 37.4251ZM13.3404 37.4508L12.9513 35.489L12.9427 35.4907L13.3404 37.4508ZM13.2145 37.4769L12.8004 35.5202L12.7928 35.5218L13.2145 37.4769ZM13.0916 37.5034L12.6699 35.5483L12.6627 35.5499L12.6555 35.5515L13.0916 37.5034ZM12.9718 37.5302L12.5357 35.5783L12.5258 35.5805L12.9718 37.5302ZM12.9129 37.5436L12.4669 35.5939L12.4554 35.5967L12.9129 37.5436ZM12.7405 37.5841L12.2829 35.6372L12.2705 35.6402L12.7405 37.5841ZM12.6287 37.6112L12.1587 35.6672L12.1495 35.6694L12.6287 37.6112ZM12.4655 37.6515L11.9863 35.7097L11.9793 35.7114L12.4655 37.6515ZM12.0029 37.7674L12.4776 39.7102L12.4891 39.7074L12.0029 37.7674ZM11.8561 37.8032L12.3181 39.7492L12.3308 39.7461L11.8561 37.8032ZM11.7598 37.8261L12.2083 39.7752L12.2218 39.772L11.7598 37.8261ZM11.6647 37.848L12.0965 39.8008L12.1048 39.799L12.1131 39.7971L11.6647 37.848ZM11.5705 37.8688L11.9827 39.8259L11.9925 39.8238L12.0023 39.8216L11.5705 37.8688ZM11.4771 37.8885L11.8665 39.8502L11.8779 39.8479L11.8893 39.8456L11.4771 37.8885ZM11.3843 37.9069L11.7614 39.8711L11.7738 39.8686L11.3843 37.9069ZM11.2921 37.924L11.6267 39.8958L11.6342 39.8945L11.6417 39.8932L11.2921 37.924ZM11.2002 37.9396L11.5194 39.9139L11.5271 39.9127L11.5349 39.9114L11.2002 37.9396ZM10.2191 37.9902L10.0635 39.9842L10.0762 39.9851L10.2191 37.9902ZM10.17 37.9864L10.0026 39.9794L10.0143 39.9803L10.17 37.9864ZM2.19806 13.2929L3.60537 14.7139L3.61254 14.7068L3.61964 14.6997L2.19806 13.2929ZM2.23606 13.2545L3.65764 14.6613L3.6655 14.6533L3.67326 14.6453L2.23606 13.2545ZM2.42492 13.0593L0.999325 11.6566L0.993499 11.6625L0.987723 11.6685L2.42492 13.0593ZM2.50335 12.9796L1.0884 11.5661L1.08305 11.5715L1.07775 11.5769L2.50335 12.9796ZM2.58433 12.8985L1.18136 11.4732L1.17534 11.4791L1.16938 11.4851L2.58433 12.8985ZM2.67351 12.8108L1.28158 11.3746L1.27604 11.38L1.27054 11.3854L2.67351 12.8108ZM2.73747 12.7488L1.3551 11.3034L1.34554 11.3126L2.73747 12.7488ZM2.805 12.6842L1.43277 11.2291L1.42266 11.2388L2.805 12.6842ZM2.87607 12.6172L1.51461 11.1521L1.50922 11.1571L1.50388 11.1621L2.87607 12.6172ZM2.95066 12.5479L1.60047 11.0724L1.59481 11.0776L1.58919 11.0828L2.95066 12.5479ZM3.02873 12.4764L1.69035 10.9902L1.68442 10.9956L1.67854 11.0009L3.02873 12.4764ZM3.11026 12.403L1.78101 10.9086L1.77187 10.9168L3.11026 12.403ZM3.15231 12.3656L1.83262 10.8627L1.82309 10.8712L3.15231 12.3656ZM3.23897 12.2895L1.93248 10.7752L1.92587 10.7809L1.91931 10.7867L3.23897 12.2895ZM3.32901 12.2118L2.03272 10.6887L2.02253 10.6975L3.32901 12.2118ZM3.37529 12.1724L2.08958 10.6404L2.07904 10.6493L3.37529 12.1724ZM3.47036 12.0926L2.19184 10.5546L2.18468 10.5606L3.47036 12.0926ZM20.3893 1.00552L21.4488 2.70183L21.4518 2.69998L20.3893 1.00552ZM28.2527 0.39795L28.6697 -1.55812L28.6621 -1.55971L28.2527 0.39795ZM28.4032 0.430023L28.8314 -1.52362L28.8201 -1.52603L28.4032 0.430023ZM28.4752 0.445808L28.9143 -1.50543L28.9034 -1.5078L28.4752 0.445808ZM28.6125 0.476707L29.0623 -1.47209L29.0516 -1.4745L28.6125 0.476707ZM28.6777 0.491755L29.1377 -1.45466L29.1275 -1.45702L28.6777 0.491755ZM28.801 0.520884L29.2742 -1.42237L29.2609 -1.4255L28.801 0.520884ZM28.9144 0.5485L29.4033 -1.3908L29.3955 -1.39279L29.3876 -1.3947L28.9144 0.5485ZM29.0651 0.586507L29.5722 -1.34814L29.5631 -1.35051L29.5541 -1.3528L29.0651 0.586507ZM29.1914 0.619618L29.7131 -1.31115L29.7058 -1.31312L29.6985 -1.31503L29.1914 0.619618ZM29.2614 0.63853L29.7989 -1.2879L29.791 -1.2901L29.7831 -1.29224L29.2614 0.63853ZM29.3655 0.667569L29.9251 -1.25254L29.9141 -1.25576L29.903 -1.25886L29.3655 0.667569ZM29.4259 0.685186L31.2308 1.54685L32.2445 -0.576523L29.9856 -1.23492L29.4259 0.685186ZM29.3827 0.775846L31.1751 1.66301L31.1814 1.65031L31.1875 1.63751L29.3827 0.775846ZM29.3358 0.870451L31.1193 1.77552L31.1239 1.76659L31.1283 1.75762L29.3358 0.870451ZM29.2897 0.961404L31.0648 1.88272L31.069 1.87461L31.0732 1.86647L29.2897 0.961404ZM29.2341 1.06846L31.002 2.0037L31.0056 1.99675L31.0093 1.98978L29.2341 1.06846ZM29.1919 1.14833L30.9536 2.09506L30.9597 2.08356L29.1919 1.14833ZM29.1455 1.23465L30.9009 2.19314L30.9072 2.18137L29.1455 1.23465ZM29.095 1.32718L30.8437 2.29784L30.8503 2.28564L29.095 1.32718ZM29.0403 1.42561L30.782 2.4087L30.7855 2.40249L30.789 2.39625L29.0403 1.42561ZM28.9816 1.52969L30.7161 2.52544L30.7197 2.51912L30.7233 2.51278L28.9816 1.52969ZM28.9187 1.63913L30.6476 2.64463L30.6532 2.63488L28.9187 1.63913ZM28.8858 1.69577L30.6088 2.71128L30.6147 2.70126L28.8858 1.69577ZM28.8169 1.81274L30.5318 2.84176L30.5359 2.83501L30.5399 2.82823L28.8169 1.81274ZM28.7439 1.93437L30.4547 2.97026L30.4588 2.9634L28.7439 1.93437ZM24.355 6.64084L23.2943 4.94523L23.2933 4.94588L24.355 6.64084ZM18.7006 7.84267L18.585 9.83935L18.5944 9.83985L18.7006 7.84267ZM18.5625 7.83467L18.4328 9.83051L18.4469 9.83132L18.5625 7.83467ZM18.4946 7.83026L18.3512 9.82516L18.3649 9.82604L18.4946 7.83026ZM18.3611 7.82066L18.2087 9.81487L18.2178 9.81552L18.3611 7.82066ZM18.2309 7.81013L18.0525 9.80217L18.061 9.8029L18.2309 7.81013ZM18.1041 7.79877L17.9171 9.79003L17.9256 9.79079L18.1041 7.79877ZM17.9807 7.78668L18.1842 5.79705L17.6301 9.75569L17.9807 7.78668ZM18.6139 7.89943L18.3137 9.87678L19.3591 6.04347L18.6139 7.89943ZM17.5974 7.49128L18.3427 5.63531L18.098 5.53707L17.8363 5.50559L17.5974 7.49128ZM17.541 7.48449L17.2909 9.46883L17.3021 9.47018L17.541 7.48449ZM17.4311 7.47064L17.1664 9.45305L17.1737 9.45403L17.181 9.45495L17.4311 7.47064ZM17.3254 7.45653L17.0465 9.43698L17.0536 9.43798L17.0607 9.43893L17.3254 7.45653ZM17.224 7.44224L16.9312 9.42075L16.945 9.4227L17.224 7.44224ZM17.127 7.4279L17.4198 5.44944L16.5224 9.33433L17.127 7.4279ZM17.0948 7.66884L16.763 9.64113L16.7788 9.64378L16.7946 9.64619L17.0948 7.66884ZM17.012 7.65491L17.3437 5.68262L16.1583 5.4832L15.4259 6.43649L17.012 7.65491ZM15.5974 9.49622L14.0114 8.2778L13.1023 9.46124L13.9779 10.6697L15.5974 9.49622ZM15.9929 10.0387L14.3795 11.2206L14.3807 11.2222L15.9929 10.0387ZM16.3884 10.5773L16.3504 12.577L20.3938 12.6537L18.0006 9.39378L16.3884 10.5773ZM14.4715 10.3718L12.9184 11.6318L13.3705 12.1891L14.0737 12.3318L14.4715 10.3718ZM14.3981 10.2813L15.9513 9.02127L15.943 9.0111L14.3981 10.2813ZM14.2855 10.1444L15.8304 8.87415L15.8216 8.86353L14.2855 10.1444ZM14.2088 10.0524L15.7448 8.77147L15.7373 8.76257L14.2088 10.0524ZM14.1307 9.95976L15.6592 8.66994L15.6513 8.66071L14.1307 9.95976ZM14.0511 9.86664L15.5718 8.56756L15.5636 8.55804L14.0511 9.86664ZM13.9701 9.77303L15.4826 8.46441L15.4762 8.4571L13.9701 9.77303ZM13.9291 9.72605L15.4352 8.41011L15.4285 8.40259L13.9291 9.72605ZM13.8459 9.63179L15.3454 8.30829L15.3363 8.29809L13.8459 9.63179ZM13.7612 9.53715L15.2516 8.20343L15.2445 8.19562L13.7612 9.53715ZM13.7183 9.48969L15.2016 8.14814L15.1943 8.14014L13.7183 9.48969ZM13.6313 9.39455L15.1073 8.045L15.1023 8.03956L15.0973 8.03416L13.6313 9.39455ZM13.5427 9.29911L15.0088 7.93872L15.0036 7.93317L14.9984 7.92766L13.5427 9.29911ZM13.4526 9.20343L14.9083 7.83196L14.9003 7.82356L13.4526 9.20343ZM13.4069 9.15551L14.8547 7.77561L14.8464 7.76708L13.4069 9.15551ZM13.3143 9.05954L14.7539 7.67109L14.7483 7.66537L13.3143 9.05954ZM13.1724 8.91531L14.5891 7.5036L14.5831 7.49766L13.1724 8.91531ZM13.0756 8.81904L14.4864 7.40138L14.4804 7.39546L13.0756 8.81904ZM12.6713 8.43387L14.0248 6.96141L14.018 6.95519L12.6713 8.43387ZM12.5658 8.33775L13.9125 6.85905L13.9056 6.85283L12.5658 8.33775ZM12.0678 7.90764L13.3416 6.36574L13.3338 6.35938L12.0678 7.90764ZM11.9518 7.81283L13.2179 6.26456L13.2101 6.2582L11.9518 7.81283ZM8.77466 5.8513L9.60422 4.03144L9.59879 4.02899L8.77466 5.8513ZM8.69056 5.81326L6.90595 4.91038L5.96277 6.77465L7.86643 7.63557L8.69056 5.81326ZM9.70466 3.80879L10.5452 1.99399L8.79219 1.18207L7.92006 2.90592L9.70466 3.80879ZM13.4217 6.7442L14.9217 5.42129L14.9164 5.41541L13.4217 6.7442ZM13.5294 6.8663L15.0394 5.55487L15.0344 5.54912L15.0293 5.5434L13.5294 6.8663ZM13.6363 6.98944L15.1558 5.68902L15.1511 5.6835L15.1463 5.67801L13.6363 6.98944ZM13.7425 7.11356L15.271 5.82367L15.262 5.81315L13.7425 7.11356ZM13.8481 7.23862L15.3829 5.95634L15.3765 5.94875L13.8481 7.23862ZM13.9006 7.30148L15.4415 6.02651L15.4354 6.01922L13.9006 7.30148ZM14.0051 7.42785L15.5538 6.16223L15.5461 6.15289L14.0051 7.42785ZM14.1091 7.55502L15.6649 6.29827L15.6577 6.28943L14.1091 7.55502ZM14.2124 7.68296L15.775 6.43459L15.7682 6.42623L14.2124 7.68296ZM14.3152 7.81162L15.8841 6.57114L15.8778 6.56326L14.3152 7.81162ZM14.4174 7.94093L15.9921 6.70785L15.9863 6.70047L14.4174 7.94093ZM14.5192 8.07086L16.0992 6.84469L16.0938 6.83779L14.5192 8.07086ZM14.6204 8.20134L16.2055 6.98159L16.2005 6.97519L14.6204 8.20134ZM14.7213 8.33235L16.3108 7.11853L16.3063 7.1126L14.7213 8.33235ZM14.8216 8.46381L16.4153 7.2554L16.4112 7.25L14.8216 8.46381ZM14.9216 8.59569L16.5199 7.39335L16.5153 7.38729L14.9216 8.59569ZM15.071 8.79418L16.6725 7.59618L16.6692 7.59184L15.071 8.79418ZM15.1206 8.86049L13.5191 10.0585L15.1007 12.1728L16.7076 10.0777L15.1206 8.86049ZM16.5404 7.00919L18.1274 8.22635L18.3861 7.88904L18.4853 7.47568L16.5404 7.00919ZM16.5589 6.93231L14.6173 6.45244L14.6141 6.46582L16.5589 6.93231ZM16.579 6.85104L14.6418 6.35379L14.6395 6.36248L14.6374 6.37119L16.579 6.85104ZM16.6123 6.72129L14.6798 6.20612L14.6774 6.21507L14.6751 6.22404L16.6123 6.72129ZM16.6367 6.62979L14.7082 6.09972L14.7061 6.10716L14.7042 6.11462L16.6367 6.62979ZM16.6629 6.53447L14.7387 5.98907L14.7365 5.99673L14.7344 6.00441L16.6629 6.53447ZM16.6909 6.43552L14.7713 5.87428L14.769 5.88219L14.7667 5.89011L16.6909 6.43552ZM16.7209 6.33308L14.8036 5.76385L14.8012 5.77184L16.7209 6.33308ZM16.7528 6.22732L14.843 5.63314L14.8404 5.64162L16.7528 6.22732ZM16.7866 6.11841L14.8824 5.50706L14.8796 5.51564L14.8769 5.52423L16.7866 6.11841ZM16.8226 6.0065L14.9211 5.38644L14.9183 5.39516L16.8226 6.0065ZM16.8606 5.89177L14.9681 5.24466L14.9651 5.25384L16.8606 5.89177ZM16.9007 5.77438L15.0115 5.11806L15.0083 5.12727L16.9007 5.77438ZM17.1617 5.08843L15.3189 4.31104L15.3144 4.32194L17.1617 5.08843ZM17.2169 4.95771L15.3787 4.16944L15.3741 4.18034L17.2169 4.95771ZM9.26361 11.591C10.0849 11.513 10.6484 11.6123 11.2718 11.7869L12.3507 7.93516C11.3936 7.66709 10.3226 7.47245 8.8854 7.60895L9.26361 11.591ZM11.2626 11.7843L11.3872 11.8199L12.4845 7.9733L12.3599 7.93776L11.2626 11.7843ZM11.3785 11.8174C11.4146 11.8278 11.4512 11.8386 11.4884 11.8497L12.632 8.01668C12.5863 8.00304 12.54 7.98939 12.4931 7.97579L11.3785 11.8174ZM11.4826 11.848L11.607 11.8855L12.7623 8.05598L12.6379 8.01844L11.4826 11.848ZM11.5944 11.8817L11.8445 11.9589L13.0249 8.13703L12.7749 8.05981L11.5944 11.8817ZM11.8389 11.9572L12.0921 12.0362L13.2837 8.21779L13.0305 8.13877L11.8389 11.9572ZM12.0975 12.0379L12.2908 12.0976L13.4715 8.27579L13.2782 8.2161L12.0975 12.0379ZM12.3004 12.1005L12.4312 12.1402L13.5927 8.31254L13.4618 8.27284L12.3004 12.1005ZM12.4423 12.1436L12.5751 12.183L13.7143 8.34864L13.5815 8.3092L12.4423 12.1436ZM12.589 12.1871L12.7239 12.2261L13.8353 8.3836L13.7004 8.34457L12.589 12.1871ZM12.7317 12.2283C13.76 12.5212 14.9917 12.7747 16.7211 12.7575L16.6812 8.75768C15.4125 8.77034 14.5685 8.59242 13.8275 8.38136L12.7317 12.2283ZM16.7193 12.7575C18.3367 12.7429 19.4889 12.4999 20.447 12.2237L19.339 8.38023C18.6591 8.57622 17.8712 8.74691 16.6831 8.75766L16.7193 12.7575ZM20.4548 12.2214L20.5829 12.1839L19.4592 8.34502L19.3311 8.38251L20.4548 12.2214ZM20.597 12.1797L20.7229 12.1419L19.5709 8.31137L19.4451 8.3492L20.597 12.1797ZM20.7342 12.1384L20.858 12.1004L19.6834 8.27679L19.5595 8.31482L20.7342 12.1384ZM20.8666 12.0978L20.9887 12.0597L19.7968 8.24135L19.6748 8.27944L20.8666 12.0978ZM20.9953 12.0576L21.412 11.9259L20.2069 8.11177L19.7902 8.24343L20.9953 12.0576ZM21.4032 11.9287L21.5787 11.8741L20.3912 8.05446L20.2157 8.10902L21.4032 11.9287ZM21.5659 11.8781L21.6824 11.8427L20.5205 8.01515L20.404 8.05053L21.5659 11.8781ZM21.6759 11.8447C22.3376 11.6463 22.8747 11.5346 23.7186 11.6188L24.1158 7.63857C22.583 7.48565 21.4964 7.72254 20.5271 8.01317L21.6759 11.8447ZM23.7172 11.6187C25.8252 11.8305 27.5227 13.0687 28.4875 13.9584L31.1992 11.0178C29.9813 9.89479 27.4935 7.97806 24.1172 7.63872L23.7172 11.6187ZM28.4805 13.9519L28.5692 14.0344L31.2947 11.1068L31.2061 11.0243L28.4805 13.9519ZM28.5555 14.0216L28.6395 14.1013L31.3923 11.1992L31.3084 11.1196L28.5555 14.0216ZM28.6266 14.0889L28.7058 14.1654L31.4844 11.288L31.4052 11.2116L28.6266 14.0889ZM28.6936 14.1535L28.768 14.2266L31.5711 11.3731L31.4966 11.2999L28.6936 14.1535ZM28.7564 14.2151L28.826 14.2846L31.6523 11.4541L31.5827 11.3846L28.7564 14.2151ZM28.8151 14.2736L28.8798 14.3393L31.728 11.5308L31.6633 11.4651L28.8151 14.2736ZM28.8698 14.329L28.9296 14.3906L31.7979 11.6026L31.7381 11.541L28.8698 14.329ZM28.9181 14.3787L28.9986 14.4628L31.8899 11.6987L31.8094 11.6146L28.9181 14.3787ZM28.9839 14.4473L29.0928 14.5637L32.0136 11.8307L31.9046 11.7143L28.9839 14.4473ZM29.0833 14.5535L29.1716 14.6492L32.1114 11.9367L32.0231 11.841L29.0833 14.5535ZM29.1751 14.653C30.3256 15.8934 30.9422 17.7237 30.9962 20.011C31.05 22.2915 30.5348 24.8551 29.6176 27.2995C28.7006 29.7432 27.423 31.9576 26.0508 33.5568C24.6204 35.2238 23.3535 35.9221 22.507 35.9934L22.8428 39.9793C25.2621 39.7755 27.4181 38.1059 29.0864 36.1616C30.813 34.1495 32.3102 31.5094 33.3626 28.7048C34.4147 25.9008 35.0637 22.8224 34.995 19.9166C34.9266 17.0177 34.1342 14.1176 32.1079 11.9329L29.1751 14.653ZM22.5066 35.9935C22.3135 36.0098 22.1183 35.9966 21.8377 35.9428L21.0836 39.871C21.6043 39.971 22.1819 40.0351 22.8432 39.9793L22.5066 35.9935ZM21.8501 35.9452L21.7574 35.9268L20.9784 39.8502L21.0712 39.8686L21.8501 35.9452ZM21.7802 35.9314L21.6868 35.9118L20.8623 39.8259L20.9557 39.8455L21.7802 35.9314ZM21.6681 35.9077L21.5735 35.8863L20.6923 39.788L20.7869 39.8094L21.6681 35.9077ZM21.5885 35.8897L21.4928 35.8673L20.5816 39.7622L20.6773 39.7846L21.5885 35.8897ZM21.5073 35.8708L21.3615 35.8355L20.4212 39.7235L20.567 39.7587L21.5073 35.8708ZM21.3765 35.8392L20.8109 35.6978L19.8406 39.5783L20.4062 39.7198L21.3765 35.8392ZM20.8016 35.6955L20.6366 35.6551L19.6849 39.5402L19.8499 39.5806L20.8016 35.6955ZM20.6262 35.6526L20.5131 35.6255L19.5824 39.5157L19.6954 39.5427L20.6262 35.6526ZM20.5026 35.623L20.387 35.596L19.4772 39.4912L19.5929 39.5182L20.5026 35.623ZM20.3749 35.5932L20.2565 35.5664L19.3709 39.4671L19.4893 39.494L20.3749 35.5932ZM20.1752 35.5483L20.0523 35.5218L19.2089 39.4319L19.3317 39.4584L20.1752 35.5483ZM20.0366 35.5185L19.9106 35.4924L19.0987 39.4091L19.2246 39.4352L20.0366 35.5185ZM19.8937 35.489L19.7644 35.4633L18.9864 39.3869L19.1156 39.4126L19.8937 35.489ZM19.7465 35.4599L19.6138 35.4348L18.8716 39.3653L19.0043 39.3904L19.7465 35.4599ZM19.6045 35.4331C18.7505 35.276 17.7269 35.1588 16.4225 35.1588V39.1588C17.4743 39.1588 18.2558 39.2521 18.8809 39.3671L19.6045 35.4331ZM16.4225 35.1588C15.3179 35.1588 14.4124 35.2429 13.6382 35.3651L14.2621 39.3162C14.8311 39.2263 15.528 39.1588 16.4225 39.1588V35.1588ZM13.6279 35.3668L13.486 35.3899L14.1304 39.3377L14.2724 39.3145L13.6279 35.3668ZM13.4758 35.3916C13.3957 35.4051 13.3173 35.419 13.2406 35.4331L13.9642 39.3671C14.0219 39.3565 14.0807 39.3461 14.1406 39.336L13.4758 35.3916ZM13.2313 35.4348L13.0986 35.4599L13.8408 39.3904L13.9734 39.3654L13.2313 35.4348ZM13.0806 35.4633L12.9513 35.489L13.7295 39.4126L13.8588 39.3869L13.0806 35.4633ZM12.9427 35.4907C12.8945 35.5005 12.8471 35.5103 12.8004 35.5202L13.6285 39.4335C13.6647 39.4259 13.7013 39.4183 13.7382 39.4108L12.9427 35.4907ZM12.7928 35.5218L12.6699 35.5483L13.5133 39.4584L13.6362 39.4319L12.7928 35.5218ZM12.6555 35.5515L12.5357 35.5783L13.4079 39.482L13.5277 39.4553L12.6555 35.5515ZM12.4554 35.5967L12.2829 35.6372L13.198 39.5311L13.3705 39.4906L12.4554 35.5967ZM12.2705 35.6402L12.1587 35.6672L13.0987 39.5552L13.2105 39.5281L12.2705 35.6402ZM12.1495 35.6694L11.9863 35.7097L12.9447 39.5932L13.1079 39.5529L12.1495 35.6694ZM11.9793 35.7114L11.5168 35.8273L12.4891 39.7074L12.9516 39.5915L11.9793 35.7114ZM11.5282 35.8245L11.3814 35.8604L12.3308 39.7461L12.4776 39.7102L11.5282 35.8245ZM11.3941 35.8573L11.2978 35.8802L12.2218 39.772L12.3181 39.7491L11.3941 35.8573ZM11.3114 35.877L11.2162 35.8989L12.1131 39.7971L12.2083 39.7752L11.3114 35.877ZM11.2328 35.8952L11.1386 35.916L12.0023 39.8216L12.0965 39.8008L11.2328 35.8952ZM11.1582 35.9118L11.0648 35.9314L11.8893 39.8456L11.9827 39.8259L11.1582 35.9118ZM11.0876 35.9268L10.9949 35.9452L11.7738 39.8686L11.8665 39.8502L11.0876 35.9268ZM11.0073 35.9428C10.985 35.947 10.9635 35.951 10.9424 35.9548L11.6417 39.8932C11.6821 39.886 11.7219 39.8786 11.7614 39.871L11.0073 35.9428ZM10.9574 35.9522L10.8655 35.9678L11.5349 39.9114L11.6267 39.8958L10.9574 35.9522ZM10.881 35.9652C10.6777 35.9981 10.5187 36.0065 10.3621 35.9953L10.0762 39.9851C10.6047 40.023 11.0804 39.9849 11.5194 39.9139L10.881 35.9652ZM10.3748 35.9963L10.3257 35.9924L10.0143 39.9803L10.0635 39.9841L10.3748 35.9963ZM10.3374 35.9934C9.48 35.9214 8.22294 35.2 6.81103 33.4551C5.45825 31.7832 4.21808 29.4758 3.33177 26.9592C2.44521 24.4419 1.95463 21.8343 2.00331 19.5852C2.05275 17.3009 2.64548 15.6645 3.60537 14.7139L0.790752 11.8718C-1.20561 13.8488 -1.93501 16.6923 -1.99575 19.4987C-2.05726 22.3403 -1.44608 25.4343 -0.441089 28.2879C0.564141 31.1422 2.0053 33.8749 3.70148 35.9712C5.33851 37.9943 7.49802 39.769 10.0026 39.9793L10.3374 35.9934ZM3.61964 14.6997L3.65764 14.6613L0.814486 11.8477L0.776485 11.8861L3.61964 14.6997ZM3.67326 14.6453L3.86212 14.4502L0.987723 11.6685L0.798867 11.8636L3.67326 14.6453ZM3.85051 14.4621L3.92894 14.3823L1.07775 11.5769L0.999325 11.6566L3.85051 14.4621ZM3.9183 14.3931L3.99928 14.312L1.16938 11.4851L1.0884 11.5661L3.9183 14.3931ZM3.9873 14.3239L4.07648 14.2361L1.27054 11.3854L1.18136 11.4732L3.9873 14.3239ZM4.06544 14.2469L4.1294 14.1849L1.34554 11.3126L1.28158 11.3746L4.06544 14.2469ZM4.11981 14.1942L4.18734 14.1296L1.42266 11.2388L1.35513 11.3034L4.11981 14.1942ZM4.17719 14.1392L4.24826 14.0722L1.50388 11.1621L1.43281 11.2292L4.17719 14.1392ZM4.23753 14.0822L4.31212 14.0129L1.58919 11.0828L1.51461 11.1521L4.23753 14.0822ZM4.30085 14.0233L4.37892 13.9519L1.67854 11.0009L1.60047 11.0724L4.30085 14.0233ZM4.36711 13.9626L4.44864 13.8892L1.77187 10.9168L1.69035 10.9902L4.36711 13.9626ZM4.47197 13.8684L4.55862 13.7923L1.91931 10.7867L1.83265 10.8628L4.47197 13.8684ZM4.54545 13.8038L4.6355 13.7261L2.02253 10.6975L1.93248 10.7752L4.54545 13.8038ZM4.66097 13.7044L4.75604 13.6246L2.18468 10.5606L2.08962 10.6404L4.66097 13.7044ZM4.74887 13.6306C5.79332 12.7624 7.36905 11.7716 9.26425 11.591L8.88477 7.60901C5.85537 7.89771 3.53336 9.43946 2.19185 10.5546L4.74887 13.6306ZM21.4518 2.69998C22.184 2.24089 23.258 2.01416 24.532 2.00064C25.773 1.98748 26.9934 2.17788 27.8434 2.35561L28.6621 -1.55971C27.6559 -1.7701 26.1257 -2.01649 24.4896 -1.99913C22.8864 -1.98212 20.9569 -1.711 19.3269 -0.688927L21.4518 2.69998ZM27.8358 2.35401L27.9862 2.38608L28.8201 -1.52603L28.6696 -1.55811L27.8358 2.35401ZM28.0361 2.39701L28.1734 2.42791L29.0516 -1.4745L28.9143 -1.5054L28.0361 2.39701ZM28.2177 2.43814L28.341 2.46727L29.2609 -1.4255L29.1377 -1.45463L28.2177 2.43814ZM28.3277 2.46409L28.4411 2.4917L29.3876 -1.3947L29.2742 -1.42232L28.3277 2.46409ZM28.4254 2.4878L28.5761 2.52581L29.5541 -1.3528L29.4033 -1.3908L28.4254 2.4878ZM28.558 2.52115L28.6843 2.55426L29.6985 -1.31503L29.5722 -1.34814L28.558 2.52115ZM28.6698 2.55039L28.7398 2.5693L29.7831 -1.29224L29.7131 -1.31115L28.6698 2.55039ZM28.7239 2.56496L28.828 2.594L29.903 -1.25886L29.7989 -1.2879L28.7239 2.56496ZM28.8059 2.58768L28.8663 2.60529L29.9856 -1.23492L29.9251 -1.25254L28.8059 2.58768ZM27.6211 -0.176483L27.5778 -0.0858224L31.1875 1.63751L31.2308 1.54685L27.6211 -0.176483ZM27.5902 -0.111319L27.5434 -0.0167141L31.1283 1.75762L31.1751 1.66301L27.5902 -0.111319ZM27.5523 -0.0346169L27.5062 0.0563366L31.0732 1.86647L31.1193 1.77552L27.5523 -0.0346169ZM27.5145 0.0400918L27.459 0.147152L31.0093 1.98978L31.0648 1.88272L27.5145 0.0400918ZM27.4662 0.133231L27.424 0.213093L30.9597 2.08356L31.002 2.0037L27.4662 0.133231ZM27.4301 0.201607L27.3837 0.287936L30.9072 2.18137L30.9536 2.09504L27.4301 0.201607ZM27.3901 0.276187L27.3396 0.368708L30.8503 2.28564L30.9008 2.19312L27.3901 0.276187ZM27.3463 0.356534L27.2916 0.454971L30.789 2.39625L30.8436 2.29782L27.3463 0.356534ZM27.2986 0.442523L27.2399 0.546598L30.7233 2.51278L30.782 2.4087L27.2986 0.442523ZM27.2471 0.533935L27.1842 0.643374L30.6532 2.63488L30.7161 2.52544L27.2471 0.533935ZM27.1628 0.680281L27.0938 0.797247L30.5399 2.82823L30.6088 2.71126L27.1628 0.680281ZM27.1019 0.783712L27.0289 0.90535L30.4588 2.9634L30.5318 2.84176L27.1019 0.783712ZM27.033 0.898502C26.2925 2.12149 25.0004 3.87806 23.2943 4.94523L25.4156 8.33645C27.9088 6.7769 29.595 4.39007 30.4547 2.97025L27.033 0.898502ZM23.2933 4.94588C22.005 5.7528 20.2836 5.92402 18.8068 5.84549L18.5944 9.83985C20.374 9.93447 23.0913 9.79227 25.4166 8.33581L23.2933 4.94588ZM18.8163 5.84602L18.6782 5.83802L18.4469 9.83132L18.585 9.83932L18.8163 5.84602ZM18.638 5.8354L18.5045 5.82581L18.2178 9.81552L18.3512 9.82511L18.638 5.8354ZM18.5136 5.82648C18.4755 5.82357 18.4379 5.82053 18.4008 5.81737L18.061 9.8029C18.1096 9.80705 18.1588 9.81103 18.2087 9.81485L18.5136 5.82648ZM18.4094 5.81811L18.2825 5.80675L17.9256 9.79079L18.0525 9.80216L18.4094 5.81811ZM18.291 5.80753C18.2549 5.80413 18.2193 5.80064 18.1842 5.79705L17.7773 9.7763C17.8232 9.781 17.8698 9.78557 17.9171 9.79001L18.291 5.80753ZM17.6301 9.75569L18.2632 9.86845L18.9645 5.93041L18.3314 5.81766L17.6301 9.75569ZM19.3591 6.04347L18.3427 5.63531L16.8522 9.34724L17.8686 9.75539L19.3591 6.04347ZM17.791 5.50018L17.6812 5.48634L17.181 9.45495L17.2909 9.4688L17.791 5.50018ZM17.6958 5.48824L17.5901 5.47412L17.0607 9.43893L17.1664 9.45305L17.6958 5.48824ZM17.6043 5.47607L17.5029 5.46179L16.945 9.4227L17.0465 9.43698L17.6043 5.47607ZM17.5167 5.46378L17.4198 5.44944L16.8343 9.40636L16.9312 9.4207L17.5167 5.46378ZM16.5224 9.33433L18.0093 9.80586L19.2185 5.993L17.7316 5.52147L16.5224 9.33433ZM18.914 5.92208L17.3949 5.69149L16.7946 9.64619L18.3137 9.87678L18.914 5.92208ZM17.4266 5.69655L17.3437 5.68262L16.6802 9.6272L16.763 9.64113L17.4266 5.69655ZM15.4259 6.43649L14.0114 8.2778L17.1834 10.7146L18.598 8.87333L15.4259 6.43649ZM13.9779 10.6697C14.1124 10.8553 14.2464 11.0389 14.3795 11.2206L17.6063 8.85671C17.4757 8.67842 17.346 8.50082 17.217 8.32273L13.9779 10.6697ZM14.3807 11.2222L14.7762 11.7609L18.0006 9.39378L17.6051 8.85509L14.3807 11.2222ZM16.4263 8.5777C15.7994 8.5658 15.3013 8.49943 14.8693 8.41175L14.0737 12.3318C14.7269 12.4644 15.4661 12.5602 16.3504 12.577L16.4263 8.5777ZM16.0247 9.11176L15.9513 9.02129L12.845 11.5414L12.9184 11.6318L16.0247 9.11176ZM15.943 9.0111L15.8304 8.87418L12.7407 11.4146L12.8533 11.5516L15.943 9.0111ZM15.8216 8.86353L15.7448 8.77149L12.6728 11.3332L12.7495 11.4253L15.8216 8.86353ZM15.7373 8.76257L15.6592 8.66996L12.6021 11.2496L12.6803 11.3422L15.7373 8.76257ZM15.6513 8.66071L15.5718 8.56758L12.5304 11.1657L12.61 11.2588L15.6513 8.66071ZM15.5636 8.55804L15.4826 8.46443L12.4576 11.0816L12.5386 11.1752L15.5636 8.55804ZM15.4285 8.40259L15.3453 8.30833L12.3464 10.9553L12.4296 11.0495L15.4285 8.40259ZM15.3363 8.29809L15.2516 8.20345L12.2708 10.8708L12.3555 10.9655L15.3363 8.29809ZM15.1943 8.14014L15.1073 8.045L12.1552 10.7441L12.2422 10.8392L15.1943 8.14014ZM15.0973 8.03416L15.0088 7.93872L12.0766 10.6595L12.1652 10.7549L15.0973 8.03416ZM14.9984 7.92766L14.9083 7.83198L11.9968 10.5749L12.087 10.6706L14.9984 7.92766ZM14.8464 7.76708L14.7539 7.6711L11.8748 10.448L11.9674 10.5439L14.8464 7.76708ZM14.7483 7.66537C14.696 7.61157 14.6429 7.55764 14.5891 7.50361L11.7556 10.327C11.7977 10.3692 11.8393 10.4115 11.8803 10.4537L14.7483 7.66537ZM14.5831 7.49766L14.4864 7.40139L11.6649 10.2367L11.7616 10.333L14.5831 7.49766ZM14.4804 7.39546C14.3341 7.25111 14.1824 7.10625 14.0248 6.96143L11.3178 9.90632C11.4393 10.018 11.5569 10.1302 11.6709 10.2426L14.4804 7.39546ZM14.018 6.95519L13.9124 6.85907L11.2191 9.81644L11.3247 9.91256L14.018 6.95519ZM13.9056 6.85283C13.725 6.68996 13.5372 6.52736 13.3416 6.36576L10.7939 9.44951C10.9432 9.57285 11.0871 9.69739 11.226 9.82268L13.9056 6.85283ZM13.3338 6.35938L13.2179 6.26457L10.6858 9.36108L10.8017 9.45589L13.3338 6.35938ZM13.2101 6.2582C12.2126 5.45091 11.0266 4.6798 9.60422 4.03145L7.94511 7.67114C9.03654 8.16866 9.93718 8.75525 10.6936 9.36746L13.2101 6.2582ZM9.59879 4.02899L9.51469 3.99095L7.86643 7.63557L7.95053 7.67361L9.59879 4.02899ZM10.4752 6.71613L11.4893 4.71166L7.92006 2.90592L6.90595 4.91038L10.4752 6.71613ZM8.86412 5.62359C9.95951 6.13092 10.943 6.96622 11.9269 8.07299L14.9164 5.41541C13.7389 4.09084 12.3289 2.82015 10.5452 1.99399L8.86412 5.62359ZM11.9217 8.0671L12.0294 8.1892L15.0293 5.5434L14.9217 5.4213L11.9217 8.0671ZM12.0193 8.17773L12.1263 8.30087L15.1463 5.67801L15.0394 5.55487L12.0193 8.17773ZM12.1168 8.28985L12.223 8.41397L15.262 5.81315L15.1558 5.68902L12.1168 8.28985ZM12.214 8.40342L12.3196 8.52848L15.3765 5.94875L15.271 5.8237L12.214 8.40342ZM12.3596 8.57643L12.4642 8.7028L15.5461 6.15289L15.4415 6.02652L12.3596 8.57643ZM12.4565 8.69344L12.5604 8.82062L15.6577 6.28943L15.5538 6.16225L12.4565 8.69344ZM12.5532 8.81176L12.6566 8.9397L15.7682 6.42623L15.6649 6.29829L12.5532 8.81176ZM12.6498 8.93131L12.7526 9.05997L15.8778 6.56326L15.775 6.43461L12.6498 8.93131ZM12.7463 9.05207L12.8486 9.18138L15.9863 6.70047L15.884 6.57116L12.7463 9.05207ZM12.8428 9.17399L12.9445 9.30392L16.0938 6.83779L15.9921 6.70786L12.8428 9.17399ZM12.9391 9.29701L13.0404 9.4275L16.2005 6.97519L16.0992 6.8447L12.9391 9.29701ZM13.0354 9.42109L13.1363 9.55209L16.3063 7.1126L16.2054 6.9816L13.0354 9.42109ZM13.1317 9.54616L13.2321 9.67763L16.4112 7.25L16.3108 7.11853L13.1317 9.54616ZM13.228 9.67222L13.328 9.80409L16.5153 7.38729L16.4153 7.25541L13.228 9.67222ZM13.3234 9.79803L13.4727 9.99651L16.6692 7.59184L16.5199 7.39336L13.3234 9.79803ZM13.4695 9.99217L13.5191 10.0585L16.7221 7.6625L16.6725 7.59618L13.4695 9.99217ZM16.7076 10.0777L18.1274 8.22635L14.9535 5.79203L13.5336 7.64334L16.7076 10.0777ZM18.4853 7.47568L18.5037 7.39879L14.6141 6.46582L14.5956 6.5427L18.4853 7.47568ZM18.5005 7.41216L18.5206 7.3309L14.6374 6.37119L14.6173 6.45245L18.5005 7.41216ZM18.5162 7.3483L18.5495 7.21854L14.6751 6.22404L14.6418 6.35379L18.5162 7.3483ZM18.5448 7.23646L18.5692 7.14496L14.7042 6.11462L14.6798 6.20612L18.5448 7.23646ZM18.5652 7.15985L18.5913 7.06454L14.7344 6.00441L14.7082 6.09972L18.5652 7.15985ZM18.5871 7.07987L18.6151 6.98092L14.7667 5.89011L14.7387 5.98907L18.5871 7.07987ZM18.6106 6.99675L18.6405 6.89431L14.8012 5.77184L14.7713 5.87428L18.6106 6.99675ZM18.6382 6.90229C18.6469 6.873 18.6558 6.84323 18.6651 6.81302L14.8404 5.64162C14.8278 5.68298 14.8155 5.72374 14.8036 5.76386L18.6382 6.90229ZM18.6625 6.82149L18.6963 6.71258L14.8769 5.52423L14.8431 5.63314L18.6625 6.82149ZM18.6909 6.72975L18.7268 6.61784L14.9183 5.39516L14.8824 5.50706L18.6909 6.72975ZM18.724 6.62655C18.7344 6.59468 18.7451 6.56239 18.7561 6.52971L14.9651 5.25384C14.95 5.29855 14.9354 5.34276 14.9211 5.38645L18.724 6.62655ZM18.753 6.53888L18.7931 6.42149L15.0083 5.12727L14.9682 5.24467L18.753 6.53888ZM18.79 6.43069C18.8537 6.24711 18.9265 6.05389 19.009 5.85492L15.3144 4.32194C15.1993 4.59942 15.0989 4.86652 15.0115 5.11807L18.79 6.43069ZM19.0045 5.8658L19.0596 5.73509L15.3741 4.18034L15.319 4.31105L19.0045 5.8658ZM19.055 5.74598C19.5565 4.57654 20.3243 3.4042 21.4488 2.70182L19.3298 -0.690775C17.2349 0.617741 16.0423 2.62207 15.3788 4.16945L19.055 5.74598ZM2.07904 10.6493L2.03275 10.6887L4.62527 13.7349L4.67155 13.6955L2.07904 10.6493ZM1.82309 10.8712L1.78104 10.9086L4.43948 13.8974L4.48153 13.86L1.82309 10.8712ZM13.359 39.4932L13.4178 39.4798L12.5258 35.5805L12.4669 35.594L13.359 39.4932ZM19.3208 39.456L19.381 39.4694L20.2464 35.5641L20.1861 35.5507L19.3208 39.456ZM20.8002 39.8123L20.8471 39.8226L21.7019 35.915L21.6549 35.9047L20.8002 39.8123ZM17.3021 9.47018L17.3586 9.47697L17.8363 5.50559L17.7798 5.4988L17.3021 9.47018ZM15.4354 6.01922L15.3829 5.95636L12.3132 8.52087L12.3657 8.58374L15.4354 6.01922ZM11.9592 10.5354L12.0048 10.5833L14.9003 7.82356L14.8546 7.77564L11.9592 10.5354ZM12.2349 10.8312L12.2778 10.8787L15.2445 8.19562L15.2016 8.14816L12.2349 10.8312ZM12.423 11.042L12.464 11.089L15.4762 8.4571L15.4352 8.41012L12.423 11.042ZM18.3649 9.82604L18.4328 9.83046L18.6923 5.83888L18.6244 5.83447L18.3649 9.82604ZM30.6147 2.70126L30.6476 2.64462L27.1899 0.633638L27.1569 0.690283L30.6147 2.70126ZM29.1275 -1.45702L29.0623 -1.47206L28.1627 2.42548L28.2279 2.44053L29.1275 -1.45702ZM28.9034 -1.5078L28.8314 -1.52359L27.9749 2.38363L28.0469 2.39942L28.9034 -1.5078Z" fill="black" mask="url(#path-1-inside-1_511_40)"/>
</svg>
