<?xml version="1.0" encoding="UTF-8"?>
<svg width="64px" height="64px" viewBox="0 0 64 64" version="1.1" xmlns="http://www.w3.org/2000/svg" xmlns:xlink="http://www.w3.org/1999/xlink">
    <title>ico_3@1x</title>
    <g id="Page-1" stroke="none" stroke-width="1" fill="none" fill-rule="evenodd">
        <g id="sl-2" transform="translate(-736.000000, -284.000000)" fill="#FFFFFF" fill-rule="nonzero">
            <g id="Shape-7" transform="translate(736.000000, 284.000000)">
                <path d="M57.0308986,12.0601755 C53.4043805,7.50656486 48.6400914,4.02007967 43.1643145,2.02787502 C35.9108974,-0.675958341 28.1599594,-0.675958341 20.9066692,2.02787502 C15.4310193,4.09097573 10.6666032,7.50656486 7.04008508,12.0601755 C2.4176364,17.7523158 0,24.6538819 0,31.982222 L0,32.7648992 L0,33.191724 C0.28422688,39.0971878 2.13344762,44.7893281 5.33330159,49.6274123 C9.60019682,56.0306732 15.9999048,60.6558151 23.3954163,62.7190429 C26.2400978,63.5731879 29.155763,64 32.0000635,64 C34.844364,64 37.7599022,63.5731752 40.6755674,62.7905107 C48.070825,60.72741 54.4710408,56.031372 58.7376821,49.62773 C61.9375361,44.7897728 63.7867949,39.0976325 64,33.2631918 L64,32.836367 L64,31.9827175 C64,24.6542504 61.5823636,17.7526843 57.0312796,12.060671 L57.0308986,12.0601755 Z M56.8176047,47.5641084 L45.0131035,47.5641084 L41.3152207,42.5121925 C42.0974637,40.0932139 44.9417388,31.2704662 45.7239564,28.8513606 L51.6261435,26.930179 L61.1548487,33.8317451 C60.9420499,38.7412337 59.3775894,43.4372717 56.8176047,47.5637272 L56.8176047,47.5641084 Z M18.9867187,47.5641084 L7.18221757,47.5641084 C4.6222328,43.4373987 3.05779767,38.7413607 2.7734819,33.8321263 L12.3021871,26.9305602 L18.2043742,28.8517417 L22.6131098,42.5125736 L18.9867187,47.5641084 Z M7.60926264,15.7599841 L10.5249278,24.8672054 L2.7024982,30.5593457 C2.98672508,25.2230833 4.62210582,20.1711674 7.60926264,15.7599841 L7.60926264,15.7599841 Z M25.1024919,41.4451941 L20.8355966,28.3535635 L32.0002286,20.2424446 L43.0933689,28.3535635 C40.6042408,35.8953541 39.4668508,39.5952898 38.8979653,41.4451941 L25.1024919,41.4451941 Z M53.4756563,24.9383555 L56.3913215,15.8311343 C59.3069867,20.2423175 61.0132622,25.2941064 61.2265943,30.6303688 L53.4756563,24.9383555 Z M54.4711805,13.1278091 L50.8446624,24.3695354 L44.9424753,26.2907169 L33.3513062,17.8947432 L33.3513062,11.7048058 L42.8800114,4.80323971 C47.3601117,6.58148565 51.3423103,9.4277464 54.4711805,13.1278091 Z M39.7512681,3.73573312 L32.0003302,9.35685034 L24.2493922,3.73624133 C29.3693617,2.31285685 34.6312986,2.31285685 39.7515221,3.73574506 L39.7512681,3.73573312 Z M21.1202679,4.80278232 L30.6489731,11.7043484 L30.6489731,17.8942858 L19.057804,26.2902595 L13.1556169,24.369078 L9.52909883,13.1273517 C12.6580961,9.42792428 16.6401676,6.58153647 21.1202679,4.80278232 Z M9.10243471,50.2677384 L18.7026315,50.2677384 L21.6892804,59.3749597 C16.7116593,57.5248013 12.3739073,54.3940669 9.10256169,50.2677384 L9.10243471,50.2677384 Z M24.8178967,60.371062 L21.1913786,49.1293358 L24.8892614,44.0774199 L39.1825096,44.0774199 L42.8803924,49.1293358 L39.2538743,60.371062 C34.4175856,61.5805513 29.6532965,61.6515109 24.8184047,60.371062 L24.8178967,60.371062 Z M42.3822366,59.3749851 L45.2979018,50.2677638 L54.8980986,50.2677638 C51.6262451,54.3940923 47.2884931,57.5246996 42.3823636,59.3749851 L42.3822366,59.3749851 Z" id="Shape"></path>
            </g>
        </g>
    </g>
</svg>