<?xml version="1.0" encoding="UTF-8"?>
<svg width="70px" height="56px" viewBox="0 0 70 56" version="1.1" xmlns="http://www.w3.org/2000/svg" xmlns:xlink="http://www.w3.org/1999/xlink">
    <title>ico_11@1x</title>
    <g id="Page-1" stroke="none" stroke-width="1" fill="none" fill-rule="evenodd">
        <g id="sl-9" transform="translate(-815.000000, -476.000000)" fill="#FFFFFF" fill-rule="nonzero">
            <g id="Shape-5" transform="translate(815.000000, 476.000000)">
                <path d="M59.0328213,10.1111366 C55.8438062,10.1111366 53.1995111,7.85588123 52.1882651,4.82257799 C51.2551022,2.100105 48.6884179,0 45.7327352,0 L35.0773608,0 L24.3444867,0 C21.388804,0 18.8220086,2.17775617 17.8889568,4.8220355 C16.877683,7.77770062 14.2334157,10.1105941 11.0444006,10.1105941 C4.97775802,10.1111368 0,14 0,20.0666065 L0,44.7219174 C0,50.7885239 4.97775802,56 11.0444006,56 L59.1108765,56 C65.0998806,56 70,50.7885239 70,44.7219174 L70,20.0666065 C70,14 65.0998806,10.1111497 59.033238,10.1111497 L59.0328213,10.1111366 Z M44.6439895,39.433068 C42.077333,41.9997092 38.6549855,43.3995564 35.0774997,43.3995564 C34.6885012,43.3995564 34.2995028,43.3995564 33.8329352,43.3219752 C27.2997667,42.7772723 22.1663148,37.5663379 21.6215948,31.1107075 C21.2325963,27.0661643 22.7104515,23.177314 25.5104682,20.2997036 C28.3880957,17.4220933 32.2769691,16.0218294 36.3215364,16.4108533 C42.8547049,16.9555562 47.9881568,22.1664906 48.5328769,28.6221211 C48.8437506,32.6666643 47.4440201,36.6331527 44.6440034,39.4331249 L44.6439895,39.433068 Z M54.8326991,18.1999453 C53.8214253,18.1999453 53.0439562,17.421953 53.0439562,16.411213 C53.0439562,15.3999453 53.8219531,14.6224808 54.8326991,14.6224808 C55.8439728,14.6224808 56.621442,15.4004731 56.621442,16.411213 C56.621442,17.421953 55.765862,18.1999453 54.8326991,18.1999453 Z" id="Shape"></path>
            </g>
        </g>
    </g>
</svg>