<?xml version="1.0" encoding="UTF-8"?>
<svg width="56px" height="62px" viewBox="0 0 56 62" version="1.1" xmlns="http://www.w3.org/2000/svg" xmlns:xlink="http://www.w3.org/1999/xlink">
    <title>ico_8@1x</title>
    <g id="Page-1" stroke="none" stroke-width="1" fill="none" fill-rule="evenodd">
        <g id="sl-8" transform="translate(-692.000000, -553.000000)" fill="#FFE690" fill-rule="nonzero">
            <g id="ico_8" transform="translate(692.000000, 553.000000)">
                <path d="M16.2311759,41.539935 L16.3204082,41.5466479 C16.3352799,41.5478559 16.3501496,41.5491076 16.3650149,41.5504016 L16.4541334,41.5586629 L16.4541334,41.5586629 L16.5430246,41.5678749 L16.5430246,41.5678749 L16.6315671,41.5779725 L16.6315671,41.5779725 L16.71964,41.5888903 L16.71964,41.5888903 L16.8071218,41.6005632 L16.8071218,41.6005632 L16.8938916,41.6129259 L16.8938916,41.6129259 L17.0224458,41.6326208 L17.0224458,41.6326208 L17.1487161,41.6535009 L17.1487161,41.6535009 L17.2722934,41.6753461 L17.2722934,41.6753461 L17.3927687,41.6979362 L17.3927687,41.6979362 L17.5097331,41.7210511 L17.5097331,41.7210511 L17.6227774,41.7444706 L17.6227774,41.7444706 L17.7314928,41.7679747 L17.7314928,41.7679747 L17.9019542,41.806738 L17.9019542,41.806738 L18.0275748,41.8367926 L18.0275748,41.8367926 L18.2213107,41.8856686 L18.2213107,41.8856686 L18.3773745,41.927414 L18.3773745,41.927414 L18.5029388,41.9628038 L18.5029388,41.9628038 L18.5699202,41.9826248 L18.5699202,41.9826248 L32.8626875,46.5676179 C33.4051937,46.7389632 33.8852434,47.055233 34.2598801,47.4939534 L34.2598472,47.4944169 C34.5689664,47.8948201 34.7895083,48.3582134 34.8767478,48.8651787 C34.9719619,49.3343004 34.9458331,49.8355712 34.8005757,50.3095756 C34.2766738,51.8711345 32.5835925,52.7314127 31.0154355,52.2367161 L23.1892752,49.710121 L22.8177223,51.0646448 L30.648304,53.5903378 C32.7788979,54.2708924 35.4670538,53.130474 36.1742663,51.0042032 C36.4134125,50.264188 36.3137701,49.0044425 36.135738,48.2780155 L47.7166549,42.4614115 C49.2148616,41.7227157 51.3914844,42.384327 52.1244323,43.8670175 C52.8653824,45.3531236 52.6601056,47.201515 50.6561005,48.2230693 L31.2479449,57.8872183 C30.2656814,58.3391548 28.9946828,58.4959647 27.8042802,58.1999586 L11.5490492,55.1389739 L0.0996435007,62 L0,48.8934149 L0.0571291218,48.8603784 L0.0150580262,48.773162 L13.553534,42.1151787 L13.553534,42.1151787 L13.646816,42.0743421 L13.646816,42.0743421 L13.7670589,42.024727 L13.7670589,42.024727 L13.8775569,41.9814301 L13.8775569,41.9814301 L13.9793715,41.9432762 L13.9793715,41.9432762 L14.0921367,41.9028619 L14.0921367,41.9028619 L14.1833556,41.8715483 L14.1833556,41.8715483 L14.2471215,41.8503821 L14.2471215,41.8503821 L14.3469192,41.8184469 L14.3469192,41.8184469 L14.4160528,41.7971784 L14.4160528,41.7971784 L14.4871366,41.7760437 L14.4871366,41.7760437 L14.5600582,41.7551426 L14.5600582,41.7551426 L14.634705,41.7345749 C14.6472836,41.7311803 14.6599295,41.7278038 14.6726402,41.7244474 L14.7496639,41.7045671 L14.7496639,41.7045671 L14.8281316,41.6852699 L14.8281316,41.6852699 L14.9079309,41.6666556 L14.9079309,41.6666556 L14.9889491,41.6488241 L14.9889491,41.6488241 L15.0710739,41.6318751 L15.0710739,41.6318751 L15.1541928,41.6159086 L15.1541928,41.6159086 L15.2381932,41.6010243 L15.2381932,41.6010243 L15.3229626,41.5873222 L15.3229626,41.5873222 L15.4083887,41.5749019 L15.4083887,41.5749019 L15.4943588,41.5638635 C15.5087263,41.5621444 15.5231117,41.5604871 15.5375127,41.5588936 L15.6240881,41.5501151 C15.8264476,41.5314962 16.0309538,41.5262004 16.2311759,41.539935 Z M33.8653138,0 C46.0706818,0 56,9.87701789 56,22.0172136 C56,34.1574094 46.0709085,44.0344273 33.8653138,44.0344273 C21.6590388,44.0344273 11.7283601,34.1574094 11.7283601,22.0172136 C11.7283601,9.99908967 21.462085,0.198885274 33.4998358,0.00408299862 L33.8653138,0.00112764218 L33.8653138,0 Z M40.497931,3.12041145 L39.0426921,7.46318703 L27.9601572,7.46318703 L26.8140829,3.27196656 C23.2697453,4.59539476 20.2036627,6.87694817 17.928042,9.80871779 L17.8586274,9.89866862 L21.2495743,12.8190363 L18.1367281,22.4365838 L13.7807616,23.2589732 C14.0298176,27.2700754 15.4633657,30.9573534 17.7462225,33.9896079 L17.8156596,34.0812935 L20.3988332,31.7705292 L29.5066603,38.0474366 L28.4974256,41.312175 C30.2095647,41.7834956 32.0040116,42.0561602 33.8648943,42.0557208 C35.7935401,42.0557208 37.6548508,41.7735583 39.4227177,41.2665028 L39.5551321,41.2280529 L38.0383325,37.8301287 L47.1470665,31.5532213 L50.136791,33.7825699 C52.302198,30.829001 53.6685506,27.2732074 53.9375828,23.4134546 L53.9453991,23.2963997 L49.3680176,22.5960324 L46.253811,12.978485 L49.8334084,9.84882683 C47.489992,6.81409815 44.2993193,4.46846297 40.6098844,3.15975162 L40.497931,3.12041145 Z M39.1702013,14.5909456 L42.5934591,25.0745222 L33.6313146,31.5531649 L24.6621411,25.0745222 L28.0867594,14.5909456 L39.1702013,14.5909456 Z" id="Shape"></path>
            </g>
        </g>
    </g>
</svg>