<?xml version="1.0" encoding="UTF-8"?>
<svg width="56px" height="56px" viewBox="0 0 56 56" version="1.1" xmlns="http://www.w3.org/2000/svg" xmlns:xlink="http://www.w3.org/1999/xlink">
    <title>ico_7@1x</title>
    <g id="Page-1" stroke="none" stroke-width="1" fill="none" fill-rule="evenodd">
        <g id="sl-8" transform="translate(-1140.000000, -328.000000)" fill="#FFFFFF" fill-rule="nonzero">
            <g id="ico_7" transform="translate(1140.000000, 328.000000)">
                <g id="Shape-2">
                    <path d="M39.6675,25.6667776 L42.0005,28.0007562 L42.0005,30.3337349 L44.3335,30.3337349 L42.0005,35.0006922 L42.0005,51.3330427 L44.3335,51.3330427 L44.3335,49.0000641 L46.6675,46.6670854 L49.0005,49.0000641 L49.0005,51.3330427 L51.3335,51.3330427 L51.3335,49.0000641 L53.6675,46.6670854 L56,49.0000641 L56,56 L0,56 L0,49.0000641 L2.3335,46.6670854 L4.666,49.0000641 L4.666,51.3330427 L7,51.3330427 L7,49.0000641 L9.3335,46.6670854 L11.666,49.0000641 L11.666,51.3330427 L14,51.3330427 L14,35.0006922 L11.666,30.3337349 L14,30.3337349 L14,28.0007562 L16.3335,25.6667776 L18.666,28.0007562 L18.666,30.3337349 L37.3335,30.3337349 L37.3335,28.0007562 L39.6675,25.6667776 Z M28,35.0001922 C23.49125,35.0001922 19.834,38.6554087 19.834,43.1641175 C19.834,47.6783262 23.49125,51.3330427 28,51.3330427 C32.506875,51.3330427 36.167,47.6782012 36.167,43.1641175 C36.167,38.6554087 32.506875,35.0001922 28,35.0001922 Z M28,39.6671495 C29.933125,39.6671495 31.5,41.2340101 31.5,43.1671174 C31.5,45.1002248 29.933125,46.6670854 28,46.6670854 C26.066875,46.6670854 24.5,45.1002248 24.5,43.1671174 C24.5,41.2340101 26.066875,39.6671495 28,39.6671495 Z M30.333,9.33367708 L35,26.8335169 L21,26.8335169 L25.666,9.33367708 L30.333,9.33367708 Z M28.0014,0 L29.179625,2.30072894 L31.81875,2.66986307 L29.9090625,4.46384665 L30.364625,6.99994844 L28.001375,5.80367189 L25.644,6.99994844 L26.0922375,4.46384665 L24.1811125,2.66986307 L26.8207375,2.30072894 L28.0014,0 Z" id="Shape"></path>
                </g>
                <polygon id="Path" transform="translate(48.000000, 8.000000) scale(-1, -1) translate(-48.000000, -8.000000) " points="41.3367602 4.16104737 49.1668676 4.15966925 40 13.3266632 42.6732999 16 51.8401676 6.83300603 51.8387895 14.6632214 56 14.6632214 56 0 41.3369807 0"></polygon>
            </g>
        </g>
    </g>
</svg>