<?xml version="1.0" encoding="UTF-8"?>
<svg width="176px" height="56px" viewBox="0 0 176 56" version="1.1" xmlns="http://www.w3.org/2000/svg" xmlns:xlink="http://www.w3.org/1999/xlink">
    <title>ico_6@1x</title>
    <g id="Page-1" stroke="none" stroke-width="1" fill="none" fill-rule="evenodd">
        <g id="sl-8" transform="translate(-632.000000, -328.000000)" fill="#FFFFFF" fill-rule="nonzero">
            <g id="ico_6" transform="translate(632.000000, 328.000000)">
                <g id="noun-happy-4525617" transform="translate(60.000000, 0.000000)">
                    <path d="M28,0 C43.4528565,0 56,12.5460272 56,28 C56,43.4528565 43.4539728,56 28,56 C12.5471435,56 0,43.4539728 0,28 C0,12.5471435 12.5460272,0 28,0 Z M38.1323207,33.2096142 L31.4092698,33.2112883 L31.4092698,33.2112883 L27.9995116,33.2145197 L27.9995116,33.2145197 L23.0456949,33.2243527 L23.0456949,33.2243527 L19.2164693,33.239879 L19.2164693,33.239879 L18.1393065,33.2468025 L18.1393065,33.2468025 L17.8671212,33.2488586 C17.0753339,33.2488586 16.327897,33.6160077 15.8408245,34.2413108 C15.3664592,34.8557074 15.1943649,35.6503581 15.3707948,36.404498 L15.38253,36.4525774 C16.8255966,42.0735682 21.9307435,46.2331026 27.9996986,46.2331026 C34.0687653,46.2331026 39.1741355,42.0736799 40.6562389,36.4629634 C40.8568257,35.6815577 40.6850169,34.853089 40.1900969,34.2177615 C39.6976996,33.5819986 38.9372691,33.2096142 38.1323207,33.2096142 Z M17.581255,16.278914 C14.3462353,16.278914 11.720712,18.9044373 11.720712,22.139457 C11.720712,23.2178192 12.5958641,24.0929713 13.6742264,24.0929713 C14.7185751,24.0929713 15.5732656,23.2723167 15.6251732,22.2410397 L15.6249779,22.2410397 L15.6302105,22.0378408 C15.6821003,21.006575 16.5367639,20.1859092 17.5811574,20.1859092 C18.6255508,20.1859092 19.4801965,21.0065638 19.5321042,22.0378408 L19.5373368,22.2410397 C19.5892266,23.2723055 20.4438903,24.0929713 21.4882837,24.0929713 C22.5666459,24.0929713 23.441798,23.2178192 23.441798,22.139457 C23.441798,18.9044373 20.8162748,16.278914 17.581255,16.278914 Z M38.4184045,15.6278426 C35.1833848,15.6278426 32.5578615,18.2533659 32.5578615,21.4883856 C32.5578615,22.5667479 33.4330136,23.4419334 34.5113758,23.4419334 C35.577484,23.4419334 36.4449741,22.5865254 36.4645521,21.5250683 L36.4648902,21.4883856 C36.4648902,20.4100234 37.3400423,19.5348713 38.4184045,19.5348713 C39.4627533,19.5348713 40.3174437,20.3555259 40.3693514,21.3868029 L40.374584,21.5900018 C40.4264738,22.6212676 41.2811374,23.4419334 42.3255308,23.4419334 C43.4038931,23.4419334 44.2790452,22.5667813 44.2790452,21.4884191 C44.2790452,18.3374697 41.7848718,15.7631003 38.6641813,15.633617 L38.5692828,15.6304589 L38.4184045,15.6278426 Z" id="Shape"></path>
                </g>
                <g id="Shape-7" transform="translate(0.000000, 8.000000)">
                    <path d="M35.6443116,7.53760968 C33.3777378,4.69160304 30.4000571,2.5125498 26.9776966,1.26742189 C22.4443108,-0.422473963 17.5999746,-0.422473963 13.0666683,1.26742189 C9.64438704,2.55685983 6.66662698,4.69160304 4.40005317,7.53760968 C1.51102275,11.0951974 0,15.4086762 0,19.9888887 L0,20.478062 L0,20.7448275 C0.1776418,24.4357424 1.33340476,27.9933301 3.33331349,31.0171327 C6.00012302,35.0191707 9.99994048,37.9098845 14.6221352,39.1994018 C16.4000611,39.7332425 18.2223519,40 20.0000397,40 C21.7777275,40 23.5999389,39.7332345 25.4222296,39.2440692 C30.0442656,37.9546312 34.0444005,35.0196075 36.7110513,31.0173312 C38.7109601,27.993608 39.8667468,24.4360203 40,20.7894949 L40,20.5227294 L40,19.9891984 C40,15.4089065 38.4889772,11.0954277 35.6445497,7.53791938 L35.6443116,7.53760968 Z M35.5110029,29.7275677 L28.1331897,29.7275677 L25.822013,26.5701203 C26.3109148,25.0582587 28.0885868,19.5440414 28.5774728,18.0321004 L32.2663397,16.8313619 L38.2217804,21.1448407 C38.0887812,24.213271 37.1109934,27.1482948 35.5110029,29.7273295 L35.5110029,29.7275677 Z M11.8666992,29.7275677 L4.48888598,29.7275677 C2.8888955,27.1483742 1.91112354,24.2133504 1.73342619,21.1450789 L7.68886693,16.8316001 L11.3777339,18.0323386 L14.1331937,26.5703585 L11.8666992,29.7275677 Z M4.75578915,9.84999008 L6.57807989,15.5420034 L1.68906137,19.0995911 C1.86670317,15.764427 2.88881614,12.6069796 4.75578915,9.84999008 L4.75578915,9.84999008 Z M15.6890574,25.9032463 L13.0222479,17.7209772 L20.0001429,12.6515279 L26.9333556,17.7209772 C25.3776505,22.4345963 24.6667817,24.7470561 24.3112283,25.9032463 L15.6890574,25.9032463 Z M33.4222852,15.5864722 L35.2445759,9.89445893 C37.0668667,12.6514485 38.1332889,15.8088165 38.2666214,19.1439805 L33.4222852,15.5864722 Z M34.0444878,8.20488071 L31.777914,15.2309596 L28.0890471,16.4316981 L20.8445664,11.1842145 L20.8445664,7.31550364 L26.8000071,3.00202482 C29.6000698,4.11342853 32.0889439,5.8923415 34.0444878,8.20488071 Z M24.8445426,2.3348332 L20.0002063,5.84803146 L15.1558701,2.33515083 C18.3558511,1.44553553 21.6445616,1.44553553 24.8447013,2.33484066 L24.8445426,2.3348332 Z M13.2001675,3.00173895 L19.1556082,7.31521777 L19.1556082,11.1839286 L11.9111275,16.4314122 L8.22226058,15.2306737 L5.95568677,8.20459484 C7.91131005,5.89245267 10.4001048,4.1134603 13.2001675,3.00173895 Z M5.68902169,31.4173365 L11.6891447,31.4173365 L13.5558003,37.1093498 C10.444787,35.9530008 7.73369206,33.9962918 5.68910106,31.4173365 L5.68902169,31.4173365 Z M15.5111854,37.7319138 L13.2446116,30.7058349 L15.5557884,27.5483874 L24.4890685,27.5483874 L26.8002452,30.7058349 L24.5336714,37.7319138 C21.510991,38.4878446 18.5333103,38.5321943 15.5115029,37.7319138 L15.5111854,37.7319138 Z M26.4888979,37.1093657 L28.3111886,31.4173524 L34.3113116,31.4173524 C32.2664032,33.9963077 29.5553082,35.9529373 26.4889772,37.1093657 L26.4888979,37.1093657 Z" id="Shape"></path>
                </g>
                <g id="Shape-7" transform="translate(136.000000, 8.000000)">
                    <path d="M35.6443116,7.53760968 C33.3777378,4.69160304 30.4000571,2.5125498 26.9776966,1.26742189 C22.4443108,-0.422473963 17.5999746,-0.422473963 13.0666683,1.26742189 C9.64438704,2.55685983 6.66662698,4.69160304 4.40005317,7.53760968 C1.51102275,11.0951974 0,15.4086762 0,19.9888887 L0,20.478062 L0,20.7448275 C0.1776418,24.4357424 1.33340476,27.9933301 3.33331349,31.0171327 C6.00012302,35.0191707 9.99994048,37.9098845 14.6221352,39.1994018 C16.4000611,39.7332425 18.2223519,40 20.0000397,40 C21.7777275,40 23.5999389,39.7332345 25.4222296,39.2440692 C30.0442656,37.9546312 34.0444005,35.0196075 36.7110513,31.0173312 C38.7109601,27.993608 39.8667468,24.4360203 40,20.7894949 L40,20.5227294 L40,19.9891984 C40,15.4089065 38.4889772,11.0954277 35.6445497,7.53791938 L35.6443116,7.53760968 Z M35.5110029,29.7275677 L28.1331897,29.7275677 L25.822013,26.5701203 C26.3109148,25.0582587 28.0885868,19.5440414 28.5774728,18.0321004 L32.2663397,16.8313619 L38.2217804,21.1448407 C38.0887812,24.213271 37.1109934,27.1482948 35.5110029,29.7273295 L35.5110029,29.7275677 Z M11.8666992,29.7275677 L4.48888598,29.7275677 C2.8888955,27.1483742 1.91112354,24.2133504 1.73342619,21.1450789 L7.68886693,16.8316001 L11.3777339,18.0323386 L14.1331937,26.5703585 L11.8666992,29.7275677 Z M4.75578915,9.84999008 L6.57807989,15.5420034 L1.68906137,19.0995911 C1.86670317,15.764427 2.88881614,12.6069796 4.75578915,9.84999008 L4.75578915,9.84999008 Z M15.6890574,25.9032463 L13.0222479,17.7209772 L20.0001429,12.6515279 L26.9333556,17.7209772 C25.3776505,22.4345963 24.6667817,24.7470561 24.3112283,25.9032463 L15.6890574,25.9032463 Z M33.4222852,15.5864722 L35.2445759,9.89445893 C37.0668667,12.6514485 38.1332889,15.8088165 38.2666214,19.1439805 L33.4222852,15.5864722 Z M34.0444878,8.20488071 L31.777914,15.2309596 L28.0890471,16.4316981 L20.8445664,11.1842145 L20.8445664,7.31550364 L26.8000071,3.00202482 C29.6000698,4.11342853 32.0889439,5.8923415 34.0444878,8.20488071 Z M24.8445426,2.3348332 L20.0002063,5.84803146 L15.1558701,2.33515083 C18.3558511,1.44553553 21.6445616,1.44553553 24.8447013,2.33484066 L24.8445426,2.3348332 Z M13.2001675,3.00173895 L19.1556082,7.31521777 L19.1556082,11.1839286 L11.9111275,16.4314122 L8.22226058,15.2306737 L5.95568677,8.20459484 C7.91131005,5.89245267 10.4001048,4.1134603 13.2001675,3.00173895 Z M5.68902169,31.4173365 L11.6891447,31.4173365 L13.5558003,37.1093498 C10.444787,35.9530008 7.73369206,33.9962918 5.68910106,31.4173365 L5.68902169,31.4173365 Z M15.5111854,37.7319138 L13.2446116,30.7058349 L15.5557884,27.5483874 L24.4890685,27.5483874 L26.8002452,30.7058349 L24.5336714,37.7319138 C21.510991,38.4878446 18.5333103,38.5321943 15.5115029,37.7319138 L15.5111854,37.7319138 Z M26.4888979,37.1093657 L28.3111886,31.4173524 L34.3113116,31.4173524 C32.2664032,33.9963077 29.5553082,35.9529373 26.4889772,37.1093657 L26.4888979,37.1093657 Z" id="Shape"></path>
                </g>
            </g>
        </g>
    </g>
</svg>