<?xml version="1.0" encoding="UTF-8"?>
<svg width="78px" height="66px" viewBox="0 0 78 66" version="1.1" xmlns="http://www.w3.org/2000/svg" xmlns:xlink="http://www.w3.org/1999/xlink">
    <title>ico_2@1x</title>
    <g id="Page-1" stroke="none" stroke-width="1" fill="none" fill-rule="evenodd">
        <g id="sl-2" transform="translate(-407.000000, -283.000000)" fill="#FFFFFF" fill-rule="nonzero" stroke="#FFFFFF">
            <g id="Shape-4" transform="translate(408.000000, 284.000000)">
                <path d="M75.9366133,59.1238481 L67.5068129,24.8784902 C67.0275174,22.9297118 65.2127745,21.6426513 63.2066541,21.8252383 L50.303314,22.9764029 C51.8339615,20.0446388 52.8630789,17.2433142 52.8630789,14.9820777 C52.8630789,6.72133175 46.0909193,0 37.7670659,0 C29.4429261,0 22.6710528,6.72104757 22.6710528,14.9820777 C22.6710528,17.4703757 23.8986347,20.606893 25.7962024,24.0015896 L13.4191611,22.0312134 C11.3577764,21.7048445 9.40190926,22.9642399 8.86229551,24.9618408 L0.0751388089,57.5148946 C-0.0842541289,58.1065758 0.0119414347,58.7160042 0.34470229,59.2305016 C0.678578452,59.7450274 1.19757549,60.0852644 1.80777283,60.1868453 L23.8118154,63.8284961 C24.5008287,63.9428354 25.1579577,64 25.8061957,64 C26.8106304,64 27.793847,63.8617937 28.8385702,63.5814993 L49.7487817,57.9666304 C51.2990438,57.5486838 52.6905285,57.506497 54.26198,57.8284241 L73.3997272,61.7347906 C74.1407547,61.8863164 74.8672361,61.6637451 75.3918168,61.1236855 C75.9158535,60.5825176 76.1149479,59.853747 75.935425,59.1238964 L75.9366133,59.1238481 Z M37.7684976,2.03877886 C44.9600068,2.03877886 50.8094256,7.84504441 50.8094256,14.9812819 C50.8094256,20.9697082 41.8517515,32.3419634 37.7684976,37.4060875 C35.4000099,34.4621035 31.5980881,29.6349873 28.7096012,24.9215438 C28.6794006,24.8571581 28.6419297,24.7966586 28.5994263,24.7400509 C26.381412,21.0945636 24.7264915,17.5321995 24.7264915,14.9818077 C24.7264915,7.84557015 30.5769124,2.0393046 37.7685649,2.0393046 L37.7684976,2.03877886 Z M73.9135987,59.7064213 C73.8800421,59.7413885 73.8615873,59.7480497 73.8134902,59.7380593 L54.675743,55.8316928 C52.7983339,55.4470524 51.062951,55.501999 49.2123149,55.9982093 L28.3021033,61.6130782 C26.8821274,61.9943937 25.6014575,62.058221 24.1495543,61.8178882 L2.14694348,58.1762374 C2.10276215,58.1690218 2.0949321,58.161251 2.07367971,58.1279491 C2.05130915,58.092982 2.04963117,58.0841013 2.06025737,58.0435826 L5.50367743,45.2880713 C6.43317606,45.921371 7.36777161,46.5241495 8.29724161,47.060941 C8.45998476,47.1547438 8.63783252,47.1991473 8.81233006,47.1991473 C9.16635046,47.1991473 9.51029159,47.0176544 9.70099615,46.6918397 C9.98566424,46.2050643 9.82067902,45.5817536 9.33021035,45.2986798 C8.24524168,44.6731525 7.14856157,43.9660223 6.06632748,43.2034056 L10.8485451,25.4903384 C11.1147584,24.5045819 12.0839585,23.8839994 13.0967687,24.0438518 L27.1466269,26.2812171 C29.9111273,30.733213 33.5664413,35.466123 36.9684848,39.6732961 C37.1631122,39.9147372 37.4578453,40.0546116 37.769358,40.0546116 C38.0808708,40.0546116 38.3756038,39.9136303 38.5702313,39.6732961 L38.7821969,39.4107546 C41.307887,36.2875938 45.8618891,30.6538268 49.1084482,25.1291857 L63.3921057,23.855368 C64.3937485,23.7610111 65.2768165,24.3998608 65.513336,25.3612487 L73.9419911,59.6066066 C73.9526171,59.6537851 73.9469948,59.6715465 73.9145866,59.7059595 L73.9135987,59.7064213 Z M37.7684976,23.6280892 C42.5726205,23.6280892 46.4802028,19.7488621 46.4802028,14.9821345 C46.4802028,10.2154069 42.5714751,6.33617982 37.7684976,6.33617982 C32.9643747,6.33617982 29.0562196,10.2154069 29.0562196,14.9821345 C29.0556604,19.7494305 32.9643747,23.6280892 37.7684976,23.6280892 L37.7684976,23.6280892 Z M37.7684976,8.37461766 C41.4401331,8.37461766 44.4265495,11.3384943 44.4265495,14.9824187 C44.4265495,18.626343 41.4401331,21.5902197 37.7684976,21.5902197 C34.096862,21.5902197 31.1104457,18.626343 31.1104457,14.9824187 C31.1104457,11.3384943 34.096862,8.37461766 37.7684976,8.37461766 Z M19.3022251,50.1991108 C19.1937283,50.6714498 18.7703713,50.9917088 18.3016991,50.9917088 C18.2256391,50.9917088 18.1490209,50.9833831 18.0718371,50.9661764 C16.7122653,50.6586772 15.345993,50.2523964 14.0110611,49.759511 C13.4792072,49.5630276 13.2085127,48.9763479 13.4064904,48.4490481 C13.6044681,47.9217626 14.1984011,47.6547877 14.7269191,47.8479321 C15.9791122,48.3097279 17.2581929,48.689935 18.5294135,48.9785503 C19.0830867,49.1039897 19.4287029,49.6507119 19.302311,50.1990838 L19.3022251,50.1991108 Z M39.5323716,48.1959116 C39.6928813,48.7365253 39.3813686,49.3026728 38.8377603,49.4614026 C37.3752625,49.8893382 36.0593723,50.2390242 34.8149248,50.5304103 C34.735509,50.5487272 34.6560902,50.5576079 34.5783624,50.5576079 C34.1130547,50.5576079 33.6913714,50.2417822 33.5795114,49.7727823 C33.4492024,49.2249504 33.7909186,48.6760101 34.3434607,48.5461389 C35.5509127,48.2636193 36.8316399,47.9228282 38.2577722,47.50599 C38.800822,47.343921 39.371819,47.6552993 39.5323287,48.195913 L39.5323716,48.1959116 Z M59.4160429,43.3592752 C59.4501578,43.9209752 59.0184124,44.4038715 58.4524265,44.4377176 C57.199675,44.5120937 55.9099853,44.6758338 54.5084785,44.9366987 C54.4452811,44.9483545 54.380967,44.9539045 54.3183323,44.9539045 C53.8340114,44.9539045 53.4028215,44.6125592 53.3105331,44.1224446 C53.2059506,43.568517 53.5728235,43.0367839 54.1304196,42.9329865 C55.6169703,42.6560226 56.9909881,42.4828421 58.3293562,42.40347 C58.8841461,42.3590666 59.3818965,42.796437 59.4159999,43.3592595 L59.4160429,43.3592752 Z M29.5318357,50.469368 C29.5860848,51.0294055 29.1727899,51.5278324 28.607935,51.5816707 C27.4368343,51.693789 26.2763856,51.7498496 25.1577859,51.7498496 C24.8999625,51.7498496 24.6399056,51.7476295 24.3804071,51.741524 C23.8133187,51.7276479 23.3647764,51.2608584 23.3782059,50.6980359 C23.3916283,50.1363359 23.8474222,49.7183893 24.4296295,49.7033987 C25.7293556,49.7350367 27.0498129,49.6828623 28.4110884,49.552427 C28.9714763,49.4969234 29.4764855,49.9087629 29.53185,50.4693546 L29.5318357,50.469368 Z M69.3922397,45.3940186 C69.2283798,45.7869856 68.8458396,46.0245476 68.4426111,46.0245476 C68.3123021,46.0245476 68.1797624,45.9995708 68.0516811,45.9473964 C66.8397622,45.450632 65.5819711,45.0704248 64.3157615,44.8145473 C63.7604132,44.7024289 63.4013674,44.1640404 63.5137714,43.6128835 C63.6267424,43.0617266 64.1675502,42.7053907 64.7245736,42.8169464 C66.1182632,43.0978035 67.5008141,43.5174125 68.8334553,44.0635678 C69.3586087,44.2778126 69.6086006,44.873373 69.3921538,45.3940087 L69.3922397,45.3940186 Z M49.3296039,45.1303687 C49.4923471,45.66932 49.1836405,46.2371299 48.6400323,46.3986448 C47.315695,46.7905034 45.989067,47.2140057 44.7430446,47.6136367 C44.6379022,47.6474942 44.5316374,47.6635903 44.4265065,47.6635903 C43.9930831,47.6635903 43.590413,47.3893972 43.4494749,46.9581367 C43.2749774,46.4225246 43.5708357,45.8480506 44.1110852,45.6748843 C45.3677452,45.2713742 46.7077884,44.8445327 48.0521697,44.4449159 C48.5935301,44.2828469 49.1673476,44.5903319 49.3295324,45.1303915 L49.3296039,45.1303687 Z" id="Shape"></path>
            </g>
        </g>
    </g>
</svg>