<?xml version="1.0" encoding="UTF-8"?>
<svg width="47px" height="66px" viewBox="0 0 47 66" version="1.1" xmlns="http://www.w3.org/2000/svg" xmlns:xlink="http://www.w3.org/1999/xlink">
    <title>ico_4@1x</title>
    <g id="Page-1" stroke="none" stroke-width="1" fill="none" fill-rule="evenodd">
        <g id="sl-2" transform="translate(-1063.000000, -283.000000)" fill="#FFFFFF" fill-rule="nonzero" stroke="#FFFFFF">
            <g id="Shape-9" transform="translate(1064.000000, 284.000000)">
                <path d="M40.1304156,40.9385309 L29.1488961,37.9127551 L29.1488961,34.2520331 C31.1294805,32.6951436 32.5449351,30.4706841 33.0402857,27.9210308 C35.4327662,27.7604889 37.3307143,25.781788 37.3307143,23.3655327 L37.3307143,14.7306591 C37.3307143,6.60871143 30.6784286,0 22.5005844,0 C14.3227403,0 7.67045455,6.60813093 7.67045455,14.7306591 L7.67045455,23.3655327 C7.67045455,25.7664629 9.54467532,27.7368976 11.9156494,27.9192893 C12.358987,30.5560169 13.8035455,32.8544316 15.8522727,34.4194481 L15.8522727,37.9128712 L4.87075325,40.938647 C2.00302597,41.7282141 0,44.3449959 0,47.3014605 L0,64 L45,64 L45,47.3014605 C45,44.3449959 42.996974,41.7282373 40.1292468,40.938647 L40.1304156,40.9385309 Z M35.7966234,51.6962774 L35.7966234,62.9842486 L9.20571429,62.9842486 L9.20571429,51.6962774 C9.20571429,49.6845115 8.82402078,47.7167471 8.07204156,45.8482475 L6.35444416,41.5834617 L14.533574,39.3299773 C15.0942506,40.8573776 16.9739766,45.0111727 21.7438597,48.3516933 C20.4170026,48.6981796 19.4327299,49.9575766 19.4327299,51.4102091 L19.4327299,57.3969774 L21.9895481,57.3969774 C22.8351273,57.3969774 23.523639,56.7130838 23.523639,55.8731762 L23.523639,54.1752263 C24.7303403,53.7511974 25.5690935,52.6019668 25.5690935,51.3017725 C25.5690935,50.4450886 25.2029221,49.6228628 24.5646234,49.0464306 C24.1911468,48.7090233 23.7405039,48.4750022 23.2578701,48.3525525 C28.0272857,45.0115675 29.9074675,40.8577724 30.4676883,39.3308365 L38.6468182,41.5843208 L36.9292208,45.8491067 C36.1786091,47.7166775 35.7969156,49.6844418 35.7969156,51.6962077 L35.7966234,51.6962774 Z M22.298961,49.2795577 C22.8842883,49.2233216 23.4458766,49.4079053 23.8768831,49.7983815 C24.3028636,50.1829599 24.5471377,50.7303441 24.5471377,51.3017493 C24.5471377,52.2641067 23.8595377,53.101286 22.9112416,53.2926174 L22.5016948,53.3751569 L22.5016948,55.873146 C22.5016948,56.153421 22.2720429,56.3810798 21.9903312,56.3810798 L20.4562403,56.3810798 L20.4562403,51.4109916 C20.4562403,50.3139476 21.2657494,49.3773991 22.2990195,49.2795275 L22.298961,49.2795577 Z M8.76728571,16.2296151 C9.61161429,15.1928846 13.1605714,11.6827083 22.4672727,11.6827083 C31.8210779,11.6827083 35.3863636,15.2717972 36.1928571,16.2631677 C35.5723714,16.7284699 33.9301169,17.7779132 31.7065325,17.7779132 C30.4678052,17.7779132 29.5757532,17.413745 28.5415714,16.9924329 C27.1088182,16.4083149 25.4848442,15.7462247 22.501987,15.7462247 C19.5191299,15.7462247 17.8951558,16.4083497 16.4624026,16.9924329 C15.4282558,17.413745 14.5361688,17.7779132 13.2974416,17.7779132 C11.0337662,17.7779132 9.35497403,16.6749714 8.76728571,16.2296151 L8.76728571,16.2296151 Z M16.8889091,11.1362296 C17.1089766,4.15216969 21.4852208,1.57395606 22.4992987,1.07008579 C23.4795623,1.56895219 27.8974286,4.20383381 28.1156494,11.1493488 C26.5039481,10.8504864 24.6338182,10.6668176 22.4678571,10.6668176 C20.3328701,10.6668176 18.4847143,10.845053 16.889026,11.1362064 L16.8889091,11.1362296 Z M33.1894286,26.8874234 C33.2195622,26.563588 33.2401079,26.2361536 33.2401079,25.9046441 L33.2401079,19.8503061 C34.9718482,20.0983752 36.3082897,21.5777452 36.3082897,23.3649754 C36.3082897,25.1695044 34.9459001,26.6619588 33.1893806,26.8874234 L33.1894286,26.8874234 Z M33.2401079,18.8235021 L33.2401079,18.6443611 C34.5732768,18.3894887 35.6289651,17.8543413 36.3082897,17.4212567 L36.3082897,20.4983483 C35.5649832,19.5840676 34.47603,18.9600347 33.2401079,18.8235021 Z M36.3082897,14.7300786 L36.3082897,14.8792892 C35.2015469,13.8176206 33.0094975,12.2580028 29.1419521,11.3646199 C29.0447018,5.69340902 26.3983547,2.62723069 24.5241339,1.16426541 C31.1819131,2.14021801 36.3082897,7.85087936 36.3082897,14.7304501 L36.3082897,14.7300786 Z M20.4788092,1.16389389 C18.6063417,2.62511769 15.9627962,5.68769694 15.860991,11.3479945 C12.0271079,12.2223603 9.82830273,13.7493891 8.69500403,14.8155275 L8.69500403,14.7298139 C8.69500403,7.85047534 13.8213806,2.14002297 20.4791599,1.16362919 L20.4788092,1.16389389 Z M8.69465338,17.4212567 C9.37403649,17.8543645 10.4296664,18.3895003 11.7628352,18.6443611 L11.7628352,18.8235021 C10.5269131,18.9600115 9.43791312,19.5840443 8.69465338,20.4983483 L8.69465338,17.4212567 Z M8.69464987,23.3649522 C8.69464987,21.5776059 10.0310949,20.0978063 11.7628352,19.8502829 L11.7628352,26.2093812 C11.7628352,26.4374928 11.7829251,26.6610765 11.7970784,26.8855658 C10.0488577,26.6524619 8.69464987,25.1640477 8.69464987,23.3649754 L8.69464987,23.3649522 Z M12.7855274,26.2093812 L12.7855274,18.7749727 C12.9531261,18.7854035 13.1225131,18.7935671 13.2969261,18.7935671 C14.7369261,18.7935671 15.7633936,18.3749716 16.8499391,17.9318909 C18.1959651,17.3835895 19.7204716,16.7618437 22.5014716,16.7618437 C25.2824716,16.7618437 26.8069781,17.3836127 28.153004,17.9318909 C29.2396547,18.3749716 30.266017,18.7935671 31.706017,18.7935671 C31.88043,18.7935671 32.049817,18.7854039 32.2173806,18.7749727 L32.2173806,25.9046209 C32.2173806,31.2261412 27.8366014,35.5553621 22.4512118,35.5553621 L22.1946183,35.5553621 C17.0060599,35.5553621 12.7855274,31.3631382 12.7855274,26.2093812 L12.7855274,26.2093812 Z M22.1946534,36.5712295 L22.4512469,36.5712295 C24.5345716,36.5712295 26.4750651,35.9744103 28.1265066,34.9589608 L28.1265066,38.0374456 L22.5015066,42.0414728 L16.8765066,38.0374456 L16.8765066,35.1073355 C18.4361949,36.0306836 20.2510391,36.5712295 22.1946884,36.5712295 L22.1946534,36.5712295 Z M16.2664586,38.8528099 L22.5014716,43.29128 L28.7364845,38.8528099 L29.4747651,39.0559834 C28.9081508,40.5348542 27.0439469,44.5212344 22.5015183,47.6396573 C17.9590897,44.5213505 16.0949209,40.5354347 15.5282716,39.0559834 L16.2664586,38.8528099 Z M5.14526377,41.9167823 L5.36305208,41.8569193 L7.12225987,46.2256139 C7.82629364,47.9734864 8.18333649,49.8137739 8.18333649,51.6958571 L8.18333649,56.8886234 L1.02424558,56.8886234 L1.02424558,47.3009241 C1.02424558,44.7993359 2.71905078,42.5857897 5.14531052,41.9168264 L5.14526377,41.9167823 Z M1.02419883,57.9047951 L8.18328974,57.9047951 L8.18328974,62.9841325 L1.02419883,62.9841325 L1.02419883,57.9047951 Z M36.8196534,62.9841325 L36.8196534,57.9047951 L43.9787443,57.9047951 L43.9787443,62.9841325 L36.8196534,62.9841325 Z M43.9788027,56.8889276 L36.8196534,56.8889276 L36.8196534,51.6961613 C36.8196534,49.8136137 37.1766962,47.9737906 37.8802742,46.2249893 L39.6394819,41.8562947 L39.8572703,41.9161577 C42.2839975,42.5859917 43.9788027,44.799596 43.9788027,47.3011842 L43.9788027,56.8889276 Z" id="Shape"></path>
            </g>
        </g>
    </g>
</svg>