<?xml version="1.0" encoding="UTF-8"?>
<svg width="46px" height="56px" viewBox="0 0 46 56" version="1.1" xmlns="http://www.w3.org/2000/svg" xmlns:xlink="http://www.w3.org/1999/xlink">
    <title>ico_12@1x</title>
    <g id="Page-1" stroke="none" stroke-width="1" fill="none" fill-rule="evenodd">
        <g id="sl-9" transform="translate(-1087.000000, -476.000000)" fill="#FFFFFF" fill-rule="nonzero">
            <g id="ico_12" transform="translate(1087.000000, 476.000000)">
                <path d="M12.6493097,14.4419972 C14.2234048,14.2850556 15.3626032,14.5000961 16.4641403,14.8239935 L16.6378121,14.8760015 C16.695637,14.8936134 16.7534155,14.9114886 16.8112055,14.9295885 L16.9846678,14.9845245 L16.9846678,14.9845245 L17.3331896,15.0975224 L17.3331896,15.0975224 L17.6861574,15.2131539 L17.6861574,15.2131539 L17.9554731,15.3004981 L17.9554731,15.3004981 L18.1378541,15.3585915 L18.1378541,15.3585915 L18.3229103,15.4163076 L18.3229103,15.4163076 L18.5109892,15.473416 C19.7440783,15.8421479 21.1907505,16.1577889 23.2804343,16.1358892 C25.2358099,16.1173165 26.5880534,15.8146755 27.7296071,15.4692071 L27.9081588,15.4143387 L27.9081588,15.4143387 L28.083552,15.3589696 L28.083552,15.3589696 L28.25613,15.3033107 L28.25613,15.3033107 L28.4262361,15.2475731 L28.4262361,15.2475731 L29.0070977,15.0549181 L29.0070977,15.0549181 L29.2517036,14.97509 L29.2517036,14.97509 L29.4141876,14.9233116 C30.5509339,14.5655114 31.6826214,14.3104991 33.3391244,14.4839976 C37.1615579,14.8872917 40.0785864,17.1955822 41.5997954,18.6682031 L41.7233212,18.7889284 L41.7233212,18.7889284 L41.8403219,18.9054323 L41.8403219,18.9054323 L41.9507343,19.0173625 L41.9507343,19.0173625 L42.0544953,19.1243665 L42.0544953,19.1243665 L42.151542,19.2260919 L42.151542,19.2260919 L42.2418112,19.3221862 L42.2418112,19.3221862 L42.3252398,19.4122969 L42.3252398,19.4122969 L42.4374189,19.5354728 L42.4374189,19.5354728 L42.5892878,19.7058551 L42.5892878,19.7058551 L42.7124078,19.8459264 L42.7124078,19.8459264 C51.5687961,29.8697769 40.7119796,55.1748556 31.6074312,55.9800387 C31.0119352,56.0328354 30.4733449,55.9763177 29.9148566,55.8637599 L29.7855864,55.8368145 L29.7855864,55.8368145 L29.6554001,55.808025 C29.6336144,55.8030811 29.6117818,55.7980665 29.5898979,55.7929842 L29.457944,55.7617013 L29.457944,55.7617013 L29.3245495,55.7289381 L29.3245495,55.7289381 L29.1212979,55.6773359 L29.1212979,55.6773359 L28.3328332,55.4703668 L28.3328332,55.4703668 L28.1028931,55.411241 L28.1028931,55.411241 L27.9453519,55.3716708 L27.9453519,55.3716708 L27.7841677,55.3321478 L27.7841677,55.3321478 L27.6191308,55.2928177 C27.5912919,55.2862868 27.5632838,55.2797701 27.535102,55.2732704 L27.3638928,55.2345023 L27.3638928,55.2345023 L27.1883065,55.1962907 L27.1883065,55.1962907 L27.0081333,55.1587811 L27.0081333,55.1587811 L26.8231636,55.1221191 C25.7922547,54.9230752 24.5341832,54.769089 22.8919109,54.769089 C21.4986092,54.769089 20.3818246,54.8799526 19.4456642,55.0351372 L19.2477881,55.0690451 C19.1501974,55.0863141 19.0546016,55.1040372 18.9608827,55.1221327 L18.7759126,55.158796 L18.7759126,55.158796 L18.5957379,55.1963069 C18.5364556,55.2089355 18.4779376,55.2216812 18.4201489,55.2345197 L18.248936,55.273289 L18.248936,55.273289 L18.0818896,55.3124693 C18.054384,55.3190256 18.0270434,55.3255928 17.9998632,55.3321682 L17.7594571,55.391481 L17.7594571,55.391481 L17.6036518,55.4310213 L17.6036518,55.4310213 L17.3761177,55.4899657 L17.3761177,55.4899657 L16.7313625,55.6595798 L16.7313625,55.6595798 L16.526701,55.7120745 L16.526701,55.7120745 L16.3924975,55.7455234 L16.3924975,55.7455234 L16.2598395,55.7775646 L16.2598395,55.7775646 L16.1285172,55.8080526 L16.1285172,55.8080526 L15.998321,55.8368417 L15.998321,55.8368417 L15.8690411,55.8637866 C15.8260773,55.8724447 15.7832312,55.8807712 15.740468,55.8887417 L15.6123919,55.9115616 C15.1647507,55.9875246 14.7223896,56.0215784 14.2448538,55.9856503 L14.1763907,55.9800387 C4.80348601,55.1536554 -5.17770137,28.4137623 3.06396678,19.8458014 L3.11693742,19.7896111 L3.11693742,19.7896111 L3.38019177,19.5040477 L3.38019177,19.5040477 L3.48951387,19.3874154 L3.60239805,19.2687887 L3.60239805,19.2687887 L3.72670843,19.140342 L3.72670843,19.140342 L3.81586318,19.0496327 L3.81586318,19.0496327 L3.90999615,18.9551249 L3.90999615,18.9551249 L4.00906732,18.8570451 L4.00906732,18.8570451 L4.11303665,18.7556196 L4.11303665,18.7556196 L4.22186411,18.6510749 L4.22186411,18.6510749 L4.33550967,18.5436373 C4.35484988,18.5255026 4.37438917,18.5072567 4.39412672,18.4889045 L4.51492436,18.3775522 L4.51492436,18.3775522 L4.64044001,18.2638731 C4.66175022,18.2447453 4.68325536,18.2255299 4.70495457,18.2062317 L4.83747218,18.0894869 C6.5004155,16.6383099 9.21701651,14.7853717 12.6493097,14.4419972 Z M28.2154381,1.47139215 C31.5082075,-0.696009577 36.5891392,0.0143915721 39.1764919,0.582322798 L39.3862407,0.629255874 C39.4202062,0.637001509 39.4536678,0.644703479 39.4866139,0.65235369 L39.6780137,0.697569123 C39.7088522,0.704979934 39.7391524,0.712322803 39.7689027,0.719589638 L39.9407146,0.762213507 L39.9407146,0.762213507 L40.0987796,0.802624155 L40.0987796,0.802624155 L40.3088972,0.858240692 L40.3088972,0.858240692 L40.484987,0.906692677 L40.484987,0.906692677 L40.5825581,0.934366344 L40.5825581,0.934366344 L40.7276495,0.976859462 L40.7276495,0.976859462 L40.8119,1.00263745 L40.8119,1.00263745 L40.7515643,1.13530138 L40.7515643,1.13530138 L40.6862968,1.27373736 L40.6862968,1.27373736 L40.621958,1.40683018 L40.621958,1.40683018 L40.5445046,1.56349218 L40.5445046,1.56349218 L40.4856165,1.68035381 L40.4856165,1.68035381 L40.4209498,1.80668009 L40.4209498,1.80668009 L40.3505246,1.94206679 L40.3505246,1.94206679 L40.2743609,2.08610971 L40.2743609,2.08610971 L40.1924788,2.23840463 L40.1924788,2.23840463 L40.1048983,2.39854731 C40.0898278,2.42586929 40.0745207,2.45350141 40.0589774,2.48143526 L39.9628869,2.6525917 L39.9628869,2.6525917 L39.8611482,2.83058537 C38.7458829,4.76421257 36.6700746,7.79574056 33.7432492,9.71759983 C31.224689,11.3736152 28.1311028,11.6029261 25.8614977,11.4762436 L25.6690107,11.4645382 C25.6372767,11.4624503 25.6057191,11.4602961 25.5743418,11.4580785 L25.3882756,11.4440386 C25.3269969,11.4391222 25.2664723,11.4339775 25.2067347,11.4286297 L25.0299148,11.4120016 C24.9717834,11.4062723 24.9144715,11.4003648 24.8580117,11.3943041 L24.6912213,11.375687 L24.6912213,11.375687 L24.5297393,11.3563003 C24.5032788,11.3530133 24.4770477,11.3497006 24.4510501,11.3463651 L24.2978977,11.3261048 L24.2978977,11.3261048 L24.1505432,11.3054493 L24.1505432,11.3054493 L24.0091823,11.2845486 L24.0091823,11.2845486 L23.8740108,11.2635524 L23.8740108,11.2635524 L23.7452244,11.2426107 L23.7452244,11.2426107 L23.6230191,11.2218731 L23.6230191,11.2218731 L23.5075904,11.2014897 L21.5358155,13.8958917 C21.7194869,14.1619944 21.9032781,14.426272 22.0870693,14.6896372 L22.6383231,15.4779076 L22.6383231,15.4779076 C21.5850941,15.4569199 20.722744,15.3382687 19.9663731,15.1771296 L19.8640702,15.0447543 L19.8640702,15.0447543 L19.707139,14.8443957 L19.707139,14.8443957 L19.6001498,14.7097104 L19.6001498,14.7097104 L19.4912256,14.5742024 L19.4912256,14.5742024 L19.3803316,14.4379293 L19.3803316,14.4379293 L19.2674332,14.3009491 C19.2484479,14.2780634 19.2293776,14.2551506 19.2102216,14.2322119 L19.0942518,14.0942793 L19.0942518,14.0942793 L18.9761911,13.9557841 C18.9563381,13.9326579 18.9363966,13.9095107 18.9163658,13.8863436 L18.7951037,13.7471129 L18.7951037,13.7471129 L18.6716642,13.6074641 L18.6716642,13.6074641 L18.5460125,13.467455 C18.5248843,13.4440933 18.5036625,13.4207191 18.4823463,13.3973334 L18.3533115,13.2568924 C18.2882223,13.1866131 18.2222712,13.1162529 18.1554385,13.0458444 L18.020592,12.9049724 C17.8392142,12.7170828 17.6514757,12.5290034 17.4570071,12.341351 L17.309888,12.2007013 C17.0872992,11.9898758 16.8560758,11.7797857 16.6156917,11.5713092 L16.4540728,11.4325735 C15.231666,10.3939935 13.7773231,9.40063083 12.0253037,8.562249 L11.9080607,8.50658769 L13.3216646,5.57343328 C15.3283308,6.54908822 16.9965382,8.08994134 18.5029547,9.86884357 L18.6530636,10.0475152 L18.6530636,10.0475152 L18.8021331,10.2277011 L18.8021331,10.2277011 L18.9502026,10.4093286 L18.9502026,10.4093286 L19.0973112,10.592325 C19.1217515,10.6229344 19.1461533,10.6535978 19.1705175,10.6843138 L19.3162585,10.8692272 L19.3162585,10.8692272 L19.4611368,11.0553277 L19.4611368,11.0553277 L19.6051918,11.2425427 L19.6051918,11.2425427 L19.7484625,11.4307995 L19.7484625,11.4307995 L19.8909883,11.6200253 L19.8909883,11.6200253 L20.0328086,11.8101474 L20.0328086,11.8101474 L20.1739624,12.0010932 L20.1739624,12.0010932 L20.3144891,12.19279 L20.3144891,12.19279 L20.4544279,12.385165 L20.4544279,12.385165 L20.5938182,12.5781455 L20.5938182,12.5781455 L20.8019608,12.8685927 L20.8711099,12.9656324 L22.8503321,10.2566052 L22.8760385,10.1441031 L22.8760385,10.1441031 L22.9040337,10.0251885 L22.9040337,10.0251885 L22.9504601,9.83531736 L22.9504601,9.83531736 L22.9844618,9.70141975 L22.9844618,9.70141975 L23.0209801,9.56194814 L23.0209801,9.56194814 L23.0600801,9.41714206 L23.0600801,9.41714206 L23.1018269,9.26724106 C23.1161908,9.21645153 23.1310068,9.16485277 23.1462856,9.1124847 L23.1935213,8.95311252 L23.1935213,8.95311252 L23.2435991,8.78936406 C23.2607727,8.73407847 23.2784307,8.67810343 23.2965842,8.62147887 L23.3525416,8.44969649 C23.4578947,8.13133611 23.5785615,7.79453515 23.7163476,7.44593602 L23.7932122,7.2546609 C24.6052482,5.26688576 25.9715656,2.9426669 28.2154381,1.47139215 Z" id="Shape"></path>
            </g>
        </g>
    </g>
</svg>