<?xml version="1.0" encoding="UTF-8"?>
<svg width="64px" height="64px" viewBox="0 0 64 64" version="1.1" xmlns="http://www.w3.org/2000/svg" xmlns:xlink="http://www.w3.org/1999/xlink">
    <title>ico_1@1x</title>
    <g id="Page-1" stroke="none" stroke-width="1" fill="none" fill-rule="evenodd">
        <g id="sl-2" transform="translate(-80.000000, -284.000000)" fill="#FFFFFF" fill-rule="nonzero">
            <g id="Shape-2" transform="translate(80.000000, 284.000000)">
                <path d="M46.1162204,0 C46.9384762,0 47.6044535,0.651371336 47.6044535,1.45440378 L47.6044535,10.3858897 C50.1589944,11.0398065 52.069817,13.3074245 52.069817,15.9997403 C52.069817,19.1956883 49.3866388,21.8180047 46.1162204,21.8180047 C42.845935,21.8180047 40.1626239,19.1958182 40.1626239,15.9997403 C40.1626239,13.3079439 42.072915,11.0399104 44.6279874,10.3858897 L44.6279874,1.45440378 C44.6279874,0.650838873 45.2945096,0 46.1162204,0 Z M17.8372681,0 C18.6595238,0 19.3255011,0.651371336 19.3255011,1.45440378 L19.3255011,10.3858897 C21.880042,11.0398065 23.7908647,13.3074245 23.7908647,15.9997403 C23.7908647,19.1956883 21.1076864,21.8180047 17.8372681,21.8180047 C14.5668498,21.8180047 11.8836716,19.1958182 11.8836716,15.9997403 C11.8836716,13.3079439 13.7939626,11.0399104 16.3490351,10.3858897 L16.3490351,1.45440378 C16.3490351,0.650838873 17.0155572,0 17.8372681,0 L17.8372681,0 Z M56.5347818,4.36372826 C60.6434691,4.36372826 64,7.6440938 64,11.6593859 L64,56.7044748 C64,60.7197669 60.6434691,64 56.5347818,64 L7.46521817,64 C3.35653091,64 0,60.7197669 0,56.7044748 L0,11.6593859 C0,7.6440938 3.35653091,4.36372826 7.46521817,4.36372826 L11.9071931,4.36372826 C12.693635,4.35270012 13.4188147,5.04972525 13.4188147,5.81826446 C13.4188147,6.58682965 12.693635,7.28383698 11.9071931,7.27266824 L7.46521817,7.27266824 C4.95692294,7.27266824 2.97713049,9.20745773 2.97713049,11.6587365 L2.97713049,24.7261629 L61.0234011,24.7261629 L61.0234011,11.6587365 C61.0234011,9.20745773 59.0436086,7.27266824 56.5353134,7.27266824 L52.0933385,7.27266824 C51.3068966,7.28382893 50.5817169,6.58680368 50.5817169,5.81826446 C50.5817169,5.04969927 51.3068966,4.35269194 52.0933385,4.36372826 L56.5347818,4.36372826 Z M40.186677,4.36386068 C41.0089327,4.36386068 41.67491,5.01523202 41.67491,5.81826446 C41.67491,6.62182937 41.0083878,7.27266824 40.186677,7.27266824 L23.8146519,7.27266824 C22.9923962,7.27266824 22.3264189,6.62129691 22.3264189,5.81826446 C22.3264189,5.01469956 22.9929411,4.36386068 23.8146519,4.36386068 L40.186677,4.36386068 Z M46.1168849,13.0909327 C44.4552307,13.0909327 43.1404189,14.3759223 43.1404189,15.9997403 C43.1404189,17.6236232 44.4552971,18.9085478 46.1168849,18.9085478 C47.7785391,18.9085478 49.0933509,17.6235583 49.0933509,15.9997403 C49.0933509,14.3758573 47.7784727,13.0909327 46.1168849,13.0909327 Z M17.8379326,13.0909327 C16.1762783,13.0909327 14.8614665,14.3759223 14.8614665,15.9997403 C14.8614665,17.6236232 16.1763448,18.9085478 17.8379326,18.9085478 C19.4995868,18.9085478 20.8143986,17.6235583 20.8143986,15.9997403 C20.8143986,14.3758573 19.4995204,13.0909327 17.8379326,13.0909327 L17.8379326,13.0909327 Z M61.0231353,27.6362692 L2.97686471,27.6362692 L2.97686471,56.7035657 C2.97686471,59.1548445 4.95718872,61.089634 7.46495239,61.089634 L56.5345161,61.089634 C59.0428113,61.089634 61.0231353,59.154325 61.0231353,56.7035657 L61.0231353,27.6362692 Z" id="Shape"></path>
            </g>
        </g>
    </g>
</svg>