<?xml version="1.0" encoding="UTF-8"?>
<svg width="56px" height="56px" viewBox="0 0 56 56" version="1.1" xmlns="http://www.w3.org/2000/svg" xmlns:xlink="http://www.w3.org/1999/xlink">
    <title>ico_10@1x</title>
    <g id="Page-1" stroke="none" stroke-width="1" fill="none" fill-rule="evenodd">
        <g id="sl-9" transform="translate(-562.000000, -476.000000)" fill="#FFFFFF" fill-rule="nonzero">
            <g id="ico_10" transform="translate(562.000000, 476.000000)">
                <path d="M33.1383673,38.4446165 L38.2756211,47.3500627 L33.6037812,55.4421408 C29.9641566,56.1769915 26.1685547,56.1858451 22.5246894,55.4687016 L22.3914455,55.4421408 L17.7198056,47.3500627 L22.8570594,38.4446165 L33.1383673,38.4446165 Z M16.3927659,48.1211273 L20.3272837,54.9341982 C15.8740313,53.6675851 11.8710504,51.3315932 8.62118029,48.2157841 L8.52293021,48.1211273 L16.3927659,48.1211273 Z M47.4723965,48.1141267 C44.2382667,51.2521947 40.2544359,53.6072931 35.8108382,54.8951007 L35.6760433,54.9337982 L39.6105611,48.1141267 L47.4723965,48.1141267 Z M16.3853656,28.7740061 L21.5296197,37.6724517 L16.3853656,46.5708974 L7.04248588,46.5708974 C4.59625631,43.8152067 2.68629921,40.5636718 1.47450629,36.9909442 L1.43251789,36.8661842 L6.11105799,28.7740061 L16.3853656,28.7740061 Z M49.891969,28.7739061 L54.5636088,36.8659842 C53.3745985,40.4461577 51.4726429,43.7003289 49.0387592,46.4741319 L48.9536409,46.5706974 L39.6107611,46.5706974 L34.4735073,37.6722517 L39.6106611,28.7739061 L49.891969,28.7739061 Z M33.1244669,19.1043958 L38.2687209,28.0168427 L33.1384673,36.9012871 L22.8571594,36.9012871 L17.7203056,28.0028415 L22.8571594,19.1043958 L33.1244669,19.1043958 Z M55.1544952,21.1620683 C56.2693986,25.5803135 56.2805476,30.2578169 55.194765,34.6880399 L55.1615267,34.8222129 L51.2200087,27.9884403 L55.1544952,21.1620683 Z M0.834099976,21.1756694 L4.775618,28.0024415 L0.834099976,34.8218129 C-0.266911992,30.4038647 -0.277922112,25.7333235 0.801069617,21.3096442 L0.834099976,21.1756694 Z M34.4664071,18.3466323 L39.6104611,9.42758498 L48.9533408,9.42758498 C51.3992397,12.1829031 53.309011,15.4270926 54.5208289,18.9926217 L54.5633088,19.118597 L49.8779685,27.2313768 L39.5966607,27.2313768 L34.4664071,18.3466323 Z M16.3919658,9.42708494 L21.5293197,18.3324312 L16.3920658,27.2308768 L6.10375777,27.2308768 L1.43211788,19.1317981 C2.62749089,15.5591267 4.52272124,12.2984966 6.9559829,9.52477841 L7.04208587,9.42708494 L16.3919658,9.42708494 Z M22.3987457,0.563132187 C26.0379752,-0.178664429 29.8271302,-0.187601738 33.4708402,0.536320262 L33.6040812,0.563132187 L38.2687209,8.64110908 L33.1244669,17.5535559 L22.8571594,17.5535559 L17.7199056,8.65511025 L22.3981457,0.563032179 L22.3987457,0.563132187 Z M35.6755433,1.06388415 C40.1284046,2.33010125 44.1244177,4.67295041 47.3741485,7.78889666 L47.4723965,7.8835556 L39.6100611,7.8835556 L35.6755433,1.06388415 Z M20.3264837,1.06388415 L16.3919658,7.8835556 L8.52213018,7.8835556 C11.7572501,4.75202219 15.7479516,2.39051987 20.1916867,1.1025836 L20.3264837,1.06388415 Z" id="Shape"></path>
            </g>
        </g>
    </g>
</svg>