<?xml version="1.0" encoding="UTF-8"?>
<svg width="48px" height="56px" viewBox="0 0 48 56" version="1.1" xmlns="http://www.w3.org/2000/svg" xmlns:xlink="http://www.w3.org/1999/xlink">
    <title>ico_9@1x</title>
    <g id="Page-1" stroke="none" stroke-width="1" fill="none" fill-rule="evenodd">
        <g id="sl-9" transform="translate(-306.000000, -476.000000)" fill="#FFFFFF" fill-rule="nonzero">
            <g id="Shape-11" transform="translate(306.000000, 476.000000)">
                <path d="M27.6159087,44.12131 C27.8812854,44.1982133 28.1874982,44.4497621 28.5486767,44.7953904 L28.6485533,44.8919247 L28.6485533,44.8919247 L28.8036181,45.0446787 L28.8036181,45.0446787 L29.2494407,45.4900221 L29.2494407,45.4900221 L29.3685861,45.6080269 C29.449077,45.6873842 29.5317035,45.7680356 29.6165504,45.849497 L29.7454967,45.9722359 C30.9865087,47.142876 32.687032,48.428811 35.0928097,48.428811 C36.7569992,48.428811 38.0537685,47.8613149 39.1047817,47.1374497 L39.2090684,47.0645572 L39.2090684,47.0645572 L39.3117437,46.9907135 C39.362683,46.9535692 39.4130282,46.9161024 39.4627945,46.8783646 L39.5615598,46.802543 C39.5778935,46.7898509 39.594164,46.7771325 39.6103719,46.7643897 L39.7068723,46.6876552 C39.7228319,46.6748224 39.73873,46.6619691 39.7545672,46.649097 L39.8488634,46.5716554 L39.8488634,46.5716554 L39.941724,46.4938565 L39.941724,46.4938565 L40.0331761,46.4157918 L40.0331761,46.4157918 L40.1232466,46.3375526 L40.1232466,46.3375526 L40.2119627,46.2592301 L40.2119627,46.2592301 L40.3425563,46.1417904 L40.3425563,46.1417904 L40.4702543,46.0246775 L40.4702543,46.0246775 L40.595148,45.9081997 L40.595148,45.9081997 L40.7574686,45.7544169 L40.7574686,45.7544169 L40.9151822,45.6030423 L40.9151822,45.6030423 L41.2431829,45.2857832 L41.2705307,45.2508911 L41.2705307,45.2508911 L41.3264487,45.1812332 C41.3358928,45.1696485 41.3453955,45.1580799 41.354951,45.1465329 L41.4128725,45.0775537 L41.4128725,45.0775537 L41.4717901,45.0093548 L41.4717901,45.0093548 L41.5314323,44.9421982 L41.5314323,44.9421982 L41.5915274,44.8763464 C41.6015659,44.8654943 41.611612,44.8547076 41.6216599,44.8439916 L41.6819251,44.7805884 C41.691958,44.7701772 41.7019815,44.7598478 41.7119899,44.7496054 L41.771814,44.6892408 L41.771814,44.6892408 L41.8310046,44.6312296 L41.8310046,44.6312296 L41.88929,44.5758341 L41.88929,44.5758341 L41.9463985,44.5233166 L41.9463985,44.5233166 L42.0020587,44.4739391 L42.0020587,44.4739391 L42.0559989,44.427964 C42.1619781,44.3395909 42.2560074,44.273205 42.3283085,44.2382459 L42.3417846,44.2261267 L42.3417846,44.2261267 L42.3575508,44.2130753 L42.3575508,44.2130753 L42.3783768,44.1972272 C42.4207566,44.1664631 42.4850201,44.128649 42.5512237,44.1225603 L42.5693123,44.1217154 L45.2224757,52.8529256 C45.4638995,53.5516303 45.3432066,54.4826891 44.86076,55.0649361 C44.1368225,55.9963483 43.0516753,56.1124734 42.3282439,55.762882 C37.5045063,53.085103 32.6807686,52.9689987 27.9776244,55.762882 C27.1334704,56.2281724 25.9276005,55.9955272 25.3244611,55.180635 C24.8518497,54.4963119 24.7267047,53.6999631 24.9487189,52.9014128 L24.9627453,52.8525202 L27.6159087,44.12131 Z M32.8019443,0 C36.1446878,0 38.7784807,2.51054395 38.8308223,5.72349085 L38.8316163,5.82106602 L38.8311956,17.1134312 L38.7222704,17.0440023 C38.7040459,17.0325011 38.6857856,17.0210364 38.6674883,17.0096105 L38.5572516,16.9415367 C37.5425177,16.3221029 36.4091787,15.8328537 34.9722055,15.8328537 C33.5252996,15.8328537 32.198761,16.298539 31.2339165,16.9969111 L31.1365373,16.9330631 C30.9753642,16.8285564 30.8581474,16.7787601 30.2626859,16.7584759 L30.1222765,16.7544438 L30.1222765,16.7544438 L29.964849,16.7513219 L29.964849,16.7513219 L29.7891299,16.7490487 L29.7891299,16.7490487 L29.5938457,16.7475627 L29.5938457,16.7475627 L29.377723,16.7468025 L29.377723,16.7468025 L29.1394882,16.7467066 L29.1394882,16.7467066 L28.7378904,16.747674 L28.7378904,16.747674 L28.1131488,16.7507156 L28.1131488,16.7507156 L25.5299505,16.7671812 L25.5299505,16.7671812 L23.776517,16.7765016 L23.776517,16.7765016 L22.7692989,16.7807078 L22.7692989,16.7807078 L21.6693492,16.7843349 L21.6693492,16.7843349 L20.4723701,16.7871753 L20.4723701,16.7871753 L19.1740635,16.7890218 L19.1740635,16.7890218 L18.2501104,16.7895981 L18.2501104,16.7895981 L16.7733737,16.7893271 L16.7733737,16.7893271 L15.7264876,16.7882998 L15.7264876,16.7882998 L14.6281997,16.7865234 L14.6281997,16.7865234 L13.4772366,16.7839366 L13.4772366,16.7839366 L12.2723248,16.7804778 L12.2723248,16.7804778 L11.0121909,16.7760857 L11.0121909,16.7760857 L9.69556138,16.7706987 L9.69556138,16.7706987 L8.32116276,16.7642555 L8.32116276,16.7642555 C7.59776363,16.7642555 7.11533603,17.346066 7.11533603,17.9283129 C7.11533603,18.6155691 7.58253873,19.0775271 8.2868968,19.0920193 L8.32116276,19.0923704 L28.8220477,19.0923704 L27.8572033,20.023793 L27.8572033,20.023793 C27.7768557,20.0703648 27.6686829,20.1148614 27.5375326,20.1589361 L27.4637465,20.182945 C27.4510787,20.1869428 27.4382283,20.1909396 27.425199,20.1949367 L27.3449044,20.2189319 C27.3311737,20.2229348 27.3172714,20.2269406 27.303201,20.2309502 L27.2167914,20.2550658 L27.2167914,20.2550658 L27.0799974,20.2915482 L27.0799974,20.2915482 L26.9351127,20.3285802 L26.9351127,20.3285802 L26.677261,20.3920682 L26.677261,20.3920682 L26.1128765,20.5283208 L26.1128765,20.5283208 L25.9223522,20.5752212 C25.8902157,20.5832128 25.8578974,20.591295 25.8254118,20.5994728 L25.6286037,20.649725 C24.9335471,20.8298945 24.1773011,21.0565084 23.492471,21.3747929 L23.3951383,21.4208906 L8.32095819,21.4208906 C7.71827093,21.4208906 7.11513145,22.002701 7.11513145,22.584948 C7.11513145,23.2722041 7.69883762,23.7341621 8.29224001,23.7486543 L8.32095819,23.7490054 L20.6214892,23.7490054 L20.5007773,23.8655359 C20.1535302,24.5362924 19.9175312,25.3141656 19.7924087,25.9931971 L19.7773458,26.0775464 L8.32096895,26.0775464 C7.7182817,26.0775464 7.11514222,26.5432317 7.11514222,27.2416038 C7.11514222,27.8141791 7.69884839,28.3871773 8.29225078,28.4052234 L8.32096895,28.4056612 L19.7773458,28.4060672 C19.8304591,28.7646289 19.9068608,29.1006202 19.9860572,29.4140837 L20.0294092,29.5828299 L20.0294092,29.5828299 L20.1353641,29.9851564 L20.1353641,29.9851564 L20.1748359,30.1382754 C20.206677,30.2640155 20.2356311,30.3851082 20.2597734,30.5015576 C20.3499495,30.5015576 20.3727608,30.5663627 20.3785313,30.64773 L20.3798927,30.6753998 L20.3798927,30.6753998 L20.3804059,30.7038992 L20.3804059,30.7038992 L20.3804853,30.7342132 L8.32114123,30.7342132 C7.71845397,30.7342132 7.11531449,31.1998985 7.11531449,31.8982706 C7.11531449,32.470846 7.69902067,33.0438441 8.29242305,33.0618903 L8.32114123,33.062328 L20.3804853,33.061922 C20.3804853,33.1667995 20.3560412,33.2715948 20.3291526,33.3657631 L20.2858472,33.5110623 C20.2706375,33.5637995 20.2597734,33.6092099 20.2597734,33.644169 C20.1045724,33.9435916 19.999431,34.339124 19.9120565,34.7381414 L19.8835453,34.8711492 L19.8835453,34.8711492 L19.8426649,35.0694773 L19.8426649,35.0694773 L19.7773458,35.390515 L8.32096895,35.390515 C7.59756982,35.390515 7.11514222,35.9723254 7.11514222,36.5545724 C7.11514222,37.1271478 7.58234492,37.7001459 8.28670299,37.7181921 L8.32096895,37.7186298 L19.7773458,37.7190358 C19.7773458,38.5339488 20.0183497,39.3488825 20.5007773,40.1637747 C21.1658543,41.3052765 22.1481998,42.053251 23.1977793,42.5685062 L23.3084988,42.621891 C23.4564272,42.6919432 23.6055072,42.7575224 23.7550475,42.8190731 L23.8672782,42.8644878 L23.8672782,42.8644878 L23.9796167,42.9084334 L23.9796167,42.9084334 L24.0919982,42.9509517 L24.0919982,42.9509517 L24.204358,42.9920845 C24.2230792,42.9988268 24.2417968,43.0055131 24.2605094,43.0121442 L24.3727149,43.0512766 C24.3914023,43.0576907 24.4100821,43.0640515 24.4287528,43.0703597 L24.5406583,43.1075856 C24.5592876,43.1136872 24.5779052,43.1197379 24.5965097,43.1257388 L24.7079693,43.161152 L24.7079693,43.161152 L24.8190508,43.1954087 L24.8190508,43.1954087 L24.9296891,43.2285507 L24.9296891,43.2285507 L25.0398197,43.2606197 L25.0398197,43.2606197 L25.1493775,43.2916574 L25.1493775,43.2916574 L25.2039215,43.3068025 L23.1539406,49.9425222 L6.02967204,49.9425222 C2.68692846,49.9425222 0.053135602,47.4322323 0.000794019193,44.2192905 L0,44.1217154 L0,5.82080678 C0,2.59385441 2.60036542,0.0512950074 5.92859572,0.000766514708 L6.02967204,0 L32.8019443,0 Z M34.9720978,18.2772294 C36.477048,18.2772294 37.5907548,19.0642052 38.5505624,19.9506676 L38.66064,20.0533541 C38.6788769,20.070529 38.6970603,20.087731 38.7151918,20.1049551 L38.8233723,20.2085261 C38.8413032,20.2258191 38.8591856,20.2431245 38.8770213,20.2604374 L38.983487,20.3643648 L38.983487,20.3643648 L39.088911,20.4682364 L39.088911,20.4682364 L39.5018083,20.8784717 L39.5018083,20.8784717 L39.6032382,20.9785443 L39.6032382,20.9785443 L39.7041123,21.0771529 L39.7041123,21.0771529 L39.8045118,21.1740629 C39.8379081,21.2060571 39.8712389,21.2377291 39.9045175,21.2690397 L40.0042106,21.3618485 C40.3360898,21.6673371 40.6641083,21.9327812 41.0017699,22.1190658 C41.373174,22.323981 41.8262974,22.4725559 42.3226178,22.6044521 L42.45902,22.64004 L42.45902,22.64004 L42.5973905,22.6749797 L42.5973905,22.6749797 L42.808257,22.7265649 L42.808257,22.7265649 L43.5327841,22.8986342 L43.5327841,22.8986342 L43.7543764,22.9526149 L43.7543764,22.9526149 L43.9026475,22.9897659 L43.9026475,22.9897659 L44.0511505,23.0280565 C44.0759106,23.0345432 44.1006732,23.0410848 44.1254346,23.0476851 L44.2739596,23.0880204 C45.5358085,23.4373604 46.7757289,23.9586507 47.5138157,25.1459892 C48.216904,26.3181345 48.0393229,27.6539613 47.7170219,28.9453349 L47.6799563,29.091327 L47.6799563,29.091327 L47.6418915,29.2368722 L47.6418915,29.2368722 L47.6030648,29.3819035 L47.6030648,29.3819035 L47.5439151,29.5983397 L47.5439151,29.5983397 L47.4058071,30.0970005 L47.4058071,30.0970005 L47.3673917,30.2375384 L47.3673917,30.2375384 L47.3298754,30.3770925 C47.3237108,30.4002658 47.3175935,30.4233954 47.3115285,30.4464797 L47.2758056,30.5844324 C47.1357404,31.1339847 47.031489,31.6559005 47.0313881,32.1308534 C47.0313881,32.5860166 47.1270818,33.0842887 47.2583103,33.608675 L47.2933104,33.7460526 L47.2933104,33.7460526 L47.3296853,33.884548 L47.3296853,33.884548 L47.3671976,34.024094 L47.3671976,34.024094 L47.4643976,34.3771158 L47.4643976,34.3771158 L47.5635153,34.7352376 L47.5635153,34.7352376 L47.6223637,34.952123 L47.6223637,34.952123 L47.6608423,35.097412 L47.6608423,35.097412 L47.6984411,35.2431817 C47.710801,35.2918443 47.7229748,35.3405759 47.7349227,35.3893653 L47.7700498,35.5358955 C48.0564727,36.7582389 48.1770796,38.0097124 47.5138157,39.1157176 C46.7614806,40.2659739 45.4873518,40.7865871 44.200076,41.1523222 L44.0515147,41.193862 L44.0515147,41.193862 L43.9030105,41.2341893 L43.9030105,41.2341893 L43.6807406,41.2927612 L43.6807406,41.2927612 L43.5331384,41.3307661 L43.5331384,41.3307661 L42.8796607,41.4961422 L42.8796607,41.4961422 L42.6675608,41.5509162 L42.6675608,41.5509162 L42.5282577,41.5878073 L42.5282577,41.5878073 L42.3908349,41.6251876 C41.8678728,41.7696234 41.3901798,41.9284139 41.0017699,42.1426411 C40.5796928,42.3463693 40.1651663,42.6883482 39.7374533,43.0867194 L39.6345384,43.1833694 L39.6345384,43.1833694 L39.5310534,43.2819333 L39.5310534,43.2819333 L39.4269346,43.3821597 L39.4269346,43.3821597 L38.9488492,43.8470099 L38.9488492,43.8470099 L38.8401059,43.9518852 L38.8401059,43.9518852 L38.7303149,44.0567886 L38.7303149,44.0567886 L38.6194122,44.1614684 C38.6008323,44.1788824 38.5822034,44.1962767 38.5635242,44.2136459 L38.4508348,44.317519 C37.4876641,45.1971747 36.3867687,45.9844775 34.9720978,45.9844775 C33.3803236,45.9844775 32.1897264,45.1040773 31.1797125,44.1567518 L31.070235,44.0531808 C31.0521046,44.0358877 31.0340312,44.0185823 31.0160136,44.0012695 L30.9085658,43.8973421 L30.9085658,43.8973421 L30.8023916,43.7934704 L30.8023916,43.7934704 L30.5936095,43.5868331 L30.5936095,43.5868331 L30.2883975,43.2831626 L30.2883975,43.2831626 L30.1885285,43.184554 L30.1885285,43.184554 L30.0894877,43.0876439 L30.0894877,43.0876439 L29.9912114,42.9926672 C29.9585729,42.9613565 29.9260513,42.9304072 29.8936359,42.8998584 L29.7966976,42.8094523 C29.5067748,42.5420726 29.2245951,42.3102972 28.9424258,42.1426411 C28.5710217,41.9377258 28.1120563,41.7891509 27.6079077,41.6572548 L27.4693243,41.6216669 L27.4693243,41.6216669 L27.3286913,41.5867272 L27.3286913,41.5867272 L27.1143171,41.535142 L27.1143171,41.535142 L26.8230947,41.4669619 L26.8230947,41.4669619 L26.3778152,41.3630726 L26.3778152,41.3630726 L26.1527718,41.3090919 L26.1527718,41.3090919 L26.0022904,41.271941 C25.9771932,41.2656591 25.9520903,41.2593298 25.9269856,41.2529493 L25.7763671,41.2140218 L25.7763671,41.2140218 L25.6258962,41.1736865 C24.3480608,40.8243465 23.1069092,40.3030562 22.43038,39.1157176 C21.7670892,37.9516602 21.8876961,36.6711607 22.1741257,35.4488172 L22.2092536,35.3024264 C22.2212019,35.2537299 22.2333759,35.2051377 22.2457361,35.1566608 L22.2833358,35.0115877 L22.2833358,35.0115877 L22.3218154,34.8672739 L22.3218154,34.8672739 L22.3609376,34.7237867 L22.3609376,34.7237867 L22.4203063,34.5102522 L22.4203063,34.5102522 L22.5769884,33.9523764 L22.5769884,33.9523764 L22.6145018,33.8158955 L22.6145018,33.8158955 L22.6508777,33.6807439 L22.6508777,33.6807439 L22.6858788,33.5469888 L22.6858788,33.5469888 L22.7192676,33.414697 C22.8330303,32.954315 22.9128076,32.5220553 22.9128076,32.1308534 C22.9128076,31.7397389 22.8330327,31.3024096 22.7192732,30.8350385 L22.6858854,30.7007004 L22.6858854,30.7007004 L22.6508853,30.5648112 C22.6449308,30.5420384 22.638919,30.5192044 22.6328549,30.4963111 L22.5769981,30.2887148 L22.5769981,30.2887148 L22.3806804,29.5771971 L22.3806804,29.5771971 L22.341327,29.4319167 L22.341327,29.4319167 L22.3024975,29.2858397 L22.3024975,29.2858397 L22.2644291,29.1390498 C22.258161,29.1145301 22.2519345,29.0899841 22.2457546,29.0654137 L22.209273,28.9177117 C21.8986257,27.6353256 21.7405855,26.2962347 22.43038,25.1459892 C23.1539945,24.0399736 24.3599289,23.5160984 25.5959982,23.1522993 L25.7444422,23.1093847 L25.7444422,23.1093847 L25.8930019,23.0678448 L25.8930019,23.0678448 L26.0415036,23.0275175 L26.0415036,23.0275175 L26.2637676,22.9689456 L26.2637676,22.9689456 L26.4113647,22.9309407 L26.4113647,22.9309407 L27.0648063,22.7655647 L27.0648063,22.7655647 L27.2768896,22.7107907 L27.2768896,22.7107907 L27.4161802,22.6738996 L27.4161802,22.6738996 L27.5535896,22.6365193 C28.0764982,22.4920835 28.5541149,22.333293 28.9424258,22.1190658 C29.3138536,21.9141505 29.6794343,21.6134531 30.0532995,21.2690355 L30.1554788,21.1740586 L30.1554788,21.1740586 L30.2581326,21.0771485 L30.2581326,21.0771485 L30.3613246,20.9785397 L30.3613246,20.9785397 L30.6220773,20.7261269 L30.6220773,20.7261269 L30.834057,20.5200734 L30.834057,20.5200734 L30.9953465,20.3643603 L30.9953465,20.3643603 L31.1040897,20.260433 L31.1040897,20.260433 L31.2138808,20.1566846 L31.2138808,20.1566846 L31.3247835,20.0533499 C32.3281003,19.125903 33.474211,18.2772294 34.9720978,18.2772294 Z M35.0926913,24.913157 C30.992299,24.913157 27.7364914,28.1727048 27.7364914,32.0145412 C27.7364914,35.9728977 31.1130001,39.1159255 35.0926913,39.1159255 C39.0723825,39.1159255 42.3281793,35.9728977 42.4488912,32.0145412 C42.4488912,28.0561847 39.0723825,24.913157 35.0926913,24.913157 Z M35.0924759,27.2416876 C37.823379,27.2416876 40.0370224,29.3786513 40.0370224,32.0145412 C40.0370224,34.650847 37.823379,36.7878107 35.0924759,36.7878107 C32.3620036,36.7878107 30.1483602,34.650847 30.1483602,32.0145412 C30.1483602,29.3786513 32.3620036,27.2416876 35.0924759,27.2416876 Z M16.0389276,12.107486 L8.32094742,12.107486 C7.59754828,12.107486 7.11512068,12.6892964 7.11512068,13.2715434 C7.11512068,13.8441187 7.58232338,14.4171169 8.28668146,14.4351631 L8.32094742,14.4356008 L16.0389276,14.4356008 C16.7627467,14.4356008 17.2451749,13.8537904 17.2447549,13.2715434 C17.2447549,12.6989681 16.6610482,12.1259699 16.0676458,12.1079238 L16.0389276,12.107486 Z" id="Shape"></path>
            </g>
        </g>
    </g>
</svg>