<?xml version="1.0" encoding="UTF-8"?>
<svg width="64px" height="64px" viewBox="0 0 64 64" version="1.1" xmlns="http://www.w3.org/2000/svg" xmlns:xlink="http://www.w3.org/1999/xlink">
    <title>Shape 7 Copy@1x</title>
    <g id="Page-1" stroke="none" stroke-width="1" fill="none" fill-rule="evenodd">
        <g id="Доработки-3" transform="translate(-648.000000, -3040.000000)" fill-rule="nonzero">
            <g id="Group-27" transform="translate(72.000000, 2616.000000)">
                <g id="Group-6" transform="translate(0.000000, 312.000000)">
                    <g id="Group-5" transform="translate(0.000000, 80.000000)">
                        <g id="Group-3" transform="translate(420.000000, 0.000000)">
                            <g id="Shape-6" transform="translate(156.000000, 32.000000)">
                                <path d="M21.3339384,61.0150274 C21.3334656,62.6609491 19.9943579,64 18.3488642,64 L13.0244251,64 C11.3780843,64 10.0393509,62.6609491 10.0393509,61.0150274 L10.0391089,56.4698053 C7.27148967,56.4698053 5.0191423,54.2180072 5.0191423,51.4504821 L5.01911962,40.2030994 L5.01849339,40.1800425 L5.01828385,36.3925128 L1.2549945,36.3925128 C0.562018749,36.3925128 0,35.830501 0,35.137561 L0,21.3344224 C0,20.6414702 0.56203085,20.0794706 1.2549945,20.0794706 L5.01828385,20.0794706 L5.01828385,11.2945661 C5.01828385,11.2790939 5.01856405,11.2636869 5.01911964,11.2483501 L5.0191423,5.01932312 C5.0191423,2.25179807 7.27101701,0 10.0386362,0 L53.9604184,0 C56.7280377,0 58.9799124,2.25179807 58.9799124,5.01932312 L58.979901,20.0794706 L62.7450055,20.0794706 C63.4379813,20.0794706 64,20.6414823 64,21.3344224 L64,35.137561 C64,35.8305131 63.4379692,36.3925128 62.7450055,36.3925128 L58.979901,36.3925128 L58.9799124,51.4492721 C58.9799124,54.2167962 56.7293104,56.4682903 53.9618731,56.469079 L53.9618592,61.0150274 C53.9613865,62.6609491 52.6227627,64 50.976785,64 L45.6523459,64 C44.0063682,64 42.6672717,62.6609491 42.6672717,61.0150274 L42.6672717,56.4698053 L21.3338174,56.4698053 L21.3339384,61.0150274 Z M51.4518218,56.4706523 L45.1772607,56.4706523 L45.1772607,61.0150274 C45.1772607,61.2768962 45.390444,61.4900722 45.6523217,61.4900722 L50.9767608,61.4900722 C51.2386385,61.4900722 51.4518218,61.2768962 51.4518218,61.0150274 L51.4518218,56.4706523 Z M18.8234169,56.4706523 L12.5488559,56.4706523 L12.5488559,61.0150274 C12.5488559,61.2768962 12.7620392,61.4900722 13.0239169,61.4900722 L18.348356,61.4900722 C18.6102337,61.4900722 18.8234169,61.2768962 18.8234169,61.0150274 L18.8234169,56.4706523 Z M56.4706381,12.5492759 L7.52911992,12.5492759 L7.52911992,21.3344224 L7.52911992,21.3344224 L7.52911992,35.137561 L7.52911992,35.1601891 L7.52911992,38.9019323 L25.0189343,38.9019323 L13.2204613,32.7213159 C12.6064324,32.3994161 12.3696159,31.6412418 12.6910426,31.0272339 C13.0124693,30.4136979 13.7706816,30.1768894 14.3851823,30.4978332 L30.4280804,38.9019323 L44.7490064,38.9019323 L32.0786565,32.7382568 C31.4556487,32.4352702 31.1961307,31.6841868 31.4991276,31.0607525 C31.8021245,30.4377659 32.5532334,30.1782568 33.1766889,30.4812433 L50.4863315,38.9019323 L56.4706381,38.9019323 L56.4706381,12.5492759 Z M61.490495,22.5888901 L58.980506,22.5888901 L58.980506,33.8826092 L61.490495,33.8826092 L61.490495,22.5888901 Z M5.01828385,22.5888901 L2.509989,22.5888901 L2.509989,33.8826092 L5.01828385,33.8826092 L5.01828385,22.5888901 Z" id="Shape" fill="#303337"></path>
                                <path d="M56.4708801,41.4118359 L7.52911992,41.4118359 L7.52911992,51.4495141 C7.52911992,52.8335791 8.65508147,53.9594177 10.0391089,53.9594177 L53.9608911,53.9594177 C55.3450032,53.9594177 56.4708801,52.8334944 56.4708801,51.4495141 L56.4708801,41.4118359 Z" id="Path" fill="#F0AA3B"></path>
                                <path d="M52.7060176,43.9212554 C53.3989933,43.9212554 53.9610121,44.4832672 53.9610121,45.1762072 L53.9610121,50.1955303 C53.9610121,50.8884825 53.3989812,51.4504821 52.7060176,51.4504821 L43.9214191,51.4504821 C43.2284434,51.4504821 42.6664246,50.8884704 42.6664246,50.1955303 L42.6664246,45.1762072 C42.6664246,44.4832551 43.2284555,43.9212554 43.9214191,43.9212554 L52.7060176,43.9212554 Z" id="Path" fill="#303337"></path>
                                <path d="M20.0780968,43.9212554 C20.7710726,43.9212554 21.3330913,44.4832672 21.3330913,45.1762072 L21.3330913,50.1955303 C21.3330913,50.8884825 20.7715324,51.4504821 20.0780968,51.4504821 L11.2934984,51.4504821 C10.6005226,51.4504821 10.0385039,50.8884704 10.0385039,50.1955303 L10.0385039,45.1762072 C10.0385039,44.4832551 10.6005347,43.9212554 11.2934984,43.9212554 L20.0780968,43.9212554 Z" id="Path" fill="#303337"></path>
                                <path d="M36.3926623,48.9405786 C37.085638,48.9405786 37.6476568,49.5025903 37.6476568,50.1955303 C37.6476568,50.8884825 37.0856259,51.4504821 36.3926623,51.4504821 L27.6080638,51.4504821 C26.9150881,51.4504821 26.3530693,50.8884704 26.3530693,50.1955303 C26.3530693,49.5025782 26.9151002,48.9405786 27.6080638,48.9405786 L36.3926623,48.9405786 Z" id="Path" fill="#303337"></path>
                                <polygon id="Path" fill="#FFFFFF" points="51.4515071 46.430675 45.1768977 46.430675 45.1768977 48.9405786 51.4515071 48.9405786"></polygon>
                                <path d="M38.9024092,43.9212554 C39.595385,43.9212554 40.1574037,44.4832672 40.1574037,45.1762072 C40.1569311,45.8696313 39.5949009,46.431159 38.9019252,46.431159 L25.0988009,46.431159 C24.4058251,46.431159 23.8438064,45.8691473 23.8438064,45.1762072 C23.8438064,44.4832551 24.4058372,43.9212554 25.0988009,43.9212554 L38.9024092,43.9212554 Z" id="Path" fill="#303337"></path>
                                <polygon id="Path" fill="#FFFFFF" points="18.8231023 46.430675 12.5484929 46.430675 12.5484929 48.9405786 18.8231023 48.9405786"></polygon>
                                <path d="M53.9604184,2.5084515 L10.0391089,2.50966156 C8.65499677,2.50966156 7.52911992,3.6355848 7.52911992,5.01956514 L7.52911992,10.0396143 L56.4708801,10.0396143 L56.4708801,5.01835508 C56.4708801,3.63429004 55.3444459,2.5084515 53.9604184,2.5084515 Z" id="Path" fill="#F0AA3B"></path>
                                <path d="M13.8037294,5.01992815 C14.4967051,5.01992815 15.0587239,5.58193988 15.0587239,6.27487994 C15.0587239,6.96782 14.496693,7.52983173 13.8037294,7.52983173 L11.2937404,7.52983173 C10.6007646,7.52983173 10.0387459,6.96782 10.0387459,6.27487994 C10.0387459,5.58193988 10.6007767,5.01992815 11.2937404,5.01992815 L13.8037294,5.01992815 Z" id="Path" fill="#303337"></path>
                                <path d="M45.1767767,5.01992815 C45.8697524,5.01992815 46.4317712,5.58193988 46.4317712,6.27487994 C46.4317712,6.96782 45.8702123,7.52983173 45.1772607,7.52983173 L18.8232233,7.52983173 C18.1302476,7.52983173 17.5682288,6.96782 17.5682288,6.27487994 C17.5682288,5.58193988 18.1302597,5.01992815 18.8232233,5.01992815 L45.1767767,5.01992815 Z" id="Path" fill="#303337"></path>
                                <path d="M52.7060176,5.01992815 C53.3989933,5.01992815 53.9610121,5.58193988 53.9610121,6.27487994 C53.9610121,6.96782 53.3989812,7.52983173 52.7060176,7.52983173 L50.1960286,7.52983173 C49.5030529,7.52983173 48.9410341,6.96782 48.9410341,6.27487994 C48.9410341,5.58193988 49.503065,5.01992815 50.1960286,5.01992815 L52.7060176,5.01992815 Z" id="Path" fill="#303337"></path>
                            </g>
                        </g>
                    </g>
                </g>
            </g>
        </g>
    </g>
</svg>