<?xml version="1.0" encoding="UTF-8"?>
<svg width="32px" height="32px" viewBox="0 0 32 32" version="1.1" xmlns="http://www.w3.org/2000/svg" xmlns:xlink="http://www.w3.org/1999/xlink">
    <title>noun-check-2197020@1x</title>
    <g id="Page-1" stroke="none" stroke-width="1" fill="none" fill-rule="evenodd">
        <g id="Доработки-3" transform="translate(-244.000000, -2424.000000)" fill="#FEC311" fill-rule="nonzero">
            <g id="Group-22" transform="translate(72.000000, 2344.000000)">
                <g id="Group-19" transform="translate(0.000000, 80.000000)">
                    <g id="noun-check-2197020" transform="translate(172.000000, 0.000000)">
                        <path d="M16,32 C7.17746523,32 0,24.8225348 0,16 C0,7.17746523 7.17746523,0 16,0 C24.8225348,0 32,7.17746523 32,16 C32,24.8225348 24.8225348,32 16,32 Z M16,2.90926092 C8.78201582,2.90926092 2.90926092,8.78207815 2.90926092,16 C2.90926092,23.2186076 8.78207815,29.0907391 16,29.0907391 C23.2186076,29.0907391 29.0907391,23.2186699 29.0907391,16 C29.0907391,8.78201582 23.2186699,2.90926092 16,2.90926092 Z M14.5974208,21.6720302 L23.8538201,12.415631 C24.4219145,11.8475365 24.4219145,10.9270893 23.8538201,10.3587642 C23.2857256,9.79066973 22.3652784,9.79066973 21.7969533,10.3587642 L13.5691121,18.5866054 L10.4831885,15.5006818 C9.91509409,14.9325874 8.99464682,14.9325874 8.42632174,15.5006818 C7.8582273,16.0687762 7.8582273,16.9892235 8.42632174,17.5582966 L12.540554,21.6717809 C12.8247228,21.9559497 13.1967741,22.0979094 13.5688627,22.0979094 C13.9414252,22.0979094 14.3134764,21.9557065 14.5976702,21.6717809 L14.5974208,21.6720302 Z" id="Shape"></path>
                    </g>
                </g>
            </g>
        </g>
    </g>
</svg>