<?xml version="1.0" encoding="UTF-8"?>
<svg width="170px" height="237px" viewBox="0 0 170 237" version="1.1" xmlns="http://www.w3.org/2000/svg" xmlns:xlink="http://www.w3.org/1999/xlink">
    <title>img 5@1x</title>
    <defs>
        <rect id="path-1" x="0" y="0" width="168" height="146"></rect>
    </defs>
    <g id="Page-1" stroke="none" stroke-width="1" fill="none" fill-rule="evenodd">
        <g id="Доработки-3" transform="translate(-303.000000, -5066.000000)">
            <g id="img-5" transform="translate(303.000000, 5066.000000)">
                <polygon id="Path" fill="#FFFFFF" fill-rule="nonzero" points="167.343 1.0149 1.015 1.0149 1.015 235.0734 167.343 235.0734"></polygon>
                <path d="M167.333,1.015 L167.333,235.0744 L1.015,235.0744 L1.015,1.015 L167.333,1.015 Z M167.333,0 L1.015,0 C0.746,0 0.488,0.1069 0.297,0.2973 C0.107,0.4876 -1.42108547e-14,0.7458 -1.42108547e-14,1.015 L-1.42108547e-14,235.0744 C-1.42108547e-14,235.3434 0.107,235.6014 0.297,235.7914 C0.488,235.9824 0.746,236.0894 1.015,236.0894 L167.333,236.0894 C167.602,236.0894 167.86,235.9824 168.051,235.7914 C168.241,235.6014 168.348,235.3434 168.348,235.0744 L168.348,1.015 C168.348,0.7458 168.241,0.4876 168.051,0.2973 C167.86,0.1069 167.602,0 167.333,0 Z" id="Shape" fill="#2B2D30" fill-rule="nonzero"></path>
                <path d="M21.538,177.5034 C21.629,177.3714 21.7,177.2494 21.792,177.1374 C22.33,176.3424 23.083,175.7154 23.964,175.3314 C24.813,174.9684 25.753,174.8714 26.659,175.0524 C27.564,175.2334 28.394,175.6844 29.039,176.3464 C29.69,177.0144 30.107,177.8764 30.226,178.8024 C30.303,179.4024 30.303,180.0094 30.226,180.6094 C30.181,181.1914 30.058,181.7644 29.861,182.3144 C29.545,183.1834 29.058,183.9804 28.43,184.6584 C27.791,185.3534 27.113,186.0104 26.4,186.6284 L22.695,189.8764 C22.34,190.1904 21.985,190.5354 21.68,190.8914 L21.609,190.9514 L21.355,190.7084 C20.158,189.5814 18.919,188.4954 17.681,187.4194 C16.869,186.7194 16.057,186.0194 15.296,185.2574 C14.735,184.7174 14.248,184.1064 13.844,183.4404 C13.414,182.7344 13.135,181.9464 13.022,181.1264 C12.924,180.5234 12.887,179.9114 12.911,179.2994 C12.932,178.4094 13.228,177.5474 13.756,176.8294 C14.284,176.1124 15.02,175.5754 15.864,175.2904 C16.703,174.9854 17.613,174.9334 18.48,175.1414 C19.348,175.3484 20.136,175.8064 20.746,176.4574 C21.06,176.7624 21.336,177.1024 21.569,177.4724 L21.538,177.5034 Z" id="Path" fill="#E7A246" fill-rule="nonzero"></path>
                <path d="M52.222,191.3374 C52.128,191.3354 52.037,191.3074 51.958,191.2564 L48.994,189.4704 C47.911,189.8614 46.766,190.0544 45.614,190.0384 C40.661,190.0384 36.632,186.5564 36.6419814,182.2834 C36.653,181.2264 36.898,180.1844 37.357,179.2314 C37.817,178.2794 38.481,177.4394 39.301,176.7724 C41.074,175.3014 43.311,174.5064 45.614,174.5294 C47.923,174.5034 50.166,175.3024 51.938,176.7824 C52.758,177.4494 53.422,178.2894 53.882,179.2414 C54.341,180.1944 54.585,181.2364 54.597,182.2944 C54.584,184.0634 53.911,185.7644 52.709,187.0644 L52.709,190.8704 C52.709,190.9604 52.684,191.0484 52.638,191.1254 C52.591,191.2024 52.525,191.2654 52.445,191.3074 C52.374,191.3334 52.298,191.3444 52.222,191.3374 Z M49.045,188.4044 C49.138,188.4024 49.23,188.4264 49.309,188.4754 L51.715,189.9264 L51.715,186.8814 C51.716,186.7494 51.767,186.6234 51.857,186.5264 C52.951,185.4074 53.573,183.9094 53.592,182.3444 C53.578,181.4344 53.364,180.5384 52.966,179.7194 C52.568,178.9004 51.995,178.1784 51.288,177.6044 C49.704,176.2724 47.694,175.5524 45.625,175.5744 C43.559,175.5584 41.555,176.2784 39.971,177.6044 C39.264,178.1784 38.691,178.9004 38.293,179.7194 C37.895,180.5384 37.681,181.4344 37.667,182.3444 C37.667,186.0594 41.23,189.0844 45.625,189.0844 C46.731,189.0894 47.829,188.8894 48.862,188.4954 L49.045,188.4044 Z" id="Shape" fill="#E1E5E9" fill-rule="nonzero"></path>
                <path d="M69.021,190.5254 L68.95,190.5254 C68.846,190.5104 68.751,190.4624 68.676,190.3894 C68.601,190.3174 68.551,190.2224 68.533,190.1194 L67.376,183.7554 L60.271,180.0914 C60.179,180.0454 60.104,179.9714 60.057,179.8804 C60.01,179.7894 59.992,179.6854 60.007,179.5844 C60.019,179.4804 60.062,179.3834 60.131,179.3054 C60.2,179.2264 60.292,179.1714 60.393,179.1474 L76.501,175.3924 C76.597,175.3724 76.696,175.3794 76.788,175.4134 C76.879,175.4474 76.96,175.5074 77.019,175.5844 C77.074,175.6654 77.103,175.7614 77.103,175.8594 C77.103,175.9564 77.074,176.0524 77.019,176.1334 L69.396,190.2614 C69.359,190.3324 69.305,190.3924 69.24,190.4384 C69.175,190.4844 69.1,190.5144 69.021,190.5254 Z M61.997,179.8174 L68.087,182.9534 C68.155,182.9914 68.214,183.0434 68.26,183.1064 C68.305,183.1704 68.336,183.2424 68.351,183.3194 L69.295,188.5054 L75.699,176.6304 L61.997,179.8174 Z" id="Shape" fill="#E1E5E9" fill-rule="nonzero"></path>
                <path d="M67.822,183.9074 C67.718,183.9084 67.616,183.8774 67.53,183.8184 C67.444,183.7604 67.379,183.6764 67.342,183.5784 C67.305,183.4804 67.3,183.3744 67.326,183.2734 C67.352,183.1724 67.408,183.0824 67.487,183.0144 L76.318,175.4934 C76.369,175.4504 76.427,175.4174 76.491,175.3964 C76.554,175.3754 76.621,175.3684 76.687,175.3734 C76.754,175.3784 76.819,175.3964 76.878,175.4264 C76.937,175.4574 76.99,175.4984 77.034,175.5494 C77.077,175.5994 77.11,175.6584 77.13,175.7224 C77.151,175.7854 77.159,175.8524 77.154,175.9184 C77.149,175.9854 77.13,176.0494 77.1,176.1094 C77.07,176.1684 77.028,176.2214 76.978,176.2644 L68.147,183.7964 C68.056,183.8714 67.941,183.9114 67.822,183.9074 Z" id="Path" fill="#E1E5E9" fill-rule="nonzero"></path>
                <path d="M157.437,190.4144 C157.31,190.4154 157.187,190.3674 157.092,190.2824 L151.784,185.4404 L145.582,190.3124 C145.506,190.3694 145.415,190.4044 145.32,190.4134 C145.225,190.4224 145.13,190.4054 145.044,190.3634 C144.959,190.3214 144.887,190.2564 144.837,190.1754 C144.786,190.0954 144.76,190.0014 144.76,189.9064 L144.76,175.8994 C144.76,175.7654 144.813,175.6354 144.909,175.5404 C145.004,175.4454 145.133,175.3924 145.267,175.3924 L157.447,175.3924 C157.582,175.3924 157.711,175.4454 157.806,175.5404 C157.901,175.6354 157.955,175.7654 157.955,175.8994 L157.955,189.9064 C157.954,190.0054 157.925,190.1014 157.871,190.1844 C157.817,190.2674 157.74,190.3324 157.65,190.3734 C157.584,190.4044 157.511,190.4174 157.437,190.4144 Z M145.775,176.4274 L145.775,188.8714 L151.5,184.3744 C151.59,184.2974 151.705,184.2544 151.824,184.2544 C151.944,184.2544 152.059,184.2974 152.149,184.3744 L156.93,188.7294 L156.93,176.4274 L145.775,176.4274 Z" id="Shape" fill="#E1E5E9" fill-rule="nonzero"></path>
                <path d="M16.557,197.5254 C16.92,197.5284 17.283,197.5974 17.647,197.7324 C18.01,197.8684 18.341,198.0934 18.641,198.4074 C18.941,198.7184 19.182,199.1444 19.364,199.6834 C19.545,200.2224 19.636,200.8984 19.636,201.7124 C19.636,202.4994 19.561,203.1984 19.411,203.8094 C19.264,204.4184 19.051,204.9314 18.771,205.3494 C18.494,205.7674 18.157,206.0844 17.759,206.3014 C17.364,206.5174 16.917,206.6254 16.418,206.6254 C15.922,206.6254 15.48,206.5274 15.09,206.3314 C14.704,206.1324 14.387,205.8574 14.139,205.5054 C13.894,205.1504 13.736,204.7394 13.667,204.2724 L14.723,204.2724 C14.818,204.6794 15.007,205.0154 15.289,205.2804 C15.575,205.5424 15.951,205.6744 16.418,205.6744 C17.102,205.6744 17.641,205.3754 18.036,204.7784 C18.434,204.1814 18.633,203.3384 18.633,202.2484 L18.563,202.2484 C18.402,202.4904 18.21,202.6994 17.988,202.8754 C17.766,203.0514 17.52,203.1864 17.249,203.2824 C16.978,203.3774 16.689,203.4244 16.384,203.4244 C15.876,203.4244 15.41,203.2994 14.986,203.0484 C14.565,202.7944 14.228,202.4474 13.974,202.0064 C13.723,201.5624 13.598,201.0544 13.598,200.4834 C13.598,199.9414 13.719,199.4454 13.961,198.9954 C14.206,198.5434 14.55,198.1824 14.991,197.9144 C15.435,197.6464 15.957,197.5164 16.557,197.5254 Z M16.557,198.4764 C16.193,198.4764 15.866,198.5674 15.575,198.7494 C15.286,198.9284 15.057,199.1704 14.887,199.4754 C14.72,199.7784 14.636,200.1144 14.636,200.4834 C14.636,200.8524 14.717,201.1884 14.878,201.4914 C15.043,201.7914 15.266,202.0304 15.549,202.2094 C15.834,202.3854 16.159,202.4734 16.522,202.4734 C16.796,202.4734 17.051,202.4194 17.288,202.3134 C17.524,202.2034 17.73,202.0554 17.906,201.8674 C18.085,201.6774 18.225,201.4624 18.326,201.2234 C18.427,200.9814 18.477,200.7284 18.477,200.4664 C18.477,200.1204 18.393,199.7954 18.226,199.4934 C18.062,199.1904 17.834,198.9454 17.543,198.7574 C17.254,198.5704 16.926,198.4764 16.557,198.4764 Z M24.157,197.5254 C24.52,197.5284 24.884,197.5974 25.247,197.7324 C25.61,197.8684 25.942,198.0934 26.242,198.4074 C26.542,198.7184 26.783,199.1444 26.964,199.6834 C27.146,200.2224 27.237,200.8984 27.237,201.7124 C27.237,202.4994 27.162,203.1984 27.012,203.8094 C26.865,204.4184 26.651,204.9314 26.372,205.3494 C26.095,205.7674 25.758,206.0844 25.36,206.3014 C24.965,206.5174 24.518,206.6254 24.019,206.6254 C23.523,206.6254 23.08,206.5274 22.691,206.3314 C22.304,206.1324 21.987,205.8574 21.739,205.5054 C21.494,205.1504 21.337,204.7394 21.268,204.2724 L22.323,204.2724 C22.418,204.6794 22.607,205.0154 22.89,205.2804 C23.175,205.5424 23.552,205.6744 24.019,205.6744 C24.702,205.6744 25.241,205.3754 25.636,204.7784 C26.034,204.1814 26.233,203.3384 26.233,202.2484 L26.164,202.2484 C26.003,202.4904 25.811,202.6994 25.589,202.8754 C25.367,203.0514 25.12,203.1864 24.849,203.2824 C24.578,203.3774 24.29,203.4244 23.984,203.4244 C23.477,203.4244 23.011,203.2994 22.587,203.0484 C22.166,202.7944 21.829,202.4474 21.575,202.0064 C21.324,201.5624 21.199,201.0544 21.199,200.4834 C21.199,199.9414 21.32,199.4454 21.562,198.9954 C21.807,198.5434 22.15,198.1824 22.591,197.9144 C23.035,197.6464 23.557,197.5164 24.157,197.5254 Z M24.157,198.4764 C23.794,198.4764 23.467,198.5674 23.175,198.7494 C22.887,198.9284 22.658,199.1704 22.488,199.4754 C22.32,199.7784 22.237,200.1144 22.237,200.4834 C22.237,200.8524 22.317,201.1884 22.479,201.4914 C22.643,201.7914 22.867,202.0304 23.149,202.2094 C23.435,202.3854 23.759,202.4734 24.123,202.4734 C24.396,202.4734 24.652,202.4194 24.888,202.3134 C25.125,202.2034 25.331,202.0554 25.507,201.8674 C25.685,201.6774 25.825,201.4624 25.926,201.2234 C26.027,200.9814 26.078,200.7284 26.078,200.4664 C26.078,200.1204 25.994,199.7954 25.827,199.4934 C25.662,199.1904 25.435,198.9454 25.143,198.7574 C24.855,198.5704 24.526,198.4764 24.157,198.4764 Z M31.758,197.5254 C32.121,197.5284 32.484,197.5974 32.848,197.7324 C33.211,197.8684 33.543,198.0934 33.843,198.4074 C34.142,198.7184 34.383,199.1444 34.565,199.6834 C34.747,200.2224 34.837,200.8984 34.837,201.7124 C34.837,202.4994 34.762,203.1984 34.612,203.8094 C34.465,204.4184 34.252,204.9314 33.972,205.3494 C33.695,205.7674 33.358,206.0844 32.96,206.3014 C32.565,206.5174 32.118,206.6254 31.619,206.6254 C31.123,206.6254 30.681,206.5274 30.291,206.3314 C29.905,206.1324 29.588,205.8574 29.34,205.5054 C29.095,205.1504 28.938,204.7394 28.868,204.2724 L29.924,204.2724 C30.019,204.6794 30.208,205.0154 30.49,205.2804 C30.776,205.5424 31.152,205.6744 31.619,205.6744 C32.303,205.6744 32.842,205.3754 33.237,204.7784 C33.635,204.1814 33.834,203.3384 33.834,202.2484 L33.765,202.2484 C33.603,202.4904 33.411,202.6994 33.189,202.8754 C32.967,203.0514 32.721,203.1864 32.45,203.2824 C32.179,203.3774 31.89,203.4244 31.585,203.4244 C31.077,203.4244 30.612,203.2994 30.188,203.0484 C29.767,202.7944 29.429,202.4474 29.176,202.0064 C28.925,201.5624 28.799,201.0544 28.799,200.4834 C28.799,199.9414 28.92,199.4454 29.163,198.9954 C29.408,198.5434 29.751,198.1824 30.192,197.9144 C30.636,197.6464 31.158,197.5164 31.758,197.5254 Z M31.758,198.4764 C31.394,198.4764 31.067,198.5674 30.776,198.7494 C30.488,198.9284 30.258,199.1704 30.088,199.4754 C29.921,199.7784 29.837,200.1144 29.837,200.4834 C29.837,200.8524 29.918,201.1884 30.08,201.4914 C30.244,201.7914 30.467,202.0304 30.75,202.2094 C31.035,202.3854 31.36,202.4734 31.723,202.4734 C31.997,202.4734 32.252,202.4194 32.489,202.3134 C32.725,202.2034 32.931,202.0554 33.107,201.8674 C33.286,201.6774 33.426,201.4624 33.527,201.2234 C33.628,200.9814 33.678,200.7284 33.678,200.4664 C33.678,200.1204 33.595,199.7954 33.427,199.4934 C33.263,199.1904 33.035,198.9454 32.744,198.7574 C32.456,198.5704 32.127,198.4764 31.758,198.4764 Z M40.12,206.5044 L40.12,197.6464 L41.192,197.6464 L41.192,205.5524 L45.31,205.5524 L45.31,206.5044 L40.12,206.5044 Z M46.832,206.5044 L46.832,199.8604 L47.853,199.8604 L47.853,206.5044 L46.832,206.5044 Z M47.351,198.7534 C47.153,198.7534 46.981,198.6854 46.837,198.5504 C46.695,198.4144 46.625,198.2514 46.625,198.0614 C46.625,197.8714 46.695,197.7084 46.837,197.5724 C46.981,197.4374 47.153,197.3694 47.351,197.3694 C47.55,197.3694 47.721,197.4374 47.862,197.5724 C48.006,197.7084 48.078,197.8714 48.078,198.0614 C48.078,198.2514 48.006,198.4144 47.862,198.5504 C47.721,198.6854 47.55,198.7534 47.351,198.7534 Z M50.674,204.0824 L50.657,202.8194 L50.865,202.8194 L53.771,199.8604 L55.034,199.8604 L51.937,202.9924 L51.851,202.9924 L50.674,204.0824 Z M49.723,206.5044 L49.723,197.6464 L50.744,197.6464 L50.744,206.5044 L49.723,206.5044 Z M53.944,206.5044 L51.349,203.2174 L52.076,202.5074 L55.242,206.5044 L53.944,206.5044 Z M58.86,206.6424 C58.22,206.6424 57.668,206.5014 57.203,206.2184 C56.742,205.9334 56.386,205.5354 56.135,205.0254 C55.887,204.5114 55.763,203.9154 55.763,203.2344 C55.763,202.5544 55.887,201.9544 56.135,201.4354 C56.386,200.9134 56.735,200.5064 57.182,200.2154 C57.632,199.9214 58.156,199.7744 58.756,199.7744 C59.102,199.7744 59.444,199.8314 59.781,199.9474 C60.119,200.0624 60.426,200.2504 60.703,200.5094 C60.979,200.7664 61.2,201.1064 61.364,201.5304 C61.529,201.9544 61.611,202.4764 61.611,203.0964 L61.611,203.5284 L56.49,203.5284 L56.49,202.6464 L60.573,202.6464 C60.573,202.2714 60.498,201.9364 60.348,201.6424 C60.201,201.3484 59.99,201.1164 59.716,200.9464 C59.445,200.7764 59.125,200.6914 58.756,200.6914 C58.35,200.6914 57.998,200.7924 57.701,200.9944 C57.407,201.1934 57.18,201.4524 57.022,201.7724 C56.863,202.0924 56.784,202.4354 56.784,202.8024 L56.784,203.3904 C56.784,203.8914 56.87,204.3174 57.043,204.6664 C57.219,205.0124 57.463,205.2764 57.774,205.4574 C58.086,205.6364 58.448,205.7254 58.86,205.7254 C59.128,205.7254 59.37,205.6884 59.587,205.6134 C59.806,205.5354 59.995,205.4204 60.153,205.2674 C60.312,205.1114 60.434,204.9184 60.521,204.6874 L61.507,204.9644 C61.403,205.2994 61.229,205.5934 60.984,205.8474 C60.739,206.0974 60.436,206.2934 60.075,206.4354 C59.715,206.5734 59.31,206.6424 58.86,206.6424 Z M67.87,201.3484 L66.953,201.6084 C66.895,201.4554 66.81,201.3064 66.697,201.1624 C66.588,201.0154 66.438,200.8944 66.248,200.7994 C66.057,200.7044 65.814,200.6564 65.517,200.6564 C65.11,200.6564 64.771,200.7504 64.5,200.9374 C64.232,201.1224 64.098,201.3574 64.098,201.6424 C64.098,201.8964 64.19,202.0964 64.375,202.2444 C64.559,202.3914 64.848,202.5134 65.24,202.6114 L66.226,202.8534 C66.82,202.9984 67.263,203.2184 67.554,203.5154 C67.845,203.8094 67.991,204.1884 67.991,204.6534 C67.991,205.0334 67.881,205.3744 67.662,205.6744 C67.446,205.9734 67.143,206.2104 66.754,206.3834 C66.364,206.5564 65.912,206.6424 65.395,206.6424 C64.718,206.6424 64.157,206.4954 63.713,206.2014 C63.269,205.9074 62.988,205.4774 62.87,204.9124 L63.838,204.6704 C63.931,205.0284 64.105,205.2964 64.362,205.4754 C64.621,205.6534 64.96,205.7434 65.378,205.7434 C65.854,205.7434 66.232,205.6424 66.511,205.4404 C66.794,205.2354 66.935,204.9904 66.935,204.7054 C66.935,204.4744 66.855,204.2814 66.693,204.1254 C66.532,203.9664 66.284,203.8484 65.949,203.7704 L64.842,203.5114 C64.233,203.3674 63.786,203.1434 63.501,202.8404 C63.218,202.5354 63.077,202.1534 63.077,201.6944 C63.077,201.3194 63.182,200.9884 63.393,200.6994 C63.606,200.4114 63.896,200.1854 64.262,200.0204 C64.631,199.8564 65.049,199.7744 65.517,199.7744 C66.174,199.7744 66.69,199.9184 67.065,200.2064 C67.443,200.4954 67.711,200.8754 67.87,201.3484 Z" id="Shape" fill="#E1E5E9" fill-rule="nonzero"></path>
                <path d="M145.267,217.5754 L13.317,217.5754 C13.183,217.5754 13.054,217.5214 12.958,217.4264 C12.863,217.3314 12.81,217.2024 12.81,217.0674 C12.81,216.9334 12.863,216.8044 12.958,216.7094 C13.054,216.6134 13.183,216.5604 13.317,216.5604 L145.267,216.5604 C145.402,216.5604 145.531,216.6134 145.626,216.7094 C145.721,216.8044 145.775,216.9334 145.775,217.0674 C145.775,217.2024 145.721,217.3314 145.626,217.4264 C145.531,217.5214 145.402,217.5754 145.267,217.5754 Z" id="Path" fill="#E1E5E9" fill-rule="nonzero"></path>
                <path d="M123.84,223.6754 L13.297,223.6754 C13.162,223.6754 13.033,223.6224 12.938,223.5274 C12.843,223.4314 12.789,223.3024 12.789,223.1684 C12.789,223.0334 12.843,222.9044 12.938,222.8094 C13.033,222.7144 13.162,222.6604 13.297,222.6604 L123.84,222.6604 C123.975,222.6604 124.104,222.7144 124.199,222.8094 C124.294,222.9044 124.348,223.0334 124.348,223.1684 C124.345,223.3014 124.291,223.4294 124.196,223.5244 C124.102,223.6184 123.974,223.6734 123.84,223.6754 Z" id="Path" fill="#E1E5E9" fill-rule="nonzero"></path>
                <polygon id="Path" fill="#FFFFFF" fill-rule="nonzero" points="167.343 24.1672 1.015 24.1672 1.015 169.1094 167.343 169.1094"></polygon>
                <path d="M167.333,24.1671 L167.333,169.1094 L1.015,169.1094 L1.015,24.1671 L167.333,24.1671 Z M167.333,23.1521 L1.015,23.1521 C0.746,23.1521 0.488,23.259 0.297,23.4494 C0.107,23.6397 -1.42108547e-14,23.8979 -1.42108547e-14,24.1671 L-1.42108547e-14,169.1094 C-1.42108547e-14,169.3784 0.107,169.6364 0.297,169.8264 C0.488,170.0174 0.746,170.1244 1.015,170.1244 L167.333,170.1244 C167.602,170.1244 167.86,170.0174 168.051,169.8264 C168.241,169.6364 168.348,169.3784 168.348,169.1094 L168.348,24.1671 C168.348,23.8979 168.241,23.6397 168.051,23.4494 C167.86,23.259 167.602,23.1521 167.333,23.1521 Z" id="Shape" fill="#2B2D30" fill-rule="nonzero"></path>
                <path d="M17.875,139.3594 C17.74,139.3594 17.611,139.3064 17.516,139.2104 C17.421,139.1154 17.367,138.9864 17.367,138.8524 L17.266,55.622 C17.266,55.4874 17.319,55.3583 17.414,55.2631 C17.51,55.1679 17.639,55.1145 17.773,55.1145 C17.908,55.1145 18.037,55.1679 18.132,55.2631 C18.227,55.3583 18.281,55.4874 18.281,55.622 L18.382,138.8524 C18.382,138.9864 18.329,139.1154 18.234,139.2104 C18.138,139.3064 18.009,139.3594 17.875,139.3594 Z" id="Path" fill="#E1E5E9" fill-rule="nonzero"></path>
                <path d="M141.329,153.660776 L141.167,153.660776 C141.044,153.6214 140.942,153.5354 140.881,153.4214 C140.821,153.3084 140.807,153.1754 140.842,153.0514 C141.085,151.6814 142.78,116.2374 143.653,97.1764 L137.239,97.1764 C137.132,97.1764 137.027,97.1424 136.94,97.0804 C136.853,97.0194 136.787,96.9314 136.751,96.8314 C136.717,96.7314 136.716,96.6244 136.747,96.5234 C136.778,96.4234 136.84,96.3354 136.924,96.2724 L162.065,76.3994 C162.173,76.3184 162.308,76.2814 162.442,76.2964 C162.576,76.3114 162.699,76.3774 162.786,76.4804 C162.868,76.5884 162.905,76.7244 162.888,76.8594 C162.871,76.9944 162.801,77.1164 162.695,77.2004 L138.7,96.1614 L144.191,96.1614 C144.259,96.1604 144.327,96.1734 144.39,96.1994 C144.453,96.2254 144.509,96.2644 144.557,96.3134 C144.647,96.4174 144.698,96.5504 144.699,96.6884 C144.262,105.9964 142.111,152.4634 141.816,153.3464 C141.777,153.4424 141.709,153.5234 141.622,153.5804 C141.535,153.6364 141.433,153.6644 141.329,153.660776 Z" id="Path" fill="#E1E5E9" fill-rule="nonzero"></path>
                <path d="M33.779,141.0344 C33.647,141.0314 33.521,140.9784 33.426,140.8864 C33.332,140.7934 33.277,140.6684 33.271,140.5364 L31.8,57.0734 L17.742,56.1294 C17.611,56.1216 17.488,56.0633 17.399,55.9667 C17.31,55.8702 17.262,55.743 17.265,55.6118 L17.64,34.9261 L1.959,33.7994 C1.892,33.7947 1.827,33.777 1.767,33.7472 C1.707,33.7174 1.654,33.6761 1.61,33.6256 C1.522,33.5238 1.477,33.391 1.487,33.2564 C1.496,33.1218 1.559,32.9964 1.661,32.9079 C1.762,32.8194 1.895,32.775 2.03,32.7844 L18.199,33.9517 C18.328,33.9594 18.449,34.0163 18.538,34.1107 C18.627,34.205 18.676,34.3297 18.676,34.4592 L18.29,55.1144 L32.338,56.0685 C32.464,56.0763 32.583,56.1321 32.67,56.2245 C32.757,56.317 32.805,56.4391 32.805,56.5659 L34.286,140.4864 C34.289,140.5534 34.278,140.6204 34.255,140.6824 C34.231,140.7454 34.195,140.8024 34.148,140.8514 C34.102,140.8994 34.046,140.9374 33.984,140.9644 C33.923,140.9904 33.856,141.0034 33.789,141.0034 L33.779,141.0344 Z" id="Path" fill="#E1E5E9" fill-rule="nonzero"></path>
                <path d="M162.379,163.1714 L162.258,163.1714 C161.781,163.0494 114.918,150.7174 91.066,143.8864 C67.213,137.0554 9.916,147.1344 9.338,147.2354 C9.273,147.2494 9.206,147.2484 9.141,147.2354 C9.077,147.2214 9.015,147.1954 8.961,147.1574 C8.907,147.1194 8.861,147.0704 8.827,147.0144 C8.792,146.9584 8.769,146.8954 8.759,146.8294 C8.735,146.6984 8.765,146.5624 8.841,146.4514 C8.917,146.3414 9.034,146.2654 9.165,146.2414 C9.744,146.1394 67.386,136.0914 91.38,142.9124 C115.375,149.7324 162.085,162.0244 162.552,162.1464 C162.687,162.1634 162.809,162.2344 162.891,162.3414 C162.974,162.4494 163.011,162.5854 162.993,162.7194 C162.976,162.8544 162.906,162.9764 162.798,163.0594 C162.691,163.1424 162.555,163.1784 162.42,163.1614 L162.379,163.1714 Z" id="Path" fill="#E1E5E9" fill-rule="nonzero"></path>
                <path d="M16.534,18.8384 C20.167,18.8384 23.112,15.8937 23.112,12.2612 C23.112,8.6288 20.167,5.684 16.534,5.684 C12.902,5.684 9.957,8.6288 9.957,12.2612 C9.957,15.8937 12.902,18.8384 16.534,18.8384 Z" id="Path" fill="#E1E5E9" fill-rule="nonzero"></path>
                <path d="M74.338,9.4395 L28.237,9.4395 C28.103,9.4395 27.973,9.3861 27.878,9.2909 C27.783,9.1957 27.73,9.0666 27.73,8.932 C27.73,8.7974 27.783,8.6683 27.878,8.5732 C27.973,8.478 28.103,8.4245 28.237,8.4245 L74.338,8.4245 C74.473,8.4245 74.602,8.478 74.697,8.5732 C74.793,8.6683 74.846,8.7974 74.846,8.932 C74.846,9.0666 74.793,9.1957 74.697,9.2909 C74.602,9.3861 74.473,9.4395 74.338,9.4395 Z" id="Path" fill="#E1E5E9" fill-rule="nonzero"></path>
                <path d="M53.897,16.0472 L27.598,16.0472 C27.464,16.0472 27.335,15.9937 27.24,15.8986 C27.144,15.8034 27.091,15.6743 27.091,15.5397 C27.094,15.4059 27.148,15.2783 27.243,15.1837 C27.337,15.0891 27.465,15.0348 27.598,15.0322 L53.897,15.0322 C54.031,15.0348 54.159,15.0891 54.253,15.1837 C54.348,15.2783 54.402,15.4059 54.405,15.5397 C54.405,15.6743 54.351,15.8034 54.256,15.8986 C54.161,15.9937 54.032,16.0472 53.897,16.0472 Z" id="Path" fill="#E1E5E9" fill-rule="nonzero"></path>
                <path d="M147.023,13.1443 C147.668,13.1443 148.19,12.6217 148.19,11.977 C148.19,11.3324 147.668,10.8098 147.023,10.8098 C146.378,10.8098 145.856,11.3324 145.856,11.977 C145.856,12.6217 146.378,13.1443 147.023,13.1443 Z" id="Path" fill="#E1E5E9" fill-rule="nonzero"></path>
                <path d="M151.956,13.1443 C152.6,13.1443 153.123,12.6217 153.123,11.977 C153.123,11.3324 152.6,10.8098 151.956,10.8098 C151.311,10.8098 150.788,11.3324 150.788,11.977 C150.788,12.6217 151.311,13.1443 151.956,13.1443 Z" id="Path" fill="#E1E5E9" fill-rule="nonzero"></path>
                <path d="M156.878,13.1443 C157.523,13.1443 158.046,12.6217 158.046,11.977 C158.046,11.3324 157.523,10.8098 156.878,10.8098 C156.234,10.8098 155.711,11.3324 155.711,11.977 C155.711,12.6217 156.234,13.1443 156.878,13.1443 Z" id="Path" fill="#E1E5E9" fill-rule="nonzero"></path>
                <path d="M130.214,45.1066 C128.441,45.1135 126.695,44.67 125.139,43.8176 C120.886,41.4019 118.806,36.8445 117.801,33.2616 C115.233,33.9315 112.381,34.6115 109.569,34.0837 C106.758,33.5559 103.611,31.2722 103.478489,27.9937 C103.473,27.8597 103.52,27.7288 103.609,27.6284 C103.698,27.5281 103.822,27.4662 103.956,27.4558 C104.024,27.4471 104.092,27.453 104.158,27.473 C104.223,27.493 104.283,27.5268 104.334,27.572 C104.385,27.6172 104.425,27.6728 104.453,27.735 C104.481,27.7973 104.495,27.8647 104.494,27.9328 C104.636,30.6429 107.336,32.6018 109.792,33.0586 C112.563,33.5864 115.487,32.815 118.075,32.1349 C118.138,32.1179 118.203,32.1136 118.268,32.1223 C118.332,32.131 118.394,32.1526 118.45,32.1857 C118.569,32.2556 118.656,32.3682 118.694,32.5003 C119.597,35.9513 121.536,40.5594 125.677,42.9142 C129.128,44.8732 134.548,44.5078 136.842,40.8842 C136.884,40.82 136.939,40.7657 137.004,40.7254 C137.069,40.685 137.142,40.6595 137.218,40.6508 C137.293,40.641 137.37,40.6487 137.442,40.6733 C137.515,40.698 137.58,40.7389 137.634,40.7929 C138.933,42.0718 141.227,41.6861 142.618,40.5899 C144.064,39.23 145.166,37.5463 145.835,35.6773 C146.353,34.5303 146.85,33.3326 146.424,32.3278 C146.388,32.2378 146.378,32.1393 146.396,32.0439 C146.414,31.9486 146.459,31.8604 146.525,31.7898 C146.589,31.7198 146.672,31.67 146.764,31.6466 C146.856,31.6231 146.953,31.6271 147.043,31.6579 C149.581,32.6014 152.246,33.1557 154.95,33.3022 C156.261,33.3567 157.567,33.1107 158.769,32.5829 C159.97,32.0552 161.035,31.2596 161.882,30.2572 C161.918,30.1955 161.966,30.1421 162.024,30.1004 C162.082,30.0587 162.148,30.0296 162.218,30.0151 C162.288,30.0006 162.36,30.001 162.43,30.0163 C162.499,30.0315 162.565,30.0613 162.622,30.1036 C162.68,30.1459 162.728,30.1999 162.763,30.2619 C162.798,30.324 162.82,30.3928 162.826,30.4638 C162.833,30.5347 162.825,30.6064 162.802,30.674 C162.779,30.7416 162.743,30.8036 162.694,30.856 C161.753,31.9819 160.567,32.8773 159.226,33.4737 C157.886,34.0701 156.426,34.3517 154.96,34.2969 L154.909,34.2969 C152.394,34.1967 149.91,33.7141 147.54,32.8657 C147.531,33.9858 147.249,35.0868 146.718,36.0731 C145.991,38.0959 144.786,39.9134 143.206,41.3714 C141.592,42.6402 139.075,43.1071 137.34,41.8789 C136.494,42.9446 135.407,43.7933 134.167,44.3547 C132.928,44.916 131.573,45.1738 130.214,45.1066 Z" id="Path" fill="#E1E5E9" fill-rule="nonzero"></path>
                <polygon id="Path" fill="#E1E5E9" fill-rule="nonzero" points="9.257 48.9331 5.582 48.9331 5.582 56.6065 9.257 56.6065"></polygon>
                <polygon id="Path" fill="#E1E5E9" fill-rule="nonzero" points="13.642 65.0514 9.968 65.0514 9.968 72.7244 13.642 72.7244"></polygon>
                <g id="Clipped" transform="translate(1.174000, 23.044400)">
                    <mask id="mask-2" fill="white">
                        <use xlink:href="#path-1"></use>
                    </mask>
                    <g id="Rectangle"></g>
                    <g id="Group" mask="url(#mask-2)" fill-rule="nonzero">
                        <g transform="translate(21.999769, 7.999994)">
                            <path d="M38.1552308,121.593006 C38.1552308,121.593006 34.3962308,162.648006 33.2242308,172.662006 L93.8922308,173.624006 C93.8922308,173.624006 91.5392308,129.818006 88.0742308,120.578006 C84.6082308,111.339006 38.1552308,121.593006 38.1552308,121.593006 Z" id="Path" fill="#2B2D30"></path>
                            <path d="M93.8842308,174.000078 L33.2162308,173.038006 C33.1632308,173.036006 33.1112308,173.024006 33.0632308,173.002006 C33.0162308,172.980006 32.9732308,172.949006 32.9372308,172.910006 C32.9032308,172.870006 32.8772308,172.823006 32.8622308,172.773006 C32.8462308,172.722006 32.8412308,172.669006 32.8472308,172.617006 C33.9902308,162.723006 37.7412308,121.969006 37.7792308,121.563006 C37.7852308,121.484006 37.8172308,121.409006 37.8702308,121.349006 C37.9232308,121.289006 37.9942308,121.248006 38.0722308,121.232006 C39.9822308,120.804006 84.8862308,111.001006 88.4412308,120.443006 C91.8852308,129.637006 94.1852308,171.812006 94.2832501,173.602006 C94.2842308,173.706006 94.2462308,173.808006 94.1782308,173.887006 C94.0982308,173.962006 93.9932308,174.002006 93.8842308,174.000078 Z M33.6442308,172.293006 L93.5012308,173.241006 C93.2532308,168.805006 90.9602308,129.322006 87.7272308,120.706006 C84.5472308,112.226006 42.3052308,121.090006 38.5162308,121.909006 C38.1552308,125.465006 34.7722308,162.182006 33.6442308,172.293006 Z" id="Shape" fill="#2B2D30"></path>
                            <path d="M55.0562308,50.5500065 C55.0562308,50.5500065 37.0132308,54.1210065 33.2542308,59.4130065 C33.2542308,59.4130065 35.3742308,119.180006 35.3742308,133.953006 L91.1792308,132.629006 C91.1792308,132.629006 92.1032308,62.4730065 90.2312308,59.4130065 C85.8412308,52.3090065 55.0562308,50.5500065 55.0562308,50.5500065 Z" id="Path" fill="#E7A246"></path>
                            <polygon id="Path" fill="#FFFFFF" points="59.9562308 87.1610065 49.8752308 92.3110065 49.8752308 84.3950065 60.5502308 78.9670065 67.9102308 78.9670065 67.9102308 109.888006 59.9562308 109.888006"></polygon>
                            <path d="M67.8882308,110.264006 L59.9572308,110.264006 C59.8582308,110.262006 59.7632308,110.222006 59.6932308,110.151006 C59.6232308,110.081006 59.5832308,109.987006 59.5812308,109.888006 L59.5812308,87.7700065 L50.0562308,92.6490065 C49.9992308,92.6810065 49.9362308,92.6980065 49.8712308,92.6980065 C49.8072308,92.6980065 49.7442308,92.6810065 49.6872308,92.6490065 C49.6322308,92.6160065 49.5862308,92.5680065 49.5542308,92.5120065 C49.5232308,92.4550065 49.5062308,92.3910065 49.5071891,92.3260065 L49.5071891,84.3950065 C49.5082308,84.3270065 49.5282308,84.2600065 49.5632308,84.2020065 C49.5992308,84.1440065 49.6502308,84.0960065 49.7102308,84.0640065 L60.3852308,78.6360065 C60.4382308,78.6060065 60.4972308,78.5910065 60.5582308,78.5910065 L67.9182308,78.5910065 C68.0182308,78.5910065 68.1132308,78.6310065 68.1842308,78.7010065 C68.2542308,78.7720065 68.2942308,78.8670065 68.2942308,78.9670065 L68.2942308,109.888006 C68.2942308,109.940006 68.2832308,109.991006 68.2632308,110.039006 C68.2422308,110.087006 68.2122308,110.129006 68.1732308,110.165006 C68.1352308,110.200006 68.0902308,110.227006 68.0412308,110.244006 C67.9922308,110.261006 67.9402308,110.268006 67.8882308,110.264006 Z M60.3022308,109.512006 L67.5122308,109.512006 L67.5122308,79.3280065 L60.6182308,79.3280065 L50.2292308,84.5900065 L50.2292308,91.6650065 L59.7612308,86.8460065 C59.8182308,86.8150065 59.8822308,86.8000065 59.9472308,86.8030065 C60.0122308,86.8050065 60.0752308,86.8240065 60.1302308,86.8580065 C60.1842308,86.8930065 60.2292308,86.9410065 60.2602308,86.9980065 C60.2902308,87.0550065 60.3052308,87.1190065 60.3022308,87.1840065 L60.3022308,109.512006 Z" id="Shape" fill="#2B2D30"></path>
                            <path d="M55.2662308,42.6710065 L53.9422308,55.2710065 C53.9422308,55.2710065 57.3632308,60.3450065 62.9642308,60.4130065 C68.5652308,60.4810065 70.8352308,57.1050065 70.8352308,57.1050065 L70.2942308,40.6410065 L55.2662308,42.6710065 Z" id="Path" fill="#FFFFFF"></path>
                            <path d="M63.1072308,60.8190065 L62.9192308,60.8190065 C57.2202308,60.7440065 53.7702308,55.7140065 53.6272308,55.5040065 C53.6012308,55.4680065 53.5822308,55.4280065 53.5722308,55.3860065 C53.5612308,55.3430065 53.5602308,55.2990065 53.5672308,55.2560065 L54.8902308,42.6330065 C54.8982308,42.5490065 54.9342308,42.4710065 54.9932308,42.4110065 C55.0522308,42.3510065 55.1292308,42.3120065 55.2132308,42.3020065 L70.2112308,40.2880065 C70.2642308,40.2800065 70.3172308,40.2839686 70.3682308,40.2990065 C70.4192308,40.3150065 70.4652308,40.3420065 70.5042308,40.3780065 C70.5432308,40.4120065 70.5752308,40.4530065 70.5972308,40.5000065 C70.6192308,40.5460065 70.6312308,40.5970065 70.6322308,40.6490065 L71.1732308,57.1200065 C71.1792308,57.2000065 71.1582308,57.2790065 71.1132308,57.3460065 C71.0152308,57.5260065 68.6772308,60.8190065 63.1072308,60.8190065 Z M54.3262308,55.1880065 C54.8602308,55.9400065 58.0852308,59.9990065 62.9342308,60.0670065 L63.1072308,60.0670065 C67.7752308,60.0670065 70.0082308,57.5340065 70.4222308,57.0150065 L69.8952308,41.0920065 L55.6112308,43.0090065 L54.3262308,55.1880065 Z" id="Shape" fill="#2B2D30"></path>
                            <path d="M78.3162308,30.1313065 C78.3212308,29.9096065 78.3042308,29.6879065 78.2642308,29.4698065 C78.1582308,29.1448065 78.1582308,28.7949065 78.2642308,28.4699065 C78.4442308,28.1241065 78.8952308,28.0113065 79.1812308,27.7181065 C79.8122308,27.1317065 79.5042308,26.0943065 79.1812308,25.3049065 C79.0872308,25.1300065 79.0502308,24.9303065 79.0762308,24.7335065 C79.1482308,24.5136065 79.2912308,24.3235065 79.4822308,24.1923065 C80.4062308,23.3055065 80.9992308,22.1295065 81.1632308,20.8592065 C81.3272308,19.5889065 81.0522308,18.3007065 80.3842308,17.2082065 C80.8752308,16.5797065 81.1122308,15.7895065 81.0482308,14.9944065 C80.9842308,14.1993065 80.6232308,13.4573065 80.0382308,12.9155065 C79.8242308,12.7929065 79.6422308,12.6232065 79.5042308,12.4193065 C79.4472308,12.2552065 79.4242308,12.0813065 79.4362308,11.9081065 C79.4062308,10.8374065 79.0412308,9.80310646 78.3932308,8.95080646 C77.7442308,8.09840646 76.8442308,7.47100646 75.8202308,7.15690646 C75.3632308,5.76000646 74.3752308,4.59900646 73.0692308,3.92420646 C71.7742308,3.27080646 70.3992308,2.79060646 68.9792308,2.49580646 C69.2872308,1.53350646 68.2272308,0.676506458 67.2352308,0.443506458 C66.3172308,0.235506458 65.3612308,0.259206458 64.4542308,0.512506458 C63.5472308,0.765706458 62.7182308,1.24060646 62.0402308,1.89440646 C62.0132308,1.57250646 61.8862308,1.26710646 61.6772308,1.02060646 C61.4682308,0.774006458 61.1882308,0.598606458 60.8752308,0.518606458 C60.2442308,0.368306458 59.5882308,0.352906458 58.9502308,0.473506458 C56.7482308,0.736606458 54.4402308,1.02230646 52.5682308,2.16500646 C51.9402308,2.52200646 51.4212308,3.04140646 51.0642308,3.66860646 C50.8872308,3.98020646 50.7942308,4.33250646 50.7942308,4.69100646 C50.7942308,5.04950646 50.8872308,5.40190646 51.0642308,5.71340646 C50.1012308,6.01570646 49.2342308,6.56590646 48.5512308,7.30870646 C47.8672308,8.05160646 47.3912308,8.96110646 47.1702308,9.94600646 C46.7562308,11.9350065 47.0402308,14.0057065 47.9742308,15.8099065 C46.9902308,16.5896065 46.3372308,17.7124065 46.1462308,18.9532065 C45.9552308,20.1940065 46.2402308,21.4612065 46.9442308,22.5007065 C46.2682308,22.2978065 45.6592308,23.1548065 45.7872308,23.8539065 C46.0072308,24.5374065 46.4162308,25.1446065 46.9672308,25.6056065 C47.2222308,25.8400065 47.4242308,26.1264065 47.5592308,26.4454065 C47.6942308,26.7645065 47.7582308,27.1087065 47.7492308,27.4550065 C47.6662308,27.7558065 47.5602308,28.0498065 47.4332308,28.3346065 C47.2612308,28.8905065 47.2982308,29.4903065 47.5382308,30.0207065 C47.7772308,30.5512065 48.2032308,30.9756065 48.7342308,31.2139065 C47.9822308,31.4845065 47.9822308,32.6724065 48.6062308,33.1760065 C49.7112308,34.1010065 51.9512308,33.6422065 53.2592308,33.6271065 C54.5672308,33.6121065 55.7182308,33.8075065 56.9282308,33.8677065 C59.0262308,33.9805065 61.1232308,34.0480065 63.2202308,34.0110065 C65.8822308,34.0110065 68.5662308,34.1760065 71.2192308,33.8902065 C73.1512308,33.6797065 75.4222308,34.4010065 77.0312308,32.9881065 C77.4312308,32.6272065 77.7532308,32.1868065 77.9742308,31.6950065 C78.1952308,31.2031065 78.3122308,30.6706065 78.3162308,30.1313065 Z" id="Path" fill="#FFFFFF"></path>
                            <path d="M67.7452308,34.4160065 C67.1142308,34.4160065 66.4902308,34.4160065 65.8732308,34.4160065 C64.9862308,34.4160065 64.1072308,34.4160065 63.2272308,34.4160065 C61.3852308,34.4160065 59.3782308,34.4160065 56.9052308,34.2740065 C56.4382308,34.2740065 55.9652308,34.2060065 55.4912308,34.1610065 C54.7422308,34.0760065 53.9892308,34.0340065 53.2362308,34.0330065 C52.9582308,34.0330065 52.6272308,34.0330065 52.2742308,34.0860065 C50.9582308,34.1830065 49.3192308,34.3110065 48.3422308,33.4993065 C48.1212308,33.3033065 47.9532308,33.0539065 47.8562308,32.7749065 C47.7582308,32.4959065 47.7342308,32.1966065 47.7852308,31.9055065 C47.8192308,31.6845065 47.9072308,31.4752065 48.0412308,31.2966065 C47.5892308,30.9558065 47.2522308,30.4853065 47.0752308,29.9480065 C46.8982308,29.4107065 46.8892308,28.8321065 47.0492308,28.2895065 L47.1842308,27.9512065 C47.2602308,27.7988065 47.3162308,27.6370065 47.3492308,27.4700065 C47.3512308,27.1683065 47.2852308,26.8701065 47.1542308,26.5979065 C47.0242308,26.3257065 46.8342308,26.0867065 46.5982308,25.8988065 L46.4472308,25.7409065 C45.9122308,25.2658065 45.5232308,24.6476065 45.3272308,23.9592065 C45.2842308,23.6846065 45.3092308,23.4036065 45.4012308,23.1413065 C45.4932308,22.8789065 45.6482308,22.6434065 45.8532308,22.4556065 C45.9582308,22.3565065 46.0812308,22.2775065 46.2142308,22.2226065 C45.6682308,21.1607065 45.4892308,19.9474065 45.7072308,18.7731065 C45.9252308,17.5988065 46.5262308,16.5301065 47.4172308,15.7347065 C46.5412308,13.9196065 46.2952308,11.8640065 46.7182308,9.89330646 C46.9422308,8.91440646 47.4012308,8.00500646 48.0562308,7.24380646 C48.7112308,6.48270646 49.5422308,5.89280646 50.4772308,5.52550646 C50.3742308,5.19530646 50.3402308,4.84780646 50.3762308,4.50400646 C50.4132308,4.16020646 50.5182308,3.82740646 50.6872308,3.52580646 C51.0862308,2.84480646 51.6632308,2.28580646 52.3562308,1.90940646 C54.3642308,0.706606458 56.7692308,0.405906458 58.8892308,0.165306458 C59.5802308,0.0393064582 60.2892308,0.0598064582 60.9722308,0.225406458 C61.5162308,0.393806458 61.9722308,0.769006458 62.2422308,1.27040646 C62.9522308,0.722006458 63.7742308,0.337206458 64.6502308,0.143606458 C65.5262308,-0.0500935418 66.4342308,-0.0477935418 67.3092308,0.150206458 C68.0812308,0.323206458 68.7532308,0.793106458 69.1812308,1.45840646 C69.3312308,1.71010646 69.4042308,2.00010646 69.3922308,2.29280646 C70.7312308,2.58510646 72.0262308,3.05540646 73.2412308,3.69110646 C74.5702308,4.37820646 75.5932308,5.54020646 76.1052308,6.94640646 C77.1532308,7.31110646 78.0672308,7.98180646 78.7292308,8.87180646 C79.3912308,9.76180646 79.7712308,10.8300065 79.8192308,11.9382065 C79.8102308,12.0647065 79.8232308,12.1918065 79.8562308,12.3141065 C79.9292308,12.4447065 80.0322308,12.5557065 80.1572308,12.6374065 L80.2622308,12.7276065 C80.8912308,13.3006065 81.2932308,14.0809065 81.3942308,14.9258065 C81.4952308,15.7707065 81.2882308,16.6236065 80.8112308,17.3285065 C81.4512308,18.4878065 81.6902308,19.8256065 81.4912308,21.1346065 C81.2932308,22.4436065 80.6682308,23.6505065 79.7142308,24.5681065 C79.5632308,24.7035065 79.4352308,24.8162065 79.4202308,24.9064065 C79.4282308,25.0088065 79.4562308,25.1086065 79.5032308,25.1996065 C79.8562308,26.0492065 80.2552308,27.2746065 79.4132308,28.0339065 C79.2762308,28.1515065 79.1272308,28.2548065 78.9692308,28.3421065 C78.8132308,28.4132065 78.6762308,28.5216065 78.5712308,28.6578065 C78.5112308,28.8615065 78.5112308,29.0781065 78.5712308,29.2818065 L78.5712308,29.4171065 C78.6192308,29.6647065 78.6392308,29.9169065 78.6312308,30.1689065 C78.6252308,30.7524065 78.4992308,31.3283065 78.2612308,31.8611065 C78.0232308,32.3939065 77.6782308,32.8722065 77.2482308,33.2663065 C76.0152308,34.3490065 74.4892308,34.2890065 73.0002308,34.2360065 C72.4122308,34.1930065 71.8222308,34.1880065 71.2342308,34.2210065 C70.0752308,34.3490065 68.9112308,34.4140065 67.7452308,34.4160065 Z M63.9862308,33.6271065 L65.8662308,33.6271065 C67.6342308,33.6909065 69.4042308,33.6457065 71.1662308,33.4918065 C71.7892308,33.4467065 72.4152308,33.4467065 73.0382308,33.4918065 C74.4362308,33.5444065 75.7592308,33.5895065 76.7972308,32.7400065 C77.1572308,32.4150065 77.4462308,32.0187065 77.6462308,31.5761065 C77.8452308,31.1335065 77.9502308,30.6543065 77.9542308,30.1689065 C77.9622308,29.9699065 77.9472308,29.7706065 77.9092308,29.5750065 L77.9092308,29.4547065 C77.8032308,29.0903065 77.8242308,28.7003065 77.9692308,28.3496065 C78.1242308,28.0760065 78.3612308,27.8578065 78.6462308,27.7256065 C78.7602308,27.6672065 78.8672308,27.5939065 78.9622308,27.5076065 C79.3232308,27.1768065 79.2932308,26.5378065 78.8642308,25.5154065 C78.7222308,25.2651065 78.6812308,24.9699065 78.7502308,24.6904065 C78.8182308,24.4109065 78.9912308,24.1681065 79.2322308,24.0118065 C80.0972308,23.1845065 80.6542308,22.0872065 80.8112308,20.9009065 C80.9682308,19.7147065 80.7162308,18.5103065 80.0972308,17.4864065 C80.0492308,17.4208065 80.0242308,17.3419065 80.0242308,17.2608065 C80.0242308,17.1798065 80.0492308,17.1008065 80.0972308,17.0353065 C80.5262308,16.4850065 80.7332308,15.7944065 80.6792308,15.0990065 C80.6252308,14.4035065 80.3132308,13.7535065 79.8042308,13.2764065 L79.7062308,13.2012065 C79.4802308,13.0467065 79.3012308,12.8336065 79.1872308,12.5847065 C79.1232308,12.3935065 79.0922308,12.1925065 79.0972308,11.9908065 C79.0762308,10.9900065 78.7412308,10.0211065 78.1402308,9.22110646 C77.5382308,8.42110646 76.7002308,7.83050646 75.7442308,7.53280646 C75.6822308,7.51480646 75.6252308,7.48130646 75.5792308,7.43530646 C75.5332308,7.38920646 75.4992308,7.33220646 75.4812308,7.26960646 C75.0502308,5.97230646 74.1302308,4.89380646 72.9182308,4.26250646 C71.6532308,3.61870646 70.3082308,3.14600646 68.9182308,2.85670646 C68.8162308,2.82770646 68.7302308,2.76030646 68.6772308,2.66870646 C68.6402308,2.57450646 68.6402308,2.46970646 68.6772308,2.37550646 C68.7132308,2.27010646 68.7252308,2.15810646 68.7122308,2.04760646 C68.6992308,1.93710646 68.6612308,1.83080646 68.6022308,1.73650646 C68.2702308,1.25930646 67.7712308,0.924006458 67.2042308,0.796806458 C66.3492308,0.599606458 65.4582308,0.619406458 64.6122308,0.854406458 C63.7672308,1.08950646 62.9932308,1.53220646 62.3622308,2.14250646 C62.3122308,2.19720646 62.2462308,2.23470646 62.1732308,2.24960646 C62.1002308,2.26440646 62.0242308,2.25590646 61.9572308,2.22520646 C61.8882308,2.19700646 61.8292308,2.14910646 61.7882308,2.08750646 C61.7462308,2.02600646 61.7242308,1.95360646 61.7232308,1.87930646 C61.6952308,1.63730646 61.5942308,1.40960646 61.4322308,1.22690646 C61.2712308,1.04420646 61.0582308,0.915106458 60.8212308,0.856906458 C60.2392308,0.732706458 59.6372308,0.732706458 59.0552308,0.856906458 C57.0102308,1.09750646 54.6872308,1.37570646 52.8152308,2.49580646 C52.2392308,2.80530646 51.7592308,3.26520646 51.4242308,3.82650646 C51.2782308,4.08040646 51.2022308,4.36810646 51.2022308,4.66090646 C51.2022308,4.95380646 51.2782308,5.24150646 51.4242308,5.49540646 C51.4572308,5.54460646 51.4782308,5.60120646 51.4852308,5.66020646 C51.4912308,5.71910646 51.4842308,5.77890646 51.4622308,5.83430646 C51.4412308,5.88960646 51.4062308,5.93900646 51.3622308,5.97820646 C51.3172308,6.01740646 51.2642308,6.04520646 51.2062308,6.05930646 C50.3062308,6.33860646 49.4962308,6.85190646 48.8602308,7.54670646 C48.2232308,8.24140646 47.7822308,9.09270646 47.5822308,10.0136065 C47.1822308,11.9139065 47.4472308,13.8943065 48.3342308,15.6219065 C48.3722308,15.7014065 48.3802308,15.7916065 48.3582308,15.8768065 C48.3372308,15.9619065 48.2852308,16.0367065 48.2142308,16.0880065 C47.3102308,16.8089065 46.7122308,17.8438065 46.5382308,18.9864065 C46.3642308,20.1291065 46.6272308,21.2954065 47.2742308,22.2527065 C47.3202308,22.3175065 47.3452308,22.3950065 47.3452308,22.4744065 C47.3452308,22.5539065 47.3202308,22.6314065 47.2742308,22.6962065 C47.2302308,22.7611065 47.1652308,22.8099065 47.0912308,22.8356065 C47.0172308,22.8613065 46.9362308,22.8625065 46.8612308,22.8390065 C46.7862308,22.8118065 46.7042308,22.8073065 46.6272308,22.8260065 C46.5492308,22.8447065 46.4792308,22.8858065 46.4252308,22.9443065 C46.3152308,23.0467065 46.2322308,23.1740065 46.1832308,23.3153065 C46.1332308,23.4566065 46.1182308,23.6079065 46.1392308,23.7562065 C46.3082308,24.3005065 46.6292308,24.7855065 47.0642308,25.1545065 L47.2142308,25.3199065 C47.5272308,25.5918065 47.7742308,25.9316065 47.9352308,26.3134065 C48.0972308,26.6951065 48.1692308,27.1087065 48.1462308,27.5226065 C48.1022308,27.7588065 48.0292308,27.9886065 47.9282308,28.2068065 C47.8912308,28.3045065 47.8462308,28.4022065 47.8152308,28.5000065 C47.6772308,28.9640065 47.7122308,29.4622065 47.9122308,29.9029065 C48.1122308,30.3436065 48.4652308,30.6970065 48.9062308,30.8981065 C48.9752308,30.9268065 49.0352308,30.9759065 49.0772308,31.0389065 C49.1182308,31.1019065 49.1402308,31.1760065 49.1392308,31.2515065 C49.1392308,31.3280065 49.1162308,31.4027065 49.0712308,31.4649065 C49.0262308,31.5270065 48.9632308,31.5734065 48.8912308,31.5973065 C48.8042308,31.6355065 48.7292308,31.6960065 48.6742308,31.7726065 C48.6182308,31.8492065 48.5842308,31.9392065 48.5752308,32.0333065 C48.5492308,32.1945065 48.5632308,32.3594065 48.6162308,32.5140065 C48.6682308,32.6685065 48.7572308,32.8080065 48.8762308,32.9204065 C49.6272308,33.5369065 51.0862308,33.4241065 52.2662308,33.3414065 C52.6422308,33.3414065 53.0182308,33.2888065 53.2812308,33.2813065 C54.0522308,33.2847065 54.8232308,33.3299065 55.5892308,33.4166065 C56.0552308,33.4542065 56.5212308,33.4993065 56.9802308,33.5219065 C59.4312308,33.6497065 61.4152308,33.6948065 63.2422308,33.6647065 L63.9862308,33.6271065 Z" id="Shape" fill="#2B2D30"></path>
                            <path d="M54.4682308,31.2515065 C53.8752308,26.4777065 46.0332308,25.0342065 46.1992308,30.6425065 C46.1922308,32.5869065 46.8712308,34.4710065 48.1162308,35.9650065 C48.7532308,36.6970065 49.5942308,37.2230065 50.5312308,37.4760065 C51.4682308,37.7290065 52.4592308,37.6980065 53.3782308,37.3860065" id="Path" fill="#FFFFFF"></path>
                            <path d="M51.8902308,38.0480065 C51.1312308,38.0340065 50.3842308,37.8650065 49.6932308,37.5510065 C49.0022308,37.2370065 48.3842308,36.7840065 47.8752308,36.2210065 C46.5692308,34.6610065 45.8532308,32.6920065 45.8532308,30.6576065 C45.7632308,27.9061065 47.4772308,26.7859065 49.1082308,26.6581065 C50.4542308,26.5627065 51.7872308,26.9718065 52.8472308,27.8057065 C53.9082308,28.6396065 54.6202308,29.8386065 54.8442308,31.1688065 C54.8512308,31.2183065 54.8472308,31.2684065 54.8342308,31.3164065 C54.8202308,31.3645065 54.7982308,31.4094065 54.7672308,31.4485065 C54.7362308,31.4877065 54.6982308,31.5204065 54.6542308,31.5446065 C54.6112308,31.5689065 54.5632308,31.5843065 54.5142308,31.5898065 C54.4152308,31.6007065 54.3172308,31.5731065 54.2382308,31.5128065 C54.1602308,31.4526065 54.1072308,31.3643065 54.0932308,31.2666065 C53.8962308,30.1245065 53.2852308,29.0952065 52.3762308,28.3764065 C51.4672308,27.6576065 50.3252308,27.3000065 49.1682308,27.3723065 C48.3642308,27.4400065 46.5152308,27.8835065 46.6052308,30.5975065 C46.5892308,32.4674065 47.2332308,34.2830065 48.4242308,35.7250065 C49.0072308,36.3980065 49.7772308,36.8840065 50.6362308,37.1210065 C51.4952308,37.3580065 52.4052308,37.3350065 53.2512308,37.0550065 C53.2962308,37.0360065 53.3452308,37.0250065 53.3942308,37.0250065 C53.4432308,37.0250065 53.4922308,37.0340065 53.5382308,37.0530065 C53.5832308,37.0720065 53.6252308,37.1000065 53.6592308,37.1350065 C53.6942308,37.1710065 53.7212308,37.2120065 53.7392308,37.2580065 C53.7582308,37.3040065 53.7672308,37.3530065 53.7662308,37.4030065 C53.7652308,37.4520065 53.7552308,37.5010065 53.7352308,37.5460065 C53.7162308,37.5920065 53.6872308,37.6330065 53.6522308,37.6670065 C53.6172308,37.7020065 53.5752308,37.7290065 53.5292308,37.7470065 C53.0072308,37.9520065 52.4502308,38.0540065 51.8902308,38.0480065 Z" id="Path" fill="#2B2D30"></path>
                            <path d="M71.5342308,31.2515065 C72.1282308,26.4777065 79.9692308,25.0342065 79.7662308,30.6425065 C79.7792308,32.5868065 79.1032308,34.4730065 77.8572308,35.9650065 C77.2192308,36.6970065 76.3792308,37.2230065 75.4422308,37.4760065 C74.5052308,37.7290065 73.5132308,37.6980065 72.5942308,37.3860065" id="Path" fill="#FFFFFF"></path>
                            <path d="M74.1142308,38.047034 C73.5522308,38.0490065 72.9962308,37.9420065 72.4752308,37.7320065 C72.4292308,37.7130065 72.3872308,37.6860065 72.3522308,37.6520065 C72.3162308,37.6180065 72.2882308,37.5760065 72.2682308,37.5310065 C72.2492308,37.4860065 72.2382308,37.4370065 72.2382308,37.3870065 C72.2372308,37.3380065 72.2462308,37.2890065 72.2642308,37.2430065 C72.2822308,37.1970065 72.3102308,37.1550065 72.3442308,37.1200065 C72.3792308,37.0850065 72.4202308,37.0570065 72.4662308,37.0380065 C72.5112308,37.0190065 72.5602308,37.0100065 72.6102308,37.0100065 C72.6592308,37.0100065 72.7082308,37.0210065 72.7532308,37.0400065 C73.5982308,37.3210065 74.5072308,37.3470065 75.3652308,37.1130065 C76.2242308,36.8790065 76.9952308,36.3960065 77.5792308,35.7240065 C78.7602308,34.2950065 79.4042308,32.4968065 79.3992308,30.6424065 C79.4892308,27.9285065 77.6322308,27.4849065 76.8352308,27.4173065 C75.6792308,27.3466065 74.5372308,27.7048065 73.6292308,28.4233065 C72.7202308,29.1418065 72.1092308,30.1702065 71.9112308,31.3115065 C71.8962308,31.4093065 71.8442308,31.4975065 71.7662308,31.5577065 C71.6872308,31.6180065 71.5882308,31.6456065 71.4902308,31.6347065 C71.4412308,31.6292065 71.3932308,31.6138065 71.3492308,31.5896065 C71.3062308,31.5653065 71.2672308,31.5326065 71.2372308,31.4935065 C71.2062308,31.4543065 71.1832308,31.4094065 71.1702308,31.3614065 C71.1572308,31.3133065 71.1532308,31.2632065 71.1592308,31.2138065 C71.3842308,29.8835065 72.0962308,28.6846065 73.1562308,27.8507065 C74.2172308,27.0167065 75.5502308,26.6076065 76.8952308,26.7031065 C78.5272308,26.8309065 80.2412308,27.9510065 80.1512308,30.7025065 C80.1472308,32.7362065 79.4312308,34.7040065 78.1282308,36.2660065 C77.6162308,36.8210065 76.9952308,37.2650065 76.3052308,37.5710065 C75.6152308,37.8780065 74.8692308,38.0400065 74.1142308,38.047034 Z" id="Path" fill="#2B2D30"></path>
                            <path d="M55.0562308,44.5810065 C56.1842308,46.3490065 57.7342308,47.8080065 59.5662308,48.8280065 C62.5732308,50.6250065 66.9192308,53.1960065 70.6482308,52.7530065 L70.4522308,44.4830065 C67.7242308,44.7290065 64.9762308,44.6530065 62.2652308,44.2570065 C59.8612308,44.0820065 57.4972308,43.5370065 55.2592308,42.6410065 L55.0562308,44.5810065 Z" id="Path" fill="#2B2D30"></path>
                            <path d="M69.8062308,53.1810065 C66.0922308,53.1810065 61.9422308,50.6850065 59.3782308,49.1510065 C57.4712308,48.1010065 55.8602308,46.5860065 54.6952308,44.7460065 C54.6572308,44.6740065 54.6412308,44.5930065 54.6502308,44.5130065 L54.8602308,42.6110065 C54.8672308,42.5520065 54.8882308,42.4950065 54.9212308,42.4460065 C54.9532308,42.3960065 54.9972308,42.3550065 55.0482308,42.3250065 C55.1022308,42.2970065 55.1612308,42.2830065 55.2212308,42.2830065 C55.2812308,42.2830065 55.3412308,42.2970065 55.3942308,42.3250065 C57.5982308,43.2000065 59.9232308,43.7330065 62.2882308,43.9040065 C64.9712308,44.3010065 67.6912308,44.3800065 70.3922308,44.1370065 C70.4432308,44.1310065 70.4952308,44.1360065 70.5442308,44.1520065 C70.5942308,44.1670065 70.6392308,44.1930065 70.6782308,44.2270065 C70.7542308,44.2970065 70.8002308,44.3940065 70.8062308,44.4980065 L71.0012308,52.7670065 C71.0052308,52.8610065 70.9732308,52.9540065 70.9122308,53.0250065 C70.8502308,53.0960065 70.7642308,53.1410065 70.6702308,53.1510065 C70.3832308,53.1780065 70.0942308,53.1880065 69.8062308,53.1810065 Z M55.4472308,44.4980065 C56.5412308,46.1650065 58.0242308,47.5400065 59.7692308,48.5050065 C62.3712308,50.0680065 66.6632308,52.6320065 70.2942308,52.4140065 L70.1142308,44.8960065 C67.4802308,45.1150065 64.8292308,45.0340065 62.2132308,44.6560065 C59.9492308,44.4820065 57.7192308,44.0070065 55.5822308,43.2420065 L55.4472308,44.4980065 Z" id="Shape" fill="#2B2D30"></path>
                            <path d="M72.0692308,19.2680065 C71.8702308,19.9756065 71.8422308,20.7200065 71.9862308,21.4406065 C72.0692308,21.8036065 72.2762308,22.1264065 72.5712308,22.3539065 C72.8652308,22.5815065 73.2302308,22.6998065 73.6022308,22.6886065 C71.9482308,22.9292065 74.9932308,24.8011065 74.8952308,24.6733065 C75.5642308,25.5604065 75.1282308,27.3196065 75.0912308,28.3570065 L74.8432308,35.5740065 C74.8012308,37.0080065 74.4752308,38.4200065 73.8852308,39.7270065 C73.2942308,41.0340065 72.4502308,42.2110065 71.4012308,43.1900065 C70.3522308,44.1690065 69.1202308,44.9300065 67.7752308,45.4290065 C66.4302308,45.9290065 64.9992308,46.1560065 63.5662308,46.0990065 L62.2952308,46.0460065 C59.9452308,45.9670065 57.6842308,45.1270065 55.8522308,43.6540065 C54.0192308,42.1810065 52.7142308,40.1530065 52.1312308,37.8750065 C51.8722308,36.8710065 51.7602308,35.8350065 51.8002308,34.8000065 C51.9282308,31.0409065 51.0492308,25.3800065 52.9812308,22.0797065 C53.3042308,22.1959065 53.6552308,22.2083065 53.9852308,22.1153065 C54.3152308,22.0223065 54.6082308,21.8285065 54.8232308,21.5609065 C55.2422308,21.0082065 55.4622308,20.3299065 55.4472308,19.6364065 C56.1642308,20.0059065 56.9942308,20.0936065 57.7732308,19.8822065 C58.5522308,19.6707065 59.2242308,19.1754065 59.6572308,18.4937065 C60.0032308,18.9014065 60.4432308,19.2181065 60.9402308,19.4160065 C61.4372308,19.6139065 61.9742308,19.6870065 62.5062308,19.6288065 C63.5682308,19.4969065 64.6022308,19.1922065 65.5662308,18.7267065 C65.9112308,19.2246065 66.3722308,19.6317065 66.9082308,19.9131065 C67.4452308,20.1945065 68.0422308,20.3420065 68.6482308,20.3430065 C69.8682308,20.3253065 71.0572308,19.9517065 72.0692308,19.2680065 Z" id="Path" fill="#FFFFFF"></path>
                            <path d="M63.9482308,46.4830065 L63.5652308,46.4830065 L62.2952308,46.4300065 C60.8162308,46.3820065 59.3622308,46.0430065 58.0162308,45.4320065 C56.6692308,44.8210065 55.4562308,43.9490065 54.4482308,42.8680065 C53.4392308,41.7860065 52.6542308,40.5160065 52.1372308,39.1300065 C51.6212308,37.7440065 51.3842308,36.2700065 51.4392308,34.7920065 C51.4392308,33.8375065 51.4392308,32.7550065 51.4392308,31.6047065 C51.3262308,28.2443065 51.2062308,24.4327065 52.7092308,21.8992065 C52.7552308,21.8196065 52.8292308,21.7600065 52.9172308,21.7322065 C53.0052308,21.7044065 53.0992308,21.7103065 53.1832308,21.7489065 C53.4332308,21.8308065 53.7022308,21.8336065 53.9542308,21.7569065 C54.2052308,21.6802065 54.4272308,21.5278065 54.5892308,21.3204065 C54.9472308,20.8330065 55.1352308,20.2411065 55.1232308,19.6364065 C55.1232308,19.5717065 55.1402308,19.5083065 55.1732308,19.4528065 C55.2062308,19.3972065 55.2542308,19.3516065 55.3102308,19.3206065 C55.3672308,19.2890065 55.4302308,19.2724065 55.4952308,19.2724065 C55.5592308,19.2724065 55.6232308,19.2890065 55.6792308,19.3206065 C56.3112308,19.6423065 57.0402308,19.7182065 57.7242308,19.5334065 C58.4092308,19.3487065 59.0012308,18.9166065 59.3852308,18.3208065 C59.4152308,18.2662065 59.4582308,18.2202065 59.5112308,18.1873065 C59.5642308,18.1544065 59.6242308,18.1356065 59.6862308,18.1328065 C59.7482308,18.1261065 59.8112308,18.1366065 59.8682308,18.1631065 C59.9252308,18.1896065 59.9742308,18.2311065 60.0092308,18.2832065 C60.3212308,18.6375065 60.7132308,18.9119065 61.1522308,19.0833065 C61.5922308,19.2547065 62.0662308,19.3180065 62.5352308,19.2680065 C63.5552308,19.1369065 64.5482308,18.8425065 65.4752308,18.3959065 C65.5552308,18.3593065 65.6472308,18.3536065 65.7312308,18.3800065 C65.8162308,18.4063065 65.8882308,18.4628065 65.9332308,18.5388065 C66.2432308,18.9745065 66.6542308,19.3290065 67.1302308,19.5724065 C67.6072308,19.8158065 68.1352308,19.9409065 68.6702308,19.9371065 C69.8142308,19.9210065 70.9282308,19.5680065 71.8722308,18.9222065 C71.9342308,18.8818065 72.0062308,18.8602065 72.0792308,18.8602065 C72.1522308,18.8602065 72.2242308,18.8818065 72.2862308,18.9222065 C72.3452308,18.9652065 72.3902308,19.0241065 72.4172308,19.0920065 C72.4432308,19.1599065 72.4502308,19.2340065 72.4362308,19.3056065 C72.2442308,19.9649065 72.2082308,20.6598065 72.3312308,21.3354065 C72.3972308,21.6076065 72.5502308,21.8506065 72.7672308,22.0272065 C72.9852308,22.2038065 73.2542308,22.3041065 73.5342308,22.3127065 C73.5822308,22.3053065 73.6322308,22.3076065 73.6792308,22.3195065 C73.7272308,22.3314065 73.7712308,22.3527065 73.8112308,22.3821065 C73.8502308,22.4115065 73.8832308,22.4485065 73.9072308,22.4908065 C73.9322308,22.5331065 73.9482308,22.5799065 73.9552308,22.6285065 C73.9682308,22.7269065 73.9422308,22.8265065 73.8832308,22.9064065 C73.8242308,22.9864065 73.7372308,23.0403065 73.6392308,23.0570065 L73.4892308,23.0570065 C73.9132308,23.5470065 74.4232308,23.9570065 74.9922308,24.2674065 C75.0802308,24.2861065 75.1582308,24.3371065 75.2102308,24.4102065 C75.8122308,25.2071065 75.6692308,26.4851065 75.5562308,27.5075065 C75.5562308,27.8082065 75.4882308,28.0864065 75.4812308,28.3270065 L75.2332308,35.5440065 C75.2082308,36.3050065 75.1052308,37.0600065 74.9242308,37.7990065 C74.3402308,40.2710065 72.9392308,42.4740065 70.9462308,44.0500065 C68.9542308,45.6260065 66.4892308,46.4830065 63.9482308,46.4830065 Z M53.1902308,22.5307065 C51.9502308,24.8838065 52.0632308,28.4322065 52.1682308,31.5521065 C52.1682308,32.7099065 52.2362308,33.8075065 52.1682308,34.7920065 C52.1282308,35.7920065 52.2352308,36.7930065 52.4842308,37.7620065 C53.0492308,39.9520065 54.3052308,41.9020065 56.0652308,43.3220065 C57.8262308,44.7430065 59.9972308,45.5580065 62.2572308,45.6480065 L63.5352308,45.7010065 C65.9572308,45.7950065 68.3372308,45.0510065 70.2742308,43.5940065 C72.2112308,42.1360065 73.5852308,40.0550065 74.1652308,37.7020065 C74.3312308,37.0090065 74.4272308,36.3010065 74.4512308,35.5890065 L74.6992308,28.3721065 C74.6992308,28.1165065 74.7442308,27.8158065 74.7822308,27.4925065 C74.8722308,26.6355065 74.9922308,25.5830065 74.6312308,25.0041065 C74.2332308,24.7786065 72.6172308,23.8012065 72.7222308,22.9818065 C72.4532308,22.8410065 72.2142308,22.6472065 72.0222308,22.4120065 C71.8302308,22.1769065 71.6872308,21.9053065 71.6022308,21.6136065 C71.4722308,21.0970065 71.4552308,20.5589065 71.5492308,20.0348065 C70.6592308,20.5215065 69.6622308,20.7798065 68.6472308,20.7866065 C68.0342308,20.7886065 67.4282308,20.6548065 66.8732308,20.3948065 C66.3182308,20.1348065 65.8282308,19.7552065 65.4372308,19.2830065 C64.5242308,19.7136065 63.5462308,19.9881065 62.5432308,20.0950065 C62.0332308,20.1433065 61.5182308,20.0883065 61.0302308,19.9333065 C60.5422308,19.7783065 60.0902308,19.5264065 59.7012308,19.1928065 C59.2302308,19.7434065 58.6072308,20.1417065 57.9092308,20.3371065 C57.2122308,20.5325065 56.4722308,20.5163065 55.7842308,20.2904065 C55.7192308,20.8781065 55.4892308,21.4355065 55.1232308,21.8992065 C54.8812308,22.1608065 54.5772308,22.3562065 54.2392308,22.4667065 C53.9012308,22.5773065 53.5402308,22.5993065 53.1902308,22.5307065 Z" id="Shape" fill="#2B2D30"></path>
                            <path d="M63.4382308,28.0337065 C63.4382308,28.0337065 67.0162308,35.9200065 65.4302308,36.0630065 C63.8442308,36.2060065 61.6042308,35.0250065 61.6042308,35.0250065" id="Path" fill="#FFFFFF"></path>
                            <path d="M65.1592308,36.4760065 C63.8462308,36.3690065 62.5672308,35.9980065 61.4002308,35.3860065 C61.3112308,35.3410065 61.2442308,35.2610065 61.2142308,35.1660065 C61.1842308,35.0710065 61.1922308,34.9680065 61.2382308,34.8790065 C61.2842308,34.7900065 61.3632308,34.7230065 61.4592308,34.6930065 C61.5542308,34.6630065 61.6572308,34.6710065 61.7462308,34.7170065 C61.7462308,34.7170065 63.9032308,35.8450065 65.3692308,35.7100065 C65.7682308,35.3040065 64.6932308,31.8004065 63.0692308,28.1918065 C63.0482308,28.1475065 63.0352308,28.0994065 63.0332308,28.0502065 C63.0302308,28.0011065 63.0382308,27.9519065 63.0542308,27.9056065 C63.0712308,27.8594065 63.0972308,27.8170065 63.1312308,27.7809065 C63.1642308,27.7448065 63.2042308,27.7159065 63.2492308,27.6956065 C63.3412308,27.6547065 63.4452308,27.6514065 63.5402308,27.6865065 C63.6342308,27.7217065 63.7112308,27.7925065 63.7532308,27.8836065 C64.5052308,29.4699065 66.7602308,34.7700065 66.0082308,36.0630065 C65.9482308,36.1680065 65.8632308,36.2570065 65.7612308,36.3230065 C65.6592308,36.3880065 65.5432308,36.4280065 65.4222308,36.4390065 L65.1592308,36.4760065 Z" id="Path" fill="#2B2D30"></path>
                            <path d="M65.4152308,41.0470065 C63.0462308,40.9850065 60.7312308,40.3230065 58.6872308,39.1230065 C58.6432308,39.0990065 58.6052308,39.0660065 58.5742308,39.0270065 C58.5432308,38.9880065 58.5202308,38.9430065 58.5072308,38.8960065 C58.4932308,38.8480065 58.4892308,38.7980065 58.4952308,38.7480065 C58.5002308,38.6990065 58.5162308,38.6510065 58.5402308,38.6080065 C58.5642308,38.5640065 58.5972308,38.5260065 58.6362308,38.4950065 C58.6752308,38.4640065 58.7192308,38.4410065 58.7672308,38.4280065 C58.8152308,38.4140065 58.8652308,38.4100065 58.9142308,38.4160065 C58.9642308,38.4220065 59.0122308,38.4370065 59.0552308,38.4610065 C64.6112308,41.5210065 68.1972308,39.7990065 68.2272308,39.7840065 C68.3152308,39.7400065 68.4182308,39.7320065 68.5132308,39.7630065 C68.6072308,39.7940065 68.6852308,39.8610065 68.7302308,39.9500065 C68.7542308,39.9930065 68.7682308,40.0410065 68.7722308,40.0910065 C68.7762308,40.1400065 68.7702308,40.1900065 68.7552308,40.2370065 C68.7392308,40.2840065 68.7142308,40.3270065 68.6822308,40.3640065 C68.6492308,40.4020065 68.6102308,40.4320065 68.5652308,40.4530065 C67.5722308,40.8810065 66.4962308,41.0840065 65.4152308,41.0470065 Z" id="Path" fill="#2B2D30"></path>
                            <path d="M58.8142308,28.5225065 C59.2252308,28.5225065 59.5582308,27.7686065 59.5582308,26.8385065 C59.5582308,25.9085065 59.2252308,25.1545065 58.8142308,25.1545065 C58.4032308,25.1545065 58.0692308,25.9085065 58.0692308,26.8385065 C58.0692308,27.7686065 58.4032308,28.5225065 58.8142308,28.5225065 Z" id="Path" fill="#2B2D30"></path>
                            <path d="M68.7902308,28.5225065 C69.2012308,28.5225065 69.5342308,27.7686065 69.5342308,26.8385065 C69.5342308,25.9085065 69.2012308,25.1545065 68.7902308,25.1545065 C68.3792308,25.1545065 68.0462308,25.9085065 68.0462308,26.8385065 C68.0462308,27.7686065 68.3792308,28.5225065 68.7902308,28.5225065 Z" id="Path" fill="#2B2D30"></path>
                            <path d="M79.3602308,120.458006 C77.9062308,123.862006 75.3932308,126.705006 72.1942308,128.568006 C68.9952308,130.430006 65.2812308,131.211006 61.6032308,130.795006 C59.9492308,130.604006 58.3312308,130.176006 56.7992308,129.524006 C52.6072308,127.735006 49.2972308,124.354006 47.5972308,120.125006 C45.8972308,115.895006 45.9462308,111.164006 47.7332308,106.971006 C47.9212308,106.542006 48.1162308,106.121006 48.3342308,105.723006 C50.3652308,101.878006 53.7772308,98.9450065 57.8842308,97.5160065 C61.9912308,96.0870065 66.4872308,96.2670065 70.4662308,98.0220065 C74.4442308,99.7760065 77.6102308,102.974006 79.3252308,106.970006 C81.0402308,110.966006 81.1762308,115.463006 79.7062308,119.556006 C79.6012308,119.864006 79.5032308,120.165006 79.3602308,120.458006 Z" id="Path" fill="#FFFFFF"></path>
                            <path d="M63.5732308,131.284006 C62.9002308,131.283006 62.2272308,131.246006 61.5582308,131.171006 C58.8412308,130.859006 56.2342308,129.918006 53.9452308,128.422006 C51.6552308,126.925006 49.7472308,124.915006 48.3712308,122.552006 C46.9952308,120.188006 46.1892308,117.536006 46.0192308,114.806006 C45.8482308,112.077006 46.3162308,109.345006 47.3872308,106.828006 C47.6052308,106.325006 47.8012308,105.919006 48.0042308,105.543006 C49.5032308,102.681006 51.7642308,100.289006 54.5362308,98.6310065 C57.3092308,96.9730065 60.4852308,96.1130065 63.7162308,96.1450065 C66.5232308,96.1720065 69.2822308,96.8700065 71.7642308,98.1820065 C74.2452308,99.4950065 76.3762308,101.382006 77.9782308,103.687006 C79.5802308,105.992006 80.6062308,108.647006 80.9712308,111.431006 C81.3362308,114.214006 81.0282308,117.044006 80.0752308,119.684006 C79.9692308,119.992006 79.8492308,120.300006 79.7212308,120.608006 C78.3692308,123.769006 76.1202308,126.464006 73.2532308,128.362006 C70.3862308,130.259006 67.0262308,131.275006 63.5882308,131.284006 L63.5732308,131.284006 Z M63.5732308,96.8970029 C60.5012308,96.8950065 57.4872308,97.7350065 54.8592308,99.3250065 C52.2312308,100.916006 50.0882308,103.196006 48.6652308,105.919006 C48.4492308,106.317006 48.2542308,106.726006 48.0792308,107.144006 C46.4272308,111.229006 46.4442308,115.798006 48.1262308,119.871006 C49.8092308,123.943006 53.0222308,127.192006 57.0752308,128.920006 C61.1282308,130.647006 65.6982308,130.715006 69.8002308,129.109006 C73.9032308,127.503006 77.2122308,124.351006 79.0152308,120.330006 C79.1352308,120.045006 79.2482308,119.759006 79.3452308,119.466006 C80.8002308,115.481006 80.6872308,111.093006 79.0302308,107.189006 C77.3272308,103.179006 74.1402308,99.9820065 70.1362308,98.2650065 C68.1002308,97.3910065 65.9092308,96.9340065 63.6932308,96.9200065 L63.5732308,96.8970029 Z" id="Shape" fill="#2B2D30"></path>
                            <polygon id="Path" fill="#2B2D30" points="66.4232308 106.963006 58.2662308 108.835006 57.5212308 117.173006 65.2202308 120.458006 70.7232308 114.143006"></polygon>
                            <path d="M65.2202308,120.834006 C65.1722308,120.841006 65.1242308,120.841006 65.0772308,120.834006 L57.3712308,117.549006 C57.2992308,117.515006 57.2392308,117.461006 57.1992308,117.392006 C57.1582308,117.324006 57.1402308,117.245006 57.1462308,117.165006 L57.8972308,108.828006 C57.9062308,108.749006 57.9392308,108.675006 57.9922308,108.616006 C58.0442308,108.557006 58.1142308,108.515006 58.1912308,108.497006 L66.3472308,106.625006 C66.4252308,106.606006 66.5062308,106.613006 66.5792308,106.644006 C66.6522308,106.675006 66.7132308,106.729006 66.7532308,106.798006 L71.0542308,113.978006 C71.0942308,114.046006 71.1122308,114.126006 71.1062308,114.205006 C71.0992308,114.285006 71.0682308,114.360006 71.0162308,114.421006 L65.5052308,120.676006 C65.4742308,120.723006 65.4312308,120.762006 65.3812308,120.789006 C65.3322308,120.817006 65.2762308,120.832006 65.2202308,120.834006 Z M57.9202308,116.917006 L65.1222308,119.984006 L70.2642308,114.090006 L66.2422308,107.377006 L58.6122308,109.121006 L57.9202308,116.917006 Z" id="Shape" fill="#2B2D30"></path>
                            <path d="M75.8422308,101.709006 L67.8882308,103.528006 L63.7162308,96.5210065 C65.9832308,96.5390065 68.2252308,97.0070065 70.3102308,97.8980065 C72.3952308,98.7880065 74.2832308,100.083006 75.8652308,101.709006 L75.8422308,101.709006 Z" id="Path" fill="#2B2D30"></path>
                            <path d="M67.8882308,103.904048 C67.8222308,103.905006 67.7572308,103.888006 67.7002308,103.855006 C67.6432308,103.822006 67.5962308,103.774006 67.5652308,103.716006 L63.3702308,96.7090065 C63.3372308,96.6520065 63.3192308,96.5870065 63.3192308,96.5210065 C63.3192308,96.4550065 63.3372308,96.3900065 63.3702308,96.3330065 C63.4012308,96.2750065 63.4482308,96.2270065 63.5052308,96.1940065 C63.5622308,96.1610065 63.6272308,96.1440065 63.6932308,96.1449647 C66.0072308,96.1610065 68.2942308,96.6340065 70.4252308,97.5370065 C72.5552308,98.4400065 74.4852308,99.7560065 76.1052308,101.408006 C76.1512308,101.456006 76.1832308,101.515006 76.1992308,101.580006 C76.2152308,101.645006 76.2132308,101.712006 76.1952308,101.776006 C76.1762308,101.840006 76.1402308,101.897006 76.0912308,101.942006 C76.0422308,101.987006 75.9822308,102.018006 75.9172308,102.032006 L67.9632308,103.851006 L67.8882308,103.904048 Z M64.3702308,96.9120065 L68.0682308,103.099006 L75.0902308,101.490006 C73.6482308,100.118006 71.9702308,99.0180065 70.1362308,98.2430065 C68.3082308,97.4600065 66.3552308,97.0100065 64.3702308,96.9120065 Z" id="Shape" fill="#2B2D30"></path>
                            <path d="M52.5742308,126.946006 C49.1562308,124.119006 46.9672308,120.077006 46.4702308,115.669006 L46.9882308,115.210006 L54.2132308,119.435006 L52.5742308,126.946006 Z" id="Path" fill="#2B2D30"></path>
                            <path d="M52.5752308,127.322006 C52.4862308,127.323006 52.4012308,127.291006 52.3352308,127.231006 C48.8402308,124.354006 46.6042308,120.228006 46.1022308,115.729006 C46.0942308,115.669006 46.1002308,115.609006 46.1212308,115.552006 C46.1422308,115.496006 46.1772308,115.445006 46.2232308,115.406006 L46.7412308,114.940006 C46.8022308,114.888006 46.8782308,114.857006 46.9572308,114.850006 C47.0372308,114.843006 47.1162308,114.862006 47.1852308,114.902006 L54.4092308,119.127006 C54.4772308,119.168006 54.5312308,119.229006 54.5622308,119.302006 C54.5932308,119.375006 54.6002308,119.456006 54.5822308,119.533006 L52.9362308,127.051006 C52.9232308,127.113006 52.8932308,127.170006 52.8512308,127.218006 C52.8092308,127.265006 52.7552308,127.301006 52.6952308,127.322006 C52.6562308,127.329006 52.6152308,127.329006 52.5752308,127.322006 Z M46.8692308,115.834006 C47.3682308,119.857006 49.3132308,123.561006 52.3422308,126.254006 L53.7932308,119.638006 L47.0272308,115.684006 L46.8692308,115.834006 Z" id="Shape" fill="#2B2D30"></path>
                            <path d="M73.9482308,127.397006 C70.4252308,130.079006 66.0022308,131.296006 61.6042308,130.795006 L65.8662308,124.420006 L73.9182308,126.675006 L73.9482308,127.397006 Z" id="Path" fill="#2B2D30"></path>
                            <path d="M63.5732308,131.284006 C62.9002308,131.283006 62.2272308,131.246006 61.5582308,131.171006 C61.4932308,131.164006 61.4322308,131.140006 61.3792308,131.103006 C61.3262308,131.065006 61.2842308,131.014006 61.2562308,130.955006 C61.2292308,130.895006 61.2182308,130.830006 61.2232308,130.765006 C61.2282308,130.700006 61.2512308,130.638006 61.2882308,130.584006 L65.5582308,124.209006 C65.6012308,124.143006 65.6652308,124.093006 65.7402308,124.066006 C65.8142308,124.039006 65.8952308,124.036006 65.9712308,124.059006 L74.0232308,126.314006 C74.0992308,126.335006 74.1662308,126.380006 74.2152308,126.442006 C74.2642308,126.505006 74.2912308,126.581006 74.2932308,126.660006 L74.2932308,127.352006 C74.2962308,127.413006 74.2832308,127.473006 74.2572308,127.528006 C74.2312308,127.583006 74.1922308,127.631006 74.1432308,127.668006 C71.1112308,129.998006 67.3972308,131.269006 63.5732308,131.284006 Z M62.2652308,130.449006 C66.2952308,130.760006 70.3012308,129.601006 73.5422308,127.186006 L73.5422308,126.961006 L66.0242308,124.826006 L62.2652308,130.449006 Z" id="Shape" fill="#2B2D30"></path>
                            <path d="M55.8902308,104.979006 L48.3352308,105.730006 C50.2882308,101.991006 53.5552308,99.1040065 57.5072308,97.6260065 L55.8902308,104.979006 Z" id="Path" fill="#2B2D30"></path>
                            <path d="M48.3342308,106.099006 C48.2732308,106.099006 48.2132308,106.084006 48.1592308,106.055006 C48.1062308,106.026006 48.0602308,105.984006 48.0262308,105.933006 C47.9892308,105.876006 47.9702308,105.810006 47.9702308,105.742006 C47.9702308,105.674006 47.9892308,105.607006 48.0262308,105.550006 C50.0262308,101.736006 53.3612308,98.7920065 57.3932308,97.2800065 C57.4572308,97.2579302 57.5242308,97.2520065 57.5902308,97.2640065 C57.6562308,97.2760065 57.7182308,97.3050065 57.7692308,97.3480065 C57.8202308,97.3930065 57.8592308,97.4510065 57.8812308,97.5160065 C57.9042308,97.5800065 57.9092308,97.6490065 57.8972308,97.7160065 L56.2812308,105.069006 C56.2642308,105.147006 56.2232308,105.218006 56.1642308,105.272006 C56.1042308,105.326006 56.0302308,105.360006 55.9502308,105.370006 L48.4322308,106.121006 L48.3342308,106.099006 Z M56.9872308,98.2280065 C53.6312308,99.6480065 50.8282308,102.124006 49.0042308,105.279006 L55.5822308,104.633006 L56.9872308,98.2280065 Z" id="Shape" fill="#2B2D30"></path>
                            <path d="M79.7062308,119.556006 L74.9922308,113.541006 L79.3752308,106.993006 C81.0732308,110.988006 81.1912308,115.478006 79.7062308,119.556006 Z" id="Path" fill="#2B2D30"></path>
                            <path d="M79.7062308,119.92406 C79.6502308,119.925006 79.5942308,119.912006 79.5432308,119.887006 C79.4922308,119.862006 79.4482308,119.826006 79.4132308,119.781006 L74.6992308,113.767006 C74.6522308,113.703006 74.6272308,113.625006 74.6272308,113.545006 C74.6272308,113.466006 74.6522308,113.388006 74.6992308,113.324006 L79.0822308,106.776006 C79.1212308,106.719006 79.1742308,106.674006 79.2362308,106.645006 C79.2982308,106.615006 79.3672308,106.604006 79.4362308,106.610006 C79.5032308,106.618006 79.5672308,106.644006 79.6212308,106.685006 C79.6752308,106.726006 79.7182308,106.781006 79.7442308,106.843006 C81.4642308,110.908006 81.5852308,115.473006 80.0822308,119.624006 C80.0612308,119.688006 80.0222308,119.745006 79.9702308,119.789006 C79.9192308,119.833006 79.8562308,119.861006 79.7892308,119.872006 L79.7062308,119.92406 Z M75.4592308,113.534006 L79.5782308,118.797006 C80.7162308,115.214006 80.6132308,111.352006 79.2852308,107.836006 L75.4592308,113.534006 Z" id="Shape" fill="#2B2D30"></path>
                            <path d="M75.0682308,76.4410065 C75.0682308,76.4410065 71.6852308,74.9370065 71.6852308,73.0580065 L71.6852308,67.8860065 L78.4512416,67.8860065 L78.4512416,73.0580065 C78.4582308,74.9300065 75.0682308,76.4410065 75.0682308,76.4410065 Z" id="Path" fill="#FFFFFF"></path>
                            <path d="M75.0682308,76.8170065 C75.0192308,76.8280065 74.9682308,76.8280065 74.9182308,76.8170065 C74.7682308,76.7490065 71.3102308,75.1780065 71.3102308,73.0580065 L71.3102308,67.8860065 C71.3102308,67.7860065 71.3492308,67.6910065 71.4202308,67.6200065 C71.4902308,67.5500065 71.5862308,67.5100065 71.6852308,67.5100065 L78.4522308,67.5100065 C78.5512308,67.5120065 78.6452308,67.5520065 78.7152308,67.6220065 C78.7852308,67.6920065 78.8252308,67.7870065 78.8272308,67.8860065 L78.8272308,73.0580065 C78.8272308,75.1480065 75.3622308,76.7190065 75.2192308,76.8170065 C75.1692308,76.8270065 75.1182308,76.8270065 75.0682308,76.8170065 Z M72.0612308,68.2620065 L72.0612308,73.0580065 C72.0612308,74.3140065 74.1062308,75.5620065 75.0682308,76.0650065 C76.0382308,75.5990065 78.0762308,74.3510065 78.0762308,73.0580065 L78.0762308,68.2620065 L72.0612308,68.2620065 Z" id="Shape" fill="#2B2D30"></path>
                            <path d="M33.2162308,59.4130065 C33.2162308,59.4130065 -5.12476918,120.488006 1.02423082,130.186006 C7.17423082,139.884006 40.9972308,121.593006 40.9972308,121.593006 L37.1022308,112.752006 L21.8862308,112.331006 C23.9462308,106.152006 34.6672308,90.0630065 34.6672308,90.0630065 L33.2162308,59.4130065 Z" id="Path" fill="#2B2D30"></path>
                            <path d="M8.00923082,133.396006 C4.71623082,133.396006 2.07823082,132.547006 0.709230821,130.389006 C-5.52276918,120.616006 31.3222308,61.7140065 32.8932308,59.2100065 C32.9352308,59.1410065 32.9972308,59.0880065 33.0722308,59.0580065 C33.1472308,59.0280065 33.2292308,59.0240065 33.3072308,59.0450065 C33.3842308,59.0660065 33.4522308,59.1100065 33.5022308,59.1720065 C33.5522308,59.2350065 33.5812308,59.3110065 33.5852308,59.3910065 L35.0882308,90.0480065 C35.0952308,90.1280065 35.0742308,90.2080065 35.0282308,90.2740065 C34.9232308,90.4320065 24.8342308,105.588006 22.4512308,111.970006 L37.1482308,112.376006 C37.2202308,112.378006 37.2902308,112.401006 37.3502308,112.441006 C37.4092308,112.480006 37.4572308,112.536006 37.4862308,112.602006 L41.3432308,121.428006 C41.3832308,121.514006 41.3882308,121.612006 41.3572308,121.702006 C41.3262308,121.791006 41.2622308,121.865006 41.1782308,121.909006 C40.0882308,122.518006 19.8202308,133.396006 8.00923082,133.396006 Z M32.8932308,60.6310065 C30.6382308,64.3220065 22.5492308,77.4790065 15.1362308,91.3420065 C0.642230821,118.406006 -0.365769179,127.307006 1.34123082,129.991006 C4.39323082,134.787006 14.9102308,132.201006 23.1952308,129.179006 C29.1142308,126.956006 34.8892308,124.367006 40.4862308,121.428006 L36.8552308,113.158006 L21.8722308,112.745006 C21.8152308,112.740006 21.7592308,112.724006 21.7092308,112.697006 C21.6582308,112.669006 21.6142308,112.632006 21.5792308,112.587006 C21.5452308,112.538006 21.5232308,112.482006 21.5132308,112.424006 C21.5042308,112.365006 21.5092308,112.305006 21.5262308,112.249006 C23.5182308,106.287006 33.2922308,91.5070065 34.3062308,89.9960065 L32.8932308,60.6310065 Z" id="Shape" fill="#2B2D30"></path>
                            <path d="M43.0582308,121.593006 C43.0582308,121.593006 46.6742308,120.947006 48.6132308,118.519006 C50.5532308,116.090006 50.5602308,111.790006 51.9892308,111.001006 C53.4172308,110.211006 57.3722308,110.895006 56.7782308,109.016006 C56.1842308,107.137006 52.8762308,107.588006 52.8762308,107.588006 C52.8762308,107.588006 58.5822308,106.836006 56.7782308,105.272006 C54.9732308,103.708006 51.2222308,104.385006 51.2222308,104.385006 C51.2222308,104.385006 58.2742308,103.393006 55.5222308,101.852006 C52.7712308,100.310006 49.7482308,102.603006 49.7482308,102.603006 C49.7482308,102.603006 55.0492308,100.235006 53.0792308,99.5440065 C51.1092308,98.8520065 46.6962308,100.731006 45.4862308,102.603006 C44.2752308,104.475006 44.4942308,107.565006 39.9682308,110.760006 L43.0582308,121.593006 Z" id="Path" fill="#FFFFFF"></path>
                            <path d="M43.0572308,121.969034 C42.9752308,121.970006 42.8952308,121.944006 42.8302308,121.895006 C42.7652308,121.846006 42.7172308,121.777006 42.6962308,121.698006 L39.6062308,110.903006 C39.5872308,110.827006 39.5902308,110.748006 39.6162308,110.675006 C39.6412308,110.601006 39.6872308,110.537006 39.7492308,110.489006 C41.9212308,109.045006 43.5172308,106.885006 44.2602308,104.385006 C44.4762308,103.705006 44.7682308,103.052006 45.1322308,102.438006 C46.3872308,100.498006 50.9132308,98.4380065 53.1682308,99.2280065 C53.7172308,99.4230065 53.8452308,99.7460065 53.8522308,99.9790065 C53.8322308,100.171006 53.7722308,100.356006 53.6762308,100.523006 C53.5812308,100.690006 53.4512308,100.835006 53.2962308,100.949006 C54.1232308,100.925006 54.9422308,101.125006 55.6642308,101.528006 C56.2882308,101.881006 56.5662308,102.280006 56.4842308,102.708006 C56.3782308,103.257006 55.6112308,103.686006 54.6722308,104.009006 C55.5142308,104.128006 56.3112308,104.468006 56.9802308,104.994006 C57.1602308,105.110006 57.3002308,105.280006 57.3812308,105.479006 C57.4622308,105.678006 57.4792308,105.897006 57.4312308,106.106006 C57.2582308,106.700006 56.3932308,107.121006 55.4462308,107.422006 C55.8242308,107.516006 56.1732308,107.702006 56.4602308,107.965006 C56.7482308,108.227006 56.9652308,108.558006 57.0922308,108.926006 C57.1612308,109.100006 57.1882308,109.288006 57.1712308,109.475006 C57.1542308,109.661006 57.0942308,109.841006 56.9952308,110.001006 C56.5512308,110.677006 55.4082308,110.805006 54.1912308,110.940006 C53.4862308,110.968006 52.7912308,111.107006 52.1312308,111.354006 C51.5592308,111.662006 51.2062308,112.910006 50.8232308,114.226006 C50.4692308,115.842006 49.8052308,117.373006 48.8682308,118.736006 C46.8612308,121.247006 43.2372308,121.924006 43.0872308,121.954006 L43.0572308,121.969034 Z M40.4102308,110.948006 L43.3272308,121.150006 C44.2442308,120.924006 46.8312308,120.150006 48.3272308,118.285006 C49.2002308,116.988006 49.8172308,115.536006 50.1462308,114.008006 C50.5902308,112.504006 50.9652308,111.143006 51.8222308,110.685006 C52.5662308,110.387006 53.3532308,110.217006 54.1532308,110.181006 C55.0482308,110.083006 56.1602308,109.963006 56.4082308,109.580006 C56.4082308,109.542006 56.5062308,109.429006 56.4082308,109.151006 C55.9202308,107.595006 52.9502308,107.971006 52.9132308,107.971006 C52.8142308,107.984006 52.7142308,107.957006 52.6352308,107.896006 C52.5562308,107.836006 52.5052308,107.746006 52.4922308,107.648006 C52.4812308,107.549006 52.5082308,107.451006 52.5692308,107.372006 C52.6292308,107.294006 52.7172308,107.241006 52.8152308,107.227006 C54.5972308,106.986006 56.5742308,106.400006 56.7392308,105.903006 C56.7392308,105.798006 56.5962308,105.633006 56.5212308,105.573006 C55.1302308,104.377006 52.3712308,104.625006 51.5292308,104.738006 L51.2662308,104.738006 C51.1682308,104.751006 51.0682308,104.726006 50.9882308,104.667006 C50.9082308,104.608006 50.8542308,104.520006 50.8382308,104.422006 C50.8222308,104.325006 50.8462308,104.225006 50.9042308,104.145006 C50.9622308,104.065006 51.0482308,104.010006 51.1462308,103.994006 L51.4622308,103.949006 C53.6792308,103.603006 55.6942308,102.956006 55.7692308,102.543006 C55.7692308,102.543006 55.7092308,102.370006 55.3262308,102.160006 C54.7992308,101.883006 54.2212308,101.721006 53.6272308,101.683006 C53.0342308,101.646006 52.4402308,101.734006 51.8832308,101.942006 C51.1312308,102.363006 50.3792308,102.693006 49.8982308,102.949006 C49.8122308,102.986006 49.7162308,102.990006 49.6282308,102.961006 C49.5392308,102.932006 49.4642308,102.871006 49.4172308,102.791006 C49.3712308,102.712006 49.3552308,102.618006 49.3732308,102.528006 C49.3912308,102.438006 49.4412308,102.358006 49.5142308,102.302006 C50.1462308,101.844006 50.8432308,101.484006 51.5822308,101.235006 C52.4842308,100.709006 53.0852308,100.220006 53.1312308,99.9870065 C53.0722308,99.9480065 53.0092308,99.9180065 52.9432308,99.8970065 C51.2212308,99.2950065 46.9282308,101.032006 45.7932308,102.806006 C45.4622308,103.374006 45.1952308,103.976006 44.9962308,104.603006 C44.2372308,107.180006 42.6192308,109.419006 40.4102308,110.948006 Z" id="Shape" fill="#2B2D30"></path>
                            <polygon id="Path" fill="#FFFFFF" points="39.9672308 110.798006 35.3362308 111.903006 38.9372308 124.322006 43.0572308 121.593006"></polygon>
                            <path d="M38.9072308,124.698006 L38.7792308,124.698006 C38.7232308,124.678006 38.6732308,124.646006 38.6322308,124.603006 C38.5922308,124.559006 38.5622308,124.507006 38.5462308,124.450006 L34.9452308,112.031006 C34.9252308,111.984006 34.9142308,111.934006 34.9142308,111.884006 C34.9142308,111.833006 34.9252308,111.783006 34.9452308,111.737006 C34.9702308,111.692006 35.0052308,111.653006 35.0462308,111.621006 C35.0882308,111.590006 35.1352308,111.568006 35.1862308,111.557006 L39.8172308,110.459006 C39.9092308,110.436006 40.0072308,110.450006 40.0902308,110.497006 C40.1732308,110.545006 40.2342308,110.623006 40.2602308,110.715006 L43.4182308,121.495006 C43.4412308,121.571006 43.4382308,121.653006 43.4112308,121.727006 C43.3842308,121.802006 43.3342308,121.865006 43.2672308,121.909006 L39.1482308,124.638006 C39.0782308,124.687006 38.9922308,124.708006 38.9072308,124.698006 Z M35.7802308,112.173006 L39.1332308,123.728006 L42.5912308,121.435006 L39.6742308,111.249006 L35.7802308,112.173006 Z" id="Shape" fill="#2B2D30"></path>
                            <path d="M90.1942308,59.4130065 C90.1942308,59.4130065 128.535231,120.488006 122.378231,130.186006 C116.220231,139.884006 82.4052308,121.593006 82.4052308,121.593006 L86.2692308,112.752006 L101.493231,112.331006 C99.4332308,106.152006 88.7132308,90.0630065 88.7132308,90.0630065 L90.1942308,59.4130065 Z" id="Path" fill="#2B2D30"></path>
                            <path d="M115.394231,133.396006 C103.591231,133.396006 83.3152308,122.518006 82.2252308,121.924006 C82.1422308,121.879006 82.0792308,121.805006 82.0492308,121.716006 C82.0182308,121.627006 82.0222308,121.529006 82.0602308,121.443006 L85.9542308,112.602006 C85.9842308,112.537006 86.0322308,112.481006 86.0922308,112.442006 C86.1512308,112.402006 86.2212308,112.379006 86.2922308,112.376006 L100.990231,111.970006 C98.6142308,105.588006 88.5182308,90.4320065 88.4122308,90.2740065 C88.3702308,90.2070065 88.3492308,90.1280065 88.3522308,90.0480065 L89.8182308,59.3910065 C89.8222308,59.3110065 89.8512308,59.2350065 89.9012308,59.1720065 C89.9512308,59.1100065 90.0192308,59.0660065 90.0962308,59.0450065 C90.1742308,59.0240065 90.2562308,59.0280065 90.3312308,59.0580065 C90.4062308,59.0880065 90.4682308,59.1410065 90.5102308,59.2100065 C92.0812308,61.7140065 128.933231,120.601006 122.701231,130.389006 C121.325231,132.547006 118.687231,133.396006 115.394231,133.396006 Z M82.8872308,121.428006 C88.4962308,124.370006 94.2832308,126.958006 100.215231,129.179006 C108.485231,132.186006 119.010231,134.787006 122.062231,129.991006 C123.769231,127.307006 122.761231,118.421006 108.274231,91.3420065 C100.854231,77.4790065 92.7952308,64.3220065 90.5102308,60.6310065 L89.1122308,89.9510065 C90.1112308,91.4540065 99.8922308,106.242006 101.892231,112.203006 C101.911231,112.260006 101.917231,112.319006 101.909231,112.378006 C101.901231,112.437006 101.880231,112.493006 101.847231,112.542006 C101.811231,112.588006 101.765231,112.626006 101.713231,112.653006 C101.661231,112.680006 101.604231,112.696006 101.546231,112.700006 L86.5632308,113.113006 L82.8872308,121.428006 Z" id="Shape" fill="#2B2D30"></path>
                            <path d="M80.3452308,121.593006 C80.3452308,121.593006 76.7372308,120.947006 74.7902308,118.519006 C72.8422308,116.090006 72.8502308,111.790006 71.4142308,111.001006 C69.9782308,110.211006 66.0392308,110.895006 66.6332308,109.016006 C67.2272308,107.137006 70.5272308,107.588006 70.5272308,107.588006 C70.5272308,107.588006 64.8212308,106.836006 66.6332308,105.272006 C68.4442308,103.708006 72.1882308,104.385006 72.1882308,104.385006 C72.1882308,104.385006 65.1292308,103.393006 67.8882308,101.852006 C70.6472308,100.310006 73.6542308,102.603006 73.6542308,102.603006 C73.6542308,102.603006 68.3542308,100.235006 70.3242308,99.5440065 C72.2942308,98.8520065 76.7072308,100.731006 77.9242308,102.603006 C79.1422308,104.475006 78.9172308,107.565006 83.4352308,110.760006 L80.3452308,121.593006 Z" id="Path" fill="#FFFFFF"></path>
                            <path d="M80.3462308,121.969006 L80.2562308,121.969006 C80.1052308,121.969006 76.4972308,121.262006 74.4742308,118.751006 C73.5392308,117.387006 72.8762308,115.856006 72.5202308,114.241006 C72.1442308,112.925006 71.7682308,111.677006 71.2122308,111.369006 C70.5522308,111.121006 69.8562308,110.982006 69.1522308,110.956006 C67.9412308,110.820006 66.7912308,110.692006 66.3482308,110.016006 C66.2502308,109.856006 66.1912308,109.676006 66.1742308,109.490006 C66.1572308,109.303006 66.1832308,109.115006 66.2502308,108.941006 C66.3772308,108.573006 66.5952308,108.243006 66.8822308,107.980006 C67.1702308,107.717006 67.5182308,107.531006 67.8962308,107.437006 C66.9492308,107.136006 66.0842308,106.685006 65.9122308,106.122006 C65.8632308,105.912006 65.8812308,105.693006 65.9612308,105.494006 C66.0422308,105.295006 66.1822308,105.126006 66.3632308,105.009006 C67.0352308,104.484006 67.8342308,104.145006 68.6782308,104.024006 C67.7312308,103.701006 66.9642308,103.272006 66.8662308,102.723006 C66.7842308,102.295006 67.0542308,101.897006 67.6782308,101.543006 C68.4012308,101.141006 69.2192308,100.941006 70.0462308,100.964006 C69.8932308,100.849006 69.7642308,100.704006 69.6682308,100.537006 C69.5732308,100.370006 69.5122308,100.186006 69.4902308,99.9950065 C69.4902308,99.7540065 69.6252308,99.4310065 70.1822308,99.2430065 C72.4372308,98.4530065 76.9482308,100.513006 78.2182308,102.453006 C78.5792308,103.067006 78.8692308,103.720006 79.0832308,104.400006 C79.8412308,106.903006 81.4502308,109.062006 83.6312308,110.504006 C83.6942308,110.551006 83.7422308,110.615006 83.7672308,110.689006 C83.7932308,110.763006 83.7952308,110.843006 83.7742308,110.918006 L80.6842308,121.714006 C80.6612308,121.786006 80.6162308,121.849006 80.5552308,121.895006 C80.4952308,121.941006 80.4222308,121.967006 80.3462308,121.969006 Z M69.7312308,107.933006 C68.8062308,107.933006 67.3472308,108.106006 67.0172308,109.144006 C66.9342308,109.429006 67.0172308,109.542006 67.0172308,109.580006 C67.2652308,109.963006 68.3772308,110.083006 69.2722308,110.181006 C70.0742308,110.217006 70.8642308,110.387006 71.6102308,110.685006 C72.4602308,111.143006 72.8432308,112.474006 73.2792308,114.008006 C73.6072308,115.536006 74.2252308,116.988006 75.0982308,118.285006 C76.6022308,120.150006 79.1802308,120.924006 80.0982308,121.150006 L83.0152308,110.948006 C80.8072308,109.431006 79.1842308,107.206006 78.4142308,104.641006 C78.2142308,104.016006 77.9502308,103.413006 77.6242308,102.844006 C76.4742308,101.070006 72.1962308,99.3330065 70.4672308,99.9340065 C70.3952308,99.9550065 70.3292308,99.9910065 70.2722308,100.040006 C70.2722308,100.258006 70.9182308,100.739006 71.8212308,101.273006 C72.5662308,101.518006 73.2682308,101.878006 73.9032308,102.340006 C73.9872308,102.392006 74.0472308,102.474006 74.0712308,102.570006 C74.0942308,102.666006 74.0792308,102.767006 74.0292308,102.852006 C73.9792308,102.937006 73.8972308,102.998006 73.8022308,103.023006 C73.7072308,103.049006 73.6052308,103.035006 73.5202308,102.987006 C73.0232308,102.761006 72.2572308,102.400006 71.5352308,101.979006 C70.9772308,101.772006 70.3812308,101.684006 69.7862308,101.721006 C69.1922308,101.759006 68.6122308,101.921006 68.0842308,102.197006 C67.7012308,102.408006 67.6332308,102.558006 67.6412308,102.581006 C67.7162308,102.994006 69.7312308,103.641006 71.9482308,103.986006 L72.2642308,104.032006 C72.3612308,104.048006 72.4482308,104.102006 72.5062308,104.183006 C72.5642308,104.263006 72.5882308,104.362006 72.5722308,104.460006 C72.5562308,104.557006 72.5032308,104.643006 72.4252308,104.702006 C72.3462308,104.760006 72.2492308,104.787006 72.1512308,104.776006 L71.8882308,104.776006 C71.0462308,104.663006 68.2802308,104.415006 66.8892308,105.610006 C66.8142308,105.670006 66.6412308,105.836006 66.6712308,105.941006 C66.8212308,106.437006 68.8212308,107.024006 70.5952308,107.264006 C70.6952308,107.277006 70.7852308,107.329006 70.8472308,107.409006 C70.9082308,107.489006 70.9352308,107.589006 70.9222308,107.689006 C70.9092308,107.789006 70.8572308,107.879006 70.7782308,107.940006 C70.6982308,108.002006 70.5972308,108.029006 70.4972308,108.016006 C70.4972308,108.016006 70.1522308,107.933006 69.7312308,107.933006 Z" id="Shape" fill="#2B2D30"></path>
                            <polygon id="Path" fill="#FFFFFF" points="83.4362308 110.798006 88.0672308 111.903006 84.4652308 124.322006 80.3462308 121.593006"></polygon>
                            <path d="M84.4652308,124.698006 C84.3902308,124.700006 84.3172308,124.679006 84.2552308,124.638006 L80.1422308,121.909006 C80.0742308,121.867006 80.0212308,121.804006 79.9922308,121.729006 C79.9642308,121.654006 79.9612308,121.572006 79.9842308,121.495006 L83.0742308,110.692006 C83.1012308,110.599006 83.1632308,110.520006 83.2472308,110.472006 C83.3322308,110.424006 83.4322308,110.411006 83.5252308,110.437006 L88.1562308,111.534006 C88.2052308,111.547006 88.2522308,111.569006 88.2922308,111.600006 C88.3322308,111.631006 88.3652308,111.670006 88.3892308,111.715006 C88.4162308,111.758006 88.4332308,111.807006 88.4402308,111.857006 C88.4462308,111.908006 88.4422308,111.959006 88.4272308,112.008006 L84.8262308,124.435006 C84.8102308,124.492006 84.7802308,124.544006 84.7402308,124.587006 C84.6992308,124.631006 84.6492308,124.663006 84.5932308,124.683006 C84.5512308,124.695006 84.5082308,124.700006 84.4652308,124.698006 Z M80.7812308,121.428006 L84.2472308,123.721006 L87.5922308,112.166006 L83.6982308,111.241006 L80.7812308,121.428006 Z" id="Shape" fill="#2B2D30"></path>
                            <path d="M33.4342308,64.4280315 C33.3572308,64.4270065 33.2812308,64.4030065 33.2182308,64.3570065 C33.1552308,64.3120065 33.1072308,64.2490065 33.0812308,64.1750065 C33.0562308,64.1020065 33.0542308,64.0220065 33.0752308,63.9480065 C33.0972308,63.8730065 33.1412308,63.8070065 33.2012308,63.7580065 C45.2302308,53.9850065 53.6352308,54.8800065 53.9802308,54.9170065 C54.0802308,54.9310065 54.1702308,54.9820065 54.2322308,55.0610065 C54.2932308,55.1390065 54.3222308,55.2390065 54.3112308,55.3380065 C54.3062308,55.3880065 54.2902308,55.4360065 54.2662308,55.4790065 C54.2422308,55.5230065 54.2092308,55.5610065 54.1702308,55.5920065 C54.1312308,55.6230065 54.0862308,55.6450065 54.0382308,55.6590065 C53.9902308,55.6720065 53.9402308,55.6760065 53.8902308,55.6690065 C53.8082308,55.6690065 45.4182308,54.7820065 33.6752308,64.3450065 C33.6072308,64.4000065 33.5222308,64.4290065 33.4342308,64.4280315 Z" id="Path" fill="#2B2D30"></path>
                            <path d="M90.0292308,62.5260065 C89.9532308,62.5260065 89.8792308,62.5030065 89.8182308,62.4580065 C82.8272308,57.5260065 70.9632308,57.5260065 70.8062308,57.5260065 C70.7072308,57.5260065 70.6132308,57.4880065 70.5422308,57.4190065 C70.4722308,57.3500065 70.4322308,57.2560065 70.4302308,57.1580065 C70.4302308,57.0580065 70.4692308,56.9610065 70.5392308,56.8900065 C70.6102308,56.8180065 70.7052308,56.7770065 70.8062308,56.7750065 C71.3092308,56.7750065 83.0672308,56.7750065 90.2842308,61.8640065 C90.3252308,61.8930065 90.3602308,61.9290065 90.3862308,61.9710065 C90.4132308,62.0130065 90.4312308,62.0600065 90.4392308,62.1090065 C90.4472308,62.1570065 90.4462308,62.2080065 90.4352308,62.2560065 C90.4242308,62.3040065 90.4032308,62.3500065 90.3742308,62.3900065 C90.3352308,62.4420065 90.2812308,62.4820065 90.2202308,62.5060065 C90.1592308,62.5300065 90.0932308,62.5370065 90.0292308,62.5260065 Z" id="Path" fill="#2B2D30"></path>
                            <path d="M36.2842308,171.271006 C36.1852308,171.261006 36.0942308,171.214006 36.0292308,171.138006 C35.9652308,171.062006 35.9322308,170.964006 35.9382308,170.865006 L38.8552308,134.915006 C38.8592308,134.865006 38.8732308,134.817006 38.8952308,134.773006 C38.9172308,134.729006 38.9482308,134.690006 38.9862308,134.657006 C39.0242308,134.625006 39.0682308,134.601006 39.1152308,134.586006 C39.1622308,134.571006 39.2122308,134.565006 39.2612308,134.569006 C39.3102308,134.573006 39.3582308,134.586006 39.4022308,134.609006 C39.4462308,134.631006 39.4852308,134.663006 39.5162308,134.700006 C39.5482308,134.738006 39.5712308,134.782006 39.5862308,134.829006 C39.6002308,134.876006 39.6052308,134.926006 39.5992308,134.975006 L36.6522308,170.925006 C36.6452308,171.018006 36.6032308,171.105006 36.5352308,171.169006 C36.4672308,171.233006 36.3772308,171.269006 36.2842308,171.271006 Z" id="Path" fill="#FFFFFF"></path>
                        </g>
                    </g>
                </g>
            </g>
        </g>
    </g>
</svg>