<?xml version="1.0" encoding="UTF-8"?>
<svg width="266px" height="258px" viewBox="0 0 266 258" version="1.1" xmlns="http://www.w3.org/2000/svg" xmlns:xlink="http://www.w3.org/1999/xlink">
    <title>img 1@1x</title>
    <g id="Page-1" stroke="none" stroke-width="1" fill="none" fill-rule="evenodd">
        <g id="Доработки-3" transform="translate(-255.000000, -3583.000000)" fill-rule="nonzero">
            <g id="img-1" transform="translate(255.000000, 3583.000000)">
                <path d="M232.221866,115.784117 C232.221866,115.784117 236.210866,108.365117 235.266866,106.426117 C234.322866,104.487117 232.079866,100.336117 231.328866,98.2151173 C230.577866,96.0931173 233.175866,87.3541173 235.622866,85.7101173 C237.154866,84.6951173 239.600866,86.5321173 239.306866,88.6231173 C239.012866,90.7141173 237.956866,95.3731173 237.956866,95.3731173 C237.956866,95.3731173 241.864866,88.1561173 242.016866,86.3591173 C242.168866,84.5631173 238.362866,76.5341173 239.032866,73.3067173 C239.377866,71.6015173 242.838866,70.8808173 244.188866,72.6774173 C245.538866,74.4739173 247.172866,83.9951173 247.182866,84.0251173 C247.225866,83.3861173 247.348866,82.7551173 247.548866,82.1471173 C247.741866,81.2541173 248.126866,80.4121173 248.319866,79.5081173 C248.690866,77.6971173 248.690866,75.8291173 248.319866,74.0172173 C248.137866,73.1037173 247.863866,72.2003173 247.629866,71.2970173 C247.523866,70.9694173 247.499866,70.6211173 247.558866,70.2820173 C247.647866,70.0424173 247.795866,69.8293173 247.988866,69.6625173 C248.182866,69.4956173 248.414866,69.3805173 248.664866,69.3279173 C249.145866,69.2120173 249.646866,69.2085173 250.128866,69.3176173 C250.611866,69.4268173 251.061866,69.6456173 251.445866,69.9572173 C252.213866,70.5816173 252.813866,71.3874173 253.191866,72.3018173 C254.009866,74.0490173 254.332866,75.9871173 254.125866,77.9051173 C254.013866,78.9201173 253.902866,81.4871173 253.110866,82.1981173 C253.171866,82.1371173 256.257866,79.2141173 257.434866,81.2841173 C258.215866,82.9711173 258.623866,84.8061173 258.632866,86.6641173 C258.632866,86.6641173 264.458866,83.3751173 264.722866,88.0041173 C264.986866,92.6321173 258.571866,108.243117 256.328866,110.334117 C254.084866,112.425117 252.004866,114.211117 252.004866,114.211117 L246.929866,125.061117" id="Path" fill="#FFFFFF"></path>
                <path d="M247.061866,125.549117 C246.990866,125.564117 246.918866,125.564117 246.848866,125.549117 C246.727866,125.491117 246.633866,125.390117 246.586866,125.265117 C246.539866,125.140117 246.542866,125.002117 246.594866,124.879117 L251.669866,114.018117 C251.698866,113.954117 251.743866,113.898117 251.801866,113.856117 C251.801866,113.856117 253.902866,112.049117 256.104866,109.989117 C258.307866,107.928117 264.630866,92.6121173 264.336866,88.0651173 C264.354866,87.7191173 264.283866,87.3741173 264.131866,87.0631173 C263.978866,86.7521173 263.748866,86.4861173 263.463866,86.2891173 C262.215866,85.6091173 259.799866,86.6641173 258.967866,87.1311173 C258.891866,87.1761173 258.806866,87.1991173 258.718866,87.1991173 C258.630866,87.1991173 258.545866,87.1761173 258.469866,87.1311173 C258.393866,87.0871173 258.329866,87.0231173 258.284866,86.9471173 C258.240866,86.8701173 258.216866,86.7831173 258.216866,86.6951173 C258.198866,84.9431173 257.814866,83.2141173 257.089866,81.6201173 C257.030866,81.4961173 256.942866,81.3881173 256.832866,81.3051173 C256.723866,81.2221173 256.595866,81.1661173 256.460866,81.1431173 C255.617866,81.0311173 254.257866,81.9751173 253.547866,82.6451173 C253.500866,82.6971173 253.443866,82.7381173 253.379866,82.7671173 C253.316866,82.7961173 253.247866,82.8121173 253.177866,82.8131173 C253.107866,82.8141173 253.038866,82.8011173 252.974866,82.7741173 C252.909866,82.7471173 252.851866,82.7071173 252.803866,82.6571173 C252.755866,82.6061173 252.717866,82.5461173 252.693866,82.4811173 C252.669866,82.4151173 252.659866,82.3451173 252.663866,82.2761173 C252.667866,82.2061173 252.685866,82.1381173 252.717866,82.0761173 C252.748866,82.0131173 252.792866,81.9581173 252.846866,81.9141173 C253.344866,81.4371173 253.536866,79.3761173 253.618866,78.4931173 C253.618866,78.2701173 253.618866,78.0871173 253.668866,77.9351173 C253.869866,76.1081173 253.564866,74.2613173 252.785866,72.5964173 C252.441866,71.7582173 251.893866,71.0188173 251.192866,70.4446173 C250.869866,70.1829173 250.492866,69.9976173 250.087866,69.9027173 C249.683866,69.8078173 249.263866,69.8057173 248.857866,69.8965173 C248.692866,69.9291173 248.537866,70.0003173 248.405866,70.1044173 C248.272866,70.2085173 248.167866,70.3425173 248.096866,70.4953173 C248.061866,70.7552173 248.089866,71.0198173 248.177866,71.2667173 C248.248866,71.5814173 248.340866,71.8960173 248.421866,72.2107173 C248.583866,72.8095173 248.746866,73.4084173 248.867866,74.0174173 C249.386866,76.3801173 249.235866,78.8411173 248.431866,81.1221173 C248.281866,81.5271173 248.155866,81.9411173 248.055866,82.3611173 C248.055866,82.4821173 247.995866,82.6451173 247.944866,82.8381173 C247.819866,83.2301173 247.737866,83.6351173 247.700866,84.0451173 C247.724866,84.1801173 247.694866,84.3191173 247.616866,84.4311173 C247.538866,84.5431173 247.419866,84.6201173 247.284866,84.6441173 C247.149866,84.6691173 247.011866,84.6381173 246.898866,84.5601173 C246.786866,84.4821173 246.709866,84.3631173 246.685866,84.2281173 C246.269866,81.7921173 244.838866,74.5046173 243.792866,73.0633173 C243.459866,72.6992173 243.031866,72.4352173 242.556866,72.3007173 C242.081866,72.1663173 241.577866,72.1667173 241.103866,72.3020173 C240.757866,72.3380173 240.428866,72.4676173 240.151866,72.6769173 C239.874866,72.8862173 239.659866,73.1672173 239.529866,73.4896173 C239.154866,75.3064173 240.372866,78.9701173 241.356866,81.9141173 C242.128866,84.2381173 242.595866,85.7101173 242.534866,86.4811173 C242.382866,88.3291173 238.829866,94.9471173 238.474866,95.6981173 C238.416866,95.8041173 238.321866,95.8861173 238.208866,95.9291173 C238.094866,95.9721173 237.969866,95.9731173 237.855866,95.9311173 C237.781866,95.9181173 237.711866,95.8891173 237.650866,95.8461173 C237.589866,95.8031173 237.538866,95.7471173 237.500866,95.6821173 C237.462866,95.6181173 237.439866,95.5461173 237.432866,95.4711173 C237.425866,95.3971173 237.434866,95.3221173 237.459866,95.2511173 C237.459866,95.2001173 238.474866,90.5921173 238.799866,88.5421173 C238.839866,88.0861173 238.749866,87.6281173 238.541866,87.2211173 C238.333866,86.8131173 238.014866,86.4731173 237.621866,86.2381173 C237.378866,86.0521173 237.086866,85.9431173 236.780866,85.9231173 C236.475866,85.9031173 236.171866,85.9741173 235.906866,86.1261173 C233.541866,87.7101173 231.166866,96.2761173 231.846866,98.0321173 C232.323866,99.3621173 233.450866,101.564117 234.434866,103.513117 C234.972866,104.528117 235.449866,105.543117 235.774866,106.203117 C236.728866,108.233117 233.358866,114.739117 232.668866,116.008117 C232.638866,116.067117 232.596866,116.120117 232.546866,116.163117 C232.495866,116.206117 232.436866,116.238117 232.373866,116.258117 C232.310866,116.278117 232.243866,116.285117 232.177866,116.278117 C232.111866,116.272117 232.046866,116.253117 231.988866,116.221117 C231.928866,116.190117 231.875866,116.147117 231.832866,116.096117 C231.789866,116.044117 231.757866,115.985117 231.737866,115.920117 C231.717866,115.856117 231.710866,115.789117 231.717866,115.722117 C231.723866,115.655117 231.743866,115.590117 231.775866,115.531117 C233.267866,112.750117 235.429866,107.868117 234.820866,106.629117 C234.505866,105.949117 234.028866,105.005117 233.500866,103.970117 C232.525866,102.153117 231.644866,100.286117 230.861866,98.3771173 C230.019866,96.0121173 232.810866,86.9891173 235.348866,85.2841173 C235.774866,85.0171173 236.271866,84.8841173 236.774866,84.9021173 C237.277866,84.9201173 237.763866,85.0881173 238.169866,85.3851173 C238.731866,85.7211173 239.185866,86.2121173 239.477866,86.7991173 C239.768866,87.3851173 239.885866,88.0431173 239.814866,88.6941173 C239.702866,89.4861173 239.489866,90.6331173 239.255866,91.7391173 C240.213866,90.0241173 240.972866,88.2061173 241.519866,86.3191173 C241.301866,84.8911173 240.923866,83.4911173 240.392866,82.1471173 C239.316866,78.9301173 238.108866,75.2861173 238.545866,73.1952173 C238.706866,72.6788173 239.012866,72.2192173 239.425866,71.8704173 C239.839866,71.5216173 240.343866,71.2981173 240.879866,71.2261173 C241.545866,71.0450173 242.249866,71.0566173 242.908866,71.2597173 C243.568866,71.4627173 244.156866,71.8488173 244.604866,72.3731173 C245.559866,73.6520173 246.634866,78.4631173 247.213866,81.4171173 L247.457866,80.6861173 C247.604866,80.2661173 247.729866,79.8391173 247.832866,79.4071173 C248.187866,77.6621173 248.187866,75.8641173 247.832866,74.1189173 C247.720866,73.5302173 247.558866,72.9516173 247.396866,72.3731173 L247.142866,71.4190173 C247.009866,70.9985173 246.988866,70.5508173 247.081866,70.1198173 C247.208866,69.7951173 247.417866,69.5088173 247.688866,69.2883173 C247.958866,69.0679173 248.280866,68.9208173 248.624866,68.8612173 C249.179866,68.7249173 249.757866,68.7181173 250.315866,68.8413173 C250.873866,68.9645173 251.395866,69.2144173 251.841866,69.5717173 C252.678866,70.2466173 253.333866,71.1185173 253.750866,72.1092173 C254.615866,73.9398173 254.965866,75.9711173 254.765866,77.9861173 C254.765866,78.1281173 254.765866,78.3111173 254.714866,78.5241173 C254.643866,79.2851173 254.562866,80.0461173 254.430866,80.7161173 C255.090866,80.2601173 255.882866,80.0351173 256.683866,80.0771173 C256.975866,80.1271173 257.251866,80.2441173 257.489866,80.4211173 C257.727866,80.5971173 257.920866,80.8271173 258.053866,81.0921173 C258.789866,82.6011173 259.207866,84.2461173 259.281866,85.9231173 C260.398866,85.4161173 262.570866,84.6341173 264.032866,85.4261173 C264.476866,85.6971173 264.840866,86.0811173 265.087866,86.5401173 C265.333866,86.9981173 265.452866,87.5141173 265.432866,88.0341173 C265.747866,92.9061173 259.170866,108.619117 256.876866,110.760117 C254.907866,112.597117 253.029866,114.232117 252.623866,114.587117 L247.548866,125.336117 C247.495866,125.414117 247.421866,125.475117 247.335866,125.513117 C247.249866,125.551117 247.154866,125.563117 247.061866,125.549117 Z" id="Path" fill="#2B2D30"></path>
                <polygon id="Path" fill="#FFFFFF" points="241.856866 66.8944173 247.880866 69.3257173 259.604866 40.2795173 253.580866 37.8482173"></polygon>
                <path d="M247.863866,69.8761173 C247.802866,69.8858173 247.741866,69.8858173 247.680866,69.8761173 L241.661866,67.4401173 C241.599866,67.4155173 241.543866,67.3789173 241.495866,67.3324173 C241.447866,67.2859173 241.409866,67.2305173 241.382866,67.1692173 C241.356866,67.1079173 241.342866,67.0420173 241.341809,66.9753173 C241.340866,66.9086173 241.352866,66.8423173 241.377866,66.7804173 L253.100866,37.7311173 C253.153866,37.6077173 253.251866,37.5094173 253.374866,37.4570173 C253.498866,37.4063173 253.637866,37.4063173 253.760866,37.4570173 L259.789866,39.8321173 C259.851866,39.8567173 259.908866,39.8933173 259.956866,39.9398173 C260.003866,39.9863173 260.042866,40.0418173 260.068866,40.1031173 C260.094866,40.1643173 260.109924,40.2302173 260.109924,40.2969173 C260.110866,40.3637173 260.098866,40.4299173 260.073866,40.4919173 L248.340866,69.5412173 C248.288866,69.6646173 248.189866,69.7628173 248.066866,69.8152173 C248.004866,69.8512173 247.934866,69.8720173 247.863866,69.8761173 Z M242.534866,66.6383173 L247.609866,68.6683173 L258.947866,40.5629173 L253.872866,38.5329173 L242.534866,66.6383173 Z" id="Shape" fill="#2B2D30"></path>
                <polygon id="Path" fill="#2B2D30" points="245.455866 57.8902173 251.479866 60.3215173 252.026866 58.9662173 246.002866 56.5348173"></polygon>
                <path d="M251.466866,60.8426173 C251.402866,60.8523173 251.337866,60.8523173 251.273866,60.8426173 L245.254866,58.4066173 C245.192866,58.3821173 245.136866,58.3455173 245.088866,58.2988173 C245.041866,58.2521173 245.003866,58.1963173 244.978866,58.1347173 C244.952866,58.0732173 244.939866,58.0072173 244.940813,57.9405173 C244.940813,57.8739173 244.954866,57.8080173 244.980866,57.7468173 L245.518866,56.3969173 C245.571866,56.2735173 245.669866,56.1752173 245.792866,56.1228173 C245.855866,56.0951173 245.922866,56.0808173 245.990866,56.0808173 C246.058866,56.0808173 246.126866,56.0951173 246.188866,56.1228173 L252.207866,58.5588173 C252.269866,58.5833173 252.326866,58.6200173 252.373866,58.6667173 C252.421866,58.7134173 252.458866,58.7691173 252.484866,58.8307173 C252.509866,58.8922173 252.522866,58.9583173 252.522866,59.0249173 C252.521866,59.0915173 252.508866,59.1574173 252.481866,59.2186173 L251.943866,60.5685173 C251.891866,60.6919173 251.793866,60.7902173 251.669866,60.8426173 C251.602866,60.8568173 251.533866,60.8568173 251.466866,60.8426173 Z M246.107866,57.6250173 L251.182866,59.6550173 L251.344866,59.2490173 L246.269866,57.2190173 L246.107866,57.6250173 Z" id="Shape" fill="#2B2D30"></path>
                <path d="M253.364866,56.2447173 C253.300866,56.2545173 253.235866,56.2545173 253.171866,56.2447173 L249.385866,54.6512173 C249.261866,54.5994173 249.163866,54.5017173 249.110866,54.3786173 C249.057866,54.2556173 249.054866,54.1168173 249.101866,53.9914173 C249.153866,53.8655173 249.252866,53.7650173 249.377866,53.7118173 C249.503866,53.6586173 249.644866,53.6569173 249.771866,53.7072173 L253.557866,55.2399173 C253.619866,55.2644173 253.675866,55.3010173 253.723866,55.3477173 C253.770866,55.3944173 253.808866,55.4502173 253.833866,55.5117173 C253.859866,55.5733173 253.872866,55.6393173 253.871866,55.7060173 C253.871866,55.7726173 253.857866,55.8385173 253.831866,55.8996173 C253.797866,55.9980173 253.735866,56.0838173 253.651866,56.1456173 C253.568866,56.2073173 253.468866,56.2419173 253.364866,56.2447173 Z" id="Path" fill="#2B2D30"></path>
                <path d="M254.379866,53.7375173 C254.316866,53.7526173 254.250866,53.7526173 254.186866,53.7375173 L251.375866,52.6210173 C251.250866,52.5698173 251.150866,52.4711173 251.098866,52.3464173 C251.045866,52.2217173 251.044866,52.0813173 251.096866,51.9562173 C251.147866,51.8310173 251.246866,51.7313173 251.370866,51.6789173 C251.495866,51.6266173 251.635866,51.6259173 251.760866,51.6770173 L254.562866,52.8138173 C254.624866,52.8385173 254.680866,52.8751173 254.728866,52.9215173 C254.776866,52.9680173 254.814866,53.0235173 254.841866,53.0848173 C254.867866,53.1461173 254.881866,53.2119173 254.882866,53.2787173 C254.883866,53.3454173 254.871866,53.4116173 254.846866,53.4736173 C254.800866,53.5560173 254.732866,53.6242173 254.649866,53.6707173 C254.567866,53.7172173 254.474866,53.7403173 254.379866,53.7375173 Z" id="Path" fill="#2B2D30"></path>
                <path d="M255.384866,51.2305173 C255.324866,51.2401173 255.262866,51.2401173 255.201866,51.2305173 L252.390866,50.0938173 C252.266866,50.0419173 252.168866,49.9442173 252.115866,49.8212173 C252.062866,49.6982173 252.058866,49.5594173 252.106866,49.4340173 C252.161866,49.3116173 252.262866,49.2150173 252.386866,49.1641173 C252.511866,49.1131173 252.650866,49.1117173 252.775866,49.1599173 L255.577866,50.2866173 C255.644866,50.2993173 255.707866,50.3249173 255.764866,50.3621173 C255.821866,50.3993173 255.869866,50.4473173 255.908866,50.5034173 C255.946866,50.5595173 255.972866,50.6226173 255.986866,50.6890173 C256.000866,50.7554173 256.001866,50.8239173 255.988866,50.8905173 C255.975866,50.9572173 255.950866,51.0207173 255.912866,51.0774173 C255.875866,51.1341173 255.827866,51.1830173 255.771866,51.2211173 C255.715866,51.2593173 255.652866,51.2861173 255.586866,51.2999173 C255.519866,51.3137173 255.451866,51.3143173 255.384866,51.3016173 L255.384866,51.2305173 Z" id="Path" fill="#2B2D30"></path>
                <path d="M256.399866,48.7134173 L256.206866,48.7134173 L252.420866,47.1807173 C252.353866,47.1601173 252.290866,47.1256173 252.236866,47.0793173 C252.183866,47.0331173 252.140866,46.9762173 252.109866,46.9122173 C252.079866,46.8482173 252.063866,46.7787173 252.061866,46.7079173 C252.059866,46.6372173 252.072866,46.5669173 252.099866,46.5015173 C252.126866,46.4361173 252.167866,46.3771173 252.218866,46.3282173 C252.269866,46.2794173 252.330866,46.2417173 252.396866,46.2178173 C252.463866,46.1938173 252.534866,46.1840173 252.604866,46.1890173 C252.675866,46.1941173 252.744866,46.2138173 252.806866,46.2469173 L256.592866,47.7694173 C256.654866,47.7939173 256.710866,47.8306173 256.758866,47.8773173 C256.805866,47.9240173 256.843866,47.9797173 256.869866,48.0413173 C256.894866,48.1028173 256.907866,48.1689173 256.907866,48.2355173 C256.906866,48.3021173 256.892866,48.3680173 256.866866,48.4292173 C256.827866,48.5187173 256.761866,48.5939173 256.677866,48.6448173 C256.594866,48.6956173 256.497866,48.7196173 256.399866,48.7134173 Z" id="Path" fill="#2B2D30"></path>
                <path d="M257.414866,46.2063173 C257.350866,46.2161173 257.285866,46.2161173 257.221866,46.2063173 L254.420866,45.0695173 C254.295866,45.0197173 254.194866,44.9223173 254.141866,44.7985173 C254.088866,44.6748173 254.086866,44.5350173 254.136866,44.4098173 C254.186866,44.2846173 254.283866,44.1843173 254.407866,44.1311173 C254.530866,44.0778173 254.670866,44.0758173 254.795866,44.1256173 L257.607866,45.2624173 C257.669866,45.2868173 257.725866,45.3235173 257.773866,45.3702173 C257.821866,45.4169173 257.858866,45.4727173 257.884866,45.5342173 C257.909866,45.5958173 257.922866,45.6618173 257.922866,45.7285173 C257.921866,45.7951173 257.907866,45.8610173 257.881866,45.9221173 C257.838866,46.0091173 257.772866,46.0821173 257.689866,46.1325173 C257.606866,46.1828173 257.511866,46.2085173 257.414866,46.2063173 Z" id="Path" fill="#2B2D30"></path>
                <path d="M258.429866,43.6993173 C258.366866,43.7144173 258.300866,43.7144173 258.236866,43.6993173 L255.425866,42.5727173 C255.299866,42.5215173 255.200866,42.4227173 255.147866,42.2981173 C255.095866,42.1734173 255.094866,42.0330173 255.145866,41.9078173 C255.197866,41.7827173 255.295866,41.6829173 255.420866,41.6306173 C255.545866,41.5782173 255.685866,41.5776173 255.810866,41.6287173 L258.612866,42.7655173 C258.674866,42.7901173 258.730866,42.8267173 258.778866,42.8732173 C258.826866,42.9197173 258.864866,42.9752173 258.891866,43.0364173 C258.917866,43.0977173 258.931866,43.1636173 258.932866,43.2303173 C258.933866,43.2970173 258.921866,43.3633173 258.896866,43.4253173 C258.851866,43.5096173 258.783866,43.5798173 258.701866,43.6282173 C258.619866,43.6766173 258.525866,43.7012173 258.429866,43.6993173 Z" id="Path" fill="#2B2D30"></path>
                <polygon id="Path" fill="#FFFFFF" points="254.525866 38.2354173 258.601866 39.8804173 260.246866 35.8049173 256.170866 34.1599173"></polygon>
                <path d="M258.581866,40.4412173 C258.520866,40.4509173 258.458866,40.4509173 258.398866,40.4412173 L254.338866,38.7969173 C254.214866,38.7445173 254.116866,38.6463173 254.064866,38.5229173 C254.018866,38.3984173 254.018866,38.2616173 254.064866,38.1372173 L255.718866,34.0772173 C255.743866,34.0151173 255.779866,33.9586173 255.826866,33.9107173 C255.872866,33.8629173 255.928866,33.8246173 255.989866,33.7982173 C256.050866,33.7718173 256.116866,33.7578173 256.183866,33.7568709 C256.250866,33.7560173 256.316866,33.7682173 256.378866,33.7930173 L260.438866,35.4373173 C260.501866,35.4618173 260.559866,35.4988173 260.608866,35.5460173 C260.656866,35.5932173 260.695866,35.6497173 260.722866,35.7122173 C260.748866,35.7746173 260.762866,35.8418173 260.762866,35.9096173 C260.762866,35.9775173 260.749866,36.0446173 260.722866,36.1072173 L259.078866,40.1672173 C259.032866,40.2572173 258.960866,40.3314173 258.871866,40.3803173 C258.783866,40.4291173 258.681866,40.4503173 258.581866,40.4412173 Z M255.170866,38.0154173 L258.307866,39.2740173 L259.575866,36.1376173 L256.439866,34.8790173 L255.170866,38.0154173 Z" id="Shape" fill="#2B2D30"></path>
                <polygon id="Path" fill="#FFFFFF" points="259.515866 35.5284173 256.876866 34.4627173 258.876866 31.4583173 260.165866 31.9759173"></polygon>
                <path d="M259.515866,36.0359173 C259.451866,36.0456173 259.386866,36.0456173 259.322866,36.0359173 L256.683866,34.9701173 C256.613866,34.9408173 256.550866,34.8964173 256.499866,34.8401173 C256.448866,34.7838173 256.410866,34.7169173 256.388866,34.6443173 C256.366866,34.5716173 256.360866,34.4949173 256.371866,34.4197173 C256.381866,34.3444173 256.408866,34.2725173 256.450866,34.2089173 L258.480866,31.1639173 C258.546866,31.0660173 258.643866,30.9936173 258.756866,30.9585173 C258.868866,30.9234173 258.989866,30.9278173 259.099866,30.9710173 L260.378866,31.4887173 C260.487866,31.5333173 260.578866,31.6140173 260.636866,31.7174173 C260.693866,31.8208173 260.713866,31.9407173 260.693866,32.0571173 L260.043866,35.6096173 C260.024866,35.7270173 259.963866,35.8335173 259.872866,35.9099173 C259.780866,35.9862173 259.665866,36.0273173 259.546866,36.0257173 L259.515866,36.0359173 Z M257.638866,34.2292173 L259.130866,34.8280173 L259.586866,32.2905173 L259.069866,32.0774173 L257.638866,34.2292173 Z" id="Shape" fill="#2B2D30"></path>
                <polygon id="Path" fill="#FFFFFF" points="264.366866 19.7451173 259.312866 31.6308173 259.758866 31.8135173"></polygon>
                <path d="M259.789866,32.3212173 C259.725866,32.3318173 259.660866,32.3318173 259.596866,32.3212173 L259.150866,32.1385173 C259.026866,32.0861173 258.928866,31.9879173 258.875866,31.8645173 C258.845866,31.8029173 258.829866,31.7352173 258.829866,31.6665173 C258.829866,31.5979173 258.845866,31.5302173 258.875866,31.4686173 L263.950866,19.5931173 C264.011866,19.4857173 264.108866,19.4039173 264.225866,19.3630173 C264.341866,19.3221173 264.468866,19.3249173 264.582866,19.3709173 C264.697866,19.4169173 264.790866,19.5029173 264.846866,19.6129173 C264.901866,19.7229173 264.915866,19.8493173 264.884866,19.9687173 L260.276866,32.0269173 C260.254866,32.0911173 260.219866,32.1502173 260.174866,32.2008173 C260.129866,32.2514173 260.074866,32.2923173 260.012866,32.3212173 C259.938866,32.3328173 259.863866,32.3328173 259.789866,32.3212173 Z" id="Path" fill="#2B2D30"></path>
                <path d="M251.850866,70.9704173 C252.137866,70.2583173 249.362866,68.4665173 245.650866,66.9685173 C241.939866,65.4704173 238.697866,64.8333173 238.409866,65.5455173 C238.122866,66.2577173 240.898866,68.0494173 244.609866,69.5474173 C248.321866,71.0455173 251.563866,71.6826173 251.850866,70.9704173 Z" id="Path" fill="#FFFFFF"></path>
                <path d="M250.958866,71.7537173 C250.433866,71.7413173 249.909866,71.6802173 249.395866,71.5710173 C247.683866,71.2001173 246.008866,70.6735173 244.391866,69.9978173 C243.193866,69.5106173 237.235866,67.0137173 237.915866,65.3389173 C238.169866,64.6995173 239.062866,64.5675173 240.818866,64.9126173 C242.530866,65.2796173 244.205866,65.8028173 245.822866,66.4757173 C247.451866,67.1276173 249.017866,67.9260173 250.501866,68.8610173 C252.004866,69.8760173 252.531866,70.5459173 252.298866,71.1853173 C252.135866,71.5507173 251.669866,71.7537173 250.958866,71.7537173 Z M238.951866,65.7551173 C239.357866,66.2930173 241.245866,67.6328173 244.777866,69.0538173 C248.309866,70.4748173 250.593866,70.8301173 251.263866,70.7184173 C250.857866,70.1805173 248.969866,68.8407173 245.436866,67.4197173 C241.904866,65.9987173 239.621866,65.6536173 238.951866,65.7551173 Z" id="Shape" fill="#2B2D30"></path>
                <path d="M236.566866,84.1471173 L239.773866,85.4361173 L246.391866,69.0236173 C246.391866,69.0236173 246.228866,68.4349173 244.949866,67.9172173 C243.671866,67.3996173 243.183866,67.7345173 243.183866,67.7345173 L236.566866,84.1471173 Z" id="Path" fill="#FFFFFF"></path>
                <path d="M239.773866,85.9431173 C239.710866,85.9541173 239.644866,85.9541173 239.581866,85.9431173 L236.373866,84.6441173 C236.311866,84.6201173 236.255866,84.5831173 236.207866,84.5371173 C236.159866,84.4901173 236.121866,84.4351173 236.094866,84.3731173 C236.068866,84.3121173 236.054866,84.2461173 236.053809,84.1791173 C236.052866,84.1131173 236.064866,84.0461173 236.089866,83.9851173 L242.717866,67.5721173 C242.754866,67.4812173 242.818866,67.4035173 242.900866,67.3488173 C243.011866,67.2676173 243.671866,66.8819173 245.143866,67.4706173 C246.615866,68.0593173 246.848866,68.7799173 246.878866,68.9220173 C246.914866,69.0273173 246.914866,69.1415173 246.878866,69.2468173 L240.250866,85.6591173 C240.198866,85.7831173 240.100866,85.8811173 239.976866,85.9331173 C239.911866,85.9531173 239.841866,85.9561173 239.773866,85.9431173 Z M237.226866,83.9131173 L239.489866,84.8271173 L245.833866,69.1149173 C245.534866,68.8054173 245.165866,68.5722173 244.757866,68.4348173 C244.386866,68.2600173 243.979866,68.1765173 243.570866,68.1912173 L237.226866,83.9131173 Z" id="Shape" fill="#2B2D30"></path>
                <path d="M242.076866,86.3791173 C242.233866,85.9901173 240.721866,85.0121173 238.699866,84.1961173 C236.677866,83.3801173 234.910866,83.0341173 234.753866,83.4241173 C234.595866,83.8141173 236.107866,84.7911173 238.129866,85.6081173 C240.151866,86.4241173 241.918866,86.7691173 242.076866,86.3791173 Z" id="Path" fill="#FFFFFF"></path>
                <path d="M241.518866,87.0091173 C240.277866,86.8861173 239.064866,86.5641173 237.925866,86.0551173 C236.383866,85.4361173 233.865866,84.2381173 234.271866,83.2131173 C234.515866,82.6141173 235.378866,82.6961173 236.109866,82.8481173 C237.053866,83.0511173 237.977866,83.3391173 238.869866,83.7111173 C239.772866,84.0621173 240.642866,84.4931173 241.468866,85.0001173 C242.087866,85.4061173 242.777866,85.9441173 242.533866,86.5531173 C242.381866,86.8881173 242.006866,87.0091173 241.518866,87.0091173 Z M235.733866,83.8021173 C237.377866,84.8211173 239.182866,85.5531173 241.072866,85.9641173 C239.428866,84.9441173 237.623866,84.2131173 235.733866,83.8021173 Z" id="Shape" fill="#2B2D30"></path>
                <path d="M256.744866,98.2961825 C256.481866,98.2981173 256.220866,98.2541173 255.973866,98.1641173 C255.596866,98.0181173 255.254866,97.7961173 254.967866,97.5111173 C254.681866,97.2261173 254.456866,96.8851173 254.308866,96.5101173 C253.826866,95.2841173 253.747866,93.9361173 254.085866,92.6631173 C253.638866,93.1801173 253.151866,93.6781173 252.623866,94.1951173 C252.059866,94.8011173 251.365866,95.2691173 250.593866,95.5661173 C250.152866,95.7331173 249.673866,95.7711173 249.211866,95.6751173 C248.749866,95.5801173 248.324866,95.3551173 247.985866,95.0281173 C247.102866,94.0631173 247.426866,92.6421173 247.741866,91.6481173 C248.791866,88.0091173 250.547866,84.6121173 252.907866,81.6501173 C252.950866,81.5991173 253.002866,81.5561173 253.060866,81.5251173 C253.119866,81.4941173 253.184866,81.4751173 253.250866,81.4691173 C253.316866,81.4641173 253.383866,81.4711173 253.446866,81.4921173 C253.509866,81.5131173 253.568866,81.5461173 253.618866,81.5891173 C253.669866,81.6311173 253.712866,81.6831173 253.743866,81.7421173 C253.774866,81.8011173 253.793866,81.8651173 253.798866,81.9311173 C253.804866,81.9981173 253.796866,82.0641173 253.776866,82.1281173 C253.755866,82.1911173 253.722866,82.2491173 253.679866,82.3001173 C251.408866,85.1661173 249.718866,88.4481173 248.705866,91.9621173 C248.330866,93.1501173 248.340866,93.9011173 248.705866,94.3381173 C248.912866,94.5171173 249.165866,94.6371173 249.435866,94.6831173 C249.705866,94.7301173 249.983866,94.7011173 250.238866,94.6011173 C250.861866,94.3501173 251.420866,93.9611173 251.872866,93.4651173 C253.384866,92.0761173 254.617866,90.4121173 255.506866,88.5621173 C255.533866,88.5021173 255.572866,88.4471173 255.621866,88.4021173 C255.670866,88.3571173 255.727866,88.3221173 255.789866,88.2991173 C255.852866,88.2761173 255.918866,88.2661173 255.985866,88.2701173 C256.051866,88.2731173 256.116866,88.2901173 256.176866,88.3191173 C256.298866,88.3741173 256.393866,88.4761173 256.441866,88.6011173 C256.489866,88.7271173 256.484866,88.8661173 256.429866,88.9881173 C255.699866,90.5721173 254.186866,93.8711173 255.171866,96.0931173 C255.353866,96.5821173 255.717866,96.9821173 256.186866,97.2101173 C256.527866,97.2891173 256.884866,97.2781173 257.220866,97.1791173 C257.556866,97.0791173 257.861866,96.8941173 258.104866,96.6421173 C258.663866,96.0481173 259.113866,95.3611173 259.434866,94.6121173 L261.170866,91.0591173 C261.230866,90.9401173 261.336866,90.8491173 261.463866,90.8071173 C261.591866,90.7651173 261.730866,90.7761173 261.850866,90.8361173 C261.909866,90.8641173 261.963866,90.9041173 262.007866,90.9531173 C262.051866,91.0021173 262.085866,91.0591173 262.107866,91.1221173 C262.128866,91.1841173 262.138866,91.2501173 262.133866,91.3161173 C262.129866,91.3821173 262.112866,91.4461173 262.083866,91.5061173 L260.347866,95.0581173 C259.975866,95.9301173 259.449866,96.7271173 258.794866,97.4131173 C258.238866,97.9431173 257.511866,98.2561173 256.744866,98.2961825 Z" id="Path" fill="#2B2D30"></path>
                <path d="M237.997866,95.3731173 C237.997866,95.3731173 248.198866,99.4331173 249.386866,104.782117 L237.997866,95.3731173 Z" id="Path" fill="#FFFFFF"></path>
                <path d="M249.385866,105.289117 C249.269866,105.292117 249.155866,105.253117 249.064866,105.181117 C248.974866,105.109117 248.911866,105.007117 248.887866,104.893117 C247.771866,99.8181173 237.915866,95.8801173 237.814866,95.8401173 C237.752866,95.8151173 237.695866,95.7781173 237.647866,95.7321173 C237.599866,95.6851173 237.561866,95.6301173 237.535866,95.5691173 C237.508866,95.5071173 237.494866,95.4421173 237.493813,95.3751173 C237.492866,95.3081173 237.505866,95.2421173 237.529866,95.1801173 C237.581866,95.0561173 237.679866,94.9581173 237.802866,94.9051173 C237.925866,94.8521173 238.064866,94.8481173 238.189866,94.8961173 C238.615866,95.0681173 248.644866,99.0981173 249.872866,104.670117 C249.887866,104.735117 249.889866,104.803117 249.877866,104.869117 C249.866866,104.935117 249.842866,104.998117 249.806866,105.055117 C249.770866,105.112117 249.723866,105.161117 249.668866,105.199117 C249.614866,105.237117 249.552866,105.265117 249.486866,105.279117 L249.385866,105.289117 Z" id="Path" fill="#2B2D30"></path>
                <path d="M76.7348662,206.810117 C76.7348662,206.810117 62.8698662,242.051117 64.6558662,256.991117 L170.022866,256.991117 C170.022866,256.991117 166.602866,221.152117 161.770866,208.271117 L76.7348662,206.810117 Z" id="Path" fill="#2B2D30"></path>
                <path d="M170.022866,257.499117 L64.6558662,257.499117 C64.5328662,257.497117 64.4148662,257.451117 64.3238662,257.369117 C64.2318662,257.287117 64.1738662,257.174117 64.1588662,257.052117 C62.3728662,242.162117 75.6998662,208.068117 76.2678662,206.627117 C76.3108662,206.535117 76.3778662,206.457117 76.4618662,206.399117 C76.5458662,206.342117 76.6438662,206.309117 76.7448662,206.302117 L161.781866,207.794117 C161.883866,207.796117 161.983866,207.829117 162.066866,207.889117 C162.149866,207.949117 162.213866,208.033117 162.248866,208.129117 C167.048866,220.888117 170.489866,256.575117 170.530866,256.940117 C170.535866,257.010117 170.525866,257.080117 170.503866,257.147117 C170.480866,257.213117 170.444866,257.274117 170.398866,257.326117 C170.351866,257.380117 170.293866,257.423117 170.229866,257.452117 C170.164866,257.482117 170.094866,257.498117 170.022866,257.499117 Z M65.1128662,256.484117 L169.454866,256.484117 C168.997866,251.926117 165.770866,220.817117 161.405866,208.779117 L77.0898662,207.327117 C75.7098662,210.890117 63.7528662,242.426117 65.1128662,256.484117 Z" id="Shape" fill="#2B2D30"></path>
                <path d="M157.213866,210.961117 C152.868866,182.379117 134.152866,94.0231173 134.152866,94.0231173 C118.105866,98.6821173 107.589866,94.9771173 107.589866,94.9771173 C107.589866,94.9771173 78.4998662,187.829117 73.6488662,210.961117 L157.213866,210.961117 Z" id="Path" fill="#E7A246"></path>
                <path d="M231.613866,109.004117 L208.024866,148.376117 L170.784866,102.701117 C165.770866,94.0741173 141.937866,94.0741173 141.937866,94.0741173 C141.937866,94.0741173 105.073866,91.5771173 97.6638662,93.9921173 C97.6638662,93.9921173 68.5838662,102.884117 62.8088662,109.217117 C57.0338662,115.551117 73.2528662,144.783117 74.0448662,175.436117 C74.8368662,206.089117 61.6318662,237.026117 61.6318662,237.026117 L100.333866,248.039117 C100.333866,248.039117 107.702866,198.487117 107.702866,174.766117 C107.702866,126.178117 107.590866,94.9971173 107.590866,94.9971173 L133.909866,95.8401173 C133.909866,95.8401173 133.046866,142.022117 131.706866,177.435117 C129.971866,223.628117 140.019866,248.039117 140.019866,248.039117 L175.199866,238.762117 C175.199866,238.762117 163.699866,196.974117 163.851866,174.817117 C164.034866,168.222117 164.662866,161.647117 165.729866,155.136117 C177.513866,169.610117 199.052866,202.029117 216.093866,195.249117 C229.106866,190.062117 253.212866,124.574117 253.212866,124.574117 L231.613866,109.004117 Z" id="Path" fill="#FFFFFF"></path>
                <path d="M140.019866,248.516117 C139.919866,248.515117 139.821866,248.485117 139.738866,248.429117 C139.655866,248.373117 139.590866,248.294117 139.552866,248.201117 C139.451866,247.958117 129.483866,223.161117 131.199866,177.385117 C132.447866,144.347117 133.300866,101.412117 133.391866,96.2961173 L108.107866,95.4841173 C108.107866,99.7881173 108.209866,130.096117 108.209866,174.736117 C108.209866,198.223117 100.911866,247.592117 100.830866,248.090117 C100.818866,248.160117 100.792866,248.228117 100.753866,248.287117 C100.713866,248.347117 100.662866,248.398117 100.601866,248.436117 C100.541866,248.474117 100.473866,248.499117 100.402866,248.510117 C100.331866,248.520117 100.259866,248.515117 100.190866,248.496117 L61.4898662,237.483117 C61.4208662,237.462117 61.3578662,237.426117 61.3038662,237.379117 C61.2498662,237.332117 61.2058662,237.274117 61.1748662,237.209117 C61.1448662,237.144117 61.1278662,237.074117 61.1258662,237.002117 C61.1238662,236.930117 61.1378662,236.859117 61.1648662,236.793117 C61.2968662,236.488117 74.3598662,205.622117 73.5378662,175.426117 C73.1418662,159.957117 68.8278662,144.976117 65.3568662,132.857117 C61.8848662,120.738117 59.4188662,112.161117 62.4638662,108.811117 C68.2598662,102.417117 96.3548662,93.7791173 97.5518662,93.4141173 C104.951866,90.9981173 140.486866,93.4141173 141.998866,93.4751173 C143.206866,93.4751173 166.155866,93.6271173 171.240866,102.356117 L208.024866,147.493117 L231.217866,108.740117 C231.253866,108.680117 231.302866,108.628117 231.359866,108.588117 C231.417866,108.547117 231.483866,108.520117 231.552866,108.507117 C231.622866,108.491117 231.695866,108.491117 231.765866,108.507117 C231.835866,108.523117 231.901866,108.554117 231.958866,108.598117 L253.547866,124.199117 C253.636866,124.263117 253.701866,124.354117 253.734866,124.458117 C253.767866,124.562117 253.765866,124.674117 253.730866,124.777117 C252.715866,127.467117 229.370866,190.539117 216.327866,195.746117 C214.738866,196.380117 213.043866,196.704117 211.333866,196.700117 C197.377866,196.700117 181.614866,176.339117 170.733866,162.353117 C169.079866,160.211117 167.505866,158.171117 166.064866,156.384117 C165.094866,162.471117 164.531866,168.615117 164.379866,174.776117 C164.227866,196.660117 175.595866,238.214117 175.706866,238.630117 C175.734866,238.692117 175.748866,238.760117 175.748866,238.828117 C175.748866,238.896117 175.734866,238.963117 175.706866,239.026117 C175.675866,239.084117 175.631866,239.134117 175.579866,239.174117 C175.526866,239.215117 175.466866,239.243117 175.402866,239.259117 L140.151866,248.516117 C140.108866,248.525117 140.063866,248.525117 140.019866,248.516117 Z M107.590866,94.5001173 L133.909866,95.3421173 C133.975866,95.3441173 134.040866,95.3581173 134.101866,95.3851173 C134.161866,95.4121173 134.216866,95.4511173 134.261866,95.4991173 C134.307866,95.5471173 134.342866,95.6041173 134.365866,95.6661173 C134.388866,95.7281173 134.399866,95.7941173 134.396866,95.8601173 C134.396866,96.3171173 133.513866,142.448117 132.193866,177.456117 C130.610866,219.781117 139.035866,244.040117 140.313866,247.440117 L174.529866,238.366117 C173.240866,233.585117 163.161866,195.452117 163.303866,174.725117 C163.501866,168.159117 164.145866,161.614117 165.232866,155.136117 C165.248866,155.040117 165.291866,154.950117 165.355866,154.876117 C165.420866,154.803117 165.504866,154.749117 165.597866,154.720117 C165.692866,154.695117 165.793866,154.699117 165.886866,154.729117 C165.980866,154.760117 166.062866,154.816117 166.125866,154.892117 C167.759866,156.922117 169.596866,159.267117 171.535866,161.774117 C183.502866,177.222117 201.569866,200.567117 215.911866,194.853117 C228.091866,190.011117 250.644866,130.086117 252.603866,124.818117 L231.765866,109.776117 L208.491866,148.660117 C208.447866,148.730117 208.387866,148.788117 208.317866,148.830117 C208.246866,148.872117 208.167866,148.898117 208.085866,148.904117 C208.004866,148.910117 207.923866,148.897117 207.849866,148.865117 C207.775866,148.833117 207.710866,148.784117 207.659866,148.721117 L170.428866,103.046117 C165.567866,94.6931173 142.201866,94.6011173 142.008866,94.6011173 C141.602866,94.6011173 105.123866,92.1351173 97.8978662,94.5001173 C97.5928662,94.5911173 68.8688662,103.422117 63.2558662,109.603117 C60.5958662,112.536117 63.1438662,121.428117 66.3718662,132.684117 C69.8528662,144.864117 74.1868662,159.917117 74.5928662,175.507117 C75.3338662,203.744117 64.0878662,232.530117 62.3618662,236.772117 L99.9168662,247.471117 C100.728866,241.878117 107.194866,196.883117 107.194866,174.847117 C107.194866,126.817117 107.092866,95.3831173 107.082866,95.0781173 C107.082866,95.0101173 107.096866,94.9411173 107.124866,94.8781173 C107.152866,94.8151173 107.193866,94.7591173 107.245866,94.7131173 C107.284866,94.6551173 107.334866,94.6061173 107.394866,94.5691173 C107.454866,94.5321173 107.520866,94.5091173 107.590866,94.5001173 Z" id="Shape" fill="#2B2D30"></path>
                <path d="M76.1358662,59.0561173 C75.9728662,61.9793173 76.6528662,64.8822173 76.8358662,67.7953173 C77.0188662,70.7083173 76.6228662,73.8853173 74.6838662,76.0671173 C72.5118662,78.5441173 68.8178662,79.2041173 65.5488662,78.5541173 C62.2808662,77.9051173 59.4588662,76.1691173 56.6168662,74.4943173 C56.4748662,79.4171173 59.4388662,84.1371173 63.6008662,86.7661173 C70.8378662,91.3331173 84.9758662,90.6631173 92.6898662,87.6591173 C98.5878662,85.3651173 103.702866,80.6151173 105.478866,74.5349173 C107.204866,68.6580173 105.702866,62.2940173 103.317866,56.6506173 C100.667866,50.3982173 95.6338662,44.6533173 88.2748662,44.7345173 C81.7388662,44.7649173 76.4608662,53.2097173 76.1358662,59.0561173 Z" id="Path" fill="#FFFFFF"></path>
                <path d="M78.3178662,90.5311173 C72.6648662,90.5311173 67.0818662,89.5161173 63.3668662,87.1611173 C61.1858662,85.8261173 59.3788662,83.9591173 58.1168662,81.7341173 C56.8548662,79.5101173 56.1778662,77.0011173 56.1508662,74.4435173 C56.1548662,74.3534173 56.1828662,74.2660173 56.2308662,74.1896173 C56.2788662,74.1132173 56.3448662,74.0504173 56.4248662,74.0071173 C56.4998662,73.9624173 56.5858662,73.9388173 56.6728662,73.9388173 C56.7608662,73.9388173 56.8468662,73.9624173 56.9218662,74.0071173 C59.5308662,75.5905173 62.4838662,77.3971173 65.6918662,78.0671173 C68.3908662,78.6051173 72.0658662,78.2801173 74.3088662,75.7427173 C75.8618662,73.9766173 76.5418662,71.3173173 76.3388662,67.8359173 C76.2678662,66.8209173 76.1358662,65.6841173 76.0038662,64.6386173 C75.7138662,62.7892173 75.5918662,60.9174173 75.6388662,59.0460173 C75.9868662,55.5367173 77.3198662,52.1974173 79.4848662,49.4136173 C82.0328662,46.0844173 85.1688662,44.2270173 88.3158662,44.1965173 L88.4778662,44.1965173 C97.6128662,44.1965173 102.271866,52.7327173 103.834866,56.3765173 C106.788866,63.3496173 107.519866,69.4802173 106.017866,74.6465173 C104.291866,80.5441173 99.3998662,85.5681173 92.9238662,88.0951173 C88.2368662,89.7631173 83.2918662,90.5881173 78.3178662,90.5311173 Z M57.1758662,75.3672173 C57.3598662,77.5891173 58.0638662,79.7351173 59.2308662,81.6341173 C60.3978662,83.5331173 61.9958662,85.1311173 63.8948662,86.2991173 C70.8168662,90.6731173 84.5398662,90.2571173 92.5278662,87.1411173 C98.7098662,84.7361173 103.377866,79.9551173 105.012866,74.3522173 C106.453866,69.4700173 105.722866,63.5627173 102.870866,56.8028173 C101.378866,53.2909173 96.9838662,45.0999173 88.2958662,45.2014173 C81.9618662,45.2724173 76.9278662,53.5447173 76.6228662,59.0866173 C76.5788662,60.8969173 76.6978662,62.7075173 76.9778662,64.4965173 C77.1098662,65.5115173 77.2518662,66.6686173 77.3228662,67.7648173 C77.5568662,71.5203173 76.7858662,74.4334173 75.0498662,76.4021173 C72.5228662,79.2651173 68.4418662,79.6501173 65.4678662,79.0521173 C62.5128662,78.3091173 59.7078662,77.0631173 57.1758662,75.3672173 Z" id="Shape" fill="#2B2D30"></path>
                <path d="M87.0768662,54.9658173 C85.8428662,54.4176173 84.7378662,53.6168173 83.8318662,52.6151173 C82.9268662,51.6133173 82.2408662,50.4329173 81.8198662,49.1499173 C81.4178662,47.8624173 81.3418662,46.4951173 81.6008662,45.1713173 C81.8598662,43.8476173 82.4438662,42.6091173 83.3018662,41.5678173 C83.8358662,40.9232173 84.5138662,40.4123173 85.2808662,40.0758173 C86.0418662,39.7919173 86.8558662,39.6776173 87.6658662,39.7408173 C89.4788662,39.8696173 91.2118662,40.5362173 92.6438662,41.6554173 C94.0758662,42.7746173 95.1418662,44.2955173 95.7048662,46.0237173 C97.4508662,51.8396173 93.1468662,57.6962173 87.0768662,54.9658173 Z" id="Path" fill="#2B2D30"></path>
                <path d="M90.0708662,56.1636282 C88.9608662,56.1502173 87.8668662,55.8974173 86.8638662,55.4225173 C85.5698662,54.8471173 84.4088662,54.0085173 83.4568662,52.9600173 C82.5048662,51.9114173 81.7808662,50.6761173 81.3318662,49.3325173 C80.9018662,47.9533173 80.8218662,46.4885173 81.0998662,45.0706173 C81.3788662,43.6528173 82.0058662,42.3268173 82.9258662,41.2125173 C83.5048662,40.5043173 84.2458662,39.9470173 85.0878662,39.5885173 C85.9148662,39.2717173 86.8028662,39.1434173 87.6858662,39.2130173 C89.6038662,39.3406173 91.4398662,40.0418173 92.9548662,41.2254173 C94.4698662,42.4091173 95.5938662,44.0207173 96.1818662,45.8511173 C96.6918662,47.3681173 96.7648662,48.9983173 96.3918662,50.5548173 C96.0178662,52.1112173 95.2138662,53.5310173 94.0708662,54.6511173 C92.9708662,55.6335173 91.5458662,56.1725173 90.0708662,56.1636282 Z M87.2398662,54.4989173 C88.1968662,55.0228173 89.2888662,55.2467173 90.3748662,55.1418173 C91.4608662,55.0368173 92.4908662,54.6077173 93.3298662,53.9102173 C94.3268662,52.9188173 95.0258662,51.6674173 95.3468662,50.2982173 C95.6688662,48.9291173 95.5988662,47.4973173 95.1458662,46.1657173 C94.6198662,44.5339173 93.6158662,43.0975173 92.2638662,42.0426173 C90.9118662,40.9876173 89.2748662,40.3625173 87.5638662,40.2483173 C86.8298662,40.1867173 86.0908662,40.2907173 85.4018662,40.5528173 C84.7088662,40.8504173 84.0958662,41.3098173 83.6158662,41.8926173 C82.8178662,42.8715173 82.2748662,44.0323173 82.0338662,45.2718173 C81.7928662,46.5114173 81.8628662,47.7912173 82.2358662,48.9976173 C82.6348662,50.2095173 83.2838662,51.3242173 84.1408662,52.2700173 C84.9968662,53.2158173 86.0428662,53.9716173 87.2088662,54.4887173 L87.2398662,54.4989173 Z" id="Shape" fill="#2B2D30"></path>
                <path d="M106.524866,4.91621729 L106.392866,5.00751729 C105.570866,5.57591729 102.697866,8.94571729 101.977866,8.97621729 C71.9638662,9.85921729 84.0218662,51.7990173 99.2168662,63.6542173 C105.255866,68.3740173 115.821866,72.3731173 123.484866,70.5461173 C129.158866,69.1961173 134.365866,64.4561173 134.589866,58.6198173 C140.486866,58.1529173 146.850866,57.4830173 151.224866,53.5448173 C153.760866,51.0248173 155.573866,47.8699173 156.472866,44.4098173 C159.085866,36.0118173 158.290866,26.9229173 154.259866,19.1059173 C147.022866,5.70791729 127.869866,-2.55418271 113.233866,1.71891729 C110.840866,2.41861729 108.575866,3.49811729 106.524866,4.91621729 Z" id="Path" fill="#FFFFFF"></path>
                <path d="M119.425866,71.5001173 C112.320866,71.5001173 104.017866,68.0186173 98.9328662,64.0601173 C88.5288662,55.9401173 79.6478662,34.2090173 84.1948662,20.4151173 C86.6718662,12.8635173 92.8228662,8.72231729 101.987866,8.45841729 C102.891866,7.77201729 103.730866,7.00421729 104.494866,6.16451729 C105.006866,5.60351729 105.555866,5.07791729 106.138866,4.59131729 L106.280866,4.49991729 C108.370866,3.02401729 110.683866,1.89311729 113.132866,1.15041729 C127.900866,-3.16328271 147.347866,5.07851729 154.747866,18.7810173 C158.858866,26.7229173 159.664866,35.9674173 156.990866,44.5011173 C156.085866,48.0705173 154.222866,51.3243173 151.600866,53.9101173 C147.043866,58.0615173 140.232866,58.7111173 135.106866,59.1171173 C134.609866,65.2984173 129.016866,69.7949173 123.627866,71.0738173 C122.247866,71.3779173 120.837866,71.5209173 119.425866,71.5001173 Z M121.546866,1.00787996 C118.800866,0.993217292 116.066866,1.36921729 113.426866,2.12481729 C111.082866,2.83471729 108.868866,3.91771729 106.869866,5.33221729 L106.747866,5.42361729 C106.220866,5.87541729 105.718866,6.35661729 105.245866,6.86491729 C103.479866,8.67161729 102.647866,9.46331729 102.048866,9.48361729 C93.3498662,9.73731729 87.5238662,13.6349173 85.1898662,20.7399173 C80.7948662,34.1582173 89.4318662,55.3311173 99.5818662,63.2583173 C105.519866,67.8867173 115.893866,71.8452173 123.424866,70.0588173 C128.550866,68.8611173 133.929866,64.5067173 134.112866,58.5994173 C134.118866,58.4758173 134.169866,58.3587173 134.255866,58.2693173 C134.341866,58.1799173 134.455866,58.1242173 134.579866,58.1122173 C140.851866,57.6149173 146.820866,56.8536173 150.920866,53.1286173 C153.395866,50.6618173 155.149866,47.5665173 155.995866,44.1763173 C158.574866,35.9065173 157.790866,26.9537173 153.813866,19.2580173 C147.956866,8.35691729 134.213866,1.00787996 121.546866,1.00787996 Z" id="Shape" fill="#2B2D30"></path>
                <path d="M140.019866,50.7534173 C141.561866,41.7402173 156.594866,39.6798173 155.731866,50.3170173 C155.590866,54.0100173 154.152866,57.5354173 151.671866,60.2741173 C149.072866,62.8624173 144.911866,64.0499173 141.582866,62.5173173" id="Path" fill="#FFFFFF"></path>
                <path d="M144.749866,63.7050173 C143.570866,63.7140173 142.403866,63.4682173 141.329866,62.9844173 C141.267866,62.9570173 141.211866,62.9175173 141.165866,62.8683173 C141.118866,62.8191173 141.082866,62.7611173 141.059866,62.6977173 C141.035866,62.6344173 141.024866,62.5669173 141.027866,62.4994173 C141.030866,62.4318173 141.046866,62.3655173 141.075866,62.3043173 C141.102866,62.2437173 141.141866,62.1892173 141.190866,62.1440173 C141.239866,62.0988173 141.296866,62.0638173 141.358866,62.0411173 C141.421866,62.0184173 141.487866,62.0084173 141.554866,62.0118173 C141.620866,62.0152173 141.685866,62.0318173 141.745866,62.0607173 C144.708866,63.4208173 148.626866,62.5479173 151.265866,59.9191173 C154.128866,57.0669173 155.001866,53.0983173 155.224866,50.2766173 C155.528866,46.5718173 153.742866,44.1155173 150.453866,43.6994173 C146.393866,43.1919173 141.318866,46.0034173 140.517866,50.8044173 C140.494866,50.9390173 140.418866,51.0590173 140.307866,51.1379173 C140.196866,51.2169173 140.057866,51.2485173 139.923866,51.2256173 C139.788866,51.2027173 139.668866,51.1273173 139.589866,51.0159173 C139.510866,50.9046173 139.479866,50.7664173 139.502866,50.6318173 C140.425866,45.2219173 146.069866,42.0957173 150.565866,42.6539173 C153.610866,43.0295173 156.655866,45.2422173 156.219866,50.3172173 C155.975866,53.3622173 155.041866,57.5237173 151.966866,60.5890173 C150.060866,62.5305173 147.469866,63.6489173 144.749866,63.7050173 Z" id="Path" fill="#2B2D30"></path>
                <path d="M102.646866,50.3475173 C101.296866,41.2937173 86.3158662,38.8983173 86.9448662,49.5558173 C87.0188662,53.2582173 88.3948662,56.8162173 90.8328662,59.6042173 C93.3698662,62.2432173 97.5008662,63.5323173 100.870866,62.0707173" id="Path" fill="#FFFFFF"></path>
                <path d="M97.8258662,63.1876019 C96.4468662,63.1647173 95.0858662,62.8676173 93.8218662,62.3134173 C92.5588662,61.7593173 91.4178662,60.9591173 90.4668662,59.9597173 C87.4218662,56.8233173 86.6098662,52.5908173 86.4068662,49.5864173 C86.1128662,44.5114173 89.2188662,42.3596173 92.2328662,42.0449173 C96.7398662,41.5780173 102.311866,44.8463173 103.113866,50.2664173 C103.123866,50.3324173 103.120866,50.3997173 103.104866,50.4645173 C103.088866,50.5294173 103.060866,50.5904173 103.020866,50.6441173 C102.980866,50.6979173 102.931866,50.7433173 102.873866,50.7777173 C102.816866,50.8122173 102.753866,50.8350173 102.687866,50.8450173 C102.554866,50.8626173 102.419866,50.8281173 102.312866,50.7486173 C102.204866,50.6690173 102.131866,50.5508173 102.108866,50.4187173 C101.449866,45.5162173 96.3748662,42.6438173 92.3648662,43.0599173 C89.0668662,43.4050173 87.2288662,45.8207173 87.4528662,49.5255173 C87.6148662,52.3573173 88.3968662,56.3463173 91.1978662,59.2492173 C93.7758662,61.9389173 97.6738662,62.9032173 100.667866,61.6040173 C100.790866,61.5575173 100.926866,61.5603173 101.046866,61.6118173 C101.167866,61.6634173 101.263866,61.7597173 101.314866,61.8805173 C101.365866,62.0012173 101.368866,62.1372173 101.321866,62.2597173 C101.274866,62.3823173 101.182866,62.4819173 101.063866,62.5378173 C100.039866,62.9738173 98.9378662,63.1949173 97.8258662,63.1876019 Z" id="Path" fill="#2B2D30"></path>
                <path d="M104.290866,178.806139 C104.185866,178.807117 104.081866,178.773117 103.995866,178.711117 C103.910866,178.649117 103.846866,178.562117 103.813866,178.461117 C103.326866,177.090117 92.0098662,144.783117 91.1368662,139.962117 C90.3558662,135.587117 98.8208662,128.137117 101.499866,125.904117 C98.0488662,124.990117 89.1378662,122.453117 88.3048662,120.565117 C87.4018662,118.535117 96.6378662,101.402117 99.4698662,96.2051173 C99.5018662,96.1461173 99.5448662,96.0941173 99.5968662,96.0521173 C99.6498662,96.0111173 99.7098662,95.9801173 99.7738662,95.9621173 C99.8388662,95.9437442 99.9058662,95.9391173 99.9718662,95.9481173 C100.038866,95.9561173 100.102866,95.9781173 100.159866,96.0121173 C100.218866,96.0431173 100.270866,96.0851173 100.311866,96.1371173 C100.353866,96.1881173 100.384866,96.2471173 100.402866,96.3111173 C100.420866,96.3741173 100.425866,96.4411173 100.416866,96.5071173 C100.408866,96.5721173 100.386866,96.6351173 100.352866,96.6921173 C94.5978662,107.187117 88.8528662,118.840117 89.1878662,120.169117 C89.6648662,121.265117 96.4148662,123.580117 102.656866,125.173117 C102.746866,125.198117 102.828866,125.248117 102.892866,125.316117 C102.957866,125.383117 103.001866,125.468117 103.022866,125.559117 C103.042866,125.652117 103.036866,125.749117 103.003866,125.839117 C102.971866,125.929117 102.914866,126.008117 102.839866,126.066117 C99.6218662,128.624117 91.4108662,136.064117 92.0808662,139.789117 C92.9338662,144.529117 104.595866,177.791117 104.707866,178.126117 C104.752866,178.252117 104.746866,178.392117 104.689866,178.514117 C104.632866,178.635117 104.529866,178.730117 104.402866,178.775117 L104.290866,178.806139 Z" id="Path" fill="#E1E5E9"></path>
                <path d="M134.731866,178.583147 C134.650866,178.580117 134.570866,178.559117 134.498866,178.522117 C134.438866,178.492117 134.386866,178.450117 134.343866,178.399117 C134.300866,178.349117 134.267866,178.290117 134.248866,178.227117 C134.228866,178.163117 134.221866,178.097117 134.227866,178.030117 C134.233866,177.964117 134.253866,177.900117 134.284866,177.842117 C134.437866,177.537117 149.946866,147.341117 150.829866,140.216117 C150.829866,137.861117 142.120866,132.674117 136.619866,129.974117 C136.534866,129.932117 136.462866,129.867117 136.411866,129.787117 C136.361866,129.706117 136.335866,129.613117 136.335866,129.517117 C136.339866,129.422117 136.368866,129.330117 136.420866,129.249117 C136.472866,129.169117 136.544866,129.104117 136.629866,129.061117 C140.334866,127.315117 150.088866,121.956117 150.788866,118.352117 C151.489866,114.749117 144.343866,100.316117 141.532866,95.1091173 C141.499866,95.0501173 141.479866,94.9861173 141.472866,94.9201173 C141.465866,94.8531173 141.471866,94.7861173 141.490866,94.7221173 C141.508866,94.6581173 141.540866,94.5981173 141.582866,94.5461173 C141.624866,94.4941173 141.676866,94.4511173 141.735866,94.4191173 C141.853866,94.3571173 141.992866,94.3431173 142.121866,94.3811173 C142.249866,94.4191173 142.358866,94.5051173 142.425866,94.6221173 C142.841866,95.4031173 152.697866,113.744117 151.783866,118.545117 C150.981866,122.727117 141.115866,127.965117 137.989866,129.528117 C141.410866,131.263117 151.895866,136.876117 151.844866,140.277117 C150.941866,147.645117 135.837866,177.060117 135.198866,178.309117 C135.153866,178.393117 135.086866,178.463117 135.003866,178.511117 C134.921866,178.560117 134.827866,178.584117 134.731866,178.583147 Z" id="Path" fill="#E1E5E9"></path>
                <path d="M150.382866,132.968117 C150.114866,132.969117 149.851866,132.898117 149.620866,132.765117 C149.388866,132.631117 149.196866,132.439117 149.062866,132.207117 C148.839866,131.842117 148.818866,131.608117 148.565866,129.456117 C145.022866,99.3621173 138.100866,93.0481173 132.913866,93.0481173 C132.510866,93.0481173 132.122866,92.8881173 131.837866,92.6021173 C131.551866,92.3171173 131.391701,91.9301173 131.391701,91.5261173 C131.388866,91.3241173 131.426866,91.1241173 131.502866,90.9381173 C131.578866,90.7511173 131.691866,90.5821173 131.834866,90.4401173 C131.977866,90.2971173 132.147866,90.1861173 132.335866,90.1111173 C132.522866,90.0361173 132.722866,89.9991173 132.924866,90.0028243 C146.991866,90.0028243 150.463866,119.438117 151.600866,129.101117 C151.691866,129.893117 151.782866,130.715117 151.833866,130.969117 C151.955866,131.303117 151.956866,131.669117 151.838866,132.004117 C151.719866,132.339117 151.488866,132.623117 151.183866,132.806117 C150.936866,132.933117 150.659866,132.989117 150.382866,132.968117 Z" id="Path" fill="#2B2D30"></path>
                <path d="M86.9248662,161.145599 C86.7248662,161.140117 86.5278662,161.095117 86.3448662,161.014117 C86.1628662,160.932117 85.9978662,160.816117 85.8598662,160.670117 C85.7228662,160.525117 85.6148662,160.354117 85.5428662,160.168117 C85.4718662,159.981117 85.4378662,159.782117 85.4428662,159.582117 C85.9708662,139.180117 87.7778662,118.058117 97.3798662,101.879117 C102.849866,92.6431173 107.011866,88.1261173 110.096866,88.0651173 C110.546866,88.0521173 110.992866,88.1471173 111.397866,88.3431173 C111.801866,88.5391173 112.153866,88.8301173 112.421866,89.1921173 C112.619866,89.5041173 112.696866,89.8781173 112.639866,90.2441173 C112.581866,90.6101173 112.392866,90.9421173 112.107866,91.1781173 C111.822866,91.4151173 111.461866,91.5391173 111.091866,91.5281173 C110.721866,91.5181173 110.367866,91.3731173 110.096866,91.1201173 C109.589866,91.1911173 106.706866,92.1351173 99.9978662,103.432117 C90.7618662,119.012117 89.0058662,139.667117 88.4878662,159.663117 C88.4828662,159.863117 88.4378662,160.060117 88.3568662,160.243117 C88.2748662,160.425117 88.1588662,160.590117 88.0138662,160.728117 C87.8678662,160.865117 87.6978662,160.973117 87.5108662,161.045117 C87.3238662,161.116117 87.1248662,161.150117 86.9248662,161.145599 Z" id="Path" fill="#2B2D30"></path>
                <path d="M107.600866,94.9971173 C107.600866,94.9971173 115.913866,102.782117 121.698866,102.650117 C127.484866,102.518117 133.878866,95.8501173 133.878866,95.8501173 L133.513866,89.5261173 L132.660866,74.8294173 L131.899866,61.0964173 L108.341866,60.8325173 L107.428866,71.9975173 L107.153866,75.6312173 L107.600866,94.9971173 Z" id="Path" fill="#FFFFFF"></path>
                <path d="M121.556866,103.168117 C115.649866,103.168117 107.600866,95.6881173 107.255866,95.3631173 C107.205866,95.3181173 107.165866,95.2631173 107.137866,95.2021173 C107.109866,95.1411173 107.094866,95.0751173 107.093866,95.0081173 L106.636866,75.7226173 L106.910866,72.0382173 L107.823866,60.8732173 C107.838866,60.7474173 107.897866,60.6311173 107.990866,60.5454173 C108.084866,60.4597173 108.204866,60.4103173 108.331866,60.4063173 L131.899866,60.6702173 C132.028866,60.6701173 132.151866,60.7197173 132.244866,60.8086173 C132.337866,60.8975173 132.391866,61.0189173 132.397866,61.1472173 L134.427866,95.9011173 C134.432866,95.9701173 134.422866,96.0391173 134.397866,96.1041173 C134.372866,96.1691173 134.334866,96.2281173 134.284866,96.2761173 C134.021866,96.5601173 127.636866,103.117117 121.719866,103.239117 L121.556866,103.168117 Z M108.097866,94.7641173 C109.244866,95.7791173 116.471866,102.153117 121.556866,102.153117 L121.688866,102.153117 C126.713866,102.052117 132.397866,96.6521173 133.391866,95.6571173 L131.412866,61.6040173 L108.798866,61.3502173 L107.651866,75.7328173 L108.097866,94.7641173 Z" id="Shape" fill="#2B2D30"></path>
                <path d="M107.143866,75.6818173 C108.992866,78.9081173 111.624866,81.6161173 114.796866,83.5581173 C119.871866,86.8371173 127.382866,90.5311173 133.543866,89.5261173 L132.690866,74.8292173 C128.184866,75.4429173 123.616866,75.4429173 119.110866,74.8292173 C115.131866,74.3928173 111.050866,73.8954173 107.417866,72.0989173 L107.143866,75.6818173 Z" id="Path" fill="#2B2D30"></path>
                <path d="M131.371866,90.1761173 C125.089866,90.1761173 118.268866,86.3901173 114.522866,83.9541173 C111.282866,81.9941173 108.590866,79.2461173 106.697866,75.9661173 C106.648866,75.8831173 106.627866,75.7871173 106.636866,75.6919173 L106.910866,72.0481173 C106.919866,71.9670173 106.946866,71.8890173 106.990866,71.8204173 C107.034866,71.7517173 107.094866,71.6941173 107.164866,71.6522173 C107.237866,71.6123173 107.319866,71.5913173 107.402866,71.5913173 C107.486866,71.5913173 107.568866,71.6123173 107.641866,71.6522173 C111.295866,73.4691173 115.477866,73.9258173 119.161866,74.3420173 C123.626866,74.9580173 128.155866,74.9580173 132.620866,74.3420173 C132.690866,74.3319173 132.761866,74.3367173 132.830866,74.3559173 C132.898866,74.3751173 132.961866,74.4084173 133.016866,74.4536173 C133.071866,74.4972173 133.117866,74.5526173 133.148866,74.6158173 C133.180866,74.6790173 133.197866,74.7484173 133.198866,74.8190173 L134.051866,89.5161173 C134.060866,89.6421173 134.021866,89.7661173 133.942866,89.8641173 C133.863866,89.9621173 133.749866,90.0261173 133.625866,90.0441173 C132.879866,90.1491173 132.125866,90.1931173 131.371866,90.1761173 Z M107.661866,75.5803173 C109.467866,78.6731173 112.013866,81.2681173 115.071866,83.1321173 C119.060866,85.7301173 126.611866,89.8921173 133.016866,89.0901173 L132.224866,75.4077173 C127.839866,75.9341173 123.404866,75.8941173 119.029866,75.2859173 C115.487866,74.8901173 111.488866,74.4435173 107.864866,72.8195173 L107.661866,75.5803173 Z" id="Shape" fill="#2B2D30"></path>
                <path d="M119.130866,78.1381173 L121.546866,78.1381173 C127.031866,78.1981173 132.317866,76.0791173 136.242866,72.2468173 C140.168866,68.4145173 142.413866,63.1816173 142.485866,57.6961173 L142.698866,38.0761173 C142.698866,38.0761173 131.127866,35.2544173 123.626866,32.4226173 C111.030866,27.6521173 107.640866,20.8516173 107.640866,20.8516173 C107.243866,25.3610173 106.249866,29.7980173 104.687866,34.0466173 C103.337866,37.0916173 99.0638662,42.6842173 99.0638662,42.6842173 C99.0638662,42.6842173 98.6988662,52.8951173 98.6478662,57.1581173 C98.6128662,59.8812173 99.1158662,62.5844173 100.126866,65.1131173 C101.137866,67.6419173 102.636866,69.9465173 104.539866,71.8951173 C106.441866,73.8437173 108.709866,75.3981173 111.213866,76.4691173 C113.716866,77.5411173 116.407866,78.1081173 119.130866,78.1381173 Z" id="Path" fill="#FFFFFF"></path>
                <path d="M121.749866,78.6761173 L121.506866,78.6761173 L119.100866,78.6761173 C113.473866,78.6011173 108.105866,76.2961173 104.175866,72.2679173 C100.246866,68.2393173 98.0758662,62.8160173 98.1408662,57.1886173 C98.1408662,52.9662173 98.5568662,42.8061173 98.5568662,42.7046173 C98.5578662,42.5980173 98.5938662,42.4946173 98.6588662,42.4102173 C98.7098662,42.4102173 102.911866,36.8886173 104.220866,33.8842173 C105.763866,29.6740173 106.743866,25.2781173 107.133866,20.8110173 C107.108866,20.6764173 107.136866,20.5372173 107.214866,20.4239173 C107.291866,20.3107173 107.410866,20.2327173 107.544866,20.2071173 C107.679866,20.1815173 107.818866,20.2105173 107.931866,20.2875173 C108.045866,20.3646173 108.123866,20.4836173 108.148866,20.6182173 C108.148866,20.6892173 111.630866,27.3172173 123.860866,31.9354173 C131.239866,34.7267173 142.760866,37.5484173 142.871866,37.5687173 C142.985866,37.5947173 143.086866,37.6598173 143.156866,37.7525173 C143.227866,37.8452173 143.262866,37.9598173 143.257866,38.0762173 L142.993866,57.6961173 C142.921866,63.2837173 140.651866,68.6181173 136.675866,72.5446173 C132.699866,76.4711173 127.337866,78.6741173 121.749866,78.6761173 Z M99.5618662,42.8974173 C99.5618662,44.2271173 99.1968662,53.2910173 99.1558662,57.2089173 C99.0988662,62.5669173 101.172866,67.7282173 104.920866,71.5578173 C108.667866,75.3874173 113.783866,77.5721173 119.141866,77.6311173 L121.546866,77.6311173 C126.895866,77.6821173 132.046866,75.6144173 135.875866,71.8790173 C139.704866,68.1436173 141.898866,63.0445173 141.978866,57.6961173 L142.191866,38.4822173 C140.100866,37.9645173 130.113866,35.4372173 123.444866,32.9098173 C113.964866,29.3269173 109.640866,24.6274173 108.006866,22.3843173 C107.539866,26.4600173 106.581866,30.4644173 105.154866,34.3105173 C103.885866,37.1728173 100.231866,42.0245173 99.5618662,42.8974173 Z" id="Shape" fill="#2B2D30"></path>
                <path d="M120.866866,63.3091518 C119.702866,63.3102173 118.540866,63.2424173 117.384866,63.1060173 C117.251866,63.0883173 117.130866,63.0185173 117.048866,62.9120173 C116.967866,62.8054173 116.930866,62.6708173 116.948866,62.5376173 C116.965866,62.4044173 117.035866,62.2837173 117.142866,62.2019173 C117.248866,62.1201173 117.383866,62.0838173 117.516866,62.1011173 C119.471866,62.3317173 121.444866,62.3522173 123.403866,62.1620173 C123.449866,62.1574173 123.493866,62.1409173 123.530866,62.1142173 C123.567866,62.0875173 123.597866,62.0515173 123.616866,62.0098173 C124.631866,60.3858173 122.145866,52.1541173 120.358866,47.3430173 C120.315866,47.2150173 120.322866,47.0752173 120.379866,46.9524173 C120.435866,46.8296173 120.537866,46.7333173 120.663866,46.6833173 C120.789866,46.6376173 120.929866,46.6440173 121.050866,46.7011173 C121.172866,46.7582173 121.266866,46.8613173 121.312866,46.9878173 C121.799866,48.3073173 126.062866,59.9696173 124.489866,62.5376173 C124.382866,62.7162173 124.234866,62.8672173 124.058866,62.9783173 C123.882866,63.0893173 123.682866,63.1574173 123.474866,63.1770173 C122.608866,63.2679173 121.737866,63.3119173 120.866866,63.3091518 Z" id="Path" fill="#2B2D30"></path>
                <path d="M112.526866,44.5352173 C112.547866,42.5957173 111.924866,41.0164173 111.133866,41.007682 C110.343866,40.9991173 109.685866,42.5643173 109.664866,44.5037173 C109.642866,46.4432173 110.266866,48.0224173 111.056866,48.0311534 C111.847866,48.0398173 112.505866,46.4746173 112.526866,44.5352173 Z" id="Path" fill="#2B2D30"></path>
                <path d="M131.389866,44.0950173 C131.410866,42.1555173 130.787866,40.5763173 129.997866,40.5675812 C129.206866,40.5589173 128.548866,42.1241173 128.527866,44.0635173 C128.506866,46.0030173 129.129866,47.5822173 129.919866,47.5909534 C130.710866,47.5996173 131.368866,46.0344173 131.389866,44.0950173 Z" id="Path" fill="#2B2D30"></path>
                <path d="M120.876866,68.1810173 C120.440866,68.1810173 119.993866,68.1810173 119.557866,68.1201173 C112.056866,67.4502173 107.488866,61.3500173 107.296866,61.0861173 C107.247866,61.0337173 107.211866,60.9716173 107.188866,60.9040173 C107.165866,60.8365173 107.157866,60.7648173 107.164866,60.6938173 C107.170866,60.6228173 107.192866,60.5541173 107.227866,60.4920173 C107.262866,60.4300173 107.310866,60.3760173 107.368866,60.3337173 C107.425866,60.2914173 107.491866,60.2616173 107.560866,60.2464173 C107.630866,60.2311173 107.702866,60.2307173 107.772866,60.2452173 C107.842866,60.2597173 107.908866,60.2887173 107.966866,60.3305173 C108.023866,60.3722173 108.072866,60.4256173 108.108866,60.4873173 C108.158866,60.5482173 112.614866,66.4859173 119.658866,67.1051173 C124.500866,67.5314173 129.463866,65.3897173 134.386866,60.7207173 C134.433866,60.6688173 134.490866,60.6271173 134.553866,60.5982173 C134.617866,60.5692173 134.685866,60.5537173 134.755866,60.5526173 C134.825866,60.5515173 134.894866,60.5648173 134.959866,60.5917173 C135.023866,60.6186173 135.081866,60.6585173 135.130866,60.7089173 C135.178866,60.7593173 135.215866,60.8192173 135.240866,60.8847173 C135.264866,60.9502173 135.274866,61.0200173 135.270866,61.0897173 C135.266866,61.1594173 135.247866,61.2275173 135.216866,61.2897173 C135.184866,61.3520173 135.140866,61.4071173 135.086866,61.4515173 C130.377866,65.9175173 125.606866,68.1810173 120.876866,68.1810173 Z" id="Path" fill="#2B2D30"></path>
                <path d="M104.291866,14.7109173 C107.336866,22.7598173 111.488866,30.8392173 118.410866,36.0259173 C121.949866,38.4693173 125.804866,40.4191173 129.869866,41.8215173 C135.959866,44.1662173 141.836866,44.4605173 146.972866,48.6931173 C151.829866,52.6840173 155.306866,58.1034173 156.909866,64.1820173 C158.702866,59.3989173 159.410866,54.2775173 158.984866,49.1872173 C158.557866,44.0970173 157.006866,39.1649173 154.442866,34.7470173 C149.601866,26.5356173 141.582866,20.7704173 133.665866,15.4620173 C129.341866,12.5591173 124.622866,9.61561729 119.455866,9.70691729" id="Path" fill="#FFFFFF"></path>
                <path d="M156.919866,64.6895173 C156.812866,64.6818173 156.710866,64.6403173 156.628866,64.5710173 C156.546866,64.5017173 156.488866,64.4082173 156.462866,64.3038173 C154.886866,58.3298173 151.470866,53.0033173 146.698866,49.0788173 C143.308866,46.2875173 139.593866,45.2421173 135.614866,44.1459173 C133.696866,43.6079173 131.717866,43.0598173 129.727866,42.2884173 C125.604866,40.8543173 121.694866,38.8670173 118.105866,36.3811173 C110.635866,30.8291173 106.545866,21.9783173 103.814866,14.8834173 C103.766866,14.7569173 103.770866,14.6163173 103.825866,14.4926173 C103.880866,14.3689173 103.982866,14.2721173 104.109866,14.2237173 C104.235866,14.1752173 104.376866,14.1790173 104.499866,14.2342173 C104.623866,14.2894173 104.720866,14.3915173 104.768866,14.5180173 C107.448866,21.4809173 111.447866,30.1693173 118.714866,35.5691173 C122.215866,38.0049173 126.033866,39.9481173 130.062866,41.3445173 C132.011866,42.0956173 133.960866,42.6335173 135.858866,43.1613173 C139.918866,44.2981173 143.765866,45.3639173 147.307866,48.2972173 C151.821866,52.0115173 155.175866,56.9434173 156.970866,62.5072173 C158.428866,57.9604173 158.918866,53.1588173 158.409866,48.4111173 C157.901866,43.6634173 156.404866,39.0746173 154.016866,34.9398173 C149.256866,26.8198173 141.217866,21.0749173 133.391866,15.8172173 C128.864866,12.7722173 124.409866,10.0622173 119.435866,10.1535173 C119.368866,10.1563173 119.301866,10.1454173 119.238866,10.1217173 C119.176866,10.0979173 119.119866,10.0617173 119.070866,10.0153173 C119.022866,9.96881729 118.983866,9.91301729 118.957866,9.85131729 C118.931866,9.78961729 118.917866,9.72331729 118.917866,9.65621729 C118.916866,9.58951729 118.928866,9.52331729 118.952866,9.46121729 C118.976866,9.39911729 119.013866,9.34241729 119.059866,9.29431729 C119.105866,9.24631729 119.160866,9.20781729 119.221866,9.18101729 C119.282866,9.15431729 119.348866,9.13991729 119.415866,9.13851729 C124.652866,9.06751729 129.291866,11.8486173 133.960866,14.9748173 C141.877866,20.2934173 150.017866,26.1398173 154.899866,34.4222173 C157.491866,38.9208173 159.058866,43.9358173 159.490866,49.1096173 C159.921866,54.2834173 159.207866,59.4887173 157.396866,64.3545173 C157.359866,64.4518173 157.294866,64.5358173 157.209866,64.5955173 C157.124866,64.6553173 157.023866,64.6880173 156.919866,64.6895173 Z" id="Path" fill="#2B2D30"></path>
                <path d="M60.0888662,199.157117 C60.0888662,199.157117 71.8218662,210.961117 73.0298662,214.574117 C74.2378662,218.188117 73.6288662,240.558117 71.8328662,241.756117 C70.0358662,242.954117 57.5008662,250.759117 54.8108662,248.049117 C52.1208662,245.339117 47.3508662,238.173117 49.7358662,238.468117 C52.1208662,238.762117 55.7038662,241.756117 55.7038662,241.756117 C55.7038662,241.756117 60.1088662,239.483117 61.6418662,237.036117 C61.6418662,237.036117 54.2118662,230.104117 58.3938662,222.045117 L51.6238662,214.077117" id="Path" fill="#FFFFFF"></path>
                <path d="M56.5458662,249.105117 C56.1668662,249.136117 55.7848662,249.090117 55.4238662,248.969117 C55.0628662,248.849117 54.7298662,248.657117 54.4448662,248.404117 C52.6688662,246.618117 47.8068662,240.284117 48.6798662,238.478117 C48.7848662,238.285117 48.9488662,238.131117 49.1488662,238.040117 C49.3478662,237.948117 49.5718662,237.924117 49.7868662,237.970117 C51.9278662,238.234117 54.8618662,240.437117 55.7548662,241.147117 C57.7248662,240.120117 59.4928662,238.745117 60.9718662,237.087117 C59.6018662,235.636117 54.2828662,229.322117 57.7848662,222.116117 L51.2278662,214.402117 C51.1808662,214.356117 51.1428662,214.300117 51.1168662,214.239117 C51.0918662,214.178117 51.0788662,214.113117 51.0788662,214.047117 C51.0788662,213.981117 51.0918662,213.915117 51.1168662,213.854117 C51.1428662,213.793117 51.1808662,213.738117 51.2278662,213.691117 C51.3308662,213.604117 51.4638662,213.561117 51.5988662,213.570117 C51.7328662,213.580117 51.8588662,213.641117 51.9488662,213.742117 L58.7188662,221.710117 C58.7858662,221.787117 58.8288662,221.882117 58.8418662,221.983117 C58.8548662,222.085117 58.8358662,222.187117 58.7898662,222.278117 C54.8308662,229.911117 61.8348662,236.600117 61.9258662,236.661117 C62.0128662,236.740117 62.0688662,236.849117 62.0838662,236.966117 C62.0988662,237.083117 62.0718662,237.201117 62.0068662,237.300117 C60.4238662,239.838117 56.0688662,242.111117 55.9168662,242.203117 C55.8288662,242.250117 55.7278662,242.270117 55.6288662,242.259117 C55.5288662,242.248117 55.4348662,242.207117 55.3588662,242.142117 C55.3588662,242.142117 51.8668662,239.249117 49.6548662,238.975117 C49.6138662,238.968117 49.5728662,238.968117 49.5328662,238.975117 C49.2488662,239.726117 52.4048662,244.923117 55.1558662,247.694117 C57.0738662,249.633117 66.7678662,244.507117 71.5378662,241.330117 C72.9588662,240.081117 73.7708662,218.452117 72.5528662,214.737117 C71.4058662,211.306117 59.8548662,199.634117 59.7438662,199.512117 C59.6478662,199.416117 59.5948662,199.287117 59.5948662,199.152117 C59.5948662,199.016117 59.6478662,198.887117 59.7438662,198.791117 C59.8388662,198.696117 59.9688662,198.642117 60.1038662,198.642117 C60.2388662,198.642117 60.3688662,198.696117 60.4638662,198.791117 C60.9408662,199.278117 72.2988662,210.748117 73.5168662,214.402117 C74.5318662,217.569117 74.3798662,240.660117 72.1168662,242.172117 C72.0148662,242.264117 61.6418662,249.105117 56.5458662,249.105117 Z" id="Path" fill="#2B2D30"></path>
                <path d="M62.8798662,109.197117 C62.8798662,109.197117 0.365566235,157.917117 0.547866554,168.849117 C0.670066235,176.705117 50.5268662,220.248117 50.5268662,220.248117 L66.4928662,202.191117 L41.8178662,172.117117 L76.7748662,148.346117" id="Path" fill="#FFFFFF"></path>
                <path d="M50.4868662,220.756117 C50.3638662,220.757117 50.2448662,220.714117 50.1518662,220.634117 C48.1218662,218.848117 0.132466235,176.847117 0,168.869117 C-0.080733765,164.170117 10.4448662,152.629117 31.2728662,134.542117 C46.7108662,121.144117 62.3718662,108.923117 62.5248662,108.801117 C62.6328662,108.719117 62.7688662,108.682117 62.9038662,108.699117 C63.0378662,108.716117 63.1608662,108.786117 63.2448662,108.893117 C63.3268662,108.999117 63.3628662,109.134117 63.3458662,109.267117 C63.3288662,109.400117 63.2598662,109.521117 63.1538662,109.603117 C63.0018662,109.725117 47.3498662,121.925117 31.9328662,135.313117 C6.28336623,157.572117 0.964766235,165.834117 1.01546623,168.808117 C1.11696623,175.010117 36.3578662,207.175117 50.4358662,219.507117 L65.7828662,202.151117 L41.4228662,172.411117 C41.3778662,172.357117 41.3438662,172.293117 41.3248662,172.225117 C41.3058662,172.157117 41.3008662,172.086117 41.3108662,172.015117 C41.3218662,171.945117 41.3468662,171.878117 41.3848662,171.819117 C41.4238662,171.759117 41.4748662,171.709117 41.5338662,171.670117 L76.4908662,147.889117 C76.6038662,147.815117 76.7418662,147.788117 76.8748662,147.815117 C77.0078662,147.842117 77.1248662,147.919117 77.2018662,148.031117 C77.2728662,148.142117 77.2998662,148.277117 77.2748662,148.408117 C77.2508662,148.538117 77.1768662,148.654117 77.0698662,148.731117 L42.5598662,172.198117 L66.9198662,201.846117 C66.9978662,201.938117 67.0408662,202.055117 67.0408662,202.176117 C67.0408662,202.297117 66.9978662,202.414117 66.9198662,202.506117 L50.9538662,220.553117 C50.9018662,220.626117 50.8308662,220.684117 50.7488662,220.720117 C50.6658662,220.756117 50.5758662,220.768117 50.4868662,220.756117 Z" id="Path" fill="#2B2D30"></path>
                <path d="M161.446866,195.787241 C160.678866,195.783117 159.911866,195.722117 159.152866,195.604117 C157.542866,195.359117 156.022866,194.705117 154.737866,193.706117 C153.913866,194.189117 153.014866,194.532117 152.078866,194.721117 C142.638866,196.751117 138.720866,191.980117 138.558866,191.777117 C138.515866,191.726117 138.484866,191.666117 138.465866,191.602117 C138.446866,191.538117 138.440866,191.471117 138.448866,191.405117 C138.455866,191.339117 138.476866,191.275117 138.509866,191.217117 C138.542866,191.158117 138.586866,191.108117 138.639866,191.067117 C138.744866,190.984117 138.878866,190.946117 139.011866,190.961117 C139.144866,190.976117 139.266866,191.044117 139.349866,191.148117 C139.492866,191.331117 143.085866,195.634117 151.864866,193.726117 C152.572866,193.569117 153.255866,193.317117 153.894866,192.975117 C148.931866,188.408117 147.175866,178.948117 145.906866,172.168117 C144.181866,162.870117 143.014866,143.616117 144.221866,137.962117 C145.003866,134.308117 146.343866,131.933117 148.210866,130.918117 C148.966866,130.541117 149.797866,130.337117 150.642866,130.323117 C151.487866,130.309117 152.324866,130.485117 153.093866,130.837117 C157.153866,132.329117 159.578866,141.474117 161.324866,161.388117 C162.390866,173.507117 162.075866,187.971117 155.589866,193.056117 C156.687866,193.833117 157.953866,194.338117 159.284866,194.528117 C161.482866,194.944117 163.752866,194.730117 165.834866,193.911117 C167.915866,193.092117 169.723866,191.702117 171.048866,189.900117 C171.119866,189.785117 171.233866,189.704117 171.364866,189.673117 C171.496866,189.643117 171.634866,189.666117 171.748866,189.737117 C171.863866,189.809117 171.944866,189.922117 171.975866,190.054117 C172.005866,190.185117 171.982866,190.323117 171.911866,190.438117 C170.720866,192.100117 169.149866,193.454117 167.329866,194.384117 C165.508866,195.315117 163.491866,195.796117 161.446866,195.787241 Z M150.586866,131.414751 C149.934866,131.406117 149.291866,131.563117 148.718866,131.872117 C147.124866,132.745117 145.947866,134.917117 145.236866,138.246117 C144.130866,143.403117 145.064866,162.048117 146.932866,172.056117 C148.484866,180.399117 150.393866,188.651117 154.788866,192.488117 C161.121866,187.870117 161.385866,173.538117 160.330866,161.551117 C159.274866,149.564117 157.356866,133.577117 152.758866,131.852117 C152.066866,131.577117 151.330866,131.429117 150.586866,131.414751 Z" id="Shape" fill="#2B2D30"></path>
                <path d="M144.830866,160.668117 C144.439866,160.668117 144.063866,160.517117 143.781866,160.247117 C143.499866,159.976117 143.333866,159.607117 143.317866,159.216117 C143.175866,156.425117 143.023866,153.786117 142.881866,151.188117 C142.688866,147.980117 142.505866,144.813117 142.363866,141.423117 C142.170866,136.988117 143.591866,133.303117 146.281866,131.365117 C147.295866,130.632117 148.477866,130.165117 149.718866,130.007117 C150.960866,129.850117 152.221866,130.006117 153.386866,130.461117 C160.917866,133.253117 161.506866,144.519117 161.932866,153.563117 C162.024866,155.380117 162.105866,157.095117 162.247866,158.638117 C162.282866,159.042117 162.155866,159.443117 161.894866,159.753117 C161.634866,160.063117 161.260866,160.257117 160.856866,160.292117 C160.453866,160.327117 160.052866,160.200117 159.741866,159.940117 C159.431866,159.679117 159.237866,159.305117 159.202866,158.902117 C159.060866,157.308117 158.969866,155.572117 158.877866,153.725117 C158.471866,145.605117 157.964866,135.455117 152.320866,133.324117 C151.619866,133.038117 150.856866,132.935117 150.103866,133.023117 C149.351866,133.112117 148.633866,133.390117 148.017866,133.831117 C146.180866,135.181117 145.205866,137.891117 145.357866,141.302117 C145.510866,144.712117 145.682866,147.828117 145.865866,151.025117 C146.017866,153.634117 146.169866,156.273117 146.301866,159.084117 C146.321866,159.487117 146.180866,159.880117 145.910866,160.179117 C145.640866,160.477117 145.262866,160.657117 144.860866,160.678117 L144.830866,160.668117 Z" id="Path" fill="#2B2D30"></path>
                <path d="M142.158866,193.549117 C142.580866,192.701117 141.902866,191.505117 140.642866,190.878117 C139.383866,190.250117 138.019866,190.429117 137.597866,191.277117 C137.175866,192.125117 137.853866,193.321117 139.113866,193.948117 C140.372866,194.576117 141.735866,194.397117 142.158866,193.549117 Z" id="Path" fill="#2B2D30"></path>
                <path d="M173.299866,190.617117 C174.140866,189.490117 174.206866,188.116117 173.447866,187.550117 C172.688866,186.983117 171.390866,187.438117 170.549866,188.566117 C169.708866,189.694117 169.641866,191.067117 170.400866,191.634117 C171.160866,192.200117 172.457866,191.745117 173.299866,190.617117 Z" id="Path" fill="#2B2D30"></path>
                <path d="M88.0218662,169.853117 C91.7548662,169.853117 94.7818662,166.827117 94.7818662,163.094117 C94.7818662,159.360117 91.7548662,156.334117 88.0218662,156.334117 C84.2878662,156.334117 81.2618662,159.360117 81.2618662,163.094117 C81.2618662,166.827117 84.2878662,169.853117 88.0218662,169.853117 Z" id="Path" fill="#FFFFFF"></path>
                <path d="M88.0208662,170.361117 C86.5838662,170.361117 85.1788662,169.935117 83.9838662,169.136117 C82.7888662,168.338117 81.8568662,167.203117 81.3068662,165.875117 C80.7568662,164.547117 80.6128662,163.085117 80.8938662,161.676117 C81.1738662,160.266117 81.8658662,158.971117 82.8828662,157.955117 C83.8988662,156.938117 85.1938662,156.246117 86.6038662,155.966117 C88.0128662,155.685117 89.4748662,155.829117 90.8028662,156.379117 C92.1308662,156.929117 93.2658662,157.861117 94.0638662,159.056117 C94.8628662,160.251117 95.2888662,161.656117 95.2888662,163.093117 C95.2858662,165.020117 94.5198662,166.867117 93.1568662,168.229117 C91.7948662,169.592117 89.9478662,170.358117 88.0208662,170.361117 Z M88.0208662,156.841117 C86.7848662,156.841117 85.5758662,157.208117 84.5478662,157.895117 C83.5198662,158.582117 82.7178662,159.558117 82.2448662,160.701117 C81.7718662,161.843117 81.6478662,163.100117 81.8888662,164.313117 C82.1298662,165.526117 82.7258662,166.640117 83.5998662,167.515117 C84.4748662,168.389117 85.5888662,168.984117 86.8018662,169.226117 C88.0148662,169.467117 89.2718662,169.343117 90.4138662,168.870117 C91.5568662,168.397117 92.5328662,167.595117 93.2198662,166.567117 C93.9068662,165.539117 94.2738662,164.330117 94.2738662,163.093117 C94.2738662,161.435117 93.6148662,159.845117 92.4428662,158.672117 C91.2698662,157.500117 89.6798662,156.841117 88.0208662,156.841117 Z" id="Shape" fill="#2B2D30"></path>
                <path d="M102.576866,195.685117 C103.523866,195.685117 104.291866,194.917117 104.291866,193.970117 C104.291866,193.023117 103.523866,192.255117 102.576866,192.255117 C101.628866,192.255117 100.860866,193.023117 100.860866,193.970117 C100.860866,194.917117 101.628866,195.685117 102.576866,195.685117 Z" id="Path" fill="#FFFFFF"></path>
                <path d="M98.2218662,218.706117 C99.1698662,218.706117 99.9378662,217.938117 99.9378662,216.990117 C99.9378662,216.043117 99.1698662,215.275117 98.2218662,215.275117 C97.2748662,215.275117 96.5068662,216.043117 96.5068662,216.990117 C96.5068662,217.938117 97.2748662,218.706117 98.2218662,218.706117 Z" id="Path" fill="#FFFFFF"></path>
                <path d="M76.7348662,220.756142 C76.6348662,220.757117 76.5358662,220.727117 76.4528662,220.671117 C76.3688662,220.615117 76.3048662,220.535117 76.2678662,220.441117 C76.2198662,220.317117 76.2218662,220.179117 76.2728662,220.056117 C76.3238662,219.934117 76.4208662,219.835117 76.5418662,219.781117 C80.9468662,217.954117 95.4008662,211.976117 96.5068662,211.976117 C96.6418662,211.976117 96.7708662,212.029117 96.8658662,212.125117 C96.9608662,212.220117 97.0148662,212.349117 97.0148662,212.483117 C97.0148662,212.618117 96.9608662,212.747117 96.8658662,212.842117 C96.7708662,212.938117 96.6418662,212.991117 96.5068662,212.991117 C95.4918662,213.103117 83.9818662,217.792117 76.9278662,220.715117 C76.8668662,220.742117 76.8008662,220.755117 76.7348662,220.756142 Z" id="Path" fill="#E1E5E9"></path>
                <path d="M165.576866,224.400117 C165.523866,224.409117 165.468866,224.409117 165.414866,224.400117 L140.719866,215.782117 C140.656866,215.760117 140.597866,215.726117 140.547866,215.681117 C140.497866,215.637117 140.456866,215.583117 140.427866,215.523117 C140.398866,215.462117 140.381866,215.397117 140.377866,215.330117 C140.373866,215.263117 140.382866,215.196117 140.404866,215.133117 C140.426866,215.069117 140.461866,215.011117 140.505866,214.961117 C140.550866,214.911117 140.604866,214.870117 140.664866,214.841117 C140.724866,214.812117 140.790866,214.794117 140.857866,214.791117 C140.924866,214.787117 140.991866,214.796117 141.054866,214.818117 L165.749866,223.445117 C165.812866,223.466117 165.870866,223.499117 165.920866,223.543117 C165.970866,223.586117 166.010866,223.640117 166.039866,223.700117 C166.067866,223.759117 166.083866,223.824117 166.087097,223.891117 C166.088866,223.957117 166.077866,224.023117 166.053866,224.085117 C166.016866,224.180117 165.950866,224.261117 165.865866,224.318117 C165.779866,224.374117 165.679866,224.403117 165.576866,224.400117 Z" id="Path" fill="#E1E5E9"></path>
                <path d="M101.256866,191.229117 C101.985866,191.229117 102.576866,190.639117 102.576866,189.910117 C102.576866,189.181117 101.985866,188.590117 101.256866,188.590117 C100.527866,188.590117 99.9378662,189.181117 99.9378662,189.910117 C99.9378662,190.639117 100.527866,191.229117 101.256866,191.229117 Z" id="Path" fill="#E1E5E9"></path>
                <path d="M165.739866,155.674117 L165.658866,155.674117 C165.525866,155.651117 165.407866,155.578117 165.328866,155.471117 C165.248866,155.363117 165.214866,155.228117 165.231866,155.095117 C165.231866,154.892117 168.368866,134.714117 171.443866,124.473117 C171.462866,124.406117 171.493866,124.344117 171.536866,124.289117 C171.579866,124.235117 171.632866,124.189117 171.692866,124.155117 C171.752866,124.122117 171.819866,124.100117 171.888866,124.092117 C171.956866,124.083117 172.026866,124.089117 172.093866,124.107117 C172.159866,124.126117 172.222866,124.158117 172.276866,124.200117 C172.330866,124.243117 172.376866,124.296117 172.410866,124.356117 C172.444866,124.417117 172.465866,124.483117 172.474866,124.552117 C172.482866,124.621117 172.477866,124.690117 172.458866,124.757117 C169.413866,134.907117 166.307866,155.045117 166.277866,155.207117 C166.266866,155.340117 166.204866,155.463117 166.103866,155.551117 C166.003866,155.638117 165.872866,155.682117 165.739866,155.674117 Z" id="Path" fill="#2B2D30"></path>
                <path d="M197.265866,168.595117 C197.178866,168.595117 197.094866,168.571117 197.021866,168.524117 C196.963866,168.493117 196.911866,168.451117 196.869866,168.400117 C196.827866,168.349117 196.796866,168.290117 196.777866,168.226117 C196.758866,168.163117 196.752866,168.097117 196.759866,168.031117 C196.766866,167.965117 196.786866,167.902117 196.818866,167.844117 L207.607866,148.133117 C207.638866,148.073117 207.681866,148.020117 207.733866,147.977117 C207.785866,147.934117 207.845866,147.902117 207.909866,147.883117 C207.974866,147.864117 208.041866,147.859117 208.108866,147.867117 C208.175866,147.875117 208.239866,147.896117 208.298866,147.930117 C208.356866,147.960117 208.408866,148.003117 208.450866,148.054117 C208.491866,148.105117 208.522866,148.165117 208.540866,148.228117 C208.558866,148.292117 208.563866,148.358117 208.555866,148.424117 C208.546866,148.490117 208.524866,148.553117 208.490866,148.610117 L197.711866,168.331117 C197.666866,168.410117 197.602866,168.477117 197.523866,168.523117 C197.445866,168.569117 197.356866,168.594117 197.265866,168.595117 Z" id="Path" fill="#2B2D30"></path>
            </g>
        </g>
    </g>
</svg>