<?xml version="1.0" encoding="UTF-8"?>
<svg width="333px" height="197px" viewBox="0 0 333 197" version="1.1" xmlns="http://www.w3.org/2000/svg" xmlns:xlink="http://www.w3.org/1999/xlink">
    <title>img 3@1x</title>
    <g id="Page-1" stroke="none" stroke-width="1" fill="none" fill-rule="evenodd">
        <g id="Доработки-3" transform="translate(-222.000000, -4350.000000)" fill-rule="nonzero">
            <g id="img-3" transform="translate(222.000000, 4350.000000)">
                <polygon id="Path" fill="#FFFFFF" points="0.5176 149.544446 0.5176 158.111446 151.052 196.407446 331.743 130.005446 331.743 123.164446"></polygon>
                <path d="M151.052,196.904446 C151.012,196.914446 150.97,196.914446 150.93,196.904446 L0.3857,158.608446 C0.2757,158.579446 0.1783,158.515446 0.1086,158.425446 C0.0389,158.335446 0,158.225446 0,158.111446 L0,149.534446 C0,149.408446 0.0511,149.287446 0.1374,149.195446 C0.2237,149.103446 0.3412,149.047446 0.4669,149.037446 L331.692,122.647446 C331.761,122.641446 331.832,122.650446 331.898,122.672446 C331.964,122.694446 332.025,122.730446 332.077,122.776446 C332.129,122.823446 332.172,122.879446 332.201,122.942446 C332.231,123.006446 332.25,123.074446 332.25,123.144446 L332.25,129.985446 C332.25,130.089446 332.216,130.190446 332.156,130.275446 C332.096,130.360446 332.012,130.425446 331.915,130.462446 L151.225,196.904446 C151.168,196.915446 151.109,196.915446 151.052,196.904446 Z M1.015,157.715446 L151.022,195.889446 L331.235,129.670446 L331.235,123.723446 L1.015,150.011446 L1.015,157.715446 Z" id="Shape" fill="#2B2D30"></path>
                <path d="M186.12,65.3204461 C186.263,64.8634461 180.03,57.5044461 180.03,57.5044461 C180.03,57.5044461 178.417,50.4604461 175.463,45.7914461 C172.509,41.1224461 168.794,36.0778461 164.694,36.3620461 C160.593,36.6462461 151.925,35.6921461 150.595,39.1228461 C149.266,42.5535461 155.173,53.6984461 158.979,57.5044461 C162.786,61.3104461 169.485,64.1734461 169.485,64.1734461 L174.884,73.8964461 C174.884,73.8964461 184.395,70.7504461 186.12,65.3204461 Z" id="Path" fill="#FFFFFF"></path>
                <path d="M174.875,74.4144461 C174.783,74.4124461 174.692,74.3874461 174.613,74.3414461 C174.533,74.2944461 174.466,74.2294461 174.418,74.1504461 L169.099,64.5894461 C168.013,64.1124461 162.147,61.4224461 158.594,57.8804461 C155.042,54.3374461 148.586,42.8174461 150.099,38.9299461 C151.266,35.8849461 156.899,35.8849461 161.426,35.8849461 C162.624,35.8849461 163.761,35.8849461 164.644,35.8139461 C168.998,35.5094461 172.764,40.5336461 175.89,45.4864461 C178.681,49.8924461 180.264,56.2454461 180.508,57.2404461 C186.852,64.7314461 186.72,65.1274461 186.598,65.4514461 C184.822,71.0754461 175.433,74.2414461 175.027,74.3634461 C174.979,74.3884461 174.928,74.4054461 174.875,74.4144461 Z M165.019,36.8593461 L164.725,36.8593461 C163.801,36.9304461 162.644,36.9304461 161.426,36.9304461 C157.437,36.9304461 151.987,36.9304461 151.073,39.2953461 C149.845,42.4621461 155.63,53.4034461 159.335,57.1184461 C163.04,60.8334461 169.607,63.6454461 169.678,63.6754461 C169.784,63.7204461 169.873,63.7994461 169.932,63.8994461 L175.118,73.2264461 C176.905,72.5674461 184.04,69.6944461 185.573,65.2894461 C185.147,64.4974461 182.284,60.9654461 179.625,57.8294461 C179.57,57.7654461 179.532,57.6884461 179.513,57.6064461 C179.513,57.5344461 177.879,50.5824461 175.007,46.0454461 C172.134,41.5080461 168.683,36.8695461 165.019,36.8695461 L165.019,36.8593461 Z" id="Shape" fill="#2B2D30"></path>
                <polygon id="Path" fill="#2B2D30" points="154.078 19.6977461 137.1 28.3410461 156.044 65.5534461 173.022 56.9104461"></polygon>
                <path d="M156.046,66.0714461 C155.992,66.0814461 155.937,66.0814461 155.883,66.0714461 C155.759,66.0284461 155.654,65.9414461 155.589,65.8274461 L136.69,28.5769461 C136.658,28.5185461 136.638,28.4543461 136.632,28.3881461 C136.626,28.3220461 136.633,28.2553461 136.653,28.1919461 C136.673,28.1285461 136.705,28.0697461 136.748,28.0191461 C136.791,27.9684461 136.843,27.9268461 136.903,27.8969461 L153.843,19.2795461 C153.963,19.2193461 154.102,19.2090461 154.229,19.2509461 C154.357,19.2927461 154.462,19.3833461 154.523,19.5028461 L173.473,56.7224461 C173.524,56.8464461 173.524,56.9854461 173.473,57.1084461 C173.43,57.2354461 173.339,57.3414461 173.219,57.4034461 L156.269,65.9694461 C156.205,66.0224461 156.128,66.0574461 156.046,66.0714461 Z M137.776,28.5668461 L156.259,64.8834461 L172.336,56.7024461 L153.853,20.3859461 L137.776,28.5668461 Z" id="Shape" fill="#2B2D30"></path>
                <path d="M165.638,38.3412461 C163.36,38.3855461 161.113,38.8715461 159.02,39.7724461 C158.237,40.0386461 157.553,40.5380461 157.061,41.2035461 C156.745,41.8497461 156.682,42.5904461 156.883,43.2809461 C157.083,43.9715461 157.534,44.5626461 158.147,44.9387461 C158.775,45.2908461 159.467,45.5114461 160.183,45.5864461 C160.898,45.6614461 161.622,45.5894461 162.309,45.3752461 C161.385,45.7404461 160.279,46.3904461 160.34,47.3444461 C160.401,48.2984461 161.537,48.8364461 162.491,48.7854461 C163.445,48.7344461 164.379,48.3184461 165.333,48.3284461 C165.019,48.5454461 164.763,48.8344461 164.586,49.1724461 C164.409,49.5104461 164.317,49.8864461 164.318,50.2674461 C164.323,51.0374461 164.5,51.7974461 164.836,52.4904461 C164.995,52.9464461 165.276,53.3494461 165.648,53.6574461 C166.194,53.9734461 166.829,54.1014461 167.455,54.0234461 C170.261,53.9344461 173.04,53.4424461 175.707,52.5614461" id="Path" fill="#FFFFFF"></path>
                <path d="M167.14,54.5504461 C166.506,54.5924461 165.876,54.4294461 165.343,54.0834461 C164.881,53.7254461 164.529,53.2434461 164.328,52.6934461 C163.961,51.9334461 163.767,51.1014461 163.76,50.2574461 C163.773,49.8364461 163.87,49.4224461 164.044,49.0394461 L163.902,49.0394461 C163.443,49.1594461 162.974,49.2374461 162.501,49.2724461 C161.746,49.3234461 161,49.0794461 160.42,48.5924461 C160.237,48.4364461 160.087,48.2434461 159.981,48.0274461 C159.874,47.8114461 159.813,47.5754461 159.801,47.3344461 C159.78,46.8784461 159.932,46.4324461 160.228,46.0854461 C159.381,46.0514461 158.559,45.7964461 157.842,45.3446461 C157.118,44.8919461 156.589,44.1854461 156.358,43.3632461 C156.127,42.5411461 156.211,41.6624461 156.594,40.8989461 C157.14,40.1362461 157.91,39.5618461 158.796,39.2546461 C160.96,38.3363461 163.278,37.8369461 165.627,37.7828461 C165.697,37.7786461 165.768,37.7889461 165.833,37.8132461 C165.899,37.8374461 165.959,37.8751461 166.01,37.9237461 C166.06,37.9724461 166.1,38.0310461 166.127,38.0958461 C166.154,38.1607461 166.167,38.2303461 166.165,38.3005461 C166.165,38.4387461 166.111,38.5715461 166.014,38.6702461 C165.918,38.7688461 165.786,38.8256461 165.648,38.8283461 C163.431,38.8819461 161.244,39.3537461 159.202,40.2188461 C158.522,40.4501461 157.925,40.8774461 157.487,41.4470461 C157.244,41.9800461 157.204,42.5834461 157.374,43.1440461 C157.544,43.7047461 157.912,44.1840461 158.411,44.4920461 C158.98,44.7966461 159.604,44.9857461 160.247,45.0484461 C160.89,45.1111461 161.539,45.0462461 162.156,44.8574461 C162.285,44.8224461 162.423,44.8388461 162.54,44.9032461 C162.658,44.9675461 162.745,45.0748461 162.785,45.2025461 C162.826,45.3292461 162.817,45.4664461 162.761,45.5874461 C162.704,45.7074461 162.604,45.8024461 162.481,45.8524461 C161.375,46.2884461 160.826,46.7854461 160.847,47.3034461 C160.854,47.4054461 160.882,47.5054461 160.929,47.5954461 C160.976,47.6864461 161.042,47.7664461 161.121,47.8314461 C161.496,48.1314461 161.971,48.2804461 162.45,48.2474461 C162.859,48.2134461 163.263,48.1424461 163.658,48.0344461 C164.203,47.8924461 164.761,47.8104461 165.323,47.7904461 C165.438,47.7934461 165.548,47.8344461 165.638,47.9054461 C165.728,47.9764461 165.792,48.0754461 165.82,48.1864461 C165.851,48.2954461 165.845,48.4114461 165.803,48.5164461 C165.761,48.6204461 165.685,48.7084461 165.587,48.7654461 C165.342,48.9334461 165.143,49.1594461 165.007,49.4234461 C164.87,49.6874461 164.801,49.9804461 164.805,50.2774461 C164.817,50.9804461 164.98,51.6724461 165.282,52.3074461 C165.412,52.6764461 165.632,53.0084461 165.922,53.2714461 C166.378,53.5054461 166.895,53.5934461 167.404,53.5254461 C170.165,53.4434461 172.9,52.9614461 175.524,52.0944461 C175.658,52.0514461 175.804,52.0634461 175.93,52.1284461 C176.056,52.1924461 176.151,52.3044461 176.194,52.4394461 C176.237,52.5744461 176.224,52.7204461 176.16,52.8454461 C176.095,52.9714461 175.983,53.0664461 175.848,53.1094461 C173.133,54.0054461 170.303,54.5084461 167.444,54.6014461 L167.14,54.5504461 Z" id="Path" fill="#2B2D30"></path>
                <path d="M34.8447,29.8458461 C34.8447,29.8458461 59.9863,39.9958461 76.754,35.8343461 C93.522,31.6728461 108.381,21.9491461 113.294,29.8458461 C118.207,37.7425461 119.689,141.384446 119.689,141.384446 L53.5106,153.036446 L36.3672,59.0774461 L34.8447,29.8458461 Z" id="Path" fill="#2B2D30"></path>
                <path d="M53.511,153.543446 C53.3931,153.541446 53.2796,153.498446 53.1891,153.423446 C53.0987,153.347446 53.0368,153.243446 53.0137,153.127446 L35.8703,59.1694461 L34.3369088,29.8659461 C34.3329,29.7810461 34.35,29.6963461 34.3874,29.6199461 C34.4247,29.5435461 34.481,29.4779461 34.5508,29.4295461 C34.6234,29.3876461 34.7056,29.3656461 34.7894,29.3656461 C34.8731,29.3656461 34.9554,29.3876461 35.0279,29.4295461 C35.2816,29.5208461 60.2303,39.4983461 76.643,35.3875461 C81.594,34.0680461 86.473,32.4891461 91.259,30.6576461 C101.805,26.8311461 110.128,23.8064461 113.772,29.6426461 C118.745,37.5698461 120.186,137.232446 120.247,141.444446 C120.247,141.564446 120.206,141.680446 120.13,141.773446 C120.054,141.865446 119.948,141.929446 119.831,141.952446 L53.6024,153.533446 L53.511,153.543446 Z M35.3831,30.5967461 L36.8752,59.0164461 L53.917,152.396446 L119.222,140.896446 C119.11,133.599446 117.568,37.4784461 112.909,30.0486461 C109.691,24.9736461 101.744,27.8258461 91.594,31.5001461 C86.774,33.3401461 81.861,34.9290461 76.876,36.2604461 C61.7528,40.1073461 39.6766,32.2207461 35.3831,30.5967461 Z" id="Shape" fill="#2B2D30"></path>
                <path d="M110.96,48.4104461 C110.96,48.4104461 89.239,45.5474461 81.231,61.8384461 C73.223,78.1294461 73.76,156.142446 73.76,156.142446 L143.592,143.109446 C143.592,143.109446 146.394,108.386446 154.108,94.9584461 C161.822,81.5294461 157.914,70.8314461 154.108,66.0914461 C150.9,62.1434461 128.672,46.2984461 110.96,48.4104461 Z" id="Path" fill="#E7A246"></path>
                <polygon id="Path" fill="#2B2D30" points="114.827 64.8434461 125.302 120.617446 140.801 74.9934461"></polygon>
                <path d="M125.312,121.114446 C125.201,121.109446 125.095,121.065446 125.012,120.991446 C124.929,120.918446 124.874,120.818446 124.855,120.708446 L114.36,64.9544461 C114.341,64.8654461 114.348,64.7724461 114.378,64.6864461 C114.409,64.6004461 114.462,64.5244461 114.533,64.4674461 C114.602,64.4094461 114.686,64.3724461 114.775,64.3574461 C114.865,64.3434461 114.956,64.3534461 115.04,64.3864461 L141.014,74.5364461 C141.136,74.5814461 141.234,74.6734461 141.289,74.7904461 C141.344,74.9084461 141.351,75.0424461 141.308,75.1654461 L125.819,120.840446 C125.773,120.932446 125.699,121.007446 125.608,121.056446 C125.518,121.105446 125.414,121.125446 125.312,121.114446 Z M115.487,65.6544461 L125.444,118.627446 L140.172,75.2874461 L115.487,65.6544461 Z" id="Shape" fill="#2B2D30"></path>
                <path d="M124.449,74.7194461 L127.808,83.8544461 C127.808,83.8544461 122.652,106.498446 122.733,106.884446 L125.311,120.607446 L129.899,107.097446 L130.011,82.7374461 L134.172,75.3074461 L124.449,74.7194461 Z" id="Path" fill="#FFFFFF"></path>
                <path d="M125.312,121.124446 C125.2,121.118446 125.094,121.074446 125.009,121.001446 C124.925,120.927446 124.867,120.828446 124.845,120.718446 C124.845,120.718446 122.348,107.391446 122.266891,107.006446 C122.266891,106.863446 122.175,106.518446 127.342,83.9044461 L124.033,74.9014461 C124.004,74.8224461 123.996,74.7374461 124.008,74.6544461 C124.02,74.5704461 124.053,74.4914461 124.104,74.4244461 C124.155,74.3574461 124.221,74.3044461 124.297,74.2694461 C124.373,74.2334461 124.457,74.2174461 124.54,74.2214461 L134.254,74.8004461 C134.34,74.8014461 134.424,74.8254461 134.497,74.8694461 C134.57,74.9144461 134.63,74.9784461 134.67,75.0534461 C134.713,75.1294461 134.735,75.2154461 134.735,75.3024461 C134.735,75.3894461 134.713,75.4754461 134.67,75.5514461 L130.61,82.8694461 L130.498,107.117446 C130.504,107.171446 130.504,107.226446 130.498,107.280446 L125.789,120.779446 C125.754,120.878446 125.689,120.964446 125.604,121.026446 C125.519,121.088446 125.417,121.122446 125.312,121.124446 Z M123.282,106.863446 C123.434,107.665446 124.814,115.055446 125.484,118.617446 L129.422,107.026446 L129.534,82.7174461 C129.537,82.6314461 129.562,82.5474461 129.605,82.4734461 L133.371,75.7544461 L125.251,75.2774461 L128.347,83.6914461 C128.377,83.7834461 128.377,83.8834461 128.347,83.9754461 C126.327,92.6644461 123.373,105.788446 123.241,106.863446 L123.282,106.863446 Z" id="Shape" fill="#2B2D30"></path>
                <path d="M53.5108,153.036446 C53.5108,153.036446 61.5192,59.2404461 46.2739,37.4378461 C31.0286,15.6356461 22.2691,45.9744461 21.5079,63.1884461 C20.7466,80.4024461 32.9368,150.478446 32.9368,150.478446 L53.5108,153.036446 Z" id="Path" fill="#2B2D30"></path>
                <path d="M53.5106,153.543581 L53.4599,153.543581 L32.8858,150.996446 C32.779,150.984446 32.6787,150.938446 32.6,150.865446 C32.5214,150.792446 32.4685,150.695446 32.4494,150.590446 C32.3276,149.879446 20.2694,80.2504461 21.0103,63.1684461 C21.5584,50.6834461 26.0853,32.0075461 34.388,29.5918461 C38.2653,28.4652461 42.4065,31.0128461 46.7,37.1536461 C53.0843,46.2884461 56.2511,68.6184461 56.1293,103.412446 C56.0278,129.315446 54.0486,152.843446 54.0283,153.076446 C54.0204,153.205446 53.9632,153.325446 53.8686,153.412446 C53.774,153.499446 53.6493,153.546446 53.5208,153.543581 L53.5106,153.543581 Z M33.373,150.041446 L53.0539,152.467446 C53.6629,144.895446 60.2401,58.2964461 45.8575,37.7727461 C41.7975,32.0177461 38.0725,29.6527461 34.6925,30.6068461 C26.9582,32.8601461 22.5734,51.4144461 22.0456,63.2594461 C21.2844,79.5404461 32.4189,144.520446 33.373,150.041446 Z" id="Shape" fill="#2B2D30"></path>
                <polygon id="Path" fill="#FFFFFF" points="229.613 107.645446 0.5176 149.544446 149.763 185.546446 331.743 123.164446"></polygon>
                <path d="M149.763,186.074446 L149.641,186.074446 L0.436,150.072446 C0.3207,150.040446 0.2193,149.971446 0.1476,149.876446 C0.076,149.780446 0.0400247141,149.664446 0.0400247141,149.544446 C0.0400247141,149.425446 0.0869,149.310446 0.1646,149.219446 C0.2423,149.129446 0.3489,149.068446 0.4664,149.047446 L229.572,107.148446 C229.629,107.137446 229.688,107.137446 229.745,107.148446 L331.864,122.667446 C331.981,122.685446 332.089,122.742446 332.17,122.828446 C332.251,122.915446 332.3,123.026446 332.312887,123.144446 C332.321,123.261446 332.291,123.377446 332.227,123.475446 C332.162,123.573446 332.067,123.646446 331.955,123.682446 L149.935,186.044446 C149.88,186.063446 149.822,186.074446 149.763,186.074446 Z M3.0344,149.605446 L149.732,184.998446 L329.54,123.367446 L229.613,108.142446 L3.0344,149.605446 Z" id="Shape" fill="#2B2D30"></path>
                <path d="M280.556,129.549446 C292.059,129.549446 301.384,126.740446 301.384,123.276446 C301.384,119.812446 292.059,117.003446 280.556,117.003446 C269.053,117.003446 259.729,119.812446 259.729,123.276446 C259.729,126.740446 269.053,129.549446 280.556,129.549446 Z" id="Path" fill="#FFFFFF"></path>
                <path d="M280.556,130.056446 C270.071,130.056446 259.241,127.519446 259.241,123.276446 C259.241,119.033446 270.092,116.496446 280.556,116.496446 C291.021,116.496446 301.871,119.033446 301.871,123.276446 C301.871,127.519446 291.051,130.056446 280.556,130.056446 Z M280.556,117.511446 C268.376,117.511446 260.256,120.495446 260.256,123.276446 C260.256,126.057446 268.376,129.041446 280.556,129.041446 C292.736,129.041446 300.856,126.057446 300.856,123.276446 C300.856,120.495446 292.716,117.511446 280.556,117.511446 Z" id="Shape" fill="#E1E5E9"></path>
                <path d="M296.258,106.224446 L296.756,106.305446 C298.263,106.528446 299.634,107.302446 300.603,108.477446 C301.148,109.309446 301.449,110.276446 301.473,111.270446 C301.496,112.264446 301.24,113.245446 300.735,114.100446 C298.522,118.089446 293.122,119.175446 288.981,119.581446 C288.397,119.671446 287.799,119.626558 287.235,119.449446 C286.968,119.385446 286.728,119.237446 286.551,119.027446 C286.373,118.817446 286.268,118.555446 286.25,118.281446 C286.232,118.007446 286.302,117.734446 286.45,117.502446 C286.598,117.270446 286.816,117.092446 287.073,116.993446 C287.506,116.783446 287.974,116.652446 288.453,116.607446 C291.031,116.181446 293.751,115.867446 296.106,114.669446 C297.487,113.979446 299.405,112.375446 298.4,110.670446 C298.051,110.121446 297.545,109.690446 296.949,109.431446 C294.584,108.295446 292.33,109.157446 289.986,109.848446 C289.817,109.910446 289.638,109.937446 289.458,109.929446 C289.244,109.866446 289.058,109.730446 288.934,109.544446 C288.81,109.359446 288.755,109.136446 288.778,108.914446 C288.859,107.899446 289.874,107.219446 290.808,106.884446 C292.537,106.195446 294.415,105.967446 296.258,106.224446 Z" id="Path" fill="#FFFFFF"></path>
                <path d="M288.28,120.129446 C287.861,120.138446 287.444,120.065446 287.052,119.916446 C286.698,119.814446 286.384,119.604446 286.152,119.317446 C285.921,119.029446 285.784,118.678446 285.76,118.310446 C285.735,117.942446 285.825,117.575446 286.016,117.259446 C286.207,116.944446 286.491,116.695446 286.829,116.546446 C287.314,116.312446 287.836,116.161446 288.372,116.100446 L289.326,115.948446 C291.586,115.708446 293.797,115.126446 295.883,114.222446 C296.868,113.791446 297.662,113.015446 298.116,112.040446 C298.171,111.854446 298.187,111.658446 298.16,111.465446 C298.134,111.273446 298.067,111.088446 297.963,110.923446 C297.667,110.464446 297.234,110.109446 296.725,109.908446 C294.746,108.954446 292.797,109.543446 290.736,110.172446 L290.127,110.355446 C289.891,110.442446 289.637,110.473446 289.387,110.446446 C289.036,110.366446 288.728,110.159446 288.522,109.864446 C288.315,109.570446 288.226,109.210446 288.27,108.853446 C288.351,107.838446 289.194,106.914446 290.655,106.356446 C292.462,105.665446 294.416,105.452446 296.329,105.737446 L296.857,105.828446 C298.485,106.078446 299.963,106.921446 301.008,108.193446 C301.614,109.103446 301.952,110.166446 301.982,111.259446 C302.013,112.352446 301.735,113.432446 301.181,114.374446 C299.364,117.633446 295.395,119.510446 289.001,120.109446 C288.798,120.109446 288.544,120.129446 288.28,120.129446 Z M294.492,108.376446 C295.419,108.369446 296.336,108.574446 297.172,108.975446 C297.86,109.270446 298.441,109.770446 298.836,110.406446 C299.013,110.689446 299.127,111.006446 299.171,111.337446 C299.215,111.668446 299.187,112.005446 299.09,112.324446 C298.551,113.566446 297.571,114.564446 296.339,115.125446 C294.161,116.089446 291.846,116.705446 289.478,116.952446 L288.534,117.105446 C288.112,117.149446 287.701,117.262446 287.316,117.440446 C287.177,117.507446 287.056,117.605446 286.961,117.727446 C286.866,117.848446 286.8,117.989446 286.768,118.140446 C286.79,118.326446 286.864,118.502446 286.98,118.649446 C287.097,118.796446 287.251,118.908446 287.428,118.972446 C287.917,119.123446 288.435,119.158446 288.94,119.074446 C294.939,118.516446 298.653,116.800446 300.288,113.857446 C300.749,113.087446 300.985,112.203446 300.969,111.306446 C300.953,110.409446 300.685,109.534446 300.196,108.782446 C299.294,107.717446 298.035,107.017446 296.654,106.813446 L296.187,106.731446 C294.446,106.466446 292.665,106.658446 291.021,107.290446 C290.523,107.483446 289.366,108.020446 289.295,108.924446 C289.295,109.157446 289.397,109.411446 289.539,109.431446 C289.646,109.428446 289.752,109.407446 289.853,109.370446 L290.452,109.188446 C291.752,108.723446 293.113,108.450446 294.492,108.376446 Z" id="Shape" fill="#E1E5E9"></path>
                <path d="M294.319,101.951446 C294.319,101.951446 290.412,121.409446 290.097,122.576446 C289.782,123.743446 279.429,126.758446 273.228,123.834446 L266.803,103.951446 L294.319,101.951446 Z" id="Path" fill="#FFFFFF"></path>
                <path d="M279.744,125.580446 C277.431,125.641446 275.132,125.201446 273.004,124.291446 C272.941,124.262446 272.886,124.219446 272.84,124.167446 C272.795,124.114446 272.761,124.053446 272.74,123.987446 L266.326,104.103446 C266.302,104.030446 266.296,103.952446 266.307,103.876446 C266.318,103.801446 266.346,103.728446 266.389,103.665446 C266.432,103.601446 266.489,103.548446 266.555,103.510446 C266.621,103.471446 266.696,103.449446 266.772,103.443446 L294.279,101.413446 C294.357,101.408446 294.435,101.421446 294.507,101.451446 C294.579,101.481446 294.643,101.527446 294.695,101.586446 C294.747,101.644446 294.785,101.714446 294.806,101.790446 C294.827,101.865446 294.831,101.945446 294.817,102.022446 C294.654,102.814446 290.899,121.500446 290.584,122.677446 C290.483,123.053446 290.087,123.378446 289.285,123.753446 C286.251,124.968446 283.012,125.588446 279.744,125.580446 Z M273.654,123.469446 C279.602,126.108446 289.031,123.276446 289.64,122.393446 C289.894,121.378446 293.01,105.909446 293.7,102.509446 L267.503,104.407446 L273.654,123.469446 Z" id="Shape" fill="#E1E5E9"></path>
                <path d="M280.773,108.470446 C288.384,108.158446 294.445,105.235446 294.31,101.942446 C294.175,98.6484461 287.895,96.2324461 280.283,96.5444461 C272.671,96.8564461 266.611,99.7794461 266.746,103.073446 C266.881,106.366446 273.161,108.783446 280.773,108.470446 Z" id="Path" fill="#E1E5E9"></path>
                <path d="M279.449,109.015446 C276.494,109.062446 273.555,108.578446 270.771,107.584446 C267.919,106.488446 266.305,104.894446 266.234,103.077446 C266.082,99.4544461 272.243,96.3484461 280.262,95.9724461 C283.663,95.7694461 287.07,96.2384461 290.29,97.3534461 C293.132,98.4494461 294.746,100.053446 294.817,101.859446 C294.888,103.666446 293.426,105.392446 290.675,106.721446 C287.556,108.094446 284.197,108.839446 280.789,108.914446 C280.343,108.981446 279.896,109.015446 279.449,109.015446 Z M281.611,97.0284461 L280.302,97.0284461 C273.106,97.3224461 267.107,100.073446 267.249,103.027446 C267.3,104.387446 268.721,105.696446 271.137,106.630446 C277.392,108.644446 284.159,108.367446 290.229,105.848446 C292.563,104.722446 293.863,103.301446 293.802,101.941446 C293.741,100.581446 292.33,99.2714461 289.924,98.3374461 C287.253,97.4104461 284.438,96.9674461 281.611,97.0284461 Z" id="Shape" fill="#E1E5E9"></path>
                <path d="M150.677,137.537446 C150.677,137.537446 200.412,121.855446 201.264,121.855446 C202.117,121.855446 264.996,132.634446 264.996,132.634446 L212.815,150.498446 L150.677,137.537446 Z" id="Path" fill="#FFFFFF"></path>
                <path d="M212.815,151.026446 L212.714,151.026446 L150.575,138.034446 C150.462,138.010446 150.36,137.949446 150.285,137.861446 C150.21,137.773446 150.166,137.663446 150.158054,137.547446 C150.152,137.431446 150.184,137.315446 150.25,137.220446 C150.317,137.124446 150.413,137.053446 150.525,137.019446 C162.207,133.335446 200.392,121.307446 201.275,121.307446 C202.158,121.307446 258.653,131.000446 265.088,132.107446 C265.208,132.119446 265.32,132.173446 265.405,132.259446 C265.49,132.346446 265.541,132.460446 265.551,132.580446 C265.561,132.701446 265.528,132.821446 265.458,132.920446 C265.388,133.019446 265.286,133.090446 265.169,133.122446 L212.967,150.985446 C212.919,151.007446 212.868,151.021446 212.815,151.026446 Z M152.778,137.435446 L212.785,149.960446 L262.916,132.807446 C240.951,129.041446 202.371,122.454446 201.275,122.373446 C200.057,122.566446 167.485,132.787446 152.747,137.435446 L152.778,137.435446 Z" id="Shape" fill="#2B2D30"></path>
                <path d="M219.808,144.124446 L219.737,144.124446 L186.242,139.364446 C186.132,139.349446 186.029,139.298446 185.95,139.220446 C185.871,139.141446 185.821,139.038446 185.806,138.927446 C185.794,138.817446 185.817,138.706446 185.871,138.609446 C185.926,138.513446 186.01,138.436446 186.11,138.389446 L214.906,126.149446 C214.993,126.129446 215.083,126.129446 215.17,126.149446 L247.538,130.696446 C247.663,130.696446 247.783,130.741446 247.877,130.823446 C247.971,130.905446 248.032,131.018446 248.049,131.142446 C248.067,131.265446 248.039,131.391446 247.971,131.495446 C247.903,131.600446 247.8,131.676446 247.68,131.711446 L220.001,144.155446 C219.936,144.158446 219.87,144.148446 219.808,144.124446 Z M188.201,138.603446 L219.727,143.109446 L245.671,131.437446 L215.221,127.153446 L188.201,138.603446 Z" id="Shape" fill="#E1E5E9"></path>
                <polygon id="Path" fill="#FFFFFF" points="212.785 150.498446 150.393 143.139446 150.677 137.537446 212.785 145.860446"></polygon>
                <path d="M212.815,151.026446 L212.755,151.026446 L150.362,143.677446 C150.294,143.672446 150.226,143.653446 150.165,143.622446 C150.103,143.590446 150.048,143.547446 150.004,143.494446 C149.959,143.441446 149.926,143.380446 149.906,143.313446 C149.885,143.247446 149.878,143.178446 149.885,143.109446 L150.17,137.506446 C150.17,137.434446 150.186,137.362446 150.218,137.297446 C150.249,137.232446 150.295,137.175446 150.352,137.131446 C150.408,137.084446 150.473,137.049446 150.543,137.028446 C150.613,137.007446 150.686,137.001446 150.758,137.009446 L212.815,145.342446 C212.942,145.357446 213.058,145.418446 213.143,145.514446 C213.227,145.609446 213.273,145.732446 213.272047,145.860446 L213.272047,150.498446 C213.273,150.573446 213.258,150.646446 213.228,150.715446 C213.199,150.783446 213.155,150.844446 213.1,150.894446 C213.019,150.964446 212.921,151.010446 212.815,151.026446 Z M150.9,142.683446 L212.227,149.910446 L212.227,146.316446 L151.134,138.136446 L150.9,142.683446 Z" id="Shape" fill="#2B2D30"></path>
                <polygon id="Path" fill="#FFFFFF" points="212.784 150.498446 224.223 67.4614461 276.8 64.7924461 264.996 132.634446"></polygon>
                <path d="M212.815,151.026446 C212.696,151.026446 212.58,150.983446 212.49,150.904446 C212.421,150.847446 212.367,150.774446 212.333,150.690446 C212.299,150.607446 212.287,150.517446 212.297,150.427446 L223.737,67.3904461 C223.749,67.2684461 223.805,67.1544461 223.894,67.0704461 C223.984,66.9864461 224.101,66.9384461 224.224,66.9334461 L276.76,64.2640705 C276.839,64.2614461 276.917,64.2764461 276.989,64.3084461 C277.061,64.3394461 277.125,64.3864461 277.177,64.4454461 C277.228,64.5054461 277.266,64.5754461 277.287,64.6514461 C277.308,64.7264461 277.312,64.8064461 277.298,64.8834461 L265.483,132.726446 C265.469,132.819446 265.429,132.906446 265.368,132.978446 C265.308,133.049446 265.228,133.103446 265.138,133.132446 L212.937,150.996446 C212.898,151.011446 212.857,151.021446 212.815,151.026446 Z M224.68,67.9994461 L213.424,149.727446 L264.58,132.239446 L276.222,65.3504461 L224.68,67.9994461 Z" id="Shape" fill="#2B2D30"></path>
                <path d="M185.664,135.598446 L185.613,135.598446 L175.463,134.451446 C175.349,134.438446 175.243,134.387446 175.162,134.306446 C175.081,134.225446 175.03,134.119446 175.017,134.005446 C175.001,133.891446 175.024,133.776446 175.083,133.678446 C175.142,133.580446 175.234,133.505446 175.341,133.467446 L192.962,127.032446 C193.046,127.017446 193.132,127.017446 193.216,127.032446 L203.081,128.564446 C203.193,128.582446 203.296,128.636446 203.373,128.719446 C203.45,128.802446 203.498,128.908446 203.508,129.021446 C203.517,129.133446 203.489,129.246446 203.429,129.341446 C203.368,129.436446 203.278,129.509446 203.173,129.549446 L185.867,135.588446 C185.801,135.606446 185.732,135.609446 185.664,135.598446 Z M177.686,133.680446 L185.613,134.573446 L200.889,129.234446 L193.155,128.036446 L177.686,133.680446 Z" id="Shape" fill="#E1E5E9"></path>
                <path d="M83.23,58.5194461 C74.338,72.0914461 67.773,87.0514461 63.803,102.783446 C59.4282,120.150446 58.3726,136.136446 65.234,140.429446 C72.095,144.723446 119.983,148.620446 119.983,148.620446 C119.983,148.620446 118.674,136.440446 127.24,129.853446 C127.24,129.853446 93.025,121.855446 93.552,116.993446 C94.08,112.131446 109.529,78.9814461 109.792,71.2674461 C110.056,63.5534461 92.649,52.9264461 83.23,58.5194461 Z" id="Path" fill="#E7A246"></path>
                <path d="M146.079,149.717446 C146.079,149.717446 163.821,155.502446 170.541,153.036446 C177.26,150.569446 177.646,149.433446 177.118,146.286446 C176.59,143.140446 163.395,133.568446 153.773,132.716446 C144.151,131.863446 138.345,138.714446 138.487,142.145446 C138.629,145.576446 146.079,149.717446 146.079,149.717446 Z" id="Path" fill="#2B2D30"></path>
                <path d="M166.125,154.152446 C158.178,154.152446 146.526,150.387446 145.927,150.194446 L145.835,150.194446 C145.531,150.021446 138.192,145.870446 138.04,142.206446 C137.969,140.511446 139.136,138.308446 141.085,136.441446 C142.798,134.875446 144.824,133.691446 147.029,132.969446 C149.234,132.246446 151.567,132.001446 153.874,132.249446 C163.689,133.132446 177.006,142.835446 177.625,146.235446 C178.244,149.636446 177.473,151.077446 170.723,153.553446 C169.236,154.014446 167.681,154.216446 166.125,154.152446 Z M146.292,149.250446 C147.307,149.575446 164.065,154.873446 170.378,152.559446 C176.976,150.143446 177.128,149.148446 176.63,146.377446 C176.133,143.606446 163.283,134.065446 153.793,133.182446 C151.623,132.949446 149.428,133.181446 147.354,133.861446 C145.28,134.542446 143.375,135.657446 141.765,137.131446 C140.04,138.775446 138.974,140.734446 139.025,142.125446 C139.147,144.682446 144.262,148.113446 146.282,149.250446 L146.292,149.250446 Z" id="Shape" fill="#2B2D30"></path>
                <path d="M155.681,68.3044461 C155.681,68.3044461 182.254,100.682446 182.974,95.7094461 C183.38,93.0804461 167.638,67.9994461 167.638,67.9994461 L186.781,60.1024461 C186.781,60.1024461 213.891,100.631446 207.832,111.817446 C201.772,123.002446 190.475,126.453446 168.399,113.847446 C146.323,101.240446 138.68,93.5474461 138.68,93.5474461 L155.681,68.3044461 Z" id="Path" fill="#E7A246"></path>
                <path d="M125.646,131.254446 C125.646,131.254446 137.958,133.223446 141.034,131.254446 C144.109,129.285446 148.677,127.194446 150.676,127.570446 C152.676,127.945446 174.539,140.003446 172.255,141.861446 C169.971,143.718446 160.826,137.567446 160.826,137.567446 C160.826,137.567446 168.54,143.282446 166.967,146.002446 C165.394,148.722446 163.536,147.575446 160.684,145.139446 C157.832,142.703446 150.676,137.537446 150.676,137.537446 C150.676,137.537446 160.542,148.144446 159.537,151.148446 C158.532,154.152446 153.254,150.285446 146.819,142.429446 C146.819,142.429446 153.924,152.427446 150.25,153.005446 C146.576,153.584446 141.034,146.997446 141.034,146.997446 C141.034,146.997446 135.532,150.996446 130.529,150.498446 C126.978,150.089446 123.456,149.462446 119.983,148.621446 C119.487,145.484446 119.742,142.275446 120.726,139.256446 C121.711,136.237446 123.397,133.495446 125.646,131.254446 Z" id="Path" fill="#FFFFFF"></path>
                <path d="M149.794,153.564446 C146.394,153.564446 142.131,149.037446 140.943,147.697446 C139.563,148.621446 134.853,151.463446 130.479,151.016446 C126.904,150.607446 123.358,149.977446 119.862,149.128446 C119.767,149.104446 119.681,149.055446 119.613,148.985446 C119.545,148.915446 119.497,148.827446 119.476,148.732446 C118.984,145.518446 119.252,142.234446 120.258,139.142446 C121.265,136.050446 122.982,133.238446 125.272,130.929446 C125.329,130.868446 125.401,130.822446 125.481,130.795446 C125.561,130.769446 125.646,130.763446 125.728,130.777446 C129.098,131.315446 138.365,132.381446 140.75,130.858446 C143.136,129.336446 148.302,126.565446 150.789,127.093446 C152.058,127.367446 172.104,137.852446 172.916,141.303446 C172.961,141.485446 172.955,141.677446 172.897,141.856446 C172.84,142.035446 172.734,142.195446 172.591,142.318446 C171.2,143.444446 168.023,142.318446 165.253,140.846446 C166.937,142.673446 168.298,144.794446 167.425,146.317446 C167.222,146.759446 166.923,147.151446 166.549,147.462446 C166.174,147.773446 165.735,147.995446 165.263,148.113446 C163.903,148.347446 162.482,147.413446 160.34,145.596446 C158.929,144.388446 156.412,142.480446 154.25,140.876446 C157.163,144.378446 160.736,149.240446 160.025,151.361446 C159.938,151.697446 159.757,152.001446 159.503,152.238446 C159.25,152.475446 158.935,152.636446 158.594,152.701446 C156.564,153.077446 153.215,150.245446 150.393,147.321446 C151.408,149.351446 152.159,151.381446 151.672,152.579446 C151.56,152.855446 151.375,153.094446 151.137,153.273446 C150.899,153.452446 150.618,153.563446 150.322,153.594446 C150.146,153.594446 149.969,153.584446 149.794,153.564446 Z M141.035,146.459446 C141.11,146.458446 141.185,146.474446 141.253,146.505446 C141.322,146.537446 141.382,146.583446 141.43,146.641446 C142.912,148.408446 147.368,152.894446 150.17,152.468446 C150.286,152.463446 150.399,152.427446 150.495,152.362446 C150.592,152.298446 150.669,152.208446 150.718,152.102446 C151.357,150.569446 148.404,145.525446 146.394,142.713446 C146.326,142.602446 146.302,142.470446 146.325,142.342446 C146.349,142.214446 146.419,142.099446 146.523,142.020446 C146.626,141.940446 146.755,141.902446 146.885,141.912446 C147.015,141.922446 147.136,141.980446 147.226,142.074446 C153.316,149.504446 157.051,151.848446 158.391,151.605446 C158.594,151.605446 158.858,151.453446 159.02,150.955446 C159.68,148.986446 154.006,141.891446 150.271,137.882446 C150.183,137.785446 150.134,137.658446 150.134,137.527446 C150.134,137.395446 150.183,137.269446 150.271,137.171446 C150.356,137.074446 150.474,137.013446 150.602,137.000446 C150.73,136.986446 150.859,137.022446 150.961,137.100446 C151.043,137.151446 158.158,142.307446 161,144.723446 C162.806,146.256446 164.106,147.169446 165.06,147.007446 C165.567,146.915446 166.075,146.499446 166.481,145.718446 C167.496,144.033446 163.324,140.074446 160.482,137.973446 C160.368,137.893446 160.29,137.770446 160.266,137.632446 C160.242,137.494446 160.274,137.352446 160.355,137.237446 C160.436,137.123446 160.559,137.045446 160.697,137.022446 C160.835,136.998446 160.977,137.030446 161.091,137.111446 C164.755,139.577446 170.52,142.541446 171.891,141.434446 C171.891,140.957446 169.81,138.795446 161.994,134.137446 C158.321,131.842446 154.492,129.807446 150.535,128.047446 C148.84,127.681446 144.496,129.600446 141.288,131.660446 C138.304,133.578446 127.677,132.066446 125.799,131.782446 C123.726,133.934446 122.168,136.528446 121.242,139.369446 C120.315,142.210446 120.045,145.224446 120.45,148.184446 C123.796,148.977446 127.185,149.573446 130.6,149.971446 C135.34,150.438446 140.69,146.601446 140.75,146.570446 C140.833,146.510446 140.933,146.478446 141.035,146.479446 L141.035,146.459446 Z" id="Shape" fill="#2B2D30"></path>
                <path d="M127.24,130.381446 C127.179,130.390446 127.118,130.390446 127.057,130.381446 L93.369,117.521446 C93.303,117.496446 93.243,117.459446 93.192,117.410446 C93.142,117.361446 93.102,117.302446 93.075,117.237446 C93.047,117.171446 93.033,117.100446 93.033,117.029446 C93.033,116.957446 93.047,116.886446 93.075,116.820446 C93.227,116.475446 108.381,82.0164461 101.885,63.4014461 C101.863,63.3364461 101.854,63.2684461 101.858,63.2004461 C101.862,63.1324461 101.88,63.0654461 101.91,63.0034461 C101.94,62.9424461 101.982,62.8874461 102.034,62.8424461 C102.085,62.7974461 102.145,62.7634461 102.21,62.7414461 C102.341,62.6954461 102.484,62.7034461 102.609,62.7624461 C102.735,62.8204461 102.832,62.9264461 102.88,63.0564461 C105.661,71.0544461 105.022,82.6154461 100.962,97.4044461 C99.138,103.968446 96.897,110.410446 94.252,116.689446 L127.433,129.356446 C127.561,129.406446 127.664,129.504446 127.721,129.629446 C127.778,129.754446 127.784,129.896446 127.737,130.026446 C127.7,130.128446 127.633,130.217446 127.544,130.281446 C127.455,130.344446 127.349,130.379446 127.24,130.381446 Z" id="Path" fill="#2B2D30"></path>
                <path d="M146.078,122.373446 C146.031,122.382446 145.983,122.382446 145.936,122.373446 C145.87,122.355446 145.808,122.324446 145.754,122.283446 C145.699,122.241446 145.654,122.189446 145.62,122.129446 C145.586,122.070446 145.564,122.004446 145.556,121.936446 C145.547,121.868446 145.552,121.799446 145.571,121.733446 C145.571,121.662446 147.601,114.141446 150.159,98.6424461 C152.716,83.1434461 153.579,66.2844461 153.589,66.1624461 C153.597,66.0244461 153.659,65.8944461 153.762,65.8014461 C153.864,65.7084461 153.999,65.6594461 154.137,65.6649534 C154.276,65.6724461 154.405,65.7344461 154.498,65.8374461 C154.591,65.9394461 154.64,66.0744461 154.635,66.2134461 C154.635,66.3754461 153.742,83.2854461 151.194,98.8454461 C148.646,114.405446 146.596,121.977446 146.586,122.048446 C146.543,122.146446 146.472,122.230446 146.382,122.288446 C146.291,122.346446 146.186,122.375446 146.078,122.373446 Z" id="Path" fill="#2B2D30"></path>
                <path d="M126.155,8.49004611 C126.926,8.28704611 127.738,8.11444611 128.581,7.96224611 C131.189,7.49534611 133.767,5.52624611 136.234,4.48074611 C139.237,3.20684611 142.336,2.16844611 145.501,1.37494611 C148.962,0.512146109 152.717,-0.0359538905 156.036,1.28354611 C157.723,2.00044611 159.256,3.03414611 160.553,4.32854611 C164.035,7.67804611 166.572,12.2556461 166.481,17.0870461 C166.389,21.9184461 163.223,26.7904461 158.533,27.9272461 C154.981,28.7900461 155.549,30.3531461 155.275,33.4996461 C155.108,36.7645461 154.055,39.9223461 152.23,42.6346461 C146.526,50.4604461 134.65,46.3084461 127.423,42.9898461 C122.876,40.9598461 118.471,37.7524461 115.974,33.3067461 C113.203,28.3941461 114.787,20.8324461 117.121,15.8691461 C117.931,14.0090461 119.173,12.3692461 120.745,11.0858461 C122.316,9.80244611 124.17,8.91254611 126.155,8.49004611 Z" id="Path" fill="#FFFFFF"></path>
                <path d="M142.546,47.6994461 C138.365,47.6994461 133.249,46.3124461 127.2,43.5380461 C123.444,41.8125461 118.369,38.6965461 115.517,33.6418461 C112.766,28.7698461 114.106,21.1370461 116.654,15.7270461 C117.483,13.7835461 118.766,12.0675461 120.397,10.7233461 C122.027,9.37924611 123.956,8.44624611 126.022,8.00294611 C126.773,7.79994611 127.585,7.61724611 128.489,7.45484611 C130.179,7.03324611 131.792,6.34814611 133.269,5.42484611 C134.183,4.92744611 135.117,4.40984611 136.03,4.02414611 C139.058,2.74314611 142.18,1.69794611 145.368,0.897946109 C148.535,0.106246109 152.615,-0.614453891 156.229,0.826846109 C157.983,1.58804611 159.573,2.68444611 160.908,4.05454611 C164.856,7.85064611 167.069,12.6414461 166.998,17.1785461 C166.906,22.5072461 163.323,27.3285461 158.665,28.5160461 C156.026,29.1555461 155.985,30.0689461 155.873,32.2816461 C155.873,32.6978461 155.873,33.1444461 155.792,33.6316461 C155.625,37.0002461 154.537,40.2583461 152.646,43.0508461 C150.358,46.1504461 146.992,47.6994461 142.546,47.6994461 Z M126.306,8.97734611 C124.384,9.38974611 122.589,10.2577461 121.071,11.5082461 C119.554,12.7587461 118.359,14.3552461 117.588,16.1635461 C115.152,21.3298461 113.852,28.5871461 116.42,33.1444461 C119.14,37.9555461 124.023,40.9497461 127.646,42.6143461 C139.603,48.1054461 147.733,48.0344461 151.834,42.4114461 C153.611,39.7628461 154.626,36.6762461 154.767,33.4895461 C154.767,33.0125461 154.838,32.5760461 154.848,32.1700461 C154.96,29.9167461 155.041,28.2825461 158.411,27.4604461 C162.643,26.4454461 165.891,21.9794461 165.973,17.1074461 C166.054,12.8444461 163.943,8.32774611 160.207,4.72444611 C158.965,3.43934611 157.486,2.40554611 155.853,1.67944611 C152.514,0.349846109 148.626,1.04004611 145.622,1.80124611 C142.483,2.57754611 139.408,3.59554611 136.426,4.84624611 C135.563,5.21164611 134.69,5.69884611 133.767,6.20634611 C132.198,7.18524611 130.486,7.91144611 128.692,8.35814611 C127.809,8.51044611 127.027,8.68294611 126.306,8.87584611 L126.306,8.97734611 Z" id="Shape" fill="#2B2D30"></path>
                <path d="M141.765,58.8644461 L140.831,74.9924461 C140.831,74.9924461 133.462,83.4274461 123.972,78.2404461 C114.481,73.0544461 114.837,64.8534461 114.837,64.8534461 L121.059,34.5553461 C121.059,34.5553461 129.666,32.5253461 131.858,15.6357461 C139.197,21.4372461 147.962,25.1570461 157.233,26.4048461 C157.233,26.4048461 157.071,45.3650461 153.731,52.8964461 C150.392,60.4274461 141.765,58.8644461 141.765,58.8644461 Z" id="Path" fill="#FFFFFF"></path>
                <path d="M130.174,80.4234461 C127.903,80.4064461 125.673,79.8094461 123.698,78.6874461 C114.036,73.4094461 114.3,65.1674461 114.32,64.8224461 L120.552,34.5044461 C120.572,34.4096461 120.619,34.3225461 120.687,34.2540461 C120.756,34.1855461 120.843,34.1385461 120.938,34.1188461 C121.019,34.1188461 129.24,31.9466461 131.341,15.6153461 C131.355,15.5250461 131.392,15.4399461 131.449,15.3686461 C131.506,15.2973461 131.581,15.2423461 131.666,15.2093461 C131.753,15.1779461 131.846,15.1699461 131.937,15.1859461 C132.028,15.2020461 132.113,15.2415461 132.184,15.3006461 C139.46,21.0230461 148.133,24.6987461 157.305,25.9480461 C157.427,25.9652461 157.539,26.0262461 157.619,26.1196461 C157.699,26.2130461 157.743,26.3324461 157.742017,26.4555461 C157.742017,27.2370461 157.539,45.6084461 154.189,53.1504461 C151.235,59.8184461 144.242,59.6864461 142.212,59.4834461 L141.309,75.0744461 C141.301,75.1854461 141.258,75.2924461 141.187,75.3784461 C141.126,75.3984461 136.63,80.4234461 130.174,80.4234461 Z M121.465,34.9612461 L115.375,64.9544461 C115.375,65.1874461 115.152,72.8304461 124.236,77.7944461 C132.732,82.4424461 139.38,75.8354461 140.355,74.7494461 L141.278,58.7934461 C141.284,58.7224461 141.304,58.6534461 141.337,58.5914461 C141.371,58.5284461 141.416,58.4724461 141.471,58.4284461 C141.527,58.3824461 141.592,58.3494461 141.663,58.3314461 C141.733,58.3134461 141.806,58.3124461 141.877,58.3264461 C142.212,58.3874461 150.18,59.7174461 153.316,52.6524461 C156.29,45.9334461 156.716,29.6934461 156.767,26.8006461 C147.877,25.4747461 139.459,21.9510461 132.275,16.5491461 C130.073,31.2767461 123.1,34.4232461 121.465,34.9612461 Z" id="Shape" fill="#2B2D30"></path>
                <path d="M124.561,43.0712461 C122.362,43.3986461 120.122,42.8441461 118.329,41.5284461 C117.123,40.5742461 116.182,39.3268461 115.596,37.9052461 C115.009,36.4836461 114.797,34.9353461 114.98,33.4084461 C115.032,32.2664461 115.337,31.1503461 115.873,30.1401461 C116.146,29.6322461 116.525,29.1885461 116.984,28.8385461 C117.442,28.4884461 117.97,28.2401461 118.532,28.1101461 C119.91,28.0226461 121.279,28.3783461 122.44,29.1251461 C124.257,30.0589461 124.267,31.0942461 125.302,32.6370461 C125.19,32.4949461 125.109,32.0991461 124.998,31.9671461" id="Path" fill="#FFFFFF"></path>
                <path d="M123.302,43.6395461 C121.402,43.6430876 119.551,43.0345461 118.024,41.9038461 C116.742,40.8976461 115.741,39.5776461 115.119,38.0715461 C114.497,36.5655461 114.274,34.9243461 114.471,33.3068461 C114.526,32.0851461 114.855,30.8916461 115.435,29.8152461 C115.753,29.2466461 116.19,28.7529461 116.715,28.3677461 C117.241,27.9824461 117.843,27.7145461 118.48,27.5822461 C119.971,27.4842461 121.454,27.8647461 122.713,28.6682461 C123.777,29.1931461 124.616,30.0829461 125.078,31.1753461 C125.139,31.2768461 125.19,31.3884461 125.261,31.5001461 C125.327,31.5353461 125.386,31.5837461 125.433,31.6422461 C125.539,31.7897461 125.618,31.9546461 125.667,32.1294461 C125.69,32.1951461 125.717,32.2595461 125.748,32.3222461 C125.823,32.4300461 125.852,32.5631461 125.829,32.6924461 C125.806,32.8217461 125.733,32.9367461 125.626,33.0124461 C125.522,33.0892461 125.393,33.1236461 125.265,33.1085461 C125.137,33.0934461 125.019,33.0300461 124.936,32.9312461 C124.906,32.8980461 124.882,32.8603461 124.865,32.8196461 C124.611,32.4324461 124.378,32.0327461 124.164,31.6219461 C123.786,30.7322461 123.097,30.0106461 122.226,29.5919461 C121.169,28.8753461 119.909,28.5193461 118.633,28.5769461 C118.148,28.6835461 117.692,28.8939461 117.296,29.1935461 C116.9,29.4931461 116.573,29.8748461 116.339,30.3125461 C115.837,31.2523461 115.552,32.2930461 115.507,33.3575461 C115.321,34.8055461 115.514,36.2767461 116.065,37.6284461 C116.616,38.9800461 117.508,40.1661461 118.653,41.0715461 C120.333,42.3197461 122.437,42.8557461 124.51,42.5636461 C124.642,42.5459461 124.777,42.5805461 124.885,42.6600461 C124.993,42.7395461 125.066,42.8577461 125.088,42.9899461 C125.1,43.0553461 125.098,43.1223461 125.083,43.1871461 C125.069,43.2519461 125.041,43.3130461 125.002,43.3670461 C124.963,43.4209461 124.914,43.4665461 124.857,43.5011461 C124.801,43.5357461 124.738,43.5586461 124.672,43.5684461 C124.218,43.6290461 123.76,43.6527461 123.302,43.6395461 Z" id="Path" fill="#2B2D30"></path>
                <path d="M141.247,67.3394461 C139.408,67.2134461 137.627,66.6404461 136.06,65.6694461 C134.492,64.6974461 133.186,63.3584461 132.255,61.7674461 C128.946,56.2554461 130.225,52.7334461 130.225,52.7334461 C130.225,52.7334461 134.68,58.4074461 141.694,58.8234461 L141.247,67.3394461 Z" id="Path" fill="#2B2D30"></path>
                <path d="M141.247,67.8475762 C139.32,67.7274461 137.452,67.1334461 135.809,66.1184461 C134.166,65.1044461 132.799,63.7004461 131.828,62.0314461 C128.438,56.3674461 129.798,52.7034461 129.798,52.5514461 C129.832,52.4694461 129.887,52.3984461 129.957,52.3444461 C130.027,52.2894461 130.11,52.2544461 130.197,52.2404461 C130.285,52.2274461 130.374,52.2374461 130.457,52.2684461 C130.54,52.2994461 130.614,52.3514461 130.671,52.4194461 C130.671,52.4194461 135.086,57.9304461 141.775,58.3674461 C141.841,58.3694461 141.906,58.3854461 141.966,58.4134461 C142.026,58.4414461 142.08,58.4814461 142.124,58.5304461 C142.169,58.5804461 142.203,58.6374461 142.225,58.7004461 C142.247,58.7624461 142.256,58.8284461 142.252,58.8954461 L141.755,67.3704461 C141.749,67.5004461 141.693,67.6234461 141.598,67.7124461 C141.503,67.8014461 141.377,67.8504461 141.247,67.8475762 Z M130.6,53.7894461 C130.458,55.1294461 130.6,57.8494461 132.731,61.4734461 C133.589,62.9184461 134.767,64.1464461 136.175,65.0634461 C137.583,65.9804461 139.183,66.5614461 140.851,66.7614461 L141.278,59.2914461 C137.185,58.7614461 133.407,56.8144461 130.6,53.7894461 Z" id="Shape" fill="#2B2D30"></path>
                <path d="M142.983,33.2458461 C142.983,33.2458461 146.495,42.5026461 144.892,43.5988461 C143.288,44.6950461 139.938,42.9492461 139.938,42.9492461" id="Path" fill="#FFFFFF"></path>
                <path d="M143.511,44.4718461 C142.191,44.3800461 140.905,44.0135461 139.735,43.3959461 C139.617,43.3333461 139.529,43.2269461 139.489,43.0996461 C139.449,42.9723461 139.461,42.8345461 139.522,42.7159461 C139.585,42.5956461 139.692,42.5048461 139.821,42.4631461 C139.95,42.4213461 140.091,42.4319461 140.212,42.4926461 C141.065,42.9392461 143.541,43.9339461 144.638,43.1828461 C145.318,42.7159461 144.333,38.1078461 142.536,33.4286461 C142.512,33.3660461 142.5,33.2992461 142.502,33.2320461 C142.503,33.1648461 142.518,33.0986461 142.546,33.0372461 C142.573,32.9758461 142.612,32.9205461 142.661,32.8744461 C142.71,32.8284461 142.768,32.7925461 142.831,32.7689461 C142.957,32.7222461 143.097,32.7269461 143.221,32.7819461 C143.344,32.8369461 143.441,32.9378461 143.491,33.0632461 C144.587,35.9560461 146.952,42.8174461 145.216,44.0151461 C144.708,44.3376461 144.113,44.4969461 143.511,44.4718461 Z" id="Path" fill="#2B2D30"></path>
                <path d="M137.94,31.5970461 C138.266,30.5889461 137.951,29.5844461 137.236,29.3534461 C136.521,29.1224461 135.677,29.7524461 135.352,30.7605461 C135.026,31.7686461 135.341,32.7731461 136.056,33.0041461 C136.771,33.2351461 137.614,32.6051461 137.94,31.5970461 Z" id="Path" fill="#2B2D30"></path>
                <path d="M150.542,34.1745461 C150.556,33.1151461 149.959,32.2480461 149.208,32.2378461 C148.457,32.2275461 147.836,33.0781461 147.822,34.1374461 C147.808,35.1968461 148.405,36.0639461 149.156,36.0741461 C149.907,36.0843461 150.528,35.2338461 150.542,34.1745461 Z" id="Path" fill="#2B2D30"></path>
                <path d="M141.846,55.5154461 C141.283,55.5114461 140.723,55.4294461 140.182,55.2714461 C139.065,54.9294461 138.04,54.3374461 137.186,53.5404461 C136.331,52.7444461 135.669,51.7634461 135.249,50.6734461 C134.557,48.8994461 134.296,46.9854461 134.488,45.0910461 C134.497,45.0190461 134.521,44.9496461 134.558,44.8869461 C134.594,44.8241461 134.643,44.7693461 134.701,44.7256461 C134.934,44.5632461 135.066,44.4617461 147.196,47.1214461 C147.311,47.1484461 147.413,47.2154461 147.485,47.3094461 C147.557,47.4044461 147.595,47.5204461 147.591,47.6384461 C147.591,47.8414461 147.368,52.6224461 144.425,54.7434461 C143.668,55.2654461 142.766,55.5354461 141.846,55.5154461 Z M135.472,45.6694461 C135.369,47.2324461 135.612,48.7984461 136.183,50.2574461 C136.54,51.2144461 137.111,52.0764461 137.851,52.7804461 C138.592,53.4834461 139.482,54.0094461 140.456,54.3174461 C141.008,54.5084461 141.595,54.5754461 142.175,54.5144461 C142.756,54.4524461 143.316,54.2644461 143.816,53.9624461 C145.906,52.4394461 146.424,49.1914461 146.546,48.0344461 C142.719,47.1714461 137.127,45.9844461 135.472,45.6694461 Z" id="Shape" fill="#2B2D30"></path>
                <path d="M135.675,50.4804461 C137.471,54.8244461 141.978,55.8704461 144.069,54.3574461 C143.592,52.6934461 142.719,50.9774461 141.105,50.2974461 C139.33,49.7164461 137.407,49.7814461 135.675,50.4804461 Z" id="Path" fill="#2B2D30"></path>
                <path d="M141.856,55.5154461 C141.289,55.5124461 140.726,55.4304461 140.182,55.2714461 C139.065,54.9294461 138.04,54.3374461 137.185,53.5404461 C136.331,52.7444461 135.668,51.7634461 135.249,50.6734461 C135.198,50.5464461 135.198,50.4044461 135.249,50.2774461 C135.277,50.2144461 135.318,50.1584461 135.368,50.1104461 C135.419,50.0634461 135.478,50.0274461 135.543,50.0034461 C137.398,49.2874461 139.445,49.2444461 141.329,49.8814461 C142.851,50.4604461 143.947,51.9114461 144.597,54.2154461 C144.625,54.3164461 144.621,54.4224461 144.587,54.5204461 C144.552,54.6184461 144.488,54.7034461 144.404,54.7644461 C143.655,55.2774461 142.764,55.5404461 141.856,55.5154461 Z M136.406,50.7444461 C136.799,51.5814461 137.363,52.3274461 138.062,52.9324461 C138.762,53.5374461 139.581,53.9884461 140.466,54.2564461 C141.465,54.5864461 142.552,54.5284461 143.511,54.0944461 C142.953,52.3284461 142.1,51.2114461 140.963,50.7854461 C139.488,50.2834461 137.89,50.2694461 136.406,50.7444461 Z" id="Shape" fill="#2B2D30"></path>
                <path d="M53.46,128.016446 L53.3281,128.016446 C53.2634,127.999446 53.2026,127.970446 53.1492,127.930446 C53.0958,127.890446 53.0508,127.840446 53.0168,127.782446 C52.9829,127.725446 52.9606,127.661446 52.9513,127.595446 C52.9421,127.529446 52.9459,127.461446 52.9627,127.397446 C57.1213,108.366446 57.4353,88.6964461 53.8863,69.5424461 C50.009,49.3644461 44.325,41.3759461 44.325,41.2947461 C44.2456,41.1857461 44.2128,41.0496461 44.2337,40.9164461 C44.2546,40.7831461 44.3277,40.6637461 44.4367,40.5842461 C44.5457,40.5048461 44.6818,40.4720461 44.8151,40.4929461 C44.9483,40.5139461 45.0678,40.5869461 45.1472,40.6959461 C45.3806,41.0207461 50.9834,48.9174461 54.8506,69.3494461 C58.4293,88.6474461 58.1118,108.467446 53.9168,127.640446 C53.8894,127.743446 53.8307,127.834446 53.7488,127.902446 C53.6668,127.969446 53.5659,128.009446 53.46,128.016446 Z" id="Path" fill="#FFFFFF"></path>
            </g>
        </g>
    </g>
</svg>