<?xml version="1.0" encoding="UTF-8"?>
<svg width="289px" height="255px" viewBox="0 0 289 255" version="1.1" xmlns="http://www.w3.org/2000/svg" xmlns:xlink="http://www.w3.org/1999/xlink">
    <title>img 2@1x</title>
    <g id="Page-1" stroke="none" stroke-width="1" fill="none" fill-rule="evenodd">
        <g id="Доработки-3" transform="translate(-244.000000, -3953.000000)" fill-rule="nonzero">
            <g id="img-2" transform="translate(244.000000, 3953.000000)">
                <path d="M76.9469,130.439785 C76.9469,130.439785 55.4393,207.071785 0,219.647785 C0,219.647785 22.0763,238.465785 55.825,247.611785 C89.5739,256.756785 161.5779,254.269785 187.3789,254.269785 L264.7119,254.269785 C264.7119,254.269785 256.4699,239.491785 248.4209,227.209785 C240.3719,214.928785 226.6389,200.728785 232.6689,185.594785 C238.6979,170.460785 248.4209,143.979785 248.4209,143.979785 C248.4209,143.979785 198.6859,118.381785 164.9679,113.235785 C131.2499,108.089785 76.9469,130.439785 76.9469,130.439785 Z" id="Path" fill="#E7A246"></path>
                <polygon id="Path" fill="#2B2D30" points="118.9579 230.416785 112.1979 254.228785 213.1709 254.228785 205.1719 227.179785"></polygon>
                <path d="M213.1699,254.746785 L112.1979,254.746785 C112.1199,254.745785 112.0419,254.726785 111.9719,254.691785 C111.9009,254.656785 111.8399,254.605785 111.7919,254.543785 C111.7469,254.479785 111.7159,254.406785 111.7019,254.329785 C111.6879,254.251785 111.6909,254.172785 111.7109,254.096785 L118.4709,230.284785 C118.4999,230.181785 118.5609,230.089785 118.6439,230.022785 C118.7279,229.955785 118.8309,229.915785 118.9379,229.909785 L205.1519,226.671785 C205.2649,226.666785 205.3769,226.700785 205.4689,226.766785 C205.5609,226.832785 205.6279,226.928785 205.6589,227.036785 L213.6579,254.086785 C213.682293,254.161785 213.6889,254.242785 213.6749,254.320785 C213.6609,254.398785 213.6269,254.471785 213.5759,254.533785 C213.5309,254.598785 213.4699,254.652785 213.3989,254.689785 C213.3289,254.726785 213.2499,254.746785 213.1699,254.746785 Z M112.8679,253.731785 L212.4899,253.731785 L204.7969,227.706785 L119.3439,230.924785 L112.8679,253.731785 Z" id="Shape" fill="#2B2D30"></path>
                <path d="M287.6009,166.207785 C284.1699,157.834785 232.3439,99.5327853 217.1089,92.2857853 C201.8739,85.0387853 164.9989,90.2557853 164.9989,90.2557853 L160.8269,90.2557853 C160.8269,90.2557853 123.9719,85.0287853 108.7269,92.2857853 C93.4819,99.5427853 41.7066,157.844785 38.2759,166.207785 C34.8452,174.571785 71.7709,203.559785 71.7709,203.559785 L88.4679,189.461785 L73.3339,165.832785 L100.7389,152.109785 C100.7389,152.109785 117.1209,195.551785 118.6439,218.419785 L207.2129,218.419785 C208.7349,195.551785 225.1169,152.109785 225.1169,152.109785 L252.5219,165.832785 L237.3479,189.461785 L254.1059,203.519785 C254.1059,203.519785 291.0719,174.591785 287.6009,166.207785 Z" id="Path" fill="#FFFFFF"></path>
                <path d="M207.2419,218.937785 L118.6739,218.937785 C118.5409,218.937785 118.4139,218.887785 118.3179,218.796785 C118.2219,218.706785 118.1639,218.582785 118.1559,218.450785 C116.7449,197.297785 102.3629,157.935785 100.4749,152.840785 L74.0849,166.035785 L88.9439,189.177785 C89.0139,189.283785 89.0409,189.411785 89.0229,189.536785 C89.0039,189.662785 88.9399,189.776785 88.8429,189.857785 L72.1459,203.955785 C72.0529,204.032785 71.9369,204.074785 71.8159,204.074785 C71.6959,204.074785 71.5789,204.032785 71.4859,203.955785 C71.3949,203.884785 62.1179,196.607785 53.3988,188.395785 C41.5233,177.230785 36.2758,169.699785 37.7881,166.005785 C41.097,157.885785 92.8109,99.2787853 108.5439,91.8087853 C123.7689,84.5817853 159.4359,89.5247853 160.9379,89.7787853 L164.9979,89.7787853 C166.4389,89.5657853 202.1169,84.6227853 217.3319,91.8087853 C233.0539,99.2787853 284.7779,157.915785 288.0869,166.005785 C289.5999,169.699785 284.3419,177.241785 272.4769,188.395785 C263.7479,196.607785 254.4809,203.884785 254.3889,203.955785 C254.2959,204.032785 254.1799,204.074785 254.0589,204.074785 C253.9389,204.074785 253.8219,204.032785 253.7289,203.955785 L237.0329,189.857785 C236.9359,189.776785 236.8709,189.662785 236.8529,189.536785 C236.8339,189.411785 236.8619,189.283785 236.9309,189.177785 L251.7909,166.035785 L225.4009,152.840785 C223.5129,157.915785 209.1609,197.307785 207.7299,218.450785 C207.7219,218.576785 207.6689,218.696785 207.5789,218.786785 C207.4889,218.876785 207.3689,218.930785 207.2419,218.937785 Z M119.1609,217.922785 L206.7549,217.922785 C208.4599,195.115785 224.4969,152.393785 224.6599,151.947785 C224.7159,151.812785 224.8209,151.703785 224.9539,151.642785 C225.0909,151.586785 225.2439,151.586785 225.3809,151.642785 L252.7859,165.365785 C252.8519,165.397785 252.9099,165.442785 252.9569,165.498785 C253.0049,165.554785 253.0389,165.619785 253.0599,165.690785 C253.0779,165.762785 253.0809,165.837785 253.0689,165.911785 C253.0569,165.984785 253.0289,166.054785 252.9889,166.116785 L238.0679,189.360785 L254.1049,202.880785 C264.5189,194.678785 289.8029,172.917785 287.1429,166.411785 C283.8649,158.382785 232.5259,100.182785 216.9049,92.7627853 C201.9849,85.6577853 165.4749,90.7327853 165.1399,90.7937853 L160.8869,90.7937853 C160.4509,90.7937853 123.9409,85.7187853 109.0109,92.7627853 C93.3999,100.182785 42.0207,158.382785 38.7828,166.411785 C36.1134,172.917785 61.3969,194.678785 71.8109,202.880785 L87.8379,189.360785 L72.9069,166.116785 C72.8679,166.053785 72.8419,165.983785 72.8309,165.910785 C72.8209,165.836785 72.8259,165.761785 72.8459,165.690785 C72.8659,165.619785 72.9009,165.554785 72.9489,165.498785 C72.9959,165.442785 73.0539,165.397785 73.1199,165.365785 L100.5249,151.642785 C100.5909,151.615785 100.6619,151.600785 100.7329,151.600785 C100.8049,151.600785 100.8759,151.615785 100.9419,151.642785 C101.0099,151.670785 101.0719,151.712785 101.1239,151.764785 C101.1769,151.816785 101.2179,151.878785 101.2459,151.947785 C101.4189,152.363785 117.4559,195.084785 119.1609,217.891785 L119.1609,217.922785 Z" id="Shape" fill="#2B2D30"></path>
                <path d="M135.8479,91.1487853 C135.8479,91.1487853 143.2669,110.433785 164.0239,110.961785 C185.6639,111.550785 189.9369,88.4587853 189.9369,88.4587853 L135.8479,91.1487853 Z" id="Path" fill="#2B2D30"></path>
                <path d="M164.7859,111.479785 L163.9639,111.479785 C143.1149,110.910785 135.4119,91.5347853 135.3299,91.3417853 C135.2929,91.2717853 135.2739,91.1927853 135.2739,91.1137853 C135.2739,91.0337853 135.2929,90.9557853 135.3299,90.8847853 C135.3729,90.8167853 135.4309,90.7607853 135.4999,90.7197853 C135.5689,90.6797853 135.6459,90.6557853 135.7259,90.6517853 L189.8159,87.9617384 C189.8919,87.9607853 189.9669,87.9757853 190.0369,88.0057853 C190.1069,88.0347853 190.1699,88.0787853 190.2219,88.1347853 C190.2699,88.1927853 190.3069,88.2617853 190.3279,88.3347853 C190.348572,88.4077853 190.3539,88.4847853 190.3429,88.5607853 C190.3839,88.8247853 185.9479,111.479785 164.7859,111.479785 Z M136.5589,91.6157853 C138.0909,94.9547853 145.9779,109.966785 163.9639,110.454785 C182.9439,110.961785 188.3239,92.6617853 189.2269,88.9967853 L136.5589,91.6157853 Z" id="Shape" fill="#2B2D30"></path>
                <path d="M90.0919,106.739785 C90.0919,106.739785 100.1399,95.3407853 114.5529,94.5597853 C128.9659,93.7777853 156.9699,104.201785 156.9699,104.201785 C156.9699,104.201785 146.4039,97.4927853 146.8909,91.3617853 C147.1869,87.7347853 147.1869,84.0887853 146.8909,80.4607853 C146.8909,80.4607853 123.6279,81.1617853 109.1539,88.4287853 C94.6799,95.6967853 90.0919,106.739785 90.0919,106.739785 Z" id="Path" fill="#E7A246"></path>
                <path d="M233.2769,104.222785 C226.5669,98.7527853 218.2929,95.5547853 209.6479,95.0877853 C195.2349,94.3257853 170.6929,104.222785 170.6929,104.222785 C170.6929,104.222785 178.9549,98.2947853 178.4669,92.1637853 C177.9799,86.0337853 177.5739,80.1057853 177.5739,80.1057853 C177.5739,80.1057853 202.4519,81.1817853 216.9359,88.4487853 C231.4199,95.7167853 233.2769,104.222785 233.2769,104.222785 Z" id="Path" fill="#E7A246"></path>
                <polygon id="Path" fill="#E1E5E9" points="208.9179 214.988785 116.5829 214.988785 116.5829 233.908785 208.9179 233.908785"></polygon>
                <path d="M85.2399,182.508785 L67.8019,204.981785 L91.8069,218.419785 C91.8069,218.419785 102.5959,230.883785 109.6709,233.908785 C121.2419,238.851785 121.5359,236.953785 122.1039,232.132785 C122.6729,227.311785 115.8109,216.125785 115.8109,216.125785 L118.3589,214.988785 C118.3589,214.988785 111.8119,211.842785 108.0969,208.411785 C104.3819,204.981785 85.2399,182.508785 85.2399,182.508785 Z" id="Path" fill="#2B2D30"></path>
                <path d="M119.0189,237.328785 C117.1409,237.328785 114.2179,236.395785 109.4679,234.375785 C102.5659,231.421785 92.4459,219.911785 91.4819,218.815785 L67.5579,205.427785 C67.4929,205.392785 67.4359,205.343785 67.3919,205.283785 C67.3489,205.223785 67.3189,205.155785 67.3049,205.082785 C67.2899,205.011785 67.2919,204.938785 67.3099,204.867785 C67.3269,204.797785 67.3599,204.732785 67.4059,204.676785 L84.8339,182.204785 C84.8809,182.145785 84.9419,182.097785 85.0099,182.063785 C85.0789,182.030785 85.1529,182.012785 85.2299,182.011785 C85.3039,182.007785 85.3789,182.021785 85.4479,182.051785 C85.5159,182.081785 85.5769,182.126785 85.6249,182.184785 C85.8179,182.407785 104.7989,204.676785 108.4429,208.046785 C112.0859,211.416785 118.5109,214.511785 118.5929,214.542785 C118.6809,214.581785 118.7549,214.645785 118.8079,214.726785 C118.8599,214.807785 118.8869,214.902785 118.8869,214.998785 C118.8839,215.095785 118.8539,215.190785 118.7999,215.271785 C118.7459,215.351785 118.6709,215.415785 118.5819,215.455785 L116.5519,216.369785 C117.8919,218.622785 123.1399,227.767785 122.6419,232.203785 C122.3789,234.405785 122.1759,236.141785 120.8149,236.933785 C120.2629,237.222785 119.6419,237.359785 119.0189,237.328785 Z M68.5629,204.848785 L92.0609,218.043785 C92.1089,218.075785 92.1529,218.113785 92.1919,218.155785 C92.3039,218.277785 102.9819,230.569785 109.8739,233.512785 C115.8829,236.070785 119.0089,236.851785 120.2769,236.110785 C121.1499,235.603785 121.3529,234.273785 121.5969,232.142785 C122.1449,227.513785 115.5069,216.572785 115.3849,216.470785 C115.3449,216.410785 115.3189,216.340785 115.3099,216.268785 C115.3019,216.196785 115.3099,216.123785 115.3339,216.054785 C115.3549,215.985785 115.3899,215.921785 115.4369,215.867785 C115.4839,215.812785 115.5429,215.769785 115.6089,215.739785 L117.1719,215.029785 C113.7979,213.354785 110.6359,211.282785 107.7519,208.858785 C104.3119,205.681785 88.1119,186.731785 85.2599,183.381785 L68.5629,204.848785 Z" id="Shape" fill="#2B2D30"></path>
                <path d="M240.0579,182.508785 L257.4949,204.981785 L233.4909,218.419785 C233.4909,218.419785 222.7009,230.883785 215.6269,233.908785 C204.0559,238.851785 203.7609,236.953785 203.1929,232.132785 C202.6239,227.311785 209.4859,216.125785 209.4859,216.125785 L206.9379,214.988785 C206.9379,214.988785 213.4849,211.842785 217.1999,208.411785 C220.9149,204.981785 240.0579,182.508785 240.0579,182.508785 Z" id="Path" fill="#2B2D30"></path>
                <path d="M206.2779,237.329785 C205.6639,237.351785 205.0549,237.211785 204.5119,236.923785 C203.1519,236.131785 202.9489,234.395785 202.6849,232.193785 C202.1679,227.757785 207.4149,218.612785 208.7749,216.359785 L206.7449,215.445785 C206.6569,215.405785 206.5809,215.341785 206.5279,215.261785 C206.4739,215.180785 206.4439,215.085785 206.4409,214.988785 C206.4399,214.892785 206.4679,214.797785 206.5199,214.716785 C206.5719,214.635785 206.6469,214.571785 206.7349,214.532785 C206.7959,214.532785 213.2509,211.375785 216.8849,208.036785 C220.5189,204.696785 239.5099,182.397785 239.7019,182.174785 C239.7509,182.116785 239.8109,182.071785 239.8799,182.041785 C239.9489,182.011785 240.0229,181.997785 240.0979,182.001785 C240.1739,182.002785 240.2489,182.020785 240.3179,182.053785 C240.3859,182.087785 240.4459,182.135785 240.4939,182.194785 L257.9219,204.676785 C257.9679,204.732785 258.0009,204.797785 258.0179,204.868785 C258.0359,204.938785 258.0369,205.011785 258.0229,205.082785 C258.0089,205.155785 257.9789,205.224785 257.9349,205.283785 C257.8909,205.343785 257.8349,205.392785 257.7689,205.427785 L233.8049,218.815785 C232.8409,219.911785 222.7209,231.421785 215.8189,234.375785 C211.0789,236.395785 208.1559,237.329785 206.2779,237.329785 Z M208.1259,214.999785 L209.6889,215.709785 C209.7549,215.739785 209.8129,215.782785 209.8599,215.836785 C209.9079,215.891785 209.9429,215.955785 209.9629,216.024785 C209.9949,216.088785 210.0119,216.160785 210.0119,216.232785 C210.0119,216.304785 209.9949,216.375785 209.9629,216.440785 C209.8919,216.541785 203.2029,227.483785 203.7509,232.112785 C203.9949,234.243785 204.1979,235.573785 205.0709,236.080785 C206.3599,236.821785 209.4659,236.080785 215.4739,233.482785 C222.3659,230.538785 233.0439,218.257785 233.1559,218.125785 C233.1949,218.082785 233.2389,218.045785 233.2879,218.013785 L256.7849,204.818785 L240.0879,183.300785 C237.2359,186.650785 221.0369,205.630785 217.5959,208.777785 C214.6969,211.208785 211.5179,213.283785 208.1259,214.958785 L208.1259,214.999785 Z" id="Shape" fill="#2B2D30"></path>
                <path d="M134.6799,44.1645853 C134.6799,44.1645853 126.1039,23.3164853 130.2749,18.3632853 C134.4469,13.4100853 136.9439,15.5111853 136.9439,15.5111853 C136.9439,15.5111853 132.7519,11.8875853 139.0349,6.55888531 C145.3179,1.23008531 168.7639,-2.01791469 180.7609,2.93528531 L178.4469,6.93438531 C178.4469,6.93438531 187.8159,8.84258531 188.9519,9.79668531 L183.5419,12.6995853 C183.5419,12.6995853 186.1209,13.6536853 188.9729,19.1854853 C191.8249,24.7171853 187.3789,51.8785853 187.3789,51.8785853 C187.3789,51.8785853 142.3029,55.1874853 134.6799,44.1645853 Z" id="Path" fill="#FFFFFF"></path>
                <path d="M172.4079,52.8530853 C158.4419,52.8530853 139.1259,51.5031853 134.2439,44.4082853 C134.2419,44.3744853 134.2419,44.3405853 134.2439,44.3067853 C133.8889,43.4541853 125.5959,23.1643853 129.9499,18.0284853 C131.7769,15.8664853 133.5439,14.6992853 135.2079,14.5571853 L135.6649,14.5571853 C135.2999,13.8626853 135.1149,13.0880853 135.1269,12.3038853 C135.1269,10.2738853 136.3549,8.24388531 138.7709,6.16308531 C145.3889,0.550185305 169.2209,-2.41361469 181.0349,2.45838531 C181.1039,2.48718531 181.1649,2.53008531 181.2159,2.58428531 C181.2669,2.63848531 181.3059,2.70278531 181.3299,2.77298531 C181.3599,2.84188531 181.3749,2.91618531 181.3749,2.99118531 C181.3749,3.06628531 181.3599,3.14058531 181.3299,3.20948531 L179.2899,6.60968531 C181.7869,7.13748531 188.2519,8.54838531 189.3079,9.43138531 C189.3759,9.48468531 189.4299,9.55468531 189.4639,9.63458531 C189.4969,9.71458531 189.5099,9.80188531 189.5009,9.88818531 C189.4909,9.97418531 189.4599,10.0564853 189.4099,10.1273853 C189.3609,10.1982853 189.2939,10.2556853 189.2159,10.2941853 L184.6179,12.6996853 C185.6329,13.4406853 187.5009,15.1661853 189.4399,18.9114853 C192.3429,24.5244853 188.0799,50.8230853 187.8869,51.9395853 C187.8689,52.0556853 187.8109,52.1621853 187.7249,52.2414853 C187.6379,52.3207853 187.5269,52.3682853 187.4099,52.3760853 C186.7399,52.4064853 180.4669,52.8530853 172.4079,52.8530853 Z M135.1369,43.8601853 C142.2419,54.0101853 182.3849,51.6350853 186.9019,51.3305853 C187.4399,47.9201853 191.0529,24.3214853 188.4959,19.3682853 C185.7959,14.1511853 183.3599,13.1462853 183.3389,13.1462853 C183.2579,13.1026853 183.1879,13.0385853 183.1389,12.9603853 C183.0889,12.8820853 183.0599,12.7922853 183.0549,12.6996853 C183.0479,12.6005853 183.0699,12.5015853 183.1189,12.4149853 C183.1679,12.3283853 183.2409,12.2579853 183.3289,12.2124853 L187.8559,9.82728531 C184.7469,8.87398531 181.5889,8.08788531 178.3959,7.47248531 C178.3139,7.45448531 178.2379,7.41758531 178.1729,7.36478531 C178.1069,7.31188531 178.0549,7.24448531 178.0209,7.16798531 C177.9859,7.09318531 177.9679,7.01178531 177.9679,6.92938531 C177.9679,6.84708531 177.9859,6.76568531 178.0209,6.69088531 L180.0509,3.21958531 C168.3279,-1.23621469 145.7439,1.60578531 139.4509,6.97508531 C137.2889,8.81228531 136.1829,10.5986853 136.1719,12.3038853 C136.1719,12.8310853 136.2769,13.3530853 136.4809,13.8392853 C136.6849,14.3254853 136.9839,14.7661853 137.3599,15.1356853 C137.4549,15.2356853 137.5079,15.3682853 137.5079,15.5061853 C137.5079,15.6440853 137.4549,15.7766853 137.3599,15.8766853 C137.2619,15.9708853 137.1309,16.0235853 136.9949,16.0235853 C136.8579,16.0235853 136.7269,15.9708853 136.6289,15.8766853 C136.5479,15.8157853 134.4469,14.2424853 130.6909,18.6780853 C127.4329,22.5553853 132.7819,38.0746853 135.1369,43.8601853 Z" id="Shape" fill="#2B2D30"></path>
                <path d="M143.4699,47.5647853 C142.0589,38.7951853 127.5039,36.6433853 128.2449,46.9760853 C128.3519,50.5666853 129.7259,54.0037853 132.1229,56.6794853 C134.6189,59.2169853 138.6389,60.4146853 141.8869,58.9632853" id="Path" fill="#FFFFFF"></path>
                <path d="M138.8419,60.1105497 C137.5149,60.0953853 136.2049,59.8186853 134.9859,59.2961853 C133.7659,58.7736853 132.6619,58.0155853 131.7369,57.0654853 C128.7729,54.0204853 127.9099,49.9604853 127.6769,47.0372853 C127.3319,42.0840853 130.3359,39.9322853 133.2689,39.6175853 C137.6539,39.1100853 143.1049,42.2362853 143.9569,47.5041853 C143.9779,47.6412853 143.9429,47.7809853 143.8619,47.8930853 C143.7799,48.0050853 143.6579,48.0804853 143.5209,48.1029853 C143.4529,48.1159853 143.3819,48.1148853 143.3149,48.0996853 C143.2469,48.0844853 143.1829,48.0555853 143.1269,48.0146853 C143.0709,47.9736853 143.0229,47.9216853 142.9879,47.8618853 C142.9529,47.8019853 142.9299,47.7354853 142.9219,47.6665853 C142.1709,42.9772853 137.2789,40.2164853 133.3909,40.6630853 C130.2139,41.0284853 128.4679,43.3832853 128.7219,46.9560853 C128.9049,49.6965853 129.7369,53.5433853 132.4469,56.3346853 C134.9749,58.9025853 138.7499,59.7957853 141.5819,58.5067853 C141.7089,58.4501853 141.8519,58.4462853 141.9819,58.4957853 C142.1109,58.5452853 142.2159,58.6440853 142.2719,58.7706853 C142.3289,58.8971853 142.3329,59.0409853 142.2829,59.1703853 C142.2339,59.2998853 142.1349,59.4042853 142.0079,59.4608853 C141.0089,59.8937853 139.9309,60.1148853 138.8419,60.1105497 Z" id="Path" fill="#2B2D30"></path>
                <path d="M179.7459,47.5647853 C181.1469,38.7951853 195.7019,36.6433853 194.9709,46.9760853 C194.8639,50.5666853 193.4909,54.0037853 191.0939,56.6794853 C188.5969,59.2169853 184.5779,60.4146853 181.3299,58.9632853" id="Path" fill="#FFFFFF"></path>
                <path d="M184.3749,60.1103853 C183.2569,60.1197853 182.1499,59.8914853 181.1269,59.4404853 C181.0639,59.4129853 181.0069,59.3731853 180.9589,59.3234853 C180.9119,59.2736853 180.8739,59.2149853 180.8499,59.1506853 C180.8249,59.0864853 180.8139,59.0179853 180.8159,58.9491853 C180.8179,58.8803853 180.8339,58.8127853 180.8629,58.7502853 C180.9199,58.6246853 181.0249,58.5266853 181.1539,58.4773853 C181.2829,58.4279853 181.4259,58.4312853 181.5529,58.4863853 C184.4359,59.7753853 188.2009,58.8821853 190.6879,56.3142853 C193.4289,53.5229853 194.2299,49.6761853 194.4229,46.9356853 C194.6669,43.3628853 192.9209,41.0080853 189.7439,40.6426853 C185.8459,40.1858853 180.9639,42.9669853 180.2229,47.6461853 C180.2139,47.7154853 180.1899,47.7821853 180.1539,47.8420853 C180.1169,47.9019853 180.0689,47.9539853 180.0119,47.9947853 C179.9549,48.0355853 179.8909,48.0643853 179.8219,48.0794853 C179.7539,48.0945853 179.6829,48.0956853 179.6139,48.0825853 C179.5459,48.0728853 179.4809,48.0493853 179.4219,48.0135853 C179.3639,47.9778853 179.3129,47.9305853 179.2729,47.8745853 C179.2329,47.8185853 179.2049,47.7549853 179.1899,47.6878853 C179.1759,47.6206853 179.1749,47.5511853 179.1879,47.4837853 C180.0309,42.2158853 185.5009,39.0998853 189.8659,39.5971853 C192.7989,39.9422853 195.8039,42.0636853 195.4589,47.0168853 C195.2659,49.9298853 194.4439,54.0304853 191.3989,57.0450853 C189.5479,58.9453853 187.0269,60.0456853 184.3749,60.1103853 Z" id="Path" fill="#2B2D30"></path>
                <path d="M178.4669,91.3827853 C178.4669,91.3827853 174.5289,99.9897853 163.0389,99.9897853 C159.8359,100.076785 156.6649,99.3327853 153.8339,97.8297853 C151.0039,96.3267853 148.6119,94.1157853 146.8909,91.4127853 L147.3779,85.3227853 L148.5049,71.1127853 L149.5199,57.7960853 L175.7469,57.7960853 L176.6199,68.6870853 L176.8839,72.2187853 L178.4669,91.3827853 Z" id="Path" fill="#FFFFFF"></path>
                <path d="M163.0389,100.486785 C159.7459,100.552785 156.4909,99.7737853 153.5839,98.2247853 C150.6769,96.6747853 148.2149,94.4067853 146.4339,91.6357853 C146.3839,91.5467853 146.3619,91.4437853 146.3729,91.3417853 L149.0519,57.6438853 C149.0599,57.5119853 149.1179,57.3879853 149.2139,57.2973853 C149.3109,57.2067853 149.4379,57.1566847 149.5699,57.1566847 L175.7979,57.1566847 C175.9299,57.1566847 176.0569,57.2067853 176.1529,57.2973853 C176.2499,57.3879853 176.3079,57.5119853 176.3149,57.6438853 L178.9949,91.3417853 C178.9989,91.4327853 178.9809,91.5227853 178.9439,91.6057853 C178.9039,91.6867853 174.7319,100.486785 163.0389,100.486785 Z M147.4279,91.2607853 C149.1369,93.8187853 151.4629,95.9047853 154.1919,97.3237853 C156.9209,98.7437853 159.9639,99.4507853 163.0389,99.3807853 C173.4429,99.3807853 177.4009,92.2757853 177.9389,91.2607853 L175.3109,58.1919853 L150.0569,58.1919853 L147.4279,91.2607853 Z" id="Shape" fill="#2B2D30"></path>
                <path d="M176.9649,72.1077853 C174.7649,75.3017853 171.8029,77.8967853 168.3479,79.6587853 C162.7039,82.7857853 154.2599,86.2967853 147.4079,85.2517853 L148.5349,71.0417853 C153.5549,71.6707853 158.6309,71.7047853 163.6579,71.1427853 C168.0839,70.7577853 172.6409,70.3207853 176.7009,68.6158853 L176.9649,72.1077853 Z" id="Path" fill="#2B2D30"></path>
                <path d="M149.9869,85.9418846 C149.0869,85.9447853 148.1869,85.8797853 147.2969,85.7497853 C147.1709,85.7297853 147.0579,85.6627853 146.9789,85.5637853 C146.8999,85.4637853 146.8609,85.3377853 146.8709,85.2117853 L147.9969,71.0017853 C148.0029,70.9317853 148.0229,70.8647853 148.0559,70.8027853 C148.0889,70.7417853 148.1349,70.6887853 148.1899,70.6457853 C148.2939,70.5737853 148.4199,70.5417853 148.5449,70.5547853 C153.5239,71.1827853 158.5609,71.2137853 163.5469,70.6457853 C167.6679,70.2907853 172.3369,69.8847853 176.4479,68.1593853 C176.5179,68.1219853 176.5959,68.1024853 176.6759,68.1024853 C176.7559,68.1024853 176.8339,68.1219853 176.9039,68.1593853 C176.9729,68.1994853 177.0309,68.2554853 177.0729,68.3225853 C177.1149,68.3896853 177.1409,68.4659853 177.1479,68.5450853 L177.4119,72.0767853 C177.4169,72.1847853 177.3879,72.2907853 177.3309,72.3817853 C175.0969,75.6587853 172.0699,78.3157853 168.5309,80.1057853 C164.4099,82.3997853 156.8889,85.9418846 149.9869,85.9418846 Z M147.9569,84.8157853 C155.1119,85.6887853 163.6179,81.7097853 168.1149,79.2127853 C171.4479,77.5227853 174.3139,75.0377853 176.4579,71.9757853 L176.2549,69.3062853 C172.1949,70.8697853 167.6879,71.2547853 163.7089,71.6107853 C158.8259,72.1687853 153.8949,72.1687853 149.0119,71.6107853 L147.9569,84.8157853 Z" id="Shape" fill="#2B2D30"></path>
                <path d="M163.4449,74.3607853 L161.1009,74.3607853 C155.7809,74.3587853 150.6799,72.2467853 146.9139,68.4891853 C143.1489,64.7314853 141.0269,59.6342853 141.0139,54.3147853 L141.0139,22.4437853 L164.1459,28.1785853 L183.5419,22.4437853 L183.5419,54.3147853 C183.5289,59.6360853 181.4059,64.7347853 177.6379,68.4927853 C173.8709,72.2507853 168.7669,74.3607853 163.4449,74.3607853 Z" id="Path" fill="#FFFFFF"></path>
                <path d="M163.4459,74.8787867 L161.1009,74.8787867 C155.6439,74.8727853 150.4119,72.7067853 146.5479,68.8526853 C142.6849,64.9987853 140.5049,59.7714853 140.4859,54.3145853 L140.4859,22.4435853 C140.4859,22.3632853 140.5039,22.2837853 140.5389,22.2115853 C140.5739,22.1392853 140.6259,22.0762853 140.6889,22.0274853 C140.7519,21.9797853 140.8249,21.9468853 140.9019,21.9310853 C140.9799,21.9152853 141.0599,21.9169853 141.1359,21.9360853 L164.1359,27.6403853 L183.4209,21.9462853 C183.4999,21.9203772 183.5829,21.9148853 183.6639,21.9289853 C183.7459,21.9431853 183.8229,21.9769853 183.8879,22.0274853 C183.9529,22.0757853 184.0059,22.1384853 184.0429,22.2106853 C184.0799,22.2827853 184.0999,22.3624853 184.1009,22.4435853 L184.1009,54.3145853 C184.0799,59.7776853 181.8939,65.0095853 178.0219,68.8639853 C174.1499,72.7187853 168.9089,74.8807853 163.4459,74.8787867 Z M141.5319,23.1134853 L141.5319,54.3145853 C141.5369,59.5029853 143.6009,64.4773853 147.2699,68.1461853 C150.9379,71.8147853 155.9129,73.8787853 161.1009,73.8837886 L163.4459,73.8837886 C168.6399,73.8867853 173.6239,71.8267853 177.3009,68.1575853 C180.9779,64.4881853 183.0479,59.5091853 183.0559,54.3145853 L183.0559,23.1439853 L164.3189,28.6858853 C164.2289,28.7109853 164.1339,28.7109853 164.0449,28.6858853 L141.5319,23.1134853 Z" id="Shape" fill="#2B2D30"></path>
                <path d="M140.1209,38.7344853 L140.1209,36.9074853 L140.4969,36.7957853 L143.9069,36.0852853 C145.7379,35.6379853 147.6149,35.4063853 149.4999,35.3950853 C152.2179,35.4787853 154.9189,35.8495853 157.5589,36.5014853 C160.3329,37.2091853 163.2289,37.3061853 166.0439,36.7856853 C168.0739,36.3999853 170.1859,36.0040853 172.2659,35.6488853 C173.8109,35.3832853 175.3829,35.3150853 176.9449,35.4458853 C179.3409,35.7661853 181.7139,36.2373853 184.0499,36.8566853 C184.2089,36.8794853 184.3529,36.9630853 184.4519,37.0899853 C184.5499,37.2168853 184.5959,37.3770853 184.5779,37.5367853 C184.5779,38.0746853 184.5779,38.5517853 184.5779,39.1302853 C184.5889,39.2706853 184.5589,39.4110853 184.4919,39.5350853 C184.4259,39.6590853 184.3249,39.7615853 184.2029,39.8306853 C183.7809,40.0934853 183.4589,40.4901853 183.2889,40.9572853 C183.1579,41.2646853 183.0459,41.5798853 182.9539,41.9012853 C182.6189,43.1090853 182.3249,44.3169853 181.9389,45.5146853 C181.6349,46.6213853 181.0569,47.6336853 180.2589,48.4584853 C179.4609,49.2832853 178.4679,49.8939853 177.3719,50.2343853 C175.7029,50.8007853 173.9169,50.9266853 172.1849,50.5997853 C170.9009,50.4221853 169.6779,49.9397853 168.6189,49.1928853 C167.5589,48.4458853 166.6939,47.4561853 166.0949,46.3063853 C165.5039,45.1701853 165.0209,43.9806853 164.6539,42.7538853 C164.4559,42.2073853 164.2009,41.6834853 163.8929,41.1907853 C163.7499,40.9864853 163.5359,40.8418853 163.2939,40.7847853 C162.8739,40.7200853 162.4489,40.6962853 162.0249,40.7136853 C161.8269,40.7011853 161.6299,40.7526853 161.4639,40.8604853 C161.2979,40.9682853 161.1709,41.1267853 161.1009,41.3125853 C160.8649,41.8338853 160.6719,42.3736853 160.5229,42.9263853 C160.1269,44.4616853 159.4369,45.9057853 158.4929,47.1792853 C157.5229,48.7395853 156.0179,49.8938853 154.2599,50.4272853 C153.5939,50.5968853 152.9149,50.7089853 152.2299,50.7621853 C150.2949,50.9708853 148.3379,50.6953853 146.5359,49.9603853 C145.3759,49.5411853 144.4239,48.6902853 143.8769,47.5852853 C143.0839,45.8311853 142.4589,44.0062853 142.0089,42.1346853 C141.8659,41.4522853 141.5359,40.8230853 141.0549,40.3178853 C140.5799,39.9055853 140.2519,39.3496853 140.1209,38.7344853 Z" id="Path" fill="#2B2D30"></path>
                <path d="M162.7549,58.9330957 C161.7379,58.9339853 160.7209,58.8763853 159.7099,58.7604853 C159.6419,58.7517853 159.5759,58.7295853 159.5159,58.6950853 C159.4569,58.6606853 159.4049,58.6146853 159.3629,58.5598853 C159.3219,58.5050853 159.2909,58.4424853 159.2739,58.3758853 C159.2569,58.3092853 159.2529,58.2398853 159.2629,58.1717853 C159.2709,58.1039853 159.2919,58.0383853 159.3249,57.9788853 C159.3589,57.9193853 159.4039,57.8671853 159.4579,57.8254853 C159.5119,57.7838853 159.5739,57.7534853 159.6399,57.7361853 C159.7059,57.7189853 159.7739,57.7152853 159.8419,57.7251853 C161.7379,57.9242853 163.6499,57.9242853 165.5459,57.7251853 C165.5859,57.7169853 165.6219,57.6998853 165.6539,57.6752853 C165.6859,57.6505853 165.7109,57.6190853 165.7289,57.5830853 C166.6729,56.0098853 164.1959,48.0623853 162.4099,43.3730853 C162.3599,43.2424853 162.3649,43.0975853 162.4219,42.9701853 C162.4789,42.8426853 162.5839,42.7430853 162.7139,42.6930853 C162.7779,42.6686853 162.8469,42.6572853 162.9149,42.6593853 C162.9829,42.6615853 163.0509,42.6771853 163.1129,42.7054853 C163.1749,42.7338853 163.2309,42.7742853 163.2779,42.8243853 C163.3239,42.8744853 163.3609,42.9333853 163.3839,42.9975853 C163.8819,44.2764853 168.1349,55.5632853 166.6319,58.0804853 C166.5329,58.2529853 166.3949,58.4004853 166.2299,58.5112853 C166.0639,58.6221853 165.8759,58.6935853 165.6779,58.7198853 C164.7089,58.8495853 163.7329,58.9207853 162.7549,58.9330957 Z" id="Path" fill="#2B2D30"></path>
                <path d="M155.3859,63.1560853 C155.2649,63.1565853 155.1479,63.1994853 155.0549,63.2773853 C154.9629,63.3552853 154.8999,63.4631853 154.8789,63.5823853 C154.8659,63.6497853 154.8659,63.7190853 154.8799,63.7862853 C154.8939,63.8535853 154.9209,63.9173853 154.9599,63.9739853 C154.9979,64.0306853 155.0479,64.0790853 155.1049,64.1163853 C155.1629,64.1537853 155.2279,64.1792853 155.2949,64.1913853 C155.6809,64.2725853 164.9479,66.0183853 170.8139,64.5466853 C170.8809,64.5311853 170.9449,64.5025853 170.9999,64.4623853 C171.0559,64.4222853 171.1029,64.3713853 171.1389,64.3127853 C171.1749,64.2542853 171.1989,64.1890853 171.2089,64.1212853 C171.2199,64.0533853 171.2169,63.9839853 171.1999,63.9173853 C171.1829,63.8500853 171.1539,63.7866853 171.1129,63.7307853 C171.0709,63.6749853 171.0199,63.6277853 170.9599,63.5919853 C170.9009,63.5561853 170.8349,63.5323853 170.7659,63.5220853 C170.6979,63.5116853 170.6279,63.5149853 170.5609,63.5316853 C164.9169,64.9424853 155.5889,63.1763853 155.4879,63.1662853 L155.3859,63.1560853 Z" id="Path" fill="#2B2D30"></path>
                <path d="M162.7549,181.280785 C144.3229,181.280785 129.3309,168.786785 129.3309,153.429785 C129.3309,138.072785 144.3229,125.587785 162.7549,125.587785 C181.1879,125.587785 196.1789,138.072785 196.1789,153.429785 C196.1789,168.786785 181.1879,181.280785 162.7549,181.280785 Z M162.7549,126.602785 C144.8809,126.602785 130.3459,138.640785 130.3459,153.429785 C130.3459,168.217785 144.8809,180.265785 162.7549,180.265785 C180.6289,180.265785 195.1639,168.227785 195.1639,153.429785 C195.1639,138.630785 180.6289,126.602785 162.7549,126.602785 Z" id="Shape" fill="#E1E5E9"></path>
                <path d="M100.7689,152.637785 C100.6319,152.637785 100.5009,152.582785 100.4039,152.485785 C95.1059,147.339785 92.9939,139.990785 92.9029,139.685785 C92.8679,139.551785 92.8869,139.408785 92.9549,139.287785 C93.0229,139.166785 93.1349,139.076785 93.2679,139.036785 C93.3349,139.016785 93.4049,139.010785 93.4739,139.017785 C93.5429,139.025785 93.6099,139.046785 93.6709,139.081785 C93.7309,139.115785 93.7849,139.161785 93.8269,139.216785 C93.8699,139.271785 93.8999,139.334785 93.9179,139.401785 C93.9179,139.472785 96.0389,146.780785 101.1349,151.734785 C101.2299,151.833785 101.2829,151.966785 101.2829,152.104785 C101.2829,152.242785 101.2299,152.375785 101.1349,152.474785 C101.0389,152.574785 100.9079,152.633785 100.7689,152.637785 Z" id="Path" fill="#2B2D30"></path>
                <path d="M225.1479,152.637921 C225.0399,152.639785 224.9349,152.608785 224.8459,152.548785 C224.7579,152.489785 224.6899,152.403785 224.6519,152.302785 C224.6139,152.202785 224.6079,152.093785 224.6349,151.989785 C224.6619,151.885785 224.7209,151.792785 224.8029,151.723785 C224.8629,151.662785 228.4969,148.323785 231.9889,136.194785 C232.0079,136.127785 232.0399,136.065785 232.0839,136.011785 C232.1269,135.957785 232.1809,135.912785 232.2409,135.878785 C232.3019,135.845785 232.3689,135.824785 232.4379,135.816785 C232.5069,135.808785 232.5769,135.814785 232.6429,135.834785 C232.7099,135.853785 232.7719,135.885785 232.8259,135.929785 C232.8809,135.972785 232.9259,136.025785 232.9589,136.086785 C232.9929,136.147785 233.0139,136.214785 233.0209,136.283785 C233.0289,136.352785 233.0229,136.422785 233.0039,136.488785 C229.3899,149.023785 225.6549,152.373785 225.5029,152.505785 C225.4059,152.593785 225.2789,152.640785 225.1479,152.637921 Z" id="Path" fill="#2B2D30"></path>
            </g>
        </g>
    </g>
</svg>