<?xml version="1.0" encoding="UTF-8"?>
<svg width="181px" height="260px" viewBox="0 0 181 260" version="1.1" xmlns="http://www.w3.org/2000/svg" xmlns:xlink="http://www.w3.org/1999/xlink">
    <title>img 4@1x</title>
    <g id="Page-1" stroke="none" stroke-width="1" fill="none" fill-rule="evenodd">
        <g id="Доработки-3" transform="translate(-298.000000, -4686.000000)" fill-rule="nonzero">
            <g id="img-4" transform="translate(298.000000, 4686.000000)">
                <path d="M68.6090144,259.968009 C98.0680144,259.968009 121.950014,256.512009 121.950014,252.249009 C121.950014,247.986009 98.0680144,244.530009 68.6090144,244.530009 C39.1490144,244.530009 15.2680144,247.986009 15.2680144,252.249009 C15.2680144,256.512009 39.1490144,259.968009 68.6090144,259.968009 Z" id="Path" fill="#2B2D30"></path>
                <path d="M73.5960144,181.451009 L71.9940144,181.451009 C71.4460144,181.162009 70.9120144,180.845009 70.3490144,180.599009 C45.5900144,169.345009 26.5880144,152.955009 14.0790144,130.909009 C7.99201439,120.184009 3.76801439,108.504009 1.58401439,96.3670094 C0.334014388,89.5700094 -0.178985612,82.6570094 0.0550143876,75.7495094 C0.0550143876,74.6674094 0.502014388,74.1624094 1.72901439,73.9604094 C3.46001439,73.6719094 5.17701439,73.2534094 6.86501439,72.8062094 C15.2910144,70.4977094 22.0580144,66.2558094 26.5160144,59.3735094 C29.8430144,54.2924094 31.4190144,48.2632094 31.0030144,42.2039094 C30.9310144,41.1651094 31.2490144,40.7611094 32.4460144,40.5158094 C40.2950144,39.2461094 48.1010144,37.7889094 55.9640144,36.5769094 C65.0190144,35.0084094 74.2520144,34.7606094 83.3780144,35.8411094 C93.3770144,37.1973094 103.303014,39.0153094 113.259014,40.5735094 C114.326014,40.7467094 114.485014,41.1795094 114.514014,42.0164094 C114.465014,44.2495094 114.590014,46.4830094 114.889014,48.6966094 C115.534014,52.4533094 116.916014,56.0451094 118.957014,59.2644094 C120.998014,62.4838094 123.656014,65.2670094 126.778014,67.4533094 C131.702014,70.8174094 137.318014,73.0359094 143.212014,73.9460094 C145.102014,74.2923094 145.506014,75.0570094 145.549014,76.6008094 C145.839014,87.4310094 144.332014,98.2350094 141.091014,108.574009 C132.434014,136.738009 114.485014,158.943009 86.6820144,174.756009 C82.4540144,177.165009 77.9670144,179.272009 73.5960144,181.451009 Z" id="Path" fill="#E7A246"></path>
                <path d="M29.2050144,153.517009 L30.2870144,160.731009 C30.2870144,160.731009 34.6160144,162.664009 34.8470144,163.876009 C35.0780144,165.088009 36.2900144,168.435009 36.0010144,169.388009 C35.3810144,170.989009 33.3030144,170.412009 33.3030144,170.412009 C33.5420144,171.354009 33.6050144,172.332009 33.4910144,173.298009 C33.1880144,173.947009 23.3910144,174.741009 21.9480144,172.721009 C20.5050144,170.701009 17.2590144,149.794009 17.2590144,149.794009" id="Path" fill="#FFFFFF"></path>
                <path d="M27.7340144,174.668009 C25.2950144,174.668009 22.2800144,174.394009 21.3570144,173.125009 C19.8420144,171.061009 16.8840144,152.059009 16.5520144,149.910009 C16.5380144,149.824009 16.5400144,149.737009 16.5600144,149.653009 C16.5800144,149.568009 16.6170144,149.489009 16.6680144,149.419009 C16.7190144,149.349009 16.7840144,149.290009 16.8580144,149.246009 C16.9320144,149.201009 17.0150144,149.172009 17.1000144,149.159009 C17.1860144,149.145009 17.2730144,149.148009 17.3570144,149.168009 C17.4420144,149.188009 17.5210144,149.224009 17.5910144,149.275009 C17.6610144,149.327009 17.7200144,149.391009 17.7640144,149.465009 C17.8090144,149.540009 17.8380144,149.622009 17.8500144,149.708009 C19.0910144,157.744009 21.4290144,170.989009 22.4240144,172.346009 C23.4200144,173.702009 31.4560144,173.384009 32.9140144,172.894009 C32.9240144,172.132009 32.8410144,171.371009 32.6680144,170.629009 C32.6440144,170.518009 32.6480144,170.403009 32.6810144,170.294009 C32.7140144,170.185009 32.7740144,170.087009 32.8560144,170.008009 C32.9400144,169.930009 33.0420144,169.875009 33.1530144,169.847009 C33.2640144,169.819009 33.3800144,169.820009 33.4910144,169.849009 C33.4910144,169.849009 34.9330144,170.239009 35.3810144,169.215009 C35.2990144,167.903009 35.0270144,166.610009 34.5730144,165.377009 C34.4140144,164.872009 34.2840144,164.424009 34.2120144,164.107009 C33.0300144,162.907009 31.5960144,161.986009 30.0130144,161.409009 C29.9120144,161.363009 29.8240144,161.293009 29.7560144,161.205009 C29.6880144,161.117009 29.6420144,161.014009 29.6240144,160.904009 L28.5560144,153.690009 C28.5310144,153.518009 28.5760144,153.343009 28.6800144,153.203009 C28.7840144,153.064009 28.9400144,152.972009 29.1120144,152.947009 C29.2840144,152.922009 29.4590144,152.966009 29.5980144,153.071009 C29.7380144,153.175009 29.8300144,153.330009 29.8550144,153.502009 L30.8790144,160.428009 C32.3220144,161.135009 35.2080144,162.592009 35.4960144,163.876009 C35.4960144,164.165009 35.6980144,164.583009 35.8280144,165.074009 C36.4920144,167.281009 36.9390144,168.912009 36.6070144,169.763009 C36.4120144,170.252009 36.0670144,170.667009 35.6210144,170.947009 C35.1750144,171.227009 34.6510144,171.358009 34.1260144,171.321009 C34.3090144,172.089009 34.3090144,172.890009 34.1260144,173.658009 C34.0100144,173.933009 33.8230144,174.308009 31.1530144,174.582009 C30.9660144,174.524009 29.5080144,174.668009 27.7340144,174.668009 Z" id="Path" fill="#2B2D30"></path>
                <path d="M33.3030144,170.484009 C32.5890144,169.223009 32.0540144,167.868009 31.7160144,166.459009 L33.3030144,170.484009 Z" id="Path" fill="#FFFFFF"></path>
                <path d="M33.3020144,171.119009 C33.1930144,171.119009 33.0850144,171.091009 32.9890144,171.038009 C32.8930144,170.985009 32.8120144,170.909009 32.7540144,170.816009 C31.9970144,169.492009 31.4290144,168.070009 31.0660144,166.589009 C31.0260144,166.419009 31.0530144,166.240009 31.1420144,166.089009 C31.2300144,165.939009 31.3740144,165.828009 31.5420144,165.781009 C31.7120144,165.737009 31.8930144,165.762009 32.0440144,165.852009 C32.1960144,165.941009 32.3060144,166.087009 32.3500144,166.257009 C32.6590144,167.599009 33.1450144,168.894009 33.7930144,170.109009 C33.8590144,170.209009 33.8970144,170.324009 33.9020144,170.444009 C33.9070144,170.563009 33.8790144,170.682009 33.8200144,170.786009 C33.7620144,170.891009 33.6760144,170.977009 33.5720144,171.036009 C33.4680144,171.095009 33.3500144,171.123009 33.2300144,171.119009 L33.3020144,171.119009 Z" id="Path" fill="#2B2D30"></path>
                <path d="M110.594014,153.517009 L109.526014,160.731009 C109.526014,160.731009 105.198014,162.664009 104.953014,163.876009 C104.707014,165.088009 103.510014,168.435009 103.798014,169.388009 C104.419014,170.989009 106.497014,170.412009 106.497014,170.412009 C106.258014,171.354009 106.194014,172.332009 106.309014,173.298009 C106.612014,173.947009 116.409014,174.741009 117.852014,172.721009 C119.294014,170.701009 122.541014,149.794009 122.541014,149.794009" id="Path" fill="#FFFFFF"></path>
                <path d="M112.066014,174.669009 C110.292014,174.669009 108.834014,174.524009 108.690014,174.510009 C106.021014,174.236009 105.804014,173.861009 105.718014,173.586009 C105.534014,172.818009 105.534014,172.017009 105.718014,171.249009 C105.192014,171.286009 104.669014,171.155009 104.222014,170.875009 C103.776014,170.595009 103.431014,170.180009 103.236014,169.691009 C102.904014,168.840009 103.352014,167.209009 104.015014,165.002009 C104.160014,164.511009 104.275014,164.093009 104.347014,163.804009 C104.650014,162.520009 107.464014,161.063009 108.964014,160.356009 L109.989014,153.430009 C110.013014,153.258009 110.106014,153.103009 110.245014,152.999009 C110.384014,152.894009 110.559014,152.850009 110.732014,152.875009 C110.904014,152.900009 111.059014,152.992009 111.163014,153.131009 C111.267014,153.271009 111.312014,153.446009 111.287014,153.618009 L110.219014,160.832009 C110.203014,160.942009 110.159014,161.047009 110.091014,161.136009 C110.023014,161.224009 109.933014,161.293009 109.830014,161.337009 C108.248014,161.914009 106.813014,162.835009 105.631014,164.035009 C105.559014,164.352009 105.429014,164.800009 105.271014,165.305009 C104.816014,166.538009 104.544014,167.831009 104.463014,169.143009 C104.852014,170.167009 106.295014,169.792009 106.367014,169.777009 C106.476014,169.746009 106.592014,169.745009 106.702014,169.772009 C106.812014,169.800009 106.913014,169.856009 106.995014,169.935009 C107.077014,170.013009 107.137014,170.112009 107.168014,170.222009 C107.200014,170.331009 107.202014,170.446009 107.175014,170.557009 C107.002014,171.299009 106.920014,172.060009 106.930014,172.822009 C108.373014,173.312009 116.366014,173.731009 117.419014,172.273009 C118.472014,170.816009 120.752014,157.672009 121.993014,149.636009 C122.005014,149.550009 122.034014,149.468009 122.079014,149.393009 C122.124014,149.319009 122.183014,149.255009 122.253014,149.203009 C122.322014,149.152009 122.402014,149.116009 122.486014,149.096009 C122.570014,149.076009 122.658014,149.073009 122.743014,149.087009 C122.829014,149.100009 122.911014,149.129009 122.985014,149.174009 C123.060014,149.218009 123.124014,149.277009 123.175014,149.347009 C123.226014,149.417009 123.263014,149.496009 123.283014,149.581009 C123.303014,149.665009 123.306014,149.752009 123.291014,149.838009 C122.960014,151.987009 120.002014,170.989009 118.487014,173.053009 C117.520014,174.394009 114.505014,174.669009 112.066014,174.669009 Z" id="Path" fill="#2B2D30"></path>
                <path d="M108.027014,170.484009 C108.743014,169.222009 109.282014,167.868009 109.629014,166.459009 L108.027014,170.484009 Z" id="Path" fill="#FFFFFF"></path>
                <path d="M108.027014,171.11903 C107.904014,171.120009 107.784014,171.085009 107.681014,171.018009 C107.532014,170.926009 107.426014,170.779009 107.385014,170.608009 C107.345014,170.438009 107.373014,170.259009 107.464014,170.109009 C108.153014,168.904009 108.668014,167.607009 108.993014,166.257009 C109.038014,166.090009 109.145014,165.947009 109.294014,165.858009 C109.442014,165.769009 109.619014,165.741009 109.787014,165.781009 C109.872014,165.801009 109.953014,165.838009 110.023014,165.890009 C110.094014,165.942009 110.153014,166.008009 110.198014,166.083009 C110.242014,166.159009 110.271014,166.242009 110.282014,166.329009 C110.293014,166.416009 110.287014,166.504009 110.263014,166.589009 C109.906014,168.065009 109.343014,169.483009 108.589014,170.802009 C108.530014,170.897009 108.447014,170.976009 108.348014,171.032009 C108.250014,171.087009 108.140014,171.117009 108.027014,171.11903 Z" id="Path" fill="#2B2D30"></path>
                <path d="M119.569014,89.8020094 C119.569014,89.8020094 114.231014,70.5692094 107.955014,63.6292094 C101.678014,56.6892094 84.5380144,49.3308094 56.1280144,53.0100094 C56.1280144,53.0100094 41.3830144,56.9201094 32.4950144,65.3750094 C23.6070144,73.8299094 20.4190144,88.8790094 20.4190144,88.8790094 C20.4190144,88.8790094 9.69801439,127.835009 15.7010144,156.186009 L33.2740144,157.254009 C33.2740144,157.254009 30.5910144,123.968009 39.6080144,97.5350094 C41.2530144,130.720009 43.8210144,183.816009 45.6100144,235.772009 L66.3720144,235.339009 L72.2880144,168.609009 L74.4670144,234.604009 L95.7190144,234.604009 C95.7190144,234.604009 101.678014,151.526009 98.7780144,93.8420094 C109.498014,120.693009 106.526014,157.326009 106.526014,157.326009 L124.100014,156.258009 C129.582014,130.389009 121.113014,95.6020094 119.569014,89.8020094 Z" id="Path" fill="#2B2D30"></path>
                <path d="M60.8310144,30.0693094 C59.9940144,24.8607094 51.3230144,23.5766094 51.7560144,29.7230094 C51.8180144,31.8593094 52.6360144,33.9042094 54.0640144,35.4943094 C54.7870144,36.2622094 55.7190144,36.8003094 56.7460144,37.0415094 C57.7720144,37.2827094 58.8470144,37.2163094 59.8360144,36.8505094" id="Path" fill="#FFFFFF"></path>
                <path d="M58.0760144,37.9756094 C57.2270144,37.9632094 56.3880144,37.7835094 55.6080144,37.4469094 C54.8280144,37.1102094 54.1230144,36.6231094 53.5310144,36.0134094 C51.9750144,34.2790094 51.0810144,32.0514094 51.0060144,29.7227094 C50.9010144,29.1544094 50.9170144,28.5705094 51.0510144,28.0085094 C51.1860144,27.4465094 51.4360144,26.9189094 51.7870144,26.4596094 C52.1370144,26.0002094 52.5800144,25.6194094 53.0870144,25.3415094 C53.5940144,25.0636094 54.1530144,24.8948094 54.7290144,24.8460094 C56.2910144,24.6868094 57.8560144,25.1162094 59.1180144,26.0502094 C60.3800144,26.9842094 61.2490144,28.3555094 61.5530144,29.8958094 C61.5810144,29.9952094 61.5880144,30.0992094 61.5730144,30.2013094 C61.5580144,30.3034094 61.5220144,30.4012094 61.4660144,30.4883094 C61.4110144,30.5755094 61.3380144,30.6501094 61.2520144,30.7072094 C61.1670144,30.7644094 61.0700144,30.8029094 60.9680144,30.8202094 C60.8660144,30.8375094 60.7620144,30.8332094 60.6620144,30.8076094 C60.5620144,30.7820094 60.4690144,30.7357094 60.3880144,30.6717094 C60.3070144,30.6076094 60.2410144,30.5273094 60.1930144,30.4359094 C60.1450144,30.3445094 60.1170144,30.2441094 60.1100144,30.1411094 C59.8580144,28.9807094 59.1920144,27.9520094 58.2360144,27.2481094 C57.2790144,26.5442094 56.0990144,26.2133094 54.9160144,26.3176094 C53.9350144,26.4331094 52.3330144,27.0102094 52.5070144,29.6073094 C52.5610144,31.5926094 53.3180144,33.4943094 54.6420144,34.9746094 C55.2610144,35.6430094 56.0640144,36.1134094 56.9500144,36.3265094 C57.8350144,36.5396094 58.7640144,36.4859094 59.6200144,36.1721094 C59.8000144,36.0938094 60.0030144,36.0892094 60.1870144,36.1593094 C60.3700144,36.2295094 60.5190144,36.3688094 60.6010144,36.5472094 C60.6800144,36.7294094 60.6850144,36.9352094 60.6150144,37.1209094 C60.5450144,37.3067094 60.4050144,37.4580094 60.2260144,37.5428094 C59.5470144,37.8355094 58.8150144,37.9829094 58.0760144,37.9756094 Z" id="Path" fill="#2B2D30"></path>
                <path d="M82.4160144,30.0693094 C83.2380144,24.8607094 91.9100144,23.5766094 91.4770144,29.7230094 C91.4140144,31.8593094 90.5970144,33.9042094 89.1680144,35.4943094 C88.4460144,36.2622094 87.5130144,36.8003094 86.4870144,37.0415094 C85.4610144,37.2827094 84.3860144,37.2163094 83.3970144,36.8505094" id="Path" fill="#FFFFFF"></path>
                <path d="M85.1580144,37.975518 C84.4330144,37.9768094 83.7160144,37.8295094 83.0510144,37.5427094 C82.8600144,37.4604094 82.7090144,37.3055094 82.6320144,37.1120094 C82.5550144,36.9186094 82.5580144,36.7024094 82.6400144,36.5110094 C82.7220144,36.3197094 82.8770144,36.1689094 83.0710144,36.0918094 C83.2640144,36.0147094 83.4800144,36.0176094 83.6720144,36.0998094 C84.5250144,36.4124094 85.4510144,36.4655094 86.3350144,36.2524094 C87.2180144,36.0393094 88.0180144,35.5695094 88.6350144,34.9023094 C89.8980144,33.4631094 90.6310144,31.6355094 90.7130144,29.7226094 C90.8860144,27.1255094 89.2700144,26.5484094 88.3030144,26.4329094 C87.1200144,26.3286094 85.9400144,26.6595094 84.9840144,27.3634094 C84.0270144,28.0673094 83.3610144,29.0960094 83.1090144,30.2564094 C83.1020144,30.3594094 83.0740144,30.4598094 83.0260144,30.5512094 C82.9790144,30.6426094 82.9120144,30.7229094 82.8310144,30.7870094 C82.7500144,30.8510094 82.6570144,30.8973094 82.5570144,30.9229094 C82.4570144,30.9485094 82.3530144,30.9528094 82.2510144,30.9355094 C82.1490144,30.9182094 82.0530144,30.8797094 81.9670144,30.8225094 C81.8810144,30.7654094 81.8080144,30.6908094 81.7530144,30.6036094 C81.6980144,30.5165094 81.6610144,30.4187094 81.6460144,30.3166094 C81.6310144,30.2145094 81.6380144,30.1104094 81.6660144,30.0111094 C81.9680144,28.4692094 82.8350144,27.0959094 84.0980144,26.1614094 C85.3610144,25.2269094 86.9280144,24.7987094 88.4910144,24.9613094 C89.0560144,25.0099094 89.6060144,25.1743094 90.1050144,25.4442094 C90.6040144,25.7141094 91.0430144,26.0838094 91.3930144,26.5303094 C91.7440144,26.9768094 91.9980144,27.4906094 92.1420144,28.0398094 C92.2860144,28.5889094 92.3150144,29.1617094 92.2280144,29.7226094 C92.1450144,32.0325094 91.2510144,34.2396094 89.7030144,35.9556094 C89.1160144,36.5757094 88.4120144,37.0735094 87.6320144,37.4201094 C86.8520144,37.7668094 86.0110144,37.9556094 85.1580144,37.975518 Z" id="Path" fill="#2B2D30"></path>
                <polygon id="Path" fill="#E7A246" points="81.6520144 56.1550094 75.5770144 92.5140094 73.3560144 105.759009 70.5280144 92.3700094 62.8660144 56.1550094"></polygon>
                <polygon id="Path" fill="#FFFFFF" points="73.7310144 68.6789094 75.5780144 92.5000094 73.4000144 105.759009 70.5140144 92.3700094 71.5820144 69.0540094 69.3160144 65.1584094 71.9570144 61.0752094 75.6220144 64.8554094"></polygon>
                <path d="M81.6520144,56.1553094 C80.7530144,57.7795094 79.4160144,59.1192094 77.7940144,60.0220094 C76.1720144,60.9249094 74.3300144,61.3548094 72.4750144,61.2629094 C70.5680144,61.3171094 68.6800144,60.8749094 66.9960144,59.9795094 C65.3110144,59.0841094 63.8880144,57.7663094 62.8660144,56.1553094 L63.1550144,52.5050094 L63.8180144,44.0212094 L64.4530144,36.1001094 L80.0650144,36.1001094 L80.5840144,42.5784094 L80.7430144,44.6849094 L81.6520144,56.1553094 Z" id="Path" fill="#FFFFFF"></path>
                <path d="M72.4750144,61.9985094 C70.4320144,62.0580094 68.4090144,61.5818094 66.6070144,60.6175094 C64.8050144,59.6532094 63.2860144,58.2341094 62.2020144,56.5014094 C62.1300144,56.3797094 62.1000144,56.2379094 62.1150144,56.0974094 L63.7170144,36.0422094 C63.7280144,35.8546094 63.8100144,35.6784094 63.9470144,35.5496094 C64.0840144,35.4208094 64.2650144,35.3493094 64.4530144,35.3496085 L80.0640144,35.3496085 C80.2510144,35.3527094 80.4300144,35.4253094 80.5660144,35.5534094 C80.7020144,35.6815094 80.7860144,35.8558094 80.8000144,36.0422094 L82.4020144,56.0974094 C82.4290144,56.2161094 82.4290144,56.3394094 82.4020144,56.4581094 C81.4450144,58.2297094 80.0030144,59.6918094 78.2450144,60.6731094 C76.4860144,61.6544094 74.4850144,62.1142094 72.4750144,61.9985094 Z M63.6160144,55.9675094 C64.5880144,57.4120094 65.9110144,58.5865094 67.4600144,59.3813094 C69.0090144,60.1761094 70.7350144,60.5652094 72.4750144,60.5124094 C74.1580144,60.5986094 75.8320144,60.2234094 77.3170144,59.4275094 C78.8020144,58.6317094 80.0410144,57.4452094 80.9010144,55.9964094 L79.3720144,36.8357094 L65.1450144,36.8357094 L63.6160144,55.9675094 Z" id="Shape" fill="#2B2D30"></path>
                <path d="M81.7970144,41.9724094 C81.6260144,42.9368094 81.2680144,43.8583094 80.7430144,44.6849094 C79.4290144,46.5825094 77.6640144,48.1243094 75.6070144,49.1721094 C72.2450144,51.0333094 67.2240144,53.1254094 63.1550144,52.5050094 L63.8190144,44.0212094 C66.8100144,44.3755094 69.8320144,44.3755094 72.8220144,44.0212094 C75.4680144,43.9369094 78.0850144,43.4504094 80.5850144,42.5784094 C80.9890144,42.3908094 81.4070144,42.2033094 81.7970144,41.9724094 Z" id="Path" fill="#2B2D30"></path>
                <path d="M64.7420144,53.3272094 C64.1870144,53.3324094 63.6320144,53.2938094 63.0830144,53.2118094 C62.9030144,53.1866094 62.7390144,53.0931094 62.6270144,52.9508094 C62.5140144,52.8084094 62.4600144,52.6280094 62.4770144,52.4471094 L63.1400144,43.9633094 C63.1670144,43.7671094 63.2640144,43.5874094 63.4140144,43.4583094 C63.5710144,43.3404094 63.7680144,43.2886094 63.9630144,43.3140094 C66.8960144,43.6587094 69.8590144,43.6587094 72.7930144,43.3140094 C75.3670144,43.2195094 77.9110144,42.7330094 80.3390144,41.8712094 C80.7280144,41.6981094 81.1180144,41.5105094 81.4790144,41.3085094 C81.5960144,41.2372094 81.7310144,41.1995094 81.8680144,41.1995094 C82.0050144,41.1995094 82.1400144,41.2372094 82.2580144,41.3085094 C82.3660144,41.3887094 82.4500144,41.4970094 82.5010144,41.6217094 C82.5520144,41.7463094 82.5670144,41.8825094 82.5460144,42.0155094 C82.3500144,43.0424094 81.9580144,44.0220094 81.3920144,44.9012094 C80.0260144,46.9114094 78.1750144,48.5442094 76.0100144,49.6480094 C73.3990144,51.1919094 68.8970144,53.3272094 64.7420144,53.3272094 Z M63.9630144,51.8844094 C68.1760144,52.2163094 73.2540144,49.6913094 75.3030144,48.5659094 C77.2710144,47.5614094 78.9490144,46.0716094 80.1800144,44.2375094 C80.3710144,43.9276094 80.5400144,43.6046094 80.6850144,43.2708094 C78.1810144,44.1267094 75.5660144,44.6128094 72.9230144,44.7136094 C70.1310144,45.0096094 67.3170144,45.0096094 64.5250144,44.7136094 L63.9630144,51.8844094 Z" id="Shape" fill="#2B2D30"></path>
                <path d="M72.7060144,46.0124094 L71.2640144,46.0124094 C68.1010144,45.9971094 65.0740144,44.7302094 62.8430144,42.4888094 C60.6130144,40.2473094 59.3600144,37.2137094 59.3600144,34.0514094 L59.3600144,15.1216094 L73.1250144,18.5411094 L84.6670144,15.1216094 L84.6670144,34.0514094 C84.6670144,35.6221094 84.3580144,37.1775094 83.7570144,38.6287094 C83.1560144,40.0798094 82.2750144,41.3984094 81.1640144,42.5091094 C80.0530144,43.6198094 78.7350144,44.5008094 77.2840144,45.1019094 C75.8330144,45.7030094 74.2770144,46.0124094 72.7060144,46.0124094 Z" id="Path" fill="#FFFFFF"></path>
                <path d="M72.7070144,46.7624094 L71.2640144,46.7624094 C67.9040144,46.7433094 64.6880144,45.3962094 62.3170144,43.0148094 C59.9470144,40.6335094 58.6140144,37.4112094 58.6100144,34.0511094 L58.6100144,15.1213094 C58.6120144,15.0076094 58.6390144,14.8958094 58.6890144,14.7936094 C58.7390144,14.6914094 58.8110144,14.6013094 58.8990144,14.5297094 C58.9890144,14.4638094 59.0930144,14.4181094 59.2020144,14.3957094 C59.3120144,14.3733094 59.4250144,14.3747094 59.5340144,14.3999094 L73.1110144,17.7617094 L84.4660144,14.4143094 C84.5750144,14.3793094 84.6910144,14.3716094 84.8050144,14.3917094 C84.9180144,14.4118094 85.0240144,14.4592094 85.1150144,14.5297094 C85.2080144,14.5977094 85.2840144,14.6866094 85.3370144,14.7894094 C85.3900144,14.8921094 85.4170144,15.0058094 85.4180144,15.1213094 L85.4180144,34.0511094 C85.4140144,37.4212094 84.0740144,40.6521094 81.6910144,43.0351094 C79.3080144,45.4181094 76.0770144,46.7585094 72.7070144,46.7624094 Z M60.0960144,16.0736094 L60.0960144,34.0511094 C60.1040144,37.0245094 61.2900144,39.8738094 63.3940144,41.9750094 C65.4970144,44.0761094 68.3480144,45.2580094 71.3220144,45.2618094 L72.7640144,45.2618094 C75.7280144,45.2428094 78.5640144,44.0542094 80.6550144,41.9547094 C82.7470144,39.8551094 83.9240144,37.0146094 83.9320144,34.0511094 L83.9320144,16.1168094 L73.3990144,19.2478094 C73.2720144,19.2835094 73.1370144,19.2835094 73.0100144,19.2478094 L60.0960144,16.0736094 Z" id="Shape" fill="#2B2D30"></path>
                <path d="M59.3310144,25.3945094 L59.3310144,24.3124094 L59.5470144,24.3124094 L61.5820144,23.8940094 C62.6730144,23.6252094 63.7910144,23.4848094 64.9150144,23.4755094 C66.5350144,23.5314094 68.1450144,23.7538094 69.7190144,24.1392094 C71.3670144,24.5495094 73.0830144,24.6085094 74.7550144,24.3124094 C75.9960144,24.0815094 77.2220144,23.8362094 78.4630144,23.6342094 C79.3820144,23.4756094 80.3180144,23.4320094 81.2480144,23.5044094 C82.6620144,23.7040094 84.0630144,23.9834094 85.4460144,24.3412094 C85.5430144,24.3556094 85.6310144,24.4074094 85.6900144,24.4856094 C85.7500144,24.5639094 85.7760144,24.6622094 85.7640144,24.7596094 L85.7640144,25.6975094 C85.7668724,25.7817094 85.7470144,25.8651094 85.7060144,25.9389094 C85.6660144,26.0126094 85.6060144,26.0739094 85.5330144,26.1159094 C85.2870144,26.2762094 85.0950144,26.5077094 84.9840144,26.7796094 C84.9070144,26.9667094 84.8440144,27.1597094 84.7970144,27.3567094 C84.5950144,28.0637094 84.4220144,28.7995094 84.2050144,29.5065094 C84.0230144,30.1651094 83.6780144,30.7669094 83.2010144,31.2563094 C82.7250144,31.7456094 82.1320144,32.1066094 81.4780144,32.3056094 C80.4920144,32.6507094 79.4310144,32.7254094 78.4050144,32.5220094 C77.6360144,32.4204094 76.9040144,32.1352094 76.2680144,31.6908094 C75.6330144,31.2463094 75.1140144,30.6555094 74.7550144,29.9682094 C74.4060144,29.2942094 74.1210144,28.5889094 73.9040144,27.8617094 C73.7700144,27.5041094 73.6010144,27.1609094 73.3990144,26.8373094 C73.3600144,26.7755094 73.3100144,26.7219094 73.2500144,26.6798094 C73.1910144,26.6377094 73.1230144,26.6079094 73.0520144,26.5920094 C72.7980144,26.5701094 72.5420144,26.5701094 72.2880144,26.5920094 C72.1700144,26.5872094 72.0540144,26.6195094 71.9550144,26.6842094 C71.8570144,26.7489094 71.7810144,26.8428094 71.7390144,26.9527094 C71.5960144,27.2644094 71.4800144,27.5878094 71.3930144,27.9194094 C71.1670144,28.8300094 70.7650144,29.6877094 70.2100144,30.4444094 C69.6370144,31.3736094 68.7440144,32.0612094 67.6990144,32.3777094 C67.3060144,32.4742094 66.9050144,32.5418094 66.5020144,32.5797094 C65.3540144,32.7043094 64.1940144,32.5406094 63.1260144,32.1036094 C62.4310144,31.8445094 61.8630144,31.3278094 61.5390144,30.6608094 C61.0570144,29.6138094 60.6800144,28.5215094 60.4130144,27.4000094 C60.3230144,27.0008094 60.1290144,26.6324094 59.8500144,26.3323094 C59.5840144,26.0813094 59.4020144,25.7535094 59.3310144,25.3945094 Z" id="Path" fill="#2B2D30"></path>
                <path d="M87.0910144,25.3943094 L86.8170144,25.3943094 C86.6370144,25.3175094 86.4930144,25.1743094 86.4150144,24.9944094 C86.3370144,24.8146094 86.3310144,24.6116094 86.3990144,24.4276094 C87.3910144,22.1012094 87.9020144,19.5983094 87.9020144,17.0692094 C87.9020144,14.5401094 87.3910144,12.0371094 86.3990144,9.71080942 C85.3780144,7.44380942 83.7690144,5.49120942 81.7400144,4.05530942 C79.7100144,2.61940942 77.3340144,1.75250942 74.8560144,1.54440942 C72.8550144,1.53420942 70.8630144,1.81120942 68.9410144,2.36680942 C66.6770144,2.80880942 64.5210144,3.68590942 62.5920144,4.94950942 C60.0180144,7.02650942 58.3020144,9.98090942 57.7730144,13.2457094 C57.2500144,16.5859094 57.1340144,19.9773094 57.4270144,23.3455094 C57.4350144,23.5421094 57.3650144,23.7340094 57.2330144,23.8797094 C57.1010144,24.0254094 56.9160144,24.1134094 56.7200144,24.1246094 C56.6220144,24.1304094 56.5240144,24.1166094 56.4320144,24.0841094 C56.3390144,24.0515094 56.2540144,24.0008094 56.1820144,23.9350094 C56.1090144,23.8691094 56.0500144,23.7894094 56.0090144,23.7006094 C55.9680144,23.6117094 55.9440144,23.5155094 55.9410144,23.4176094 C55.6340144,19.9142094 55.7600144,16.3864094 56.3160144,12.9139094 C56.9070144,9.31040942 58.8020144,6.04980942 61.6400144,3.75190942 C63.7190144,2.35100942 66.0520144,1.37070942 68.5080144,0.866309424 C70.5670144,0.276309424 72.7000144,-0.0151905761 74.8420144,0.000609423919 C77.6000144,0.213709424 80.2500144,1.16450942 82.5140144,2.75360942 C84.7780144,4.34260942 86.5740144,6.51140942 87.7120144,9.03270942 C88.7790144,11.5421094 89.3290144,14.2411094 89.3290144,16.9682094 C89.3290144,19.6953094 88.7790144,22.3943094 87.7120144,24.9037094 C87.6660144,25.0361094 87.5830144,25.1525094 87.4730144,25.2394094 C87.3630144,25.3263094 87.2310144,25.3800094 87.0910144,25.3943094 Z" id="Path" fill="#2B2D30"></path>
                <path d="M73.8320144,37.5858094 C73.2060144,37.5925094 72.5790144,37.5587094 71.9570144,37.4848094 C71.8590144,37.4761094 71.7640144,37.4475094 71.6780144,37.4008094 C71.5920144,37.3541094 71.5160144,37.2903094 71.4550144,37.2134094 C71.3940144,37.1364094 71.3500144,37.0478094 71.3240144,36.9531094 C71.2990144,36.8584094 71.2930144,36.7595094 71.3070144,36.6624094 C71.3180144,36.5655094 71.3480144,36.4717094 71.3950144,36.3865094 C71.4420144,36.3012094 71.5060144,36.2262094 71.5830144,36.1658094 C71.6590144,36.1054094 71.7470144,36.0608094 71.8410144,36.0346094 C71.9350144,36.0084094 72.0330144,36.0011094 72.1300144,36.0132094 C73.1660144,36.1177094 74.2100144,36.1177094 75.2460144,36.0132094 C75.4630144,35.1331094 74.5680144,31.6126094 73.1970144,28.0632094 C73.1620144,27.9685094 73.1460144,27.8678094 73.1500144,27.7668094 C73.1540144,27.6659094 73.1780144,27.5667094 73.2200144,27.4749094 C73.2620144,27.3832094 73.3220144,27.3006094 73.3960144,27.2320094 C73.4700144,27.1633094 73.5570144,27.1100094 73.6520144,27.0749094 C73.7470144,27.0398094 73.8470144,27.0238094 73.9480144,27.0277094 C74.0490144,27.0315094 74.1480144,27.0553094 74.2400144,27.0975094 C74.3320144,27.1397094 74.4150144,27.1995094 74.4830144,27.2736094 C74.5520144,27.3477094 74.6050144,27.4347094 74.6400144,27.5294094 C75.5200144,29.8235094 77.5260144,35.3351094 76.5300144,36.8933094 C76.4400144,37.0524094 76.3130144,37.1877094 76.1600144,37.2880094 C76.0070144,37.3884094 75.8320144,37.4509094 75.6500144,37.4704094 C75.0480144,37.5520094 74.4400144,37.5906094 73.8320144,37.5858094 Z" id="Path" fill="#2B2D30"></path>
                <path d="M68.7810144,38.9693094 C68.6090144,38.9843094 68.4480144,39.0594094 68.3260144,39.1814094 C68.2030144,39.3033094 68.1280144,39.4644094 68.1120144,39.6363094 C68.0970144,39.8083094 68.1420144,39.9802094 68.2410144,40.1221094 C68.3390144,40.2639094 68.4850144,40.3665094 68.6510144,40.4121094 C68.8820144,40.4121094 74.4950144,41.5231094 78.0730144,40.6285094 C78.1680144,40.6049094 78.2590144,40.5626094 78.3380144,40.5041094 C78.4170144,40.4456094 78.4840144,40.3721094 78.5350144,40.2876094 C78.5860144,40.2032094 78.6200144,40.1096094 78.6350144,40.0121094 C78.6490144,39.9146094 78.6450144,39.8152094 78.6210144,39.7195094 C78.5700144,39.5283094 78.4470144,39.3642094 78.2770144,39.2620094 C78.1080144,39.1597094 77.9050144,39.1272094 77.7120144,39.1713094 C74.4370144,39.9937094 69.0550144,38.9693094 68.9250144,38.9548094 L68.7810144,38.9693094 Z" id="Path" fill="#2B2D30"></path>
                <path d="M75.0570144,234.603009 L74.9130144,248.325009 L84.5220144,250.042009 L84.9550144,247.156009 C86.4250144,248.997009 88.2500144,250.523009 90.3220144,251.643009 C93.3380144,253.086009 110.969014,259.203009 109.469014,253.288009 C107.968014,247.372009 100.653014,244.905009 97.4210144,241.442009 C96.4860144,240.504009 95.7690144,239.371009 95.3230144,238.124009 C94.8760144,236.877009 94.7110144,235.547009 94.8380144,234.228009" id="Path" fill="#FFFFFF"></path>
                <path d="M106.238014,256.419009 C100.712014,256.419009 91.2040144,252.754009 90.0500144,252.206009 C88.2940144,251.303009 86.7150144,250.090009 85.3890144,248.627009 L85.1730144,250.070009 C85.1580144,250.157009 85.1260144,250.240009 85.0790144,250.314009 C85.0320144,250.389009 84.9710144,250.453009 84.8990144,250.503009 C84.8300144,250.556009 84.7510144,250.594009 84.6660144,250.614009 C84.5810144,250.634009 84.4930144,250.636009 84.4080144,250.619009 L74.8420144,248.902009 C74.6890144,248.875009 74.5510144,248.795009 74.4510144,248.676009 C74.3500144,248.558009 74.2950144,248.408009 74.2940144,248.252009 L74.4380144,234.531009 C74.4420144,234.358009 74.5140144,234.192009 74.6380144,234.071009 C74.7620144,233.950009 74.9280144,233.882009 75.1020144,233.882009 C75.1880144,233.882009 75.2740144,233.899009 75.3540144,233.933009 C75.4330144,233.966009 75.5060144,234.015009 75.5660144,234.077009 C75.6270144,234.139009 75.6740144,234.212009 75.7060144,234.293009 C75.7380144,234.373009 75.7530144,234.459009 75.7510144,234.546009 L75.6210144,247.704009 L84.0190144,249.147009 L84.3360144,246.954009 C84.3560144,246.825009 84.4130144,246.705009 84.5000144,246.609009 C84.5870144,246.512009 84.7010144,246.444009 84.8270144,246.411009 C84.9530144,246.379009 85.0860144,246.384009 85.2090144,246.427009 C85.3320144,246.470009 85.4400144,246.547009 85.5190144,246.651009 C86.9220144,248.425009 88.6690144,249.897009 90.6560144,250.979009 C93.6850144,252.422009 106.209014,256.563009 108.633014,254.572009 C108.850014,254.399009 109.066014,254.110009 108.878014,253.374009 C107.941014,249.695009 104.550014,247.444009 101.405014,245.266009 C99.8120144,244.280009 98.3320144,243.124009 96.9900144,241.817009 C95.9870144,240.818009 95.2200144,239.608009 94.7430144,238.276009 C94.2670144,236.943009 94.0930144,235.521009 94.2340144,234.113009 C94.2800144,233.958009 94.3820144,233.826009 94.5190144,233.741009 C94.6560144,233.656009 94.8190144,233.624009 94.9780144,233.650009 C95.1370144,233.677009 95.2810144,233.760009 95.3830144,233.885009 C95.4850144,234.010009 95.5380144,234.168009 95.5320144,234.329009 C95.4200144,235.541009 95.5770144,236.763009 95.9910144,237.908009 C96.4050144,239.052009 97.0660144,240.092009 97.9270144,240.952009 C99.2060144,242.176009 100.608014,243.264009 102.112014,244.198009 C105.372014,246.406009 109.066014,248.916009 110.119014,253.071009 C110.281014,253.515009 110.303014,253.998009 110.182014,254.455009 C110.060014,254.912009 109.802014,255.320009 109.441014,255.625009 C108.491014,256.237009 107.364014,256.516009 106.238014,256.419009 Z" id="Path" fill="#2B2D30"></path>
                <path d="M65.5940144,234.603009 L65.7380144,248.325009 L56.0860144,249.970009 L55.6530144,247.084009 C54.1950144,248.932009 52.3790144,250.468009 50.3140144,251.600009 C47.2990144,253.043009 29.6530144,259.160009 31.1680144,253.245009 C32.6830144,247.329009 39.9840144,244.862009 43.2160144,241.399009 C44.1510144,240.461009 44.8680144,239.328009 45.3140144,238.081009 C45.7610144,236.834009 45.9260144,235.504009 45.7980144,234.185009" id="Path" fill="#FFFFFF"></path>
                <path d="M34.4420144,256.419009 C33.3210144,256.515009 32.1990144,256.236009 31.2530144,255.625009 C30.8930144,255.320009 30.6340144,254.912009 30.5130144,254.455009 C30.3920144,253.998009 30.4130144,253.515009 30.5750144,253.072009 C31.6290144,248.916009 35.3220144,246.406009 38.5830144,244.198009 C40.0860144,243.264009 41.4890144,242.176009 42.7670144,240.952009 C43.6300144,240.098009 44.2930144,239.064009 44.7090144,237.924009 C45.1260144,236.785009 45.2850144,235.567009 45.1770144,234.358009 C45.1520144,234.186009 45.1950144,234.011009 45.2980144,233.871009 C45.4000144,233.731009 45.5540144,233.636009 45.7250144,233.608009 C45.8100144,233.591009 45.8980144,233.592009 45.9830144,233.610009 C46.0680144,233.628009 46.1490144,233.663009 46.2200144,233.713009 C46.2920144,233.763009 46.3520144,233.826009 46.3990144,233.900009 C46.4450144,233.974009 46.4760144,234.056009 46.4900144,234.142009 C46.6150144,235.547009 46.4300144,236.962009 45.9490144,238.289009 C45.4680144,239.615009 44.7020144,240.819009 43.7050144,241.817009 C42.3630144,243.124009 40.8820144,244.280009 39.2900144,245.266009 C36.0720144,247.444009 32.7540144,249.695009 31.8160144,253.374009 C31.6290144,254.110009 31.8160144,254.399009 32.0610144,254.572009 C34.4850144,256.563009 47.0090144,252.422009 50.0390144,250.979009 C52.0250144,249.897009 53.7720144,248.425009 55.1750144,246.651009 C55.2560144,246.549009 55.3640144,246.473009 55.4870144,246.432009 C55.6100144,246.391009 55.7430144,246.387009 55.8680144,246.420009 C55.9910144,246.453009 56.1020144,246.521009 56.1860144,246.616009 C56.2710144,246.710009 56.3260144,246.828009 56.3440144,246.954009 L56.6760144,249.147009 L65.0730144,247.704009 L64.9290144,234.546009 C64.9290144,234.370009 64.9990144,234.201009 65.1230144,234.076009 C65.2480144,233.952009 65.4170144,233.882009 65.5930144,233.882009 C65.7660144,233.882009 65.9330144,233.950009 66.0570144,234.071009 C66.1810144,234.193009 66.2530144,234.358009 66.2560144,234.531009 L66.4010144,248.252009 C66.4000144,248.408009 66.3440144,248.558009 66.2440144,248.676009 C66.1440144,248.795009 66.0050144,248.875009 65.8520144,248.902009 L56.2430144,250.619009 C56.1560144,250.636009 56.0650144,250.635009 55.9780144,250.615009 C55.8910144,250.595009 55.8090144,250.557009 55.7380144,250.503009 C55.6680144,250.452009 55.6090144,250.387009 55.5640144,250.313009 C55.5200144,250.239009 55.4910144,250.156009 55.4780144,250.070009 L55.2620144,248.628009 C53.9360144,250.091009 52.3570144,251.303009 50.6020144,252.206009 C49.4470144,252.754009 39.9250144,256.419009 34.4420144,256.419009 Z" id="Path" fill="#2B2D30"></path>
                <path d="M95.4310144,141.094068 L78.7230144,141.094068 C78.5660144,141.096009 78.4130144,141.047009 78.2880144,140.953009 C78.1630144,140.859009 78.0720144,140.726009 78.0300144,140.575009 L73.6010144,124.458009 L69.7050144,139.550009 C69.6640144,139.707009 69.5730144,139.845009 69.4450144,139.944009 C69.3170144,140.043009 69.1600144,140.097009 68.9980144,140.098009 L46.1300144,139.521009 C46.0360144,139.519009 45.9430144,139.499009 45.8570144,139.461009 C45.7710144,139.423009 45.6930144,139.368009 45.6290144,139.299009 C45.5640144,139.230009 45.5140144,139.150009 45.4810144,139.062009 C45.4480144,138.973009 45.4330144,138.880009 45.4370144,138.785009 C45.4410144,138.597009 45.5190144,138.417009 45.6530144,138.285009 C45.7880144,138.152009 45.9700144,138.078009 46.1590144,138.079009 L68.4500144,138.641009 L72.8800144,121.472009 C72.9180144,121.318009 73.0080144,121.182009 73.1330144,121.085009 C73.2590144,120.988009 73.4140144,120.936009 73.5720144,120.937954 C73.7310144,120.936009 73.8850144,120.988009 74.0110144,121.085009 C74.1360144,121.182009 74.2260144,121.318009 74.2650144,121.472009 L79.2710144,139.651009 L95.4310144,139.651009 C95.6220144,139.651009 95.8060144,139.727009 95.9410144,139.862009 C96.0760144,139.998009 96.1520144,140.181009 96.1520144,140.373009 C96.1520144,140.467009 96.1340144,140.561009 96.0970144,140.649009 C96.0610144,140.736009 96.0080144,140.816009 95.9410144,140.883009 C95.8740144,140.950009 95.7940144,141.003009 95.7070144,141.039009 C95.6190144,141.075009 95.5260144,141.094068 95.4310144,141.094068 Z" id="Path" fill="#FFFFFF"></path>
                <path d="M161.937014,250.505009 C170.261014,250.505009 177.010014,248.751009 177.010014,246.588009 C177.010014,244.424009 170.261014,242.670009 161.937014,242.670009 C153.613014,242.670009 146.864014,244.424009 146.864014,246.588009 C146.864014,248.751009 153.613014,250.505009 161.937014,250.505009 Z" id="Path" fill="#2B2D30"></path>
                <path d="M162.663014,194.264009 C162.773014,192.653009 162.421014,191.044009 161.648014,189.626009 C160.903014,188.685009 160.208014,187.706009 159.567014,186.692009 C158.684014,184.805009 159.303014,182.582009 159.100014,180.511009 C158.918014,178.777009 158.152014,177.155009 156.928014,175.913009 C155.852014,174.817009 154.451014,174.066009 153.416014,172.929009 C151.721014,171.051009 151.234014,168.423009 150.269014,166.088009 C148.900014,162.788009 146.533014,159.998009 143.499014,158.110009 C145.347014,161.835009 141.134014,166.555009 143.043014,170.290009 C143.641014,171.457009 144.799014,172.320009 145.245014,173.548009 C146.311014,176.593009 142.748014,179.780009 143.885014,182.744009 C144.454014,184.226009 146.047014,185.089009 146.788014,186.489009 C147.803014,188.388009 147.001014,190.681009 147.082014,192.823009 C147.194014,195.777009 148.991014,198.416009 151.142014,200.456009 C152.472014,201.735009 153.944014,202.831009 155.385014,203.978009 C157.100014,205.358009 157.821014,206.800009 159.333014,204.597009 C161.427014,201.551009 162.584014,197.960009 162.663014,194.264009 Z" id="Path" fill="#2B2D30"></path>
                <path d="M164.581014,195.959009 C164.033014,193.676009 163.637014,191.199009 164.581014,189.047009 C165.596014,186.611009 168.255014,184.886009 168.560014,182.247009 C168.763014,180.521009 167.880014,178.775009 168.225014,177.070009 C168.570014,175.365009 169.970014,174.198009 171.117014,172.939009 C173.760014,170.033009 175.331014,166.313009 175.573014,162.393009 C177.344014,164.496009 178.776014,166.862009 179.816014,169.407009 C180.326014,170.688009 180.535014,172.068009 180.428014,173.442009 C180.320014,174.817009 179.899014,176.148009 179.197014,177.334009 C178.753014,177.863009 178.391014,178.455009 178.121014,179.090009 C177.603014,180.765009 179.045014,182.338009 179.785014,183.932009 C180.227014,184.843009 180.412014,185.859009 180.318014,186.867009 C180.225014,187.876009 179.859014,188.841009 179.258014,189.656009 C177.755014,191.534009 174.842014,192.265009 174.101014,194.559009 C173.920014,195.413009 173.835014,196.284009 173.848014,197.157009 C173.688014,198.674009 173.080014,200.108009 172.099014,201.276009 C171.119014,202.445009 169.812014,203.294009 168.346014,203.714009 C166.570014,204.140009 166.601014,203.440009 166.316014,201.938009 C165.839014,199.918009 165.068014,197.969009 164.581014,195.959009 Z" id="Path" fill="#2B2D30"></path>
                <path d="M158.907014,179.537009 C157.638014,175.152009 157.131014,170.574009 155.791014,166.200009 C154.649014,162.791009 153.262014,159.470009 151.640014,156.263009 L157.080014,158.557009 C158.826014,159.287009 160.714014,160.160009 161.536014,161.865009 C162.967014,164.829009 160.399014,168.636009 161.901014,171.569009 C162.554014,172.521009 163.273014,173.427009 164.053014,174.279009 C165.657014,176.522009 165.413014,179.618009 164.530014,182.237009 C164.155014,183.353009 162.500014,189.179009 161.028014,187.565009 C160.440014,186.916009 160.389014,184.520009 160.145014,183.617009 C159.760014,182.247009 159.293014,180.907009 158.907014,179.537009 Z" id="Path" fill="#2B2D30"></path>
                <path d="M161.841014,237.808009 C160.755014,230.642009 157.355014,205.379009 157.324014,205.125009 L158.339014,204.983009 C158.339014,205.236009 161.770014,230.500009 162.856014,237.656009 L161.841014,237.808009 Z" id="Path" fill="#2B2D30"></path>
                <path d="M163.191014,244.578009 L162.176014,244.578009 C162.237014,236.062009 165.789014,203.511009 167.839014,201.278009 L168.591014,201.958009 C167.027014,203.653009 163.262014,235.118009 163.191014,244.578009 Z" id="Path" fill="#2B2D30"></path>
                <path d="M165.038014,242.954009 L164.023014,242.903009 C164.835014,224.562009 160.978014,186.063009 160.896014,185.637009 L161.911014,185.535009 C161.952014,185.921009 165.850014,224.532009 165.038014,242.954009 Z" id="Path" fill="#2B2D30"></path>
                <path d="M152.554014,220.522009 L172.803014,220.522009 L171.392014,241.025009 C171.274014,242.735009 170.512014,244.337009 169.259014,245.507009 C168.006014,246.676009 166.356014,247.328009 164.642014,247.329009 L160.724014,247.329009 C159.010014,247.328009 157.361014,246.676009 156.108014,245.507009 C154.855014,244.337009 154.093014,242.735009 153.975014,241.025009 L152.554014,220.522009 Z" id="Path" fill="#FFFFFF"></path>
                <path d="M164.642014,247.856009 L160.724014,247.856009 C158.878014,247.851009 157.102014,247.148009 155.753014,245.889009 C154.403014,244.630009 153.579014,242.907009 153.446014,241.066009 L152.035014,220.563009 C152.031014,220.491009 152.041014,220.418009 152.065014,220.350009 C152.090014,220.282009 152.128014,220.220009 152.177014,220.167009 C152.226014,220.116009 152.284014,220.075009 152.348014,220.047009 C152.413014,220.019009 152.483014,220.004821 152.553014,220.004821 L172.802014,220.004821 C172.875014,220.003009 172.947014,220.017009 173.013014,220.045009 C173.080014,220.072009 173.140014,220.114009 173.190014,220.167009 C173.240014,220.219009 173.278014,220.282009 173.302014,220.350009 C173.326014,220.418009 173.336014,220.491009 173.330014,220.563009 L171.909014,241.066009 C171.778014,242.906009 170.957014,244.629009 169.609014,245.888009 C168.261014,247.148009 166.486014,247.851009 164.642014,247.856009 Z M153.121014,221.050009 L154.492014,240.995009 C154.607014,242.570009 155.313014,244.044009 156.469014,245.120009 C157.624014,246.197009 159.144014,246.797009 160.724014,246.801009 L164.642014,246.801009 C166.220014,246.797009 167.739014,246.197009 168.893014,245.120009 C170.047014,244.043009 170.751014,242.569009 170.864014,240.995009 L172.244014,221.050009 L153.121014,221.050009 Z" id="Shape" fill="#2B2D30"></path>
            </g>
        </g>
    </g>
</svg>