<svg width="64" height="12" viewBox="0 0 64 12" xmlns="http://www.w3.org/2000/svg">
    <g fill="none" fill-rule="evenodd">
        <g>
            <ellipse fill="#E2574C" cx="6.154" cy="6" rx="6.154" ry="6"/>
            <ellipse fill="#F4B459" cx="13.846" cy="6" rx="6.154" ry="6"/>
            <path d="M12.308 6c0 1.894-.901 3.583-2.308 4.683-1.407-1.1-2.308-2.789-2.308-4.684 0-1.894.901-3.584 2.308-4.683 1.407 1.1 2.308 2.789 2.308 4.683z" fill="#FF5F00"/>
        </g>
        <path d="m44.762.6-1.875 10.699H39.89l1.874-10.7h2.998zm-4.21.009-4.72 10.68-3.171.005-2.684-8.923c1.93 1.201 3.573 3.108 4.152 4.435l.313 1.102L37.377.611 40.552.61zM51.071.415c1.16 0 2.091.233 2.685.45l-.406 2.319-.27-.124a5.667 5.667 0 0 0-2.244-.41c-1.173 0-1.717.476-1.717.92-.006.502.635.832 1.684 1.328 1.732.762 2.531 1.69 2.518 2.905-.022 2.222-2.069 3.656-5.22 3.656-1.343-.013-2.637-.27-3.339-.57l.422-2.394.386.17c.985.4 1.622.56 2.822.56.861 0 1.783-.328 1.792-1.044.006-.469-.386-.802-1.554-1.327-1.137-.513-2.644-1.37-2.624-2.908.016-2.08 2.103-3.53 5.065-3.53zm10.376.196 2.425 10.694h-2.78l-.166-.733-.065-.288a66.571 66.571 0 0 0-.135-.582h-.64l-.619-.001h-.227l-.467-.001h-.234l-.67-.001h-.202l-.779-.002-.25.636-.108.276-.271.696H53.11l4.45-9.806c.316-.697.851-.888 1.57-.888h2.316zm-2.103 2.885c-.155.402-.415 1.05-.4 1.021l-.2.504-.112.28-.881 2.207h2.49l-.695-3.09z" fill="#2394BC"/>
        <path d="M32.99 1.377c-.173-.652-.678-.846-1.305-.87H27.04L27 .722c3.616.853 6.009 2.91 7.001 5.383l-1.01-4.727z" fill="#F4B459"/>
    </g>
</svg>
