<svg width="32" height="32" viewBox="0 0 32 32" xmlns="http://www.w3.org/2000/svg">
    <defs>
        <linearGradient x1="100%" y1="100%" x2="0%" y2="0%" id="jc393q918a">
            <stop stop-color="#FEC054" offset="0%"/>
            <stop stop-color="#F4233D" offset="30%"/>
            <stop stop-color="#A42EB0" offset="59.317%"/>
            <stop stop-color="#5441D9" offset="100%"/>
        </linearGradient>
    </defs>
    <path d="M16 0c8.836 0 16 7.164 16 16s-7.164 16-16 16S0 24.836 0 16 7.163 0 16 0zm5.398 7.2H10.601A3.405 3.405 0 0 0 7.2 10.6v10.8c0 1.875 1.526 3.4 3.4 3.4h10.8c1.875 0 3.4-1.526 3.4-3.4V10.6c0-1.874-1.526-3.4-3.402-3.4zm-9.859 6.841c-.226.558-.355 1.32-.355 1.96a4.818 4.818 0 0 0 4.813 4.813A4.817 4.817 0 0 0 20.808 16c0-.64-.128-1.402-.353-1.96h2.414v7.145h.002c0 .93-.755 1.686-1.687 1.686H10.783c-.93 0-1.688-.755-1.688-1.686V14.04h2.444zM16 13.056c2.441 0 2.944 2.29 2.944 2.945A2.949 2.949 0 0 1 16 18.944a2.948 2.948 0 0 1-2.944-2.943c-.001-.654.503-2.945 2.944-2.945zm6.855-3.89v2.922l-2.943.01-.01-2.921h.156l2.144-.008h.196l.071-.001.386-.001z" fill="url(#jc393q918a)" fill-rule="nonzero"/>
</svg>
