<svg width="32" height="32" viewBox="0 0 32 32" xmlns="http://www.w3.org/2000/svg">
    <path d="M16 0c8.837 0 16 7.163 16 16s-7.163 16-16 16S0 24.837 0 16 7.163 0 16 0zm-2.878 11.271c-.342.176-.606.569-.445.592.199.028.649.127.888.469.267.382.294 1.177.297 1.382v.05s.177 2.728-.414 3.066c-.405.233-.961-.242-2.155-2.411-.612-1.112-1.074-2.34-1.074-2.34s-.089-.23-.247-.353a1.21 1.21 0 0 0-.463-.196l-2.857.02s-.43.012-.587.209c-.14.174-.01.535-.01.535s2.236 5.505 4.77 8.28c1.965 2.152 4.156 2.363 4.784 2.377h.13l.046-.001h1.196s.36-.042.545-.251c.151-.17.163-.474.164-.54v-.065c.004-.286.055-1.66.722-1.883.733-.245 1.676 1.63 2.675 2.352.755.546 1.33.426 1.33.426l2.67-.04s1.397-.09.735-1.245c-.055-.095-.386-.855-1.986-2.417-1.675-1.635-1.45-1.37.567-4.198 1.228-1.722 1.72-2.774 1.566-3.224-.146-.43-1.05-.316-1.05-.316l-3.007.02s-.223-.032-.388.072c-.162.102-.266.34-.266.34s-.476 1.332-1.11 2.466c-1.34 2.391-1.875 2.517-2.094 2.369-.51-.346-.382-1.39-.382-2.132 0-2.318.334-3.284-.65-3.534-.328-.084-.568-.138-1.404-.147-1.073-.012-1.982.003-2.496.268z" fill="#4B76A8" fill-rule="nonzero"/>
</svg>
