<svg width="32" height="32" viewBox="0 0 32 32" xmlns="http://www.w3.org/2000/svg">
    <path d="M16 0c8.835 0 16 7.165 16 16s-7.165 16-16 16S0 24.835 0 16 7.165 0 16 0zm.248 9h-.496c-1.176.006-6.197.049-7.575.412-.84.23-1.532.922-1.763 1.779-.37 1.408-.408 4.177-.411 4.717v.185c.003.542.04 3.323.411 4.716.23.857.906 1.532 1.763 1.763 1.392.377 6.403.422 7.576.427l.237.001h.258c1.176-.006 6.197-.049 7.575-.412a2.505 2.505 0 0 0 1.763-1.762c.37-1.408.408-4.177.411-4.717v-.255c-.003-.677-.04-3.307-.411-4.663a2.506 2.506 0 0 0-1.763-1.763c-.596-.163-1.873-.264-3.226-.326l-.51-.022-.51-.018c-1.437-.048-2.789-.059-3.33-.061zm-2.24 4.002L19.211 16l-5.205 2.998v-5.996z" fill="#FF0300" fill-rule="nonzero"/>
</svg>
