<svg width="630" height="56" viewBox="0 0 630 56" xmlns="http://www.w3.org/2000/svg" xmlns:xlink="http://www.w3.org/1999/xlink">
    <defs>
        <path id="g6yk3fmwha" d="M0 0h630v56H0z"/>
        <path d="M213.705 431.855C85.168 315.072 6.442 216.095.482 148.81-6.508 69.896 63.498 31.998 146.752 11.91 264.769-16.57 475.067-.398 548.093 131.639c73.026 132.036 115.174 349.221 41.597 452.56-52.544 78.432-177.872 27.65-375.985-152.344z" id="31h07pnaxc"/>
        <path d="M66.687 483.505c-109.744-45.283-84.037-152.084 77.122-320.403C385.547-89.377 563.38 14.96 601.724 60.153c38.343 45.194 53.023 123.24-85.043 328.369-92.045 136.753-242.043 168.414-449.994 94.983z" id="tpcxkzsfyd"/>
        <path d="M353.489 684.637c-88.91 2.27-180.264-64.792-274.066-201.186-140.702-204.591-72.389-316.66 34.55-386.846 106.938-70.187 272.411-132.55 393.84-72.33 80.952 40.147 105.603 146.17 73.954 318.071-21.787 93.734-53.147 173.712-94.08 239.935-40.933 66.222-85.666 100.34-134.198 102.356z" id="8vh4ky5a0e"/>
    </defs>
    <g fill="none" fill-rule="evenodd">
        <mask id="m1j5pcvvib" fill="#fff">
            <use xlink:href="#g6yk3fmwha"/>
        </mask>
        <g mask="url(#m1j5pcvvib)">
            <path stroke="#FFF" stroke-width="4" d="M136.721-10.96c66.804-16.12 163.053-17.997 247.46 7.184 65.588 19.566 123.991 55.464 156.101 113.521 39.399 71.236 69.84 167.18 78.074 256.774 7.105 77.297-2.365 149.835-36.598 197.916-13.467 20.078-31.6 31.87-54.377 35.412-22.52 3.5-49.659-1.117-81.407-13.981-62.81-25.45-143.882-83.244-243.175-173.456C73.682 295.101-5.088 195.61-11.07 128.063c-3.229-36.451 9.66-64.316 32.612-85.8C48.937 16.624 90.812.119 136.721-10.96z"/>
            <path stroke="#FFF" stroke-width="4" d="M411.912 21.56c46.202-10.386 86.479-8.091 119.614.173 48.478 12.09 81.685 36.975 95.917 53.75 21.842 25.744 36.267 61.967 19.751 125.736-12.731 49.16-43.963 114.862-104.66 205.043-46.337 68.843-107.273 111.213-182.778 127.15-75.295 15.893-165.143 5.466-269.541-31.398-28.042-11.568-47.304-27.065-57.996-46.415-10.722-19.404-12.875-42.73-6.31-70.002 12.906-53.619 59.722-122.732 140.649-207.255C259.056 81.734 342.26 37.22 411.912 21.56z"/>
            <path stroke="#FFF" stroke-width="4" d="M104.048 48.24c107.514-70.564 273.83-132.951 395.826-72.45 40.977 20.323 67.777 57.272 80.262 110.967 12.374 53.218 10.658 122.969-5.23 209.259-21.86 94.06-53.31 174.235-94.345 240.623-41.423 67.015-86.774 101.267-135.817 103.304-89.404 2.283-181.41-64.807-275.796-202.051-63.102-91.756-84.288-165.02-78.996-224.27C-3.452 139.763 44.25 87.487 104.048 48.24z"/>
        </g>
    </g>
</svg>
