<svg width="33" height="46" viewBox="0 0 33 46" fill="none" xmlns="http://www.w3.org/2000/svg">
<g id="Group">
<path id="Vector" d="M22.8033 30.8835H31.3035C31.7215 30.8835 32.0002 30.6048 32.0002 30.1868V1.69027C32.0002 1.27222 31.7215 0.99353 31.3035 0.99353H11.4465C11.0285 0.99353 10.7498 1.27222 10.7498 1.69027V13.3258L5.45457 18.7603C3.57338 20.7112 2.52827 23.2891 2.52827 25.9367V40.0804C1.62252 40.2894 0.925781 41.1255 0.925781 42.1009V43.4944C0.925781 44.6789 1.90121 45.5846 3.01599 45.5846H18.4835C19.668 45.5846 20.5737 44.6092 20.5737 43.4944V42.1706C20.5737 41.0558 19.668 40.1501 18.6229 40.0804C18.7622 37.5025 19.668 34.9942 21.2705 32.904L22.8033 30.8835ZM12.1432 2.387H30.6764V29.49C28.7255 29.49 16.881 29.49 15.3482 29.49C15.8359 28.5843 16.1146 27.5392 16.1843 26.4941H27.6804C28.0985 26.4941 28.3772 26.2154 28.3772 25.7973C28.3772 25.3793 28.0985 25.1006 27.6804 25.1006H16.254C16.6023 23.2194 17.7171 22.3833 18.2048 21.7563C33.0453 21.7563 25.6599 21.7563 27.8198 21.7563C28.2378 21.7563 28.5165 21.4776 28.5165 21.0595C28.5165 20.6415 28.2378 20.3628 27.8198 20.3628H19.3196C21.6188 17.5758 21.7582 17.5062 22.0369 17.0185H27.9591C28.3772 17.0185 28.6559 16.7398 28.6559 16.3217C28.6559 15.9037 28.3772 15.625 27.9591 15.625H22.4549C22.5246 14.6496 22.1762 13.7438 21.4795 12.9774C21.1311 12.629 20.7828 12.42 20.3647 12.211H27.6108C28.0288 12.211 28.3075 11.9323 28.3075 11.5142C28.3075 11.0962 28.0288 10.8175 27.6108 10.8175H15.1392C14.7212 10.8175 14.4425 11.0962 14.4425 11.5142C14.4425 11.9323 14.7212 12.211 15.1392 12.211H17.6474C17.2294 12.3503 16.881 12.629 16.6023 12.9077L12.1432 17.3668C12.1432 12.4897 12.1432 7.12481 12.1432 2.387ZM19.1803 42.1706V43.4944C19.1803 43.9125 18.8319 44.1911 18.4835 44.1911H3.01599C2.59795 44.1911 2.31925 43.8428 2.31925 43.4944V42.1706C2.31925 41.7526 2.66762 41.4739 3.01599 41.4739C3.08566 41.4739 19.5286 41.4739 18.4835 41.4739C18.8319 41.4739 19.1803 41.8222 19.1803 42.1706ZM20.1557 32.0679C18.3442 34.3672 17.3687 37.1541 17.1597 40.0804H3.92175V25.9367C3.92175 23.6374 4.8275 21.4079 6.43 19.7357L10.7498 15.3463V18.7603L7.54477 21.9653C7.26608 22.244 7.26608 22.662 7.54477 22.9407C7.82347 23.2194 8.24151 23.2194 8.5202 22.9407L17.5778 13.8831C18.3442 13.1167 19.668 13.1167 20.4344 13.8831C23.291 16.8094 14.7212 20.3628 14.7212 26.0063C14.7212 27.5392 14.1638 28.9326 13.1187 30.0474L10.262 33.0434C9.98335 33.3221 9.98335 33.7401 10.262 34.0188C10.5407 34.2975 10.9588 34.2975 11.2375 34.0188L14.0941 31.0228C14.1638 30.9532 14.2334 30.8835 14.2334 30.8138H20.9918L20.1557 32.0679Z" fill="#303337" stroke="#303337" stroke-width="0.25"/>
<path id="Vector_2" d="M19.1794 43.4944V42.1706C19.1794 41.8222 18.831 41.4739 18.4826 41.4739H3.0151C2.66673 41.4739 2.31836 41.7526 2.31836 42.1706V43.4944C2.31836 43.8428 2.59705 44.1911 3.0151 44.1911H18.4826C18.831 44.1911 19.1794 43.9125 19.1794 43.4944Z" fill="#FEC311"/>
<path id="Vector_3" d="M15.1381 7.40348H27.6097C28.0278 7.40348 28.3064 7.12479 28.3064 6.70675C28.3064 6.2887 28.0278 6.01001 27.6097 6.01001H15.1381C14.7201 6.01001 14.4414 6.2887 14.4414 6.70675C14.4414 7.12479 14.7898 7.40348 15.1381 7.40348Z" fill="#303337"/>
</g>
</svg>
