<svg width="26" height="26" viewBox="0 0 26 26" fill="none" xmlns="http://www.w3.org/2000/svg">
<path d="M22.9498 6.29815C21.4671 4.0955 19.2957 2.44691 16.7756 1.61063C14.2556 0.774358 11.5293 0.797647 9.02388 1.67685C6.62565 2.51875 4.55675 4.10051 3.11546 6.19407C1.67418 8.28763 0.934997 10.7848 1.00449 13.3256C1.07398 15.8663 1.94855 18.3194 3.50211 20.331C5.05567 22.3427 7.20794 23.809 9.6486 24.5186C11.356 25.0152 13.1523 25.126 14.9078 24.8432C16.6633 24.5604 18.3339 23.8909 19.7989 22.8833C21.2639 21.8756 22.4866 20.5549 23.3786 19.0167C24.2705 17.4785 24.8095 15.7613 24.9564 13.9893C24.9854 13.6749 24.9978 13.348 24.9978 12.9963C25.0001 10.6091 24.2867 8.27595 22.9498 6.29815ZM24.1414 13.7121L23.6656 13.9934L20.4013 11.0684L21.8245 6.93115H22.3706C23.5438 8.73636 24.1676 10.8434 24.1662 12.9963C24.1662 13.2487 24.1662 13.4804 24.1414 13.7121ZM12.9956 1.82579C14.1856 1.82453 15.3678 2.01738 16.4957 2.39673L16.6488 2.91803L12.9956 5.34659L9.34245 2.91803L9.49553 2.39673C10.6234 2.01709 11.8056 1.82424 12.9956 1.82579ZM4.14607 6.19886L4.68805 6.22368L5.77201 10.4726L2.27604 13.1246L1.82508 12.806C1.85898 10.4097 2.67389 8.08992 4.14607 6.19886ZM3.98886 19.587L4.16676 19.074L8.5481 19.227L10.0996 23.3395L9.68584 23.6787C7.39679 22.9618 5.39928 21.5272 3.98886 19.587ZM10.6871 23.9228L10.8691 23.7821C10.9387 23.7271 10.9887 23.6511 11.0118 23.5654C11.0349 23.4797 11.0298 23.3889 10.9973 23.3064L9.22247 18.6726C9.19354 18.5974 9.14329 18.5323 9.07788 18.4853C9.01247 18.4383 8.93475 18.4113 8.85425 18.4079L3.88956 18.2341C3.79986 18.2291 3.71097 18.2535 3.63633 18.3035C3.56168 18.3535 3.50535 18.4264 3.47584 18.5113L3.39723 18.7264C2.50824 17.2349 1.98113 15.5558 1.85818 13.8238L2.04436 13.9562C2.1142 14.0068 2.19809 14.0342 2.28432 14.0348C2.37383 14.0348 2.46094 14.0058 2.53255 13.9521L6.48775 10.9525C6.55345 10.9035 6.60308 10.836 6.63033 10.7586C6.65759 10.6813 6.66124 10.5976 6.64083 10.5181L5.39966 5.70653C5.37767 5.62094 5.32886 5.54464 5.26036 5.4888C5.19187 5.43296 5.1073 5.40052 5.01903 5.39623H4.79148C5.83609 4.26759 7.10415 3.36868 8.515 2.75667L8.44467 2.98008C8.4204 3.06472 8.42376 3.15489 8.45427 3.23748C8.48477 3.32008 8.54083 3.39078 8.61429 3.43932L12.7515 6.18645C12.8191 6.23093 12.8982 6.25464 12.9791 6.25464C13.06 6.25464 13.1391 6.23093 13.2066 6.18645L17.3439 3.43932C17.4233 3.39558 17.4862 3.32694 17.5228 3.24396C17.5595 3.16098 17.5678 3.06827 17.5466 2.98008L17.4845 2.76495C19.1681 3.4994 20.6456 4.63593 21.7873 6.07474H21.5597C21.4695 6.07003 21.3802 6.09498 21.3055 6.14578C21.2308 6.19658 21.1748 6.27044 21.146 6.35607L19.5283 11.0601C19.5028 11.1366 19.5002 11.2188 19.5208 11.2967C19.5414 11.3746 19.5843 11.4448 19.6442 11.4987L23.3387 14.8085C23.4146 14.8774 23.5134 14.9158 23.6159 14.916C23.6902 14.916 23.7631 14.896 23.8269 14.8581L24.0255 14.7423C23.8252 15.9858 23.4183 17.187 22.8216 18.2962L22.7388 18.0893C22.7065 18.0075 22.649 17.9382 22.5746 17.8913C22.5002 17.8444 22.4128 17.8225 22.3251 17.8286L17.3604 18.2134C17.2794 18.2198 17.2021 18.2499 17.1381 18.2999C17.0741 18.3499 17.0262 18.4177 17.0005 18.4947L15.4407 23.2112C15.4129 23.2952 15.4127 23.386 15.4403 23.4702C15.4678 23.5543 15.5216 23.6274 15.5938 23.6787L15.78 23.8152C14.1129 24.2398 12.3706 24.2766 10.6871 23.9228ZM16.7647 23.5091L16.3054 23.1864L17.6914 19.0243L22.0976 18.6809L22.2796 19.2022C20.953 21.1924 19.0185 22.7003 16.7647 23.5008V23.5091Z" fill="#303337" stroke="#303337" stroke-width="0.5"/>
<path d="M16.1523 16.422L17.5465 11.7179C17.5708 11.6333 17.5674 11.5431 17.5369 11.4605C17.5064 11.3779 17.4504 11.3072 17.3769 11.2587L13.2397 8.51571C13.1721 8.47122 13.093 8.44751 13.0121 8.44751C12.9312 8.44751 12.8521 8.47122 12.7846 8.51571L8.64731 11.2587C8.56785 11.3024 8.50497 11.3711 8.46834 11.4541C8.43171 11.537 8.42337 11.6297 8.44459 11.7179L9.82229 16.422C9.84809 16.5107 9.90284 16.5882 9.97782 16.6422C10.0528 16.6962 10.1437 16.7235 10.236 16.7199H15.7551C15.8446 16.7199 15.9317 16.6908 16.0033 16.6371C16.0749 16.5834 16.1272 16.5079 16.1523 16.422ZM10.5463 15.8924L9.34237 11.78L12.9956 9.35557L16.6487 11.78L15.4448 15.8924H10.5463Z" fill="#303337" stroke="#303337" stroke-width="0.5"/>
</svg>
