<svg width="34" height="34" viewBox="0 0 34 34" fill="none" xmlns="http://www.w3.org/2000/svg">
<path d="M25.5 14.5C25.5 9.813 21.687 6 17 6C12.313 6 8.5 9.813 8.5 14.5C8.5 19.187 12.313 23 17 23C21.687 23 25.5 19.187 25.5 14.5ZM17 22C12.8645 22 9.5 18.6355 9.5 14.5C9.5 10.3645 12.8645 7 17 7C21.1355 7 24.5 10.3645 24.5 14.5C24.5 18.6355 21.136 22 17 22Z" fill="#303337" stroke="#303337" stroke-width="0.25"/>
<path d="M17 9C13.9675 9 11.5 11.4675 11.5 14.5C11.5 17.5325 13.9675 20 17 20C20.0325 20 22.5 17.5325 22.5 14.5C22.5 11.4675 20.033 9 17 9ZM17 19C14.519 19 12.5 16.9815 12.5 14.5C12.5 12.0185 14.519 10 17 10C19.4815 10 21.5 12.0185 21.5 14.5C21.5 16.9815 19.4815 19 17 19Z" fill="#303337" stroke="#303337" stroke-width="0.25"/>
<path d="M32.8535 26.1465L27.744 21.037C27.7505 20.993 27.7565 20.949 27.7625 20.905C27.8485 20.269 27.9295 19.667 28.156 19.1215C28.382 18.5755 28.75 18.0935 29.1385 17.583C29.808 16.7045 30.5 15.7965 30.5 14.5C30.5 13.2045 29.8085 12.297 29.1395 11.419C28.7505 10.9085 28.3825 10.426 28.1565 9.8795C27.9305 9.3335 27.8495 8.733 27.7635 8.097C27.6155 7.0025 27.4625 5.871 26.546 4.9545C25.6295 4.038 24.4985 3.885 23.4045 3.737C22.768 3.651 22.1675 3.57 21.622 3.344C21.076 3.118 20.5935 2.75 20.083 2.361C19.204 1.692 18.296 1 17 1C15.704 1 14.796 1.692 13.9175 2.3615C13.407 2.75 12.9245 3.118 12.3785 3.344C11.8325 3.5705 11.2315 3.6515 10.595 3.7375C9.50101 3.8855 8.37001 4.0385 7.45401 4.9545C6.53801 5.871 6.38501 7.0025 6.23701 8.0965C6.15101 8.7325 6.07001 9.3335 5.84351 9.879C5.61751 10.425 5.25001 10.9075 4.86101 11.418C4.19201 12.296 3.50001 13.204 3.50001 14.5C3.50001 15.7965 4.19201 16.704 4.86151 17.5825C5.25051 18.093 5.61801 18.575 5.84401 19.121C6.07051 19.667 6.15151 20.268 6.23751 20.9045C6.24351 20.9485 6.25001 20.993 6.25601 21.037L1.14651 26.1465C1.01601 26.277 0.968011 26.4685 1.02151 26.645C1.07501 26.8215 1.22101 26.954 1.40201 26.99L6.07551 27.9245L7.01001 32.598C7.04601 32.7785 7.17901 32.925 7.35551 32.9785C7.40301 32.993 7.45151 33 7.50001 33C7.63051 33 7.75851 32.9485 7.85351 32.8535L14.003 26.704C14.8555 27.352 15.746 28 17 28C18.254 28 19.1445 27.3515 19.9965 26.7035L26.1465 32.8535C26.242 32.9485 26.369 33 26.5 33C26.5485 33 26.597 32.993 26.645 32.9785C26.8215 32.9255 26.954 32.779 26.99 32.598L27.9245 27.9245L32.598 26.99C32.7785 26.954 32.925 26.821 32.9785 26.645C33.032 26.4685 32.984 26.277 32.8535 26.1465ZM7.80701 31.486L6.99001 27.402C6.95051 27.204 6.79551 27.0495 6.59801 27.01L2.51401 26.193L6.47251 22.2345C6.63701 22.879 6.90901 23.501 7.45401 24.046C8.37051 24.962 9.50201 25.115 10.596 25.263C11.232 25.349 11.833 25.4305 12.3785 25.6565C12.661 25.7735 12.9265 25.9295 13.1875 26.1055L7.80701 31.486ZM17 27C16.041 27 15.3035 26.438 14.523 25.8435C13.984 25.433 13.4275 25.0085 12.7615 24.7325C12.096 24.4565 11.4015 24.363 10.73 24.272C9.75751 24.14 8.83901 24.016 8.16101 23.339C7.48401 22.662 7.35951 21.7435 7.22801 20.7705C7.13701 20.099 7.04301 19.4045 6.76751 18.7385C6.49201 18.073 6.06751 17.516 5.65651 16.9765C5.06201 16.196 4.50051 15.4585 4.50001 14.5C4.50001 13.542 5.06151 12.8045 5.65651 12.024C6.06701 11.485 6.49151 10.928 6.76751 10.262C7.04351 9.596 7.13751 8.9015 7.22801 8.2305C7.35951 7.258 7.48401 6.3395 8.16101 5.6615C8.83851 4.9845 9.75651 4.86 10.729 4.729C11.4005 4.638 12.0955 4.544 12.761 4.268C13.427 3.9925 13.9845 3.568 14.5235 3.157C15.3045 2.562 16.0415 2 17 2C17.9585 2 18.696 2.5615 19.476 3.156C20.0155 3.567 20.5725 3.992 21.2385 4.2675C21.9045 4.5435 22.599 4.637 23.2705 4.728C24.2425 4.8595 25.161 4.9835 25.839 5.661C26.517 6.339 26.641 7.2575 26.7725 8.2305C26.8635 8.9025 26.957 9.596 27.233 10.2615C27.5085 10.928 27.933 11.4855 28.3445 12.0245C28.9385 12.805 29.5 13.542 29.5 14.5C29.5 15.459 28.938 16.1965 28.343 16.977C27.9325 17.516 27.508 18.073 27.232 18.7385C26.956 19.4045 26.862 20.0995 26.771 20.771C26.6395 21.743 26.5155 22.661 25.8385 23.3385C25.161 24.016 24.242 24.1405 23.2695 24.272C22.598 24.363 21.904 24.4565 21.238 24.7325C20.5725 25.0085 20.015 25.4325 19.4755 25.8435C18.696 26.4385 17.9585 27 17 27ZM27.402 27.01C27.204 27.0495 27.0495 27.2045 27.01 27.402L26.193 31.486L20.8125 26.1055C21.073 25.929 21.339 25.7735 21.621 25.657C22.167 25.431 22.7675 25.35 23.4035 25.2635C24.498 25.1155 25.629 24.9625 26.5455 24.046C27.091 23.5005 27.363 22.879 27.527 22.2345L31.4855 26.193L27.402 27.01Z" fill="#303337" stroke="#303337" stroke-width="0.25"/>
</svg>
