<svg width="32" height="34" viewBox="0 0 32 34" fill="none" xmlns="http://www.w3.org/2000/svg">
<path d="M23.9999 29.804V28.7373C23.9993 28.1717 23.7744 27.6294 23.3744 27.2295C22.9745 26.8295 22.4322 26.6046 21.8666 26.604H21.5381C20.2606 25.3132 19.4608 23.6257 19.2706 21.8195C21.6902 21.0401 23.7519 19.4221 25.0842 17.2571C26.4166 15.0922 26.9319 12.5226 26.5374 10.0113C26.1429 7.5 24.8645 5.21218 22.9325 3.56003C21.0005 1.90787 18.542 1 15.9999 1C13.4579 1 10.9994 1.90787 9.0674 3.56003C7.13543 5.21218 5.85702 7.5 5.46251 10.0113C5.068 12.5226 5.58333 15.0922 6.91564 17.2571C8.24795 19.4221 10.3097 21.0401 12.7293 21.8195C12.5391 23.6256 11.7394 25.3131 10.462 26.604H10.1333C9.56766 26.6046 9.02538 26.8295 8.62544 27.2295C8.22549 27.6294 8.00054 28.1717 7.99994 28.7373V29.804C7.57574 29.8045 7.16904 29.9732 6.86909 30.2731C6.56913 30.5731 6.40041 30.9798 6.39994 31.404V32.4707C6.39994 32.6121 6.45613 32.7478 6.55615 32.8478C6.65617 32.9478 6.79183 33.004 6.93328 33.004H25.0666C25.2081 33.004 25.3437 32.9478 25.4437 32.8478C25.5438 32.7478 25.5999 32.6121 25.5999 32.4707V31.404C25.5995 30.9798 25.4308 30.5731 25.1308 30.2731C24.8308 29.9732 24.4241 29.8045 23.9999 29.804ZM13.6867 20.9773L12.513 17.3649L13.855 15.404H18.1449L19.4869 17.3646L18.3132 20.9773C16.7959 21.3688 15.204 21.3688 13.6867 20.9773ZM6.43413 12.3461L9.4993 10.1192L11.5292 10.779L12.9795 14.795L11.6436 16.747H7.86661C7.03445 15.4202 6.54242 13.9086 6.43413 12.3461ZM6.43242 11.0292C6.5364 9.44432 7.03508 7.91062 7.88309 6.56768L8.77861 9.32432L6.43242 11.0292ZM15.9999 8.06336L19.42 10.5483L18.0515 14.3373H13.9484L12.5799 10.5483L15.9999 8.06336ZM20.4707 10.779L22.5006 10.1192L25.5658 12.3461C25.4574 13.9084 24.9654 15.42 24.1333 16.7467H20.3563L19.0204 14.7947L20.4707 10.779ZM23.2211 9.32432L24.1167 6.56768C24.9647 7.91062 25.4634 9.44432 25.5674 11.0292L23.2211 9.32432ZM19.5648 20.5768L20.4627 17.8134H23.3688C22.3484 19.0344 21.0415 19.9838 19.5648 20.5768ZM23.3424 5.49888L22.1706 9.10464L20.1511 9.76134L16.5333 7.13243V5.00891L19.6031 2.77862C21.0518 3.36855 22.3352 4.30217 23.3424 5.49888ZM18.347 2.37296L15.9999 4.07798L13.6528 2.37296C15.1916 1.96991 16.8083 1.96991 18.347 2.37296ZM12.3968 2.77862L15.4666 5.00891V7.13243L11.8488 9.76134L9.82928 9.10464L8.6576 5.49888C9.66484 4.30219 10.9482 3.36858 12.3968 2.77862ZM8.63104 17.8133H11.5372L12.4351 20.5767C10.9584 19.9837 9.65153 19.0343 8.63104 17.8133ZM13.7717 22.0992C15.2402 22.4166 16.7597 22.4166 18.2282 22.0992C18.4342 23.7421 19.0808 25.2987 20.0995 26.604H11.9004C12.9191 25.2987 13.5657 23.742 13.7717 22.0992ZM9.06661 28.7373C9.06693 28.4545 9.17942 28.1834 9.37939 27.9834C9.57936 27.7835 9.85048 27.671 10.1333 27.6707H21.8666C22.1494 27.671 22.4205 27.7835 22.6205 27.9834C22.8205 28.1834 22.933 28.4545 22.9333 28.7373V29.804H9.06661V28.7373ZM24.5333 31.9373H7.46661V31.404C7.46674 31.2626 7.52297 31.127 7.62296 31.027C7.72295 30.927 7.85853 30.8708 7.99994 30.8707H23.9999C24.1414 30.8708 24.2769 30.927 24.3769 31.027C24.4769 31.127 24.5331 31.2626 24.5333 31.404V31.9373Z" fill="#303337" stroke="#303337" stroke-width="0.25"/>
</svg>
