<svg width="24" height="26" viewBox="0 0 24 26" fill="none" xmlns="http://www.w3.org/2000/svg">
<path d="M19.057 9.24932H18.4693C18.2084 9.24932 17.9968 9.03439 17.9968 8.76932V3.73635C17.9968 3.47127 18.2084 3.25635 18.4693 3.25635H21.1273C21.3882 3.25635 21.5998 3.47127 21.5998 3.73635V6.66627C21.5998 8.09057 20.4591 9.24932 19.057 9.24932ZM18.9419 8.28932H19.057C19.9379 8.28932 20.6547 7.56111 20.6547 6.66627V4.21635H18.9419V8.28932Z" fill="#303337" stroke="#303337" stroke-width="0.5"/>
<path d="M5.53034 9.24932H4.94269C3.54059 9.24932 2.3999 8.09057 2.3999 6.66627V3.73635C2.3999 3.47127 2.61147 3.25635 2.87242 3.25635H5.53034C5.79129 3.25635 6.00286 3.47127 6.00286 3.73635V8.76932C6.00286 9.03439 5.79129 9.24932 5.53034 9.24932ZM3.34494 4.21635V6.66627C3.34494 7.56111 4.06179 8.28932 4.94269 8.28932H5.05782V4.21635H3.34494Z" fill="#303337" stroke="#303337" stroke-width="0.5"/>
<path d="M12.0001 16.84C11.9341 16.84 11.8683 16.8259 11.8067 16.798C11.5312 16.6724 5.05786 13.6795 5.05786 9.78813V1.48C5.05786 1.21492 5.26943 1 5.53038 1H18.4695C18.7305 1 18.942 1.21492 18.942 1.48V9.78813C18.942 13.6795 12.4689 16.6724 12.1934 16.798C12.1318 16.8259 12.066 16.84 12.0001 16.84ZM6.0029 1.96V9.78813C6.0029 12.7284 10.9512 15.3145 12.0001 15.8294C13.0489 15.3145 17.997 12.7284 17.997 9.78813V1.96H6.0029Z" fill="#303337" stroke="#303337" stroke-width="0.5"/>
<path d="M13.1223 19.66H10.8778C10.6168 19.66 10.4053 19.4451 10.4053 19.18V15.7809C10.4053 15.6112 10.4934 15.4544 10.6369 15.3679C10.7807 15.2816 10.9583 15.2784 11.1048 15.3599C11.4936 15.5762 11.8101 15.7366 12 15.8294C12.1897 15.7366 12.5065 15.5762 12.8952 15.3599C13.0417 15.2784 13.2192 15.2816 13.3631 15.3679C13.5066 15.4544 13.5948 15.6114 13.5948 15.7809V19.18C13.5948 19.4451 13.3832 19.66 13.1223 19.66ZM11.3503 18.7H12.6497V16.5747C12.3733 16.7155 12.2054 16.7924 12.1938 16.7978C12.0706 16.8541 11.9294 16.8541 11.8062 16.7978C11.7947 16.7924 11.6267 16.7155 11.3503 16.5749V18.7Z" fill="#303337" stroke="#303337" stroke-width="0.5"/>
<path d="M14.2543 21.73H9.74571C9.48477 21.73 9.27319 21.5151 9.27319 21.25V19.6469C9.27319 19.1247 9.69149 18.7 10.2055 18.7H13.7947C14.3087 18.7 14.7268 19.1247 14.7268 19.6469V21.25C14.7268 21.5151 14.5152 21.73 14.2543 21.73ZM10.2143 20.77H13.7817V19.6469L10.2055 19.66L10.2143 20.77Z" fill="#303337" stroke="#303337" stroke-width="0.5"/>
<path d="M16.1347 25H7.86559C7.60464 25 7.39307 24.7851 7.39307 24.52V21.7169C7.39307 21.1947 7.81113 20.77 8.32518 20.77H15.6748C16.1889 20.77 16.6072 21.1947 16.6072 21.7169V24.52C16.6072 24.7851 16.3956 25 16.1347 25ZM8.3358 24.04H15.6621V21.73H8.32518L8.3358 24.04Z" fill="#303337"/>
<path d="M15.6748 21.73H15.6795M16.1347 25H7.86559C7.60464 25 7.39307 24.7851 7.39307 24.52V21.7169C7.39307 21.1947 7.81113 20.77 8.32518 20.77H15.6748C16.1889 20.77 16.6072 21.1947 16.6072 21.7169V24.52C16.6072 24.7851 16.3956 25 16.1347 25ZM8.3358 24.04H15.6621V21.73H8.32518L8.3358 24.04Z" stroke="#303337" stroke-width="0.5"/>
</svg>
