<svg width="26" height="26" viewBox="0 0 26 26" fill="none" xmlns="http://www.w3.org/2000/svg">
<path d="M18.5577 14.6421C18.2089 14.6421 17.9263 14.9248 17.9263 15.2736C17.9263 17.2933 15.7164 18.9368 12.9999 18.9368C10.2833 18.9368 8.07348 17.2933 8.07348 15.2736C8.07348 14.9248 7.79081 14.6421 7.44201 14.6421C7.09321 14.6421 6.81055 14.9248 6.81055 15.2736C6.81028 17.9901 9.58708 20.2 12.9999 20.2C16.4127 20.2 19.1895 17.9901 19.1895 15.2736C19.1895 14.9248 18.9065 14.6421 18.5577 14.6421Z" fill="#303337" stroke="#303337" stroke-width="0.25"/>
<path d="M7.27287 10.8048C7.62167 10.8048 7.90434 10.5221 7.90434 10.1733C7.90434 9.72903 8.26567 9.36769 8.70994 9.36769C9.1542 9.36769 9.51554 9.72903 9.51554 10.1733C9.51554 10.5221 9.7982 10.8048 10.147 10.8048C10.4958 10.8048 10.7785 10.5221 10.7785 10.1733C10.7785 9.03249 9.85047 8.10449 8.70967 8.10449C7.56887 8.10449 6.64087 9.03249 6.64087 10.1733C6.6414 10.5221 6.92407 10.8048 7.27287 10.8048Z" fill="#303337" stroke="#303337" stroke-width="0.25"/>
<path d="M15.8525 10.8048C16.2013 10.8048 16.4839 10.5221 16.4839 10.1733C16.4839 9.72903 16.8453 9.36769 17.2895 9.36769C17.7338 9.36769 18.0951 9.72903 18.0951 10.1733C18.0951 10.5221 18.3778 10.8048 18.7266 10.8048C19.0754 10.8048 19.3581 10.5221 19.3581 10.1733C19.3581 9.03249 18.4301 8.10449 17.2893 8.10449C16.1485 8.10449 15.2205 9.03249 15.2205 10.1733C15.2207 10.5221 15.5037 10.8048 15.8525 10.8048Z" fill="#303337" stroke="#303337" stroke-width="0.25"/>
<path d="M13 25C19.6168 25 25 19.6168 25 13C25 6.3832 19.6168 1 13 1C6.3832 1 1 6.3832 1 13C1 19.6168 6.3832 25 13 25ZM13 2.2632C18.9203 2.2632 23.7368 7.07973 23.7368 13C23.7368 18.9203 18.9203 23.7368 13 23.7368C7.07973 23.7368 2.2632 18.9203 2.2632 13C2.2632 7.07973 7.07973 2.2632 13 2.2632Z" fill="#303337" stroke="#303337" stroke-width="0.25"/>
</svg>
