<svg width="24" height="26" viewBox="0 0 24 26" fill="none" xmlns="http://www.w3.org/2000/svg">
<path d="M3.53146 24.878C3.55135 24.88 3.5702 24.882 3.59009 24.882H9.66958C9.69157 24.882 9.7125 24.88 9.73449 24.877C10.6945 24.807 11.4504 24.355 11.8744 23.637C12.6345 24.443 13.4636 24.881 14.2719 24.881C14.8812 24.881 15.211 24.787 15.503 24.704C15.7585 24.632 15.9783 24.569 16.4097 24.569C16.841 24.569 17.0619 24.632 17.3174 24.704C17.6084 24.787 17.9403 24.881 18.5485 24.881C19.5976 24.881 20.6822 24.151 21.6035 22.823C22.9561 20.876 23.8753 17.631 22.9132 15.455C22.1929 13.823 20.4655 12.97 19.1327 12.97C18.3266 12.97 17.8523 13.145 17.4346 13.3C17.2148 13.381 17.0253 13.451 16.8044 13.49C16.6819 12.409 16.0977 11.45 15.2193 10.922C15.0256 10.803 14.765 10.859 14.6414 11.047C14.5189 11.234 14.5765 11.481 14.7733 11.599C15.4099 11.983 15.8422 12.68 15.9595 13.48C15.7627 13.439 15.5868 13.375 15.3858 13.3C14.967 13.145 14.4917 12.97 13.6866 12.97C13.2375 12.97 12.7444 13.075 12.2597 13.266V11.919C12.2597 11.911 12.2555 11.904 12.2544 11.896L12.2555 10.783C12.2565 10.035 12.0723 9.353 11.6943 8.697C11.4986 8.36 11.3101 8.02 11.1196 7.68C10.816 7.138 10.5134 6.595 10.1909 6.062C9.91561 5.608 9.80254 5.175 9.81406 4.702C10.5542 4.416 11.0515 3.69 11.0515 2.894C11.0515 1.806 10.4276 1.119 9.38168 1.022C9.33666 1.008 9.28955 1 9.24348 1L3.91882 1.009C2.83212 1.119 2.2092 1.806 2.2092 2.894C2.2092 3.69 2.70649 4.416 3.42468 4.702C3.45713 5.174 3.34406 5.607 3.06872 6.062C2.74627 6.595 2.44371 7.138 2.1401 7.681C1.94956 8.021 1.76111 8.361 1.56639 8.698C1.1874 9.352 1.00314 10.035 1.00419 10.784C1.00523 11.156 1.00419 11.528 1.00419 11.9C1.00419 11.907 1 11.912 1 11.919V18.659C1 18.664 1.00314 18.669 1.00314 18.674L1 22.072C1 24.493 2.91482 24.831 3.53146 24.878ZM11.4148 13.708C10.7898 14.122 10.2381 14.702 9.90409 15.456C9.54081 16.28 9.44763 17.258 9.54395 18.26H1.84173V17.792C1.84382 15.968 1.84382 14.144 1.84277 12.32H11.4158L11.4148 13.708ZM9.66958 24.079C9.6633 24.08 9.65597 24.081 9.64759 24.081H3.60998C3.60161 24.08 3.59428 24.08 3.588 24.079C2.93367 24.031 1.83754 23.707 1.83754 22.073L1.83963 19.059H9.66539C9.93026 20.444 10.5092 21.811 11.2148 22.826C11.2379 22.86 11.263 22.888 11.286 22.921C10.9751 23.836 10.1522 24.044 9.66958 24.079ZM15.0822 14.047C15.4517 14.183 15.8328 14.324 16.4086 14.324C16.9844 14.324 17.3666 14.183 17.7361 14.047C18.1193 13.905 18.4826 13.771 19.1317 13.771C20.1891 13.771 21.5626 14.457 22.1416 15.768C22.9582 17.618 22.1552 20.584 20.9052 22.383C20.1545 23.463 19.2961 24.082 18.5475 24.082C18.0607 24.082 17.8262 24.016 17.555 23.939C17.2765 23.86 16.9625 23.77 16.4086 23.77C15.8548 23.77 15.5407 23.86 15.2633 23.939C14.9911 24.015 14.7576 24.082 14.2708 24.082C13.5223 24.082 12.6638 23.464 11.9142 22.385C10.6642 20.586 9.85907 17.619 10.6746 15.768C10.9636 15.114 11.4514 14.616 11.9979 14.28C12.0053 14.277 12.0105 14.272 12.0178 14.269C12.5612 13.94 13.1621 13.771 13.6856 13.771C14.3357 13.77 14.698 13.905 15.0822 14.047ZM4.00677 1.805C4.01514 1.804 4.02875 1.803 4.04236 1.8H9.21522C9.22987 1.802 9.24243 1.804 9.25081 1.805C9.6633 1.847 10.2108 2.005 10.2108 2.894C10.2108 3.34 9.9512 3.739 9.56594 3.921H3.69269C3.30637 3.739 3.04674 3.341 3.04674 2.894C3.04674 2.005 3.59533 1.847 4.00677 1.805ZM2.29923 9.083C2.49605 8.743 2.6866 8.4 2.87923 8.057C3.1776 7.522 3.47598 6.987 3.79424 6.462C4.13659 5.894 4.28525 5.323 4.26012 4.721H8.99955C8.97338 5.325 9.12204 5.896 9.46438 6.463C9.78265 6.988 10.081 7.523 10.3794 8.058C10.572 8.401 10.7626 8.744 10.9594 9.084C11.2682 9.619 11.4179 10.175 11.4169 10.783V11.52H1.84277C1.84277 11.274 1.84382 11.029 1.84277 10.783C1.84173 10.173 1.99144 9.617 2.29923 9.083Z" fill="#303337" stroke="#303337" stroke-width="0.25"/>
<path d="M6.62926 17.346C7.52752 17.346 8.25932 16.648 8.25932 15.79C8.25932 15.072 7.26684 13.772 6.96323 13.392C6.80409 13.193 6.45652 13.193 6.29634 13.392C5.99273 13.773 5.00024 15.073 5.00024 15.79C5.00024 16.648 5.731 17.346 6.62926 17.346ZM6.62926 14.318C7.05222 14.909 7.42073 15.544 7.42073 15.79C7.42073 16.207 7.06583 16.546 6.62926 16.546C6.19269 16.546 5.83778 16.207 5.83778 15.79C5.83778 15.543 6.2063 14.909 6.62926 14.318Z" fill="#303337" stroke="#303337" stroke-width="0.25"/>
</svg>
