<svg width="80" height="56" viewBox="0 0 80 56" fill="none" xmlns="http://www.w3.org/2000/svg">
<path fill-rule="evenodd" clip-rule="evenodd" d="M76.913 28.8801H3.06959C1.44609 28.8801 0.125 30.2191 0.125 31.8652V44.6635C0.125 46.3087 1.44609 47.6479 3.06959 47.6479H76.913C78.5368 47.6479 79.8579 46.3087 79.8579 44.6635V31.8652C79.8579 30.2191 78.5368 28.8801 76.913 28.8801Z" fill="white"/>
<path fill-rule="evenodd" clip-rule="evenodd" d="M39.9917 0.0900879C24.7954 0.0900879 12.4326 12.6204 12.4326 28.0226C12.4326 43.4238 24.7954 55.9541 39.9917 55.9541C55.188 55.9541 67.5511 43.4238 67.5511 28.0226C67.5511 12.6204 55.188 0.0900879 39.9917 0.0900879Z" fill="white"/>
<path fill-rule="evenodd" clip-rule="evenodd" d="M25.4894 13.8178C25.563 13.7377 25.6402 13.6594 25.718 13.5807C28.6755 10.5832 32.3996 8.62242 36.4989 7.89931L36.9144 7.8258L36.6371 8.14823C36.208 8.64844 35.8716 9.07467 35.6377 9.41493C35.5378 9.56195 35.401 9.76292 35.3043 9.97982L35.2726 10.0516L35.1968 10.0663C35.1535 10.0753 30.8285 10.9585 26.9274 14.2813L26.8727 14.3275L25.3063 14.0173L25.4894 13.8178ZM40.8776 13.9766L40.9579 14.0341L39.5256 20.9576L39.4548 20.9891C35.509 22.7276 33.0265 24.3243 32.1423 24.9301L32.0648 24.9836L26.5905 21.7887L26.5982 21.6928C26.6637 20.8806 27.0134 16.7535 27.5017 15.2451L27.5146 15.2053L27.5462 15.178C31.1744 11.9851 35.6606 11.1113 35.7053 11.1025L35.8383 11.0952L35.8979 11.1202C36.4033 11.3626 38.9823 12.6199 40.8776 13.9766ZM42.0933 14.1527C43.4983 13.6291 47.1839 13.2753 49.1398 13.1486L49.1874 13.1455L49.2281 13.171C52.8905 15.4661 54.8014 18.8179 54.8204 18.8512L54.8466 18.898L54.8383 18.9501C54.6727 19.9969 54.0743 23.5651 53.3073 25.5515L53.2788 25.6254L46.5793 27.2591L40.5692 21.168L42.0155 14.1809L42.0933 14.1527ZM49.1043 9.79021C51.0013 10.7616 52.7319 12.0324 54.2481 13.5693C55.7798 15.1211 57.0455 16.8962 58.01 18.8452L58.179 19.1867L55.7269 18.2798L55.6997 18.2336C55.6786 18.1979 53.5633 14.6452 49.8307 12.2783L49.7891 12.2523L48.7519 9.60991L49.1043 9.79021ZM20.5067 33.2907C19.8259 30.6968 19.654 27.9804 20.0148 25.274L20.0757 24.8211L21.0807 26.6598L21.0757 26.7079C20.8248 29.0189 21.095 31.4554 21.4201 33.2907H22.5051C22.1711 31.4715 21.8832 29.0272 22.1404 26.7557L22.1594 26.697C22.8715 25.4557 24.563 23.0146 25.8688 22.6612L25.9286 22.6453L31.6229 25.9668L33.1306 33.2907H44.0551L46.7666 28.3218L53.4558 26.6924L53.5149 26.7718C54.5596 28.1759 56.3901 30.8705 56.6201 32.065L56.627 32.0998L56.6242 32.1105C56.6223 32.2326 56.6036 32.6417 56.4486 33.2907H57.5428C57.6035 33.0007 57.6393 32.7589 57.6598 32.5712L57.6702 32.4745L57.7608 32.4436C58.2235 32.2872 58.9224 31.9446 59.6267 31.203L59.9593 30.8533L59.8821 31.3322C59.7755 31.9956 59.6343 32.6482 59.4668 33.2907H60.5658C60.9429 31.7643 61.1622 30.1883 61.2028 28.5819C61.2058 28.5067 61.2075 28.4321 61.2075 28.3562C61.2517 25.485 60.7449 22.6855 59.7004 20.033L59.6292 19.8505C58.5653 17.2116 57.008 14.8419 55.0005 12.8071C52.9949 10.7747 50.6575 9.19677 48.0517 8.11747L47.9034 8.05579C45.3842 7.03454 42.7252 6.51587 40.0011 6.51587C39.4551 6.51587 38.9028 6.5378 38.3588 6.58054L38.3507 6.58118H38.3457L38.3138 6.58402L38.3098 6.58228C38.2514 6.58528 38.194 6.59048 38.1393 6.59711C33.1698 7.03454 28.4972 9.23936 24.9769 12.8071C24.6069 13.1818 24.2472 13.5741 23.9082 13.9718C23.8771 14.0087 23.8623 14.0257 23.8484 14.0435C21.671 16.6213 20.1154 19.7254 19.3446 23.0258C19.3266 23.095 19.3113 23.1608 19.2961 23.2285L19.2926 23.2504C18.5504 26.5792 18.6159 30.0294 19.4221 33.2907H20.5067Z" fill="#303337"/>
<path fill-rule="evenodd" clip-rule="evenodd" d="M39.9916 1.15234C25.3732 1.15234 13.4805 13.2061 13.4805 28.0226C13.4805 42.8383 25.3732 54.8922 39.9916 54.8922C54.61 54.8922 66.5029 42.8383 66.5029 28.0226C66.5029 13.2061 54.61 1.15234 39.9916 1.15234ZM39.9916 2.21445C54.0545 2.21445 65.4549 13.7684 65.4549 28.0226C65.4549 42.2751 54.0545 53.8297 39.9916 53.8297C25.9287 53.8297 14.5286 42.2751 14.5286 28.0226C14.5286 13.7684 25.9287 2.21445 39.9916 2.21445Z" fill="#303337"/>
<path fill-rule="evenodd" clip-rule="evenodd" d="M3.06987 46.0544C2.31299 46.0544 1.69727 45.4302 1.69727 44.6634V31.8652C1.69727 31.0976 2.31299 30.4735 3.06987 30.4735H76.9133C77.6703 30.4735 78.2862 31.0976 78.2862 31.8652V44.6634C78.2862 45.4302 77.6703 46.0544 76.9133 46.0544H3.06987Z" fill="#FEC311"/>
<path fill-rule="evenodd" clip-rule="evenodd" d="M76.9129 29.9424H3.06951C2.02375 29.9424 1.17285 30.8048 1.17285 31.8652V44.6634C1.17285 45.7232 2.02375 46.5856 3.06951 46.5856H76.9129C77.959 46.5856 78.8099 45.7232 78.8099 44.6634V31.8652C78.8099 30.8048 77.959 29.9424 76.9129 29.9424ZM76.9129 31.0045C77.38 31.0045 77.7618 31.3916 77.7618 31.8652V44.6634C77.7618 45.1364 77.38 45.5235 76.9129 45.5235H3.06951C2.60273 45.5235 2.22094 45.1364 2.22094 44.6634V31.8652C2.22094 31.3916 2.60273 31.0045 3.06951 31.0045H76.9129Z" fill="#303337"/>
<path fill-rule="evenodd" clip-rule="evenodd" d="M6.14258 41.5573V34.9709H7.85993V40.0051H9.53137V34.9709H11.2483V40.0051H12.9199V34.9709H14.6374V41.5573H6.14258Z" fill="#303337"/>
<path fill-rule="evenodd" clip-rule="evenodd" d="M15.8604 41.5573V34.9709H17.5777V37.4646H18.395L19.8708 34.9709H21.774L19.7318 38.1787L21.867 41.5573H19.9639L18.3853 39.017H17.5777V41.5573H15.8604Z" fill="#303337"/>
<path fill-rule="evenodd" clip-rule="evenodd" d="M25.2448 36.4292C24.1216 36.4292 23.5276 37.2104 23.5276 38.2641C23.5276 39.3175 24.1216 40.0987 25.2448 40.0987C26.368 40.0987 26.9621 39.3175 26.9621 38.2641C26.9621 37.2104 26.368 36.4292 25.2448 36.4292ZM25.2448 34.8293C27.566 34.8293 28.7259 36.4292 28.7259 38.2641C28.7259 40.0987 27.566 41.6986 25.2448 41.6986C22.924 41.6986 21.7637 40.0987 21.7637 38.2641C21.7637 36.4292 22.924 34.8293 25.2448 34.8293Z" fill="#303337"/>
<path fill-rule="evenodd" clip-rule="evenodd" d="M35.2705 34.9709V41.5573H33.5525V36.5233H32.151C31.9466 39.2238 31.6218 41.6327 29.7559 41.642C29.5144 41.642 29.245 41.6042 28.957 41.5105V39.9955C29.0781 40.0329 29.2266 40.0518 29.4026 40.0329C30.4518 39.9202 30.4335 36.9655 30.5819 34.9709H35.2705Z" fill="#303337"/>
<path fill-rule="evenodd" clip-rule="evenodd" d="M38.5357 39.1107H40.2067L39.5387 37.2103C39.4828 37.0502 39.4269 36.8901 39.3717 36.5423C39.3155 36.8901 39.2596 37.0502 39.2044 37.2103L38.5357 39.1107ZM35.8896 41.5573L38.443 34.9709H40.2998L42.8531 41.5573H41.0893L40.7175 40.5219H38.0252L37.654 41.5573H35.8896Z" fill="#303337"/>
<path fill-rule="evenodd" clip-rule="evenodd" d="M53.2258 34.9709V41.5573H51.5083V38.0568L50.116 40.2207H49.132L47.7393 38.0472V41.5573H46.0215V34.9709H47.6462L49.6238 38.0568L51.6014 34.9709H53.2258Z" fill="#303337"/>
<path fill-rule="evenodd" clip-rule="evenodd" d="M57.011 38.0005H58.0138V36.4758H57.011C56.4261 36.4758 56.0922 36.7303 56.0922 37.2381C56.0922 37.7467 56.4261 38.0005 57.011 38.0005ZM53.9199 41.5573L55.6737 39.1765C54.8944 38.8848 54.3285 38.2737 54.3285 37.2381C54.3285 35.5915 55.5816 34.9709 56.9923 34.9709H59.7318V41.5573H58.0138V39.4117H57.4104L55.8784 41.5573H53.9199Z" fill="#303337"/>
<path fill-rule="evenodd" clip-rule="evenodd" d="M64.5393 41.5573V39.3175C64.0101 39.4781 63.4999 39.5623 63.0356 39.5623C61.6242 39.5623 60.668 38.8285 60.668 37.2849V34.9709H62.3853V37.1914C62.3853 37.7277 62.8589 37.991 63.472 37.991C63.8059 37.991 64.1779 37.9162 64.5393 37.7657V34.9709H66.2574V41.5573H64.5393Z" fill="#303337"/>
<path fill-rule="evenodd" clip-rule="evenodd" d="M69.5232 39.1107H71.194L70.5255 37.2103C70.4701 37.0502 70.4138 36.8901 70.3584 36.5423C70.302 36.8901 70.2466 37.0502 70.191 37.2103L69.5232 39.1107ZM66.877 41.5573L69.4296 34.9709H71.2864L73.8398 41.5573H72.0759L71.7045 40.5219H69.0119L68.6413 41.5573H66.877Z" fill="#303337"/>
<path fill-rule="evenodd" clip-rule="evenodd" d="M39.7548 3.96351L39.7098 4.05075L39.6159 4.06731L39.0723 4.15028L39.4685 4.54733L39.5341 4.61374L39.5176 4.70934L39.4276 5.26871L39.906 5.00732L39.992 4.96236L40.0776 5.00732L40.556 5.26871L40.4659 4.70934L40.4499 4.61374L40.5151 4.54733L40.9115 4.15028L40.3677 4.06731L40.2738 4.05075L40.2288 3.96351L39.992 3.46204L39.7548 3.96351Z" fill="#303337"/>
<path fill-rule="evenodd" clip-rule="evenodd" d="M28.8936 6.75325L28.8932 6.852L28.8171 6.91005L28.3721 7.23659L28.9036 7.40553L28.9918 7.43393L29.0206 7.52652L29.1937 8.06523L29.5008 7.6106L29.5562 7.53063L29.6533 7.5311L30.1967 7.54072L29.8633 7.08546L29.806 7.00848L29.8335 6.91888L30.006 6.38128L29.4855 6.56033L29.3948 6.58935L29.3154 6.53304L28.8779 6.19751L28.8936 6.75325Z" fill="#303337"/>
<path fill-rule="evenodd" clip-rule="evenodd" d="M20.5051 14.2813L20.5493 14.369L20.5081 14.4563L20.2598 14.9535L20.8089 14.8563L20.9001 14.8408L20.9677 14.9093L21.3652 15.3079L21.4324 14.7613L21.4458 14.6642L21.5317 14.6198L22.0189 14.3755L21.5169 14.1259L21.4309 14.0838L21.4151 13.9914L21.3253 13.4336L20.9434 13.8349L20.8761 13.9032L20.7796 13.8895L20.2393 13.7951L20.5051 14.2813Z" fill="#303337"/>
<path fill-rule="evenodd" clip-rule="evenodd" d="M16.4575 24.8704L16.5364 24.9278L16.539 25.0238L16.5434 25.5816L16.9873 25.2396L17.0615 25.1835L17.1526 25.213L17.6861 25.3824L17.4987 24.8656L17.4665 24.7732L17.5227 24.6937L17.8452 24.2501L17.2861 24.2616L17.1909 24.2646L17.135 24.19L16.8028 23.7358L16.6449 24.27L16.6159 24.3616L16.5241 24.3944L16.001 24.5615L16.4575 24.8704Z" fill="#303337"/>
<path fill-rule="evenodd" clip-rule="evenodd" d="M51.1059 6.19751L50.6684 6.53304L50.5888 6.58935L50.4982 6.56033L49.9771 6.38128L50.1496 6.91888L50.1778 7.00848L50.1203 7.08546L49.7871 7.54072L50.3303 7.5311L50.4268 7.53063L50.4831 7.6106L50.7901 8.06523L50.9627 7.52652L50.9918 7.43393L51.0796 7.40553L51.6117 7.23659L51.1661 6.91005L51.09 6.852L51.0895 6.75325L51.1059 6.19751Z" fill="#303337"/>
<path fill-rule="evenodd" clip-rule="evenodd" d="M59.7435 13.7951L59.2031 13.8895L59.1066 13.9032L59.0392 13.8349L58.6574 13.4336L58.5676 13.9914L58.5517 14.0838L58.466 14.1259L57.9639 14.3755L58.451 14.6198L58.5369 14.6642L58.5505 14.7613L58.6176 15.3079L59.0151 14.9093L59.0825 14.8408L59.1737 14.8563L59.7229 14.9535L59.4747 14.4563L59.4334 14.369L59.4776 14.2813L59.7435 13.7951Z" fill="#303337"/>
<path fill-rule="evenodd" clip-rule="evenodd" d="M63.9821 24.5615L63.4589 24.3944L63.3671 24.3616L63.338 24.27L63.1803 23.7358L62.848 24.19L62.7922 24.2646L62.6969 24.2616L62.1377 24.2501L62.4603 24.6937L62.5165 24.7732L62.4843 24.8656L62.2969 25.3824L62.8306 25.213L62.9215 25.1835L62.9957 25.2396L63.4396 25.5816L63.444 25.0238L63.4466 24.9278L63.5256 24.8704L63.9821 24.5615Z" fill="#303337"/>
<path fill-rule="evenodd" clip-rule="evenodd" d="M33.7591 50.1989C34.1281 49.8557 34.341 49.567 34.341 49.1087C34.341 48.4793 33.8995 48.0887 33.1877 48.0887C32.8579 48.0887 32.5262 48.1657 32.2789 48.2992L32.21 48.3364L32.4456 48.9552L32.5345 48.9038C32.6942 48.8112 32.9135 48.7543 33.1068 48.7543C33.3317 48.7543 33.5994 48.8142 33.5994 49.1005C33.5994 49.3305 33.5065 49.4988 33.2319 49.7667C32.8872 50.0999 32.5857 50.3516 32.3102 50.5379L32.2708 50.5646V51.0624H34.3879V50.4051H33.5124C33.593 50.3445 33.6755 50.2772 33.7591 50.1989Z" fill="#303337"/>
<path fill-rule="evenodd" clip-rule="evenodd" d="M37.6919 50.4442C37.229 50.4442 36.8928 50.0891 36.8928 49.5996C36.8928 49.11 37.229 48.7543 37.6919 48.7543C38.1549 48.7543 38.4905 49.11 38.4905 49.5996C38.4905 50.0891 38.1549 50.4442 37.6919 50.4442ZM37.6919 48.0887C36.8139 48.0887 36.1514 48.7383 36.1514 49.5996C36.1514 50.4603 36.8139 51.1099 37.6919 51.1099C38.5702 51.1099 39.2326 50.4603 39.2326 49.5996C39.2326 48.7383 38.5702 48.0887 37.6919 48.0887Z" fill="#303337"/>
<path fill-rule="evenodd" clip-rule="evenodd" d="M42.4214 50.4442C41.9587 50.4442 41.6228 50.0891 41.6228 49.5996C41.6228 49.11 41.9587 48.7543 42.4214 48.7543C42.8841 48.7543 43.2203 49.11 43.2203 49.5996C43.2203 50.0891 42.8841 50.4442 42.4214 50.4442ZM42.4214 48.0887C41.5428 48.0887 40.8809 48.7383 40.8809 49.5996C40.8809 50.4603 41.5428 51.1099 42.4214 51.1099C43.2991 51.1099 43.9616 50.4603 43.9616 49.5996C43.9616 48.7383 43.2991 48.0887 42.4214 48.0887Z" fill="#303337"/>
<path fill-rule="evenodd" clip-rule="evenodd" d="M45.668 48.136V48.7933H46.9363L45.9908 51.0623H46.7835L47.7662 48.6204L47.7727 48.136H45.668Z" fill="#303337"/>
<path fill-rule="evenodd" clip-rule="evenodd" d="M74.8417 32.6518C74.1548 32.6518 73.4597 33.1104 73.4597 33.987C73.4597 34.8637 74.1548 35.3223 74.8417 35.3223C75.5266 35.3223 76.2199 34.8637 76.2199 33.987C76.2199 33.1104 75.5266 32.6518 74.8417 32.6518ZM74.8417 35.6378C74.0003 35.6378 73.1484 35.0707 73.1484 33.987C73.1484 32.9034 74.0003 32.3363 74.8417 32.3363C75.6812 32.3363 76.5312 32.9034 76.5312 33.987C76.5312 35.0707 75.6812 35.6378 74.8417 35.6378Z" fill="#303337"/>
<path fill-rule="evenodd" clip-rule="evenodd" d="M74.9262 33.9255H74.5984V33.5359H74.9262C75.0395 33.5359 75.1933 33.5565 75.1933 33.7327C75.1933 33.9052 75.0395 33.9255 74.9262 33.9255ZM75.2702 34.2044C75.4565 34.1471 75.6062 33.987 75.6062 33.7163C75.6062 33.3144 75.2702 33.1667 74.9748 33.1667H74.21V34.7706H74.5984V34.2456H74.8332C74.8453 34.2456 74.8574 34.2456 74.8696 34.2456L75.2581 34.7706H75.6992L75.2702 34.2044Z" fill="#303337"/>
</svg>
