<svg width="32" height="34" viewBox="0 0 32 34" fill="none" xmlns="http://www.w3.org/2000/svg">
<path d="M30.2782 1.29538C30.1823 1.11487 29.9904 1 29.7816 1H24.7927C24.5839 1 24.392 1.11487 24.2961 1.29538L16.3951 16.1576C16.3726 16.1959 16.3607 16.2342 16.35 16.2725H15.6502C15.6389 16.2342 15.6276 16.1959 15.6051 16.1576L7.70411 1.29538C7.60817 1.11487 7.41629 1 7.20748 1H2.21861C2.00979 1 1.81791 1.11487 1.72197 1.29538C1.62039 1.4759 1.63732 1.6947 1.75584 1.8588L12.1569 16.2725H11.6715C11.3611 16.2725 11.1072 16.5132 11.1072 16.8195V19.9648C9.44232 21.3159 8.38134 23.3508 8.38134 25.6154C8.38134 29.6851 11.8013 33 16.0001 33C20.1989 33 23.6189 29.6851 23.6189 25.6154C23.6189 23.0444 22.2531 20.7744 20.1876 19.4506V16.8195C20.1876 16.5843 20.0352 16.3819 19.8208 16.3108L30.2444 1.8588C30.3629 1.6947 30.3798 1.4759 30.2782 1.29538ZM19.0589 17.3665V18.8544C18.1221 18.4496 17.0893 18.2308 16.0001 18.2308C14.6344 18.2308 13.3476 18.5809 12.2359 19.199V17.3665H19.0589ZM3.30216 2.09402H6.86323L14.403 16.2725H13.4887C13.4718 16.2123 13.4436 16.1467 13.4046 16.092L3.30216 2.09402ZM22.4902 25.6154C22.4902 29.0834 19.5781 31.906 16.0001 31.906C12.4221 31.906 9.51004 29.0834 9.51004 25.6154C9.51004 22.1474 12.4221 19.3248 16.0001 19.3248C19.5781 19.3248 22.4902 22.1474 22.4902 25.6154ZM18.5961 16.092C18.5572 16.1467 18.529 16.2123 18.512 16.2725H17.5978L25.137 2.09402H28.698L18.5961 16.092Z" fill="#303337" stroke="#303337" stroke-width="0.25"/>
</svg>
