<svg width="25" height="24" viewBox="0 0 25 24" fill="none" xmlns="http://www.w3.org/2000/svg">
<path d="M22.75 5.5V5C22.75 4.725 22.65 4.475 22.45 4.3C22.275 4.1 22.025 4 21.75 4H20C19.725 4 19.475 4.1 19.3 4.3C19.1 4.475 19 4.725 19 5V5.45H17L15.3 3.15C15.1 2.9 14.8 2.75 14.5 2.75H9.5C9.175 2.75 8.875 2.9 8.675 3.175L7 5.5H1.5C1.1 5.5 0.725 5.65 0.425 5.95C0.15 6.225 0 6.6 0 7V20C0 20.325 0.125 20.65 0.375 20.875C0.6 21.125 0.925 21.25 1.25 21.25H22.5C22.9 21.25 23.275 21.1 23.575 20.8C23.85 20.525 24.025 20.15 24.025 19.725V6.975C24 6.225 23.475 5.625 22.75 5.5ZM20 5H21.75V5.475H20V5ZM23 19.75C23 19.875 22.95 20 22.85 20.1C22.75 20.2 22.625 20.25 22.5 20.25H1.25C1.175 20.25 1.125 20.225 1.075 20.175C1.025 20.125 1 20.075 1 20V7C1 6.875 1.05 6.75 1.15 6.65C1.25 6.55 1.375 6.5 1.5 6.5H7C7.325 6.5 7.625 6.35 7.825 6.075L9.5 3.75H14.5L16.2 6.05C16.4 6.3 16.7 6.45 17 6.45L22.5 6.475C22.775 6.475 23 6.7 23 6.975V19.75Z" fill="#303337"/>
<path d="M6 8H3.25C2.975 8 2.75 8.225 2.75 8.5C2.75 8.775 2.975 9 3.25 9H6C6.275 9 6.5 8.775 6.5 8.5C6.5 8.225 6.275 8 6 8Z" fill="#303337"/>
<path d="M12.0001 8.72498C9.4501 8.72498 7.3501 10.8 7.3501 13.375C7.3501 15.95 9.4501 18.025 12.0001 18.025C14.5501 18.025 16.6501 15.95 16.6501 13.375C16.6501 10.8 14.5501 8.72498 12.0001 8.72498ZM12.0001 16.975C10.0001 16.975 8.4001 15.35 8.4001 13.375C8.4001 11.4 10.0001 9.77497 12.0001 9.77497C14.0001 9.77497 15.6001 11.4 15.6001 13.375C15.6001 15.35 14.0001 16.975 12.0001 16.975Z" fill="#303337"/>
</svg>
