<svg width="16" height="16" viewBox="0 0 16 16" fill="none" xmlns="http://www.w3.org/2000/svg">
<g clip-path="url(#clip0_1_760)">
<path d="M13.9683 6.3074C13.8909 6.0806 13.6863 5.9204 13.4475 5.9018L10.0268 5.63L8.54651 2.3534C8.4499 2.138 8.2357 2 7.99989 2C7.76408 2 7.54988 2.138 7.45327 2.3528L5.97302 5.63L2.55231 5.9018C2.3177 5.9204 2.1155 6.0746 2.0357 6.296C1.95589 6.5174 2.01229 6.7652 2.1809 6.9296L4.70878 9.3938L3.81475 13.265C3.75955 13.5044 3.85615 13.7534 4.05836 13.8932C4.16156 13.964 4.28037 14 4.39977 14C4.51558 14 4.63198 13.9664 4.73278 13.8992L7.99989 11.7212L11.267 13.8992C11.4758 14.0384 11.75 14.033 11.954 13.8848C12.1568 13.7366 12.2462 13.4768 12.1772 13.2356L11.0798 9.3956L13.8015 6.9464C13.9797 6.7856 14.0451 6.5348 13.9683 6.3074Z" fill="#FEC311"/>
</g>
<defs>
<clipPath id="clip0_1_760">
<rect width="12" height="12" fill="white" transform="translate(2 2)"/>
</clipPath>
</defs>
</svg>
