<?xml version="1.0" encoding="UTF-8"?>
<svg width="64px" height="64px" viewBox="0 0 64 64" version="1.1" xmlns="http://www.w3.org/2000/svg" xmlns:xlink="http://www.w3.org/1999/xlink">
    <title>ico-1@1x</title>
    <g id="Page-1" stroke="none" stroke-width="1" fill="none" fill-rule="evenodd">
        <g id="Доработки-2" transform="translate(-176.000000, -3033.000000)">
            <g id="ico-1" transform="translate(176.000000, 3033.000000)">
                <rect id="Rectangle" x="0" y="0" width="64" height="64"></rect>
                <g id="Shape-5" transform="translate(0.000000, 9.000000)" fill="#FEC311" fill-rule="nonzero">
                    <path d="M31.8801695,28.6172865 C31.4563225,28.4833333 31.2101167,28.0516029 31.3153653,27.6278182 C31.4206114,27.2040215 31.8420713,26.9319213 32.2806822,27.0037907 C32.5135627,27.0420626 32.7197685,27.1736846 32.8497778,27.3664476 C32.9793117,27.5596766 33.0217012,27.7972461 32.9659767,28.021744 C32.9097815,28.2467078 32.7611974,28.4385389 32.5554671,28.5514868 C32.3492614,28.6644359 32.104482,28.6882359 31.880172,28.617296 L31.8801695,28.6172865 Z M32.2597251,30.7503092 C32.0220899,33.0126133 31.1805891,37.9043949 28.2522824,40.7528859 L28.251806,40.7524192 C31.4068245,40.7384169 34.3770209,39.2948377 36.2976577,36.8417182 C35.5742674,32.8688857 34.1331925,31.1246628 33.40317,30.471804 C33.0431451,30.6346961 32.655019,30.7289687 32.2592732,30.749974 L32.2597251,30.7503092 Z M34.8808811,28.950646 L34.8804049,28.950646 C36.3114342,30.3685589 37.3253948,32.1384707 37.8158558,34.0739869 C38.2487489,32.8590768 38.4335221,31.5727154 38.3587521,30.2882658 C37.8734725,29.5830373 36.2599986,29.1251638 34.8813924,28.9459861 L34.8808811,28.950646 Z M11.8086126,9.16892707 C11.93672,9.89609283 12.5805735,10.4276877 13.3340035,10.4276877 C14.0874334,10.4276877 14.7312625,9.89608088 14.8593943,9.16892707 C15.203229,8.9910995 15.4908735,8.72459115 15.6923124,8.39881888 C15.8932758,8.07256868 15.9999507,7.69918216 16.0009017,7.31832791 L16.0009017,2.09091669 C15.999473,1.53690669 15.7737389,1.00576587 15.3741894,0.614217831 C14.9746399,0.222669795 14.4326823,0.00139795911 13.8674514,0 L12.8007018,0 C12.2354221,0.0014002293 11.6934768,0.22263395 11.2939638,0.614217831 C10.8944509,1.00580171 10.6686779,1.53695449 10.6672515,2.09091669 L10.6672515,7.31832791 C10.6682039,7.69918216 10.7748786,8.07256868 10.9758408,8.39881888 C11.1772797,8.72460309 11.4649242,8.9910995 11.8087589,9.16892707 L11.8086126,9.16892707 Z M41.6775996,9.16892707 C41.805707,9.89609283 42.4495605,10.4276877 43.2029904,10.4276877 C43.9564204,10.4276877 44.6002495,9.89608088 44.7283813,9.16892707 C45.072216,8.9910995 45.3598605,8.72459115 45.5612994,8.39881888 C45.7622628,8.07256868 45.8689377,7.69918216 45.8698887,7.31832791 L45.8698887,2.09091669 C45.86846,1.53690669 45.6427259,1.00576587 45.2431764,0.614217831 C44.8436269,0.222669795 44.3016693,0.00139795911 43.7364384,0 L42.6696888,0 C42.1044091,0.0014002293 41.5624638,0.22263395 41.1629508,0.614217831 C40.7634379,1.00580171 40.5376649,1.53695449 40.5362385,2.09091669 L40.5362385,7.31832791 C40.5371909,7.69918216 40.6438656,8.07256868 40.8448278,8.39881888 C41.0462667,8.72460309 41.3339112,8.9910995 41.6777459,9.16892707 L41.6775996,9.16892707 Z M37.7848781,27.485776 C37.2305463,26.2274933 36.4905147,25.0554778 35.5879837,24.0085618 C35.4827375,24.8668848 35.2041489,25.6957909 34.7688663,26.4472238 C34.8369664,26.5751072 34.8964983,26.7071964 34.9460199,26.8430135 C35.9151405,26.9461614 36.8681197,27.161796 37.7847928,27.4857043 L37.7848781,27.485776 Z M26.7431061,9.16892707 C26.8712135,9.89609283 27.515067,10.4276877 28.268497,10.4276877 C29.0219269,10.4276877 29.665756,9.89608088 29.7938878,9.16892707 C30.1377225,8.9910995 30.425367,8.72459115 30.6268059,8.39881888 C30.8277693,8.07256868 30.9344442,7.69918216 30.9353952,7.31832791 L30.9353952,2.09091669 C30.9339665,1.53690669 30.7082324,1.00576587 30.3086829,0.614217831 C29.9091334,0.222669795 29.3671758,0.00139795911 28.8019449,0 L27.7351953,0 C27.1699156,0.0014002293 26.6279703,0.22263395 26.2284573,0.614217831 C25.8289444,1.00580171 25.6031714,1.53695449 25.601745,2.09091669 L25.601745,7.31832791 C25.6026974,7.69918216 25.7093721,8.07256868 25.9103343,8.39881888 C26.1117732,8.72460309 26.3994177,8.9910995 26.7432524,9.16892707 L26.7431061,9.16892707 Z M54.4042263,2.09095254 L48.0037291,2.09095254 L48.0037291,7.31836376 C47.9994431,8.5491652 47.4384494,9.71460906 46.4726083,10.5005727 C46.0797153,11.3140894 45.3863281,11.9507462 44.5324652,12.2815966 C43.6785901,12.6120406 42.7280126,12.6120406 41.8741253,12.2815966 C41.0202502,11.9506865 40.3269118,11.3140535 39.9344699,10.5005727 C38.968202,9.71459711 38.4077379,8.5491652 38.4029833,7.31836376 L38.4029833,2.09095254 L33.0692356,2.09095254 L33.0692356,7.31836376 C33.0649496,8.5491652 32.5039559,9.71460906 31.5381148,10.5005727 C31.1452218,11.3140894 30.4518346,11.9507462 29.5979717,12.2815966 C28.7440966,12.6120406 27.7935191,12.6120406 26.9396318,12.2815966 C26.0857567,11.9506865 25.3924183,11.3140535 24.9999764,10.5005727 C24.0337085,9.71459711 23.4732444,8.5491652 23.4684898,7.31836376 L23.4684898,2.09095254 L18.1347421,2.09095254 L18.1347421,7.31836376 C18.1304561,8.5491652 17.5694624,9.71460906 16.6036213,10.5005727 C16.2107283,11.3140894 15.5173411,11.9507462 14.6634782,12.2815966 C13.8096031,12.6120406 12.8590256,12.6120406 12.0051383,12.2815966 C11.1512632,11.9506865 10.4579248,11.3140535 10.0654829,10.5005727 C9.09921505,9.71459711 8.53875094,8.5491652 8.53399628,7.31836376 L8.53399628,2.09095254 L2.13349907,2.09095254 C1.56821935,2.09235277 1.02627401,2.31358649 0.62676107,2.70517037 C0.22724813,3.09675425 0.00147516221,3.62790703 4.87656926e-05,4.18186923 L4.87656926e-05,13.5912094 L56.5377742,13.5912094 L56.5377742,4.18186923 C56.5363454,3.62785923 56.3106114,3.09671841 55.9110618,2.70517037 C55.5115123,2.31362233 54.9695548,2.0923505 54.4043238,2.09095254 L54.4042263,2.09095254 Z M32.6193721,24.9457918 C32.7846268,24.9700613 32.9470166,25.0078672 33.1060781,25.0592081 C33.4375385,24.2190944 33.5899313,23.3210789 33.5532595,22.4212473 C32.1912337,21.5960691 30.6463365,21.1041787 29.0496258,20.9869652 C30.7292382,21.7888082 32.0140923,23.2133047 32.6193965,24.9458181 L32.6193721,24.9457918 Z M63.9683979,41.4345403 L58.6713464,14.8052115 L58.6713464,43.9090475 L61.871595,43.9090475 C62.5030741,43.9006463 63.0987836,43.6215458 63.5021978,43.145475 C63.905612,42.6694042 64.0760481,42.0439788 63.9684223,41.4339907 L63.9683979,41.4345403 Z M0,15.6810269 L56.5377254,15.6810269 L56.5377254,43.9090475 C56.5377254,44.4635234 56.311989,44.9951303 55.9124395,45.3871801 C55.5124145,45.778764 54.9699815,45.999534 54.4042385,46 L2.13351126,46 C1.56775607,45.9995333 1.02533527,45.778764 0.625310291,45.3871801 C0.225760776,44.9951303 0,44.4635115 0,43.9090475 L0,15.6810269 Z M16.0207265,30.8411168 C16.022178,34.1078008 17.3822875,37.2325381 19.7868019,39.4943643 C22.1913163,41.7561904 25.4325281,42.960347 28.7627373,42.8277201 C32.0929464,42.6956309 35.2241916,41.2389456 37.4343747,38.7937119 C39.6440702,36.3484783 40.7417859,33.1261228 40.4736965,29.8701924 L40.474649,29.8701924 C40.1303389,25.7110848 37.6068605,22.0258495 33.8098418,20.1374099 C30.0133107,18.2489702 25.4882201,18.4286737 21.8598087,20.6116167 C18.2313973,22.7949421 16.0203608,26.6683642 16.0207265,30.8409734 L16.0207265,30.8411168 Z M25.2547771,40.2967084 C29.1898028,38.4251048 30.0208921,31.9692818 30.1795025,30.0430853 C29.7194714,29.6542973 29.3894374,29.138558 29.2327654,28.5630409 C28.1660158,28.2750613 24.7843589,27.9030847 18.1800211,31.4502447 L18.1800211,31.449778 C18.3076531,33.4530414 19.0524637,35.3707546 20.3154708,36.9502094 C21.5784778,38.5296642 23.3009065,39.6964224 25.2549478,40.2967084 L25.2547771,40.2967084 Z M29.4703275,26.4604865 C29.7060608,25.9974872 30.0699017,25.6086992 30.5204113,25.338929 C30.1675306,24.3905272 28.9417439,22.5973758 24.6932767,21.5771046 C21.4096388,22.8074281 19.0062216,25.6120687 18.3380097,28.9944128 C24.2346354,26.0535609 27.7421079,26.081998 29.4702421,26.4605223 L29.4703275,26.4604865 Z" id="Shape"></path>
                </g>
            </g>
        </g>
    </g>
</svg>