<?xml version="1.0" encoding="UTF-8"?>
<svg width="64px" height="64px" viewBox="0 0 64 64" version="1.1" xmlns="http://www.w3.org/2000/svg" xmlns:xlink="http://www.w3.org/1999/xlink">
    <title>ico-3@1x</title>
    <g id="Page-1" stroke="none" stroke-width="1" fill="none" fill-rule="evenodd">
        <g id="Доработки-2" transform="translate(-805.000000, -3033.000000)">
            <g id="ico-3" transform="translate(805.000000, 3033.000000)">
                <rect id="Rectangle-Copy-2" x="0" y="0" width="64" height="64"></rect>
                <g id="Shape-2" transform="translate(0.000000, 1.000000)" fill="#FEC311" fill-rule="nonzero">
                    <path d="M32.1620805,5.24399394 L34.9165968,5.24399394 L34.9165968,7.34210526 C35.7148279,7.26756187 36.5626187,7.21619721 37.5191668,7.2112471 L37.9336343,7.21093215 L37.9336343,7.21093215 L38.1898833,7.21147498 L38.1898833,7.21147498 L38.4404574,7.21294835 C39.1429423,7.21888064 39.7842859,7.24162107 40.4256295,7.32879271 L40.4256295,5.24395133 L43.1796463,5.24395133 C43.5453209,5.24395133 43.8955086,5.10604135 44.1537724,4.86018224 C44.4120363,4.61432314 44.5569045,4.28095548 44.5569045,3.93331959 L44.5569045,1.31110653 C44.5569045,0.963470642 44.4120363,0.629628186 44.1537724,0.383769081 C43.8955086,0.137909975 43.5453209,0 43.1796463,0 L32.1620925,0 C31.4012787,0 30.7847704,0.586835676 30.7847704,1.3111674 L30.7847704,3.93338046 C30.7847704,4.28101635 30.9301373,4.61438401 31.1884012,4.86024312 C31.4363346,5.09626786 31.7689848,5.23280668 32.1182843,5.24335215 L32.1620805,5.24399394 Z M36.9919113,8.15951 L37.1825742,8.15789474 L37.3732751,8.15789474 C38.2622716,8.15534129 39.1513669,8.20069624 40.0360612,8.29285922 L40.1108255,8.30078887 L40.1108255,8.30078887 L40.2633629,8.31809035 L40.2633629,8.31809035 L40.418588,8.3369651 L40.418588,8.3369651 L40.6529885,8.36730934 L40.6529885,8.36730934 L40.9600959,8.409359 L40.9600959,8.409359 L41.5080273,8.4863256 C41.527957,8.48905471 41.5474359,8.49170079 41.5664308,8.49425508 C41.8659618,8.53448619 42.1578851,8.59007923 42.4481099,8.64930525 L42.7379875,8.70930786 L42.7379875,8.70930786 C43.0311177,8.7634362 43.3237658,8.83073085 43.616896,8.91119058 C44.0546869,9.00655321 44.503203,9.13427794 44.9434206,9.26525652 L45.1080761,9.31446916 L45.9869847,9.61046477 L46.9320456,9.94644495 L48.0239128,10.4170094 L48.3040005,10.5784207 L48.6632832,10.7529896 C48.9488916,10.8796362 49.2242184,11.0163165 49.4983722,11.162716 L49.6353936,11.2367242 L50.5007774,11.7072887 C50.7934255,11.8687 51.0730311,12.0437682 51.3526366,12.2183371 C52.131641,12.7051229 52.8759484,13.2381394 53.6073843,13.796327 L53.7759587,13.9255768 L54.534616,14.5575526 C55.1864973,15.122205 55.82588,15.7273663 56.4382132,16.3456852 C57.2626986,17.2034906 58.0324072,18.113114 58.7421444,19.0696846 L58.8745161,19.2495905 C59.0326727,19.4681064 59.1855462,19.6919616 59.3332544,19.9111507 L59.5935759,20.2984902 L59.5935759,20.2984902 C59.8195894,20.6344704 60.032548,20.9704506 60.2324764,21.3200877 C60.2851979,21.3932304 60.3312092,21.4711169 60.3699544,21.5528975 L60.3923252,21.6024264 L60.5399913,21.8557304 C60.6620729,22.0668361 60.7803845,22.2780132 60.8849017,22.4894386 C61.2886156,23.2403195 61.6532142,24.0122725 61.9767689,24.8017522 C62.6248301,26.371424 63.1198173,28.0015159 63.4544736,29.6683091 C63.5343609,30.0599977 63.6043153,30.4322976 63.6646389,30.8184152 L63.6939995,31.0127791 C63.8939905,32.3471088 63.9963686,33.6954486 63.9999174,35.045661 C64.0132243,40.4413923 62.4185691,45.7161588 59.4231047,50.1843681 C56.4280111,54.6525774 52.1706934,58.1075032 47.2048735,60.0999902 C42.2396717,62.0919155 36.7952946,62.5298108 31.5797497,61.3560772 C26.4167273,60.1936238 21.7148632,57.5050924 18.0723701,53.6349682 L17.9623164,53.5173304 L17.9618335,53.5173304 L19.8925049,51.6755189 L21.8362807,49.8337073 C23.8269109,51.9753719 26.2351505,53.6781799 28.909063,54.8353354 C31.5824811,55.9919791 34.4645802,56.5776262 37.3736299,56.5556827 C42.3024855,56.5771543 47.0862039,54.871912 50.9094698,51.7310703 C54.7326121,48.5897293 57.3592499,44.2072815 58.3410156,39.3299888 C59.3228554,34.4529457 58.5989,29.3829082 56.2935173,24.9839822 C53.9875166,20.5850562 50.2425061,17.129631 45.6963974,15.2064272 C41.1496706,13.2831985 36.083837,13.0115581 31.3619318,14.4379197 C26.686756,15.8495233 22.6348587,18.8388368 19.8820632,22.9036675 L19.7990435,23.0271729 L19.7990435,23.0276605 L17.6022047,21.5219041 L15.3923852,20.0161476 L15.472066,19.9083803 C15.7117279,19.551435 15.9613263,19.1941321 16.2205576,18.8453704 L16.3509746,18.6717426 L16.3509746,18.6044492 C16.6706598,18.1875137 16.9903573,17.797892 17.34964,17.380969 C17.708935,16.9645328 18.0682176,16.5612543 18.4545497,16.1711457 C18.6201206,16.0039564 18.7954464,15.834348 18.9700374,15.6686549 L19.143995,15.5045015 L19.143995,15.5045015 L19.6396187,15.0417785 L19.6396187,15.0417785 C19.9540019,14.7477958 20.2787304,14.4743526 20.6047521,14.2034684 L20.7445285,14.0874794 L20.9840544,13.8992536 C21.1450261,13.7702317 21.3036498,13.6506916 21.4647465,13.5317801 L21.8585953,13.2430661 C21.9594788,13.1689229 22.062641,13.0924562 22.1691234,13.0117536 C22.5951148,12.6889435 23.0345691,12.3934348 23.5005783,12.1110961 C24.740421,11.3367098 26.0445266,10.6720767 27.397662,10.1248986 L27.5744347,10.0541943 C27.8484611,9.93883567 28.1320608,9.83350941 28.4170281,9.73790532 L28.5595877,9.69091201 L29.0922438,9.50268622 C29.3012693,9.42606445 29.5172015,9.36287069 29.7303539,9.30369275 L29.9841826,9.23400444 L29.9841826,9.23400444 C30.1667168,9.16768225 30.3536026,9.11404201 30.5433936,9.07259314 C30.6044097,9.05598498 30.6650355,9.03728102 30.7254829,9.01773817 L30.9668247,8.93807198 C31.1679884,8.8729206 31.3703137,8.81706894 31.5816565,8.81706894 C31.6932168,8.77610817 31.8095949,8.74928743 31.9279089,8.73660922 C32.3939799,8.64249632 32.8199095,8.56203534 33.2593638,8.49474194 L33.3551774,8.47832615 L33.3551774,8.47832615 L33.6429238,8.42711071 C33.9950574,8.36447101 34.3492662,8.30651614 34.7104889,8.30651614 C35.4679294,8.21790631 36.2293481,8.16906277 36.9919113,8.15951 Z M36.9804345,16.3157895 C43.7391357,16.3157895 49.9846259,19.8918112 53.3642902,25.6970753 C56.7434526,31.5025883 56.7434526,38.6548807 53.3642902,44.4601447 C49.9851278,50.2655333 43.7391357,53.8421053 36.9804345,53.8421053 C31.7977806,53.8578225 26.8420293,51.74299 23.2911372,48.0050751 L23.1839656,47.8913087 L23.1834755,47.8917948 L22.683515,47.3555969 L23.1565099,46.8597451 L32.3318832,37.7596564 L32.3715048,37.828222 C32.8147459,38.5823942 33.4473196,39.2098125 34.2081511,39.6497787 L34.2776692,39.6892576 C35.0942897,40.1758629 36.0275056,40.4349697 36.9803717,40.4393448 C38.7459935,40.4344913 40.3977677,39.5745536 41.4050292,38.1360557 C42.4118012,36.6975579 42.6470753,34.8619455 42.0348734,33.2198503 C41.4221571,31.5772572 40.0398752,30.3347157 38.331723,29.891854 C37.4728045,29.6665256 36.5711266,29.6596975 35.7096624,29.8713696 L35.6290205,29.891854 L35.6290205,16.3157895 L36.9804345,16.3157895 Z M17.2826311,45.6842105 C17.6406474,45.6842105 17.9839694,45.813362 18.2371699,46.042817 C18.4802424,46.2630938 18.6213089,46.5586375 18.6322053,46.8689733 L18.6328873,46.9078379 C18.6328873,47.2323926 18.4903704,47.5435174 18.2371699,47.7734156 C17.9940975,47.9936923 17.667969,48.1211211 17.3255177,48.1309629 L17.2826311,48.1315789 L3.78069554,48.1315789 C3.03473523,48.1315789 2.43037661,47.5838979 2.43037661,46.9078947 C2.43037661,46.2427949 3.0154577,45.701911 3.74471608,45.6846362 L3.78069554,45.6842105 L17.2826311,45.6842105 Z M25.4175817,39.1578947 C26.1448931,39.1578947 26.7341427,39.705723 26.7341427,40.3813517 C26.7341427,41.0465751 26.1636886,41.5875594 25.4526617,41.6048374 L25.4175817,41.6052632 L6.98695074,41.6052632 C6.26012841,41.6052632 5.67087876,41.0574236 5.67087876,40.3813517 C5.67087876,39.7165755 6.24132098,39.1755984 6.95189347,39.1583205 L6.98695074,39.1578947 L25.4175817,39.1578947 Z M36.2531507,32.1983494 C37.1303933,31.6882695 38.2112684,31.6882695 39.0885242,32.1983494 C39.9504413,32.6993893 40.4872102,33.6179139 40.5057789,34.6173796 L40.5062768,34.6709979 C40.5060399,35.4280245 40.2072851,36.1545473 39.6755818,36.6900006 C39.1438916,37.2254539 38.4224964,37.5263158 37.670719,37.5263158 C36.9184808,37.5263158 36.1975595,37.2254539 35.6658562,36.6900006 C35.1341529,36.1545606 34.8353981,35.4280775 34.8353981,34.6709979 C34.8353981,33.6508912 35.3758949,32.7084293 36.2531507,32.1983494 Z M19.7467909,32.6315789 C20.0958497,32.6315789 20.4305819,32.7602873 20.6774473,32.9897423 C20.9144381,33.2100191 21.0519752,33.5059712 21.062599,33.8163396 L21.063264,33.8552063 C21.063264,34.179761 20.9243128,34.4908859 20.6774473,34.7203409 C20.4404565,34.9406177 20.1224877,35.0684548 19.7886044,35.0783293 L19.7467909,35.0789474 L1.31653422,35.0789474 C0.589237687,35.0789474 0,34.5307664 0,33.8552632 C0,33.1901633 0.570442472,32.6492795 1.28145495,32.6320046 L1.31653422,32.6315789 L19.7467909,32.6315789 Z M14.8859498,26.1052632 C15.6132611,26.1052632 16.2025107,26.6534441 16.2025107,27.3289474 C16.2025107,27.9940472 15.6320567,28.5349311 14.9210298,28.5522059 L14.8859498,28.5526316 L6.98695074,28.5526316 C6.26012841,28.5526316 5.67087876,28.0048937 5.67087876,27.3289474 C5.67087876,26.6642835 6.24132098,26.1229777 6.95189347,26.1056892 L6.98695074,26.1052632 L14.8859498,26.1052632 Z M56.9862403,9.95066678 L57.0079963,9.97144557 L57.0084569,9.97144557 L61.3892114,14.3921015 C61.6225788,14.6298466 61.6294426,15.0085809 61.4098026,15.2546195 L61.3892114,15.2766135 L61.3887508,15.2766135 L60.5126825,16.1606614 L60.4366831,16.1606614 C60.2169288,16.3608267 59.8858834,16.3672836 59.658949,16.1800322 L59.6366106,16.1606614 L59.6370711,16.1601966 L58.3671334,14.8786918 L57.3892696,15.8654624 C56.9758953,15.3888093 56.4786132,14.9350809 55.9978733,14.510527 L55.5860052,14.1484602 L56.6145368,13.1105604 L55.2558596,11.7395414 C55.1162938,11.5987067 55.0587174,11.3955936 55.1033963,11.2017734 C55.1081045,11.0800585 55.155305,10.964759 55.2365182,10.8755965 L55.2558596,10.8554935 L56.131928,9.97144557 C56.3675271,9.73595254 56.742843,9.72902627 56.9862403,9.95066678 Z" id="Shape"></path>
                </g>
            </g>
        </g>
    </g>
</svg>