<?xml version="1.0" encoding="UTF-8"?>
<svg width="64px" height="64px" viewBox="0 0 64 64" version="1.1" xmlns="http://www.w3.org/2000/svg" xmlns:xlink="http://www.w3.org/1999/xlink">
    <title>ico-4@1x</title>
    <g id="Page-1" stroke="none" stroke-width="1" fill="none" fill-rule="evenodd">
        <g id="Доработки-2" transform="translate(-1120.000000, -3033.000000)" fill="#FEC311" fill-rule="nonzero">
            <g id="Shape-10" transform="translate(1120.000000, 3033.000000)">
                <path d="M46.8289997,49.0143051 L53.463367,55.648629 C47.6097595,61.0340522 40.0390937,64 32.0001394,64 C23.4145696,64 15.453942,60.6442323 9.36619019,54.6344285 C3.35634707,48.5461589 0,40.5858621 0,32.0006272 C0,23.9617253 2.9659672,16.391109 8.27295929,10.5375397 L17.1710003,19.3570568 L17.1710003,51.5126642 C17.1710003,54.9468976 19.9807319,57.7566109 23.4149877,57.7566109 L40.5855698,57.7566109 C44.0198256,57.7566109 46.8295572,54.9468976 46.8295572,51.5126642 L46.8289997,49.0143051 Z M54.6338098,9.366129 C48.546058,3.35632514 40.5851517,0 31.9998606,0 C23.9609063,0 16.3902405,2.96594782 10.536633,8.27290525 L17.1710003,14.9072292 L17.1710003,12.4878933 C17.1710003,9.0536599 19.9807319,6.24394663 23.4149877,6.24394663 L40.5855698,6.24394663 C44.0198256,6.24394663 46.8295572,9.0536599 46.8295572,12.4878933 L46.8295572,44.6435006 L55.7270407,53.540926 C61.0340328,47.6094485 64,40.0388322 64,31.9997909 C64,23.4142772 60.6436529,15.4537017 54.6338098,9.36598963 L54.6338098,9.366129 Z M43.7073545,12.4877539 C43.7073545,10.7707069 42.3027674,9.366129 40.5857092,9.366129 L23.415127,9.366129 C21.6980688,9.366129 20.2934818,10.7707069 20.2934818,12.4877539 L20.2934818,18.1071804 L43.707912,41.5214576 L43.7073545,12.4877539 Z M20.2929243,45.267742 L43.0829697,45.267742 L43.7074242,45.8921924 L43.7074242,51.5116189 C43.7074242,53.2286659 42.3028371,54.6332438 40.5857789,54.6332438 L23.4151967,54.6332438 C21.6981385,54.6332438 20.2935514,53.2286659 20.2935514,51.5116189 L20.2929243,45.267742 Z M29.658557,49.9508762 C29.658557,50.8094276 30.3608645,51.5116886 31.2193796,51.5116886 L32.7802023,51.5116886 C33.6387592,51.5116886 34.3410249,50.8093857 34.3410249,49.9508762 C34.3410249,49.0923248 33.6387174,48.3900637 32.7802023,48.3900637 L31.2193796,48.3900637 C30.3608226,48.3900637 29.658557,49.0923666 29.658557,49.9508762 Z M20.2929243,42.1461171 L39.9610456,42.1461171 L20.2929243,22.4781242 L20.2929243,42.1461171 Z" id="Shape"></path>
            </g>
        </g>
    </g>
</svg>