<?xml version="1.0" encoding="UTF-8"?>
<svg width="64px" height="64px" viewBox="0 0 64 64" version="1.1" xmlns="http://www.w3.org/2000/svg" xmlns:xlink="http://www.w3.org/1999/xlink">
    <title>ico-2@1x</title>
    <g id="Page-1" stroke="none" stroke-width="1" fill="none" fill-rule="evenodd">
        <g id="Доработки-2" transform="translate(-491.000000, -3033.000000)">
            <g id="ico-2" transform="translate(491.000000, 3033.000000)">
                <rect id="Rectangle-Copy" x="0" y="0" width="64" height="64"></rect>
                <g id="Shape-4" transform="translate(9.000000, 0.000000)" fill="#FEC311" fill-rule="nonzero">
                    <g id="Shape-3">
                        <path d="M26.3587233,41.1714734 L29.0651868,47.2531553 C29.4591973,48.428883 29.4658754,49.6049909 28.894832,50.6862598 L28.8647791,50.7421024 L22.7508731,61.9073811 C21.758452,63.782747 19.3910825,64.5829701 17.3989419,63.5347999 L17.3386907,63.5024706 C15.4532518,62.5153515 14.746718,60.0632111 15.7054704,58.1762097 L15.7350337,58.1192029 L20.8464941,48.6484102 L18.0399489,42.0686809 C19.0420455,42.4673433 20.1444216,42.7665628 21.3473097,42.7665628 C22.4446161,42.7665628 23.3108776,42.5544539 24.0284157,42.2790953 L24.1349412,42.2373358 C24.1876566,42.2162374 24.2395586,42.1948252 24.2906818,42.1731618 L24.3919004,42.1295188 C24.4086005,42.1221954 24.4252167,42.1148487 24.4417503,42.1074811 L24.5399699,42.0630431 L24.5399699,42.0630431 L24.6362673,42.0182145 L24.6362673,42.0182145 L24.7307043,41.973107 L24.7307043,41.973107 L24.8233427,41.9278323 L24.8233427,41.9278323 L24.9590628,41.8598508 L24.9590628,41.8598508 L25.0910832,41.7921212 L25.0910832,41.7921212 L25.2617155,41.7028578 L25.2617155,41.7028578 L25.625503,41.5107268 L25.625503,41.5107268 L25.7413109,41.4507034 L25.7413109,41.4507034 L25.8171812,41.4121301 L25.8171812,41.4121301 L25.8920553,41.374841 L25.8920553,41.374841 L25.9659952,41.3389477 L25.9659952,41.3389477 L26.0390626,41.3045619 C26.1238229,41.2653678 26.2069277,41.2294793 26.2888184,41.1976943 L26.3587233,41.1714734 L26.3587233,41.1714734 Z M16.4361756,14.5551764 C18.9168253,14.5551764 21.2010669,16.1185235 22.0243026,18.4711925 L22.0488006,18.5427263 L26.2582112,30.4055167 L34.6773814,27.0159662 C36.959593,26.1277079 39.5362458,27.3888961 40.0738979,29.8325042 L43.8985895,48.1506405 C44.990057,53.1838366 37.3390007,54.8955013 36.1161683,49.89919 L36.0810961,49.7457299 L33.2740856,36.2872715 L32.9534062,36.4178761 L32.9534062,36.4178761 L32.3325043,36.6714312 L32.3325043,36.6714312 L31.7383198,36.91495 L31.7383198,36.91495 L30.895672,37.2618532 L30.895672,37.2618532 L30.3653488,37.4811677 L30.3653488,37.4811677 L29.8593974,37.6911551 L29.8593974,37.6911551 L29.1447014,37.9890914 L29.1447014,37.9890914 L28.4810722,38.2671819 L28.4810722,38.2671819 L27.6717614,38.6082801 L27.6717614,38.6082801 L26.943854,38.9169344 L26.943854,38.9169344 L26.2919886,39.1947659 L26.2919886,39.1947659 L24.6337963,39.9044452 L24.6337963,39.9044452 L24.155867,40.1070504 L24.155867,40.1070504 L23.9856496,40.1783316 L23.9856496,40.1783316 L23.7506803,40.2754289 L23.7506803,40.2754289 L23.606628,40.3339061 L23.606628,40.3339061 L23.471869,40.3876164 L23.471869,40.3876164 L23.345733,40.4367625 L23.345733,40.4367625 L23.22755,40.481547 C23.2084784,40.4886589 23.1897102,40.4955975 23.1712315,40.502367 L23.0637214,40.5409892 C23.0463448,40.5470993 23.0292297,40.5530488 23.0123623,40.558842 L22.9140172,40.5917578 C22.5953598,40.6954463 22.3645744,40.7399532 22.1099685,40.7590573 L22.0327605,40.7640602 C22.0197361,40.7647782 22.0066243,40.7654412 21.993411,40.7660534 L21.9128025,40.76915 L21.9128025,40.76915 L21.8290894,40.7712292 L21.8290894,40.7712292 L21.6962326,40.7728835 L21.6962326,40.7728835 L21.4476241,40.7734243 C19.0663662,40.7734243 16.7831527,39.3079494 15.8624799,36.8603443 L15.8349991,36.7858743 L11.6255885,24.7229022 L7.2158516,27.4145939 L7.81706302,40.1753092 C7.91645485,42.0506865 6.44410245,43.6324154 4.5667155,43.7607874 L4.50970221,43.7642314 L4.30929453,43.7642314 C2.42430478,43.7642314 0.932140489,42.3966287 0.805040159,40.5312193 L0.80160747,40.4745403 L0,25.5210834 C0,24.3250845 0.601257953,23.128646 1.7037038,22.430764 L1.84535163,22.3467667 L1.84535163,22.3467667 L2.00525245,22.2506577 L2.00525245,22.2506577 L2.27768631,22.08503 L2.27768631,22.08503 L2.69781225,21.8271167 L2.69781225,21.8271167 L4.59743729,20.6535132 L4.59743729,20.6535132 L5.40350699,20.1581635 L5.40350699,20.1581635 L5.91113721,19.8479658 L5.91113721,19.8479658 L6.25798899,19.636942 L6.25798899,19.636942 L6.61071047,19.4232024 L6.61071047,19.4232024 L6.96855117,19.2073163 L6.96855117,19.2073163 L7.33076057,18.9898533 C7.39145117,18.9535097 7.45229253,18.9171241 7.51326901,18.8807084 L7.88062429,18.6619477 L7.88062429,18.6619477 L8.25047202,18.4430336 L8.25047202,18.4430336 L8.62206171,18.2245357 C11.847886,16.3343352 15.1854138,14.5551764 16.4361756,14.5551764 Z M44.5710599,17.6433717 L44.8249795,17.7225934 L44.8249795,17.7225934 L44.8737064,17.7369185 L44.8737064,17.7369185 L44.9001859,17.7439666 L44.9001859,17.7439666 C44.1985787,22.7286528 38.7862799,25.6196699 34.0757047,23.5259777 C34.8882415,22.7176031 35.5663711,21.8052655 36.1158244,20.9208871 L36.1993412,20.7850673 C36.2268423,20.7398794 36.2540057,20.6947828 36.2808323,20.6497954 L36.3603023,20.5151781 L36.3603023,20.5151781 L36.4377558,20.3813223 L36.4377558,20.3813223 L36.5131974,20.2483346 C36.5256036,20.2262483 36.5379262,20.2042026 36.5501652,20.1821997 L36.6225978,20.0507145 L36.6225978,20.0507145 L36.6930301,19.9203643 L36.6930301,19.9203643 L36.7614668,19.7912559 C36.7727069,19.7698472 36.783864,19.7484948 36.7949382,19.7272007 L36.8603902,19.6001551 L36.8603902,19.6001551 L36.9238581,19.4746183 L36.9238581,19.4746183 L36.9853467,19.3506968 L36.9853467,19.3506968 L37.0448605,19.2284975 L37.0448605,19.2284975 L37.1024042,19.1081271 L37.1024042,19.1081271 L37.1579824,18.9896923 L37.1579824,18.9896923 L37.2376747,18.8159031 L37.2376747,18.8159031 L37.2883595,18.7027746 L37.2883595,18.7027746 L37.3370951,18.5919553 L37.3370951,18.5919553 L37.3838861,18.4835521 L37.3838861,18.4835521 L37.4287371,18.3776717 L37.4287371,18.3776717 L37.4716528,18.2744208 L37.4716528,18.2744208 L37.5324078,18.1247083 L37.5324078,18.1247083 L37.5705054,18.0284983 L37.5705054,18.0284983 L37.606684,17.9352914 L37.606684,17.9352914 L37.6573637,17.8013455 L37.6573637,17.8013455 L37.6887648,17.7161136 L37.6887648,17.7161136 L37.718263,17.6342584 L37.718263,17.6342584 L37.7589527,17.5180407 L37.7589527,17.5180407 L37.7838343,17.4447471 C39.6262765,17.1038857 41.1206561,17.0908892 42.2591983,17.1955321 L42.4088945,17.2101631 C42.5072854,17.2203573 42.6028619,17.2314071 42.6956187,17.243165 L42.8326384,17.2613143 L42.8326384,17.2613143 L42.9654244,17.280415 L42.9654244,17.280415 L43.0939726,17.3003562 C43.1361153,17.3071311 43.1775509,17.3140276 43.2182789,17.3210272 L43.3383392,17.3423174 L43.3383392,17.3423174 L43.4541494,17.3641159 C43.4730967,17.3677852 43.4918667,17.371471 43.5104594,17.3751711 L43.6198868,17.3975245 L43.6198868,17.3975245 L43.7250538,17.4201094 L43.7250538,17.4201094 L43.8259564,17.4428151 L43.8259564,17.4428151 L43.9225905,17.4655309 L43.9225905,17.4655309 L44.014952,17.4881459 L44.014952,17.4881459 L44.1030367,17.5105495 L44.1030367,17.5105495 L44.1868407,17.532631 L44.1868407,17.532631 L44.2663597,17.5542795 L44.2663597,17.5542795 L44.4125267,17.5958349 L44.4125267,17.5958349 L44.5710599,17.6433717 L44.5710599,17.6433717 Z M32.3720009,10.5664693 C32.6091906,11.4219538 32.9429678,12.2250405 33.3161703,12.9576656 L33.3939285,13.1082318 C33.4069757,13.1331567 33.420065,13.1579963 33.4331943,13.1827498 L33.5124291,13.3302332 C33.5655461,13.4278596 33.6192257,13.5240862 33.6733178,13.6188655 L33.7547466,13.7599433 C33.7683634,13.7832734 33.7820013,13.8065115 33.795658,13.829657 L33.8778041,13.967412 C33.9052487,14.0129556 33.9327496,14.0581227 33.9602879,14.1029072 L34.0429968,14.2361073 L34.0429968,14.2361073 L34.1258182,14.3669766 L34.1258182,14.3669766 L34.2086397,14.4954797 L34.2086397,14.4954797 L34.2913489,14.6215808 L34.2913489,14.6215808 L34.3738331,14.7452446 L34.3738331,14.7452446 L34.4559799,14.8664353 L34.4559799,14.8664353 L34.5376767,14.9851176 L34.5376767,14.9851176 L34.6188112,15.1012558 L34.6188112,15.1012558 L34.6992707,15.2148144 L34.6992707,15.2148144 L34.7789428,15.3257578 L34.7789428,15.3257578 L34.8967285,15.4871918 L34.8967285,15.4871918 L35.0121096,15.6425416 L35.0121096,15.6425416 L35.1247066,15.7916874 L35.1247066,15.7916874 L35.2341396,15.9345091 L35.2341396,15.9345091 L35.3744725,16.1148931 L35.3744725,16.1148931 L35.4750466,16.242492 L35.4750466,16.242492 L35.6918372,16.5138665 L35.6918372,16.5138665 L35.8796879,16.7471081 L35.8796879,16.7471081 L35.8282146,16.8862415 L35.8282146,16.8862415 L35.7681914,17.0442729 L35.7681914,17.0442729 L35.7169794,17.1757783 L35.7169794,17.1757783 L35.6614043,17.3152624 L35.6614043,17.3152624 L35.6219114,17.412459 L35.6219114,17.412459 L35.5589796,17.5642267 L35.5589796,17.5642267 L35.5145469,17.6691898 L35.5145469,17.6691898 L35.4681184,17.7770228 L35.4681184,17.7770228 L35.3947089,17.9438577 L35.3947089,17.9438577 L35.3432415,18.058274 L35.3432415,18.058274 L35.2897387,18.1750869 L35.2897387,18.1750869 L35.2341891,18.2941613 L35.2341891,18.2941613 L35.1765816,18.4153618 L35.1765816,18.4153618 L35.1169047,18.5385533 L35.1169047,18.5385533 L35.0551471,18.6636005 L35.0551471,18.6636005 L34.9912975,18.7903682 C34.980481,18.811632 34.9695768,18.8329619 34.9585847,18.854355 L34.8915759,18.9834499 C34.8802313,19.0050847 34.8687985,19.026777 34.857277,19.0485242 L34.7870835,19.179642 C34.7395767,19.2674622 34.690645,19.3560687 34.6402733,19.4452813 L34.5636339,19.5795322 L34.5636339,19.5795322 L34.4848233,19.714557 L34.4848233,19.714557 L34.4038301,19.8502205 C34.3764674,19.8955331 34.348739,19.9409296 34.320643,19.9863874 L34.2352507,20.1229226 C34.2064178,20.1684806 34.1772155,20.2140775 34.1476418,20.2596907 L34.0578051,20.3965566 C33.6030328,21.0809051 33.0642908,21.7638485 32.4352103,22.3693207 L32.3720009,22.4296068 C28.5634754,19.3392875 28.6638712,13.6567887 32.3720009,10.5664693 Z M45,15.6512001 C43.7261635,15.2833261 42.435431,15.1500858 41.2659975,15.1346577 L41.0957428,15.1332274 C41.0675167,15.1331247 41.0393667,15.1330887 41.011295,15.1331176 L40.8438185,15.1340578 C40.7050632,15.1354687 40.5683626,15.1384198 40.4339672,15.1426993 L40.2738153,15.1484587 L40.2738153,15.1484587 L40.1159727,15.155412 L40.1159727,15.155412 L39.9605356,15.1634779 L39.9605356,15.1634779 L39.8076003,15.1725748 L39.8076003,15.1725748 L39.657263,15.1826216 L39.657263,15.1826216 L39.50962,15.1935367 L39.50962,15.1935367 L39.3647675,15.205239 L39.3647675,15.205239 L39.1529315,15.2240901 L39.1529315,15.2240901 L39.0154764,15.2374041 L39.0154764,15.2374041 L38.8151876,15.2582914 L38.8151876,15.2582914 L38.6222603,15.2800344 L38.6222603,15.2800344 L38.4978922,15.2948694 L38.4978922,15.2948694 L38.3179557,15.3174281 L38.3179557,15.3174281 L38.0908952,15.3476508 L38.0908952,15.3476508 L37.7794142,15.3919723 L37.7794142,15.3919723 L37.3828328,15.4518284 L37.3828328,15.4518284 L37.3080064,15.3670829 L37.3080064,15.3670829 L37.2552922,15.3061956 L37.2552922,15.3061956 L37.1722408,15.2084226 L37.1722408,15.2084226 L37.0847305,15.1030914 L37.0847305,15.1030914 L36.9931187,14.9903959 L36.9931187,14.9903959 L36.929942,14.91127 L36.929942,14.91127 L36.832288,14.7867311 L36.832288,14.7867311 L36.7654139,14.699889 L36.7654139,14.699889 L36.697246,14.6100609 L36.697246,14.6100609 L36.6278903,14.5173042 L36.6278903,14.5173042 L36.5574526,14.4216764 L36.5574526,14.4216764 L36.4499986,14.2729768 L36.4499986,14.2729768 L36.3773188,14.1704222 C36.3651432,14.1531057 36.352938,14.1356779 36.3407054,14.11814 L36.2669979,14.0116016 L36.2669979,14.0116016 L36.1927375,13.9024792 L36.1927375,13.9024792 L36.1180301,13.7908301 L36.1180301,13.7908301 L36.0429815,13.6767117 L36.0429815,13.6767117 L35.9676977,13.5601814 L35.9676977,13.5601814 L35.8922843,13.4412967 C35.8797105,13.4212896 35.8671357,13.4011868 35.8545621,13.3809894 L35.779153,13.2586807 C35.7665931,13.2381101 35.7540389,13.2174474 35.7414925,13.1966937 L35.6663257,13.0710902 C35.6538194,13.0499776 35.6413254,13.0287765 35.6288459,13.007488 L35.5541596,12.8787189 L35.5541596,12.8787189 L35.4799259,12.747911 L35.4799259,12.747911 L35.4062507,12.615122 C35.3817971,12.5705351 35.3574543,12.5256276 35.3332398,12.480409 L35.260999,12.3438297 C35.249029,12.3209141 35.2370954,12.2979232 35.2252005,12.274858 L35.1543135,12.1355867 C34.7437206,11.3180897 34.3859428,10.4126534 34.1755188,9.4705613 C38.9866061,7.27700962 44.3987886,10.4671884 45,15.6512001 Z M17.038085,0 C20.6462842,0 23.5527598,2.89094768 23.5527598,6.47986991 C23.5527598,10.0687921 20.6462842,12.9597398 17.038085,12.9597398 C13.4298858,12.9597398 10.5234102,10.0687921 10.5234102,6.47986991 C10.5234102,2.89094768 13.4298858,0 17.038085,0 Z" id="Shape"></path>
                    </g>
                </g>
            </g>
        </g>
    </g>
</svg>