<svg xmlns="http://www.w3.org/2000/svg" width="64" height="64" viewBox="0 0 64 64">
    <g fill="none" fill-rule="evenodd">
        <g fill-rule="nonzero">
            <g>
                <g>
                    <g>
                        <path fill="#303337" d="M32 0c3.346 0 6.586.886 9.628 2.632 2.703 1.552 5.138 3.718 7.248 6.443.558-.233 1.17-.362 1.812-.362 2.606 0 4.726 2.12 4.726 4.725 0 .634-.127 1.239-.354 1.792C60.832 19.752 64 25.68 64 32c0 3.346-.886 6.586-2.632 9.628-1.552 2.703-3.718 5.138-6.443 7.248.233.558.362 1.17.362 1.812 0 2.606-2.12 4.726-4.725 4.726-.634 0-1.239-.127-1.792-.354C44.248 60.832 38.32 64 32 64s-12.248-3.168-16.77-8.94c-.553.227-1.158.354-1.792.354-2.606 0-4.725-2.12-4.725-4.726 0-.642.129-1.254.362-1.813-2.725-2.11-4.89-4.544-6.443-7.247C.885 38.586 0 35.346 0 32c0-6.32 3.168-12.248 8.94-16.77-.227-.553-.354-1.158-.354-1.792 0-2.605 2.12-4.725 4.726-4.725.642 0 1.254.129 1.813.362 2.11-2.725 4.544-4.89 7.247-6.443C25.414.886 28.654 0 32 0zm14.74 53.463C42.212 55.236 37.135 56.17 32 56.17c-5.136 0-10.212-.935-14.74-2.708-.142.195-.298.379-.467.55C20.94 59.25 26.31 62.125 32 62.125s11.06-2.874 15.207-8.112c-.17-.171-.325-.355-.467-.55zM32 9.703c-4.927 0-9.782.897-14.102 2.597.09.365.14.746.14 1.138 0 2.606-2.12 4.726-4.726 4.726-.367 0-.724-.044-1.068-.123-1.663 4.286-2.54 9.092-2.54 13.959 0 4.927.896 9.782 2.596 14.102.365-.09.746-.14 1.138-.14 2.606 0 4.726 2.12 4.726 4.726 0 .367-.044.724-.123 1.068 4.286 1.663 9.092 2.54 13.959 2.54 4.867 0 9.673-.877 13.96-2.54-.08-.343-.124-.7-.124-1.068 0-2.606 2.12-4.726 4.726-4.726.392 0 .773.05 1.138.14 1.7-4.32 2.596-9.175 2.596-14.102 0-4.867-.877-9.673-2.54-13.96-.343.08-.7.124-1.068.124-2.606 0-4.726-2.12-4.726-4.726 0-.392.05-.773.14-1.138-4.32-1.7-9.175-2.596-14.102-2.596zM13.438 47.838c-1.572 0-2.85 1.28-2.85 2.851 0 1.572 1.278 2.85 2.85 2.85s2.85-1.278 2.85-2.85-1.278-2.85-2.85-2.85zm37.124 0c-1.572 0-2.85 1.28-2.85 2.851 0 1.572 1.278 2.85 2.85 2.85s2.85-1.278 2.85-2.85-1.278-2.85-2.85-2.85zM32 12.122c10.96 0 19.878 8.917 19.878 19.878 0 10.96-8.917 19.878-19.878 19.878-10.96 0-19.878-8.917-19.878-19.878 0-4.554 1.498-8.838 4.333-12.39.323-.405.913-.471 1.318-.148.404.323.47.913.148 1.317-2.567 3.217-3.924 7.097-3.924 11.22 0 5.05 2.09 9.619 5.449 12.89v-4.555c0-3.302 2.686-5.989 5.988-5.989h3.103v-2.85c0-.055.006-.108.015-.16-1.535-1.085-2.54-2.872-2.54-4.891v-5.05c0-2.606 2.12-4.726 4.725-4.726h2.526c2.605 0 4.725 2.12 4.725 4.725v5.051c0 2.019-1.005 3.806-2.54 4.891.01.052.015.105.015.16v2.85h3.103c3.302 0 5.988 2.687 5.988 5.989v4.556c3.36-3.273 5.449-7.842 5.449-12.89 0-9.927-8.076-18.003-18.003-18.003-4.066 0-7.903 1.322-11.095 3.824-.407.32-.997.248-1.316-.16-.32-.407-.248-.996.16-1.316 3.525-2.762 7.762-4.223 12.251-4.223zm-22.013 4.67C4.75 20.942 1.875 26.313 1.875 32l.004.383c.127 5.603 3.039 10.866 8.25 14.936.15-.147.308-.284.476-.41C8.788 42.34 7.829 37.206 7.829 32c0-5.136.935-10.212 2.708-14.74-.195-.142-.379-.298-.55-.467zm44.026 0c-.171.17-.355.326-.55.468 1.773 4.528 2.708 9.604 2.708 14.74 0 5.206-.959 10.34-2.776 14.909.168.126.327.263.476.41 5.33-4.162 8.254-9.573 8.254-15.319 0-5.689-2.874-11.06-8.112-15.207zM33.588 32.218c-.506.14-1.038.215-1.588.215s-1.082-.076-1.588-.215v2.129h3.176zm-.035-8.313c-1.813.545-3.714.858-5.666.933v1.607c0 2.268 1.845 4.113 4.113 4.113 2.268 0 4.113-1.845 4.113-4.113v-1.656c-.7-.097-1.672-.33-2.56-.884zm-.29-5.361h-2.526c-1.572 0-2.85 1.279-2.85 2.85v1.569c1.916-.081 3.774-.41 5.535-.981.296-.096.62-.04.865.152.572.446 1.275.657 1.826.758v-1.498c0-1.572-1.279-2.85-2.85-2.85zm-19.951-7.955c-1.572 0-2.85 1.279-2.85 2.85 0 1.572 1.278 2.851 2.85 2.851s2.85-1.279 2.85-2.85c0-1.573-1.278-2.851-2.85-2.851zm37.376 0c-1.572 0-2.85 1.279-2.85 2.85 0 1.572 1.278 2.851 2.85 2.851s2.85-1.279 2.85-2.85c0-1.572-1.278-2.851-2.85-2.851zM32 1.875c-5.747 0-11.157 2.924-15.32 8.254.148.15.285.308.411.476C21.66 8.788 26.795 7.829 32 7.829s10.34.959 14.909 2.776c.126-.168.263-.327.41-.476C43.157 4.799 37.746 1.875 32 1.875z" transform="translate(-176 -1584) translate(72 1544) translate(24 40) translate(80)"/>
                        <path fill="#F0AA3B" d="M26.372 49.1v-6.24c0-.519-.42-.938-.938-.938s-.938.42-.938.937v5.504c-1.127-.52-2.192-1.151-3.18-1.882.003-.029.005-.057.005-.086v-6.061c0-2.268 1.845-4.113 4.113-4.113h13.132c2.268 0 4.113 1.845 4.113 4.113v6.06c0 .03.002.059.005.087-.988.73-2.053 1.363-3.18 1.882v-5.504c0-.518-.42-.937-.938-.937s-.937.42-.937.937v6.242c-1.772.584-3.664.902-5.629.902-1.965 0-3.857-.318-5.628-.902z" transform="translate(-176 -1584) translate(72 1544) translate(24 40) translate(80)"/>
                    </g>
                </g>
            </g>
        </g>
    </g>
</svg>
