<svg xmlns="http://www.w3.org/2000/svg" width="64" height="64" viewBox="0 0 64 64">
    <g fill="none" fill-rule="evenodd">
        <g fill-rule="nonzero">
            <g>
                <g>
                    <g>
                        <g>
                            <g>
                                <path fill="#303337" d="M38.359.131c.483-.261 1.08-.122 1.404.328l4.272 5.938 7.19-.275c.546-.02 1.025.37 1.126.92l1.333 7.236 6.6 2.94c.5.223.768.788.626 1.329l-1.867 7.122 4.692 5.596c.353.423.353 1.046 0 1.47l-4.692 5.588 1.867 7.121c.142.542-.125 1.107-.627 1.33l-6.599 2.94-1.333 7.243c-.101.55-.58.942-1.126.92l-7.19-.274-4.272 5.934c-.324.45-.921.59-1.404.328L32 60.411l-6.359 3.457c-.483.263-1.08.123-1.404-.328l-4.274-5.937-7.19.275c-.544.013-1.019-.375-1.126-.92l-1.333-7.244-6.6-2.94c-.501-.223-.768-.788-.627-1.33l1.87-7.114-4.692-5.597c-.353-.424-.353-1.047 0-1.47l4.69-5.587-1.868-7.122c-.14-.541.128-1.107.63-1.328l6.599-2.94 1.333-7.244c.107-.546.582-.934 1.126-.92l7.19.275L24.237.463c.324-.45.921-.59 1.404-.328L32 3.59zm.198 2.458l-6.036 3.279c-.323.175-.71.175-1.033 0l-6.036-3.279L21.4 8.22c-.22.298-.566.47-.93.459l-6.824-.26-1.265 6.876c-.068.368-.31.678-.645.827l-6.263 2.788 1.766 6.757c.095.361.01.747-.228 1.03L2.557 32l4.45 5.304c.238.284.323.67.228 1.031L5.469 45.09l6.261 2.789c.336.148.578.458.646.826l1.266 6.877 6.824-.26c.365-.014.713.158.93.459l4.051 5.63 6.037-3.279c.323-.176.71-.176 1.033 0l6.036 3.278 4.052-5.63c.217-.3.564-.47.93-.458l6.823.26 1.261-6.876c.068-.368.31-.678.645-.827l6.263-2.788-1.766-6.757c-.095-.361-.01-.747.228-1.03L61.443 32l-4.445-5.304c-.238-.284-.323-.67-.229-1.031l1.766-6.755-6.261-2.789c-.336-.149-.578-.458-.646-.826l-1.265-6.877-6.825.26c-.363.009-.709-.162-.928-.459l-4.053-5.63zM32 9.388c10.906 0 20.173 8.171 21.795 19.22h2.482v2.262h-2.263c.019.376.056.748.056 1.13 0 12.487-9.88 22.61-22.07 22.61S9.93 44.487 9.93 32c0-.382.037-.754.056-1.13H7.723v-2.261h2.482C11.827 17.559 21.094 9.388 32 9.388zM14.432 30.87h-2.24c-.02.376-.055.748-.055 1.13C12.137 43.238 21.03 52.35 32 52.35c10.97 0 19.863-9.11 19.863-20.349 0-.382-.035-.754-.056-1.13h-2.239c-.545 3.89-3.8 6.78-7.636 6.78-3.837 0-7.091-2.89-7.637-6.78h-4.59c-.546 3.89-3.8 6.78-7.637 6.78-3.837 0-7.09-2.89-7.636-6.78zm26.396 11.304c0 3.073-3.937 6.783-8.828 6.783-2.244 0-4.425-.764-6.198-2.175l1.36-1.781c1.388 1.093 3.087 1.688 4.838 1.695 3.777 0 6.621-2.744 6.621-4.522zm-7.724-6.782v2.26c0 .625.494 1.131 1.103 1.131h1.104v2.261h-1.104c-1.828 0-3.31-1.519-3.31-3.391v-2.261h2.207zM32 11.652c-9.682.017-17.944 7.178-19.564 16.957h2.002c.733-4.514 5.858-4.522 7.63-4.522h.11c1.866.002 6.802.098 7.52 4.522h4.604c.733-4.514 5.857-4.522 7.63-4.522h.11c1.865.002 6.801.098 7.52 4.522h2.002c-1.62-9.78-9.882-16.94-19.564-16.958zm10.594 5.878c.669.514 1.3 1.075 1.891 1.681l-1.56 1.597c-.518-.529-1.07-1.02-1.656-1.47zM25.93 15.01c4.91-1.807 10.347-1.327 14.884 1.314l-1.104 1.959c-3.969-2.31-8.725-2.73-13.021-1.15z" transform="translate(-228 -6541) translate(0 4933) translate(72 816) translate(0 634) translate(0 118) translate(156 40)"/>
                                <path fill="#F0AA3B" d="M16.55 29.74c0-2.036.939-3.392 5.518-3.392 4.58 0 5.518 1.356 5.518 3.391 0 3.122-2.47 5.653-5.518 5.653-3.047 0-5.517-2.531-5.517-5.653zM36.414 29.74c0-2.036.938-3.392 5.518-3.392s5.517 1.356 5.517 3.391c0 3.122-2.47 5.653-5.517 5.653s-5.518-2.531-5.518-5.653z" transform="translate(-228 -6541) translate(0 4933) translate(72 816) translate(0 634) translate(0 118) translate(156 40)"/>
                            </g>
                        </g>
                    </g>
                </g>
            </g>
        </g>
    </g>
</svg>
