<svg xmlns="http://www.w3.org/2000/svg" width="56" height="64" viewBox="0 0 56 64">
    <g fill="none" fill-rule="evenodd">
        <g fill-rule="nonzero">
            <g>
                <g>
                    <g>
                        <g>
                            <path fill="#303337" d="M33.179 0c1.79 0 3.246 1.46 3.246 3.257v2.712c0 1.796-1.456 3.256-3.246 3.256h-1.116v2.342c4.566.713 8.746 2.61 12.22 5.366l1.864-1.87c-.853-1.204-.746-2.887.329-3.966 1.198-1.201 3.147-1.201 4.345 0l4.28 4.295c1.199 1.201 1.199 3.157 0 4.36-1.084 1.087-2.762 1.186-3.954.331l-1.952 1.959c3.2 4.369 5.094 9.758 5.094 15.584C54.29 52.169 42.496 64 28 64 13.504 64 1.71 52.169 1.71 37.626c0-5.826 1.895-11.215 5.095-15.584l-1.952-1.96c-1.196.859-2.874.753-3.954-.33-1.199-1.203-1.199-3.159 0-4.36l4.28-4.294c1.198-1.202 3.147-1.202 4.345 0 1.075 1.078 1.182 2.761.329 3.964l1.865 1.872c3.473-2.757 7.653-4.653 12.22-5.367V9.226H22.82c-1.79 0-3.246-1.461-3.246-3.257V3.257C19.575 1.46 21.03 0 22.82 0zM28 13.127c-13.465 0-24.42 10.99-24.42 24.499 0 13.509 10.955 24.499 24.42 24.499 13.465 0 24.42-10.99 24.42-24.5 0-13.508-10.955-24.498-24.42-24.498zm15.188 10.687c.397-.33.987-.274 1.315.125 3.166 3.837 4.909 8.698 4.909 13.687 0 11.845-9.605 21.481-21.412 21.481-4.965 0-9.804-1.744-13.626-4.91-.398-.33-.454-.92-.125-1.32.329-.399.917-.456 1.316-.126 3.487 2.89 7.904 4.481 12.435 4.481 10.776 0 19.543-8.795 19.543-19.606 0-4.554-1.59-8.99-4.48-12.491-.328-.4-.273-.99.125-1.32zM28 51.965c.516 0 .934.42.934.937v.943c0 .518-.418.938-.934.938s-.934-.42-.934-.938v-.943c0-.518.418-.937.934-.937zm0-35.82c4.875 0 9.467 1.602 13.28 4.631.405.322.474.911.153 1.317-.32.406-.908.475-1.312.153C36.64 19.481 32.449 18.02 28 18.02c-10.776 0-19.543 8.795-19.543 19.606 0 4.452 1.45 8.647 4.192 12.134.32.407.25.996-.155 1.317-.405.32-.993.25-1.313-.156-3.005-3.82-4.593-8.418-4.593-13.295 0-11.845 9.606-21.481 21.412-21.481zM16.69 47.814c.364-.366.956-.367 1.321 0 .365.366.365.96 0 1.325l-.665.667c-.365.367-.956.366-1.321 0s-.365-.96 0-1.325zm21.299 0c.365-.366.957-.366 1.322 0l.664.666c.365.367.365.96 0 1.326-.365.367-.956.367-1.321 0l-.665-.666c-.365-.367-.365-.96 0-1.326zM28.62 21.119c4.16.154 8.074 1.869 11.023 4.826 2.948 2.958 4.657 6.886 4.811 11.059.031.85-.652 1.56-1.5 1.56H31.16c-.404 1.367-1.667 2.368-3.16 2.368-1.817 0-3.296-1.483-3.296-3.306 0-1.497.998-2.765 2.362-3.17V22.624c0-.865.722-1.539 1.554-1.505zM28 36.195c-.787 0-1.427.642-1.427 1.43 0 .79.64 1.432 1.427 1.432s1.427-.642 1.427-1.431c0-.79-.64-1.431-1.427-1.431zm-15.061.659c.516 0 .934.42.934.938 0 .517-.418.937-.934.937h-.94c-.516 0-.934-.42-.934-.938 0-.517.418-.937.934-.937zm3.086-11.076c.365-.366.956-.366 1.321 0l.665.667c.365.366.365.96 0 1.325-.365.366-.957.366-1.321 0l-.665-.666c-.365-.366-.365-.96 0-1.326zM8.564 16.42l-2.36 2.367 1.769 1.773c.721-.85 1.494-1.656 2.316-2.409l-1.725-1.731zm38.872 0l-1.725 1.731c.821.753 1.595 1.558 2.316 2.41l1.768-1.774-2.359-2.367zm1.212-4.35c-.308 0-.616.117-.85.352-.47.471-.47 1.237 0 1.708l4.28 4.294c.47.472 1.232.472 1.702 0 .47-.47.47-1.237 0-1.708l-4.28-4.294c-.235-.235-.543-.353-.852-.353zm-40.445.352c-.47-.47-1.233-.47-1.703 0l-4.28 4.294c-.47.471-.47 1.237 0 1.708.47.472 1.232.472 1.702 0l4.28-4.294c.47-.47.47-1.237 0-1.708zm21.99-3.197h-4.387v2.118c.724-.06 1.455-.092 2.194-.092.739 0 1.47.032 2.194.092V9.226zm2.986-7.351H22.82c-.76 0-1.377.62-1.377 1.382v2.712c0 .762.618 1.381 1.377 1.381H33.18c.76 0 1.377-.62 1.377-1.381V3.257c0-.762-.618-1.382-1.377-1.382z" transform="translate(-495 -1584) translate(72 1544) translate(315) translate(24 40) translate(84)"/>
                            <path fill="#F0AA3B" d="M31.16 36.688c-.316-1.07-1.159-1.915-2.226-2.232V23.012c3.544.224 6.864 1.728 9.387 4.26 2.523 2.53 4.022 5.861 4.246 9.416H31.16z" transform="translate(-495 -1584) translate(72 1544) translate(315) translate(24 40) translate(84)"/>
                        </g>
                    </g>
                </g>
            </g>
        </g>
    </g>
</svg>
