<svg xmlns="http://www.w3.org/2000/svg" width="63" height="66" viewBox="0 0 63 66">
    <g fill="none" fill-rule="evenodd">
        <g fill-rule="nonzero">
            <g>
                <g>
                    <g>
                        <g>
                            <path fill="#303337" stroke="#FFF" stroke-width=".5" d="M39.04 0c.674 0 1.22.55 1.22 1.23h0v2.462h15.715c2.77 0 5.025 2.274 5.025 5.069h0v50.17C61 61.726 58.746 64 55.976 64h0H5.024C2.254 64 0 61.726 0 58.932h0V8.76c0-2.795 2.254-5.069 5.024-5.069H20.74V1.231C20.74.55 21.286 0 21.96 0c.674 0 1.22.55 1.22 1.23h0v2.462h14.64V1.231C37.82.55 38.365 0 39.04 0zm14.64 20.923H7.32v33.865c0 1.008.813 1.827 1.811 1.827h42.738c.998 0 1.81-.82 1.81-1.827h0V20.923zm-23.184 5.422c6.459.002 11.712 5.305 11.71 11.82-.002 6.513-5.257 11.812-11.713 11.812h0c-6.46-.001-11.713-5.303-11.712-11.818.001-6.515 5.257-11.814 11.713-11.814h0zm0 2.462c-2.478 0-4.806.972-6.557 2.738-1.753 1.766-2.718 4.115-2.718 6.614 0 2.499.964 4.849 2.714 6.615 1.75 1.768 4.078 2.742 6.555 2.742h0c5.114 0 9.274-4.195 9.277-9.351 0-5.159-4.158-9.356-9.27-9.358h0zm1.841 2.123c.582-.338 1.329-.13 1.664.462h0l1.527 2.708c.178.316.208.696.083 1.037-.126.341-.395.61-.735.73h0l-2.747.985c-.136.048-.273.07-.409.07-.502 0-.972-.314-1.15-.818-.188-.537.028-1.101.472-1.41-1.413-.224-2.878.431-3.606 1.765-.452.823-.558 1.775-.298 2.68.258.904.851 1.653 1.669 2.107 1.68.938 3.812.319 4.746-1.383.324-.594 1.066-.814 1.658-.482.59.328.804 1.077.477 1.672-1.08 1.975-3.113 3.093-5.205 3.093-.968 0-1.949-.24-2.856-.743-1.386-.773-2.393-2.044-2.833-3.58-.44-1.537-.26-3.153.506-4.554 1.301-2.382 3.988-3.487 6.495-2.92-.16-.536.038-1.13.542-1.419zM20.74 6.154H5.024C3.6 6.154 2.44 7.324 2.44 8.76h0v9.7h56.12v-9.7c0-1.438-1.16-2.607-2.585-2.607h0H40.26v4.034c.726.426 1.22 1.21 1.22 2.12 0 1.36-1.093 2.461-2.44 2.461-1.348 0-2.44-1.102-2.44-2.461 0-.909.494-1.694 1.22-2.12h0V6.154H23.18v4.034c.726.426 1.22 1.21 1.22 2.12 0 1.36-1.093 2.461-2.44 2.461-1.348 0-2.44-1.102-2.44-2.461 0-.909.494-1.694 1.22-2.12h0V6.154z" transform="translate(-807 -1583) translate(72 1544) translate(630) translate(24 40) translate(82)"/>
                            <path fill="#F0AA3B" d="M55.975 61.538H5.025c-1.426 0-2.585-1.17-2.585-2.607V20.923h2.44v33.865c0 2.365 1.907 4.289 4.251 4.289h42.738c2.344 0 4.251-1.924 4.251-4.289V20.923h2.44v38.008c0 1.438-1.16 2.607-2.585 2.607z" transform="translate(-807 -1583) translate(72 1544) translate(630) translate(24 40) translate(82)"/>
                        </g>
                    </g>
                </g>
            </g>
        </g>
    </g>
</svg>
