<svg xmlns="http://www.w3.org/2000/svg" width="64" height="64" viewBox="0 0 64 64">
    <g fill="none" fill-rule="evenodd">
        <g fill-rule="nonzero">
            <g>
                <g>
                    <path fill="#303337" d="M32.07 5.408c.453 0 .843.32.93.766l2.564 12.997h.596c.525 0 .95.425.95.95v10.726h1.258c.524 0 .95.426.95.95 0 .497-.38.904-.865.947v9.663h2.93c.524 0 .949.426.949.95 0 .526-.426.951-.95.951h-.548v17.79h22.217c.524 0 .949.426.949.951 0 .525-.425.951-.95.951H1.028c-.524 0-.949-.426-.949-.95 0-.526.425-.951.95-.951h22.216V44.308h-.548c-.525 0-.95-.426-.95-.95 0-.526.426-.951.95-.951h2.99V37.61c0-.525.425-.95.95-.95.524 0 .949.425.949.95v4.797h8.97v-9.66h-8.97v1.695c0 .525-.425.95-.95.95-.524 0-.95-.425-.95-.95v-1.698c-.483-.043-.863-.45-.863-.946 0-.526.425-.951.95-.951h1.257V20.121c0-.525.425-.95.95-.95h.596l2.563-12.997c.088-.445.478-.766.932-.766zm-.889 51.36c-.056.026-.112.053-.167.084-.7.39-1.135 1.132-1.135 1.934V62.1h1.302zm1.899.038V62.1h1.224v-3.312c0-.803-.435-1.544-1.135-1.935l-.007-.004c-.027-.015-.055-.028-.082-.042zm20.984 1.145c.524 0 .95.425.95.95 0 .525-.426.95-.95.95h-1.899c-.524 0-.949-.425-.949-.95 0-.525.425-.95.95-.95zm-38.733-.254c.524 0 .95.426.95.95 0 .526-.426.951-.95.951h-1.898c-.525 0-.95-.425-.95-.95 0-.525.425-.95.95-.95zm32.91-1.647c.525 0 .95.425.95.95 0 .525-.425.95-.95.95h-1.898c-.525 0-.95-.425-.95-.95 0-.525.426-.95.95-.95zm-39.618-.76c.524 0 .949.425.949.95 0 .525-.425.95-.95.95H6.725c-.524 0-.95-.425-.95-.95 0-.525.426-.95.95-.95zm10.315-12.923c.524 0 .95.425.95.95v6.368h1.201c.525 0 .95.426.95.95 0 .526-.425.951-.95.951h-2.15c-.525 0-.95-.425-.95-.95v-6.127c-.622.338-1.044.998-1.044 1.755 0 .525-.425.95-.95.95-.524 0-.95-.425-.95-.95 0-.757-.422-1.417-1.043-1.755v6.127c0 .525-.425.95-.95.95H9.635c-.524 0-.95-.425-.95-.95v-6.127c-.621.338-1.044.998-1.044 1.755 0 .525-.425.95-.949.95s-.95-.425-.95-.95c0-.757-.422-1.417-1.043-1.755v6.127c0 .525-.426.95-.95.95H.95c-.524 0-.949-.425-.949-.95 0-.525.425-.95.95-.95H2.8v-6.369c0-.525.425-.95.95-.95 1.173 0 2.228.523 2.942 1.349.714-.826 1.769-1.35 2.943-1.35.524 0 .949.426.949.951v6.368h1.519v-6.368c0-.525.425-.95.95-.95 1.173 0 2.228.523 2.942 1.349.714-.826 1.769-1.35 2.943-1.35zm41.187 0c.524 0 .949.425.949.95v6.368h1.85c.525 0 .95.426.95.95 0 .526-.425.951-.95.951h-2.8c-.524 0-.949-.425-.949-.95v-6.127c-.621.338-1.044.998-1.044 1.755 0 .525-.425.95-.95.95-.524 0-.949-.425-.949-.95 0-.757-.422-1.417-1.044-1.755v6.127c0 .525-.425.95-.949.95h-3.418c-.524 0-.949-.425-.949-.95v-2.127c0-.525.425-.95.95-.95.524 0 .949.425.949.95v1.176h1.519v-6.368c0-.525.425-.95.95-.95 1.173 0 2.228.523 2.942 1.349.714-.826 1.768-1.35 2.943-1.35zm-9.303 0c.524 0 .949.425.95.95v2.024c0 .525-.426.95-.95.95-.525 0-.95-.425-.95-.95v-.832c-.62.338-1.044.998-1.044 1.755 0 .525-.425.95-.949.95s-.95-.425-.95-.95c0-.757-.422-1.417-1.044-1.755v6.127c0 .525-.425.95-.949.95h-2.152c-.524 0-.949-.425-.949-.95 0-.525.425-.95.95-.95h1.202v-6.369c0-.525.425-.95.95-.95 1.173 0 2.228.523 2.942 1.349.714-.826 1.769-1.35 2.943-1.35zM32.07 33.253c2.206 0 4.002 1.798 4.002 4.008 0 2.209-1.796 4.007-4.002 4.007-2.207 0-4.003-1.798-4.003-4.007 0-2.21 1.796-4.008 4.003-4.008zm-.95 2.13c-.684.349-1.154 1.058-1.154 1.878 0 1.16.944 2.106 2.104 2.106.818 0 1.527-.471 1.874-1.156H32.07c-.525 0-.95-.426-.95-.95zm1.899 0v.927h.925c-.202-.398-.527-.724-.925-.926zm2.192-6.609h-6.283v2.073h6.283v-2.073zm0-7.702h-6.283v5.801h.767v-4.56c0-.525.425-.95.949-.95s.95.425.95.95v4.56h.952v-4.56c0-.525.425-.95.95-.95.523 0 .948.425.948.95v4.56h.767v-5.801zm-3.141-9.807l-1.56 7.906h3.118l-1.558-7.906zM32.07 0c.502 0 .918.392.947.895l.013.22.212-.056c.486-.128.988.147 1.143.625.156.48-.089.996-.557 1.18l-.204.08.118.184c.272.424.166.986-.241 1.282-.168.122-.364.181-.558.181-.275 0-.547-.119-.734-.348l-.14-.17-.138.17c-.32.39-.886.463-1.293.167-.406-.296-.512-.858-.24-1.282l.118-.185-.205-.08c-.468-.183-.712-.7-.557-1.179.155-.478.657-.753 1.143-.625l.212.055.013-.219c.03-.503.445-.895.948-.895z" transform="translate(-176 -1048) translate(72 1008) translate(104 40)"/>
                    <path fill="#F0AA3B" d="M38.936 62.099h-2.733v-3.312c0-1.49-.806-2.864-2.103-3.591l-.008-.005c-1.253-.699-2.75-.699-4.002 0-1.301.726-2.11 2.104-2.11 3.595V62.1h-2.837V51.686h13.793V62.1zM38.936 49.785h-1.282V46.88c0-.525-.425-.95-.949-.95s-.95.425-.95.95v2.906h-1.313V46.88c0-.525-.425-.95-.95-.95-.524 0-.949.425-.949.95v2.906H31.23V46.88c0-.525-.425-.95-.95-.95-.523 0-.949.425-.949.95v2.906h-1.313V46.88c0-.525-.425-.95-.95-.95-.524 0-.95.425-.95.95v2.906h-.975v-5.477H38.935v5.477z" transform="translate(-176 -1048) translate(72 1008) translate(104 40)"/>
                </g>
            </g>
        </g>
    </g>
</svg>
