<svg xmlns="http://www.w3.org/2000/svg" width="64" height="64" viewBox="0 0 64 64">
    <g fill="none" fill-rule="evenodd">
        <g fill-rule="nonzero">
            <g>
                <g>
                    <g>
                        <path fill="#303337" d="M64 35.097v2.064H37.161V64h-2.064V35.097H64zm-17.548 4.129c.983 0 1.87.552 2.305 1.42l.076.167 3.124 7.497 1.402-3.368c.403-.964 1.338-1.587 2.383-1.587.983 0 1.87.552 2.306 1.42l.076.167 5.36 12.864h-6.71v4.13H64V64H39.226v-2.065h6.193v-8.258h-6.71l5.36-12.864c.403-.964 1.338-1.587 2.383-1.587zm-17.549-4.13V64H26.84V37.161H0v-2.064h28.903zm20.818 18.581h-2.237v8.258h7.226v-4.129H48l1.72-4.129zM14.806 39.226l9.968 7.753v2.57H22.71V59.87H4.129V49.548H2.065V46.98l9.968-7.753h2.773zm1.71 14.451h-6.193v4.13h6.193v-4.13zm4.13-4.129H6.193v8.258h2.064v-6.193h10.323v6.193h2.064v-8.258zm-6.55-8.258h-1.355l-7.963 6.194H22.06l-7.962-6.194zM28.904 0v28.903H0V26.84h4.02L1.957 6.194h3.205C5.161 2.778 7.94 0 11.355 0c3.34 0 6.07 2.656 6.19 5.967l.003.227h3.206l-.826 8.258h4.846v12.387h2.065V0h2.064zm8.258 0v26.839h2.065V2.065h14.451v12.387h8.258v12.387H64v2.064H35.097V0h2.064zM22.71 16.516h-8.258V26.84h8.258V16.516zM5.523 8.258H4.237l1.858 18.58h6.292V14.453h5.466l.62-6.194h-1.286c-.853 2.402-3.141 4.13-5.832 4.13s-4.98-1.728-5.832-4.13zm46.09-4.129H41.29v22.71h6.194V14.452h4.129V4.129zm8.258 12.387H49.548V26.84h10.323V16.516zM45.419 22.71v2.064h-2.064V22.71h2.064zm-24.774 0v2.064h-4.129V22.71h4.13zm-10.322 0v2.064H8.258V22.71h2.065zm47.483 0v2.064h-2.064V22.71h2.064zm-4.129 0v2.064h-2.064V22.71h2.064zm-43.354-4.13v2.065H8.258v-2.064h2.065zm10.322 0v2.065h-4.129v-2.064h4.13zm33.032 0v2.065h-2.064v-2.064h2.064zm4.13 0v2.065h-2.065v-2.064h2.064zm-12.388 0v2.065h-2.064v-2.064h2.064zm-35.096-4.128v2.064H8.258v-2.064h2.065zm35.096 0v2.064h-2.064v-2.064h2.064zm0-4.13v2.065h-2.064v-2.064h2.064zm4.13 0v2.065h-2.065v-2.064h2.064zM11.354 2.066c-2.277 0-4.13 1.851-4.13 4.129 0 2.277 1.853 4.129 4.13 4.129s4.129-1.852 4.129-4.13c0-2.277-1.852-4.128-4.13-4.128zm1.032 1.032V5.16h2.065v2.065h-2.065V9.29h-2.064V7.226H8.258V5.16h2.065V3.097h2.064zm37.161 3.097v2.064h-2.064V6.194h2.064zm-4.129 0v2.064h-2.064V6.194h2.064z" transform="translate(-491 -1048) translate(72 1008) translate(315) translate(104 40)"/>
                        <path fill="#F0AA3B" d="M55.265 45.737c.161-.385.793-.385.954 0l4.168 10.005h-9.29l.86-2.065h2.237l-1.118-2.682 2.189-5.258zM45.975 41.608c.16-.385.792-.385.954 0l4.168 10.005h-9.29l4.168-10.005z" transform="translate(-491 -1048) translate(72 1008) translate(315) translate(104 40)"/>
                    </g>
                </g>
            </g>
        </g>
    </g>
</svg>
