<svg xmlns="http://www.w3.org/2000/svg" width="64" height="64" viewBox="0 0 64 64">
    <g fill="none" fill-rule="evenodd">
        <g fill-rule="nonzero">
            <g>
                <g>
                    <g>
                        <path fill="#303337" d="M64 49.545v-7.553L56.28 30.96H43.355v6.195h-.42l-5.434-9.964 4.522-2.827c2.127-1.33 3.396-3.621 3.396-6.13v-.374c0-3.573-2.667-6.65-6.204-7.155l-6.931-.99L40.03 6.83c1.37-.509 2.293-1.836 2.293-3.299 0-1.905-1.491-3.45-3.393-3.52l-.265-.009c-.417-.014-.815.043-1.201.166L25.696 3.941c-1.516.48-2.805 1.432-3.705 2.698-1.326-1.541-3.286-2.523-5.475-2.523-3.983 0-7.226 3.242-7.226 7.227 0 3.985 3.243 7.227 7.226 7.227 2.224 0 4.214-1.01 5.54-2.595 1.015 1.373 2.497 2.366 4.19 2.758l7.527 1.737-3.345 2.605c-.97.753-1.525 1.89-1.525 3.117 0 .663.17 1.322.49 1.906l4.988 9.057h-3.413v12.286c-2.353-.48-4.13-2.565-4.13-5.058h-2.064c0 2.846-2.315 5.162-5.161 5.162-2.846 0-5.161-2.316-5.161-5.162h-2.065c0 2.846-2.315 5.162-5.161 5.162-2.846 0-5.161-2.316-5.161-5.162H0c0 3.601 2.65 6.586 6.099 7.13-.442 2.4-2.54 4.227-5.067 4.227H0v1.033C0 60.758 3.242 64 7.226 64c2.625 0 4.928-1.407 6.193-3.507 1.266 2.1 3.569 3.507 6.194 3.507s4.928-1.407 6.193-3.507c1.097 1.819 2.973 3.115 5.162 3.43V64H64V53.675h-4.129v-4.13H64zm-47.484-33.04c-2.846 0-5.161-2.315-5.161-5.162s2.315-5.162 5.161-5.162c2.846 0 5.161 2.315 5.161 5.162s-2.315 5.163-5.16 5.163zm-9.29 45.43c-2.523 0-4.629-1.82-5.075-4.217 2.152-.335 3.993-1.625 5.075-3.42 1.082 1.795 2.922 3.085 5.074 3.42-.446 2.397-2.551 4.217-5.074 4.217zm1.127-10.422c2.147-.339 3.987-1.618 5.066-3.411 1.08 1.792 2.92 3.072 5.067 3.411-.442 2.4-2.542 4.227-5.067 4.227-2.525 0-4.624-1.826-5.066-4.227zm11.26 10.422c-2.523 0-4.629-1.82-5.075-4.217 2.153-.335 3.993-1.625 5.075-3.42 1.082 1.795 2.922 3.085 5.074 3.42-.445 2.397-2.551 4.217-5.074 4.217zm6.193-6.195c-2.524 0-4.624-1.826-5.066-4.227 2.147-.339 3.987-1.618 5.066-3.411 1.08 1.792 2.92 3.072 5.067 3.411-.442 2.4-2.542 4.227-5.067 4.227zm5.162 6.082c-2.047-.418-3.66-2.044-4.043-4.104 1.575-.245 2.977-1.005 4.043-2.097v6.201zm2.37-43.572l-6.628-1.53c-1.512-.349-2.784-1.376-3.466-2.762.317-.811.498-1.692.498-2.615 0-.95-.189-1.856-.524-2.689.612-1.306 1.714-2.306 3.104-2.745l11.773-3.775c.16-.051.327-.078.496-.068l.263.01c.788.027 1.404.666 1.404 1.455 0 .605-.38 1.155-.948 1.365L28.85 8.792l.083 2.53 5.926.847-1.52 6.081zm-2.135 8.853c-.155-.279-.235-.595-.235-.91 0-.586.265-1.13.727-1.488l.477-.371 3.122 3.122 5.29 9.7h-3.845l-5.536-10.053zM61.935 55.74v6.195H33.032V55.74h20.645v-2.065H33.032v-2.88h.004l-.004-.217V43.35H45.42v-2.065H33.032V39.22h18.043l6.731 9.618v4.837h-2.064v2.065h6.193zm-2.558-8.26L52.15 37.155h-6.732v-4.13h9.785l6.731 9.618v4.837h-2.558z" transform="translate(-806 -1048) translate(72 1008) translate(630) translate(104 40)"/>
                        <path fill="#F0AA3B" d="M36.914 12.463l2.01.287c2.525.36 4.43 2.558 4.43 5.11v.374c0 1.791-.907 3.429-2.426 4.378l-4.65 2.907-2.464-2.464 2.315-1.802v-2.358l-.778-.18 1.563-6.252z" transform="translate(-806 -1048) translate(72 1008) translate(630) translate(104 40)"/>
                    </g>
                </g>
            </g>
        </g>
    </g>
</svg>
