<svg xmlns="http://www.w3.org/2000/svg" width="71" height="64" viewBox="0 0 71 64">
    <g fill="none" fill-rule="evenodd">
        <g fill-rule="nonzero">
            <g>
                <g>
                    <g>
                        <g>
                            <g>
                                <path fill="#303337" d="M70.283 10.57c.435-.186.717-.615.717-1.089s-.282-.902-.717-1.089L62 4.837c-.366-.157-.786-.12-1.118.1-.332.219-.532.59-.532.989v9.837c-3.507-.847-7.064-1.473-10.65-1.873v-3.628l7.566-3.247c.435-.187.717-.615.717-1.09 0-.473-.282-.902-.717-1.088L48.983 1.28c-.366-.157-.786-.12-1.118.1-.332.22-.532.59-.532.99V13.63c-3.647-.356-7.306-.553-10.65-.593v-3.96L44.25 5.83c.434-.187.716-.615.716-1.09 0-.473-.282-.902-.716-1.089L35.966.096c-.365-.157-.785-.12-1.117.1-.332.219-.532.59-.532.99v11.858c-3.344.038-7.003.237-10.65.593v-3.375l7.566-3.247c.435-.187.717-.615.717-1.09 0-.473-.282-.902-.717-1.088L22.95 1.28c-.366-.157-.786-.12-1.118.1-.332.22-.532.59-.532.99v11.52c-3.586.4-7.143 1.025-10.65 1.872v-1.945l7.566-3.247c.435-.187.717-.616.717-1.09 0-.474-.282-.902-.717-1.089L9.933 4.837c-.366-.157-.786-.12-1.118.1-.332.219-.532.59-.532.989v10.492C3.353 17.925 0 19.948 0 22.518c.005.272.047.542.125.803l.009.064c.006.068.017.136.035.202l6.7 25.783C2.271 50.756 0 52.442 0 54.518 0 60.191 18.356 64 35.5 64S71 60.19 71 54.518c0-2.076-2.27-3.762-6.863-5.148l6.694-25.785c.015-.061.026-.123.033-.186l.01-.08c.079-.26.12-.53.126-.8 0-2.571-3.352-4.594-8.283-6.1v-2.601l7.566-3.247zm-7.566-2.846l4.095 1.757-4.095 1.758V7.724zM49.7 4.168l4.096 1.758L49.7 7.683V4.168zM36.683 2.983l4.096 1.758-4.096 1.757V2.983zM23.667 4.168l4.095 1.758-4.095 1.757V4.168zM10.65 7.724l4.096 1.757-4.096 1.758V7.724zm1.893 16.627l3.72 2.333c-.937.212-1.86.483-2.762.812-1.783-.373-3.546-.836-5.283-1.386 1.38-.73 2.829-1.32 4.325-1.76zm8.622-1.92l2.248 3.097c-1.317.144-2.571.31-3.737.496L15.653 23.5c1.685-.407 3.547-.763 5.509-1.068h.003zM55.363 23.5l-4.023 2.524c-1.165-.186-2.42-.356-3.737-.497l2.248-3.095c1.95.306 3.81.662 5.508 1.069l.004-.001zm7.427 2.607c-1.737.55-3.5 1.013-5.282 1.387-.903-.33-1.826-.601-2.763-.812l3.712-2.33c1.498.44 2.948 1.029 4.328 1.759l.005-.004zM35.5 27.259c5.462-.025 10.917.392 16.312 1.247-5.404.76-10.855 1.135-16.312 1.124-5.457.011-10.908-.364-16.312-1.124 5.395-.855 10.85-1.272 16.312-1.247zm9.358-1.99c-1.518-.125-3.093-.221-4.7-.284l.618-3.498c2.186.119 4.342.313 6.41.57l-2.328 3.211zm-7.092-.356c-.753-.014-1.509-.024-2.266-.024-.757 0-1.513.01-2.266.025l-.626-3.53c.963-.03 1.928-.05 2.892-.05s1.929.02 2.892.05l-.626 3.529zm-7.542-3.426l.618 3.498c-1.607.063-3.182.159-4.7.283l-2.327-3.21c2.067-.258 4.223-.447 6.409-.57zm11.193 34.028c-1.872.119-3.843.189-5.917.189-1.645 0-3.215-.049-4.733-.126v-4.615c0-1.964 1.59-3.556 3.55-3.556h3.55c1.96 0 3.55 1.592 3.55 3.556v4.552zm-3.55-10.478h-3.55c-3.266.004-5.913 2.655-5.917 5.926v4.465c-.81-.062-1.6-.133-2.367-.214v-4.251c.006-4.58 3.711-8.291 8.284-8.296h3.55c4.572.005 8.278 3.716 8.283 8.296v4.126c-.764.09-1.555.173-2.367.246v-4.372c-.004-3.271-2.65-5.922-5.916-5.926zm30.766 9.481c0 2.173-12.517 7.112-33.133 7.112-20.616 0-33.133-4.94-33.133-7.112 0-.48 1.11-1.659 5.123-2.87 2.407 3.893 15.604 6.426 28.01 6.426 12.406 0 25.603-2.533 28.01-6.426 4.012 1.211 5.123 2.39 5.123 2.87zm-.022-32.14l-.069.517c-.29.69-1.344 1.451-3.053 2.205-2.072-1.469-4.396-2.545-6.856-3.174-.036-.01-.067-.024-.102-.031-2.929-.84-5.912-1.473-8.93-1.896-.029-.009-.057-.009-.086-.014-4.642-.67-9.325-1.012-14.015-1.022-4.69.01-9.374.353-14.017 1.024-.028 0-.056 0-.084.013-3.018.422-6.004 1.056-8.934 1.896-.03.007-.061.017-.09.027-2.463.63-4.79 1.707-6.864 3.177-1.709-.754-2.763-1.515-3.053-2.205l-.069-.518c.345-2.094 8.296-4.955 20.07-6.259h.024c.029 0 .052-.014.08-.016 8.6-.926 17.274-.926 25.873 0 .029 0 .052.016.08.016h.026c11.773 1.304 19.724 4.165 20.069 6.26z" transform="translate(-1065 -6541) translate(0 4933) translate(72 816) translate(0 634) translate(840 118) translate(153 40)"/>
                                <path fill="#F0AA3B" d="M35.5 32c10.806 0 25.519-1.719 32.087-5.342l-6.035 23.21c-.03.105-.046.215-.046.325 0 .066.006.132.017.197-.304 1.123-5.106 3.178-13.01 4.376v-3.803c-.006-5.888-4.77-10.66-10.65-10.667h-3.546c-5.88.007-10.644 4.779-10.65 10.667v3.968c-8.611-1.167-13.887-3.375-14.193-4.552.01-.066.016-.132.016-.198 0-.13-.021-.26-.064-.382L3.413 26.66c6.568 3.622 21.28 5.34 32.087 5.34zM8.319 34.658l3.55 14.223c.132.527.605.897 1.148.897.097 0 .193-.012.287-.036.305-.076.567-.27.728-.54.162-.27.21-.592.134-.897l-3.55-14.223c-.163-.63-.803-1.011-1.434-.853-.63.158-1.015.796-.862 1.43h-.001z" transform="translate(-1065 -6541) translate(0 4933) translate(72 816) translate(0 634) translate(840 118) translate(153 40)"/>
                            </g>
                        </g>
                    </g>
                </g>
            </g>
        </g>
    </g>
</svg>
