<svg xmlns="http://www.w3.org/2000/svg" width="72" height="64" viewBox="0 0 72 64">
    <g fill="none" fill-rule="evenodd">
        <g fill-rule="nonzero">
            <g>
                <g>
                    <g>
                        <g>
                            <g>
                                <path fill="#303337" d="M46.078 4.79c.82 0 1.56.495 1.887 1.262 1.778 4.176 5.623 7.229 10.287 8.165.91.183 1.585.968 1.642 1.908.396 6.45-.725 13.047-3.24 19.077-.9 2.154-1.986 4.258-3.235 6.278.93.14 1.859.292 2.787.455 2.449-4.174 4.222-8.637 5.272-13.278.13-.58.701-.942 1.275-.81.573.133.932.71.8 1.289-1.04 4.605-2.763 9.04-5.12 13.21 1.685.328 3.369.692 5.05 1.095.797.19 1.296 1.002 1.112 1.81l-.74 3.23c2.397.631 4.795 1.34 7.145 2.11.488.16.848.557.963 1.063.114.507-.04 1.023-.411 1.383-.967.933-1.93 1.895-2.866 2.864.268 1.378.516 2.776.739 4.16.08.505-.1 1.007-.486 1.34-.267.232-.599.354-.938.354-.15 0-.303-.024-.451-.072-5.316-1.74-10.57-3.045-16.063-3.987h-.001l-.005-.001c-.052-.01-.097-.021-.14-.035l-.03-.01c-.095-.032-.184-.078-.264-.134l-.022-.015c-.039-.029-.075-.06-.11-.093l-.02-.021c-.03-.032-.06-.065-.086-.1-.004-.005-.01-.011-.014-.018-.029-.04-.054-.081-.077-.125l-.015-.027c-.023-.046-.042-.093-.059-.142 0-.003-.002-.005-.003-.008l-.003-.012-.003-.012-.019-.067-.008-.041-.01-.061-.005-.05c-.001-.017-.003-.034-.003-.052V56.57l.007-.068.002-.023.512-3.557-.56-.08c-2.031 2.09-4.258 4.039-6.629 5.794l-6.702 4.959c-.365.27-.792.405-1.22.405-.428 0-.855-.135-1.22-.405l-6.702-4.96c-2.37-1.754-4.597-3.702-6.63-5.793l-.559.08.512 3.557.002.024.006.066.002.043v.06l-.004.052-.005.05-.01.06-.008.042-.019.067-.006.024c0 .003-.002.005-.003.008-.016.049-.036.096-.059.142l-.015.028c-.023.043-.048.085-.077.124l-.014.019c-.027.034-.055.067-.086.099l-.02.02c-.034.034-.071.065-.11.094l-.022.015c-.08.056-.168.102-.264.134l-.03.01c-.043.014-.088.026-.134.033l-.01.002c-5.495.943-10.75 2.247-16.065 3.987-.148.049-.3.073-.45.073-.34 0-.672-.122-.94-.354-.385-.334-.566-.835-.485-1.341.223-1.383.471-2.78.739-4.16-.935-.966-1.897-1.928-2.866-2.863-.372-.36-.525-.876-.41-1.383.114-.506.474-.903.962-1.063 2.341-.768 4.732-1.474 7.12-2.103l-.74-3.23c-.184-.807.314-1.619 1.111-1.81 1.69-.405 3.38-.772 5.073-1.102-2.355-4.162-4.077-8.59-5.12-13.188-.132-.58.226-1.156.8-1.289.573-.132 1.144.23 1.275.808 1.052 4.634 2.825 9.09 5.272 13.259.93-.163 1.86-.316 2.79-.456-1.249-2.02-2.336-4.124-3.234-6.278-2.516-6.03-3.637-12.626-3.241-19.077.058-.94.733-1.725 1.642-1.908 4.663-.936 8.51-3.989 10.287-8.165.326-.767 1.067-1.263 1.886-1.263zm-1.734 47.376c-1.04.912-2.12 1.789-3.224 2.606l-3.906 2.89c-.363.269-.789.403-1.214.403-.425 0-.85-.134-1.214-.403l-3.906-2.89c-1.104-.818-2.185-1.694-3.225-2.606-1.172.093-2.344.206-3.516.338 1.626 1.568 3.367 3.042 5.197 4.396L36 61.83l6.663-4.93c1.83-1.354 3.572-2.828 5.197-4.396-1.171-.132-2.343-.245-3.516-.338zm-3.096-.2c-3.498-.174-6.998-.174-10.496 0 .458.366.92.725 1.387 1.07l3.86 2.858 3.862-2.858c.467-.345.929-.704 1.387-1.07zm-22.465 1.278c-1.232.202-2.464.427-3.694.673 1.328.367 2.644.756 3.96 1.17zm34.433 0l-.265 1.843c1.316-.414 2.633-.803 3.96-1.17-1.23-.246-2.462-.47-3.695-.673zM46.025 6.94h-20.05c-2.054 4.788-6.44 8.287-11.747 9.374-.366 6.104.7 12.345 3.081 18.053.976 2.339 2.185 4.618 3.593 6.787 10.051-1.314 20.145-1.314 30.196 0 1.408-2.17 2.617-4.448 3.593-6.787 2.381-5.709 3.446-11.95 3.08-18.053-5.307-1.087-9.692-4.586-11.746-9.374zM49.677 0c1.064 0 1.946.802 2.053 1.866.212 2.121 1.284 4.092 3.017 5.55 1.771 1.488 4.077 2.307 6.493 2.307.085 0 .245-.004.516-.022 1.181-.08 2.25.78 2.428 1.959.625 4.116.701 8.297.228 12.426-.068.59-.596 1.015-1.18.945-.584-.068-1.003-.602-.935-1.192.451-3.939.378-7.927-.218-11.854-.013-.083-.093-.146-.18-.138-.264.018-.487.027-.66.027-2.912 0-5.701-.996-7.854-2.805-2.147-1.804-3.483-4.259-3.767-6.918H22.382c-.284 2.66-1.62 5.114-3.767 6.918-2.152 1.809-4.942 2.805-7.854 2.805-.176 0-.396-.009-.672-.028-.087-.005-.166.055-.179.139-.596 3.928-.668 7.918-.215 11.858.068.59-.35 1.124-.935 1.192-.042.005-.083.008-.124.008-.533 0-.993-.404-1.057-.952-.475-4.13-.399-8.314.226-12.432.179-1.18 1.245-2.043 2.428-1.96.225.016.402.024.528.024 2.415 0 4.721-.82 6.492-2.308 1.734-1.457 2.806-3.428 3.018-5.55C20.377.803 21.26 0 22.324 0z" transform="translate(-644 -6541) translate(0 4933) translate(72 816) translate(0 634) translate(420 118) translate(152 40)"/>
                                <path fill="#F0AA3B" d="M4.861 59.292c.19-1.112.394-2.227.61-3.328.094-.471-.049-.958-.38-1.302-.766-.798-1.552-1.594-2.347-2.376 1.934-.614 3.896-1.181 5.857-1.699l.8 3.497c.065.28.237.522.478.673.138.086.292.136.45.153 1.9.453 3.75.942 5.586 1.475-3.728.783-7.382 1.742-11.054 2.907zM52.47 50.948l-.02-.002c-.696-.108-1.393-.208-2.09-.302-.03-.005-.058-.009-.086-.011-2.038-.272-4.078-.485-6.118-.64-.051-.008-.102-.011-.153-.012-5.335-.398-10.677-.398-16.011 0-.047.001-.095.004-.141.011-2.048.156-4.094.37-6.138.643-.024.002-.048.005-.071.01-.697.093-1.394.193-2.09.3l-.023.003-.027.005c-2.76.426-5.516.956-8.266 1.595l-1.638-7.153c17.515-4.101 35.263-4.103 52.78-.006l-1.637 7.153c-2.744-.637-5.494-1.165-8.247-1.59l-.023-.004zM66.908 54.662c-.33.344-.473.831-.38 1.302.217 1.1.421 2.216.61 3.328-3.672-1.165-7.325-2.124-11.054-2.907 1.872-.543 3.759-1.041 5.697-1.502l.014-.004c.018-.004.035-.01.052-.015l.051-.016c.015-.005.029-.012.043-.018l.057-.024.033-.018.06-.033.007-.004.022-.016c.02-.013.04-.026.058-.04l.029-.024.05-.043.03-.03c.015-.014.029-.028.042-.043l.03-.036.035-.045.028-.04.029-.046.024-.044.025-.049.019-.044.02-.054.015-.042.016-.06.005-.017.8-3.497c1.969.52 3.938 1.088 5.88 1.705-.793.78-1.58 1.577-2.347 2.376z" transform="translate(-644 -6541) translate(0 4933) translate(72 816) translate(0 634) translate(420 118) translate(152 40)"/>
                            </g>
                        </g>
                    </g>
                </g>
            </g>
        </g>
    </g>
</svg>
