<svg xmlns="http://www.w3.org/2000/svg" width="347" height="377" viewBox="0 0 347 377">
    <g fill="none" fill-rule="evenodd">
        <g fill-rule="nonzero">
            <g>
                <g>
                    <g transform="translate(-72 -4184) translate(0 3296) translate(72 690) translate(0 198)">
                        <path fill="#FFF" d="M0.974 26.82H91.913V112.964H0.974z"/>
                        <path fill="#D1D3D4" d="M91.897 113.778H.974c-.215.004-.423-.078-.576-.228-.154-.15-.24-.356-.24-.57V26.867c0-.215.086-.42.24-.57.153-.15.36-.233.576-.229h90.923c.215-.004.422.078.576.229.153.15.24.355.24.57v86.113c0 .214-.087.42-.24.57-.154.15-.361.232-.576.228zm-90.123-1.566h89.322V27.665H1.774v84.547z"/>
                        <path fill="#D1D3D4" d="M74.177 42.164H26.54c-.333.095-.69-.03-.89-.313-.2-.282-.2-.659 0-.94.2-.283.557-.408.89-.313h47.636c.333-.095.69.03.89.312.2.282.2.66 0 .941-.2.282-.557.408-.89.313zM18.097 42.164H16.34c-.35-.1-.591-.42-.591-.783 0-.364.241-.683.591-.783h1.727c.333-.095.69.03.89.312.2.282.2.66 0 .941-.2.282-.557.408-.89.313h.031zM56.143 52.967H26.54c-.333.095-.69-.03-.89-.312-.2-.282-.2-.66 0-.942.2-.282.557-.407.89-.312h29.602c.333-.095.69.03.89.312.2.282.2.66 0 .942-.2.282-.557.407-.89.312zM18.097 52.967H16.34c-.35-.1-.591-.42-.591-.783 0-.363.241-.683.591-.783h1.727c.333-.095.69.03.89.312.2.282.2.66 0 .942-.2.282-.557.407-.89.312h.031zM78.885 63.786H26.541c-.45 0-.816-.365-.816-.814 0-.45.366-.815.816-.815h52.344c.447.009.808.368.816.815 0 .45-.365.814-.816.814zM18.097 63.786H16.34c-.215 0-.42-.086-.571-.24-.15-.153-.233-.36-.229-.574 0-.444.356-.806.8-.815h1.727c.45 0 .816.365.816.815 0 .437-.346.797-.785.814zM62.342 74.589h-35.8c-.334.095-.69-.03-.89-.312-.2-.282-.2-.66 0-.941.2-.282.556-.408.89-.313h35.8c.35.1.592.42.592.783 0 .364-.241.683-.592.783zM18.097 74.589H16.34c-.35-.1-.591-.42-.591-.783 0-.363.241-.683.591-.783h1.727c.333-.095.69.03.89.313.2.281.2.659 0 .94-.2.283-.557.408-.89.313h.031zM75.746 85.408H26.541c-.35-.1-.592-.42-.592-.783 0-.363.242-.683.592-.783h49.205c.35.1.592.42.592.783 0 .364-.241.683-.592.783zM18.097 85.408H16.34c-.35-.1-.591-.42-.591-.783 0-.363.241-.683.591-.783h1.727c.333-.095.69.03.89.312.2.282.2.66 0 .942-.2.282-.557.407-.89.312h.031zM69.845 96.148H26.54c-.333.095-.69-.03-.89-.312-.2-.282-.2-.659 0-.941.2-.282.557-.407.89-.312h43.304c.333-.095.69.03.89.312.2.282.2.66 0 .941-.2.282-.557.407-.89.312zM18.097 96.148H16.34c-.35-.1-.591-.419-.591-.782 0-.364.241-.683.591-.783h1.727c.333-.095.69.03.89.312.2.282.2.66 0 .941-.2.282-.557.407-.89.312h.031z"/>
                        <path fill="#FFF" d="M275.83 25.239H341.59299999999996V120.495H275.83z"/>
                        <path fill="#D1D3D4" d="M341.577 121.294H275.83c-.215.004-.423-.079-.576-.229-.154-.15-.24-.356-.24-.57V25.239c0-.45.365-.815.816-.815h65.747c.451 0 .817.365.817.815v95.256c0 .214-.087.42-.24.57-.154.15-.362.233-.577.229zm-64.947-1.566h64.147V26.053H276.63v93.675z"/>
                        <path fill="#FFF" d="M283.693 37.842H296.78299999999996V50.9H283.693z"/>
                        <path fill="#D1D3D4" d="M296.783 51.714h-13.09c-.45 0-.816-.364-.816-.814V37.842c0-.45.365-.814.816-.814h13.09c.215 0 .421.086.572.24.15.153.233.36.229.574V50.9c0 .444-.356.806-.8.814zm-12.29-1.565h11.474V38.64h-11.473v11.508z"/>
                        <path fill="#D1D3D4" d="M288.888 48.41c-.067.016-.136.016-.204 0-.237-.063-.433-.23-.533-.453l-1.743-4.087c-.107-.393.095-.805.471-.964.377-.158.813-.014 1.02.338l1.35 3.131 9.747-7.06c.174-.128.392-.18.605-.144.213.035.402.154.525.331.128.174.18.391.144.603-.035.212-.155.401-.332.524l-10.5 7.625c-.157.12-.353.175-.55.157zM333.714 44.59h-29.366c-.333.095-.69-.03-.89-.312-.2-.282-.2-.66 0-.941.2-.282.557-.407.89-.312h29.366c.333-.095.69.03.89.312.2.282.2.66 0 .941-.2.282-.557.407-.89.312z"/>
                        <path fill="#FFF" d="M283.693 56.834H296.78299999999996V69.892H283.693z"/>
                        <path fill="#D1D3D4" d="M296.783 70.706h-13.09c-.45 0-.816-.364-.816-.814V56.834c0-.214.086-.42.24-.57.154-.15.361-.233.576-.228h13.09c.442 0 .8.357.8.798v13.058c.005.214-.078.422-.228.575-.15.153-.357.24-.572.24zm-12.29-1.566h11.474V57.648h-11.473V69.14z"/>
                        <path fill="#D1D3D4" d="M288.888 67.402h-.204c-.24-.068-.435-.24-.533-.47l-1.743-4.07c-.126-.398.07-.828.455-.993.385-.166.833-.014 1.037.351l1.35 3.131 9.746-7.06c.365-.257.868-.173 1.13.187.128.174.18.391.144.603-.035.213-.155.401-.332.524l-10.5 7.657c-.163.106-.356.155-.55.14zM333.714 63.582h-29.366c-.333.095-.69-.03-.89-.312-.2-.282-.2-.66 0-.941.2-.282.557-.407.89-.312h29.366c.333-.095.69.03.89.312.2.282.2.659 0 .941-.2.282-.557.407-.89.312z"/>
                        <path fill="#FFF" d="M283.693 75.826H296.78299999999996V88.88399999999999H283.693z"/>
                        <path fill="#D1D3D4" d="M296.783 89.698h-13.09c-.215.004-.422-.078-.576-.228-.154-.15-.24-.356-.24-.57V75.794c0-.215.086-.42.24-.57.154-.15.361-.233.576-.229h13.09c.442 0 .8.358.8.799v13.073c.01.217-.071.428-.223.585-.15.157-.36.245-.577.245zm-12.29-1.566h11.474V76.64h-11.473v11.492z"/>
                        <path fill="#D1D3D4" d="M288.888 86.41h-.204c-.241-.065-.439-.239-.533-.47l-1.743-4.07c-.173-.416.024-.892.44-1.065.198-.083.42-.083.618 0 .197.082.354.24.434.438l1.35 3.132 9.746-7.046c.233-.168.538-.2.8-.082.262.117.441.365.47.65.03.285-.095.564-.328.731l-10.5 7.625c-.157.12-.353.175-.55.157zM333.714 82.574h-29.366c-.333.095-.69-.03-.89-.312-.2-.282-.2-.66 0-.941.2-.282.557-.408.89-.313h29.366c.333-.095.69.03.89.313.2.281.2.659 0 .94-.2.283-.557.408-.89.313z"/>
                        <path fill="#FFF" d="M283.693 94.833H296.78299999999996V107.89099999999999H283.693z"/>
                        <path fill="#D1D3D4" d="M296.783 108.674h-13.09c-.215.004-.422-.078-.576-.228-.154-.15-.24-.356-.24-.57V94.832c0-.45.365-.814.816-.814h13.09c.215 0 .421.086.572.24.15.153.233.36.229.574v13.058c-.009.435-.365.783-.8.783zm-12.29-1.566h11.474V95.632h-11.473v11.476z"/>
                        <path fill="#D1D3D4" d="M288.888 105.402c-.067.015-.136.015-.204 0-.237-.064-.433-.23-.533-.454l-1.743-4.102c-.107-.394.095-.806.471-.964.377-.159.813-.014 1.02.337l1.35 3.132 9.747-7.062c.174-.127.392-.179.605-.143.213.035.402.155.525.331.128.174.18.391.144.603-.035.213-.155.402-.332.525l-10.5 7.64c-.157.12-.353.175-.55.157zM333.714 101.581h-29.366c-.333.095-.69-.03-.89-.312-.2-.282-.2-.66 0-.941.2-.282.557-.407.89-.312h29.366c.333-.095.69.03.89.312.2.282.2.66 0 .941-.2.282-.557.407-.89.312z"/>
                        <path fill="#FFF" d="M253.323 172.131H345.627V227.901H253.323z"/>
                        <path fill="#D1D3D4" d="M345.611 228.715H253.34c-.451 0-.817-.364-.817-.814v-55.77c-.008-.22.074-.433.229-.59.154-.158.367-.244.588-.24h92.288c.215-.004.423.078.576.229.154.15.24.355.24.57v55.77c.009.224-.076.441-.233.601-.157.16-.374.249-.599.244zm-91.488-1.566h90.688v-54.204h-90.688v54.204z"/>
                        <path fill="#D1D3D4" d="M345.611 184.907H253.34c-.334.095-.69-.03-.89-.312-.2-.282-.2-.66 0-.941.2-.282.556-.407.89-.313h92.288c.333-.094.69.03.89.313.2.282.2.659 0 .94-.2.283-.557.408-.89.313h-.016z"/>
                        <path fill="#D1D3D4" d="M268.045 228.308c-.215 0-.421-.086-.572-.24-.15-.153-.233-.36-.228-.574V172.13c.1-.35.42-.59.784-.59.365 0 .685.24.785.59v55.363c0 .432-.337.789-.769.814z"/>
                        <ellipse cx="23.434" cy="178.034" fill="#FFF" rx="17.359" ry="17.316"/>
                        <path fill="#D1D3D4" d="M23.434 196.164c-7.36.007-14-4.412-16.82-11.194-2.819-6.783-1.263-14.591 3.941-19.783 5.205-5.192 13.033-6.744 19.832-3.93 6.799 2.812 11.228 9.434 11.222 16.777-.017 10.006-8.145 18.113-18.175 18.13zm0-34.648c-9.145 0-16.559 7.395-16.559 16.518 0 9.122 7.414 16.518 16.559 16.518 9.145 0 16.558-7.396 16.558-16.518-.008-9.12-7.417-16.51-16.558-16.518z"/>
                        <path fill="#FFF" d="M22.194 169.094L22.194 178.034 32.27 170.706"/>
                        <path fill="#D1D3D4" d="M22.194 178.832c-.125-.001-.247-.028-.361-.078-.276-.135-.452-.414-.455-.72v-8.94c0-.45.365-.814.816-.814.45 0 .816.364.816.814v7.343l8.79-6.373c.228-.221.564-.29.862-.176.297.114.5.39.521.708.02.317-.146.617-.426.768l-10.14 7.312c-.12.095-.269.15-.423.156zM76.61 170.174H50.978c-.445-.008-.8-.37-.8-.814-.005-.215.078-.422.228-.575.151-.153.357-.24.572-.24h25.63c.217 0 .424.087.578.24.153.152.239.359.239.575 0 .216-.086.423-.24.576-.153.152-.36.238-.577.238zM76.61 178.425H50.978c-.35-.1-.592-.42-.592-.783 0-.363.242-.683.592-.782h25.63c.334-.095.69.03.89.312.2.282.2.659 0 .941-.2.282-.556.407-.89.312zM66.172 186.676H50.98c-.35-.1-.592-.419-.592-.782 0-.364.242-.683.592-.783h15.193c.35.1.592.419.592.783 0 .363-.242.683-.592.782z"/>
                        <ellipse cx="23.434" cy="221.607" fill="#FFF" rx="17.359" ry="17.316"/>
                        <path fill="#D1D3D4" d="M23.434 239.737c-10.038 0-18.175-8.117-18.175-18.13 0-10.013 8.137-18.13 18.175-18.13s18.175 8.117 18.175 18.13c-.009 10.01-8.141 18.122-18.175 18.13zm0-34.648c-9.145 0-16.559 7.395-16.559 16.518 0 9.122 7.414 16.518 16.559 16.518 9.145 0 16.558-7.396 16.558-16.518-.008-9.12-7.417-16.51-16.558-16.518z"/>
                        <path fill="#FFF" d="M22.194 212.682L22.194 221.607 32.27 214.295"/>
                        <path fill="#D1D3D4" d="M22.194 222.421c-.127 0-.251-.032-.361-.094-.278-.133-.455-.413-.455-.72v-8.925c0-.45.365-.814.816-.814.45 0 .816.365.816.814v7.343l8.79-6.388c.171-.128.388-.183.6-.15.213.032.404.149.53.323.13.174.184.392.152.607-.033.215-.15.407-.325.536l-10.14 7.311c-.124.09-.27.144-.423.157zM76.61 213.747H50.978c-.35-.1-.592-.42-.592-.783 0-.363.242-.683.592-.783h25.63c.334-.095.69.03.89.313.2.282.2.659 0 .94-.2.283-.556.408-.89.313zM76.61 221.998H50.978c-.35-.1-.592-.42-.592-.783 0-.363.242-.683.592-.782h25.63c.334-.095.69.03.89.312.2.282.2.66 0 .941-.2.282-.556.407-.89.312zM66.172 230.265H50.98c-.35-.1-.592-.42-.592-.783 0-.363.242-.683.592-.783h15.193c.35.1.592.42.592.783 0 .364-.242.683-.592.783z"/>
                        <path fill="#FFF" d="M197.557 236.23s12.792 38.688 5.886 38.735c-6.906.047-24.124-20.948-24.124-20.948l13.844-17.755"/>
                        <path fill="#231F20" d="M203.412 275.686c-7.173 0-23.936-20.354-24.642-21.215-.213-.26-.213-.633 0-.893l13.843-17.755c.142-.241.412-.379.69-.353.28.027.519.212.613.476.095.263.027.557-.173.754l-13.482 17.223c5.007 6.043 17.893 20.26 23.166 20.26.298.027.584-.127.722-.392 2.574-3.57-2.919-24.33-7.25-37.42-.107-.25-.064-.537.111-.745.175-.207.452-.3.716-.238.265.062.473.266.538.53 1.13 3.412 10.877 33.395 7.047 38.703-.412.619-1.108.99-1.852.986l-.047.079z"/>
                        <path fill="#303337" d="M152.26 146.25S99.243 213.246 95.9 237.06c-3.343 23.814 76.593 20.51 76.593 20.51l9.417-34.883s-41.938 2.99-37.135-4.54c4.803-7.531 34.232-36.011 34.232-36.011l4.457-39.831-31.202 3.945z"/>
                        <path fill="#303337" d="M162.306 258.432c-17.94 0-53.882-1.472-64.241-12.87-2.22-2.276-3.247-5.455-2.778-8.596 3.312-23.736 54.321-88.43 56.503-91.17.11-.143.275-.234.455-.25l31.234-3.914c.207-.029.416.04.565.188.155.144.23.353.204.563l-4.52 39.878c-.025.161-.102.31-.22.423-.283.282-29.429 28.48-34.122 35.87-.392.61-.298.94-.157 1.158 2.056 3.445 23.543 3.257 36.665 2.318.222-.016.439.078.58.25.153.17.207.407.141.626l-9.417 34.868c-.074.29-.328.499-.628.517-.659-.016-4.567.14-10.264.14zM152.7 146.877c-3.359 4.258-52.877 67.59-56.048 90.293-.412 2.732.49 5.499 2.433 7.468 12.556 13.856 67.082 12.447 72.936 12.26l9.072-33.46c-6.357.423-34.012 1.926-36.994-3.037-.479-.831-.41-1.868.173-2.63 4.708-7.28 31.469-33.334 34.169-36.01l4.269-38.642-30.01 3.758z"/>
                        <path fill="#303337" d="M171.535 142.414c0 2.772-23.23 131.08-34.781 183.186l8.287 47.362s32.96-61.626 50.084-119.525c17.123-57.899 21.204-100.078 21.204-100.078l-44.794-10.945z"/>
                        <path fill="#303337" d="M145.04 373.65h-.109c-.295-.042-.53-.27-.58-.563l-8.24-47.346c-.017-.088-.017-.179 0-.267 11.818-53.311 34.749-180.476 34.764-183.028-.003-.215.096-.418.267-.548.159-.14.376-.192.58-.141l44.764 10.96c.338.077.566.391.534.736 0 .422-4.27 42.915-21.236 100.203-16.967 57.289-49.817 118.992-50.147 119.634-.113.224-.345.364-.596.36zm-7.548-48.02l7.847 45.202c5.51-10.568 33.776-65.9 49.08-117.583 15.836-53.5 20.56-94.035 21.125-99.374l-43.413-10.6c-1.6 11.79-23.731 132.927-34.67 182.356h.03z"/>
                        <path fill="#F0AA3B" d="M202.313 55.128s-34.278-.72-50.413 12.196c-16.135 12.917-42.691 51.042-38.799 59.825 3.892 8.784 18.74 15.36 39.019.783l-5.996 26.24 72.041 11.195s19.604-86.112 17.642-92.281c-2.402-5.402-17.485-18.82-33.494-17.958z"/>
                        <path fill="#303337" d="M157.77 104.353c-.139.002-.275-.036-.393-.11-.295-.192-.408-.57-.266-.892.36-1.363 1.993-19.556 2.997-31.533.042-.388.379-.677.77-.658.392.033.686.375.659.767-1.742 20.761-2.81 31.565-3.14 32.097-.132.216-.373.343-.627.329z"/>
                        <path fill="#FFF" d="M185.284 47.268c-1.287.25-5.965-9.097-6.373-10.616-.627-2.285-.392-4.79-.941-6.967-.675-2.724-2.873-5.182-4.52-7.374-2.075-2.4-3.54-5.262-4.27-8.345-.502-3.132.77-6.733 3.657-7.985 3.767-1.566 9.182.923 11.709-2.302.385-.643.827-1.25 1.318-1.816 1.045-.677 2.33-.877 3.532-.548 3.875.587 7.581 1.985 10.877 4.102.652.563 1.491.864 2.354.845.753-.125 1.303-.735 2.009-1.002 1.273-.32 2.624-.062 3.688.705 7.754 4.353 11.191 10.443 10.218 19.164L216.8 40.786l-31.516 6.482z"/>
                        <path fill="#303337" d="M185.158 48.004c-.55 0-1.57-.564-4.018-5.026-1.131-1.967-2.107-4.02-2.92-6.138-.3-1.242-.479-2.511-.533-3.789-.045-1.053-.182-2.1-.408-3.131-.764-2.21-1.965-4.243-3.531-5.98l-.88-1.144c-2.143-2.49-3.65-5.46-4.394-8.658-.518-3.241.706-7.296 4.08-8.752 1.794-.618 3.702-.832 5.588-.627 2.464 0 4.599.126 5.839-1.456.157-.203.298-.422.44-.642.257-.474.59-.902.988-1.268 1.192-.83 2.689-1.1 4.097-.736 3.969.62 7.764 2.06 11.143 4.228.528.437 1.183.695 1.868.736.334-.093.648-.247.926-.455.295-.196.604-.369.926-.516 1.477-.396 3.053-.115 4.3.767 8.115 4.54 11.568 11.038 10.595 19.853l-1.742 15.657c-.04.302-.266.547-.565.61l-31.532 6.451c-.088.014-.178.02-.267.016zM176.683 6.09c-1.202-.056-2.404.13-3.532.548-2.668 1.159-3.657 4.572-3.233 7.218.72 2.96 2.135 5.708 4.128 8.016l.863 1.128c1.691 1.895 2.983 4.11 3.798 6.513.249 1.128.396 2.275.44 3.429.056 1.186.219 2.365.486 3.523.424 1.565 4.41 9.284 5.666 10.067l30.889-6.263 1.68-15.171c.925-8.298-2.214-14.091-9.858-18.46-.904-.655-2.044-.9-3.139-.673-.243.106-.475.237-.69.391-.434.321-.932.545-1.46.658-1.037.061-2.059-.275-2.856-.94-3.215-2.066-6.83-3.432-10.61-4.008-.996-.284-2.065-.143-2.951.392-.279.278-.516.595-.706.94-.155.267-.328.523-.518.766-1.695 2.161-4.395 2.083-7 2.005l-1.397-.079z"/>
                        <path fill="#FFF" d="M190.856 53.624l-.785 13.043s.91 7.358 8.993 5.573c4.828-1.11 8.898-4.33 11.081-8.767 0 0 1.758-31.314 2.37-39.534-5.038-.36-9.778 1.002-14.958 0-4.424-.943-8.765-2.242-12.98-3.883-.926 9.05-3.83 17.223-2.464 26.288.942 6.247 8.743 7.28 8.743 7.28z"/>
                        <path fill="#303337" d="M196.678 73.242c-1.509.035-2.99-.403-4.237-1.252-1.681-1.276-2.805-3.149-3.14-5.23l.754-12.525c-1.993-.423-7.848-2.098-8.695-7.734-.942-6.263.078-11.93 1.146-17.943.502-2.771 1.02-5.621 1.318-8.533.017-.272.197-.507.455-.595.197-.1.43-.1.628 0 4.177 1.623 8.475 2.916 12.854 3.867 2.809.404 5.658.44 8.476.11 2.127-.223 4.268-.281 6.404-.172.19.01.367.102.486.25.123.144.19.327.189.517-.613 8.173-2.355 39.142-2.37 39.518.008.083.008.167 0 .25-2.26 4.66-6.523 8.042-11.584 9.19-.881.191-1.781.286-2.684.282zm-5.901-6.544c.246 1.823 1.31 3.435 2.893 4.38 1.583.945 3.51 1.12 5.237.474 4.55-1.082 8.387-4.113 10.485-8.283.125-2.176 1.68-29.842 2.307-38.672-1.834-.043-3.668.025-5.493.203-2.939.35-5.911.303-8.837-.14-4.152-.893-8.225-2.118-12.18-3.664-.313 2.646-.769 5.229-1.224 7.734-1.051 5.887-2.056 11.46-1.145 17.473.847 5.62 8.067 6.639 8.13 6.654.378.041.655.374.628.752l-.801 13.042v.047z"/>
                        <path fill="#303337" d="M190.557 60.028c3.22.237 6.407-.773 8.9-2.818 2.064-1.712 3.27-4.243 3.296-6.92-3.642 2.072-7.739 3.217-11.929 3.334l-.267 6.404z"/>
                        <path fill="#303337" d="M191.42 60.748c-.303.018-.607.018-.91 0-.36-.033-.63-.344-.612-.704l.267-6.42c.004-.184.083-.358.22-.483.136-.124.318-.187.502-.174 4.051-.136 8.01-1.248 11.536-3.241.206-.117.458-.123.67-.016.211.107.355.313.382.548-.003 2.883-1.285 5.617-3.5 7.469-2.386 2.016-5.429 3.09-8.554 3.021zm-.11-1.377c2.793.07 5.515-.877 7.66-2.662 1.558-1.353 2.614-3.19 2.998-5.214-3.252 1.678-6.828 2.639-10.485 2.818l-.172 5.058z"/>
                        <path fill="#FFF" d="M197.15 35.682s-4.552 6.028-3.61 7.17c.941 1.143 3.782.58 3.782.58"/>
                        <path fill="#303337" d="M195.815 44.277c-1.033.094-2.056-.26-2.81-.97-1.067-1.3 1.366-5.089 3.595-8.048.237-.294.662-.356.973-.14.149.108.248.273.274.455.027.182-.021.368-.133.515-2.087 2.771-3.767 5.762-3.594 6.388.424.5 2.056.485 3.06.282.38-.069.746.173.833.548.067.374-.176.735-.55.814-.543.103-1.095.155-1.648.156zM195.47 49.178c-2.21-.08-4.285-1.086-5.713-2.771-.171-.18-.233-.436-.164-.673.07-.237.262-.42.503-.478.24-.058.494.017.665.196 1.24 1.485 3.085 2.336 5.023 2.317 3.657-.204 6.576-4.04 6.608-4.071.11-.148.274-.247.457-.273.182-.027.368.02.516.132.302.232.364.662.14.97-.14.173-3.342 4.385-7.627 4.698l-.408-.047zM184.954 35.416c-.778 0-1.524-.31-2.072-.862-.565-.545-.882-1.297-.879-2.082v-2.677c-.004-.779.3-1.528.848-2.083.552-.557 1.302-.878 2.087-.892h7.393c.78-.003 1.53.3 2.087.845.547.565.86 1.314.88 2.098v2.662c.008 1.63-1.301 2.965-2.936 2.99h-7.408zm7.424-7.265h-7.393c-.419.001-.82.17-1.114.47-.288.297-.446.697-.44 1.111v2.677c.007.413.176.807.471 1.096.29.303.696.468 1.115.454h7.392c.867 0 1.57-.7 1.57-1.565v-2.678c0-.864-.703-1.565-1.57-1.565h-.031zM199.74 35.29c-1.605-.042-2.888-1.343-2.905-2.943v-2.662c0-1.633 1.314-2.965 2.951-2.99h7.393c.782.003 1.531.312 2.087.86.565.547.883 1.299.879 2.083V32.3c.02.786-.287 1.545-.848 2.098-.55.562-1.3.883-2.087.892h-7.471zm7.423-7.264h-7.393c-.866 0-1.57.7-1.57 1.565v2.678c.007.412.176.806.472 1.095.29.303.695.468 1.114.455h7.393c.866 0 1.57-.701 1.57-1.566v-2.677c-.007-.413-.176-.807-.472-1.096-.307-.305-.728-.47-1.161-.454h.047z"/>
                        <path fill="#303337" d="M194.607 30.39c-.382 0-.69-.309-.69-.69 0-.38.308-.688.69-.688h2.856c.382 0 .69.308.69.689-.007.38-.31.688-.69.704l-2.856-.015zM216.784 35.087c-.14-.003-.276-.047-.392-.126l-7.393-4.869c-.32-.212-.408-.643-.196-.963.212-.32.645-.407.965-.195l7.471 4.947c.314.212.404.634.204.955-.159.195-.41.29-.659.25z"/>
                        <path fill="#FFF" d="M209.784 36.073c1.57-1.879 3.861-5.292 6.702-4.055.75.35 1.394.89 1.868 1.566 2.181 2.865 1.57 6.497-.079 9.394-1.46 2.536-5.838 6.263-8.507 2.818"/>
                        <path fill="#303337" d="M212.39 47.925c-1.252-.024-2.417-.64-3.14-1.66-.2-.196-.267-.49-.172-.754.094-.263.333-.449.612-.475.28-.026.549.111.69.353.5.737 1.355 1.154 2.245 1.096 2.157-.507 3.998-1.9 5.07-3.836 1.82-3.131 1.867-6.357.14-8.627-.398-.575-.939-1.039-1.569-1.346-1.946-.846-3.688 1.111-5.477 3.381l-.361.47c-.144.243-.417.38-.698.35-.281-.029-.52-.22-.61-.487-.089-.268-.014-.563.193-.755l.345-.454c1.57-1.942 4.066-5.183 7.189-3.82.866.403 1.612 1.023 2.166 1.8 2.087 2.756 2.072 6.56 0 10.208-.973 1.66-3.516 4.368-6.278 4.556h-.346z"/>
                        <ellipse cx="190.844" cy="32.173" fill="#303337" rx="1" ry="1.707" transform="rotate(-.48 190.844 32.173)"/>
                        <ellipse cx="202.654" cy="33.014" fill="#303337" rx="1" ry="1.707" transform="rotate(-.48 202.654 33.014)"/>
                        <path fill="#FFF" d="M176.075 75.366L179.794 75.37 179.818 103.781 176.1 103.778z" transform="rotate(-22.36 177.947 89.574)"/>
                        <path fill="#303337" d="M181.642 104.133c-.292 0-.555-.18-.659-.454l-10.83-26.319c-.076-.174-.078-.371-.003-.546.074-.175.217-.312.396-.378l3.437-1.424c.176-.07.373-.07.55 0 .175.068.317.203.392.375l10.83 26.273c.077.174.077.373 0 .548-.07.18-.213.321-.393.391l-3.437 1.41c-.082.064-.18.108-.283.124zm-9.888-26.616l10.28 24.894 2.12-.86-10.28-24.958-2.12.924z"/>
                        <path fill="#FFF" d="M172.481 75.939L177.549 75.943 177.56 88.912 172.493 88.907z" transform="rotate(-22.36 175.02 82.425)"/>
                        <path fill="#303337" d="M175.145 90.09c-.094.014-.19.014-.283 0-.173-.08-.313-.22-.392-.392l-4.944-12.025c-.143-.367.03-.781.392-.939l4.709-1.926c.177-.062.371-.062.549 0 .173.075.308.216.377.392l4.944 11.993c.076.174.078.371.003.546-.074.175-.217.312-.396.377l-4.708 1.926c-.081.03-.166.045-.251.047zm-4.018-12.307l4.394 10.662 3.359-1.378-4.395-10.662-3.358 1.378z"/>
                        <path fill="#303337" d="M180.858 87.052h-.173c-1.727-.423-1.962-3.241-2.229-6.263-.037-1.058-.195-2.109-.47-3.131-.061-.186-.207-.331-.393-.392-.591-.05-1.18.11-1.664.454-.335.2-.77.104-.989-.219-.106-.157-.144-.35-.105-.536.038-.185.15-.348.31-.45.822-.601 1.846-.86 2.856-.72.594.167 1.076.601 1.303 1.174.366 1.183.567 2.41.596 3.648.141 1.566.424 4.79 1.146 4.963.337.101.552.43.509.777-.043.348-.33.615-.682.632l-.015.063z"/>
                        <path fill="#FFF" d="M162.51 98.967s5.085-9.3 9.511-9.034c4.426.266 11.144 12.102 11.144 12.102l-20.655-3.068z"/>
                        <path fill="#303337" d="M183.165 102.756h-.11l-20.64-3.132c-.232-.03-.436-.17-.549-.375-.101-.213-.101-.46 0-.674.55-.986 5.478-9.707 10.17-9.394 4.694.313 10.988 11.226 11.74 12.526.142.236.142.53 0 .767-.147.185-.374.29-.611.282zm-19.51-4.337l18.129 2.693c-2.276-3.727-6.875-10.303-9.81-10.475-2.935-.172-6.53 4.932-8.318 7.782z"/>
                        <path fill="#303337" d="M210.459 158.087L200.696 101.738 151.837 94.802 161.034 150.337z"/>
                        <path fill="#303337" d="M210.459 158.776h-.11l-49.424-7.829c-.294-.047-.526-.272-.581-.563l-9.182-55.472c-.04-.215.024-.436.173-.595.156-.158.376-.233.596-.204l48.86 6.952c.3.033.54.265.58.563l9.763 56.365c.044.217-.027.442-.189.595-.127.13-.304.199-.486.188zm-48.828-9.034l47.98 7.515-9.511-54.846-47.431-6.732 8.962 54.063z"/>
                        <path fill="#F0AA3B" d="M235.807 73.086s34.765 70.017 21.565 76.718c-13.2 6.702-43.947-11.554-43.947-11.554l-.11-14.561 23.418 2.317-17.296-15.766 16.37-37.154z"/>
                        <path fill="#FFF" d="M208.277 124.707l10.296 1.644c1.326 1.61 2.097 3.602 2.198 5.683-.048 2.505-1.196 4.863-3.14 6.45l-8.13-2.724s1.633-7.734-1.224-11.053z"/>
                        <path fill="#303337" d="M217.647 139.205c-.077.015-.157.015-.235 0l-8.115-2.724c-.343-.112-.551-.46-.486-.815 0 0 1.57-7.437-1.083-10.443-.189-.23-.22-.552-.079-.814.147-.261.441-.405.738-.36l10.296 1.566c.164.027.314.11.424.235 1.441 1.738 2.273 3.899 2.37 6.153-.032 2.704-1.255 5.258-3.343 6.983-.13.13-.303.209-.487.219zm-7.314-3.914l7.126 2.395c1.616-1.428 2.556-3.468 2.59-5.62-.088-1.825-.735-3.58-1.852-5.027l-8.476-1.362c1.491 3.179.895 7.907.612 9.614z"/>
                        <path fill="#FFF" d="M208.277 124.707c-.807-.436-1.692-.707-2.605-.799-1.71-.172-10.72-1.566-11.662.376-.722 1.472 0 1.753 0 1.753s-2.652 0-1.962 2.38c0 0-1.161 2.646.973 3.366 0 0-1.38.752.252 1.989 2.982 2.254 13.529 7.593 16.668 4.963 1.034-.957 1.747-2.209 2.04-3.585 1.036-3.915-.314-8.58-3.704-10.443z"/>
                        <path fill="#303337" d="M207.493 140.144c-4.71 0-12.353-4.07-14.644-5.808-.657-.386-1.062-1.088-1.067-1.848.013-.18.061-.355.14-.517-.282-.232-.508-.527-.658-.86-.333-.884-.333-1.858 0-2.74-.191-.68-.07-1.408.33-1.99.339-.426.806-.733 1.333-.876-.002-.546.133-1.085.393-1.566.879-1.785 5.226-1.565 11.473-.876l.91.11c1.008.09 1.986.388 2.873.876 3.5 1.926 5.242 6.748 4.08 11.242-.322 1.53-1.125 2.917-2.291 3.96-.823.625-1.84.94-2.872.893zm-13.075-14.702c.241.163.364.45.314.736-.067.336-.362.579-.706.58-.455.002-.892.175-1.224.485-.152.306-.152.665 0 .97.046.16.046.328 0 .486-.27.573-.321 1.225-.142 1.832.135.284.387.496.691.58.27.086.462.327.487.61.026.284-.123.557-.377.689-.079 0-.173.156-.173.203 0 .047.079.266.503.58 3.405 2.583 13.262 7.108 15.773 4.994.932-.857 1.57-1.986 1.821-3.225 1.02-3.867-.44-8.017-3.375-9.63-.717-.392-1.508-.632-2.322-.704l-.942-.11c-8.491-1.048-9.825-.297-10.014 0-.2.267-.31.591-.314.924z"/>
                        <path fill="#FFF" d="M194.026 126.037L203.757 126.992"/>
                        <path fill="#303337" d="M203.757 127.713l-9.731-.94c-.358-.075-.603-.404-.571-.768.032-.363.331-.645.697-.657l9.746.94c.39.049.672.393.644.783-.05.388-.394.67-.785.642z"/>
                        <path fill="#FFF" d="M192.127 128.417s7.455 2.067 10.17 1.754"/>
                        <path fill="#303337" d="M201.544 130.907c-3.299-.29-6.562-.894-9.747-1.8-.38-.114-.598-.513-.486-.893.047-.184.168-.34.334-.432.167-.092.363-.111.545-.054 2.04.564 7.847 1.973 9.903 1.723.392-.038.744.238.8.626.047.393-.233.75-.627.798-.24.027-.48.038-.722.032z"/>
                        <path fill="#FFF" d="M192.3 131.376c2.747 1.436 5.738 2.35 8.82 2.693"/>
                        <path fill="#303337" d="M201.12 134.79c-3.2-.343-6.305-1.288-9.15-2.787-.167-.087-.293-.237-.349-.416-.056-.18-.038-.373.05-.54.088-.17.24-.299.422-.357.183-.06.381-.043.552.044 2.642 1.393 5.522 2.28 8.49 2.615.191 0 .373.076.506.212s.205.319.201.508c0 .398-.323.72-.722.72zM177.106 99.828c-.251.005-.486-.127-.612-.345-.841-1.467-1.835-2.842-2.966-4.102-.192-.174-.27-.441-.201-.691.069-.25.272-.44.527-.493.254-.052.516.042.678.245 1.203 1.338 2.256 2.802 3.14 4.368.09.16.112.349.062.525-.05.176-.169.326-.33.415-.09.05-.193.076-.298.078zM172.822 99.577c-.214-.003-.415-.1-.55-.266-.886-1.064-1.947-1.97-3.139-2.677-.28-.213-.355-.602-.174-.903.182-.3.56-.418.88-.271 1.342.791 2.537 1.808 3.532 3.006.162.208.191.49.074.727s-.359.386-.623.384zM227.441 122.233h-.125c-.389-.072-.648-.442-.581-.83l7.22-39.58c.045-.25.22-.456.458-.541.238-.086.505-.038.698.125.194.163.286.417.24.666l-7.125 39.58c-.064.372-.41.627-.785.58zM250.356 131.611c-.238 0-.461-.117-.596-.313-1.946-2.928-10.092-4.306-13.074-4.603l-18.144-1.785c-.277.003-.531-.152-.655-.4-.123-.247-.094-.543.076-.761.17-.218.45-.32.72-.264l18.144 1.785c.47 0 11.395 1.159 14.126 5.23.106.157.144.35.106.536-.039.185-.15.348-.31.45-.115.08-.252.124-.393.125zM120.54 118.068c-.29-.006-.549-.187-.655-.457-.107-.27-.04-.578.169-.78 5.729-5.37 32.301-16.393 33.431-16.862.368-.142.783.03.942.391.151.368-.025.788-.393.94-.266.11-27.466 11.382-32.96 16.565-.139.143-.334.217-.533.203z"/>
                        <path fill="#FFF" d="M126.207 315.078c.533 0 4.802-.767 9.417 4.024 4.614 4.791 13.121 34.226 13.843 41.569.344 4.538-1.266 9.008-4.426 12.29l-18.834-57.883z"/>
                        <path fill="#303337" d="M145.04 373.666h-.187c-.237-.062-.426-.238-.503-.47l-18.834-57.93c-.076-.224-.035-.47.11-.657.14-.186.365-.286.596-.267h.204c3.717-.108 7.287 1.448 9.731 4.243 4.897 5.058 13.341 34.93 14.048 42.008.357 4.765-1.358 9.454-4.709 12.87-.123.118-.284.19-.455.203zm-17.86-57.93l18.143 55.785c2.518-3.016 3.762-6.89 3.47-10.803-.754-7.656-9.277-36.637-13.656-41.146-2.03-2.304-4.917-3.679-7.989-3.805l.032-.031z"/>
                        <path fill="#FFF" d="M147.301 366.73s-6.969-35.228-13.247-45.123c-6.278-9.895-11.928-8-12.4 2.16-.47 10.162 8.555 46.611 14.66 50.698 6.106 4.086 12.321-1.535 10.987-7.735z"/>
                        <path fill="#303337" d="M140.568 376.563c-1.692-.039-3.332-.584-4.709-1.566-6.608-4.43-15.413-41.992-14.973-51.339.235-5.167 1.868-8.533 4.473-9.206 2.605-.673 6.074 1.644 9.26 6.717 6.278 9.88 13.059 43.839 13.357 45.405.742 3.336-.602 6.789-3.406 8.752-1.18.802-2.574 1.233-4.002 1.237zm-14.126-60.749c-.209-.024-.42-.024-.628 0-1.915.501-3.139 3.46-3.406 7.907-.47 10.02 8.57 46.188 14.346 50.102 2.073 1.585 4.923 1.692 7.11.266 2.318-1.636 3.425-4.5 2.81-7.265-.08-.36-7.11-35.212-13.185-44.888-2.574-3.883-5.1-6.122-7.11-6.122h.063z"/>
                        <path fill="#FFF" d="M153.077 244.998h-.188c-.389-.071-.648-.441-.581-.83l13.137-70.675c.103-.357.462-.577.828-.508.365.07.619.405.584.774l-13.105 70.66c-.06.328-.341.57-.675.58zM224.946 270.268H264.278V312.21299999999997H224.946z"/>
                        <path fill="#D1D3D4" d="M264.325 313.027h-39.38c-.214.004-.422-.078-.575-.228-.154-.15-.24-.356-.24-.57v-41.96c0-.215.086-.42.24-.57.153-.151.36-.233.576-.23h39.38c.444 0 .807.356.815.8v41.944c0 .45-.365.814-.816.814zm-38.516-1.566h37.669v-40.379h-37.67v40.38z"/>
                        <path fill="#D1D3D4" d="M264.325 278.206h-39.38c-.332.095-.69-.03-.89-.312-.2-.282-.2-.66 0-.941.2-.282.558-.407.89-.312h39.38c.333-.095.69.03.89.312.2.282.2.66 0 .941-.2.282-.557.407-.89.312zM248.096 287.428L248.096 287.428 235.885 287.428 235.885 283.483 253.339 283.483 253.339 287.037 244.11 303.852 238.946 303.852zM235.885 275.341c-.28.073-.578-.01-.781-.215-.204-.206-.281-.504-.204-.783.077-.278.297-.495.577-.568 1.723-1.076 2.558-3.135 2.072-5.104-.31-1.218-1.46-2.033-2.715-1.925-.985-.026-1.935.36-2.621 1.064-.512.66-.758 1.486-.691 2.317.046.437-.27.828-.706.877-.212.036-.429-.018-.599-.149-.17-.13-.277-.326-.296-.54-.124-1.268.247-2.536 1.036-3.538.98-1.054 2.357-1.65 3.798-1.644 2.022-.159 3.862 1.167 4.348 3.131.707 2.686-.443 5.516-2.825 6.952-.117.078-.253.121-.393.125zM256.383 275.341c-.293.007-.565-.15-.706-.407-.214-.386-.082-.871.298-1.096 1.723-1.077 2.559-3.135 2.072-5.104-.304-1.216-1.448-2.032-2.7-1.926-.997-.03-1.96.363-2.652 1.08-.5.653-.735 1.469-.66 2.286-.043.37-.334.664-.704.712-.371.048-.727-.161-.865-.508-.115-1.27.261-2.536 1.052-3.539.971-1.056 2.345-1.653 3.782-1.644 2.023-.158 3.863 1.167 4.348 3.132.707 2.686-.443 5.515-2.825 6.952-.136.067-.29.089-.44.062z"/>
                    </g>
                </g>
            </g>
        </g>
    </g>
</svg>
