<svg xmlns="http://www.w3.org/2000/svg" width="327" height="321" viewBox="0 0 327 321">
    <g fill="none" fill-rule="evenodd">
        <g fill-rule="nonzero">
            <g>
                <g transform="translate(-72 -3543) translate(0 3296) matrix(-1 0 0 1 399 247)">
                    <path fill="#303337" d="M234.389 314.821L229.539 258.572 124.431 273.403 116.839 314.821z"/>
                    <path fill="#303337" d="M234.376 315.492h-117.47c-.201-.003-.392-.09-.524-.241-.126-.154-.175-.356-.135-.55l7.593-41.42c.053-.283.278-.503.564-.55l105.108-14.763c.18-.024.364.024.51.134.144.115.232.286.242.47l4.851 56.25c.017.186-.046.372-.175.51-.154.135-.361.194-.564.16zm-116.745-1.342h116.02l-4.717-54.813-103.966 14.656-7.337 40.157z"/>
                    <path fill="#F0AA3B" d="M240.275 182.27l-4.69 117.841s-85.327-5.368-123.167-8.576l9.03-89.924-35.583 16.978-26.23-48.586s75.935-64.557 143.136-49.525"/>
                    <path fill="#FFF" d="M200.312 51.626c-6.342-6-13.558-7.422-21.675-9.395-3.157-.792-5.55-2.604-8.909-2.926-3.359-.322-7.444-.269-10.239 1.731-3.571 2.82-6.526 6.342-8.68 10.348-2.112 4.178-3.684 8.607-4.677 13.18l-2.687 10.026c-.878 3.09-1.578 6.226-2.096 9.395-.672 4.63-1.102 10.63.524 15.153 1.505 4.187 5.724 4.55 9.675 5.14 11.636 1.772 23.851 1.906 35.206-1.516 20.156-6.107 30.073-31.769 15.789-48.72-.699-.846-1.444-1.652-2.23-2.416z"/>
                    <path fill="#231F20" d="M166.8 106.17c-5.126-.025-10.242-.433-15.306-1.22l-.712-.108c-3.723-.55-7.942-1.168-9.487-5.476-1.344-3.745-1.532-8.804-.565-15.475.527-3.208 1.232-6.385 2.11-9.516l2.688-10.039c1.011-4.63 2.61-9.114 4.756-13.341 2.198-4.093 5.217-7.689 8.87-10.563 2.404-1.718 5.898-2.322 10.682-1.852 1.893.26 3.733.812 5.456 1.638 1.148.543 2.339.992 3.56 1.342l1.841.456c7.27 1.799 14.15 3.49 20.157 9.167.822.777 1.598 1.602 2.324 2.47 6.5 7.679 8.61 18.149 5.59 27.742-3.112 10.494-11.247 18.755-21.701 22.038-6.583 1.905-13.411 2.828-20.264 2.738zm0-66.409c-2.425-.134-4.832.48-6.894 1.758-3.489 2.766-6.374 6.214-8.48 10.134-2.085 4.131-3.638 8.51-4.622 13.032l-2.687 10.026c-.871 3.09-1.567 6.226-2.083 9.395-.914 6.362-.753 11.354.497 14.763 1.25 3.41 4.743 4.027 8.412 4.604l.725.107c13.196 2 24.94 1.504 34.938-1.503C196.626 98.92 204.42 91 207.407 80.938c2.873-9.172.845-19.174-5.375-26.507-.697-.826-1.437-1.615-2.217-2.362-5.738-5.369-12.094-7.006-19.538-8.832l-1.841-.456c-1.29-.342-2.548-.79-3.763-1.342-1.58-.768-3.271-1.28-5.012-1.517-.941-.103-1.888-.157-2.835-.16h-.027z"/>
                    <path fill="#FFF" d="M151.978 121.686l-.135 24.763s8.063 14.884 23.784 10.401c15.722-4.482 17.872-17.045 17.872-17.045.296-15.368-.174-31.044.94-46.304 0-.175-5.24-4.778-5.777-5.597-1.256-1.73-2.038-3.755-2.271-5.878-1.156-6.832-1.64-13.878-2.23-20.79l-3.105-.282c-.3-.51-.386-1.118-.242-1.691-3.696 4.621-8.523 8.213-14.015 10.428-3.064 1.235-6.544 2.013-9.661.9 1.956-3.32 3.32-6.952 4.03-10.738-4.217 4.842-9.071 9.09-14.431 12.63-5.63 3.731-6.195-2.684-7.082 4.026-.967 7.288-1.007 25.796.43 33.098 2.486 12.186 11.893 12.079 11.893 12.079z"/>
                    <path fill="#303337" d="M169.903 158.367c-12.201 0-18.57-11.462-18.651-11.596-.054-.1-.081-.21-.08-.322l.12-24.159c-2.284-.268-9.688-1.92-11.798-12.59-1.491-7.57-1.344-26.319-.43-33.325.31-2.376.591-3.208 1.196-3.597.504-.247 1.095-.247 1.6 0 .913.295 2.19.685 4.568-.9 5.313-3.5 10.123-7.708 14.297-12.508.197-.229.523-.295.793-.161.275.129.43.426.376.725-.668 3.588-1.92 7.043-3.708 10.227 2.852.522 5.797.127 8.411-1.127 5.386-2.167 10.121-5.685 13.747-10.214.196-.247.54-.32.82-.175.29.134.438.46.35.765-.081.29-.081.596 0 .886l2.687.242c.322.037.575.294.604.617l.269 3.074c.484 5.838.994 11.864 1.975 17.662.209 2.033.956 3.974 2.164 5.624.255.39 2.217 2.201 3.52 3.409 2.392 2.201 2.392 2.201 2.365 2.604-.752 10.213-.779 20.803-.82 31.044 0 4.992 0 10.146-.12 15.193.02.088.02.18 0 .268-.444 1.973-3.669 13.234-18.342 17.448-1.92.572-3.91.87-5.913.886zm-17.388-12.08c.914 1.598 8.56 14.013 22.938 9.933 14.633-4.161 17.253-15.663 17.468-16.469.095-5.033.108-10.173.121-15.14 0-10.173.068-20.682.807-30.869-.336-.335-1.17-1.114-1.922-1.798-1.34-1.158-2.61-2.395-3.803-3.704-1.306-1.806-2.12-3.92-2.365-6.134-.994-5.865-1.491-11.918-1.988-17.77l-.215-2.523-2.527-.228c-.212-.019-.402-.139-.51-.323-.075-.12-.143-.246-.202-.375-3.612 4.126-8.146 7.345-13.236 9.395-4.031 1.61-7.337 1.919-10.145.912-.188-.067-.335-.215-.403-.402-.087-.178-.087-.386 0-.564 1.488-2.519 2.627-5.228 3.386-8.053-3.838 4.095-8.14 7.73-12.82 10.831-2.929 1.933-4.675 1.342-5.724 1.047-.167-.068-.344-.11-.524-.12-.312.862-.493 1.767-.537 2.684-.914 6.925-1.048 25.42.416 32.896 2.271 11.475 10.75 11.582 11.153 11.542.183-.002.358.07.484.202.126.124.198.293.202.47l-.054 24.56z"/>
                    <path fill="#FFF" d="M186.445 104.842c3.136 1.222 6.629 1.154 9.715-.188 4.28-2.052 7.181-6.18 7.66-10.898.303-1.701.22-3.449-.243-5.114-.47-1.686-1.66-3.08-3.252-3.811-1.908-.806-4.03-.296-6.1.228-2.997.765-3.36 2.295-5.375 4.214.215-.16.47-.725.685-.886"/>
                    <path fill="#303337" d="M191.067 106.386c-1.665 0-3.316-.314-4.864-.927-.253-.065-.445-.27-.493-.526-.048-.256.057-.517.27-.669.212-.152.492-.167.72-.04 2.963 1.155 6.264 1.088 9.178-.187 4.09-1.958 6.85-5.918 7.27-10.429.299-1.6.23-3.248-.202-4.818-.422-1.494-1.47-2.732-2.876-3.396-1.653-.698-3.547-.295-5.67.255-1.462.365-2.74 1.253-3.588 2.497-.403.456-.847.98-1.438 1.543l-.134.121c-.183.156-.435.203-.661.123-.226-.08-.393-.275-.437-.51-.044-.236.042-.477.224-.633h.067l.175-.255c.132-.23.3-.44.497-.617.088-.067.189-.112.296-.135l.39-.443c1.035-1.442 2.557-2.462 4.286-2.872 1.814-.47 4.314-1.114 6.53-.188 1.766.818 3.09 2.36 3.629 4.228.487 1.748.575 3.583.255 5.369-.501 4.954-3.559 9.286-8.062 11.421-1.694.726-3.519 1.096-5.362 1.088zM151.843 135.537s10.24 1.342 16.972-5.718c6.732-7.06 5.939-12.643 5.939-12.643s-12.349 6.174-22.844 4.51l-.067 13.851z"/>
                    <path fill="#303337" d="M153.953 136.315c-.714.005-1.427-.03-2.137-.107-.337-.041-.587-.332-.578-.671v-13.851c-.001-.195.082-.381.229-.51.148-.126.345-.18.537-.148 10.16 1.61 22.32-4.388 22.441-4.456.194-.1.424-.1.618 0 .192.097.323.284.35.497 0 .242.725 6.026-6.141 13.207-5 5.301-11.88 6.04-15.32 6.04zm-1.344-1.342c2.23.121 10.307.175 15.816-5.57 4.797-5.006 5.644-9.3 5.765-11.14-3.05 1.343-12.712 5.37-21.5 4.228l-.08 12.482z"/>
                    <path fill="#FFF" d="M157.783 85.193s-7.525 12.911-5.375 14.938c2.15 2.027 7.551.255 7.551.255"/>
                    <path fill="#303337" d="M155.606 101.782c-1.34.1-2.669-.318-3.71-1.168-2.31-2.214 3.481-12.63 5.376-15.757.106-.233.335-.386.591-.394.257-.008.495.13.615.357.12.227.1.501-.05.709-3.508 6.012-6.558 13.126-5.537 14.119 1.492 1.436 5.47.564 6.88.107.371-.115.765.093.88.463.115.371-.092.765-.463.88-1.486.448-3.03.678-4.582.684z"/>
                    <ellipse cx="169.721" cy="85.305" fill="#303337" rx="2.899" ry="2.056" transform="rotate(-89.29 169.721 85.305)"/>
                    <ellipse cx="147.538" cy="86.089" fill="#303337" rx="2.899" ry="2.056" transform="rotate(-88.99 147.538 86.09)"/>
                    <path fill="#303337" d="M166.8 103.768c-3.387 2.779-10.12 3.718-19.216 2.685 0 0-.242 12.079 8.519 11.502s10.696-14.187 10.696-14.187z"/>
                    <path fill="#303337" d="M155.471 118.626c-1.885.056-3.715-.645-5.08-1.946-3.573-3.396-3.48-9.986-3.48-10.254.012-.189.093-.366.23-.497.143-.125.333-.184.523-.16 8.842 1.02 15.48.133 18.718-2.524.215-.174.515-.2.756-.063.24.137.373.407.333.68-.08.577-2.123 14.106-11.314 14.764h-.686zm-7.202-11.449c.094 1.745.55 6.174 3.05 8.536 1.275 1.182 3.002 1.75 4.73 1.557 6.396-.443 8.976-8.55 9.783-12.079-3.696 2.147-9.702 2.819-17.563 1.986z"/>
                    <path fill="#231F20" d="M164.972 83.663L175.009 79.945M150.741 83.113L144.493 81.274"/>
                    <path fill="#FFF" d="M209.517 70.12c-.35-.764-70.87-3.905-70.87-3.905s-1.948-17.367 8.305-28.252c10.253-10.885 39.372-7.18 52.097 2.885 12.725 10.067 10.468 29.273 10.468 29.273z"/>
                    <path fill="#303337" d="M209.517 70.792c-.113.001-.224-.026-.323-.08-2.459-.605-43.43-2.685-70.573-3.826-.334-.012-.605-.272-.632-.604-.08-.711-1.868-17.797 8.466-28.776 4.837-5.14 14.19-7.556 25.665-6.63 10.589.86 21.07 4.483 27.345 9.395 12.874 10.187 10.75 29.675 10.75 29.877-.01.33-.262.604-.59.644h-.108zm-70.238-5.221c52.997 2.362 66.233 3.301 69.62 3.838.241-3.355.739-19.327-10.267-28.037-12.779-10.107-41.414-13.341-51.196-2.953-8.882 9.435-8.372 24.092-8.157 27.152z"/>
                    <path fill="#FFF" d="M138.648 66.215s-20.869 3.235-20.72 9.945c.147 6.711 51.061 9.583 73.099-7.328l-52.38-2.617z"/>
                    <path fill="#303337" d="M141.94 82.039c-9.917 0-18.221-1.221-22.065-3.06-1.72-.819-2.593-1.785-2.687-2.872-.161-7.06 19.095-10.228 21.298-10.563.045-.007.09-.007.135 0l52.406 2.563c.28.001.527.187.604.457.08.27-.01.56-.228.738-12.201 9.382-33.03 12.737-49.463 12.737zm-3.252-15.153c-5.698.886-20.156 4.214-20.156 9.194 0 .51.685 1.127 1.854 1.677 9.77 4.685 48.818 5.221 68.639-8.415l-50.337-2.456zM169.513 215.1c-1.248-.013-2.466-.385-3.507-1.074-11.543-7.369-14.902-52.116-14.78-67.577 0-.371.3-.671.67-.671.18.003.349.077.472.206.124.128.191.3.187.478-.094 19.314 4.099 59.98 14.204 66.436 1.577 1.054 3.609 1.152 5.28.255 14.997-7.032 20.829-72.744 20.882-73.402.03-.37.355-.647.726-.617.371.03.648.354.618.725-.242 2.684-5.966 67.107-21.648 74.516-.968.467-2.028.715-3.104.725z"/>
                    <path fill="#FFF" d="M163.762 238.211l-4.797-1.476s-1.344-9.046-.524-15.354c.82-6.308 3.79-9.49 5.2-10.563 1.411-1.074 8.56.483 8.56.483s-5.375 7.328-5.872 12.469c-.497 5.14-2.567 14.441-2.567 14.441z"/>
                    <path fill="#303337" d="M163.762 238.91c-.066.012-.135.012-.201 0l-4.811-1.477c-.254-.075-.443-.289-.484-.55-.765-5.144-.936-10.36-.51-15.542.94-7.114 4.42-10.241 5.455-11.033 1.559-1.168 7.377 0 9.138.35.227.05.413.212.497.429.084.22.049.469-.094.657 0 0-5.281 7.248-5.738 12.08-.484 5.14-2.486 14.146-2.58 14.522-.043.188-.16.352-.322.456-.107.062-.227.1-.35.107zm-4.179-2.685l3.669 1.114c.483-2.282 1.988-9.395 2.378-13.61.39-4.214 3.937-9.824 5.375-11.958-3.037-.577-6.316-.872-6.96-.39-.646.484-4.032 3.37-4.932 10.107-.397 4.91-.24 9.849.47 14.724v.013z"/>
                    <path fill="#FFF" d="M177.294 216.375c-.524-2.819-4.099-7.637-9.796-3.463-5.698 4.174-3.736 25.3-3.736 25.3l3.709-1.101.578-10.308s11.193.134 9.245-10.428z"/>
                    <path fill="#303337" d="M163.762 238.91c-.139-.001-.275-.043-.39-.122-.171-.115-.28-.303-.295-.51-.08-.885-1.922-21.568 4.031-25.93 2.943-2.16 5.254-1.946 6.719-1.342 2.167.984 3.724 2.954 4.179 5.288.72 2.713.145 5.606-1.559 7.838-2.325 2.752-6.154 3.275-7.7 3.382l-.537 9.677c-.023.291-.22.54-.497.631l-3.709 1.1-.242-.013zm7.995-26.938c-1.388.087-2.714.608-3.789 1.49-4.206 3.087-4.031 17.529-3.534 23.85l2.432-.725.538-9.824c.021-.37.328-.658.698-.658 0 0 4.825 0 7.297-2.912 1.433-1.924 1.9-4.4 1.263-6.711-.383-1.85-1.611-3.415-3.319-4.228-.505-.195-1.044-.29-1.586-.282zM158.441 221.381L161.854 221.569 161.639 225.367 158.145 225.179z"/>
                    <path fill="#303337" d="M161.64 226.065l-3.481-.201c-.187-.007-.363-.09-.487-.23-.124-.138-.186-.323-.172-.509l.296-3.798c.006-.182.088-.353.226-.473.137-.12.318-.176.5-.158l3.413.188c.182.01.352.093.473.229.12.136.183.314.172.496l-.202 3.798c-.01.185-.094.359-.233.482-.138.124-.32.187-.506.176zm-2.688-1.544l2.096.121.134-2.416-2.042-.107-.188 2.402z"/>
                    <path fill="#FFF" d="M64.352 116.036c2.687 8.55 19.108 49.525 23.798 61.873 4.69 12.347 8.895 30.386-2.285 40.68-5.012 4.617-12.994 6.228-18.893 2.805-2.53-1.61-4.692-3.737-6.342-6.24-15.023-20.885-17.98-93.36-20.761-105.32 0 0 17.966-15.071 20.815-15.313 2.848-.242 3.668 21.515 3.668 21.515z"/>
                    <path fill="#303337" d="M74.094 223.905c-2.613.025-5.187-.642-7.458-1.934-2.61-1.662-4.844-3.852-6.557-6.429-11.234-15.676-15.762-59.806-18.477-86.165-.94-9.14-1.68-16.348-2.392-19.381-.058-.249.031-.51.229-.671 3.023-2.55 18.275-15.234 21.177-15.475.372-.024.737.107 1.008.362 2.5 2.215 3.265 18.253 3.4 21.703 1.854 5.852 9.85 26.199 16.273 42.56 3.184 8.133 5.952 15.152 7.484 19.192 7.216 18.978 6.356 33.299-2.459 41.419-3.336 3.066-7.694 4.784-12.228 4.819zM40.608 110.09c.712 3.315 1.424 10.348 2.338 19.152 2.688 26.226 7.203 70.128 18.221 85.522 1.611 2.416 3.701 4.476 6.141 6.053 5.375 3.127 12.994 1.973 18.1-2.684 10.59-9.744 7.001-27.098 2.11-39.943-1.532-4.026-4.286-11.059-7.471-19.192-6.464-16.455-14.513-36.95-16.327-42.72-.012-.058-.012-.118 0-.175-.362-9.57-1.612-20.267-2.996-20.884-1.881.12-13.196 9.126-20.116 14.87z"/>
                    <path fill="#FFF" d="M86 93.608s-2.688 6.711-6.867 8.053c-4.179 1.342-13.706-2.885-14.781-2.255-1.075.631-24.671 20.065-26.875 20.723-2.204.658-7.055-5.046-9.258-11.757 0 0 23.058-17.3 24.536-19.099 1.479-1.798 2.85-12.08 4.986-15.998L86 93.608z"/>
                    <path fill="#303337" d="M37.074 120.76c-2.876 0-7.377-5.677-9.406-12.187-.08-.272.015-.566.242-.738 9.245-6.939 23.38-17.716 24.415-18.991.619-.739 1.344-3.718 2.03-6.59.626-3.195 1.594-6.314 2.889-9.301.09-.172.253-.295.443-.336.186-.04.381-.001.537.107l28.22 20.294c.24.186.332.506.228.792-.121.295-2.836 7.006-7.297 8.415-2.808.872-7.579-.47-11.059-1.45-1.178-.4-2.393-.68-3.628-.832-.215.148-2.688 2.12-5.523 4.402-10.414 8.349-19.9 15.891-21.5 16.348-.192.053-.392.076-.591.067zm-8.063-12.08c2.218 6.537 6.558 11.248 8.21 10.738 1.654-.51 14.688-11.02 21.044-16.106 3.641-2.926 5.375-4.335 5.738-4.536.618-.376 1.787-.081 4.609.724 3.319.926 7.86 2.215 10.293 1.45 3.225-1.007 5.563-5.637 6.235-7.14L58.023 74.28c-1.033 2.695-1.846 5.47-2.432 8.295-.927 3.812-1.532 6.187-2.298 7.127-1.411 1.731-20.586 16.16-24.255 18.91l-.027.068z"/>
                    <path fill="#303337" d="M59.273 79.381c.278 1.733.03 3.51-.713 5.1-1.222 2.443-7.014 5.92-7.014 5.92l-4.501-8.053 7.82-6.215 4.408 3.248z"/>
                    <path fill="#303337" d="M51.546 91.072h-.175c-.176-.056-.324-.176-.416-.336l-4.502-8.053c-.155-.287-.081-.643.175-.845l7.82-6.215c.244-.18.577-.18.82 0l4.408 3.222c.135.094.227.24.255.402.312 1.878.044 3.807-.766 5.53-1.344 2.604-7.028 6.053-7.27 6.2-.105.065-.226.097-.349.095zm-3.641-8.617l3.883 7.006c1.854-1.168 5.375-3.61 6.181-5.275.637-1.388.874-2.926.685-4.442l-3.775-2.819-6.974 5.53z"/>
                    <path fill="#FFF" d="M34.427 103.701s-2.486-6.71 1.343-7.368c0 0 .47-4.886 5.174-3.06 0 0 .98-5.127 5.039-4.282 4.058.846 7.646 10.254 7.23 12.684-.417 2.429-3.629 1.127-5.295-1.074 0 0 2.204 3.677.9 4.724-1.935 1.544-4.112-.94-5.899-2.684 0 0 2.688 4.281-.954 4.859-2.822.442-5.71-5.14-5.71-5.14l-1.828 1.341z"/>
                    <path fill="#303337" d="M41.656 108.144c-2.472 0-4.703-3.315-5.59-4.832l-1.236.926c-.165.136-.389.176-.591.107-.204-.055-.37-.205-.444-.402-.161-.457-1.599-4.523-.269-6.818.364-.643.96-1.123 1.667-1.342.217-1.238.912-2.342 1.935-3.074 1.022-.584 2.25-.692 3.359-.295.394-1.394 1.228-2.622 2.378-3.503.958-.647 2.147-.852 3.266-.564 4.448.926 8.223 10.737 7.753 13.422-.072.865-.688 1.588-1.532 1.798-.917.151-1.858-.05-2.633-.564.389.95.201 2.04-.484 2.805-1.6 1.275-3.252.457-4.703-.765.064.52-.01 1.048-.215 1.53-.427.863-1.283 1.431-2.244 1.49l-.417.08zm-5.375-6.483h.148c.195.047.36.174.457.35.685 1.341 3.117 5.113 4.999 4.79.98-.16 1.169-.59 1.236-.724.416-.913-.417-2.604-.753-3.114-.172-.292-.11-.666.148-.886.256-.23.645-.23.9 0l.377.376c1.935 1.973 3.4 3.288 4.622 2.309.484-.39-.148-2.363-1.048-3.866-.164-.305-.068-.685.221-.876.29-.192.677-.132.894.138.787 1.223 2.109 2 3.561 2.094.202 0 .444-.175.538-.725.363-2.107-3.09-11.153-6.719-11.918-.763-.193-1.573-.057-2.23.375-1.03.884-1.726 2.091-1.976 3.423-.04.193-.163.36-.336.456-.18.08-.384.08-.564 0-.905-.452-1.97-.452-2.876 0-.765.636-1.248 1.548-1.344 2.537-.025.303-.251.55-.55.604-.514.055-.97.355-1.223.805-.686 1.181-.296 3.41.094 4.805l1.088-.832c.1-.068.216-.11.336-.12z"/>
                    <path fill="#FFF" d="M51.156 82.442s2.083-4.027 4.623-.698c2.54 3.328 5.697 9.69 1.76 10.549-3.937.859-7.256-6.389-6.383-9.851z"/>
                    <path fill="#303337" d="M56.88 93.031c-1.325-.062-2.565-.67-3.426-1.678-2.217-2.281-3.588-6.522-2.943-9.072-.005-.05-.005-.1 0-.148.108-.228 1.183-2.215 2.93-2.362 1.151-.008 2.222.588 2.822 1.57 1.666 2.188 4.555 7.06 3.534 9.825-.353.941-1.184 1.622-2.177 1.785-.243.05-.49.077-.74.08zm-5.092-10.348c-.24 2.841.736 5.65 2.687 7.731.71.894 1.835 1.357 2.97 1.221.544-.062 1.007-.426 1.196-.94.672-1.811-1.223-5.757-3.346-8.535-.337-.597-.944-.992-1.626-1.06-.873.08-1.626 1.127-1.881 1.583z"/>
                    <path fill="#FFF" d="M64.5 118.196s2.042-12.589 2.19-14.763c.242-3.798-.914-9.664-4.286-10.429-3.373-.765-10.992-1.342-9.595 1.96 1.344 2.993 7.955 3.261 7.955 3.261s-4.38 4.832-3.467 9.395"/>
                    <path fill="#303337" d="M64.5 118.868h-.108c-.362-.062-.607-.403-.55-.766 0-.12 2.042-12.589 2.176-14.763.229-3.678-.94-9.1-3.762-9.744-3.346-.765-7.928-.819-8.829.241 0 .094-.228.282 0 .82.9 2.12 5.63 2.777 7.364 2.844.264.014.498.175.605.417.096.236.049.507-.121.697 0 0-4.152 4.644-3.32 8.832.036.174.001.356-.097.504-.098.149-.252.252-.426.288-.362.066-.713-.165-.793-.524-.712-3.61 1.532-7.247 2.808-8.979-2.136-.241-6.181-1.033-7.256-3.556-.382-.71-.297-1.58.215-2.202 1.747-2.093 8.452-1.073 10.159-.684 3.95.9 5.039 7.301 4.797 11.126-.148 2.255-2.11 14.388-2.19 14.898-.06.323-.344.556-.672.55z"/>
                    <path fill="#FFF" d="M13.505 73.154s27.412-4.027 38.968 2.04c2.902 1.558 5.694 3.312 8.358 5.248 6.316 4.496 12.296 9.636 16.905 12.415 9.124 5.502 17.75 6.375 23.139-3.329 4.622-8.308 1.532-12.012-5.51-18.884-3.48-3.396-10.75-8.925-17.078-15.153-3.728-3.443-6.925-7.419-9.487-11.797-5.644-10.482-4.918-27.004-4.918-27.004L13.505 73.154z"/>
                    <path fill="#303337" d="M89.695 97.635c-3.601 0-7.74-1.342-12.336-4.161-3.252-2.098-6.392-4.364-9.406-6.791-2.445-1.866-4.958-3.812-7.538-5.65-2.636-1.925-5.402-3.665-8.278-5.208-11.207-5.852-38.27-2-38.538-1.96-.28.039-.553-.1-.686-.349-.136-.246-.104-.552.081-.765l50.39-56.464c.19-.208.488-.276.749-.171.26.104.428.36.42.64 0 .162-.604 16.456 4.811 26.656 2.531 4.333 5.702 8.26 9.406 11.65 3.642 3.57 7.539 6.872 10.979 9.784 2.472 2.094 4.622 3.906 6.1 5.369 7.055 6.898 10.508 10.898 5.63 19.689-2.203 4.026-5.065 6.429-8.519 7.341-1.066.272-2.164.403-3.265.39zM32.142 71.18c7.485 0 15.507.752 20.613 3.422 2.937 1.588 5.757 3.382 8.44 5.369 2.606 1.852 5.132 3.798 7.578 5.677 2.975 2.392 6.07 4.632 9.272 6.711 5.71 3.45 10.602 4.67 14.539 3.61 3.077-.818 5.67-3.073 7.673-6.71 4.434-7.96 1.559-11.288-5.375-18.066-1.451-1.422-3.575-3.22-6.034-5.368-3.453-2.926-7.363-6.241-11.045-9.852-3.803-3.498-7.051-7.553-9.635-12.025-4.542-8.523-5.012-20.844-5.012-25.501L15.198 72.255c5.623-.683 11.28-1.041 16.944-1.074z"/>
                    <path fill="#303337" d="M59.273 79.381c6.315 4.483 13.988 10.47 18.436 13.422 10.145 6.885 16.393 7.368 22.387-1.986 6.167-9.61 2.284-13.355-4.757-20.227-3.48-3.395-10.75-8.925-17.08-15.152 0 0-.08 6.777-6.422 15.313-3.11 4.193-7.532 7.23-12.564 8.63z"/>
                    <path fill="#303337" d="M90.03 98.641c-3.399 0-7.403-1.677-12.657-5.234-2.405-1.624-5.738-4.12-9.285-6.71-3.064-2.282-6.235-4.645-9.151-6.712-.215-.156-.32-.423-.27-.684.051-.265.26-.473.525-.523 4.834-1.377 9.083-4.3 12.094-8.322 6.114-8.227 6.288-14.844 6.288-14.911.002-.271.166-.515.417-.617.25-.094.532-.037.726.147 3.641 3.57 7.538 6.872 10.978 9.784 2.472 2.094 4.622 3.906 6.1 5.369 7.069 6.912 11.301 11.032 4.865 21.072-2.688 4.254-5.51 6.55-8.734 7.207-.626.108-1.26.153-1.895.134zM60.792 79.636c2.607 1.88 5.375 3.933 8.062 5.933 3.521 2.684 6.854 5.127 9.245 6.71 5.953 4.027 10.146 5.53 13.572 4.819 2.862-.577 5.375-2.684 7.875-6.617 5.858-9.113 2.365-12.522-4.583-19.3-1.531-1.503-3.655-3.302-6.114-5.369-3.144-2.684-6.718-5.637-10.05-8.871-.932 5.201-3.133 10.092-6.41 14.24-2.93 3.915-6.97 6.86-11.597 8.455z"/>
                    <path fill="#F0AA3B" d="M5.751 71.168c6.423 5.26 19.807 0 32.667-11.811 6.5-6.042 12.154-12.93 16.81-20.482 9.164-15.058 11.69-29.245 5.24-34.52-8.062-6.536-26.74 3.128-41.857 21.569C3.494 44.364-2.257 64.63 5.75 71.168z"/>
                    <path fill="#303337" d="M54.059 2.342c2.307-.101 4.576.612 6.41 2.013 6.463 5.275 3.937 19.515-5.228 34.52-4.656 7.551-10.31 14.44-16.81 20.482-9.487 8.75-19.242 13.864-26.337 13.864-2.308.092-4.575-.635-6.397-2.053-8.062-6.537-2.244-26.843 12.86-45.244C30.517 11.388 44.68 2.342 54.06 2.342m0-1.342c-10.011 0-24.671 9.677-36.483 24.159-7.417 8.979-12.873 18.79-15.359 27.487-2.58 9.1-1.626 16.106 2.688 19.568 2.049 1.596 4.592 2.427 7.189 2.35 7.47 0 17.374-5.195 27.184-14.228 3.325-3.078 6.432-6.383 9.298-9.891 2.827-3.442 5.413-7.075 7.74-10.872 9.823-16.105 11.812-30.64 4.932-36.238-2.05-1.593-4.593-2.42-7.19-2.335z"/>
                    <path fill="#FFF" d="M26.794 46.11l11.624 13.247c6.5-6.042 12.154-12.93 16.81-20.482l-16.353-9.032-12.08 16.267z"/>
                    <ellipse cx="32.875" cy="38.01" fill="#303337" rx="10.124" ry="4.715" transform="rotate(-53.21 32.875 38.01)"/>
                    <path fill="#303337" d="M28.353 47.25c-.7.02-1.387-.198-1.948-.617-1.237-.913-1.64-2.684-1.156-5.046.611-2.48 1.737-4.802 3.306-6.819 3.628-4.845 8.358-7.22 10.75-5.368 1.236.913 1.639 2.684 1.155 5.033-.6 2.482-1.717 4.81-3.279 6.831-2.808 3.718-6.275 5.986-8.828 5.986zm1.344-11.663c-1.45 1.862-2.494 4.006-3.064 6.295-.376 1.771-.134 3.114.645 3.69 1.518 1.142 5.563-.684 8.896-5.14 1.45-1.861 2.493-4.006 3.063-6.294.377-1.772.135-3.114-.645-3.691-1.518-1.155-5.563.684-8.895 5.14zM43 103.258c-.23.005-.445-.112-.565-.308-.998-1.478-2.196-2.81-3.56-3.96-.293-.226-.347-.646-.121-.94.226-.289.641-.348.94-.133 1.493 1.236 2.793 2.688 3.857 4.308.1.147.138.328.102.503-.035.174-.14.327-.29.423-.11.068-.235.105-.363.107zM47.931 101.272c-.308.002-.575-.21-.645-.51-.642-1.952-1.907-3.64-3.6-4.805-.2-.134-.312-.364-.296-.604.017-.24.16-.452.377-.557.216-.105.471-.087.67.047 1.98 1.342 3.443 3.315 4.153 5.597.076.358-.143.713-.497.805l-.162.027zM36.281 103.003c-.205.003-.4-.091-.524-.255l-1.21-1.543c-.225-.293-.17-.713.122-.94.29-.228.71-.18.94.108l1.21 1.543c.227.297.173.722-.121.953-.12.09-.267.137-.417.134z"/>
                    <path fill="#FFF" d="M91.146 70.51c-.158 0-.31-.058-.43-.161l-9.258-7.771c-.286-.241-.322-.668-.08-.953.24-.286.668-.322.953-.08l9.245 7.784c.141.11.23.274.245.452.016.178-.044.355-.164.487-.124.155-.312.244-.51.242zM90.03 72.55c-.157 0-.31-.058-.43-.161l-9.257-7.771c-.185-.156-.273-.398-.23-.636.043-.238.209-.435.437-.517.227-.082.481-.036.666.12l9.245 7.784c.213.182.29.476.195.74-.096.262-.345.438-.625.441zM88.687 74.899c-.158 0-.31-.058-.43-.161L79 66.967c-.286-.241-.322-.668-.08-.953.24-.286.667-.322.953-.08l9.245 7.784c.213.181.29.476.195.739-.096.263-.345.439-.625.442z"/>
                    <path fill="#303337" d="M115.562 275.188c-.177-.014-.342-.099-.456-.235-.114-.137-.167-.313-.149-.49l11.153-120.458c.024-.24.175-.449.395-.548.22-.099.476-.073.671.067.196.141.302.375.278.615l-11.233 120.418c-.015.352-.306.63-.659.63z"/>
                    <path fill="#FFF" d="M291.27 320.015L325.737 243.593 220.307 197.37 185.853 273.792z"/>
                    <path fill="#303337" d="M291.27 320.7c-.093.019-.189.019-.282 0l-105.417-46.277c-.17-.07-.306-.205-.376-.376-.068-.173-.068-.365 0-.537l34.467-76.422c.164-.34.565-.493.914-.349l105.417 46.224c.17.07.306.207.374.38.068.171.064.363-.012.532l-34.453 76.422c-.11.25-.359.41-.632.403zm-104.49-47.244l104.154 45.633 33.89-75.16-104.154-45.633-33.89 75.16z"/>
                    <path fill="#FFF" d="M207.676 249.995L217 229.3c.96-2.345.942-4.976-.053-7.306s-2.882-4.165-5.241-5.096l-2.54-1.114-16.917 37.54 2.54 1.114c4.789 2.283 10.526.305 12.886-4.443z"/>
                    <path fill="#303337" d="M199.036 256.008c-1.56-.003-3.101-.327-4.529-.953l-2.54-1.114c-.171-.075-.307-.215-.376-.389-.067-.172-.067-.364 0-.537l16.904-37.58c.16-.345.565-.5.914-.349l2.553 1.114c2.655 1.15 4.747 3.301 5.819 5.986.937 2.366.874 5.01-.175 7.328l-9.326 20.763c-1.685 3.56-5.303 5.803-9.244 5.731zm-5.873-3.06l1.908.832c4.424 2.134 9.743.345 11.973-4.026l9.299-20.736c.89-1.986.939-4.247.134-6.268-.925-2.347-2.755-4.223-5.079-5.208l-1.908-.845-16.327 36.251z"/>
                    <path fill="#D1D3D4" d="M286.016 309.144c-.088.02-.18.02-.269 0l-79.402-34.453c-.166-.071-.297-.207-.362-.376-.068-.163-.068-.346 0-.51l27.345-60.611c.158-.331.549-.48.887-.336l77.937 34.547c.16.07.287.202.35.366.063.164.058.346-.014.506l-25.894 60.518c-.075.164-.21.294-.376.362l-.202-.013zm-78.501-35.46l78.152 33.903 25.37-59.283-76.728-33.996-26.794 59.376z"/>
                    <path fill="#D1D3D4" d="M216.84 279.133c-.089.013-.18.013-.269 0-.336-.152-.49-.544-.349-.885l26.552-60.867c.096-.22.303-.373.542-.4.24-.027.475.075.618.268.144.194.173.449.077.67l-26.553 60.866c-.122.224-.362.36-.618.348z"/>
                    <path fill="#D1D3D4" d="M291.136 297.695c-.094-.001-.186-.024-.269-.067l-79.16-34.896c-.341-.152-.495-.551-.343-.892.152-.341.553-.494.894-.342l79.147 34.896c.336.152.49.544.349.885-.103.25-.347.415-.618.416z"/>
                    <path fill="#FFF" d="M283.235 264.947c-4.032 13.824-14.325 40.882-19.404 43.043-5.08 2.16-21.715-4.322-25.276-7.328-3.56-3.007 13.908-15.247 13.908-15.247s-8.224 0-9.621-4.228c-1.398-4.228 14.915-4.859 14.915-4.859 2.285-1.342 1.613-14.683 1.747-16.924.726-11.341 1.25-22.696 1.747-34.05.578-13.086.914-26.843 3.252-39.755 1.343-7.69 4.031-15.81 10.373-20.374 1.714-1.306 3.755-2.114 5.9-2.335 7.215-.51 13.72 5.865 16.42 11.959 2.62 5.892 2.983 12.508 2.89 18.95-.43 25.569-9.985 47.19-16.851 71.148z"/>
                    <path fill="#303337" d="M261.103 309.09c-7.068 0-19.874-5.288-22.978-7.918-.5-.414-.77-1.044-.726-1.692.175-3.65 9.286-10.737 13.129-13.515-2.688-.268-7.23-1.235-8.318-4.577-.233-.655-.128-1.383.282-1.946 2.123-3.033 12.994-3.677 15.023-3.771 1.344-1.342 1.344-10.55 1.344-13.65v-2.684c.726-11.328 1.236-22.575 1.747-34.037l.201-4.604c.484-11.703.995-23.81 3.064-35.244 1.17-6.483 3.561-15.704 10.643-20.804 1.805-1.389 3.966-2.24 6.235-2.456 7.417-.497 14.19 5.825 17.092 12.348 2.755 6.214 3.037 13.22 2.943 19.246-.31 19.3-5.711 36.05-11.435 53.78-1.841 5.69-3.736 11.583-5.443 17.529-3.265 11.368-13.934 41.002-19.78 43.485-.964.368-1.991.541-3.023.51zm-8.64-24.346c.29 0 .548.183.645.456.086.283-.017.59-.256.765-5.374 3.758-13.974 10.737-14.109 13.583-.027.225.065.448.242.59 3.722 3.154 19.968 9.194 24.59 7.234 4.408-1.879 14.567-27.151 19.001-42.613l.659.188-.659-.188c1.72-5.972 3.628-11.878 5.47-17.569 5.683-17.635 11.072-34.292 11.367-53.404.08-5.878-.174-12.696-2.822-18.669-2.647-5.973-9.003-12.08-15.775-11.556-2.018.202-3.937.97-5.536 2.215-6.72 4.804-8.977 13.676-10.119 19.944-2.056 11.341-2.553 23.407-3.037 35.057l-.201 4.603c-.51 11.476-1.021 22.723-1.747 34.064v2.564c0 8.63-.269 13.837-2.07 14.898-.093.057-.2.089-.309.093-4.756.202-12.819 1.235-14.19 3.208-.166.22-.207.509-.107.765 1.223 3.731 8.788 3.772 8.976 3.772h-.013z"/>
                    <path fill="#F0AA3B" d="M201.347 120.451c52.54 13.918 83.043 36.238 90.622 44.291l-31.014 39.835-47.3-21.394-12.308-62.732z"/>
                    <path fill="#303337" d="M260.955 205.195c-.093.018-.189.018-.282 0l-38.848-19.207c-.227-.076-.39-.277-.416-.515-.027-.238.086-.47.29-.596.205-.125.464-.121.664.01l38.861 19.207c.302.15.428.515.282.819-.122.183-.33.29-.55.282z"/>
                </g>
            </g>
        </g>
    </g>
</svg>
