<?xml version="1.0" encoding="UTF-8"?>
<svg width="76px" height="66px" viewBox="0 0 76 66" version="1.1" xmlns="http://www.w3.org/2000/svg" xmlns:xlink="http://www.w3.org/1999/xlink">
    <title>ico_sofa@1x</title>
    <g id="Page-1" stroke="none" stroke-width="1" fill="none" fill-rule="evenodd">
        <g id="ico_sofa" transform="translate(1.000000, 1.000000)" fill-rule="nonzero">
            <g id="Shape-9" fill="#303337" stroke="#303337" stroke-width="0.5">
                <g id="Shape-7">
                    <path d="M10.4373855,18.8232407 L38.9023909,18.8238711 C41.4953057,18.8238711 43.6042204,20.890061 43.6461394,23.4522092 L43.6467754,23.5300002 L43.6467754,35.7651614 L48.3911598,35.7651614 C48.9099802,35.7651614 49.320299,36.1602034 49.339103,36.6695562 L49.3397765,36.7061291 L49.3397765,59.2945163 C49.3397765,59.8091533 48.9415233,60.2161635 48.4280301,60.2348159 L48.3911598,60.2354839 L45.5446593,60.2354839 L45.5446593,63.0590323 C45.5446593,63.5736693 45.1464061,63.9806796 44.6329129,63.9993319 L44.5960426,64 L37.0051577,64 C36.4863373,64 36.0760185,63.6049581 36.0572145,63.0956053 L36.056541,63.0590323 L36.0558741,60.2354828 L13.2838698,60.2354828 L13.2838698,63.0590312 C13.2838698,63.5736682 12.8856166,63.9806795 12.3721234,63.9993319 L12.3352532,64 L4.74436818,64 C4.22464709,64 3.81415095,63.6045293 3.79576049,63.0947772 L3.79511718,63.0590312 L3.79511718,60.2354828 L0.948616637,60.2354828 C0.42951549,60.2354828 0.0190334435,59.8400132 0.000643299346,59.3296738 L0,59.2938859 L0,36.7054987 C0,36.1908617 0.398253167,35.7838515 0.911746384,35.7651991 L0.948616637,35.7645311 L5.69300108,35.7645311 L5.69300108,23.5293698 C5.69300108,20.9573625 7.77598667,18.8654525 10.3589621,18.8238715 L10.4373855,18.8232407 Z M69.2646296,0 C69.7072004,0.000970664485 70.0957921,0.302529316 70.1881142,0.734019399 L70.1954852,0.772424904 L73.9906024,21.4779086 C74.0280786,21.7602635 73.9524756,22.0426183 73.7815554,22.2499797 C73.6191813,22.4469715 73.3713706,22.5757022 73.1029436,22.5880828 L73.0603986,22.5890637 L70.213898,22.5890637 L70.2132625,27.2951928 C70.2132625,27.8220831 69.7958192,28.2361605 69.2646459,28.2361605 C68.7458255,28.2361605 68.3355067,27.8411185 68.3167027,27.3317657 L68.3160292,27.2951928 L68.3160292,22.5890637 L62.6230282,22.5890637 L62.6230282,58.3529344 L69.2646459,58.3529344 C69.7834663,58.3529344 70.193785,58.7479763 70.212589,59.2573291 L70.2132625,59.293902 L70.2132625,63.0584181 C70.2132625,63.5730551 69.8150094,63.9800653 69.3015161,63.9987177 L69.2646459,63.9993858 L54.0835265,63.9993858 C53.5647061,63.9993858 53.1543874,63.6043438 53.1355834,63.094991 L53.1349099,63.0584181 L53.1349099,59.293902 C53.1349099,58.779265 53.5331631,58.3722548 54.0466563,58.3536024 L54.0835265,58.3529344 L60.7257949,58.3535647 L60.7257949,22.5880806 L50.2884094,22.5880806 C50.0179918,22.5880806 49.764779,22.4691864 49.594135,22.2800639 L49.5678869,22.2496259 C49.3874009,22.0526326 49.309565,21.7879576 49.3512606,21.5198987 L53.1539571,0.772071073 C53.2274,0.333085591 53.605439,0.0184032002 54.0446077,0.000779704837 L54.0835103,0 L69.2646296,0 Z M43.6467754,60.2354839 L37.9537743,60.2354839 L37.9537743,62.1180647 L43.6467754,62.1180647 L43.6467754,60.2354839 Z M11.3869781,60.2354839 L5.69397703,60.2354839 L5.69397703,62.1180647 L11.3869781,62.1180647 L11.3869781,60.2354839 Z M68.316013,60.2351612 L55.0321269,60.2351612 L55.0321269,62.117742 L68.316013,62.117742 L68.316013,60.2351612 Z M7.59186093,37.6474195 L1.89885985,37.6474195 L1.89885985,58.3529032 L47.4425281,58.3529032 L47.4425281,37.6474195 L41.749527,37.6474195 L41.7488915,51.7651614 C41.7488915,52.2797984 41.3506383,52.6868087 40.8371451,52.7054611 L40.8002748,52.7061291 L8.54047757,52.7061291 C8.02165717,52.7061291 7.61133841,52.3110872 7.59253441,51.8017344 L7.59186093,51.7651614 L7.59186093,37.6474195 Z M39.8519835,43.2938709 L9.48876889,43.2938709 L9.48876889,50.8235484 L39.8519835,50.8235484 L39.8519835,43.2938709 Z M38.9036922,20.7054837 L10.4386868,20.7054837 C8.88147872,20.7054837 7.62081871,21.9381262 7.59236843,23.4758864 L7.59187719,23.5290321 L7.59187719,35.7641934 L8.54049383,35.7641934 C9.05931423,35.7641934 9.46963299,36.1592353 9.48843699,36.6685881 L9.48911047,36.705161 L9.48911047,41.4112902 L39.8523251,41.4112902 L39.8523251,36.705161 C39.8523251,36.190524 40.2505783,35.7835138 40.7640715,35.7648614 L40.8009417,35.7641934 L41.7501927,35.7641934 L41.7501927,23.5290321 C41.7501927,21.9843803 40.5075303,20.734185 38.9572699,20.7059709 L38.9036922,20.7054837 Z" id="Shape"></path>
                </g>
            </g>
            <polygon id="Path" fill="#F0AA3B" points="68.4871283 1.88128996 54.8811811 1.88128996 51.4273186 20.7054837 71.9409908 20.7054837"></polygon>
        </g>
    </g>
</svg>