<?xml version="1.0" encoding="UTF-8"?>
<svg width="64px" height="64px" viewBox="0 0 64 64" version="1.1" xmlns="http://www.w3.org/2000/svg" xmlns:xlink="http://www.w3.org/1999/xlink">
    <title>Group 4@1x</title>
    <g id="Page-1" stroke="none" stroke-width="1" fill="none" fill-rule="evenodd">
        <g id="ЛЛ-макет" transform="translate(-648.000000, -884.000000)" fill-rule="nonzero">
            <g id="Group-26-Copy" transform="translate(72.000000, 726.000000)">
                <g id="Group-17" transform="translate(420.000000, 118.000000)">
                    <g id="Group-4" transform="translate(156.000000, 40.000000)">
                        <g id="Shape-4" fill="#303337">
                            <path d="M25.8065222,1.65932682 C29.6391924,-0.553108939 34.3608985,-0.553108939 38.1935687,1.65932682 C41.9879121,3.85010538 44.3397277,7.87999572 44.3863846,12.2542807 L44.3870919,12.3869387 L44.3870919,18.5804375 C44.3839385,22.5234419 42.5009664,26.2258331 39.3225346,28.5508342 L39.2258226,28.620866 L39.2258226,35.0964344 C39.2829681,35.0964344 39.3401107,35.1011533 39.3963092,35.1103548 L39.4382663,35.1180928 L50.9045423,37.5282486 C53.5175013,38.0719789 55.9077294,39.3844107 57.7681458,41.297789 C59.6047107,43.1861709 60.8416802,45.5747694 61.3252946,48.1627173 L63.9832815,62.7829598 C64.0381266,63.0843413 63.9565609,63.3940163 63.7602439,63.6290389 C63.5717795,63.8546606 63.2966848,63.9889664 63.0042536,63.9993499 L62.9676145,64 L1.0323821,64 C0.726386656,64 0.436069678,63.8640615 0.239752687,63.6290389 C0.0512951715,63.4034172 -0.0314141259,63.1089959 0.0107878545,62.8191601 L0.0167150679,62.7829598 L2.65633568,48.2677579 C3.12645359,45.6410066 4.37152872,43.2148067 6.23194513,41.3019003 C8.06851004,39.4130525 10.4215038,38.109887 12.9951651,37.5536531 L13.0955486,37.5323599 L24.5618246,35.1139461 C24.617866,35.1036233 24.674491,35.0977247 24.7314707,35.096486 L24.7742684,35.0964344 L24.7742684,28.620866 C21.5697253,26.323807 19.654779,22.6379908 19.6136705,18.6998512 L19.612999,18.5804375 L19.612999,12.3869387 C19.612999,7.96159529 21.9738521,3.87223446 25.8065222,1.65932682 Z M15.4847857,59.8708533 L2.64590697,59.8708533 L2.27193614,61.9353529 L15.4847857,61.9353529 L15.4847857,59.8708533 Z M61.3557884,59.8708533 L48.5169096,59.8708533 L48.5169096,61.9353529 L61.7313636,61.9353529 L61.3557884,59.8708533 Z M43.355888,38.0526315 L43.355888,41.2898849 C43.355888,41.5002349 43.2917975,41.7048791 43.1724586,41.8772916 L43.1494372,41.9092348 L36.955914,50.1672332 L36.9227344,50.1423484 C37.0658562,50.5899513 37.1457116,51.0550999 37.1603741,51.5243591 L37.1623589,51.6123901 L37.1623589,58.8381387 C37.1623589,59.1118678 37.0536006,59.3745405 36.860056,59.5680868 C36.6753088,59.7528355 36.427572,59.8603265 36.1673579,59.8697166 L36.130105,59.8703885 L32.0010895,59.8703885 C31.7273594,59.8703885 31.4646856,59.7616307 31.2711386,59.5680868 C31.0863891,59.3833403 30.9788977,59.1356045 30.9695075,58.8753914 L30.9688356,58.8381387 L30.9688356,56.6704141 C29.8038634,56.4308142 28.7568631,55.7971426 28.0047924,54.875951 C27.2527217,53.9543584 26.8412027,52.8017778 26.8398202,51.6123901 C26.8463155,51.1426695 26.9181345,50.6762095 27.0533494,50.2264744 L27.0794446,50.1423484 L27.046265,50.1672332 L20.8527418,41.9092348 C20.7265291,41.7409548 20.6550164,41.5387853 20.6470399,41.3292522 L20.646291,41.2898849 L20.646291,38.0526315 L13.5237393,39.5526315 C11.3122504,40.0121366 9.28974064,41.1217757 7.71552399,42.7402254 C6.16399264,44.3344094 5.11763118,46.3499389 4.70590484,48.5343842 L3.01965366,57.8059998 L15.4845616,57.8059998 L15.4845616,48.5157515 L17.5490693,48.5157515 L17.5490693,61.934999 L46.4521777,61.934999 L46.4521777,48.5157515 L48.5166855,48.5157515 L48.5166855,57.8059998 L60.9815934,57.8059998 L59.3115836,48.6364363 C58.9134285,46.413855 57.8600577,44.3609166 56.285841,42.7419949 C54.7347746,41.147346 52.7483887,40.0453241 50.5758415,39.5733496 L43.355888,38.0526315 Z M32.0004938,48.5162234 C31.1794095,48.5162234 30.3913456,48.8425913 29.8106999,49.4231286 C29.2300541,50.0036659 28.9037911,50.7918329 28.9037911,51.6129138 C28.9037911,52.4339948 29.2301603,53.2220556 29.8106999,53.8026991 C30.3780454,54.3701461 31.1435895,54.6946428 31.9445569,54.7090996 L32.0004938,54.7096043 C32.2741649,54.7096633 32.5368387,54.8184211 32.7303857,55.011965 C32.9151351,55.1967114 33.0226266,55.4444473 33.0320168,55.7046604 L33.0326886,55.7419131 L33.0326886,57.8064127 L35.0971964,57.8064127 L35.0971964,51.6129138 C35.0971964,50.7918329 34.7708272,50.0037721 34.1902876,49.4231286 C33.6097481,48.8424851 32.821578,48.5162234 32.0004938,48.5162234 Z M33.0328656,50.5806051 L33.0328656,52.6451047 L30.9683579,52.6451047 L30.9683579,50.5806051 L33.0328656,50.5806051 Z M24.4401484,37.2539769 L22.7102089,37.618485 L22.7102089,40.9465763 L28.1543748,48.2064187 C29.1217442,47.092167 30.5249016,46.4525378 32.0004938,46.4525378 C33.4533845,46.4525378 34.8361436,47.0726146 35.801661,48.1553283 L35.8466127,48.2064187 L41.2907786,40.9465763 L41.2907786,37.618485 L39.5594234,37.254437 L37.9419111,38.871943 C36.4154772,40.4071146 34.3443192,41.2757599 32.1810183,41.2902044 L32.1037191,41.2903568 L31.8972684,41.2903568 C29.7318378,41.2963026 27.6528165,40.4457628 26.1124443,38.9264868 L26.0576607,38.871943 L24.4401484,37.2539769 Z M37.1617631,29.8323721 C35.576799,30.5650352 33.8547426,30.9518899 32.1095945,30.9673747 L32.0004938,30.9678587 C30.2544561,30.9678472 28.5291125,30.5959446 26.9384857,29.8777124 L26.839248,29.8323721 L26.839248,36.7341713 L27.5185064,37.4120468 C28.6599022,38.5593634 30.2062446,39.2100995 31.822618,39.2256331 L31.8972684,39.2259393 L32.1037191,39.2259393 C33.7217034,39.2317832 35.2757245,38.6002999 36.4304162,37.4701078 L36.4834249,37.4175915 L37.1617631,36.7392559 L37.1617631,29.8323721 Z M42.3229145,14.8790252 L39.9561628,17.2462394 C39.7714157,17.4309881 39.5236788,17.5384791 39.2634647,17.5478693 L39.2262119,17.5485412 L24.7746577,17.5485412 C24.5133698,17.5485412 24.2621539,17.4494457 24.0715222,17.272104 L24.0447067,17.2462394 L24.0447067,17.2457786 L21.6778371,14.8790252 L21.6778371,18.58085 C21.6778371,22.2687541 23.645136,25.6765941 26.8391064,27.5203692 C30.0330769,29.3641443 33.9676747,29.3641443 37.1616451,27.5203692 C40.3236759,25.6950319 42.2834459,22.3368701 42.3223251,18.6914052 L42.3229145,18.58085 L42.3229145,14.8790252 Z" id="Shape"></path>
                        </g>
                        <polygon id="Path" fill="#F0AA3B" points="41.8959743 12.3873622 22.1050132 12.3873622 25.2017748 15.4841116 38.7992127 15.4841116"></polygon>
                        <path d="M32.0006117,2.06486414 C29.6218269,2.06757749 27.3167745,2.8901921 25.4739359,4.39479942 C23.6538484,5.88036528 22.3947151,7.94131371 21.9026175,10.2366772 L21.8845238,10.3228626 L42.1166997,10.3228626 C41.6378519,7.99292732 40.3701261,5.89893485 38.5272875,4.39479942 C36.6844489,2.8902039 34.3793965,2.06762916 32.0006117,2.06486414 Z" id="Path" fill="#F0AA3B"></path>
                    </g>
                </g>
            </g>
        </g>
    </g>
</svg>