<?xml version="1.0" encoding="UTF-8"?>
<svg width="64px" height="65px" viewBox="0 0 64 65" version="1.1" xmlns="http://www.w3.org/2000/svg" xmlns:xlink="http://www.w3.org/1999/xlink">
    <title>Group 3@1x</title>
    <g id="Page-1" stroke="none" stroke-width="1" fill="none" fill-rule="evenodd">
        <g id="ЛЛ-макет" transform="translate(-228.000000, -237.000000)">
            <g id="Group-2" transform="translate(72.000000, 80.000000)">
                <g id="Group-6" transform="translate(0.000000, 118.000000)">
                    <g id="Group-3" transform="translate(156.000000, 39.000000)">
                        <g id="Group-40" fill="#303337" fill-rule="nonzero">
                            <g id="Group-37">
                                <path d="M63.1026871,40.7459259 C59.9161838,39.3239629 56.7161115,38.4438396 53.5158934,38.1054981 C59.3303866,30.901667 62.6398854,23.6971105 62.6398854,18.0371441 C62.6398854,8.08392531 54.3468063,0 44.161376,0 C39.368198,0 34.7655683,1.85492992 31.3202345,5.14548999 C27.874463,1.85492992 23.2716874,0 18.4785094,0 C8.29278735,0 0,8.08407039 0,18.0240863 C0,27.4217692 9.57307886,43.5360829 30.5986024,56.6722076 C30.8163176,56.8076589 31.0750605,56.8750965 31.3201324,56.8750965 C31.5652042,56.8750965 31.8239472,56.8076545 32.0416624,56.6722076 C34.0164482,55.4401047 35.9359371,54.112738 37.8293095,52.7316604 C39.6132553,58.8389283 43.6710864,62.9421174 49.9762485,64.932558 C50.1124613,64.9733636 50.248677,65 50.3848913,65 C50.5211055,65 50.6573198,64.9727963 50.7935341,64.932558 C60.2987684,61.9265124 64.710704,54.1809287 63.9070749,41.8855798 C63.8797183,41.3976106 63.5668311,40.9504542 63.103475,40.7475509 L63.1026871,40.7459259 Z M31.3193591,53.9215141 C12.5402912,41.9643617 2.72253443,26.8788558 2.72253443,18.0227805 C2.72253443,9.57323744 9.79018129,2.70745774 18.4785094,2.70745774 C22.9861568,2.70745774 27.2891035,4.63043319 30.2983357,8.00195148 C30.5570786,8.28645145 30.9246937,8.448542 31.3196509,8.448542 C31.7146081,8.448542 32.0822232,8.28588561 32.3409661,8.00195148 C35.3507819,4.63043319 39.6537286,2.70745774 44.161376,2.70745774 C52.8494123,2.70745774 59.917351,9.57294727 59.917351,18.0227805 C59.917351,23.3853198 56.2544771,30.7921268 50.1265861,37.9286377 C45.9597661,37.9694433 41.8062232,38.9034444 37.6668329,40.7453456 C37.2040458,40.9482344 36.9042606,41.3954053 36.8632329,41.8964032 C36.6723053,44.8077074 36.7817334,47.4617733 37.1766891,49.858601 C35.282879,51.280564 33.3222457,52.6481777 31.3200302,53.9215141 L31.3193591,53.9215141 Z" id="Shape"></path>
                                <path d="M39.3002076,24.1843107 C40.0490943,24.1843107 40.6617666,23.5750638 40.6617666,22.8303642 C40.6617666,22.0856646 40.0490943,21.4764177 39.3002076,21.4764177 L32.6822312,21.4764177 L32.6822312,14.8954427 C32.6822312,14.1507431 32.0695589,13.5414962 31.3206722,13.5414962 C30.5717856,13.5414962 29.9591132,14.1507431 29.9591132,14.8954427 L29.9591132,21.4764177 L23.3411368,21.4764177 C22.5922502,21.4764177 21.9795778,22.0856646 21.9795778,22.8303642 C21.9795778,23.5750638 22.5922502,24.1843107 23.3411368,24.1843107 L29.9591132,24.1843107 L29.9591132,30.7652858 C29.9591132,31.5099854 30.5717856,32.1192323 31.3206722,32.1192323 C32.0695589,32.1192323 32.6822312,31.5099854 32.6822312,30.7652858 L32.6822312,24.1843107 L39.3002076,24.1843107 Z" id="Path"></path>
                            </g>
                        </g>
                        <path d="M50.3843952,62.2226338 C44.6514614,60.2725272 41.2199883,56.3189222 39.9939724,50.2116543 C39.9802941,50.1572469 39.9666158,50.0898049 39.9529374,50.0354033 C39.5442946,47.9095971 39.4080804,45.5264075 39.5306236,42.8853993 C46.7345431,39.8929918 54.0330072,39.8929918 61.2364889,42.8853993 C61.7135161,53.2579179 58.1594123,59.5819449 50.3838481,62.2226338 L50.3843952,62.2226338 Z" id="Path" fill="#F0AA3B"></path>
                    </g>
                </g>
            </g>
        </g>
    </g>
</svg>