<?xml version="1.0" encoding="UTF-8"?>
<svg width="61px" height="66px" viewBox="0 0 61 66" version="1.1" xmlns="http://www.w3.org/2000/svg" xmlns:xlink="http://www.w3.org/1999/xlink">
    <title>Shape 3@1x</title>
    <g id="Page-1" stroke="none" stroke-width="1" fill="none" fill-rule="evenodd">
        <g id="ЛЛ-макет" transform="translate(-650.000000, -237.000000)" stroke="#303337" stroke-width="0.8">
            <g id="Group-2" transform="translate(72.000000, 80.000000)">
                <g id="Group-17" transform="translate(420.000000, 118.000000)">
                    <g id="Shape-2" transform="translate(159.000000, 40.000000)">
                        <path d="M40.61493,39.9480049 L39.9008689,39.9480049 L38.0459253,38.134817 L38.0459253,34.8110125 C39.6098812,33.297567 40.6638694,31.3324452 40.9890284,29.072178 C41.0476859,28.6812753 41.0837124,28.1513219 41.1044965,27.5546071 C42.7469635,27.2194095 43.986115,25.7699436 43.986115,24.03785 C43.986115,22.2988021 42.735849,20.8461773 41.0832134,20.5188535 C41.7792547,19.7798701 42.2946968,18.7826345 42.5357875,17.6776071 L44.5153557,16.0006765 C44.518127,15.9983743 44.5185888,15.9942305 44.52136,15.9919283 C45.1555147,15.6010256 45.7485693,15.1981473 46.271898,14.7772822 C47.5780914,13.7242824 47.9739577,11.8512875 47.2113475,10.3231083 L45.9993911,7.89475908 C45.4548384,6.80262662 44.4179358,6.06000107 43.2277355,5.90759569 C39.4607385,5.42414179 35.825697,3.78228915 32.4221688,1.02885558 C30.7270852,-0.343264293 28.2680552,-0.342792814 26.5729716,1.02931598 C23.1703892,3.78357464 19.5353477,5.42455504 15.7692967,5.90758461 C14.5767316,6.05998999 13.5402429,6.80450146 12.9957493,7.8989913 L11.7879313,10.3286371 C11.0286081,11.8554019 11.4235167,13.7261101 12.7273808,14.7777426 C13.3453721,15.2754705 14.0520195,15.749707 14.8266075,16.2032574 L16.4630442,17.64162 C16.6999846,18.761381 17.2200499,19.7719949 17.9230674,20.5192881 C16.2691312,20.8461876 15.0183922,22.2988831 15.0183922,24.0382846 C15.0183922,25.7686102 16.2552971,27.2166381 17.9009566,27.5536272 C17.9217407,28.1600073 17.9577672,28.688122 18.0155012,29.0711982 C18.3406603,31.330051 19.3932296,33.2937583 20.9548206,34.8072038 L20.9548206,38.1356052 L19.099877,39.9487931 L18.3969069,39.9487931 C8.37337716,39.9487931 0,48.0127231 0,58.2386171 L0,63.2499605 C0,63.6638831 0.337172181,64 0.752394353,64 L58.2476056,64 C58.6628278,64 59,63.6638831 59,63.2499605 L59,58.2386171 C59,47.8692758 50.467354,39.9476144 40.6137347,39.9476144 L40.61493,39.9480049 Z M16.8144712,41.5263965 C17.3359317,41.47621 17.8643092,41.4481241 18.3973454,41.4481241 L18.5331318,41.4481241 C18.546526,41.4651598 18.5516068,41.4858789 18.566849,41.501994 L24.3167249,47.558487 C24.4599013,47.7085822 24.6575861,47.7928471 24.8635833,47.7928471 C24.8792867,47.7928471 24.8959147,47.7923866 24.9116181,47.7914658 C25.135162,47.777193 25.3397757,47.6643906 25.471873,47.4848163 L25.8136566,47.017487 L25.5189797,50.7004401 L16.8144712,41.5263965 Z M22.4598232,36.0187043 C24.3929232,37.308787 26.8181367,38.0519547 29.5030044,38.0519547 C32.1856255,38.0519547 34.6090653,37.3102014 36.5414559,36.0218868 L36.5414559,37.8309492 L29.5011125,39.9158265 L22.4598232,37.8309492 L22.4598232,36.0187043 Z M38.8337679,41.0056487 L34.2141449,45.8718946 L30.7362439,41.1147959 L37.0356976,39.2496276 L38.8337679,41.0056487 Z M27.5081832,44.7006246 L29.5007578,41.9721793 L31.4928594,44.7006246 L32.0905253,52.1641269 L29.5013135,54.8958724 L26.9121017,52.1641269 L27.5081832,44.7006246 Z M33.4829509,50.6995972 L33.1878129,47.0157011 L33.5305187,47.4844213 C33.6626161,47.6639839 33.8676909,47.7767968 34.0907736,47.7910709 C34.106477,47.7919918 34.1231051,47.7924522 34.1388085,47.7924522 C34.3448056,47.7924522 34.5424905,47.7077334 34.6856669,47.5580921 L40.4345968,41.501599 C40.4498391,41.4854839 40.4549198,41.4647648 40.468314,41.4477291 L40.6147302,41.4477291 C41.140802,41.4477291 41.6645682,41.4753554 42.1874357,41.5260016 L33.4829509,50.6995972 Z M40.8881818,17.1044073 C33.7628242,15.3298806 25.9261368,15.1622701 18.1258672,17.1025656 L16.7060455,15.8547981 C23.9080224,13.0282854 35.4139226,13.4601596 42.5354966,15.7088402 L40.8881818,17.1044073 Z M19.1025267,18.4309116 C25.8952762,16.8369612 32.7331933,16.7480875 39.9020632,18.4309116 C38.7829485,20.2376167 37.4287262,21.9836189 35.5734279,22.4449604 C33.8713682,22.8680887 24.7864248,22.786134 23.4313984,22.4449604 C21.5723164,21.9766999 20.2181177,20.2339627 19.1022902,18.4309116 L19.1025267,18.4309116 Z M42.4808699,24.0379679 C42.4808699,24.9256674 41.920615,25.6849597 41.1271442,25.987413 C41.1257585,24.7599191 41.0851135,23.2170062 41.0366163,22.0530441 C41.8744507,22.3283756 42.4809136,23.1138703 42.4809136,24.0379679 L42.4808699,24.0379679 Z M16.5226558,24.0379679 C16.5226558,23.1267771 17.1124706,22.3496039 17.9637606,22.0650668 C17.9161881,23.2870208 17.8769278,24.7618051 17.8755432,25.9897704 C17.0852767,25.6891087 16.5227634,24.9275651 16.5227634,24.0379679 L16.5226558,24.0379679 Z M19.4902345,21.5594967 C19.5022429,21.5613658 19.5142513,21.5650492 19.5262609,21.5664305 C20.490186,22.6571839 21.6315178,23.5388602 23.0632817,23.8994233 C23.9154349,24.114441 26.8510889,24.2387581 29.74193,24.2387581 C32.3870692,24.2387581 34.9953176,24.1347016 35.9379241,23.9003427 C37.3679144,23.5448951 38.5096364,22.6631835 39.4744719,21.5714754 C39.4855569,21.5705544 39.4961796,21.5664106 39.5072645,21.5645689 C39.584397,23.0582123 39.7211128,27.3820224 39.5003364,28.8536242 C39.4994126,28.8550054 39.4994126,28.8568473 39.4994126,28.8586888 C38.8477111,33.3893601 34.7370743,36.5533334 29.5021321,36.5533334 C24.2676629,36.5533334 20.1565885,33.3887707 19.503078,28.8536205 C19.2772166,27.3461863 19.426869,23.0748282 19.490145,21.5594967 L19.4902345,21.5594967 Z M21.9645173,39.2493918 L28.26539,41.1145602 L24.7874889,45.8716589 L20.16692,41.005413 L21.9645173,39.2493918 Z M57.4955375,62.4991681 L1.50432864,62.4991681 L1.50432864,58.2379467 C1.50432864,49.9755244 7.44953638,43.3180143 14.9978373,41.7963179 L28.9536629,56.5040851 C28.9587436,56.5096102 28.966596,56.5109915 28.9721379,56.5165168 C29.1130086,56.6560272 29.301459,56.7384417 29.5005272,56.7384417 C29.7074466,56.7384417 29.9051315,56.653262 30.0473856,56.5036219 L44.0020289,41.7958547 C51.6968287,43.340182 57.4955375,50.1259342 57.4955375,58.2374835 L57.4955375,62.4987048 L57.4955375,62.4991681 Z" id="Shape" fill="#303337" fill-rule="nonzero"></path>
                        <path d="M29.4981255,1.89833534 C30.1102869,1.89833534 30.7225028,2.09995765 31.2219631,2.50441163 C34.9085134,5.48766116 38.8671205,7.26392528 42.9842219,7.79214796 C43.5459197,7.86428963 44.0331259,8.22077271 44.2929024,8.74167036 L44.2929024,8.74167036 L45.5048479,11.169998 C45.6890557,11.5391437 45.7349975,11.948837 45.6569639,12.3289646 C45.5799504,12.7041229 45.3818831,13.0510506 45.0741205,13.2989064 C44.7087236,13.5934167 44.2935901,13.876202 43.8552291,14.1535923 C36.1460259,11.4680078 23.3164372,10.9509639 15.4212032,14.3425128 C14.8778936,14.0058028 14.3722707,13.6595299 13.9259163,13.3003616 C13.6187839,13.0525636 13.4209621,12.7058621 13.3438825,12.330974 C13.2657806,11.9511134 13.3113393,11.5417255 13.4948505,11.1726622 L13.4948505,11.1726622 L14.7020827,8.74402063 C14.9618246,8.22205558 15.4498063,7.86430976 16.0123008,7.79216656 C20.1300116,7.26483858 24.0882144,5.48811704 27.7727955,2.50452129 C28.2730603,2.10005514 28.8858063,1.89833534 29.4981255,1.89833534 Z" id="Path" fill="#F0AA3B"></path>
                    </g>
                </g>
            </g>
        </g>
    </g>
</svg>