<?xml version="1.0" encoding="UTF-8"?>
<svg width="68px" height="64px" viewBox="0 0 68 64" version="1.1" xmlns="http://www.w3.org/2000/svg" xmlns:xlink="http://www.w3.org/1999/xlink">
    <title>ico_bus@1x</title>
    <g id="Page-1" stroke="none" stroke-width="1" fill="none" fill-rule="evenodd">
        <g id="ico_bus">
            <g id="Shape-6" fill="#303337" fill-rule="nonzero">
                <g id="Shape-5">
                    <path d="M65.8064516,15.4482759 L61.4193548,15.4482759 L61.4193548,8.82758621 C61.4193548,3.95274089 57.4905217,0 52.6451613,0 L15.3548387,0 C10.5094783,0 6.58064516,3.95274089 6.58064516,8.82758621 L6.58064516,15.4482759 L2.19354839,15.4482759 C0.98563023,15.4482759 0,16.4399038 0,17.6551724 L0,26.4827586 C0,27.6980272 0.98563023,28.6896552 2.19354839,28.6896552 L6.58064516,28.6896552 L6.58064516,50.7586207 C6.58064516,51.9906365 7.40664774,52.9936394 8.77419355,53.8093084 L8.77419355,61.7931034 C8.77419355,63.0118274 9.75638931,64 10.9677419,64 L17.5483871,64 C18.7597397,64 19.7419355,63.0118274 19.7419355,61.7931034 L19.7419355,56.6497734 C25.9123244,57.3793356 32.2852719,57.3793356 34,57.3793356 C35.7147281,57.3793356 42.0876756,57.378843 48.2580645,56.6497734 L48.2580645,61.7931034 C48.2580645,63.0118274 49.2402603,64 50.4516129,64 L57.0322581,64 C58.2436107,64 59.2258065,63.0118274 59.2258065,61.7931034 L59.2258065,53.8093084 C60.5933272,52.9925549 61.4193548,51.9905734 61.4193548,50.7586207 L61.4193548,28.6896552 L65.8064516,28.6896552 C67.0143698,28.6896552 68,27.6980272 68,26.4827586 L68,17.6551724 C68,16.4399038 67.0143698,15.4482759 65.8064516,15.4482759 Z M6.58064516,26.4827586 L2.19354839,26.4827586 L2.19354839,17.6551724 L6.58064516,17.6551724 L6.58064516,26.4827586 Z M8.77419355,26.4827586 L8.77419355,11.0344828 L32.9032258,11.0344828 L32.9032258,35.3103448 L8.77419355,35.3103448 L8.77419355,26.4827586 Z M17.5483871,61.7931034 L10.9677419,61.7931034 L10.9677419,54.8172926 C12.827871,55.4916824 15.1252055,55.9897096 17.5483871,56.3556887 L17.5483871,61.7931034 Z M57.0322581,61.7931034 L50.4516129,61.7931034 L50.4516129,56.3551842 C52.8747945,55.9886881 55.172129,55.4916319 57.0322581,54.8167882 L57.0322581,61.7931034 Z M59.2260346,46.3448276 L59.2260346,50.7586207 C59.2260346,50.7990145 59.2213998,50.8364535 59.2106284,50.8753693 C58.9663047,51.7354662 56.6538284,52.6231053 55.9236901,52.8693949 C53.3050947,53.753629 50.2841399,54.2028649 47.5437085,54.5098127 C43.0646081,55.0127707 38.5070413,55.1723734 34.0001141,55.1723734 C29.4931869,55.1723734 24.9356201,55.0127707 20.4565196,54.5107963 C17.7150855,54.2034071 14.6950081,53.7546379 12.076538,52.8703786 C11.3474778,52.6240763 9.03402374,51.735895 8.78959978,50.8763529 C8.77882783,50.836451 8.77442168,50.7985201 8.77442168,50.7586194 L8.77442168,37.5172401 L59.2260346,37.5172401 L59.2260346,46.3448276 Z M59.2258065,17.6551724 L59.2258065,35.3103448 L35.0967742,35.3103448 L35.0967742,11.0344828 L59.2258065,11.0344828 L59.2258065,17.6551724 Z M35.0967742,8.82758621 L8.77419355,8.82758621 C8.77419355,5.17145222 11.7208184,2.20689655 15.3548387,2.20689655 L52.6451613,2.20689655 C56.2791816,2.20689655 59.2258065,5.17145222 59.2258065,8.82758621 L35.0967742,8.82758621 Z M65.8064516,26.4827586 L61.4193548,26.4827586 L61.4193548,17.6551724 L65.8064516,17.6551724 L65.8064516,26.4827586 Z M42.7741935,4.4137931 L25.2258065,4.4137931 C24.6206253,4.4137931 24.1290323,4.90837754 24.1290323,5.51724138 C24.1290323,6.12610522 24.6206253,6.62068966 25.2258065,6.62068966 L42.7741935,6.62068966 C43.3793747,6.62068966 43.8709677,6.12610522 43.8709677,5.51724138 C43.8709677,4.90837754 43.3793747,4.4137931 42.7741935,4.4137931 Z M52.6451613,39.7241379 C50.2219797,39.7241379 48.2580645,41.7000039 48.2580645,44.137931 C48.2580645,46.5758581 50.2219797,48.5517241 52.6451613,48.5517241 C55.0683429,48.5517241 57.0322581,46.5758581 57.0322581,44.137931 C57.0322581,41.7000039 55.0683429,39.7241379 52.6451613,39.7241379 Z M15.3548387,39.7241379 C12.9316571,39.7241379 10.9677419,41.7000039 10.9677419,44.137931 C10.9677419,46.5758581 12.9316571,48.5517241 15.3548387,48.5517241 C17.7780203,48.5517241 19.7419355,46.5758581 19.7419355,44.137931 C19.7419355,41.7000039 17.7780203,39.7241379 15.3548387,39.7241379 Z M42.7741935,46.3448276 L25.2258065,46.3448276 C24.6206253,46.3448276 24.1290323,46.839412 24.1290323,47.4482759 C24.1290323,48.0571397 24.6206253,48.5517241 25.2258065,48.5517241 L42.7741935,48.5517241 C43.3793747,48.5517241 43.8709677,48.0571397 43.8709677,47.4482759 C43.8709677,46.839412 43.3793747,46.3448276 42.7741935,46.3448276 Z M23.0322581,41.9310345 C22.4270769,41.9310345 21.9354839,42.4256189 21.9354839,43.0344828 C21.9354839,43.6433466 22.4270769,44.137931 23.0322581,44.137931 L44.9677419,44.137931 C45.5729231,44.137931 46.0645161,43.6433466 46.0645161,43.0344828 C46.0645161,42.4256189 45.5729231,41.9310345 44.9677419,41.9310345 L23.0322581,41.9310345 Z" id="Shape"></path>
                </g>
            </g>
            <path d="M52.6451613,46.3448276 C51.4338087,46.3448276 50.4516129,45.356655 50.4516129,44.137931 C50.4516129,42.9192071 51.4338087,41.9310345 52.6451613,41.9310345 C53.8565139,41.9310345 54.8387097,42.9192071 54.8387097,44.137931 C54.8387097,45.356655 53.8565139,46.3448276 52.6451613,46.3448276 Z" id="Path" fill="#F0AA3B"></path>
            <path d="M15.3548387,46.3448276 C14.1434861,46.3448276 13.1612903,45.356655 13.1612903,44.137931 C13.1612903,42.9192071 14.1434861,41.9310345 15.3548387,41.9310345 C16.5661913,41.9310345 17.5483871,42.9192071 17.5483871,44.137931 C17.5483871,45.356655 16.5661913,46.3448276 15.3548387,46.3448276 Z" id="Path" fill="#F0AA3B"></path>
        </g>
    </g>
</svg>