<?xml version="1.0" encoding="UTF-8"?>
<svg width="67px" height="64px" viewBox="0 0 67 64" version="1.1" xmlns="http://www.w3.org/2000/svg" xmlns:xlink="http://www.w3.org/1999/xlink">
    <title>Group 35@1x</title>
    <g id="Page-1" stroke="none" stroke-width="1" fill="none" fill-rule="evenodd">
        <g id="ЛЛ-макет" transform="translate(-1067.000000, -238.000000)">
            <g id="Group-2" transform="translate(72.000000, 80.000000)">
                <g id="Group-18" transform="translate(840.000000, 118.000000)">
                    <g id="Group-33" transform="translate(155.000000, 40.000000)">
                        <path d="M34.7869586,34.8171062 C34.8441763,34.6791694 34.8768721,34.5294447 34.8744572,34.3710038 L34.7859372,28.7520619 C34.7236111,24.8750511 24.6896007,23.9987036 18.7702197,24.0955796 C12.8501849,24.1894155 2.84735838,25.3810906 2.90882651,29.2575763 C2.90882651,29.2652679 2.91240252,29.2714212 2.91240252,29.2786003 C2.91240252,29.2842408 2.90984819,29.2888556 2.90984819,29.2939836 L3.12339109,33.643298 L1.20153115,37.1076011 C-1.35593541,41.7229964 0.303926431,47.5711328 4.90230493,50.1395294 C5.29414464,50.3579731 5.69568847,50.5410268 6.10183587,50.6994677 L6.9488667,58.5561412 C8.02169483,61.487101 13.8466372,62.7874453 18.9926967,62.7874453 C19.1531154,62.7874453 19.3130111,62.7848815 19.4724097,62.7848815 C25.7454285,62.6838666 32.0689297,60.7481218 32.0107312,57.340264 L33.519316,36.3373275 C34.195714,35.9101934 34.6371074,35.4051121 34.787809,34.8175025 L34.7869586,34.8171062 Z M23.6172839,36.0154418 C23.7429588,35.8662291 23.8190825,35.6831754 23.850235,35.4821641 C23.9774427,34.999136 23.7889304,34.4761104 23.3332358,34.2228018 C22.7968152,33.9254002 22.1188871,34.1192232 21.8215121,34.660188 L20.8074318,36.5020142 C20.2301415,36.5256019 19.676876,36.5563672 19.059252,36.56611 C10.5843663,36.7512246 5.87368422,35.3570103 5.40809583,34.8391435 C5.40809583,34.8329903 5.40400885,34.8273498 5.40400885,34.8211965 C5.40400885,34.8145305 5.40707415,34.8088901 5.40707415,34.8022243 L5.36926995,34.0330705 C5.39685736,33.8643644 5.39225903,33.6951595 5.34474808,33.5346577 L5.26862831,31.9850348 C8.39107853,33.4644291 13.9780084,33.9201928 18.0808099,33.9201928 C18.3699586,33.9201928 18.6514565,33.917629 18.9242573,33.9135269 C23.1165146,33.8468675 29.3404897,33.224368 32.602878,31.4937261 L32.646302,34.2462922 C32.1507511,34.8462279 29.0140586,35.8906908 23.434191,36.3465858 L23.6172839,36.0154418 Z M6.93849533,37.7178611 C10.4773594,38.677249 15.5962161,38.8069815 18.0842367,38.8069815 C18.5011083,38.8069815 18.8449244,38.8044176 19.0947466,38.801341 C19.2163345,38.79929 19.3828752,38.7957006 19.5468643,38.7915984 L15.9401237,45.3416267 C14.3589542,48.1885748 11.1609112,49.5344692 8.13197101,48.9396923 L6.93849533,37.7178611 Z M18.8055064,26.3282311 C19.1248006,26.3225907 19.4384712,26.3215651 19.7465311,26.3215651 C27.5337585,26.3215651 32.1653167,27.8798517 32.5551816,28.7874411 C32.1791798,29.7432322 27.2421119,31.5476208 18.8896392,31.6799393 C10.4342402,31.8419769 5.46996939,30.1396364 5.13516426,29.2560691 L5.13465329,29.245301 C5.43606945,28.2956533 10.380762,26.4620181 18.805427,26.3281244 L18.8055064,26.3282311 Z M3.14682719,38.1931838 L4.10931348,36.4600477 C4.25746475,36.5759328 4.42503733,36.6841228 4.60281101,36.7892425 L5.81919992,48.0732015 C2.42851323,46.0549505 1.21719872,41.6749194 3.14677487,38.1931576 L3.14682719,38.1931838 Z M29.7886842,57.2782898 C29.8050321,58.3335692 26.1666419,60.4435636 19.4374511,60.5497597 C13.3381124,60.645134 9.48510688,59.0094568 9.10099646,58.0526418 L8.38066845,51.2769632 C8.76280404,51.3236251 9.14544969,51.3487512 9.52757221,51.3487512 C12.8819011,51.3487512 16.1418046,49.5709839 17.8869763,46.4251378 L22.1502489,38.6824052 C24.8343136,38.5244763 28.4983373,38.1578438 31.2182367,37.3235152 L29.7886842,57.2782898 Z" id="Shape" fill="#303337" fill-rule="nonzero"></path>
                        <path d="M66.3109545,54.6307515 C53.5202214,49.3390616 50.5816524,45.5030065 47.9842969,40.8843295 C47.2057311,39.5619321 45.9274687,38.6194253 44.3708864,38.1241498 L43.7685641,35.2890159 C43.706238,34.9998186 43.5320295,34.74651 43.2852807,34.5854963 C43.1463235,34.4942241 42.9884681,34.4465356 42.8270293,34.4249945 L36.4810334,4.56013134 C36.4212615,4.2781144 36.2526727,4.02838949 36.015118,3.8679008 C35.8741206,3.77406493 34.5984738,2.94388973 33.0867502,3.25720104 C32.4471416,3.39051718 31.5331759,3.79406235 30.8052363,4.95030026 C30.648911,5.19694037 30.5962839,5.49434195 30.657085,5.78046758 L37.033815,35.7989147 C36.7845159,36.0568307 36.648619,36.4167948 36.7283184,36.7947033 L37.2918111,39.4456677 C36.7661278,40.0266352 36.2910184,40.7901182 36.0044069,41.5382165 C35.6840925,42.3781239 35.4271165,43.295506 35.2023393,44.2394567 C35.195698,44.2604806 35.1803717,44.2753507 35.1742419,44.2968866 C35.1655571,44.3297037 35.1742419,44.3614956 35.1686224,44.3948246 C34.0293825,49.3316961 34.2837952,55.322915 37.0700801,59.1769539 C39.0231972,61.8760938 42.0270271,63.2882787 45.7947619,63.2882787 C46.0139284,63.2882787 46.2381956,63.2795617 46.4634959,63.2698198 C47.5353039,63.7154102 48.6745176,64 49.9236285,64 C51.3842159,64 52.9664317,63.6779856 54.649743,63.0693336 C55.4063503,63.2385517 56.1931162,63.3595548 57.048831,63.3595548 C57.2659574,63.3595548 57.4886943,63.3539145 57.7114313,63.3405826 C60.0287798,63.2144416 61.8407818,62.0868648 63.0413721,60.1403914 C65.713274,59.0117855 66.8667823,56.2104795 66.9193572,56.0777671 C67.1472078,55.5075637 66.8759332,54.8640468 66.3109143,54.6297459 L66.3109545,54.6307515 Z M46.132406,42.1330853 C46.2095472,42.2699982 46.2892413,42.4048502 46.3669004,42.5407392 C44.8235272,43.759067 42.1322694,44.6830387 37.6341101,43.7370271 C37.7740874,43.2570837 37.916105,42.7776392 38.0841876,42.3377064 C38.1393624,42.1925893 38.2384726,42.0490211 38.3161186,41.9013442 C38.4162489,41.9926164 38.4898119,42.1074749 38.6057774,42.1823372 C39.0047709,42.44385 39.4584188,42.5776781 39.9232879,42.5776781 C40.0918806,42.5776781 40.2655738,42.5587059 40.4341534,42.5233251 L42.7131825,42.0351644 C43.3487106,41.8987634 43.8948353,41.5224039 44.2477932,40.9747655 C44.3244243,40.8563168 44.346392,40.7183853 44.4010581,40.5912125 C45.0994145,40.9542482 45.7180455,41.4270243 46.1323668,42.1330906 L46.132406,42.1330853 Z M39.1381175,37.422783 L41.8242748,36.847972 L42.4081959,39.6061826 C42.4301636,39.701557 42.3458698,39.8297458 42.2508506,39.8487272 L39.9693367,40.3368879 C39.8906627,40.3558601 39.7440364,40.2743307 39.7246281,40.178959 L39.1381175,37.422783 Z M33.5343166,5.44449936 C33.8398132,5.37886518 34.1672814,5.4537291 34.4155734,5.5465395 L40.634448,34.816757 L39.1677138,35.1305671 L32.9396844,5.80784229 C33.1215516,5.6114517 33.3187466,5.4914593 33.5343428,5.44378264 L33.5343166,5.44449936 Z" id="Shape" fill="#303337" fill-rule="nonzero"></path>
                        <path d="M62.0895326,58.0949233 C62.0517284,58.1051786 62.0169885,58.1195361 61.9802057,58.133381 C61.8213302,58.1908109 61.6757292,58.267721 61.503056,58.302599 C59.533591,58.7143485 56.9996654,57.4165376 54.2073121,54.5840291 C53.7781861,54.1507385 53.0772663,54.1425343 52.6343819,54.5758248 C52.1970689,55.0091154 52.1945186,55.7151948 52.626208,56.1545893 C55.1617029,58.7302057 57.5423505,60.1259821 59.7528491,60.4654421 C59.1382724,60.8464222 58.4246144,61.0664017 57.5913943,61.1110198 C49.2253202,61.6263531 46.4002711,51.2171927 46.2837432,50.7725868 C46.1289481,50.1752108 45.5286792,49.8239629 44.9258207,49.9762605 C44.3337256,50.1316297 43.9776421,50.7423295 44.1324371,51.3365944 C44.1554262,51.4299184 46.0261787,58.333329 51.1819162,61.6324965 C49.5006974,61.8581205 48.0012674,61.6837725 46.7454866,61.0094837 C43.8661624,59.4748254 43.0135864,56.0228615 43.005347,55.9905695 C42.8587259,55.3906338 42.2528332,55.0229774 41.666388,55.161938 C41.0686693,55.3034584 40.6993113,55.9008345 40.8377584,56.500744 C40.8679,56.6248333 41.3905269,58.6820302 42.9276748,60.6146942 C41.2617577,60.1332019 39.8778093,59.2548853 38.8739171,57.8667225 C36.6868287,54.8429559 36.3691561,50.0393218 37.1206367,45.8951799 C38.5704999,46.2028466 39.9131208,46.3859004 41.0742145,46.3859004 C44.0530648,46.3859004 46.1083236,45.5023987 47.5332072,44.435909 C50.060986,48.2227384 53.9073215,51.7756477 64.3140067,56.2146183 C63.8649493,56.8791644 63.1175492,57.6846926 62.089122,58.0949062 L62.0895326,58.0949233 Z" id="Path" fill="#F0AA3B"></path>
                        <path d="M3.90772417,8.34421729 C6.75278311,9.00825139 9.07928644,11.0459825 10.130653,13.7953982 C10.2961723,14.2276649 10.7094736,14.5122416 11.1697652,14.5122416 C11.6300569,14.5122416 12.0443783,14.2271398 12.2088774,13.7953982 C13.2587139,11.0459825 15.585178,9.00817262 18.4302369,8.34421729 C18.9354918,8.22679381 19.2910523,7.77556278 19.2910523,7.25612078 C19.2910523,6.73667878 18.9349687,6.28545694 18.4302369,6.16802427 C15.5836086,5.50399018 13.2586746,3.46625902 12.2088774,0.716843352 C12.0443783,0.284576664 11.6300569,0 11.1697652,0 C10.7094736,0 10.2966824,0.285101737 10.130653,0.716843352 C9.08081661,3.46625902 6.75278311,5.50406894 3.90772417,6.16802427 C3.40246922,6.28544775 3.04690878,6.73667878 3.04690878,7.25612078 C3.04690878,7.77556278 3.40248229,8.22678462 3.90772417,8.34421729 Z M11.169726,3.5719563 C12.1597945,5.11225916 13.5110078,6.37571706 15.1013322,7.25665898 C13.5110078,8.13707583 12.1597552,9.40105881 11.169726,10.9413617 C10.1781274,9.40105881 8.82687476,8.1376009 7.23655037,7.25665898 C8.82687476,6.37573019 10.1781274,5.11225916 11.169726,3.5719563 Z" id="Shape" fill="#303337" fill-rule="nonzero"></path>
                        <path d="M17.5968075,11.9449082 C17.0915526,11.812616 16.5725131,12.052589 16.3349584,12.5145866 C16.0974037,12.9765856 16.2087734,13.5411445 16.6026586,13.8775459 C18.0882256,15.1466484 18.8463761,17.0685484 18.6318916,19.02064 C18.5802937,19.4800793 18.8178523,19.9246458 19.2280801,20.1353972 C19.3884989,20.2184651 19.5637223,20.2594864 19.7374155,20.2594864 C20.0051158,20.2594864 20.2697426,20.1625736 20.4792051,19.9759205 C21.9392693,18.6688815 23.9423457,18.1791193 25.8285018,18.6535231 C26.327113,18.7750488 26.8527963,18.5443039 27.090351,18.0838447 C27.3279057,17.6218458 27.2165359,17.0572868 26.8226507,16.7208854 C25.3370837,15.453332 24.5789332,13.529883 24.7934177,11.5777913 C24.8450156,11.1183521 24.607457,10.6753214 24.1982493,10.4630342 C23.7880214,10.2502351 23.2909405,10.3133095 22.9476344,10.622499 C21.4860007,11.931087 19.4936486,12.4233696 17.5967683,11.9448964 L17.5968075,11.9449082 Z M22.632486,13.5083143 C22.7857509,14.4856466 23.1172995,15.4250948 23.6046764,16.2797831 C22.6284056,16.3751574 21.6745771,16.6489753 20.7917901,17.0894463 C20.6369951,16.112114 20.3069766,15.174241 19.8180696,14.3194215 C20.7948635,14.2240471 21.7497383,13.9497173 22.6325252,13.5082224 L22.632486,13.5083143 Z" id="Shape" fill="#303337" fill-rule="nonzero"></path>
                    </g>
                </g>
            </g>
        </g>
    </g>
</svg>