<?xml version="1.0" encoding="UTF-8"?>
<svg width="64px" height="64px" viewBox="0 0 64 64" version="1.1" xmlns="http://www.w3.org/2000/svg" xmlns:xlink="http://www.w3.org/1999/xlink">
    <title>summer@1x</title>
    <g id="Page-1" stroke="none" stroke-width="1" fill="none" fill-rule="evenodd">
        <g id="ЛЛ-макет" transform="translate(-228.000000, -884.000000)" fill-rule="nonzero">
            <g id="Group-26-Copy" transform="translate(72.000000, 726.000000)">
                <g id="Group-6" transform="translate(0.000000, 118.000000)">
                    <g id="summer" transform="translate(156.000000, 40.000000)">
                        <path d="M38.3587256,0.131413631 C38.8415168,-0.130230782 39.4390785,0.0088713486 39.7634539,0.459297295 L39.7634539,0.459297295 L44.0352933,6.3965295 L51.2254327,6.12218922 C51.7712669,6.10121343 52.2497474,6.49257628 52.3510473,7.04236074 L52.3510473,7.04236074 L53.6841113,14.2784316 L60.2831549,17.2177921 C60.784805,17.4407971 61.0515256,18.0060375 60.9103522,18.5469902 L60.9103522,18.5469902 L59.0427696,25.6693505 L63.7348959,31.2648993 C64.088368,31.6882776 64.088368,32.3114772 63.7348959,32.7348555 L63.7348959,32.7348555 L59.0427696,38.3226765 L60.9103522,45.4444847 C61.0515256,45.9859894 60.784805,46.5512298 60.2831549,46.7742348 L60.2831549,46.7742348 L53.6841113,49.7135952 L52.3510473,56.9573939 C52.2497474,57.5071785 51.7712669,57.8985414 51.2254327,57.8775656 L51.2254327,57.8775656 L44.0352933,57.6032253 L39.7634539,63.5371455 C39.4390785,63.9875714 38.8415168,64.1266735 38.3587256,63.8650291 L38.3587256,63.8650291 L32,60.4112116 L25.6412744,63.868341 C25.1584832,64.1305375 24.5609215,63.9908834 24.2365461,63.5404575 L24.2365461,63.5404575 L19.9625514,57.6032253 L12.7724119,57.8775656 C12.2287331,57.8913653 11.7540245,57.5033145 11.6467974,56.9573939 L11.6467974,56.9573939 L10.3137334,49.7135952 L3.71468991,46.7742348 C3.21303971,46.5512298 2.94631912,45.9859894 3.08749235,45.4444847 L3.08749235,45.4444847 L4.95723042,38.3304043 L0.265104061,32.7326476 C-0.0883680205,32.3092692 -0.0883680205,31.6860696 0.265104061,31.2626913 L0.265104061,31.2626913 L4.9550751,25.6759744 L3.08749235,18.5541661 C2.94739685,18.0126614 3.21465623,17.447421 3.71684508,17.2255199 L3.71684508,17.2255199 L10.3158887,14.2861594 L11.6489527,7.04236074 C11.7561796,6.49588816 12.2308884,6.10783734 12.7745673,6.12218922 L12.7745673,6.12218922 L19.9652455,6.3965295 L24.2365461,0.462609179 C24.5609215,0.0121832334 25.1584832,-0.126918756 25.6412744,0.135277614 L25.6412744,0.135277614 L32,3.5885432 Z M38.5570149,2.5894367 L32.5210481,5.86772053 C32.1977504,6.04270229 31.8108708,6.04270229 31.4881121,5.86772053 L31.4881121,5.86772053 L25.4516064,2.5894367 L21.3996094,8.21920907 C21.1808446,8.51728492 20.8343772,8.68840269 20.4706675,8.6779148 L20.4706675,8.6779148 L13.6463933,8.4179264 L12.3806829,15.293546 C12.3127905,15.6617249 12.0713949,15.9719448 11.736243,16.1209828 L11.736243,16.1209828 L5.47342904,18.9090973 L7.23917293,25.6660385 C7.3340069,26.0270417 7.24887179,26.4128845 7.01070927,26.6966087 L7.01070927,26.6966087 L2.55674544,32.0001534 L7.00639863,37.30425 C7.24456116,37.5879743 7.32969627,37.9738172 7.2348623,38.3353722 L7.2348623,38.3353722 L5.46911841,45.0895534 L11.7303158,47.878772 C12.0660066,48.027258 12.3079409,48.3369258 12.3758335,48.7051049 L12.3758335,48.7051049 L13.6420826,55.5818284 L20.4658181,55.3218398 C20.8306055,55.3080401 21.1786893,55.4797098 21.3952987,55.7805457 L21.3952987,55.7805457 L25.4472958,61.4103181 L31.4838015,58.1320341 C31.8065602,57.9559486 32.1934398,57.9559486 32.5167374,58.1320341 L32.5167374,58.1320341 L38.5527042,61.4103181 L42.6047013,55.7805457 C42.8223883,55.4808137 43.1693945,55.3091441 43.5341819,55.3218398 L43.5341819,55.3218398 L50.3584563,55.5818284 L51.6193171,48.7062088 C51.6872095,48.3380299 51.9286051,48.02781 52.263757,47.878772 L52.263757,47.878772 L58.526571,45.0906575 L56.7608271,38.3337162 C56.6659931,37.9727131 56.7511282,37.5868702 56.9892907,37.3031461 L56.9892907,37.3031461 L61.4432546,32.0001534 L56.997912,26.6955047 C56.7602883,26.4117805 56.6746144,26.0259376 56.7694483,25.6649346 L56.7694483,25.6649346 L58.5351922,18.9102014 L52.2739948,16.1209828 C51.9383041,15.9724968 51.6963697,15.662829 51.6284771,15.2946499 L51.6284771,15.2946499 L50.3627669,8.4179264 L43.5384926,8.6779148 C43.1747828,8.68674668 42.8293932,8.51618101 42.6095508,8.21920907 L42.6095508,8.21920907 L38.5570149,2.5894367 Z M32,9.38777733 C42.9064457,9.38777733 52.1726948,17.5594755 53.7945713,28.608711 L53.7945713,28.608711 L56.2774971,28.608711 L56.2774971,30.8696726 L54.0144137,30.8696726 C54.032734,31.2461314 54.0704519,31.6176225 54.0704519,32.0001534 C54.0704519,44.4867775 44.1893985,54.6097695 32,54.6097695 C19.8106015,54.6097695 9.92954806,44.4867775 9.92954806,32.0001534 C9.92954806,31.6176225 9.96726605,31.2461314 9.98558631,30.8696726 L9.98558631,30.8696726 L7.72250286,30.8696726 L7.72250286,28.608711 L10.2054287,28.608711 C11.8273052,17.5594755 21.0935543,9.38777733 32,9.38777733 Z M14.4320065,30.8696726 L12.1926315,30.8696726 C12.1721561,31.2461314 12.1365933,31.6176225 12.1365933,32.0001534 C12.1365933,43.2381704 21.0299724,52.3488079 32,52.3488079 C42.9700276,52.3488079 51.8634067,43.2381704 51.8634067,32.0001534 C51.8634067,31.6176225 51.8283829,31.2461314 51.8073685,30.8696726 L51.8073685,30.8696726 L49.5679935,30.8696726 C49.0226982,34.7601163 45.7687074,37.6492454 41.9317034,37.6492454 C38.0946993,37.6492454 34.8407086,34.7601163 34.2954132,30.8696726 L34.2954132,30.8696726 L29.7045868,30.8696726 C29.1592914,34.7601163 25.9053007,37.6492454 22.0682966,37.6492454 C18.2312926,37.6492454 14.9773018,34.7601163 14.4320065,30.8696726 L14.4320065,30.8696726 Z M40.8281808,42.1744806 C40.8281808,45.2468714 36.8909544,48.9573658 32,48.9573658 C29.7557756,48.9579174 27.575133,48.1928558 25.8023844,46.7819627 L25.8023844,46.7819627 L27.1623896,45.0006826 C28.5498754,46.0936279 30.2493433,46.689228 32,46.6964038 C35.7771941,46.6964038 38.6211356,43.9524487 38.6211356,42.1744806 L38.6211356,42.1744806 Z M33.1035226,35.3915958 L33.1035226,37.6525574 C33.1035226,38.276861 33.5976291,38.7830382 34.2070452,38.7830382 L34.2070452,38.7830382 L35.3105678,38.7830382 L35.3105678,41.0439998 L34.2070452,41.0439998 C32.3787971,41.0439998 30.8964774,39.5254682 30.8964774,37.6525574 L30.8964774,37.6525574 L30.8964774,35.3915958 L33.1035226,35.3915958 Z M32,11.6514989 C22.3177747,11.6686107 14.0559036,18.8296104 12.4356436,28.608711 L12.4356436,28.608711 L14.4384724,28.608711 C15.1712804,24.0945157 20.2960868,24.0867877 22.0682966,24.0867877 L22.1785904,24.086833 C24.0437419,24.0888994 28.979969,24.1847996 29.6981208,28.608711 L29.6981208,28.608711 L34.3018792,28.608711 C35.0346871,24.0945157 40.1594935,24.0867877 41.9317034,24.0867877 L42.0419971,24.086833 C43.9071487,24.0888994 48.8433758,24.1847996 49.5615276,28.608711 L49.5615276,28.608711 L51.5643564,28.608711 C49.9446353,18.8296104 41.6822253,11.6686107 32,11.6514989 Z M42.5939247,17.5296678 C43.2626119,18.043573 43.8946589,18.6049494 44.4852159,19.2110373 L44.4852159,19.2110373 L42.924766,20.8079518 C42.4074898,20.279143 41.8546507,19.7878695 41.2694821,19.3385476 L41.2694821,19.3385476 Z M25.9306257,15.0098217 C30.8415169,13.2025979 36.2783054,13.6828316 40.8147101,16.3235641 L40.8147101,16.3235641 L39.7111875,18.2825857 C35.7421701,15.9724968 30.9864619,15.5524305 26.6898363,17.1327851 L26.6898363,17.1327851 Z" id="Combined-Shape" fill="#303337"></path>
                        <path d="M16.5506836,29.7391918 C16.5506836,27.7039951 17.4887856,26.3477493 22.0682966,26.3477493 C26.6478077,26.3477493 27.5859096,27.7039951 27.5859096,29.7391918 C27.5859096,32.8607098 25.1153769,35.3915958 22.0682966,35.3915958 C19.0212164,35.3915958 16.5506836,32.8607098 16.5506836,29.7391918 Z" id="Path" fill="#F0AA3B"></path>
                        <path d="M36.4140904,29.7391918 C36.4140904,27.7039951 37.3521923,26.3477493 41.9317034,26.3477493 C46.5112144,26.3477493 47.4493164,27.7039951 47.4493164,29.7391918 C47.4493164,32.8607098 44.9787836,35.3915958 41.9317034,35.3915958 C38.8846231,35.3915958 36.4140904,32.8607098 36.4140904,29.7391918 Z" id="Path" fill="#F0AA3B"></path>
                    </g>
                </g>
            </g>
        </g>
    </g>
</svg>