<svg width="223" height="52" viewBox="0 0 223 52" fill="none" xmlns="http://www.w3.org/2000/svg">
<rect width="223" height="52" rx="8" fill="#FC5252"/>
<path d="M61.9048 5H10.0952C6.72893 5 4 7.96181 4 11.6154V41.3846C4 45.0382 6.72893 48 10.0952 48H61.9048C65.2711 48 68 45.0382 68 41.3846V11.6154C68 7.96181 65.2711 5 61.9048 5Z" fill="white"/>
<path d="M29.9048 34.7694L42.8572 26.5002L29.9048 18.231V34.7694Z" fill="#FC5252"/>
<path d="M91.7727 24H90.3636C90.2803 23.5947 90.1345 23.2386 89.9261 22.9318C89.7216 22.625 89.4716 22.3674 89.1761 22.1591C88.8845 21.947 88.5606 21.7879 88.2045 21.6818C87.8485 21.5758 87.4773 21.5227 87.0909 21.5227C86.3864 21.5227 85.7481 21.7008 85.1761 22.0568C84.608 22.4129 84.1553 22.9375 83.8182 23.6307C83.4848 24.3239 83.3182 25.1742 83.3182 26.1818C83.3182 27.1894 83.4848 28.0398 83.8182 28.733C84.1553 29.4261 84.608 29.9508 85.1761 30.3068C85.7481 30.6629 86.3864 30.8409 87.0909 30.8409C87.4773 30.8409 87.8485 30.7879 88.2045 30.6818C88.5606 30.5758 88.8845 30.4186 89.1761 30.2102C89.4716 29.9981 89.7216 29.7386 89.9261 29.4318C90.1345 29.1212 90.2803 28.7652 90.3636 28.3636H91.7727C91.6667 28.9583 91.4735 29.4905 91.1932 29.9602C90.9129 30.4299 90.5644 30.8295 90.1477 31.1591C89.7311 31.4848 89.2633 31.733 88.7443 31.9034C88.2292 32.0739 87.678 32.1591 87.0909 32.1591C86.0985 32.1591 85.2159 31.9167 84.4432 31.4318C83.6705 30.947 83.0625 30.2576 82.6193 29.3636C82.1761 28.4697 81.9545 27.4091 81.9545 26.1818C81.9545 24.9545 82.1761 23.8939 82.6193 23C83.0625 22.1061 83.6705 21.4167 84.4432 20.9318C85.2159 20.447 86.0985 20.2045 87.0909 20.2045C87.678 20.2045 88.2292 20.2898 88.7443 20.4602C89.2633 20.6307 89.7311 20.8807 90.1477 21.2102C90.5644 21.536 90.9129 21.9337 91.1932 22.4034C91.4735 22.8693 91.6667 23.4015 91.7727 24ZM98.6406 30.1818L101.686 23.2727H102.959L99.1861 32H98.0952L94.3906 23.2727H95.6406L98.6406 30.1818ZM95.2088 23.2727V32H93.8679V23.2727H95.2088ZM102.072 32V23.2727H103.413V32H102.072ZM109.413 32.1818C108.625 32.1818 107.934 31.9943 107.339 31.6193C106.749 31.2443 106.286 30.7197 105.953 30.0455C105.624 29.3712 105.459 28.5833 105.459 27.6818C105.459 26.7727 105.624 25.9792 105.953 25.3011C106.286 24.6231 106.749 24.0966 107.339 23.7216C107.934 23.3466 108.625 23.1591 109.413 23.1591C110.201 23.1591 110.891 23.3466 111.482 23.7216C112.076 24.0966 112.538 24.6231 112.868 25.3011C113.201 25.9792 113.368 26.7727 113.368 27.6818C113.368 28.5833 113.201 29.3712 112.868 30.0455C112.538 30.7197 112.076 31.2443 111.482 31.6193C110.891 31.9943 110.201 32.1818 109.413 32.1818ZM109.413 30.9773C110.012 30.9773 110.504 30.8239 110.891 30.517C111.277 30.2102 111.563 29.8068 111.749 29.3068C111.934 28.8068 112.027 28.2652 112.027 27.6818C112.027 27.0985 111.934 26.5549 111.749 26.0511C111.563 25.5473 111.277 25.1402 110.891 24.8295C110.504 24.5189 110.012 24.3636 109.413 24.3636C108.815 24.3636 108.322 24.5189 107.936 24.8295C107.55 25.1402 107.264 25.5473 107.078 26.0511C106.893 26.5549 106.8 27.0985 106.8 27.6818C106.8 28.2652 106.893 28.8068 107.078 29.3068C107.264 29.8068 107.55 30.2102 107.936 30.517C108.322 30.8239 108.815 30.9773 109.413 30.9773ZM114.274 24.5227V23.2727H121.365V24.5227H118.501V32H117.161V24.5227H114.274ZM123.321 35.2727V23.2727H124.616V24.6591H124.776C124.874 24.5076 125.01 24.3144 125.185 24.0795C125.363 23.8409 125.616 23.6288 125.946 23.4432C126.279 23.2538 126.73 23.1591 127.298 23.1591C128.033 23.1591 128.681 23.3428 129.241 23.7102C129.802 24.0777 130.24 24.5985 130.554 25.2727C130.868 25.947 131.026 26.7424 131.026 27.6591C131.026 28.5833 130.868 29.3845 130.554 30.0625C130.24 30.7367 129.804 31.2595 129.247 31.6307C128.69 31.9981 128.048 32.1818 127.321 32.1818C126.76 32.1818 126.312 32.089 125.974 31.9034C125.637 31.714 125.378 31.5 125.196 31.2614C125.014 31.0189 124.874 30.8182 124.776 30.6591H124.662V35.2727H123.321ZM124.639 27.6364C124.639 28.2955 124.736 28.8769 124.929 29.3807C125.122 29.8807 125.404 30.2727 125.776 30.5568C126.147 30.8371 126.601 30.9773 127.139 30.9773C127.7 30.9773 128.168 30.8295 128.543 30.5341C128.921 30.2348 129.205 29.8333 129.395 29.3295C129.588 28.822 129.685 28.2576 129.685 27.6364C129.685 27.0227 129.59 26.4697 129.401 25.9773C129.215 25.4811 128.933 25.089 128.554 24.8011C128.179 24.5095 127.707 24.3636 127.139 24.3636C126.594 24.3636 126.135 24.5019 125.764 24.7784C125.393 25.0511 125.113 25.4337 124.923 25.9261C124.734 26.4148 124.639 26.9848 124.639 27.6364ZM136.73 32.1818C135.889 32.1818 135.164 31.9962 134.554 31.625C133.948 31.25 133.48 30.7273 133.151 30.0568C132.825 29.3826 132.662 28.5985 132.662 27.7045C132.662 26.8106 132.825 26.0227 133.151 25.3409C133.48 24.6553 133.938 24.1212 134.526 23.7386C135.116 23.3523 135.806 23.1591 136.594 23.1591C137.048 23.1591 137.497 23.2348 137.94 23.3864C138.384 23.5379 138.787 23.7841 139.151 24.125C139.514 24.4621 139.804 24.9091 140.02 25.4659C140.236 26.0227 140.344 26.7083 140.344 27.5227V28.0909H133.616V26.9318H138.98C138.98 26.4394 138.882 26 138.685 25.6136C138.491 25.2273 138.215 24.9223 137.855 24.6989C137.499 24.4754 137.079 24.3636 136.594 24.3636C136.06 24.3636 135.598 24.4962 135.207 24.7614C134.821 25.0227 134.524 25.3636 134.315 25.7841C134.107 26.2045 134.003 26.6553 134.003 27.1364V27.9091C134.003 28.5682 134.116 29.1269 134.344 29.5852C134.575 30.0398 134.895 30.3864 135.304 30.625C135.713 30.8598 136.188 30.9773 136.73 30.9773C137.082 30.9773 137.401 30.928 137.685 30.8295C137.973 30.7273 138.221 30.5758 138.429 30.375C138.637 30.1705 138.798 29.9167 138.912 29.6136L140.207 29.9773C140.071 30.4167 139.842 30.803 139.52 31.1364C139.198 31.4659 138.8 31.7235 138.327 31.9091C137.853 32.0909 137.321 32.1818 136.73 32.1818ZM141.571 24.5227V23.2727H148.662V24.5227H145.798V32H144.457V24.5227H141.571ZM151.777 26.4318H154.277C155.3 26.4318 156.082 26.6913 156.624 27.2102C157.165 27.7292 157.436 28.3864 157.436 29.1818C157.436 29.7045 157.315 30.1799 157.072 30.608C156.83 31.0322 156.474 31.3712 156.004 31.625C155.535 31.875 154.959 32 154.277 32H150.618V23.2727H151.959V30.75H154.277C154.807 30.75 155.243 30.6098 155.584 30.3295C155.925 30.0492 156.095 29.6894 156.095 29.25C156.095 28.7879 155.925 28.411 155.584 28.1193C155.243 27.8277 154.807 27.6818 154.277 27.6818H151.777V26.4318ZM163.977 32V23.2727H167.545C168.485 23.2727 169.231 23.4848 169.784 23.9091C170.337 24.3333 170.614 24.8939 170.614 25.5909C170.614 26.1212 170.456 26.5322 170.142 26.8239C169.828 27.1117 169.424 27.3068 168.932 27.4091C169.254 27.4545 169.566 27.5682 169.869 27.75C170.176 27.9318 170.43 28.1818 170.631 28.5C170.831 28.8144 170.932 29.2008 170.932 29.6591C170.932 30.1061 170.818 30.5057 170.591 30.858C170.364 31.2102 170.038 31.4886 169.614 31.6932C169.189 31.8977 168.682 32 168.091 32H163.977ZM165.25 30.7727H168.091C168.553 30.7727 168.915 30.6629 169.176 30.4432C169.438 30.2235 169.568 29.9242 169.568 29.5455C169.568 29.0947 169.438 28.7405 169.176 28.483C168.915 28.2216 168.553 28.0909 168.091 28.0909H165.25V30.7727ZM165.25 26.9318H167.545C167.905 26.9318 168.214 26.8826 168.472 26.7841C168.729 26.6818 168.926 26.5379 169.062 26.3523C169.203 26.1629 169.273 25.9394 169.273 25.6818C169.273 25.3144 169.119 25.0265 168.812 24.8182C168.506 24.6061 168.083 24.5 167.545 24.5H165.25V26.9318ZM174.303 30.0227L178.507 23.2727H180.053V32H178.712V25.25L174.53 32H172.962V23.2727H174.303V30.0227ZM181.577 34.5V30.75H182.304C182.482 30.5644 182.635 30.3636 182.764 30.1477C182.893 29.9318 183.005 29.6761 183.099 29.3807C183.198 29.0814 183.281 28.7178 183.349 28.2898C183.418 27.858 183.478 27.3371 183.531 26.7273L183.827 23.2727H189.372V30.75H190.713V34.5H189.372V32H182.918V34.5H181.577ZM183.827 30.75H188.031V24.5227H185.077L184.849 26.7273C184.755 27.6402 184.637 28.4375 184.497 29.1193C184.357 29.8011 184.134 30.3447 183.827 30.75ZM196.152 32.1818C195.311 32.1818 194.586 31.9962 193.976 31.625C193.37 31.25 192.902 30.7273 192.572 30.0568C192.247 29.3826 192.084 28.5985 192.084 27.7045C192.084 26.8106 192.247 26.0227 192.572 25.3409C192.902 24.6553 193.36 24.1212 193.947 23.7386C194.538 23.3523 195.228 23.1591 196.016 23.1591C196.47 23.1591 196.919 23.2348 197.362 23.3864C197.805 23.5379 198.209 23.7841 198.572 24.125C198.936 24.4621 199.226 24.9091 199.442 25.4659C199.658 26.0227 199.766 26.7083 199.766 27.5227V28.0909H193.038V26.9318H198.402C198.402 26.4394 198.304 26 198.107 25.6136C197.913 25.2273 197.637 24.9223 197.277 24.6989C196.921 24.4754 196.5 24.3636 196.016 24.3636C195.482 24.3636 195.019 24.4962 194.629 24.7614C194.243 25.0227 193.946 25.3636 193.737 25.7841C193.529 26.2045 193.425 26.6553 193.425 27.1364V27.9091C193.425 28.5682 193.538 29.1269 193.766 29.5852C193.997 30.0398 194.317 30.3864 194.726 30.625C195.135 30.8598 195.61 30.9773 196.152 30.9773C196.504 30.9773 196.822 30.928 197.107 30.8295C197.394 30.7273 197.643 30.5758 197.851 30.375C198.059 30.1705 198.22 29.9167 198.334 29.6136L199.629 29.9773C199.493 30.4167 199.264 30.803 198.942 31.1364C198.62 31.4659 198.222 31.7235 197.749 31.9091C197.275 32.0909 196.743 32.1818 196.152 32.1818ZM205.351 32.1818C204.563 32.1818 203.872 31.9943 203.277 31.6193C202.686 31.2443 202.224 30.7197 201.891 30.0455C201.561 29.3712 201.396 28.5833 201.396 27.6818C201.396 26.7727 201.561 25.9792 201.891 25.3011C202.224 24.6231 202.686 24.0966 203.277 23.7216C203.872 23.3466 204.563 23.1591 205.351 23.1591C206.139 23.1591 206.828 23.3466 207.419 23.7216C208.014 24.0966 208.476 24.6231 208.805 25.3011C209.139 25.9792 209.305 26.7727 209.305 27.6818C209.305 28.5833 209.139 29.3712 208.805 30.0455C208.476 30.7197 208.014 31.2443 207.419 31.6193C206.828 31.9943 206.139 32.1818 205.351 32.1818ZM205.351 30.9773C205.949 30.9773 206.442 30.8239 206.828 30.517C207.214 30.2102 207.5 29.8068 207.686 29.3068C207.872 28.8068 207.964 28.2652 207.964 27.6818C207.964 27.0985 207.872 26.5549 207.686 26.0511C207.5 25.5473 207.214 25.1402 206.828 24.8295C206.442 24.5189 205.949 24.3636 205.351 24.3636C204.752 24.3636 204.26 24.5189 203.874 24.8295C203.487 25.1402 203.201 25.5473 203.016 26.0511C202.83 26.5549 202.737 27.0985 202.737 27.6818C202.737 28.2652 202.83 28.8068 203.016 29.3068C203.201 29.8068 203.487 30.2102 203.874 30.517C204.26 30.8239 204.752 30.9773 205.351 30.9773Z" fill="white"/>
</svg>
