<?xml version="1.0" encoding="UTF-8"?>
<svg width="48px" height="48px" viewBox="0 0 48 48" version="1.1" xmlns="http://www.w3.org/2000/svg" xmlns:xlink="http://www.w3.org/1999/xlink">
    <title>Shape 10@1x</title>
    <g id="Page-1" stroke="none" stroke-width="1" fill="none" fill-rule="evenodd">
        <g id="Рефералка" transform="translate(-656.000000, -744.000000)" fill="#FEC311" fill-rule="nonzero">
            <g id="Shape-10" transform="translate(656.000000, 744.000000)">
                <path d="M45.1048404,21.2148845 C42.4379332,17.2177696 38.2210623,12.9157222 33.2321719,9.09978391 C28.2421843,5.28396136 23.0549406,2.3947443 18.6255641,0.965706544 C13.8017852,-0.592180779 10.4603893,-0.259811417 8.9617693,1.92395138 L4.52372587,8.38483669 C2.49631029,11.3378418 4.75128352,16.8887922 10.4120077,23.0954514 C4.40798326,24.5995067 0,27.2006935 0,30.802114 L0,38.7810626 C0,44.7689206 12.1820469,48 23.643308,48 C35.1056662,48 47.286616,44.7698468 47.286616,38.7810626 L47.286616,31.1349465 C48.7274195,28.9479769 47.9787239,25.5242599 45.1044015,21.215035 L45.1048404,21.2148845 Z M18.0638559,2.9038911 C22.2961957,4.27053001 27.2832211,7.05300916 32.1043671,10.7412556 C36.9263907,14.429502 40.9869267,18.563223 43.5349098,22.3817082 C44.861726,24.370136 45.6724729,26.1550439 45.9510231,27.5781775 C42.4913613,23.6641839 32.838647,21.5836049 23.6428692,21.5836049 C23.4585916,21.5836049 23.2734583,21.5867705 23.0878971,21.5885794 C13.3079208,13.8058573 8.68534742,5.77585517 10.5141904,3.1131957 C11.4467138,1.75558667 14.268749,1.67871685 18.063461,2.90336656 L18.0638559,2.9038911 Z M6.07818752,9.5740846 L8.41761446,6.16750123 C9.44271001,10.7104614 14.3243274,16.7195049 20.0960987,21.6873329 C17.5350603,21.8343001 15.0074831,22.1413626 12.6496251,22.5999073 C6.44933184,16.1299921 4.87402554,11.3265544 6.0778584,9.57371414 L6.07818752,9.5740846 Z M12.2209934,24.7500859 C12.2835614,24.7632001 12.3439878,24.7876201 12.4061268,24.7876201 C12.5964054,24.7876201 12.7768213,24.709838 12.9396728,24.5909075 C16.0269835,23.9790515 19.6460519,23.6091386 23.6430666,23.6091386 C36.4449673,23.6091386 45.3664735,27.399608 45.3664735,30.8012134 C45.3664735,34.2028187 36.4445285,37.9942143 23.6430666,37.9942143 C10.841166,37.9942143 1.91965976,34.2037449 1.91965976,30.8012134 C1.91965976,28.54733 5.85370171,26.1294037 12.2210812,24.7500303 L12.2209934,24.7500859 Z M18.9020299,39.8357883 L18.9020299,45.791926 C16.8753823,45.6350027 14.9893811,45.3786002 13.2605925,45.0484767 L13.2605925,39.1194287 C15.0690296,39.4477346 16.9697317,39.6869572 18.9020299,39.835742 L18.9020299,39.8357883 Z M1.92023024,38.7812131 L1.92023024,34.6166979 C3.91901187,36.4400408 7.31690773,37.8206876 11.3401428,38.7291175 L11.3401428,44.6377904 C5.48828419,43.2322535 1.92023024,40.9305581 1.92023024,38.7810973 L1.92023024,38.7812131 Z M20.821931,45.9045217 L20.821931,39.9542882 C21.7625948,39.996797 22.7054089,40.0212159 23.6444051,40.0212159 C28.5748209,40.0212159 33.6364482,39.4215734 37.8066928,38.2638606 L37.8066928,44.1440546 C34.111706,45.2470092 29.2507358,45.9745751 23.6444051,45.9745751 C22.6775977,45.9732186 21.7416185,45.944729 20.821931,45.9044812 L20.821931,45.9045217 Z M39.7269231,43.4883319 L39.7269231,37.6686845 C42.0796248,36.8542348 44.0343035,35.833186 45.3683605,34.6157717 L45.3683605,38.7802869 C45.3683605,40.4159702 43.2903693,42.1370901 39.7269231,43.4883319 L39.7269231,43.4883319 Z" id="Shape"></path>
            </g>
        </g>
    </g>
</svg>