<?xml version="1.0" encoding="UTF-8"?>
<svg width="48px" height="48px" viewBox="0 0 48 48" version="1.1" xmlns="http://www.w3.org/2000/svg" xmlns:xlink="http://www.w3.org/1999/xlink">
    <title>Shape 11@1x</title>
    <g id="Page-1" stroke="none" stroke-width="1" fill="none" fill-rule="evenodd">
        <g id="Рефералка" transform="translate(-952.000000, -744.000000)" fill="#FEC311" fill-rule="nonzero">
            <g id="Shape-11" transform="translate(952.000000, 744.000000)">
                <path d="M41.5635835,35.0484837 C41.7511123,34.6898511 42.1722586,34.5275742 42.5449966,34.6658101 L42.5673005,34.6744657 L42.5657922,34.6744657 C46.1215967,36.0990541 48,37.9119834 48,39.9135205 C48,45.166942 35.6313096,48 23.9969832,48 C12.3626569,48 0,45.1644892 0,39.9135205 C0,37.9082165 1.87840328,36.0949368 5.4321392,34.6744657 C5.81230189,34.5232116 6.24293056,34.6827178 6.43585627,35.0484837 C6.62878199,35.4142495 6.52238539,35.8680031 6.18838765,36.1051425 C5.6796423,36.4668348 5.38806874,36.8309274 5.38806874,37.1046846 C5.38806874,38.782794 12.6368971,41.2212912 23.9997156,41.2212912 C35.3630512,41.2212912 42.6113624,38.782794 42.6113624,37.1046846 C42.6113624,36.8347543 42.3320642,36.480247 41.8451199,36.1281041 L41.813069,36.1051425 C41.4770544,35.8680469 41.3706578,35.4142933 41.5635835,35.0484837 Z M3.78848247,37.2845758 C3.74116689,37.3133783 3.69457093,37.342248 3.64869984,37.3711804 L3.5579257,37.4291279 L3.5579257,37.4291279 L3.46909387,37.4872351 C3.45445094,37.4969326 3.43988933,37.5066363 3.42540923,37.5163463 L3.33950836,37.5746786 L3.33950836,37.5746786 L3.25557311,37.6331512 L3.25557311,37.6331512 L3.17361282,37.6917565 C3.01167342,37.8090943 2.86163973,37.9271809 2.72384758,38.0457363 L2.65597319,38.1050517 C1.97631978,38.7084631 1.61443732,39.322783 1.61443732,39.9112428 C1.61443732,42.932439 10.6239866,46.2944095 23.6058729,46.3613468 L24.0004741,46.3623628 C37.1960136,46.3623628 46.3907828,42.9633065 46.3928029,39.9112428 C46.3928029,39.3434589 46.0542425,38.7505319 45.4158925,38.1663872 L45.3499436,38.1070142 C45.2271481,37.9982241 45.0939776,37.8897793 44.9506834,37.7818996 L44.8715203,37.7231135 C44.804717,37.674174 44.7358314,37.6253594 44.6648872,37.5766906 L44.5787675,37.5183592 C44.535215,37.4892298 44.4909249,37.4601558 44.4459021,37.4311417 L44.3548812,37.3731946 C44.3088839,37.3442623 44.2621574,37.3153929 44.2147067,37.2865907 C43.8871734,40.943373 33.8853418,42.8545045 24.0024565,42.8545045 C14.1161235,42.8545045 4.11036147,40.943373 3.78848247,37.2845758 Z M24.0762775,0 C27.0506243,0 29.4700608,2.45864579 29.4700608,5.48197592 C29.4700608,7.47081064 28.4202305,9.21672423 26.8556558,10.1772833 C28.7037192,10.2591038 30.2864978,11.3462482 31.1312578,12.9039045 C31.7164219,12.4912101 32.3921489,12.2396952 33.1022324,12.1497014 C31.9197683,11.2973311 31.1413424,9.90322831 31.1413424,8.32121861 C31.1413424,5.72941734 33.2170414,3.62179392 35.7671464,3.62179392 C38.3175963,3.62179392 40.3929504,5.72941734 40.3929504,8.32121861 C40.3929504,9.88877393 39.6269536,11.272636 38.4603318,12.1271 C40.7142658,12.3113933 42.5049239,14.1944069 42.5405116,16.5227249 L42.5410515,16.593415 L42.538358,22.3916351 C42.538358,23.8878257 41.8121947,25.2642107 40.614701,26.1009546 L40.5754856,26.1280479 L40.5754856,36.9959876 C40.5754856,37.4397581 40.2280792,37.8006303 39.7944443,37.8131559 L39.7711329,37.8134922 L36.8388482,37.8134922 C36.4486814,37.8134922 36.116119,37.5306287 36.0464356,37.1438694 L36.0425717,37.1205406 L35.7590745,35.2422599 L35.4776027,37.1188761 C35.4165325,37.5117294 35.0907527,37.8022959 34.7045682,37.8135396 L34.6813263,37.8138776 L31.9884857,37.8138776 C31.7753563,37.8138776 31.5703145,37.7279836 31.4194742,37.5746796 C31.2751922,37.428041 31.1915983,37.2309958 31.1846021,37.0245679 L31.1841243,36.9963643 L31.1881646,26.1380608 C30.9810946,25.9970737 30.7942369,25.8294029 30.6130937,25.655565 C30.2830478,26.0714474 29.9120767,26.453599 29.4646976,26.7565865 L29.4083747,26.7940443 L29.4103949,39.9247511 C29.4103949,40.1413653 29.3238658,40.3497624 29.175045,40.5030664 C29.0307655,40.6497075 28.8368903,40.7346681 28.6337833,40.7417788 L28.6060335,40.7422644 L25.3741421,40.7422644 C24.9839753,40.7422644 24.6514129,40.459401 24.5817296,40.0726416 L24.5778656,40.0493128 L24.0792221,36.7276093 L23.5805786,40.0493128 C23.5195083,40.4401564 23.1937286,40.7306834 22.807544,40.7422644 L22.7843021,40.7422644 L19.2628885,40.7422644 C18.8282389,40.7422644 18.4712603,40.3891776 18.4588685,39.9484525 L18.4585358,39.9247599 L18.4585358,26.7809127 C18.014099,26.4886627 17.6460895,26.1187445 17.3161342,25.7180342 L17.2196545,25.8065052 C17.1069602,25.9094313 16.9929802,26.0104137 16.8691647,26.0997051 L16.8154738,26.1372286 L16.8195141,36.9955321 C16.8195141,37.2121463 16.7350019,37.4205407 16.5841642,37.5738474 C16.4398847,37.7204885 16.2460095,37.8054491 16.0429026,37.8125598 L16.0151527,37.8130454 L13.3223121,37.8130454 C12.9321453,37.8130454 12.599583,37.530182 12.5298996,37.1434226 L12.5260357,37.1200938 L12.2425384,35.2418132 L11.9610666,37.1184293 C11.8999964,37.5112827 11.5742166,37.8018491 11.1880321,37.8130928 L11.1647902,37.8134309 L8.23250552,37.8134309 C7.79785587,37.8134309 7.44087725,37.4603441 7.42848546,37.0196189 L7.42815278,36.9959263 L7.42810968,26.128521 L7.38856954,26.1012814 C6.20451884,25.273747 5.48328922,23.9185384 5.46731903,22.4415351 L5.46731903,22.3922571 L5.46731903,16.5934237 C5.46731903,14.2343817 7.26926915,12.3129219 9.5436429,12.1271087 C8.37935696,11.272636 7.61102425,9.8891331 7.61102425,8.32122737 C7.61102425,5.7294261 9.68672322,3.62180268 12.2388107,3.62180268 C14.7892605,3.62180268 16.8646147,5.7294261 16.8646147,8.32122737 C16.8646147,9.90314947 16.0841374,11.2972961 14.9037248,12.1497101 C15.5794776,12.2352538 16.2208653,12.4723931 16.7858344,12.85292 C17.6661093,11.2786648 19.3031357,10.195008 21.2031447,10.1734923 L21.2830221,10.173166 C19.7224985,9.21024166 18.6767192,7.46879579 18.6767192,5.48197592 C18.6767192,2.45864579 21.1019307,0 24.0762775,0 Z M26.6223778,11.8077283 L21.2605721,11.8077283 C19.3232957,11.808292 17.7427271,13.394972 17.7093493,15.3585099 L17.7088127,15.4181252 L17.7091494,22.384259 C17.7091494,23.7186548 18.4297457,24.9352167 19.5939095,25.570773 L19.6320283,25.5912912 C19.8915015,25.7264651 20.056453,25.9941329 20.0659315,26.2882291 L20.0663632,26.315035 L20.0663632,39.108473 L22.0915531,39.108473 L23.2820504,31.1876494 C23.4033911,30.3962722 24.7235637,30.3883585 24.8688727,31.1639081 L24.8729139,31.1876494 L26.0634111,39.108473 L27.7990789,39.108473 L27.7970587,26.3246712 C27.7970587,26.0201131 27.9660744,25.7377972 28.2334105,25.5988688 C29.4191729,24.9780342 30.1581201,23.7651586 30.1738743,22.4272725 L30.1741313,22.383602 L30.1741313,15.4195706 C30.1741313,13.4465481 28.612983,11.8401435 26.681034,11.8082127 L26.6223778,11.8077283 Z M38.1021602,13.7250796 L33.6393471,13.7250796 C32.9133613,13.7255001 32.2234556,14.0280083 31.6985577,14.5389048 C31.742692,14.8014445 31.776925,15.0688792 31.782324,15.3430512 L31.7830673,15.4179938 L31.7830673,22.3800103 C31.7830673,22.9994461 31.6423314,23.5859434 31.4413294,24.1481749 C31.6843268,24.4597131 31.9715112,24.7316598 32.3135791,24.9194269 L32.3585088,24.9434372 C32.6199396,25.0806093 32.7868487,25.3483358 32.7964407,25.644308 L32.7968776,25.6712896 L32.7928374,36.1774319 L33.9894543,36.1774319 L34.960849,29.7000312 C35.0821897,28.908654 36.4023623,28.9007402 36.5476713,29.6762898 L36.5517125,29.7000312 L37.5250897,36.1795343 L38.9610645,36.1795343 L38.9610645,25.6646318 C38.9610645,25.3710294 39.1183844,25.0983801 39.3720731,24.9536865 L39.3953995,24.940888 C40.3268314,24.4462322 40.9090736,23.4876062 40.9236647,22.4324658 L40.9239455,22.3918366 L40.9239455,16.5930032 C40.9239455,15.0265535 39.683897,13.7508223 38.1487686,13.7254643 L38.1021602,13.7250796 Z M14.3606529,13.72543 L9.89577116,13.72543 C8.35648462,13.72543 7.10129667,14.9857543 7.07634684,16.5459832 L7.07596832,16.5933537 L7.07596832,22.3891642 C7.07596832,23.4487084 7.64678785,24.4128794 8.56891606,24.9189769 L8.6045553,24.9382156 C8.86402857,25.0733895 9.02898001,25.3410573 9.03845857,25.6351535 L9.03889027,25.6619594 L9.03889027,36.1768619 L10.4769337,36.1768619 L11.4483284,29.6994612 C11.5696691,28.9080841 12.8898417,28.9001703 13.0351507,29.6757199 L13.0391919,29.6994612 L14.0125691,36.1789644 L15.2074622,36.1793066 L15.2034219,25.6731643 C15.2034219,25.3755741 15.3626417,25.1028075 15.6182864,24.9581105 L15.6417907,24.9453119 C15.9677035,24.7755825 16.239082,24.5261174 16.4784658,24.2462018 C16.2629406,23.6756149 16.1111257,23.0785522 16.100912,22.4494628 L16.1003631,22.3819376 L16.1003631,15.4179062 C16.1003631,15.0825821 16.1384095,14.7578405 16.196994,14.4409655 C15.6972281,13.9992996 15.0690508,13.7372486 14.4059195,13.72582 L14.3606529,13.72543 Z M35.7632279,5.25674168 C34.0999623,5.25674168 32.7484566,6.63034554 32.7484566,8.32282173 C32.7484566,10.0132831 34.0999623,11.3889018 35.7632279,11.3889018 C37.4264936,11.3889018 38.7779992,10.0132831 38.7779992,8.32282173 C38.7779992,6.63236039 37.4264936,5.25674168 35.7632279,5.25674168 Z M12.2387545,5.25674168 C10.5754889,5.25674168 9.22200075,6.63034554 9.22200075,8.32282173 C9.22200075,10.0132831 10.5754889,11.3889018 12.2387545,11.3889018 C13.9020201,11.3889018 15.2535258,10.0132831 15.2535258,8.32282173 C15.2535258,6.63236039 13.9020201,5.25674168 12.2387545,5.25674168 Z M24.0722728,1.63456231 C21.9844206,1.63456231 20.287195,3.35988936 20.287195,5.48152915 C20.287195,7.60316894 21.9847654,9.32815381 24.0722728,9.32849598 C26.1581425,9.32849598 27.8553682,7.60316894 27.8553682,5.48152915 C27.8553682,3.35953895 26.1577116,1.63456231 24.0722728,1.63456231 Z" id="Shape"></path>
            </g>
        </g>
    </g>
</svg>