<?xml version="1.0" encoding="UTF-8"?>
<svg width="43px" height="48px" viewBox="0 0 43 48" version="1.1" xmlns="http://www.w3.org/2000/svg" xmlns:xlink="http://www.w3.org/1999/xlink">
    <title>Shape 2@1x</title>
    <g id="Page-1" stroke="none" stroke-width="1" fill="none" fill-rule="evenodd">
        <g id="Рефералка" transform="translate(-363.000000, -744.000000)" fill="#FEC311" fill-rule="nonzero">
            <g id="Shape-2" transform="translate(363.000000, 744.000000)">
                <path d="M17.8780968,12.7436473 L17.9408961,12.7072192 C18.9210563,12.1289375 20.0906428,11.8542508 21.3363404,11.8621517 L21.4159553,11.8632238 C21.5963047,11.8630779 21.7800646,11.8739679 21.9675771,11.8873713 C23.0227959,11.9728581 24.0893207,12.3323029 25.1706244,12.7971863 L25.3509791,12.8756143 C25.4111433,12.9020631 25.4713538,12.9288084 25.5316111,12.9558214 L25.7125239,13.0376344 L25.7125239,13.0376344 L25.8937211,13.1208798 L25.8937211,13.1208798 L26.0752062,13.2053843 L26.0752062,13.2053843 L26.256983,13.2909744 L26.256983,13.2909744 C26.7272504,13.5132514 27.3184741,13.582122 27.9245348,13.6208648 L28.06461,13.6293267 L28.06461,13.6293267 L28.2750766,13.6407505 L28.2750766,13.6407505 L28.4920798,13.6520296 C29.749148,13.6520296 30.9373009,13.3043778 31.9145384,12.7100179 C32.0232528,12.6431299 32.1497493,12.6055071 32.277294,12.6027503 L33.251769,12.6027907 C34.2414888,12.6027907 35.2737455,13.1047184 35.8641758,14.1157181 L35.8915268,14.1634816 L42.6603228,26.1268126 C43.0274149,26.7739283 43.0900545,27.4930685 42.8816621,28.0903558 C42.674542,28.6880291 42.2306017,29.1504461 41.6931243,29.4247975 C40.6297479,29.9686334 39.1022436,29.7228117 38.1680394,28.437447 L38.1387367,28.3965107 L35.4775966,24.6230808 L36.2180459,29.2313812 L37.9921393,45.5910246 C38.0756694,46.3596286 37.6977151,47.0745762 37.1610716,47.4569911 C36.6243747,47.8435878 35.9762543,47.9855833 35.3251832,47.9822325 C34.6732354,47.9751126 34.0079557,47.8180356 33.4257893,47.481278 C32.8529945,47.1519043 32.3497528,46.6160163 32.1631555,45.8964517 L32.1511875,45.8482088 L29.7941044,35.8341598 L28.6264144,45.765215 C28.5357746,46.5330256 28.0442372,47.1403708 27.4720883,47.4917863 C26.8974377,47.8461398 26.2321153,47.9990242 25.5768639,47.9990242 C24.9182876,47.9990242 24.2638381,47.8494853 23.7096504,47.4779647 C23.1690098,47.1104616 22.7514644,46.4467878 22.7594815,45.6900981 L22.7603918,45.6471687 L23.2765723,30.5935518 L22.191632,19.1288269 L20.8819632,18.6773042 L19.721757,30.5998889 L20.2391885,45.6481444 C20.2663333,46.4225817 19.8441175,47.1044819 19.2899298,47.4789405 C18.7378376,47.8504718 18.0796996,48 17.4252822,48 C16.7674543,48 16.1022066,47.8471156 15.5300578,47.4927621 C14.9664811,47.1483013 14.485936,46.5581487 14.3816443,45.8120635 L14.3757317,45.7661908 L13.2122113,35.8275225 L10.8526692,45.8486485 C10.6793653,46.5924831 10.1597956,47.1449601 9.57721216,47.4817177 C8.99165657,47.8193223 8.33017226,47.9751326 7.67910115,47.9826721 C7.02672572,47.9860283 6.37901164,47.84362 5.83818791,47.4574307 C5.31089222,47.0824321 4.940995,46.3859733 5.0063741,45.6333336 L5.01045585,45.5914642 L6.78786351,29.1900022 L7.52246476,24.6236276 L4.86132467,28.3970576 C3.93290312,29.718128 2.38396585,29.9753016 1.30650935,29.4253443 C0.769887254,29.1510252 0.326363905,28.6886082 0.117971544,28.0909027 C-0.0848696688,27.5072216 -0.0304514446,26.8067127 0.314754553,26.1715638 L0.339310917,26.1273595 L7.1069309,14.1640285 C7.68747809,13.1370869 8.71388553,12.6193912 9.70486164,12.6037052 L9.75128585,12.6033376 L10.6934456,12.6033376 C10.8316824,12.599145 10.9674069,12.6376835 11.0851809,12.7105647 C12.06492,13.3049247 13.2535647,13.6525765 14.5076394,13.6525765 C15.7323424,13.6525765 16.8905923,13.3096264 17.8780968,12.7436473 L17.8780968,12.7436473 Z M32.3091496,14.1143705 C31.1657285,14.7300901 29.8839637,15.1640276 28.4916521,15.1640276 C27.9884104,15.1640276 27.5046511,15.0771049 27.0285744,14.9740275 L26.8503827,14.9347545 L26.8503827,14.9347545 L26.495607,14.8549822 C26.3776134,14.8286718 26.2598235,14.8030104 26.1420528,14.7791037 C25.7682787,14.7020395 25.338547,14.7682201 24.943893,14.9177483 L24.8026864,14.9716824 C24.3226103,15.1572554 23.752799,15.4009889 23.2174822,15.709803 L23.1176585,15.7692122 L23.1176585,15.7692122 L23.015289,15.8309296 L23.015289,15.8309296 L22.9108822,15.8949646 L22.9108822,15.8949646 L22.8049466,15.9613267 C22.2900499,16.2877155 21.7394046,16.6959776 21.4114057,17.1908929 L21.3782796,17.2424004 L23.1452099,17.85812 C23.4168002,17.95175 23.6101695,18.1889517 23.6481007,18.4752064 L23.6513728,18.5039919 L24.7831405,30.5005633 C24.7856462,30.5269508 24.7862727,30.5512183 24.7850198,30.5763694 L24.7831405,30.6019262 L24.2702956,45.6995062 C24.2594333,45.974694 24.3329352,46.0785756 24.5542745,46.2281038 C24.7726952,46.3776321 25.1644198,46.4848592 25.5762011,46.4848592 C25.9850423,46.481503 26.4081027,46.3738577 26.6849827,46.2038062 C26.9527783,46.0390111 27.0811711,45.8718829 27.1184596,45.6167959 L27.1222304,45.5880865 L28.3801539,34.9097655 C28.4148254,34.5973056 28.5392706,34.2877623 28.7714722,34.0377087 C29.0036631,33.787655 29.3707553,33.6134109 29.7487097,33.6134109 C30.1291658,33.6134109 30.4929116,33.7951931 30.7251132,34.0452467 C30.9401689,34.2697384 31.0309383,34.5507869 31.100409,34.830069 L31.1197672,34.9097655 L31.1197672,34.9097655 L31.2618037,35.526902 L31.2618037,35.526902 L31.5243745,36.6588178 L31.5243745,36.6588178 L31.7611842,37.6721975 L31.7611842,37.6721975 L32.2152456,39.6016142 L32.2152456,39.6016142 L32.6226808,41.3228071 L32.6226808,41.3228071 L33.6150872,45.4988736 L33.6150872,45.4988736 C33.6806561,45.7761629 33.8610697,45.9922899 34.1730382,46.1732357 C34.4875511,46.3533451 34.9239755,46.461414 35.3332444,46.4647648 C35.7383436,46.468121 36.1029233,46.3567013 36.2866832,46.2281146 L36.3228352,46.2017416 C36.4714728,46.0906973 36.5167388,46.0167169 36.4938478,45.7833016 L34.7168126,29.4131633 L33.4660522,21.6462733 C33.3358006,20.8627875 34.3432239,20.435839 34.8133784,21.0666194 L34.8278939,21.0866764 L39.3699323,27.5266306 C39.9092525,28.2932169 40.5061577,28.3088152 40.9480113,28.1086172 L40.9889744,28.0892327 C40.9957237,28.0859021 41.0024335,28.0825228 41.009103,28.079097 C41.2346227,27.9643318 41.3899772,27.7838042 41.455962,27.5961567 C41.5197484,27.4143599 41.5320248,27.2106498 41.3667827,26.9078308 L41.3490503,26.876148 L34.5822856,14.9149615 C34.2639065,14.3467855 33.7854903,14.1244538 33.2844746,14.1152501 L33.251769,14.1149506 L32.3091924,14.1149506 L32.3091496,14.1143705 Z M21.859051,13.4276043 C21.5890066,13.4067135 21.3243974,13.3986505 21.069979,13.4039762 L20.9615804,13.40708 C20.0889454,13.4484922 19.313429,13.6541538 18.6995204,14.0118528 C17.487569,14.7243449 16.0459711,15.1654023 14.5078319,15.1654023 C13.1465097,15.1654023 11.8875576,14.7486487 10.7615653,14.1524682 L10.6927934,14.1157452 L9.75063369,14.1157452 C9.24538337,14.1157452 8.76658574,14.3267892 8.43791674,14.8792412 L8.41669593,14.9157561 L1.64950359,26.8758703 C1.46992501,27.1962864 1.47660699,27.4082315 1.54259185,27.595879 C1.60816082,27.7831083 1.76393122,27.9640541 1.98945084,28.0788193 L2.03019739,28.0988001 C2.46974958,28.3056207 3.06460731,28.3049976 3.60259082,27.5617391 L8.16980465,21.0863987 C8.62981169,20.4330923 9.64573909,20.845239 9.53587563,21.6216161 L8.28088594,29.4128856 L6.50679255,45.7553726 C6.47908176,46.0013332 6.52085898,46.0803098 6.66222617,46.1888014 L6.69663093,46.2144512 C6.70266427,46.2188434 6.70884836,46.2233015 6.71518491,46.2278368 C6.89894481,46.35726 7.25852106,46.467838 7.66778989,46.4644871 C8.07286777,46.4611309 8.51346174,46.3539038 8.82543019,46.172958 C9.12905637,45.9991166 9.30682656,45.792254 9.37849962,45.529199 L9.38629987,45.4985958 L11.8816199,34.9094877 L11.9002679,34.8298023 C11.9677761,34.5505845 12.0616894,34.2698425 12.2729382,34.044969 C12.5051291,33.7944971 12.8722213,33.6131332 13.2501756,33.6131332 C13.6281193,33.6131332 13.9952115,33.7873773 14.2274131,34.0374309 C14.4523108,34.2766127 14.5732806,34.5705963 14.6166339,34.8688019 L14.6220671,34.9094877 L15.875821,45.5873799 C15.9063123,45.8588039 16.0353547,46.0322009 16.3155811,46.2030995 C16.5920335,46.3727329 17.0117476,46.4808017 17.4243627,46.4841526 C17.8369779,46.4841526 18.2249499,46.3769254 18.4462893,46.2273972 C18.6571793,46.0830251 18.7318032,45.980816 18.7314363,45.7266248 L18.7311129,45.6987996 L18.2149323,30.6012196 L19.4656927,17.6224476 C19.5184862,17.1010324 19.8436982,16.6266833 20.23444,16.172261 L20.3020276,16.0945502 L20.3020276,16.0945502 L20.3706674,16.0171994 L20.3706674,16.0171994 L20.4750935,15.9017817 L20.4750935,15.9017817 L20.6158492,15.748868 L20.6158492,15.748868 C21.0784716,15.2526109 21.6944791,14.8513154 22.3184638,14.4849709 L22.4625357,14.4010229 L22.4625357,14.4010229 C22.6433333,14.2961482 22.8223175,14.2165337 23.0014412,14.1409274 L23.2319738,14.0442549 C23.308946,14.0116517 23.3860977,13.9781117 23.4635824,13.9419622 C23.3188712,13.9017017 23.1726775,13.8485994 23.0263541,13.7917446 L22.9009339,13.742305 L22.9009339,13.742305 L22.7130987,13.6674817 C22.421462,13.5523255 22.1331719,13.4481283 21.859051,13.4276043 Z M14.5073187,0 C17.7823011,0 20.5557962,2.27873826 20.6113438,5.2472796 L20.6121928,5.3374449 L20.6121928,7.2143486 C20.6121928,10.2296827 17.8152748,12.557691 14.5073187,12.557691 C11.2290552,12.557691 8.45836632,10.2764305 8.40328036,7.3046134 L8.40244459,7.2143486 L8.40244459,5.3374449 C8.40244459,2.32511311 11.195193,0 14.5073187,0 Z M28.4913742,0 C31.7703786,0 34.546838,2.27873826 34.6020393,5.2472796 L34.6028768,5.3374449 L34.6028768,7.2143486 C34.6028768,10.2296827 31.8034998,12.557691 28.4913742,12.557691 C25.2148041,12.557691 22.4458087,10.2764305 22.3907565,7.3046134 L22.3899212,7.2143486 L22.3899212,5.3374449 C22.3899212,2.32511311 25.1817075,0 28.4913742,0 Z M14.5073187,1.51243868 C11.9137511,1.51243868 9.94888868,3.23870141 9.90985079,5.27562627 L9.90925864,5.3374449 L9.90925864,7.2143486 C9.90925864,9.27804196 11.8884088,11.0468607 14.5073187,11.0468607 C17.1000396,11.0468607 19.0657318,9.31324145 19.1047864,7.27616946 L19.1053788,7.2143486 L19.1053788,5.3374449 C19.1053788,3.27375154 17.1262287,1.51243868 14.5073187,1.51243868 Z M28.4913742,1.51243868 C25.9010877,1.51243868 23.9362581,3.23870141 23.8972205,5.27562627 L23.8966284,5.3374449 L23.8966284,7.2143486 C23.8966284,9.27804196 25.8749232,11.0468607 28.4913742,11.0468607 C31.0845184,11.0468607 33.0489574,9.31324145 33.0879869,7.27616946 L33.0885789,7.2143486 L33.0885789,5.3374449 C33.0885789,3.27375154 31.1102841,1.51243868 28.4913742,1.51243868 Z" id="Shape"></path>
            </g>
        </g>
    </g>
</svg>