<?xml version="1.0" encoding="UTF-8"?>
<svg width="364px" height="256px" viewBox="0 0 364 256" version="1.1" xmlns="http://www.w3.org/2000/svg" xmlns:xlink="http://www.w3.org/1999/xlink">
    <title>Sending emails_Flatline 2@1x</title>
    <g id="Page-1" stroke="none" stroke-width="1" fill="none" fill-rule="evenodd">
        <g id="Рефералка" transform="translate(-498.000000, -176.000000)" fill-rule="nonzero">
            <g id="Sending-emails_Flatline" transform="translate(498.000000, 176.000000)">
                <polygon id="Path" fill="#F1F2F2" points="309.030079 111.143532 309.030079 255.400765 43.3897817 255.400765 43.3897817 111.143532 176.215887 30.6170328"></polygon>
                <path d="M309.030079,255.999132 L43.3540405,255.999132 C43.0250521,255.999132 42.7583543,255.730639 42.7583543,255.400765 L42.7583543,111.143532 C42.7583543,110.931428 42.8729974,110.735914 43.0561974,110.629864 L175.941872,30.1033643 C176.131344,29.984434 176.371912,29.984434 176.561385,30.1033643 L309.375577,110.629864 C309.5542,110.738894 309.661516,110.933856 309.661516,111.143532 L309.661516,255.400765 C309.661516,255.565585 309.594161,255.723203 309.474593,255.836306 C309.355025,255.949409 309.194161,256.007944 309.030079,255.999132 Z M43.9854679,254.803476 L308.470134,254.803476 L308.470134,111.454123 L176.227801,31.2859965 L43.9854679,111.454123 L43.9854679,254.803476 Z" id="Shape" fill="#303337"></path>
                <path d="M233.902137,51.0801531 C233.902137,51.0801531 240.037705,39.5883132 239.239485,31.9669059 C238.441266,24.3454986 230.899879,22.9836797 230.899879,22.9836797 C230.899879,22.9836797 212.707623,13.486785 208.490165,6.90466054 L208.633129,16.5329588 C205.329817,15.3893344 202.28204,13.6076952 199.662095,11.2887616 C199.662095,11.2887616 196.826629,16.198477 199.888456,20.5706323 C199.888456,20.5706323 194.52728,21.6218609 191.000818,18.0620186 C191.000818,18.0620186 192.799791,32.5164118 205.511734,34.3799533 C213.887081,35.5506397 224.788139,51.6416047 233.902137,51.0801531 Z" id="Path" fill="#FFFFFF"></path>
                <path d="M233.437502,51.6893878 C228.409911,51.6893878 223.012994,47.1499916 217.794783,42.7658905 C213.315223,39.00297 209.097765,35.4431277 205.452165,34.9175134 C192.442379,33.0061887 190.452787,18.1934222 190.42896,18.0739644 C190.400597,17.8218434 190.534183,17.579269 190.762094,17.4690397 C190.990005,17.3588105 191.262497,17.4049846 191.441626,17.5841874 C193.480792,19.3987562 196.188926,20.266303 198.899617,19.9733433 C196.516872,15.5892422 199.054495,11.0737376 199.173633,10.8826051 C199.257347,10.7267179 199.406931,10.6171999 199.580507,10.5847117 C199.754083,10.5522236 199.932998,10.6002569 200.067162,10.7153642 C202.450036,12.7586506 205.145194,14.4042973 208.049357,15.5892422 L207.918306,6.8090943 C207.908481,6.54431856 208.080863,6.30727341 208.335286,6.23569689 C208.589466,6.15373597 208.866988,6.25137415 209.014368,6.47461248 C212.969725,12.6386347 229.863385,21.6338066 231.12624,22.3027703 C232.043596,22.5058485 239.036952,24.2618781 239.835172,31.8593939 C240.645305,39.6360963 234.676529,50.9009664 234.426341,51.3787976 C234.327936,51.5599597 234.143266,51.6773831 233.937878,51.6893878 L233.437502,51.6893878 Z M191.930089,19.5313495 C192.835532,23.2584327 196.004582,32.3133335 205.630871,33.7348813 C209.598141,34.3202245 213.970478,37.975633 218.557261,41.8460655 C223.620594,46.098763 228.838805,50.4948099 233.437502,50.4948099 L233.532812,50.4948099 C234.473996,48.6432141 239.346709,38.7043255 238.643799,31.9669059 C237.905148,24.7994382 231.102412,23.6048603 230.816483,23.509294 L230.649691,23.4495651 C229.946781,23.0911917 214.732956,15.0875195 209.133506,8.64874435 L209.252643,16.4612841 C209.253687,16.646812 209.170362,16.8227067 209.026282,16.9391153 C208.878333,17.0560495 208.683937,17.0959191 208.502078,17.0466273 C205.349811,15.9672064 202.430806,14.2970319 199.90037,12.1249662 C198.65543,14.6961619 198.845317,17.7334606 200.400746,20.1286384 C200.509414,20.2997474 200.53148,20.5121439 200.460315,20.7020358 C200.383215,20.8885074 200.217399,21.0233151 200.019507,21.0604092 C197.227373,21.54467 194.354745,21.0016867 191.930089,19.5313495 Z" id="Shape" fill="#303337"></path>
                <path d="M224.466468,170.048171 C224.466468,170.048171 253.786142,134.437802 258.635028,107.237262 C263.483913,80.0367225 246.542598,73.7890799 240.633391,71.7582973 C234.724184,69.7275148 203.927208,56.9216392 188.463195,68.1028888 C172.999182,79.2841384 157.594737,149.035545 157.594737,149.035545 L224.466468,170.048171 Z" id="Path" fill="#F0AA3B"></path>
                <path d="M118.755998,205.491299 L150.291624,166.070226 C150.291624,166.070226 172.236703,138.00959 159.977482,135.0112 C159.977482,135.0112 142.964684,137.233115 115.169967,146.956979 C106.913756,149.835912 92.7245115,182.710697 83.7653913,205.491299 L118.755998,205.491299 Z" id="Path" fill="#303337"></path>
                <path d="M118.755998,206.088589 L83.7058227,206.088589 C83.5092589,206.088589 83.3256704,205.990253 83.21736,205.82578 C83.1283398,205.653486 83.1283398,205.448569 83.21736,205.276275 C93.1534056,179.999005 106.735051,149.250569 114.979347,146.371636 C142.500049,136.815012 159.727294,134.425857 159.905999,134.425857 L160.120446,134.425857 C161.885555,134.73981 163.346162,135.980788 163.944752,137.675109 C166.768304,145.798239 151.423428,165.556558 150.768173,166.344979 L119.220633,205.766052 C119.129708,205.945072 118.955117,206.066268 118.755998,206.088589 Z M84.6470068,204.89401 L118.470068,204.89401 L149.731679,165.652124 C149.886558,165.460992 165.326744,145.583215 162.729552,138.081265 C162.278343,136.804013 161.177108,135.868638 159.846431,135.63238 C158.345302,135.835458 141.523124,138.344072 115.27719,147.506485 C109.225019,149.620888 98.3597028,169.988442 84.5874382,204.89401 L84.6470068,204.89401 Z" id="Shape" fill="#303337"></path>
                <path d="M171.569535,205.491299 L179.575557,185.936058 C179.575557,185.936058 199.114064,191.801435 212.147678,186.879774 C221.321245,183.415498 224.12097,171.529448 228.266946,161.901149 C228.266946,161.901149 173.463817,148.88025 161.228423,143.576324 C161.228423,143.576324 160.465944,143.576324 146.443492,158.341307 C140.176873,164.971215 135.185023,185.171528 131.587078,205.491299 L171.569535,205.491299 Z" id="Path" fill="#303337"></path>
                <path d="M171.569535,206.088628 L131.587078,206.088628 C131.407822,206.090667 131.237163,206.01169 131.122443,205.873564 C131.014543,205.739411 130.967077,205.566342 130.991392,205.395732 C135.566262,179.592849 140.629594,163.585504 146.014598,157.935151 C160.215756,142.931252 160.978235,142.967089 161.25225,142.979035 C161.323297,142.967845 161.39565,142.967845 161.466697,142.979035 C173.559127,148.306852 227.861879,161.196348 228.362256,161.327752 C228.531723,161.369838 228.674947,161.482984 228.755409,161.638342 C228.827275,161.797821 228.827275,161.980586 228.755409,162.140065 C227.981017,163.931932 227.242366,165.843257 226.527542,167.682907 C223.322751,175.961332 219.998822,184.526456 212.290642,187.441226 C200.257782,191.980622 183.125847,187.560684 179.861487,186.652804 L172.057998,205.766052 C171.964503,205.953491 171.7782,206.076508 171.569535,206.088628 L171.569535,206.088628 Z M132.254247,204.89401 L171.176382,204.89401 L179.03944,185.709088 C179.150667,185.423914 179.462298,185.272888 179.754263,185.36266 C179.956796,185.36266 199.257029,191.10858 211.921317,186.318323 C219.069551,183.606631 222.345825,175.292368 225.467221,167.205075 C226.098648,165.568504 226.753903,163.884149 227.432985,162.271468 C221.106798,160.754354 173.213629,149.214732 161.276078,144.197504 C160.596995,144.711173 157.785357,147.183949 146.860472,158.711626 C141.773312,164.146956 136.733807,180.094571 132.289988,204.89401 L132.254247,204.89401 Z" id="Shape" fill="#303337"></path>
                <path d="M188.463195,68.1028888 C188.463195,68.1028888 175.358099,82.4378242 168.043073,89.6052919 C160.728046,96.7727596 146.383923,106.05463 146.383923,106.05463 C146.383923,106.05463 103.613655,109.506961 103.160933,110.18787 C102.708212,110.868779 103.160933,125.108149 103.160933,125.108149 C103.160933,125.108149 144.954276,133.147658 152.579059,131.761948 C160.203843,130.376237 178.193565,118.251271 178.193565,118.251271 L188.463195,68.1028888 Z" id="Path" fill="#F0AA3B"></path>
                <path d="M206.667365,60.9832043 L205.344942,74.4699893 C205.344942,74.4699893 207.727686,82.2108544 216.805944,80.825144 C225.884201,79.4394336 227.528295,73.2037367 227.528295,73.2037367 L233.413675,46.8513471 C233.413675,46.8513471 227.969103,42.9092399 222.834288,27.4991844 C222.834288,27.4991844 203.86764,23.9154505 203.212385,31.2501591 C203.212385,31.2501591 199.471476,44.3905166 199.745491,51.3310144 C199.99568,58.0803798 206.548228,60.8756922 206.667365,60.9832043 Z" id="Path" fill="#FFFFFF"></path>
                <path d="M214.721042,81.5899494 C210.276646,81.6218064 206.295005,78.8405617 204.784997,74.649176 C204.767272,74.5745631 204.767272,74.4968191 204.784997,74.4222062 L206.047851,61.2818487 C201.794652,58.9643675 199.316597,55.308959 199.161719,51.2951771 C198.887703,44.3188419 202.497562,31.5726952 202.65244,30.987352 C202.771958,29.7639269 203.42089,28.6547178 204.427585,27.953124 C209.193074,24.2977155 222.405394,26.758546 222.953425,26.758546 C223.169252,26.8015812 223.346114,26.9561834 223.41806,27.1647025 C228.397997,42.1327642 233.723431,46.1823835 233.783,46.2779497 C233.969245,46.4203156 234.057309,46.6573353 234.009361,46.8871845 L228.123981,73.239574 C228.040585,73.5382185 226.217785,79.8933732 216.913167,81.3268667 C216.18952,81.4659704 215.456998,81.5537901 214.721042,81.5899494 L214.721042,81.5899494 Z M205.952541,74.4222062 C206.286126,75.353977 208.788008,81.4702161 216.674893,80.2517466 C225.217033,78.9377108 226.896868,73.0842789 226.908781,73.0842789 L232.710765,47.1261001 C231.459824,46.0390341 226.753903,41.3085054 222.333912,28.0128529 C220.237096,27.6544795 209.085851,25.9342873 205.08284,28.980461 C204.319567,29.5112815 203.834163,30.3575423 203.760416,31.2859965 C203.760416,31.5249121 200.031421,44.4263539 200.293523,51.2832313 C200.496056,56.3721334 204.427585,59.1555 206.750761,60.3500779 C206.852384,60.3990255 206.948279,60.4591216 207.03669,60.5292646 C207.16951,60.6554253 207.235661,60.8367239 207.215396,61.0190416 L205.952541,74.4222062 Z" id="Shape" fill="#303337"></path>
                <path d="M226.884954,47.3052867 C227.293524,46.1144225 228.074976,45.0878394 229.11282,44.3785708 C230.671732,43.2304008 232.621245,42.7492296 234.533565,43.0406435 C236.737604,43.661824 237.857494,46.3615702 237.380945,48.6073767 C236.780596,51.3438426 234.818063,53.5779418 232.186561,54.5205376 C230.386855,55.0541688 228.449352,54.8478626 226.801558,53.9471401" id="Path" fill="#FFFFFF"></path>
                <path d="M230.196969,55.4045252 C228.911067,55.4106705 227.644565,55.0901108 226.515629,54.4727544 C226.328349,54.3703269 226.209793,54.1754984 226.204619,53.9616589 C226.199446,53.7478195 226.308442,53.5474564 226.490549,53.4360446 C226.672656,53.3246327 226.900207,53.3190982 227.087487,53.4215258 C228.598213,54.2417647 230.37085,54.4306678 232.019769,53.9471401 C234.435932,53.065908 236.23412,51.0059505 236.785258,48.4879189 C237.178411,46.6124315 236.284882,44.151601 234.402514,43.6259867 C232.665405,43.3506278 230.890461,43.7805117 229.470232,44.8205646 C228.538307,45.4496533 227.839061,46.3690954 227.48064,47.4366903 C227.412538,47.6500811 227.236073,47.8108327 227.017716,47.8583915 C226.799359,47.9059503 226.572285,47.833091 226.42203,47.667259 C226.271774,47.501427 226.221166,47.2678162 226.289268,47.0544254 C226.737052,45.7409912 227.598379,44.6090296 228.743495,43.8290649 C230.453033,42.5612467 232.604509,42.0478175 234.700357,42.4075172 C237.297549,43.1242639 238.488921,46.2301666 237.976631,48.6671056 C237.354712,51.6573262 235.223673,54.1064663 232.353353,55.1297723 C231.65204,55.3276574 230.925353,55.4202473 230.196969,55.4045252 Z" id="Path" fill="#303337"></path>
                <path d="M213.601152,40.6992707 C213.601152,40.6992707 208.144667,47.0424796 209.097765,48.3804069 C210.050862,49.7183342 213.207999,49.2882861 213.207999,49.2882861" id="Path" fill="#FFFFFF"></path>
                <path d="M212.100023,49.9572498 C210.817504,50.0964051 209.53936,49.6590047 208.609302,48.7626718 C207.54898,47.2694494 210.992047,42.7897821 213.148431,40.4006262 C213.371772,40.1986286 213.710254,40.195263 213.937547,40.39278 C214.16484,40.5902969 214.209626,40.9267226 214.04196,41.1771019 C211.420941,44.2352214 209.336039,47.4844734 209.586227,48.1414913 C210.122345,48.8821296 212.052368,48.9299128 213.160344,48.7865634 C213.489333,48.7436798 213.790701,48.9763312 213.83347,49.3062048 C213.876238,49.6360784 213.644211,49.9382578 213.315223,49.9811414 C212.910031,49.9962224 212.504313,49.9882457 212.100023,49.9572498 L212.100023,49.9572498 Z" id="Path" fill="#303337"></path>
                <ellipse id="Oval" fill="#303337" transform="translate(222.384821, 39.712809) rotate(-80.810000) translate(-222.384821, -39.712809) " cx="222.384821" cy="39.7128086" rx="1.62451488" ry="1.14379618"></ellipse>
                <ellipse id="Oval" fill="#303337" transform="translate(208.550465, 38.845964) rotate(-1.990000) translate(-208.550465, -38.845964) " cx="208.550465" cy="38.8459639" rx="1.14372119" ry="1.62462075"></ellipse>
                <path d="M206.667365,60.9832043 C206.667365,60.9832043 214.840179,63.7426793 220.046477,61.4013065 C220.046477,61.4013065 213.493929,72.1525081 205.750008,70.2292376 L206.667365,60.9832043 Z" id="Path" fill="#303337"></path>
                <path d="M207.680031,71.0654421 C206.985223,71.0689887 206.29274,70.9847039 205.618957,70.8145808 C205.335614,70.7404928 205.145277,70.4743084 205.166236,70.1814545 L206.071679,60.9354211 C206.087923,60.7527289 206.18386,60.5865743 206.333781,60.4814815 C206.495824,60.4040959 206.684028,60.4040959 206.846071,60.4814815 C206.929467,60.4814815 214.875921,63.1334446 219.808202,60.9115296 C220.047923,60.8094517 220.325865,60.8719165 220.499198,61.0668247 C220.652168,61.2767239 220.652168,61.5617266 220.499198,61.7716257 C220.308579,62.1299991 214.780611,71.0654421 207.680031,71.0654421 Z M206.405263,69.7633522 C211.754525,70.7070688 216.531928,65.2478475 218.533434,62.5958845 C214.256407,63.6471131 209.062023,62.3689147 207.179655,61.8194088 L206.405263,69.7633522 Z" id="Shape" fill="#303337"></path>
                <path d="M206.774588,43.0764808 L206.381436,43.0764808 L201.985271,42.7300532 C199.364065,42.5206002 197.407411,40.2218945 197.612935,37.593368 L197.898864,34.0096342 C197.930318,33.6840336 198.21713,33.4443803 198.542205,33.4720741 L211.242235,34.4755196 C211.399707,34.4926366 211.544658,34.5695823 211.647301,34.6905436 C211.751844,34.8081182 211.803545,34.9636377 211.790266,35.1205917 L211.504337,38.7043255 C211.299278,41.1882488 209.224563,43.0969219 206.738847,43.0884548 L206.774588,43.0764808 Z M199.042582,34.7144352 L198.804307,37.6530969 C198.653573,39.621173 200.11838,41.3409436 202.080581,41.4996379 L206.476745,41.8460655 L206.476745,41.8460655 C207.419908,41.9334767 208.357839,41.6314957 209.073937,41.009861 C209.78543,40.4073097 210.234261,39.5500928 210.324878,38.6207051 L210.551239,35.6820433 L199.042582,34.7144352 Z" id="Shape" fill="#303337"></path>
                <path d="M222.572186,44.3785958 L222.179033,44.3785958 L217.782869,44.0201974 C215.161662,43.8107444 213.205008,41.5120387 213.410533,38.8835122 L213.696462,35.2997784 C213.708607,35.1411719 213.783349,34.9939753 213.904117,34.8908216 C214.024886,34.7876679 214.181703,34.7370798 214.339803,34.7502725 L227.039832,35.7656638 C227.194858,35.7778318 227.338636,35.8515138 227.439281,35.9703696 C227.539925,36.0892255 227.589118,36.2434315 227.57595,36.3987901 L227.301934,39.9825239 C227.102751,42.4711735 225.026383,44.3865719 222.536445,44.3785958 L222.572186,44.3785958 Z M222.274343,43.1839928 C223.21792,43.2572095 224.151939,42.9521922 224.871535,42.3358425 C225.560879,41.7231571 225.987681,40.8672571 226.062907,39.9466866 L226.301182,37.0080248 L214.828266,36.0165251 L214.601905,38.9432411 C214.45117,40.9113172 215.915977,42.6310878 217.878179,42.7897821 L222.274343,43.1839928 Z" id="Shape" fill="#303337"></path>
                <path d="M214.065787,38.190657 L214.065787,38.190657 L210.968219,37.9397956 C210.810038,37.9276178 210.663237,37.8526748 210.56036,37.7315814 C210.457483,37.6104879 210.407031,37.4532488 210.420188,37.2947235 C210.457408,36.9705569 210.738427,36.7305262 211.063529,36.7452177 L214.161097,36.9960791 C214.490086,36.9960791 214.756783,37.2634944 214.756783,37.593368 C214.756783,37.9232416 214.490086,38.190657 214.161097,38.190657 L214.065787,38.190657 Z" id="Path" fill="#303337"></path>
                <path d="M212.147678,59.263012 C208.418682,59.263012 205.475993,56.3721334 204.296534,53.0034236 C204.231543,52.8121561 204.267404,52.6009092 204.391844,52.4419719 C204.499583,52.2732092 204.693645,52.1805498 204.89222,52.2030563 C209.976593,52.4699315 215.05978,51.6557359 219.808202,49.8139004 C219.999756,49.7296616 220.221338,49.7523329 220.391975,49.8736293 C220.566455,49.994037 220.662202,50.1997616 220.642163,50.4111894 C220.642163,50.6859423 220.022649,57.2441753 214.268321,58.8926928 C213.5831,59.1186364 212.868733,59.2433835 212.147678,59.263012 Z M205.726181,53.4334716 C206.977122,56.0734889 209.872157,58.9763133 213.910909,57.8056269 C217.627991,56.7424525 218.867018,53.1348271 219.260171,51.3668518 C214.910666,52.8709654 210.325046,53.5711825 205.726181,53.4334716 Z" id="Shape" fill="#303337"></path>
                <path d="M255.894871,82.8200891 C262.828658,86.0812869 274.087127,162.486493 261.851733,167.635123 C242.789775,175.602958 191.191438,148.521876 191.191438,148.521876 L201.34193,128.488804 C201.34193,128.488804 236.392106,138.953307 238.822505,131.809731 C241.252905,124.666155 229.220044,85.376486 233.318365,81.0998969 C237.416686,76.8233078 255.894871,82.8200891 255.894871,82.8200891 Z" id="Path" fill="#F0AA3B"></path>
                <path d="M203.26004,136.576097 C197.296018,135.356947 191.483176,133.486224 185.925572,130.997418 C181.660459,128.95469 177.979118,126.995582 173.225542,125.968245 C167.327224,124.684024 161.248668,124.457538 155.271561,125.299281 C155.030163,125.318453 154.797069,125.39636 154.592479,125.526251 C153.889569,126.12354 154.926063,127.150877 155.783851,127.42563 C158.104197,128.109383 160.513854,128.439589 162.932085,128.405184 C156.81801,128.970144 150.807368,130.356311 145.0615,132.526478 C144.406245,132.777339 143.631853,133.243224 143.739076,133.924134 C143.8463,134.605043 144.990017,134.808121 145.800151,134.676718 L159.977482,132.287562 C156.353574,132.719384 152.826594,133.752873 149.54106,135.345682 C149.076425,135.572651 148.540307,135.907133 148.51648,136.432747 C148.51648,137.340627 149.779334,137.507868 150.672864,137.328681 C155.023093,136.448278 159.288476,135.189202 163.420548,133.56576 L154.02062,137.448139 C153.933973,137.773004 153.981053,138.119149 154.151292,138.408886 C154.321532,138.698623 154.600673,138.907683 154.926063,138.989144 C155.583312,139.11577 156.262465,139.062117 156.891827,138.833849 L166.935096,136.134103 L160.489772,138.523259 C159.477105,138.893578 158.249992,139.586433 158.416784,140.661553 C158.607404,141.927806 160.358721,142.023372 161.621576,141.856131 C166.616797,141.108201 171.679506,140.919892 176.716264,141.29468 C178.562891,141.402192 180.409518,141.091601 182.172749,141.629162 C184.710372,142.405637 187.271823,144.245287 189.63074,145.487648 C193.323994,147.422865 197.005335,149.393918 200.686676,151.364972" id="Path" fill="#FFFFFF"></path>
                <path d="M200.734331,151.818911 C200.643271,151.822181 200.552934,151.801595 200.472229,151.759183 C196.802802,149.792111 193.11749,147.833003 189.416293,145.881859 C188.677642,145.499594 187.915164,145.045654 187.140772,144.579769 C185.544865,143.553814 183.838285,142.712254 182.053612,142.071155 C180.927906,141.795652 179.766712,141.694933 178.610546,141.772511 C177.979118,141.772511 177.359605,141.772511 176.728177,141.772511 C171.731085,141.398067 166.707879,141.586393 161.752627,142.333963 C160.692687,142.558936 159.587587,142.402452 158.631231,141.891969 C158.241218,141.609323 157.98646,141.176369 157.928321,140.697391 C157.832523,140.024678 158.100145,139.351549 158.631231,138.929415 L157.082447,139.347518 C156.353412,139.613442 155.563421,139.663208 154.806926,139.490867 C154.285229,139.321561 153.854968,138.946226 153.615553,138.451584 C153.446836,138.071359 153.446836,137.637231 153.615553,137.257006 C152.698197,137.47203 151.792754,137.675109 150.875397,137.866241 C150.059475,138.071551 149.195076,137.924208 148.492652,137.460085 C148.189327,137.198457 148.026107,136.809212 148.051844,136.408856 C148.051844,135.477085 149.02877,135.023145 149.374268,134.855905 L150.065264,134.533369 L145.955029,135.226224 C145.230167,135.386336 144.471951,135.275908 143.822472,134.915633 C143.526584,134.70349 143.328903,134.380317 143.274441,134.0197 C143.202959,133.541869 143.274441,132.645935 144.942362,132.036701 C149.154655,130.415114 153.516398,129.214708 157.964062,128.452967 C157.198375,128.340407 156.438888,128.188899 155.688541,127.999027 C154.843805,127.765936 154.166982,127.13194 153.877655,126.302726 C153.798495,125.878863 153.953312,125.445122 154.282722,125.167877 C154.559164,124.968674 154.884583,124.848895 155.223906,124.82145 C161.263759,123.962713 167.40786,124.189236 173.368507,125.490413 C177.304258,126.458384 181.102828,127.91929 184.674631,129.838677 L186.199588,130.56737 C191.702751,133.000257 197.450219,134.834464 203.343436,136.038537 C203.635088,136.109402 203.815658,136.402285 203.748503,136.695555 C203.717449,136.837771 203.630195,136.961277 203.506693,137.037829 C203.383191,137.114381 203.234004,137.137432 203.093248,137.101711 C197.096467,135.864194 191.249194,133.98595 185.651556,131.499141 L184.1266,130.758502 C180.628192,128.884636 176.910158,127.456023 173.05875,126.505805 C167.224189,125.225559 161.208162,125.003043 155.295388,125.848787 C155.157037,125.848195 155.021131,125.88536 154.902235,125.956299 C154.902235,126.290781 155.414526,126.74472 155.914902,126.900015 C158.181955,127.563731 160.534823,127.885806 162.896344,127.855678 L162.896344,127.855678 C163.164939,127.895714 163.363792,128.126933 163.363792,128.399211 C163.363792,128.671488 163.164939,128.902708 162.896344,128.942744 C156.839452,129.512051 150.885539,130.890036 145.192551,133.040146 C144.716002,133.219333 144.16797,133.541869 144.215625,133.840513 C144.223674,133.913036 144.262818,133.97845 144.322849,134.0197 C144.737746,134.207387 145.2036,134.249468 145.645272,134.139158 L156.617812,132.275616 C157.68416,132.038342 158.761725,131.854942 159.846431,131.72611 C160.139674,131.696898 160.405315,131.900581 160.454031,132.191996 C160.496972,132.488114 160.295723,132.76425 160.001309,132.813176 L156.820345,133.350736 C154.349466,133.892253 151.950368,134.722169 149.672111,135.823513 C149.088338,136.110211 148.957287,136.325235 148.957287,136.444693 C148.949479,136.512684 148.976351,136.580045 149.02877,136.62388 C149.466622,136.847353 149.970857,136.902586 150.446503,136.779175 C154.772385,135.90515 159.013893,134.654056 163.122705,133.040146 C163.398999,132.932784 163.710362,133.065073 163.825615,133.338791 C163.933656,133.619129 163.802371,133.935062 163.527771,134.055537 L154.401859,137.830404 C154.386258,137.880987 154.386258,137.935116 154.401859,137.985699 C154.508255,138.204406 154.696748,138.371928 154.926063,138.451584 C155.485737,138.553777 156.062645,138.500063 156.593984,138.296289 L166.637253,135.584597 C166.906766,135.540872 167.167271,135.702724 167.248194,135.964175 C167.329116,136.225626 167.205771,136.506925 166.958924,136.62388 L160.525513,139.013036 C159.965568,139.216114 158.678886,139.777566 158.798023,140.554041 C158.821653,140.737252 158.921115,140.902024 159.072039,141.007981 C159.786155,141.356882 160.599146,141.44558 161.371387,141.258842 C166.409112,140.495613 171.516497,140.30327 176.597126,140.685445 C177.192812,140.685445 177.788499,140.685445 178.396099,140.685445 C179.665333,140.599826 180.940077,140.716757 182.172749,141.031873 C184.042255,141.686837 185.826277,142.565205 187.48627,143.647998 C188.248748,144.089992 188.999313,144.531986 189.72605,144.914251 C193.419304,146.857431 197.104616,148.816539 200.781985,150.791574 C200.912001,150.857614 201.009599,150.973884 201.052303,151.113609 C201.095007,151.253334 201.079136,151.40447 201.008346,151.532213 C200.957909,151.660029 200.859543,151.762948 200.734331,151.818911 L200.734331,151.818911 Z" id="Path" fill="#303337"></path>
                <path d="M190.643407,75.1389529 C188.177266,76.5843923 174.953032,106.401058 169.198704,120.628481" id="Path" fill="#FFFFFF"></path>
                <path d="M169.234445,121.177996 C169.052245,121.179007 168.881454,121.089165 168.778738,120.93827 C168.676023,120.787375 168.654816,120.595161 168.722155,120.425403 C173.928452,107.488124 187.557752,76.3096393 190.369391,74.6611218 C190.537903,74.5510548 190.753004,74.5423776 190.92979,74.6385151 C191.106576,74.7346526 191.21655,74.9201586 191.21655,75.1218123 C191.21655,75.3234659 191.106212,75.5088679 190.929336,75.6048383 C188.820607,76.7994163 176.239715,104.66892 169.734821,120.831559 C169.655785,121.039883 169.456735,121.177996 169.234445,121.177996 L169.234445,121.177996 Z" id="Path" fill="#303337"></path>
                <polygon id="Path" fill="#FFFFFF" points="96.3581972 132.466749 95.679115 138.535205 172.939613 171.899767 173.177888 165.520721"></polygon>
                <path d="M172.939613,172.497056 C172.861194,172.514977 172.779758,172.514977 172.701339,172.497056 L95.4408405,139.132494 C95.1971938,139.028166 95.0515449,138.775028 95.0834288,138.511313 L95.762511,132.442857 C95.7811947,132.254624 95.8931543,132.088478 96.0603541,132.000863 C96.2279895,131.911666 96.4288364,131.911666 96.5964717,132.000863 L173.416162,165.030944 C173.644486,165.126773 173.787718,165.356561 173.773574,165.604341 L173.535299,171.983387 C173.524284,172.183311 173.417834,172.365653 173.24937,172.473164 C173.150295,172.509636 173.043086,172.517906 172.939613,172.497056 L172.939613,172.497056 Z M96.3105423,138.164885 L172.367754,171.003833 L172.570288,165.89104 L96.8585736,133.314899 L96.3105423,138.164885 Z" id="Shape" fill="#303337"></path>
                <path d="M96.3581972,132.466749 C96.3581972,132.466749 118.863221,121.643872 119.43508,121.954463 C120.006939,122.265053 199.602527,154.208067 199.602527,154.208067 L173.177888,165.520721 L96.3581972,132.466749 Z" id="Path" fill="#FFFFFF"></path>
                <path d="M173.177888,166.118009 C173.099344,166.134785 173.018157,166.134785 172.939613,166.118009 L96.1199228,133.016255 C95.906076,132.922711 95.7663782,132.712601 95.7621518,132.478694 C95.7543604,132.245185 95.8854874,132.029182 96.0960953,131.929189 C118.887049,120.962963 119.387425,121.237716 119.721009,121.428848 C120.912382,121.966409 199.042582,153.336025 199.828888,153.682453 C200.055774,153.768535 200.203805,153.988785 200.198366,154.231959 C200.202258,154.47115 200.060733,154.688738 199.840801,154.781465 L173.416162,166.094118 C173.339309,166.118853 173.258104,166.126996 173.177888,166.118009 Z M97.7997578,132.430911 L173.177888,164.875648 L198.041829,154.279742 C185.746866,149.334189 123.271299,124.259998 119.33977,122.611481 C117.790986,122.969854 105.877262,128.560479 97.7997578,132.430911 Z" id="Shape" fill="#303337"></path>
                <polygon id="Path" fill="#FFFFFF" points="172.939613 171.899767 198.613688 159.91815 199.602527 154.208067 173.177888 165.520721"></polygon>
                <path d="M172.939613,172.497056 C172.821031,172.502263 172.703968,172.468726 172.606029,172.401489 C172.428957,172.287903 172.328309,172.086066 172.343927,171.875875 L172.582201,165.496829 C172.596036,165.269107 172.733252,165.067315 172.939613,164.971215 L199.376166,153.658561 C199.574491,153.57102 199.805128,153.603396 199.971852,153.742182 C200.15015,153.873962 200.234216,154.098741 200.186299,154.315579 L199.209374,160.013716 C199.171824,160.204618 199.048814,160.367605 198.87579,160.45571 L173.189801,172.401489 C173.114349,172.451249 173.028959,172.483866 172.939613,172.497056 L172.939613,172.497056 Z M173.76166,165.926877 L173.559127,171.003833 L198.07757,159.559777 L198.816221,155.235404 L173.76166,165.926877 Z" id="Shape" fill="#303337"></path>
                <polygon id="Path" fill="#FFFFFF" points="96.3581972 132.466749 94.773672 76.4052056 175.655942 113.6402 173.177888 165.520721"></polygon>
                <path d="M173.177888,166.118009 C173.099344,166.134785 173.018157,166.134785 172.939613,166.118009 L96.1199228,133.016255 C95.9040208,132.925189 95.7633068,132.71355 95.762511,132.478694 L94.1659727,76.4171513 C94.1623027,76.2098463 94.2660236,76.0154117 94.4400877,75.9034828 C94.6176558,75.8034571 94.8343784,75.8034571 95.0119465,75.9034828 L175.941872,113.10264 C176.163632,113.197967 176.301863,113.422599 176.287369,113.664092 L173.809315,165.544612 C173.801113,165.739152 173.698854,165.917472 173.535299,166.022443 C173.431242,166.095806 173.304559,166.129679 173.177888,166.118009 L173.177888,166.118009 Z M96.930056,132.060592 L172.617943,164.636733 L175.000687,114.010519 L95.3931856,77.3489221 L96.930056,132.060592 Z" id="Shape" fill="#303337"></path>
                <path d="M216.245999,162.641788 C216.163406,162.658204 216.078403,162.658204 215.995811,162.641788 L199.638268,155.080109 C199.379141,154.962171 199.239398,154.676928 199.304684,154.3992 L204.248879,133.661327 C204.314623,133.350133 204.61619,133.148547 204.927961,133.207387 L236.904396,138.344072 L235.855988,87.5267263 C235.849496,87.3673869 235.908123,87.2122897 236.018313,87.0972935 C236.128503,86.9822973 236.280716,86.9174913 236.43976,86.9174913 L236.43976,86.9174913 C236.761615,86.9235744 237.02288,87.1803029 237.035447,87.5028347 L238.095803,139.036927 C238.097701,139.213254 238.018614,139.380667 237.881321,139.490867 C237.751747,139.607529 237.576994,139.660096 237.404772,139.634216 L205.237718,134.47364 L200.531797,154.196122 L216.448532,161.44721 C216.592205,161.512077 216.703625,161.632425 216.757473,161.780903 C216.81132,161.929382 216.803021,162.09338 216.734461,162.235631 C216.665648,162.455676 216.474396,162.614701 216.245999,162.641788 Z" id="Path" fill="#303337"></path>
                <path d="M74.4846005,205.491299 C71.7087029,203.388841 68.384774,202.277884 66.0377704,205.491299 L74.4846005,205.491299 Z" id="Path" fill="#FFFFFF"></path>
                <path d="M74.4846005,206.040805 L66.0377704,206.040805 C65.8326904,206.038465 65.6452956,205.923892 65.5493078,205.74216 C65.4419704,205.566179 65.4419704,205.344744 65.5493078,205.168763 C66.319929,204.005993 67.5359914,203.214723 68.9089778,202.982685 C70.6364678,202.719878 72.6141459,203.424679 74.7705299,205.061251 C74.9542607,205.204808 75.03017,205.44742 74.9611495,205.670485 C74.8853677,205.874682 74.7007164,206.018172 74.4846005,206.040805 L74.4846005,206.040805 Z M67.2529702,204.953739 L72.6737145,204.953739 C71.6114007,204.272879 70.3564778,203.958304 69.0995974,204.057805 C68.4099664,204.1691 67.7679747,204.480577 67.2529702,204.953739 L67.2529702,204.953739 Z" id="Shape" fill="#231F20"></path>
                <path d="M135.351815,187.548791 L135.256505,187.548791 C134.935401,187.493855 134.717808,187.190534 134.768042,186.867828 C134.863352,186.270539 137.150787,172.246194 141.570779,165.12651 C141.753983,164.876348 142.097741,164.808559 142.361781,164.970524 C142.62582,165.132489 142.722153,165.470234 142.583445,165.74769 C138.330246,172.664297 135.959415,186.915612 135.935587,187.058961 C135.888494,187.344467 135.640397,187.552616 135.351815,187.548791 Z" id="Path" fill="#FFFFFF"></path>
                <polygon id="Path" fill="#FFFFFF" points="309.030079 111.143532 309.030079 255.400765 43.3897817 255.400765 43.3897817 111.143532 176.215887 201.83589"></polygon>
                <path d="M309.030079,255.998054 L43.3540405,255.998054 C43.0250521,255.998054 42.7583486,255.730639 42.7583486,255.400765 L42.7583486,111.143532 C42.7583486,110.921307 42.8819867,110.717692 43.0800249,110.617918 C43.2710208,110.50443 43.5085426,110.50443 43.6995385,110.617918 L176.180146,201.095252 L308.660753,110.617918 C308.847328,110.503907 309.081779,110.503907 309.268353,110.617918 C309.468411,110.715473 309.593889,110.920506 309.590111,111.143532 L309.590111,255.400765 C309.590111,255.717136 309.345032,255.979073 309.030079,255.998054 Z M43.9854679,254.803476 L308.470134,254.803476 L308.470134,112.266436 L176.585213,202.337613 C176.381814,202.467936 176.121443,202.467936 175.918044,202.337613 L43.9854679,112.266436 L43.9854679,254.803476 Z" id="Shape" fill="#303337"></path>
                <path d="M176.215887,202.433179 C176.098063,202.433179 175.982672,202.399497 175.882303,202.337613 L43.0561974,111.633309 C42.7884967,111.447229 42.7195038,111.08005 42.901319,110.80905 C43.0875766,110.535004 43.4582299,110.460674 43.7352797,110.64181 L176.215887,201.119143 L308.696495,110.64181 C308.969845,110.461878 309.336749,110.536522 309.518542,110.80905 C309.609105,110.938285 309.643737,111.098733 309.614572,111.253951 C309.585407,111.409168 309.494919,111.545979 309.363663,111.633309 L176.549471,202.337613 C176.448405,202.397892 176.333459,202.430822 176.215887,202.433179 Z" id="Path" fill="#303337"></path>
                <polygon id="Path" fill="#FFFFFF" points="43.3897817 255.400765 176.203973 172.389544 309.030079 255.400765"></polygon>
                <path d="M309.030079,255.998054 L43.3540405,255.998054 C43.0892911,255.998054 42.8563116,255.82285 42.7821818,255.568006 C42.7066559,255.311155 42.8145937,255.035665 43.0442837,254.899043 L175.941872,171.887821 C176.135822,171.769552 176.379348,171.769552 176.573299,171.887821 L309.375577,254.899043 C309.605267,255.035665 309.713205,255.311155 309.637679,255.568006 C309.560231,255.836093 309.307945,256.014657 309.030079,255.998054 L309.030079,255.998054 Z M45.4746833,254.803476 L306.992832,254.803476 L176.263542,173.094345 L45.4746833,254.803476 Z" id="Shape" fill="#303337"></path>
                <polygon id="Rectangle" fill="#F0AA3B" transform="translate(286.207976, 213.892313) rotate(-14.340000) translate(-286.207976, -213.892313) " points="247.894874 192.621236 324.548508 192.571753 324.521078 235.163391 247.867444 235.212874"></polygon>
                <path d="M254.346087,244.649564 C254.237787,244.646003 254.131774,244.617384 254.03633,244.565943 C253.904108,244.478966 253.806997,244.347725 253.762315,244.195624 L243.242497,202.922956 C243.166493,202.603892 243.356087,202.281771 243.671391,202.194264 L317.92963,183.164637 C318.075745,183.110705 318.236238,183.110705 318.382352,183.164637 C318.521348,183.24419 318.620735,183.378507 318.656368,183.534956 L329.176186,224.807624 C329.215963,224.961295 329.193088,225.124523 329.112613,225.26125 C329.032138,225.397978 328.900685,225.496955 328.747292,225.536317 L254.489052,244.565943 L254.346087,244.649564 Z M244.553006,203.257438 L254.774981,243.371365 L327.87759,224.628437 L317.715183,184.466727 L244.553006,203.257438 Z" id="Shape" fill="#303337"></path>
                <polygon id="Path" fill="#F0AA3B" points="254.346087 244.052275 285.571957 211.380568 328.604327 225.010702"></polygon>
                <path d="M254.346087,244.649564 C254.134552,244.648284 253.939562,244.534612 253.833797,244.350919 C253.689384,244.122216 253.724152,243.8234 253.917193,243.634173 L285.143063,210.974411 C285.298695,210.809498 285.532873,210.745041 285.750663,210.807171 L328.783033,224.449251 C329.036755,224.529159 329.206916,224.768024 329.200216,225.034594 C329.18787,225.300905 329.004456,225.52837 328.747292,225.596046 L254.489052,244.625672 L254.346087,244.649564 Z M285.750663,212.061477 L256.216542,242.953263 L326.436029,224.950973 L285.750663,212.061477 Z" id="Shape" fill="#303337"></path>
                <polygon id="Path" fill="#F0AA3B" points="243.826269 202.779607 287.382843 218.476361 318.084509 183.738034"></polygon>
                <path d="M287.382843,219.07365 C287.315893,219.085994 287.247259,219.085994 287.18031,219.07365 L243.623736,203.376896 C243.379448,203.288566 243.220378,203.051736 243.230119,202.791552 C243.241147,202.528578 243.418932,202.302135 243.671391,202.230101 L317.92963,183.200474 C318.181603,183.138875 318.444791,183.244433 318.584885,183.463281 C318.726793,183.688751 318.702486,183.98122 318.525317,184.180028 L287.823651,218.906409 C287.707522,219.0231 287.546923,219.08403 287.382843,219.07365 Z M245.851602,202.875173 L287.204137,217.77156 L316.345105,184.801209 L245.851602,202.875173 Z" id="Shape" fill="#303337"></path>
                <polygon id="Rectangle" fill="#F0AA3B" transform="translate(339.134997, 162.022123) rotate(-13.890000) translate(-339.134997, -162.022123) " points="317.313257 149.906745 360.971909 149.879374 360.956737 174.137501 317.298085 174.164872"></polygon>
                <path d="M320.848493,179.640632 C320.573972,179.638929 320.334692,179.452865 320.26472,179.186692 L314.462737,155.641561 C314.386733,155.322497 314.576327,155.000375 314.891631,154.912868 L357.268746,144.412528 C357.420633,144.369353 357.583564,144.390786 357.718939,144.472501 C357.854314,144.553945 357.950087,144.68788 357.98357,144.842576 L363.797467,168.387708 C363.834971,168.542524 363.809237,168.705949 363.725984,168.841647 C363.646644,168.981017 363.512688,169.080671 363.356659,169.1164 L320.991457,179.61674 L320.848493,179.640632 Z M315.761333,155.92826 L321.289301,178.31465 L362.498871,168.101009 L357.030472,145.714618 L315.761333,155.92826 Z" id="Shape" fill="#303337"></path>
                <polygon id="Path" fill="#F0AA3B" points="320.848493 179.043343 338.778647 160.575168 363.213694 168.531057"></polygon>
                <path d="M320.848493,179.640632 C320.635596,179.644479 320.438198,179.529404 320.336203,179.341987 C320.20066,179.111331 320.234741,178.818416 320.419599,178.625241 L338.349753,160.169011 C338.50502,160.003321 338.741928,159.94277 338.957353,160.013716 L363.404314,167.969605 C363.733302,167.969605 364,168.237021 364,168.566894 C364,168.896768 363.733302,169.164183 363.404314,169.164183 L321.039112,179.664523 L320.848493,179.640632 Z M338.945439,161.268023 L322.730861,177.992114 L361.045397,168.49522 L338.945439,161.268023 Z" id="Shape" fill="#303337"></path>
                <polygon id="Path" fill="#F0AA3B" points="315.034596 155.498212 339.767486 164.624787 357.411711 144.985926"></polygon>
                <path d="M339.7794,165.222076 C339.708369,165.233465 339.635984,165.233465 339.564953,165.222076 L314.832062,156.0955 C314.588106,156.001771 314.433527,155.759592 314.450823,155.498212 C314.458879,155.236888 314.638793,155.012609 314.891631,154.948706 L357.268746,144.448365 C357.520981,144.382845 357.786413,144.489304 357.924001,144.711173 C358.058669,144.940141 358.029739,145.230224 357.852519,145.427919 L340.220208,165.030944 C340.103386,165.149319 339.945433,165.217807 339.7794,165.222076 L339.7794,165.222076 Z M317.071842,155.665452 L339.600694,164.027498 L355.672307,146.108829 L317.071842,155.665452 Z" id="Shape" fill="#303337"></path>
                <polygon id="Rectangle" fill="#F0AA3B" transform="translate(281.224796, 156.497592) rotate(-24.120000) translate(-281.224796, -156.497592) " points="262.200611 145.949408 300.270142 145.911221 300.248981 167.045776 262.179449 167.083963"></polygon>
                <path d="M268.17792,174.587762 C267.942237,174.593647 267.72604,174.456982 267.629889,174.24114 L259.016267,154.93676 C258.948432,154.793012 258.941848,154.627777 258.998029,154.479061 C259.05421,154.330345 259.168319,154.21095 259.31411,154.148338 L294.030701,138.559096 C294.333472,138.423594 294.688679,138.556491 294.82892,138.857741 L303.418715,158.102391 C303.478294,158.247808 303.478294,158.410914 303.418715,158.556331 C303.358647,158.70136 303.248759,158.82002 303.108958,158.890813 L268.380454,174.420326 C268.325895,174.490198 268.256773,174.547275 268.17792,174.587762 L268.17792,174.587762 Z M260.33869,154.996489 L268.475763,173.201857 L302.108205,158.102391 L293.983046,139.897024 L260.33869,154.996489 Z" id="Shape" fill="#303337"></path>
                <polygon id="Path" fill="#F0AA3B" points="268.17792 173.930549 280.699244 155.319025 302.894511 158.341307"></polygon>
                <path d="M268.17792,174.587567 C267.952516,174.599355 267.74053,174.479796 267.633521,174.28053 C267.526511,174.081263 267.543654,173.837996 267.677544,173.655796 L280.210781,155.044272 C280.335968,154.854663 280.557669,154.752776 280.78264,154.781465 L302.977907,157.815693 C303.241057,157.849861 303.449939,158.054435 303.490197,158.317415 C303.525502,158.581507 303.385554,158.837963 303.144699,158.950542 L268.416195,174.480055 C268.345486,174.532795 268.264181,174.56948 268.17792,174.587567 L268.17792,174.587567 Z M280.985173,156.01188 L269.833928,172.592622 L300.750041,158.711626 L280.985173,156.01188 Z" id="Shape" fill="#303337"></path>
                <polygon id="Path" fill="#F0AA3B" points="259.552384 154.638115 282.188459 158.628006 294.280889 139.048873"></polygon>
                <path d="M282.176546,159.225295 L282.081236,159.225295 L259.445161,155.235404 C259.190239,155.189171 258.996197,154.980015 258.968612,154.721736 C258.934871,154.460996 259.075143,154.208798 259.31411,154.100555 L294.030701,138.511313 C294.273663,138.403384 294.558386,138.466288 294.73361,138.666608 C294.890478,138.875215 294.890478,139.162802 294.73361,139.371409 L282.641181,158.962488 C282.534988,159.117225 282.363547,159.214195 282.176546,159.225295 Z M261.565804,154.446983 L281.890616,158.030717 L292.755932,140.446529 L261.565804,154.446983 Z" id="Shape" fill="#303337"></path>
                <path d="M141.904363,0.597150876 L72.0422872,0.597150876 C67.482508,0.597150876 63.7860767,4.30366618 63.7860767,8.87571416 L63.7860767,44.7130526 C63.7860767,46.9086275 64.6559249,49.0142773 66.2042647,50.5667832 C67.7526045,52.1192891 69.852604,52.9914778 72.0422872,52.9914778 L134.243839,52.9914778 L141.654175,65.7256787 L141.749485,52.9914778 L141.952018,52.9914778 C146.511797,52.9914778 150.208228,49.2851006 150.208228,44.7130526 L150.208228,8.87571416 C150.208228,6.6718352 149.331878,4.55891149 147.773216,3.00502471 C146.214554,1.45113793 144.102291,0.584568172 141.904363,0.597150876 Z" id="Path" fill="#FFFFFF"></path>
                <path d="M141.60652,66.3229677 C141.394985,66.3216874 141.199995,66.2080162 141.09423,66.0243232 L133.862599,53.5887668 L72.0422872,53.5887668 C67.1562406,53.5821862 63.1969533,49.6122458 63.1903905,44.7130526 L63.1903905,8.87571416 C63.1969533,3.97652091 67.1562406,0.00658052366 72.0422872,0 L141.904363,0 C146.79313,0 150.75626,3.97379258 150.75626,8.87571416 L150.75626,44.7130526 C150.754559,49.4604402 147.027492,53.3659683 142.297516,53.576821 L142.202206,65.7376245 C142.203746,66.0049198 142.020887,66.2378244 141.761398,66.2990761 C141.712526,66.3197196 141.659321,66.3279269 141.60652,66.3229677 L141.60652,66.3229677 Z M72.0422872,1.19457795 C67.8142167,1.20115584 64.3883231,4.63626741 64.3817628,8.87571416 L64.3817628,44.7130526 C64.3883231,48.9524993 67.8142167,52.3876109 72.0422872,52.3941888 L134.243839,52.3941888 C134.459625,52.391177 134.66016,52.5054239 134.768042,52.6928333 L141.082316,63.5515468 L141.153798,52.9914778 C141.153798,52.6616042 141.420496,52.3941888 141.749485,52.3941888 L141.952018,52.3941888 C146.180088,52.3876109 149.605982,48.9524993 149.612542,44.7130526 L149.612542,8.87571416 C149.612542,4.63353977 146.182809,1.19457795 141.952018,1.19457795 L72.0422872,1.19457795 Z" id="Shape" fill="#303337"></path>
                <polygon id="Path" fill="#303337" points="95.464668 34.5544912 126.773934 15.3456778 100.242071 26.4194154"></polygon>
                <path d="M95.464668,35.1517802 C95.3075442,35.1495361 95.1576694,35.0851312 95.0476876,34.9725935 C94.8569317,34.778419 94.8180083,34.4808296 94.9523778,34.2439009 L99.7178673,26.1207709 C99.7826135,26.0075213 99.8832559,25.9192222 100.003797,25.8699095 L126.535659,14.7842261 C126.82369,14.6639618 127.155469,14.7869224 127.296252,15.0661094 C127.437035,15.3452964 127.339117,15.6861042 127.071777,15.8474005 L95.7744248,35.0562139 C95.6819652,35.1161616 95.5747444,35.1492414 95.464668,35.1517802 Z M100.659051,26.8972465 L97.1921579,32.7865158 L119.94737,18.857737 L100.659051,26.8972465 Z" id="Shape" fill="#303337"></path>
                <polygon id="Path" fill="#F0AA3B" points="100.242071 26.4194154 110.487874 31.6636126 126.773934 15.3456778"></polygon>
                <path d="M110.487874,32.2131184 C110.405418,32.2308767 110.320141,32.2308767 110.237685,32.2131184 L100.003797,26.9689212 C99.7767607,26.8639729 99.6493357,26.6182656 99.6940399,26.3716322 C99.6988133,26.1594294 99.8304078,25.9709314 100.027624,25.8938011 L126.559487,14.8081177 C126.798758,14.720753 127.066522,14.810152 127.205799,15.0239034 C127.345075,15.2376548 127.319165,15.5194368 127.143259,15.7040512 L110.869113,32.0458775 C110.768177,32.1486599 110.631661,32.2085465 110.487874,32.2131184 Z M101.540667,26.4671985 L110.416391,30.9946489 L124.474585,16.9105749 L101.540667,26.4671985 Z" id="Shape" fill="#303337"></path>
                <polygon id="Path" fill="#F0AA3B" points="126.773934 15.3456778 93.0700095 23.4090789 85.4094852 19.0249779"></polygon>
                <path d="M93.0700095,23.9824775 C92.9778012,23.9826719 92.8872496,23.9579095 92.8079076,23.9108017 L85.1354695,19.5147548 C84.9317701,19.3963537 84.8262606,19.1607228 84.8733676,18.9294116 C84.924675,18.6942612 85.122645,18.5199662 85.3618303,18.4993636 L126.726279,14.8200635 C127.005313,14.8081387 127.25212,15.0000546 127.310051,15.2740031 C127.355947,15.5550237 127.180132,15.8246405 126.904985,15.8951836 L93.2010605,23.9824775 L93.0700095,23.9824775 Z M87.18463,19.4311344 L93.1414918,22.8595731 L119.351684,16.5641473 L87.18463,19.4311344 Z" id="Shape" fill="#303337"></path>
                <polygon id="Path" fill="#F0AA3B" points="93.0700095 23.4090789 95.464668 34.5544912 100.242071 26.4194154 126.773934 15.3456778"></polygon>
                <path d="M95.464668,35.0920564 L95.3812719,35.0920564 C95.1587876,35.0558645 94.9826345,34.8840112 94.9404641,34.6620032 L92.5577194,23.5285367 C92.525718,23.3891054 92.5504722,23.2426351 92.6265003,23.1215596 C92.7025284,23.0004842 92.8235571,22.9147942 92.962786,22.8834646 L126.654797,14.8081177 C126.931573,14.7484824 127.210209,14.9008747 127.310051,15.1664911 C127.394714,15.4394318 127.261355,15.7325827 127.000295,15.8474005 L100.62331,26.8494634 L95.9412169,34.8292441 C95.8383124,34.9935107 95.65813,35.0928777 95.464668,35.0920564 L95.464668,35.0920564 Z M93.737178,23.8152354 L95.7267699,33.0732145 L99.8012634,26.1446624 C99.8611833,26.0420155 99.9533621,25.9621923 100.063365,25.9176926 L120.316696,17.448135 L93.737178,23.8152354 Z" id="Shape" fill="#303337"></path>
                <path d="M137.103132,241.304746 C136.774144,241.304746 136.507446,241.03733 136.507446,240.707457 C136.507446,240.377583 136.774144,240.110168 137.103132,240.110168 C138.687658,240.110168 140.272183,240.110168 141.868622,239.99071 C142.19761,239.99071 142.464308,240.258125 142.464308,240.587999 C142.464308,240.917872 142.19761,241.185288 141.868622,241.185288 C140.272183,241.245017 138.675744,241.280854 137.103132,241.304746 Z M132.337643,241.304746 L132.337643,241.304746 C130.753118,241.304746 129.156679,241.304746 127.572153,241.185288 C127.247833,241.17234 126.993546,240.901433 127.000295,240.576053 C127.019255,240.247054 127.291146,239.990161 127.619808,239.990709 C129.204333,240.050439 130.776945,240.086276 132.385298,240.110168 C132.714286,240.110168 132.980984,240.377583 132.980984,240.707457 C132.980984,241.03733 132.714286,241.304746 132.385298,241.304746 L132.337643,241.304746 Z M146.634111,240.970264 C146.320783,240.970526 146.063128,240.722722 146.050339,240.408812 C146.04057,240.250331 146.094137,240.094472 146.199205,239.975672 C146.304273,239.856873 146.452194,239.78491 146.610284,239.775686 C148.182895,239.692065 149.767421,239.584553 151.375773,239.45315 C151.532645,239.440001 151.688164,239.490935 151.807049,239.594396 C151.925935,239.697858 151.99811,239.845077 152.007201,240.002656 C152.020358,240.161181 151.969906,240.31842 151.867029,240.439513 C151.764152,240.560607 151.61735,240.63555 151.459169,240.647728 C149.874644,240.767185 148.290119,240.874697 146.69368,240.970264 L146.634111,240.970264 Z M122.806664,240.970264 L122.806664,240.970264 C121.210225,240.874697 119.6257,240.767185 118.041174,240.635782 C117.828356,240.618711 117.640787,240.489093 117.549122,240.295756 C117.457458,240.102419 117.475624,239.874733 117.596777,239.698467 C117.717931,239.522201 117.923666,239.424133 118.136484,239.441204 C119.721009,239.572608 121.293621,239.68012 122.901974,239.775686 C123.230962,239.775686 123.49766,240.043101 123.49766,240.372975 C123.49766,240.702848 123.230962,240.970264 122.901974,240.970264 L122.806664,240.970264 Z M156.16509,240.21768 C155.862112,240.208739 155.610076,239.981296 155.569404,239.68012 C155.55279,239.521546 155.600098,239.362895 155.700794,239.23949 C155.801491,239.116086 155.947215,239.038174 156.105522,239.023102 C157.694018,238.855861 159.282515,238.676674 160.871011,238.485542 C161.083829,238.457801 161.295241,238.54601 161.42561,238.716941 C161.555979,238.887873 161.585499,239.115558 161.503049,239.31423 C161.4206,239.512903 161.238708,239.652379 161.025889,239.68012 C159.437393,239.88718 157.848896,240.066366 156.2604,240.21768 L156.16509,240.21768 Z M113.359081,240.21768 L113.299512,240.21768 C111.714987,240.038493 110.130462,239.84736 108.534023,239.644282 C108.205034,239.601399 107.973007,239.299219 108.015776,238.969346 C108.058544,238.639472 108.359913,238.406821 108.688901,238.449704 C110.249599,238.652782 111.822211,238.843915 113.454391,239.011156 C113.783379,239.030948 114.034075,239.314409 114.014336,239.644282 C113.994596,239.974156 113.711897,240.225526 113.382908,240.205734 L113.359081,240.21768 Z M165.624587,239.023102 C165.333993,239.021027 165.087303,238.809009 165.040814,238.521379 C165.013499,238.36404 165.051486,238.202341 165.145969,238.07377 C165.240451,237.945198 165.383225,237.860918 165.541191,237.840469 C167.101889,237.601554 168.6745,237.350693 170.235198,237.087885 C170.390312,237.060359 170.549936,237.096857 170.677815,237.189087 C170.805694,237.281318 170.890972,237.421453 170.91428,237.577662 C170.94539,237.731817 170.911983,237.892019 170.82188,238.020761 C170.731777,238.149503 170.592889,238.235483 170.437731,238.258572 C168.86512,238.533325 167.292508,238.784186 165.672242,239.023102 L165.624587,239.023102 Z M103.923412,238.927535 L103.828102,238.927535 C102.25549,238.676674 100.682879,238.401921 99.1221811,238.115222 C98.909363,238.076812 98.7331475,237.927477 98.6599135,237.72347 C98.5866795,237.519463 98.6275529,237.291778 98.767137,237.126181 C98.9067212,236.960584 99.12381,236.882234 99.3366282,236.920644 C100.897326,237.219289 102.458024,237.482096 104.018722,237.732957 C104.23154,237.750029 104.419109,237.879646 104.510773,238.072983 C104.602438,238.266321 104.584272,238.494006 104.463119,238.670272 C104.341965,238.846539 104.13623,238.944607 103.923412,238.927535 Z M175.024515,237.410421 C174.695526,237.443409 174.402159,237.202735 174.36926,236.872861 C174.336361,236.542988 174.576389,236.248831 174.905378,236.215843 C176.466075,235.905253 178.026773,235.582717 179.563644,235.248235 C179.892632,235.175663 180.218003,235.384247 180.290381,235.714121 C180.362758,236.043994 180.154734,236.370241 179.825745,236.442813 L175.143652,237.410421 L175.024515,237.410421 Z M94.5711387,237.171506 L94.4400877,237.171506 C92.8793899,236.837024 91.3306058,236.478651 89.7818218,236.096386 C89.6293315,236.059747 89.497953,235.963136 89.4172764,235.828314 C89.3365998,235.693491 89.3134092,235.531793 89.3529277,235.379639 C89.4294858,235.060308 89.7488083,234.862862 90.0677511,234.937645 C91.6046215,235.31991 93.1414918,235.666338 94.6902759,236.000819 C94.8454633,236.035033 94.9805868,236.129995 95.0656035,236.264593 C95.1506202,236.399191 95.1784832,236.562268 95.1429974,236.717566 C95.0792176,236.998022 94.8216579,237.190446 94.5353975,237.171506 L94.5711387,237.171506 Z M184.281478,235.367701 C184.008442,235.369093 183.77091,235.180541 183.709619,234.913754 C183.669842,234.760082 183.692717,234.596855 183.773192,234.460127 C183.853667,234.323399 183.98512,234.224423 184.138513,234.185061 C185.687297,233.802796 187.224168,233.404603 188.749124,232.990483 C189.064707,232.906614 189.388815,233.093078 189.475862,233.408585 C189.553643,233.727126 189.371066,234.051418 189.058881,234.149224 C187.522011,234.55538 185.973227,234.949591 184.424443,235.343802 L184.281478,235.367701 Z M85.2665205,234.913754 L85.0997283,234.913754 C83.562858,234.483705 82.0379014,234.041712 80.5129447,233.575826 C80.1839563,233.476864 79.9972679,233.129224 80.0959644,232.799351 C80.1946609,232.469477 80.541368,232.282286 80.8703564,232.381248 C82.3714856,232.847134 83.8964422,233.289128 85.4213989,233.70723 C85.7376917,233.799892 85.9226755,234.128459 85.8383792,234.447868 C85.7801763,234.708582 85.5563813,234.898832 85.2903479,234.913754 L85.2665205,234.913754 Z M193.490787,232.871025 C193.161798,232.917207 192.857763,232.68723 192.811704,232.357357 C192.765646,232.027483 192.995006,231.72263 193.323994,231.676447 C194.848951,231.234453 196.361994,230.756622 197.863123,230.278791 C198.075941,230.21264 198.30779,230.265356 198.471334,230.417083 C198.634878,230.568809 198.705271,230.796494 198.655997,231.014372 C198.606722,231.232249 198.445267,231.407218 198.232449,231.473369 C196.719406,231.963146 195.194449,232.429031 193.657579,232.882971 C193.609599,232.888096 193.561086,232.884043 193.514614,232.871025 L193.490787,232.871025 Z M76.1644356,232.106495 C76.1014058,232.117913 76.0368457,232.117913 75.973816,232.106495 C74.4607731,231.592827 72.9596439,231.043321 71.4823422,230.481869 C71.2124294,230.343564 71.0891362,230.024078 71.1959012,229.739625 C71.3026663,229.455172 71.605441,229.296466 71.8993225,229.370912 C73.3766242,229.920418 74.853926,230.457978 76.3550552,230.971646 C76.6642777,231.084217 76.827986,231.423104 76.7243806,231.736176 C76.6372806,231.957346 76.4253967,232.103703 76.188263,232.106495 L76.1644356,232.106495 Z M202.569044,229.932363 C202.31711,229.935891 202.091346,229.77695 202.009099,229.538153 C201.905494,229.225081 202.069202,228.886193 202.378424,228.773623 C203.879554,228.248009 205.368769,227.698503 206.846071,227.137051 C206.992843,227.079291 207.156676,227.083517 207.300292,227.148768 C207.443908,227.214019 207.555093,227.334746 207.608549,227.483479 C207.666521,227.632307 207.662606,227.798221 207.597681,227.944135 C207.532756,228.090048 207.412233,228.203796 207.263051,228.259954 C205.785749,228.821406 204.28462,229.370912 202.771577,229.908472 C202.713687,229.926062 202.653336,229.934131 202.592871,229.932363 L202.569044,229.932363 Z M67.264884,228.737786 C67.1903743,228.754709 67.1130329,228.754709 67.0385232,228.737786 C65.5612215,228.116605 64.0839197,227.471533 62.6542729,226.826461 C62.5097783,226.759148 62.3981994,226.6366 62.3444698,226.486201 C62.2907402,226.335802 62.2993386,226.17009 62.3683435,226.026094 C62.4330371,225.882034 62.5530616,225.770314 62.7011416,225.716322 C62.8492215,225.66233 63.0127803,225.670651 63.1546493,225.739395 C64.5723824,226.384467 66.0258567,227.029539 67.4912447,227.638774 C67.6382431,227.69694 67.7554425,227.812378 67.816064,227.958712 C67.8766856,228.105045 67.8755495,228.269771 67.8129153,228.415249 C67.7122432,228.611201 67.5084592,228.731943 67.2887114,228.72584 L67.264884,228.737786 Z M211.492423,226.539762 C211.249902,226.545369 211.030243,226.39694 210.944392,226.169443 C210.881757,226.023964 210.880621,225.859239 210.941243,225.712905 C211.001865,225.566572 211.119064,225.451134 211.266062,225.392967 C212.73145,224.783733 214.184925,224.198389 215.626485,223.51748 C215.771772,223.453587 215.936475,223.450444 216.084081,223.508748 C216.231687,223.567052 216.35,223.681987 216.412791,223.82807 C216.540176,224.128446 216.408835,224.476118 216.114948,224.616492 C214.661474,225.261564 213.196085,225.882744 211.718784,226.503925 C211.652671,226.52109 211.584531,226.529129 211.51625,226.527816 L211.492423,226.539762 Z M58.639348,224.759841 C58.5489623,224.757022 58.4599683,224.736741 58.3772461,224.700112 C56.9475993,223.983365 55.5298661,223.230781 54.1478742,222.466251 C54.0085625,222.390493 53.9051012,222.262194 53.8603831,222.109744 C53.815665,221.957293 53.8333769,221.79326 53.9095997,221.653938 C54.0713086,221.368408 54.4296022,221.262744 54.7197329,221.415023 C56.0898111,222.179553 57.4956305,222.920191 58.9133637,223.624992 C59.2018702,223.783121 59.316923,224.139696 59.1754656,224.437305 C59.0698685,224.635832 58.8637419,224.759841 58.639348,224.759841 Z M220.225182,222.657384 C219.995721,222.663888 219.78462,222.532183 219.689065,222.322902 C219.619257,222.180379 219.608919,222.015851 219.660335,221.86567 C219.711751,221.715489 219.82069,221.592017 219.963081,221.522535 C221.392727,220.82968 222.810461,220.124879 224.21628,219.396186 C224.50908,219.244444 224.869122,219.359433 225.020456,219.65302 C225.171791,219.946608 225.057111,220.307618 224.764311,220.45936 C223.346578,221.188053 221.928845,221.9048 220.475371,222.597655 C220.397656,222.635486 220.311325,222.651974 220.225182,222.645438 L220.225182,222.657384 Z M50.3116552,220.14877 C50.2015787,220.146231 50.0943579,220.113152 50.0018983,220.053204 C48.6318201,219.228945 47.2736556,218.368849 45.9512323,217.496807 C45.6794356,217.314525 45.6049913,216.946634 45.7844402,216.672548 C45.8696297,216.539012 46.0051916,216.445829 46.1601286,216.414308 C46.3150656,216.382787 46.4761279,216.415623 46.6064871,216.505307 C47.9169967,217.365403 49.2632475,218.213554 50.621412,219.037813 C50.8985872,219.207871 50.9886989,219.569288 50.8239453,219.850126 C50.7164512,220.032081 50.5225391,220.145124 50.3116552,220.14877 Z M228.683926,218.249391 C228.469409,218.247562 228.271103,218.134585 228.159722,217.950747 C228.007852,217.659835 228.113233,217.300578 228.397997,217.138434 C229.779989,216.361958 231.150067,215.561591 232.496318,214.749278 C232.679342,214.638315 232.907502,214.633685 233.094853,214.737133 C233.282203,214.840581 233.400282,215.03639 233.404609,215.250801 C233.408937,215.465213 233.298855,215.665652 233.115832,215.776615 C231.757667,216.573 230.375675,217.369385 228.969856,218.165771 C228.883145,218.217471 228.78476,218.246244 228.683926,218.249391 L228.683926,218.249391 Z M42.3652015,214.880711 C42.2419327,214.880108 42.121637,214.842674 42.0197035,214.773169 C40.7171363,213.825471 39.4423679,212.857863 38.1953982,211.870345 C37.9399035,211.665204 37.8973425,211.291793 38.1000884,211.03414 C38.3121265,210.782349 38.6833611,210.740407 38.9459628,210.938574 C40.1373351,211.918128 41.435931,212.87379 42.7106994,213.805561 C42.8408257,213.896991 42.9291291,214.036759 42.9559764,214.19379 C42.9828238,214.350821 42.9459899,214.512099 42.8536641,214.641766 C42.7374192,214.79405 42.556449,214.882566 42.3652015,214.880711 Z M34.9072104,208.907792 C34.763547,208.907162 34.6245675,208.856489 34.5140575,208.764442 C33.4418224,207.820726 32.3695873,206.853118 31.345007,205.885509 L30.9756816,205.527136 C30.8636163,205.417039 30.8004648,205.266347 30.8004648,205.109034 C30.8004648,204.95172 30.8636163,204.801028 30.9756816,204.690931 C31.0875316,204.577857 31.2397865,204.514254 31.3986188,204.514254 C31.5574511,204.514254 31.709706,204.577857 31.821556,204.690931 L32.1789677,205.037359 C33.2035479,206.004967 34.2519556,206.96063 35.3241908,207.880455 C35.5145987,208.043696 35.5827981,208.308947 35.4948347,208.544147 C35.4068713,208.779347 35.1815449,208.934229 34.9310379,208.931714 L34.9072104,208.907792 Z M27.9972507,202.337613 C27.8362563,202.337217 27.6819996,202.272771 27.5683566,202.158426 C26.4484666,200.963848 25.352404,199.76927 24.3039963,198.646367 C24.191931,198.53627 24.1287795,198.385578 24.1287795,198.228265 C24.1287795,198.070951 24.191931,197.920259 24.3039963,197.810162 C24.4158463,197.697088 24.5681012,197.633485 24.7269335,197.633485 C24.8857658,197.633485 25.0380207,197.697088 25.1498707,197.810162 C26.1982784,199.00474 27.2824273,200.199318 28.3904036,201.286384 C28.5031745,201.398535 28.5666065,201.5512 28.5666065,201.710459 C28.5666065,201.869719 28.5031745,202.022384 28.3904036,202.134535 C28.295223,202.264481 28.1549623,202.353978 27.9972507,202.385396 L27.9972507,202.337613 Z M21.6353222,195.170145 C21.4544725,195.167601 21.2841547,195.084402 21.170687,194.943175 C20.1461068,193.748597 19.1572677,192.434562 18.2041698,191.180255 C18.0134442,190.914678 18.0660484,190.545457 18.323307,190.34405 C18.4496957,190.249004 18.6085635,190.208193 18.7649615,190.230596 C18.9213595,190.252998 19.0624762,190.336779 19.1572677,190.463508 C20.0984519,191.658086 21.0872909,192.960176 22.0880437,194.190591 C22.1912651,194.310072 22.2419035,194.466334 22.2284399,194.623832 C22.2149763,194.781329 22.1385556,194.926671 22.0165614,195.026796 C21.926782,195.156873 21.7900637,195.246836 21.6353222,195.277657 L21.6353222,195.170145 Z M15.9048211,187.536792 C15.7082573,187.537234 15.5246689,187.438458 15.4163585,187.273985 C14.5109155,185.948003 13.6292999,184.586185 12.807253,183.236311 C12.6685455,182.958855 12.7648777,182.62111 13.0289176,182.459145 C13.2929575,182.297181 13.6367152,182.36497 13.8199195,182.615131 C14.6300527,183.941112 15.4997545,185.290986 16.3932838,186.605021 C16.4838474,186.734256 16.5184797,186.894704 16.4893144,187.049921 C16.460149,187.205139 16.3696617,187.34195 16.2384054,187.42928 C16.1570942,187.539358 16.0384531,187.615833 15.9048211,187.644304 L15.9048211,187.536792 Z M10.9248846,179.401716 C10.7072889,179.399777 10.507341,179.281308 10.4006808,179.091126 C9.62628874,177.681524 8.88763788,176.236085 8.1966419,174.814537 C8.12763695,174.670541 8.11903857,174.504828 8.17276816,174.35443 C8.22649776,174.204031 8.33807671,174.081483 8.48257127,174.01417 C8.62295994,173.944652 8.78531504,173.934596 8.93316953,173.986259 C9.08102403,174.037923 9.20198283,174.146976 9.26887703,174.288923 C9.94795928,175.698525 10.6866102,177.120072 11.4371747,178.517729 C11.5171826,178.653022 11.5382873,178.815341 11.4954869,178.966675 C11.4526865,179.118009 11.3497616,179.245067 11.210814,179.318096 C11.1396303,179.412211 11.0389055,179.479542 10.9248846,179.509228 L10.9248846,179.401716 Z M6.76699506,170.896321 C6.5221833,170.899996 6.30006151,170.753096 6.20705004,170.526002 C5.59945014,169.056671 5.01567767,167.539557 4.49147383,166.046335 C4.39042456,165.739328 4.55133273,165.407431 4.85453528,165.297467 C5.15773784,165.187503 5.49316286,165.339392 5.61136386,165.640178 C6.1355677,167.121455 6.70742644,168.614677 7.31502635,170.072062 C7.43165152,170.375488 7.29006278,170.717267 6.99335581,170.848538 C6.92215237,170.880434 6.84497988,170.896724 6.76699506,170.896321 L6.76699506,170.896321 Z M3.59794456,161.889204 C3.33184698,161.893312 3.09665996,161.716447 3.02608582,161.459155 C2.58527804,159.91815 2.18021144,158.353253 1.83471345,156.800301 C1.79922769,156.645004 1.82709065,156.481927 1.91210735,156.347329 C1.99712405,156.21273 2.13224761,156.117768 2.28743495,156.083555 C2.60607668,156.016889 2.91908612,156.219031 2.99034465,156.537494 C3.33584263,158.066554 3.72899552,159.60756 4.18171702,161.124674 C4.22595304,161.276748 4.20812804,161.440214 4.13216332,161.579111 C4.05619859,161.718007 3.92831678,161.820957 3.77665041,161.865312 C3.72692557,161.882745 3.67442333,161.890844 3.621772,161.889204 L3.59794456,161.889204 Z M1.51304291,152.571546 C1.21794427,152.575304 0.964551976,152.361882 0.917356724,152.069773 C0.667168527,150.480984 0.464635224,148.88025 0.309756816,147.291461 C0.280147885,146.961587 0.522842869,146.670105 0.851831248,146.640416 C1.18081963,146.610727 1.47152021,146.854075 1.50112919,147.183949 C1.65600759,148.7369 1.8585409,150.313743 2.10872909,151.87864 C2.13632841,152.035561 2.10025069,152.197035 2.00851932,152.32715 C1.91678795,152.457266 1.7770084,152.545235 1.62026642,152.571546 L1.51304291,152.571546 Z M0.595686185,143.074601 C0.273831671,143.068518 0.0125668182,142.811789 0,142.489258 C0,141.700836 0,140.912415 0,140.100102 C0,139.287789 0,138.451584 0,137.639271 C0.00294811085,137.479699 0.0707516093,137.328254 0.187711076,137.220001 C0.304670542,137.111747 0.460642819,137.056075 0.619513632,137.065874 C0.943833476,137.078821 1.19812087,137.349729 1.19137237,137.675109 C1.19137237,138.475476 1.19137237,139.287789 1.19137237,140.064264 C1.19137237,140.84074 1.19137237,141.60527 1.19137237,142.381746 C1.19780805,142.542201 1.13953529,142.698496 1.02970116,142.815369 C0.919867031,142.932241 0.767724899,142.999844 0.607599908,143.002926 L0.595686185,143.074601 Z M0.917356724,133.517977 L0.917356724,133.517977 C0.760057936,133.505938 0.614315011,133.430577 0.513321834,133.30906 C0.412328657,133.187542 0.364683971,133.030213 0.381239158,132.872905 C0.54803129,131.272171 0.762478316,129.65949 1.03649396,128.094593 C1.05980169,127.938384 1.14507995,127.798249 1.27295885,127.706018 C1.40083775,127.613788 1.56046245,127.57729 1.71557621,127.604816 C1.87231818,127.631077 2.01209774,127.719046 2.10382911,127.849162 C2.19556048,127.979277 2.2316382,128.140751 2.20403888,128.297672 C1.94193696,129.838677 1.72748994,131.41552 1.57261153,132.992363 C1.53010616,133.307037 1.25775251,133.538903 0.941184172,133.529923 L0.917356724,133.517977 Z M2.52570942,124.104703 L2.38274474,124.104703 C2.22935158,124.065341 2.09789875,123.966365 2.01742354,123.829637 C1.93694832,123.692909 1.91407302,123.529682 1.95385069,123.37601 C2.32317612,121.811113 2.7639839,120.258162 3.25244657,118.741048 C3.35462211,118.427831 3.69049145,118.256771 4.00301116,118.358783 C4.1521554,118.40538 4.27645156,118.509971 4.34809927,118.649162 C4.41974699,118.788353 4.43276812,118.95053 4.38425032,119.099421 C3.90770137,120.592644 3.47880732,122.121704 3.10948188,123.662709 C3.04548527,123.922814 2.81659322,124.108373 2.54953687,124.116649 L2.52570942,124.104703 Z M5.44457173,115.013965 C5.37015902,115.031737 5.29262368,115.031737 5.21821098,115.013965 C5.07119105,114.955469 4.95340929,114.840746 4.89083283,114.695089 C4.82825637,114.549431 4.82602358,114.384799 4.88462671,114.237489 C5.4803129,112.756213 6.14748143,111.274936 6.85039112,109.841442 C6.92690866,109.624046 7.12137049,109.470213 7.35003728,109.446185 C7.57870407,109.422158 7.80074694,109.532227 7.92054958,109.728995 C8.04035222,109.925763 8.03652365,110.174096 7.91071253,110.367057 C7.23163028,111.776659 6.57637548,113.222098 5.99260302,114.691429 C5.89223571,114.89085 5.69107497,115.019206 5.46839918,115.025911 L5.44457173,115.013965 Z M9.66202992,106.496637 C9.5568881,106.497343 9.45366886,106.468363 9.36418682,106.413004 C9.2264867,106.335514 9.12596652,106.205398 9.08556004,106.052341 C9.04515355,105.899283 9.06830768,105.736341 9.1497398,105.600691 C9.95987301,104.226926 10.8057474,102.853161 11.6873629,101.515234 C11.880313,101.275049 12.223912,101.221659 12.4803134,101.39202 C12.7367148,101.562382 12.8215967,101.90047 12.676202,102.172252 C11.8184139,103.486288 10.9725395,104.848107 10.17432,106.19798 C10.0685546,106.381673 9.87356467,106.495344 9.66202992,106.496637 L9.66202992,106.496637 Z M14.9159821,98.5168434 C14.7866602,98.5196128 14.6603706,98.477403 14.5585704,98.3973856 C14.2989115,98.2038982 14.2407329,97.8379781 14.4275194,97.5731268 C15.3806173,96.2829826 16.3694564,95.0047842 17.3821229,93.7743689 C17.4802443,93.6502921 17.6243147,93.5713702 17.7814562,93.5556137 C17.9385976,93.5398573 18.0954013,93.5886109 18.2160835,93.6907485 C18.4678138,93.8994219 18.5050145,94.2724301 18.2994796,94.526953 C17.2987268,95.721531 16.3218015,96.9997294 15.392531,98.2779278 C15.271838,98.413498 15.097088,98.4879666 14.9159821,98.4810061 L14.9159821,98.5168434 Z M20.95624,91.1343517 C20.8097546,91.137364 20.6681657,91.0814365 20.5630871,90.9790565 C20.4503162,90.8669056 20.3868841,90.714241 20.3868841,90.5549814 C20.3868841,90.3957217 20.4503162,90.2430571 20.5630871,90.1309062 C21.6353222,88.9363282 22.767126,87.7417503 23.8989297,86.6785759 C24.0087309,86.5662091 24.1590186,86.5028876 24.3159101,86.5028876 C24.4728015,86.5028876 24.6230892,86.5662091 24.7328904,86.6785759 C24.8456613,86.7907268 24.9090934,86.9433914 24.9090934,87.1026511 C24.9090934,87.2619108 24.8456613,87.4145753 24.7328904,87.5267263 C23.6130004,88.6137922 22.5050241,89.760587 21.4327889,90.9312734 C21.3074395,91.0565774 21.1321611,91.1180899 20.95624,91.0985143 L20.95624,91.1343517 Z M27.7708899,84.4566764 C27.6011801,84.4579087 27.4396848,84.3835085 27.3300822,84.2535827 C27.2180168,84.1434861 27.1548653,83.992794 27.1548653,83.8354804 C27.1548653,83.6781668 27.2180168,83.5274747 27.3300822,83.4173781 C28.5214545,82.3542037 29.7843092,81.3268667 31.0352502,80.3473128 C31.2988676,80.1906662 31.637563,80.2553645 31.8252748,80.4982249 C32.0129865,80.7410853 31.9909619,81.0860939 31.7739011,81.3029752 C30.5825287,82.2586375 29.3077603,83.2740288 28.1163879,84.3133116 C28.0151214,84.3841938 27.8943864,84.4217641 27.7708899,84.4208236 L27.7708899,84.4566764 Z M126.773934,82.5692278 C126.553078,82.5674705 126.35132,82.4433312 126.24973,82.2466917 C125.470169,80.9083637 124.543018,79.6621579 123.485746,78.5315543 C123.265324,78.2841491 123.28666,77.9044193 123.533401,77.683404 C123.780142,77.4623887 124.158853,77.4837819 124.379275,77.7311871 C125.506274,78.9319173 126.486171,80.2633515 127.298138,81.6971859 C127.372966,81.8361758 127.388598,81.9995885 127.341485,82.1503067 C127.294372,82.3010249 127.188512,82.4262552 127.047949,82.4975531 C126.961163,82.5327719 126.866826,82.5451099 126.773934,82.5333904 L126.773934,82.5692278 Z M35.3599319,78.5673917 C35.1622529,78.5724161 34.976588,78.472523 34.8714693,78.3045845 C34.7809056,78.1753497 34.7462733,78.0149018 34.7754387,77.8596845 C34.8046041,77.7044672 34.8950914,77.5676559 35.0263477,77.4803257 C36.3368573,76.5724465 37.6950218,75.7004046 39.0531863,74.8761458 C39.1879688,74.7895856 39.3522851,74.7623118 39.5076966,74.8007046 C39.6631081,74.8390974 39.7959813,74.9397888 39.8752332,75.079224 C39.9581916,75.2152529 39.983464,75.3788936 39.9454232,75.53371 C39.9073823,75.6885265 39.8091865,75.8216656 39.6726999,75.9034828 C38.3264491,76.7038501 36.9921121,77.575892 35.6935162,78.4598796 C35.5966555,78.5305769 35.4797341,78.5682598 35.3599319,78.5673917 Z M120.495401,75.4375974 C120.355282,75.4372392 120.219966,75.3863591 120.114162,75.2942481 C118.907115,74.2924086 117.642053,73.3629984 116.325598,72.5108815 C116.146831,72.3935165 116.044089,72.189439 116.056073,71.975523 C116.068058,71.761607 116.192949,71.5703514 116.383701,71.4738003 C116.574452,71.3772492 116.802086,71.390071 116.980853,71.507436 C118.334062,72.3904689 119.634859,73.3517392 120.876641,74.3863688 C121.065389,74.5481893 121.134214,74.8104429 121.049346,75.0444569 C120.964479,75.2784709 120.743727,75.4351407 120.495401,75.4375974 L120.495401,75.4375974 Z M43.461264,73.6457305 C43.2368701,73.6457305 43.0307436,73.5217218 42.9251465,73.3231945 C42.7762723,73.03269 42.8877224,72.6761544 43.1753347,72.5228272 C44.5811541,71.7821889 46.0346284,71.0773879 47.5000164,70.42037 C47.6433785,70.3523531 47.8081702,70.3457512 47.9564872,70.4020831 C48.1048042,70.4584149 48.2238788,70.5728312 48.2863221,70.7190145 C48.413707,71.0193899 48.2823661,71.3670627 47.988479,71.507436 C46.5469185,72.1525081 45.1172716,72.8453633 43.7352797,73.5740558 C43.6511924,73.6201356 43.5570851,73.6447514 43.461264,73.6457305 Z M112.560861,70.205346 C112.468879,70.2038908 112.378742,70.1792419 112.29876,70.1336713 C110.928681,69.4527619 109.475207,68.8076898 107.997905,68.2342924 C107.69347,68.1172107 107.539485,67.7764684 107.652407,67.4697625 C107.708414,67.3201794 107.821857,67.1993322 107.96738,67.1342322 C108.112902,67.0691323 108.27837,67.0652074 108.426799,67.1233349 C109.939842,67.7086781 111.429058,68.3179129 112.834877,69.070497 C113.12695,69.2195657 113.244068,69.5772049 113.096979,69.8708642 C112.987247,70.089991 112.757196,70.2218025 112.513207,70.205346 L112.560861,70.205346 Z M52.1940235,69.7275148 C51.9472785,69.7259185 51.7259999,69.5748553 51.6340785,69.3452499 C51.5764733,69.1980827 51.5806882,69.0338092 51.6457642,68.8898068 C51.7108402,68.7458043 51.8312428,68.63432 51.9795765,68.58072 C53.4687919,68.0073226 54.9937486,67.4817083 56.5187052,67.0038771 C56.6687353,66.9520854 56.8334819,66.965125 56.9735498,67.0398778 C57.1136177,67.1146307 57.2164135,67.2443758 57.2573561,67.3980878 C57.3054175,67.5485714 57.2907614,67.7121461 57.216719,67.8516303 C57.1426766,67.9911145 57.0155382,68.0946585 56.8642032,68.1387262 C55.3749877,68.6165573 53.8619448,69.1302259 52.3965568,69.6916775 C52.3169742,69.7225846 52.2313987,69.7348426 52.1463686,69.7275148 L52.1940235,69.7275148 Z M61.272281,66.8724735 C60.9432926,66.9120584 60.644591,66.6767328 60.6051124,66.3468592 C60.5656338,66.0169857 60.8003279,65.7174804 61.1293163,65.6778956 C62.6661866,65.2836849 64.2387982,64.9372573 65.8114097,64.6386128 C65.9662389,64.6068976 66.1272916,64.6381693 66.2591209,64.7255451 C66.3909501,64.8129209 66.4827512,64.9492397 66.5143194,65.1044982 C66.5727549,65.4302198 66.3611709,65.7431459 66.0377704,65.8092992 C64.4889864,66.1079437 62.9402023,66.4543713 61.4152456,66.8366362 L61.272281,66.8724735 Z M103.685137,66.7649615 L103.530259,66.7649615 C102.052957,66.3468592 100.516087,65.9645943 98.9434753,65.6420583 C98.7886334,65.6104052 98.6526805,65.518357 98.5655391,65.3861731 C98.4783978,65.2539891 98.44721,65.0925031 98.47884,64.9372573 C98.5502612,64.6178289 98.8606682,64.4120925 99.1817497,64.4713719 C100.778189,64.8058537 102.3508,65.1881186 103.851929,65.6659498 C104.168222,65.7586116 104.353206,66.0871789 104.26891,66.4065881 C104.160478,66.6527727 103.903797,66.7984546 103.637482,66.7649615 L103.685137,66.7649615 Z M70.6245541,65.0686608 C70.2955657,65.091752 70.010199,64.8430557 69.9871698,64.5131821 C69.9641406,64.1833085 70.2121696,63.897174 70.541158,63.8740829 C72.1137695,63.6590589 73.7102085,63.4798722 75.3066475,63.3484686 C75.5194657,63.3313973 75.7252008,63.4294654 75.8463543,63.6057317 C75.9675079,63.7819979 75.9856739,64.0096832 75.8940092,64.2030207 C75.8023446,64.3963582 75.6147755,64.5259753 75.4019573,64.5430465 C73.8412595,64.6863959 72.2567342,64.8536368 70.7079501,65.0686608 L70.6245541,65.0686608 Z M94.3686054,64.8536368 L94.2852093,64.8536368 C92.7721664,64.6625043 91.1876411,64.4952634 89.5912022,64.3877514 C89.4331122,64.3785268 89.2851919,64.3065646 89.1801238,64.1877648 C89.0750557,64.068965 89.0214883,63.9131062 89.0312572,63.7546251 C89.0566674,63.4226468 89.3431709,63.1726116 89.6745982,63.1931735 C91.2948647,63.3126313 92.9032174,63.4679264 94.4400877,63.6710046 C94.6529059,63.6838081 94.8427458,63.8094816 94.9380965,64.0006852 C95.0334472,64.1918887 95.0198228,64.419574 94.9023553,64.5979741 C94.7848879,64.7763743 94.5814236,64.878386 94.3686054,64.8655826 L94.3686054,64.8536368 Z M80.0721369,64.2444021 C79.7522335,64.2446588 79.4892468,63.9915122 79.4764508,63.6710046 C79.4694824,63.3434491 79.7221201,63.0690219 80.0483095,63.0498241 C81.6328347,63.0498241 83.2531012,62.9781494 84.813799,63.0498241 C85.1400269,63.0626616 85.3978226,63.3317014 85.3975716,63.6590589 C85.3944431,63.8174801 85.328663,63.9681629 85.2147089,64.0779428 C85.1007548,64.1877227 84.9479664,64.2476022 84.7899715,64.2444021 C83.2292737,64.2444021 81.620921,64.2444021 80.024482,64.2444021 L80.0721369,64.2444021 Z" id="Shape" fill="#D1D3D4"></path>
            </g>
        </g>
    </g>
</svg>