<?xml version="1.0" encoding="UTF-8"?>
<svg width="32px" height="32px" viewBox="0 0 32 32" version="1.1" xmlns="http://www.w3.org/2000/svg" xmlns:xlink="http://www.w3.org/1999/xlink">
    <title>insta@1x</title>
    <defs>
        <linearGradient x1="50%" y1="99.7089109%" x2="50%" y2="0.776721582%" id="linearGradient-1">
            <stop stop-color="#E09B3D" offset="0%"></stop>
            <stop stop-color="#C74C4D" offset="30%"></stop>
            <stop stop-color="#C21975" offset="60%"></stop>
            <stop stop-color="#7024C4" offset="100%"></stop>
        </linearGradient>
    </defs>
    <g id="Page-1" stroke="none" stroke-width="1" fill="none" fill-rule="evenodd">
        <g id="Рефералка" transform="translate(-664.000000, -1140.000000)">
            <g id="Group-4" transform="translate(540.000000, 1060.000000)">
                <g id="Group-3" transform="translate(36.000000, 80.000000)">
                    <g id="insta" transform="translate(88.000000, 0.000000)">
                        <circle id="Oval-Copy-2" fill="#FFFFFF" cx="16" cy="16" r="16"></circle>
                        <g id="Combined-Shape-2-Copy" fill="url(#linearGradient-1)" fill-rule="nonzero">
                            <path d="M16,0 C24.836556,0 32,7.163444 32,16 C32,24.836556 24.836556,32 16,32 C7.163444,32 0,24.836556 0,16 C0,7.163444 7.163444,0 16,0 Z M6.52906199,9.45538876 C5.9153977,11.0289137 6.00451439,13.0724673 6.00451439,15.9985924 C6.00451439,18.5662786 5.92216606,20.9795429 6.52906199,22.540669 C8.01133199,26.3527473 11.9324663,25.9875453 15.9979923,25.9875453 L16.4991633,25.9894019 C16.6663042,25.9905197 16.8334605,25.9920165 17.0004272,25.9935322 L17.5005531,25.9977766 C17.5837442,25.9983736 17.6668366,25.9988853 17.7498046,25.9992668 L18.2459158,25.9996333 C21.3759047,25.9874993 24.2522906,25.6574053 25.4680506,22.540669 C26.082843,20.9513637 25.9925982,18.9382437 25.9925982,15.9985924 C25.9925982,12.0963407 26.2080576,9.57712278 24.3140459,7.68573677 C22.8293742,6.20223973 20.9396999,6.01115855 18.3953341,6.0005052 L17.7454588,6.00095726 C17.192289,6.00339389 16.6098007,6.00963963 15.9957362,6.00963963 C15.8259512,6.00963963 15.6520279,6.00898038 15.4786476,6.00801153 L14.9603056,6.0045259 C11.2596257,5.97790139 7.88827752,5.96980508 6.52906199,9.45538876 Z M24.2411385,20.1908682 C24.0276517,24.8758615 20.4695388,24.361724 16.0958838,24.361724 L15.5260835,24.3612063 C8.11014352,24.345943 7.89189189,23.9378795 7.89189189,16.134391 C7.89189189,8.04295338 8.52444531,7.91611769 15.1978838,7.90932292 L15.1978838,7.91158785 C23.7531687,7.89799831 24.8420643,6.9444657 24.2411385,20.1908682 Z M16.0005644,10.8648649 C13.164078,10.8648649 10.8648649,13.1647012 10.8648649,16.0005642 C10.8648649,18.8364272 13.164078,21.1351351 16.0005644,21.1351351 C18.8370507,21.1351351 21.1351351,18.8364272 21.1351351,16.0005642 C21.1351351,13.1647012 18.8370507,10.8648649 16.0005644,10.8648649 Z M15.9997926,12.7567568 C20.3216262,12.7567568 20.3271599,19.5135135 15.9997926,19.5135135 C11.6790657,19.5135135 11.6724252,12.7567568 15.9997926,12.7567568 Z M21.2702703,9.51351351 C20.5986626,9.51351351 20.0540541,10.0581221 20.0540541,10.7297297 C20.0540541,11.4013374 20.5986626,11.9459459 21.2702703,11.9459459 C21.9418779,11.9459459 22.4864865,11.4013374 22.4864865,10.7297297 C22.4864865,10.0581221 21.9418779,9.51351351 21.2702703,9.51351351 Z" id="Combined-Shape"></path>
                        </g>
                    </g>
                </g>
            </g>
        </g>
    </g>
</svg>