<?xml version="1.0" encoding="UTF-8"?>
<svg width="32px" height="32px" viewBox="0 0 32 32" version="1.1" xmlns="http://www.w3.org/2000/svg" xmlns:xlink="http://www.w3.org/1999/xlink">
    <title>tel@1x</title>
    <g id="Page-1" stroke="none" stroke-width="1" fill="none" fill-rule="evenodd">
        <g id="Рефералка" transform="translate(-620.000000, -1140.000000)" fill-rule="nonzero">
            <g id="Group-4" transform="translate(540.000000, 1060.000000)">
                <g id="Group-3" transform="translate(36.000000, 80.000000)">
                    <g id="telegram-(3)" transform="translate(44.000000, 0.000000)">
                        <circle id="Oval" fill="#039BE5" cx="16" cy="16" r="16"></circle>
                        <path d="M7.32133333,15.6533333 L22.748,9.70533333 C23.464,9.44666667 24.0893333,9.88 23.8573333,10.9626667 L23.8586667,10.9613333 L21.232,23.336 C21.0373333,24.2133333 20.516,24.4266667 19.7866667,24.0133333 L15.7866667,21.0653333 L13.8573333,22.924 C13.644,23.1373333 13.464,23.3173333 13.0506667,23.3173333 L13.3346667,19.2466667 L20.748,12.5493333 C21.0706667,12.2653333 20.676,12.1053333 20.2506667,12.388 L11.0893333,18.156 L7.14,16.924 C6.28266667,16.652 6.264,16.0666667 7.32133333,15.6533333 Z" id="Path" fill="#FFFFFF"></path>
                    </g>
                </g>
            </g>
        </g>
    </g>
</svg>