<?xml version="1.0" encoding="UTF-8"?>
<svg width="32px" height="32px" viewBox="0 0 32 32" version="1.1" xmlns="http://www.w3.org/2000/svg" xmlns:xlink="http://www.w3.org/1999/xlink">
    <title>wp@1x</title>
    <g id="Page-1" stroke="none" stroke-width="1" fill="none" fill-rule="evenodd">
        <g id="Рефералка" transform="translate(-576.000000, -1140.000000)">
            <g id="Group-4" transform="translate(540.000000, 1060.000000)">
                <g id="wp" transform="translate(36.000000, 80.000000)">
                    <circle id="Oval" fill="#FFFFFF" cx="16" cy="16" r="16"></circle>
                    <g id="whatsapp-2-copy" fill="#4CAF50" fill-rule="nonzero">
                        <g id="whatsapp">
                            <path d="M16.004,0 C24.826,0 32,7.178 32,16 C32,24.822 24.826,32 16.004,32 C12.75,32 9.732,31.032 7.202,29.356 L7.202,29.356 L1.052,31.322 L3.046,25.378 C1.128,22.744 0,19.5 0,16 C0,7.176 7.174,0 15.996,0 L15.996,0 Z M9.77201309,7.35135135 C9.15748305,7.35135135 8.51684553,7.53226078 8.12924979,7.9282514 C7.65730678,8.41067653 6.48648649,9.53432506 6.48648649,11.8419253 C6.48648649,14.1495255 8.16740688,16.3807417 8.39434117,16.6923079 C8.63131681,17.0038742 11.6718347,21.8060143 16.393273,23.7638563 C20.0844697,25.2955561 21.1809841,25.1528386 22.0204402,24.9739393 C23.247492,24.7086055 24.7858253,23.8000382 25.1734211,22.7045311 C25.5610168,21.6070139 25.5610168,20.6723153 25.4485538,20.4733149 C25.3340825,20.2743145 25.022801,20.1617487 24.550858,19.9245563 C24.078915,19.6893741 21.7834645,18.5536649 21.3496786,18.402907 C20.9239258,18.2420987 20.5182557,18.2983816 20.1969328,18.7526653 C19.7450724,19.3858482 19.3012452,20.0290817 18.9417652,20.417032 C18.6585994,20.7185477 18.1966977,20.7567397 17.809102,20.5959313 L17.809102,20.5959313 L17.6599555,20.5350849 C17.0442726,20.2861937 15.6855258,19.7351039 14.0415911,18.2702401 C12.6518695,17.0320156 11.7079835,15.4902653 11.4348591,15.0279412 C11.2072553,14.6342957 11.3394663,14.3788449 11.5153757,14.1568959 L11.6236363,14.0269091 C11.8606119,13.7334338 12.0855379,13.5243829 12.3225136,13.2510087 C12.5594892,12.9776344 12.6920349,12.834917 12.842655,12.5133002 C13.0033164,12.201734 12.8888452,11.8801173 12.7743739,11.6429249 C12.6619109,11.4057325 11.7180249,9.09813234 11.3304291,8.16343365 C11.0191476,7.41768481 10.7821719,7.38954334 10.3102289,7.36944229 C10.1495675,7.36140187 9.97083163,7.35135135 9.77201309,7.35135135 Z" id="Combined-Shape"></path>
                        </g>
                    </g>
                </g>
            </g>
        </g>
    </g>
</svg>