<svg width="159" height="39" viewBox="0 0 159 39" fill="none" xmlns="http://www.w3.org/2000/svg">
<path d="M14.8013 9.87729L4.61536 17.5085C3.46889 18.361 2.73398 20.1623 2.98385 21.5098L4.93872 32.4548C5.29148 34.4073 7.29044 35.9885 9.40699 35.9885H25.8691C27.9709 35.9885 29.9846 34.3935 30.3373 32.4548L32.2922 21.5098C32.5274 20.1623 31.7925 18.361 30.6607 17.5085L20.4748 9.89105C18.9021 8.70855 16.3593 8.70854 14.8013 9.87729Z" stroke="#389769" stroke-width="1.5" stroke-linecap="round" stroke-linejoin="round"/>
<path d="M17.6379 27.3125C19.6674 27.3125 21.3125 25.7735 21.3125 23.875C21.3125 21.9765 19.6674 20.4375 17.6379 20.4375C15.6085 20.4375 13.9634 21.9765 13.9634 23.875C13.9634 25.7735 15.6085 27.3125 17.6379 27.3125Z" stroke="#389769" stroke-width="1.5" stroke-linecap="round" stroke-linejoin="round"/>
<path d="M41.432 11.6V34H46.104V11.6H41.432ZM49.048 34C51.3947 34 53.4427 33.5413 55.192 32.624C56.9627 31.7067 58.3387 30.416 59.32 28.752C60.3013 27.0667 60.792 25.0827 60.792 22.8C60.792 20.5173 60.3013 18.544 59.32 16.88C58.3387 15.1947 56.9627 13.8933 55.192 12.976C53.4427 12.0587 51.3947 11.6 49.048 11.6H44.376V15.76H48.888C49.8693 15.76 50.7973 15.8987 51.672 16.176C52.5467 16.432 53.3147 16.848 53.976 17.424C54.6373 18 55.1493 18.736 55.512 19.632C55.896 20.5067 56.088 21.5627 56.088 22.8C56.088 24.0373 55.896 25.104 55.512 26C55.1493 26.8747 54.6373 27.6 53.976 28.176C53.3147 28.752 52.5467 29.1787 51.672 29.456C50.7973 29.712 49.8693 29.84 48.888 29.84H44.376V34H49.048ZM62.9622 26.64C62.9622 28.1547 63.3142 29.4987 64.0182 30.672C64.7436 31.824 65.7143 32.72 66.9303 33.36C68.1676 34 69.5649 34.32 71.1223 34.32C72.6796 34.32 74.0663 34 75.2823 33.36C76.5196 32.72 77.4903 31.824 78.1943 30.672C78.9196 29.4987 79.2823 28.1547 79.2823 26.64C79.2823 25.104 78.9196 23.76 78.1943 22.608C77.4903 21.456 76.5196 20.56 75.2823 19.92C74.0663 19.28 72.6796 18.96 71.1223 18.96C69.5649 18.96 68.1676 19.28 66.9303 19.92C65.7143 20.56 64.7436 21.456 64.0182 22.608C63.3142 23.76 62.9622 25.104 62.9622 26.64ZM67.1863 26.64C67.1863 25.808 67.3569 25.072 67.6983 24.432C68.0609 23.792 68.5409 23.3013 69.1383 22.96C69.7356 22.6187 70.3969 22.448 71.1223 22.448C71.8476 22.448 72.5089 22.6187 73.1063 22.96C73.7036 23.3013 74.1729 23.792 74.5143 24.432C74.8769 25.072 75.0583 25.808 75.0583 26.64C75.0583 27.472 74.8769 28.208 74.5143 28.848C74.1729 29.4667 73.7036 29.9573 73.1063 30.32C72.5089 30.6613 71.8476 30.832 71.1223 30.832C70.3969 30.832 69.7356 30.6613 69.1383 30.32C68.5409 29.9573 68.0609 29.4667 67.6983 28.848C67.3569 28.208 67.1863 27.472 67.1863 26.64ZM104.152 24.592C104.152 23.3973 103.981 22.384 103.64 21.552C103.32 20.6987 102.818 20.0587 102.136 19.632C101.453 19.184 100.568 18.96 99.4798 18.96C98.4771 18.96 97.5811 19.1733 96.7917 19.6C96.0238 20.0267 95.3731 20.656 94.8398 21.488C94.5198 20.656 94.0078 20.0267 93.3038 19.6C92.5998 19.1733 91.7038 18.96 90.6158 18.96C89.6344 18.96 88.7918 19.1733 88.0878 19.6C87.3838 20.0267 86.8184 20.6453 86.3918 21.456V19.28H82.3918V34H86.3918V25.04C86.3918 24.4 86.4984 23.856 86.7118 23.408C86.9251 22.9387 87.2238 22.5973 87.6078 22.384C87.9918 22.1493 88.4398 22.032 88.9518 22.032C89.7198 22.032 90.2744 22.288 90.6158 22.8C90.9571 23.2907 91.1278 24.0373 91.1278 25.04V34H95.2558V25.04C95.2558 24.4 95.3624 23.856 95.5758 23.408C95.7891 22.9387 96.0878 22.5973 96.4718 22.384C96.8558 22.1493 97.3038 22.032 97.8158 22.032C98.5838 22.032 99.1384 22.288 99.4798 22.8C99.8211 23.2907 99.9918 24.0373 99.9918 25.04V34H104.152V24.592ZM112.172 22.8C112.172 21.3707 112.47 20.1013 113.068 18.992C113.665 17.8827 114.486 17.008 115.532 16.368C116.577 15.728 117.793 15.408 119.18 15.408C120.588 15.408 121.814 15.728 122.86 16.368C123.905 17.008 124.716 17.8827 125.292 18.992C125.868 20.1013 126.156 21.3707 126.156 22.8C126.156 24.2293 125.857 25.4987 125.26 26.608C124.684 27.7173 123.873 28.592 122.828 29.232C121.782 29.872 120.566 30.192 119.18 30.192C117.793 30.192 116.577 29.872 115.532 29.232C114.486 28.592 113.665 27.7173 113.068 26.608C112.47 25.4987 112.172 24.2293 112.172 22.8ZM107.34 22.8C107.34 24.4853 107.628 26.0533 108.204 27.504C108.78 28.9333 109.601 30.1813 110.668 31.248C111.734 32.3147 112.982 33.1467 114.411 33.744C115.862 34.32 117.452 34.608 119.18 34.608C120.908 34.608 122.486 34.32 123.916 33.744C125.366 33.1467 126.614 32.3147 127.66 31.248C128.726 30.1813 129.548 28.9333 130.124 27.504C130.721 26.0533 131.02 24.4853 131.02 22.8C131.02 21.0933 130.721 19.536 130.124 18.128C129.548 16.6987 128.716 15.4613 127.628 14.416C126.561 13.3707 125.313 12.5707 123.884 12.016C122.454 11.44 120.886 11.152 119.18 11.152C117.494 11.152 115.926 11.44 114.476 12.016C113.046 12.5707 111.798 13.3707 110.732 14.416C109.665 15.4613 108.833 16.6987 108.236 18.128C107.638 19.536 107.34 21.0933 107.34 22.8ZM132.925 19.28V22.768H142.141V19.28H132.925ZM141.693 13.2L143.453 10.096C143.261 9.88267 142.994 9.65867 142.653 9.424C142.333 9.18933 141.938 8.99733 141.469 8.848C141 8.67733 140.434 8.592 139.773 8.592C138.664 8.592 137.725 8.80533 136.957 9.232C136.189 9.63733 135.613 10.224 135.229 10.992C134.845 11.76 134.653 12.7093 134.653 13.84V34H138.653V14.768C138.653 14.2133 138.717 13.7547 138.845 13.392C138.973 13.0293 139.144 12.7733 139.357 12.624C139.592 12.4533 139.869 12.368 140.189 12.368C140.445 12.368 140.701 12.432 140.957 12.56C141.234 12.6667 141.48 12.88 141.693 13.2ZM143.363 19.28V22.768H152.579V19.28H143.363ZM152.131 13.2L153.891 10.096C153.699 9.88267 153.432 9.65867 153.091 9.424C152.771 9.18933 152.376 8.99733 151.907 8.848C151.437 8.67733 150.872 8.592 150.211 8.592C149.101 8.592 148.163 8.80533 147.395 9.232C146.627 9.63733 146.051 10.224 145.667 10.992C145.283 11.76 145.091 12.7093 145.091 13.84V34H149.091V14.768C149.091 14.2133 149.155 13.7547 149.283 13.392C149.411 13.0293 149.581 12.7733 149.795 12.624C150.029 12.4533 150.307 12.368 150.627 12.368C150.883 12.368 151.139 12.432 151.395 12.56C151.672 12.6667 151.917 12.88 152.131 13.2Z" fill="#131635"/>
</svg>
