<?xml version="1.0" standalone="no"?>
<!DOCTYPE svg PUBLIC "-//W3C//DTD SVG 20010904//EN"
 "http://www.w3.org/TR/2001/REC-SVG-20010904/DTD/svg10.dtd">
<svg version="1.0" xmlns="http://www.w3.org/2000/svg"
 width="979.000000pt" height="251.000000pt" viewBox="0 0 979.000000 251.000000"
 preserveAspectRatio="xMidYMid meet">

<g transform="translate(0.000000,251.000000) scale(0.100000,-0.100000)"
fill="#000000" stroke="none">
<path d="M4195 2274 c-63 -14 -105 -28 -105 -36 0 -5 -5 -6 -10 -3 -12 7 -116
-49 -127 -69 -5 -7 -16 -17 -25 -22 -20 -11 -118 -142 -119 -160 -2 -19 -4
-25 -19 -59 -16 -35 -19 -242 -5 -253 6 -4 11 -18 13 -31 3 -31 32 -91 44 -91
5 0 6 -5 3 -10 -4 -6 24 -41 62 -79 68 -67 168 -128 223 -133 14 -2 28 -7 31
-11 3 -4 46 -11 96 -14 98 -6 249 19 237 39 -4 6 1 8 12 4 21 -6 144 66 144
84 0 6 4 9 9 6 5 -3 11 3 14 14 3 11 11 20 19 20 17 0 76 90 101 155 24 63 33
194 18 265 -17 79 -66 171 -120 227 -46 47 -108 98 -120 98 -3 1 -20 9 -38 18
-69 37 -251 59 -338 41z m181 -219 c112 -33 178 -132 178 -265 1 -120 -50
-204 -149 -251 -54 -25 -165 -25 -220 0 -150 69 -197 293 -91 433 64 83 174
115 282 83z"/>
<path d="M364 2257 c-3 -8 -3 -56 -2 -108 l3 -94 265 -5 c237 -5 269 -7 305
-25 41 -20 102 -65 89 -65 -4 0 0 -8 8 -17 9 -10 20 -34 26 -53 13 -42 17
-147 7 -175 -4 -11 -11 -31 -16 -45 -15 -39 -66 -89 -120 -115 -45 -21 -61
-23 -175 -22 l-126 2 1 123 2 123 -133 -3 -133 -3 0 -230 0 -230 230 1 c271 0
333 3 340 15 3 4 12 6 20 2 9 -3 22 0 30 7 9 7 18 10 22 6 3 -3 17 1 30 9 13
9 23 13 23 10 0 -3 26 8 57 26 60 32 125 88 117 100 -2 4 3 9 11 13 8 3 15 13
15 21 0 9 4 14 8 11 11 -7 60 101 68 154 30 177 -15 329 -128 435 -56 53 -182
124 -195 111 -4 -3 -12 -1 -20 6 -8 6 -39 12 -69 14 -31 1 -58 5 -62 8 -3 3
-115 6 -249 6 -193 0 -245 -3 -249 -13z"/>
<path d="M4970 2160 l0 -100 355 0 355 1 0 99 0 100 -355 0 -355 0 0 -100z"/>
<path d="M5850 2160 l0 -100 355 0 355 0 0 100 0 100 -355 0 -355 0 0 -100z"/>
<path d="M8942 2115 l3 -95 -58 0 -58 0 3 -87 3 -88 49 -3 c28 -1 51 -4 53 -6
2 -1 4 -79 6 -172 3 -144 7 -176 24 -215 29 -63 80 -105 122 -100 7 2 10 -2 7
-7 -16 -26 157 -41 244 -21 70 16 72 20 45 97 -36 105 -35 103 -55 92 -28 -15
-92 -11 -115 6 -18 13 -20 29 -23 159 -3 103 -7 145 -15 145 -7 0 -6 4 3 10
10 6 11 10 3 10 -7 0 -13 5 -13 10 0 7 6 7 19 0 11 -5 54 -10 95 -10 l76 0 0
91 c0 88 -1 90 -22 89 -13 -1 -52 -2 -88 -1 l-65 1 3 95 3 95 -126 0 -126 0 3
-95z"/>
<path d="M1780 2060 c-68 -9 -130 -28 -130 -41 0 -6 -4 -8 -8 -5 -11 7 -72
-31 -72 -44 0 -5 -4 -9 -9 -7 -5 1 -28 -22 -51 -51 -49 -61 -80 -149 -80 -225
0 -57 28 -167 42 -167 5 0 6 -4 3 -10 -3 -5 -1 -10 4 -10 6 0 11 -7 11 -15 0
-8 5 -15 10 -15 6 0 10 -6 10 -13 0 -15 78 -83 91 -79 5 1 9 -2 9 -6 0 -10 32
-26 100 -50 55 -20 220 -21 265 -2 17 7 38 15 48 17 28 5 57 22 57 34 0 6 5 7
10 4 6 -3 10 1 10 10 0 9 5 13 11 9 17 -10 88 70 117 134 24 50 27 69 27 157
0 87 -3 107 -26 155 -28 60 -86 133 -99 125 -4 -3 -10 2 -13 10 -10 24 -107
67 -186 81 -42 7 -80 13 -86 12 -5 0 -35 -4 -65 -8z m201 -287 c18 -36 20 -55
15 -106 -9 -88 -8 -87 -19 -87 -6 0 -8 -3 -4 -6 12 -12 -54 -56 -91 -61 -20
-3 -39 -7 -41 -9 -8 -7 -87 31 -99 48 -7 10 -20 18 -27 18 -8 0 -14 8 -13 18
1 9 -1 38 -6 64 -8 46 15 158 32 158 4 0 19 11 34 24 14 14 27 23 29 21 2 -2
20 0 39 4 54 11 123 -28 151 -86z"/>
<path d="M2828 2064 c-3 -3 -20 -6 -37 -6 -17 -1 -31 -5 -31 -10 0 -5 -4 -6
-10 -3 -12 7 -67 -20 -97 -48 l-23 -20 0 36 0 37 -125 0 -125 0 2 -367 3 -368
128 -3 127 -3 0 203 c0 112 5 220 10 240 15 53 61 88 116 88 104 0 114 -26
114 -298 0 -148 3 -211 12 -220 8 -8 52 -12 130 -12 l118 0 0 198 c1 222 7
262 46 303 23 24 36 29 75 29 26 0 60 -7 75 -15 16 -8 25 -15 20 -15 -5 0 -2
-8 7 -17 13 -15 16 -53 17 -242 0 -123 3 -228 6 -233 3 -4 61 -8 130 -8 l125
0 -1 254 c-1 140 -4 257 -7 260 -3 3 -7 20 -8 37 -2 17 -12 44 -24 60 -12 15
-21 32 -21 37 0 11 -43 52 -55 52 -5 0 -16 7 -25 15 -27 24 -125 44 -188 39
-71 -7 -165 -48 -197 -86 -20 -23 -28 -27 -42 -19 -10 6 -13 11 -8 11 13 0
-42 48 -77 66 -15 8 -35 11 -44 7 -11 -4 -15 -3 -11 4 5 7 -5 11 -27 11 -19 0
-43 3 -53 6 -11 3 -22 4 -25 0z"/>
<path d="M7453 2045 c-23 -7 -63 -28 -88 -45 -45 -31 -45 -31 -46 -8 -1 13 -1
31 0 41 2 15 -9 17 -118 17 l-121 0 0 -365 0 -366 125 2 125 1 0 197 c0 251
10 284 95 321 31 13 49 15 80 8 39 -9 90 -47 94 -71 1 -6 5 -112 8 -234 l5
-223 124 0 124 0 0 230 c0 127 -4 230 -9 230 -4 0 -6 11 -4 25 14 70 -68 188
-157 228 -57 26 -178 32 -237 12z"/>
<path d="M8290 2050 c-75 -19 -134 -52 -192 -110 -33 -32 -57 -64 -53 -69 3
-6 2 -11 -3 -11 -4 0 -16 -17 -26 -37 -37 -76 -26 -246 21 -321 52 -85 143
-150 246 -177 89 -23 307 -12 307 15 0 5 6 7 14 4 7 -3 20 2 29 10 9 9 19 16
24 16 4 0 22 11 38 25 25 21 28 26 15 35 -8 5 -12 10 -8 10 3 0 -19 26 -50 58
-49 50 -59 57 -72 46 -36 -31 -93 -45 -169 -43 -67 2 -80 5 -113 31 -32 25
-68 88 -50 88 4 0 126 0 271 0 l263 -1 -4 84 c-6 103 -36 175 -100 241 -47 47
-126 93 -180 103 -57 10 -172 12 -208 3z m213 -205 c14 -13 28 -38 32 -56 5
-24 9 -28 17 -18 7 11 8 10 6 -5 -3 -17 -15 -18 -165 -20 -93 0 -163 3 -163 8
0 20 52 96 73 108 59 32 155 24 200 -17z"/>
<path d="M4970 1585 l1 -266 127 3 127 3 0 155 c0 85 4 160 9 165 5 6 90 9
227 7 l219 -3 0 101 0 100 -355 0 -355 0 0 -265z"/>
<path d="M5850 1585 l0 -265 130 0 131 0 -1 160 c-2 134 1 162 14 176 9 8 16
11 16 5 0 -8 67 -11 210 -11 l210 0 0 100 0 100 -355 0 -355 0 0 -265z"/>
<path d="M6718 1585 c-55 -30 -86 -133 -56 -188 17 -34 65 -76 93 -83 69 -17
165 30 185 91 14 42 5 138 -11 114 -7 -11 -9 -9 -9 8 0 11 -13 32 -29 46 -24
20 -41 25 -88 25 -32 1 -70 -5 -85 -13z"/>
<path d="M4067 1063 c-4 -3 -33 -5 -65 -4 -87 3 -232 -40 -232 -69 0 -6 -6
-10 -14 -10 -17 0 -58 -54 -49 -64 3 -3 1 -6 -5 -6 -15 0 -40 -49 -49 -97 -12
-63 -3 -332 13 -397 21 -85 58 -135 128 -171 50 -25 69 -29 130 -29 40 1 87 8
108 17 37 16 130 100 126 114 -1 5 3 18 10 31 16 28 32 152 22 172 -3 8 -5 27
-4 42 2 15 -2 30 -7 33 -5 4 -7 10 -4 15 9 14 -24 79 -61 120 -60 67 -175 94
-273 64 -31 -10 -63 -23 -72 -31 -8 -7 -19 -13 -22 -13 -10 0 3 51 19 78 8 12
11 22 8 22 -13 0 78 62 110 75 17 7 65 16 106 20 101 8 153 14 156 18 2 2 -2
20 -8 40 -9 31 -16 37 -38 37 -15 0 -30 -3 -33 -7z m-41 -354 c39 -37 62 -102
65 -184 3 -54 -24 -149 -50 -176 -17 -17 -76 -50 -87 -48 -4 0 -11 -5 -15 -13
-7 -10 -9 -10 -9 0 0 6 -11 12 -25 12 -68 0 -140 73 -144 147 -1 26 -7 50 -13
54 -7 5 -7 17 1 40 12 38 25 110 23 122 -1 4 3 7 8 7 6 0 10 6 10 14 0 8 19
27 43 41 35 22 51 25 100 22 49 -3 62 -8 93 -38z"/>
<path d="M120 625 l0 -395 253 0 252 0 2 45 2 46 -200 -3 c-109 -2 -200 0
-202 4 -1 4 -1 70 1 145 l3 138 175 -2 c96 -1 181 0 188 3 9 3 13 20 12 47
l-1 42 -188 5 c-103 3 -187 8 -187 13 0 4 0 54 0 112 l0 105 195 0 195 0 0 45
0 45 -250 0 -250 0 0 -395z"/>
<path d="M985 829 c-27 -6 -58 -17 -67 -26 -10 -9 -18 -13 -18 -9 0 4 -10 -2
-22 -14 -12 -11 -25 -20 -30 -20 -4 0 -8 -5 -8 -11 0 -7 -7 -17 -16 -23 -9 -7
-17 -24 -17 -39 -1 -15 -7 -27 -13 -27 -14 0 -22 -29 -31 -110 -4 -38 -2 -60
4 -60 6 0 8 -10 6 -23 -8 -40 34 -130 82 -177 25 -24 45 -40 45 -35 0 6 4 4 9
-3 22 -36 196 -46 280 -17 33 11 36 15 39 57 l3 45 -53 -18 c-68 -24 -156 -24
-205 -2 -35 17 -81 58 -84 76 -1 4 -2 10 -4 15 -18 67 -26 190 -12 195 4 1 9
14 11 27 3 34 42 77 89 102 30 15 56 19 110 17 40 -1 77 -6 84 -11 7 -5 17 -7
23 -3 5 3 10 2 10 -3 0 -6 7 -12 15 -16 24 -9 21 80 -4 93 -39 21 -164 32
-226 20z"/>
<path d="M3216 832 c-3 -5 -15 -8 -25 -5 -48 12 -192 -105 -177 -144 7 -17 -4
-44 -15 -37 -5 3 -9 -5 -9 -18 -1 -13 -3 -54 -6 -91 -3 -37 -2 -76 2 -85 4 -9
6 -23 5 -29 -1 -7 3 -13 9 -13 6 0 8 -4 5 -10 -3 -5 -2 -10 3 -10 6 0 8 -8 5
-18 -2 -10 7 -31 21 -47 14 -17 26 -33 26 -36 0 -10 52 -42 67 -42 7 0 13 -4
13 -8 0 -13 110 -31 138 -24 15 4 40 9 55 11 53 7 101 43 143 106 13 21 25 46
27 55 1 10 6 24 11 31 13 21 11 189 -2 205 -7 8 -9 16 -6 19 10 10 -23 72 -60
115 -20 22 -55 48 -76 57 -52 21 -145 32 -154 18z m122 -101 c2 -6 10 -11 18
-11 9 0 13 -4 10 -9 -3 -4 3 -16 14 -26 11 -10 20 -26 20 -37 0 -10 7 -18 18
-19 9 0 13 -2 7 -5 -6 -2 -10 -48 -9 -109 0 -58 -3 -105 -8 -105 -4 0 -8 -6
-8 -13 0 -8 -9 -22 -20 -32 -11 -10 -18 -20 -15 -23 13 -13 -70 -42 -120 -42
-49 0 -59 4 -93 35 -39 34 -62 87 -62 139 0 15 -5 36 -10 47 -8 14 -7 19 1 19
7 0 10 13 7 33 -5 45 37 125 82 155 30 21 43 23 100 19 35 -3 66 -10 68 -16z"/>
<path d="M7293 829 c-51 -10 -102 -35 -110 -55 -3 -7 -11 -14 -18 -14 -8 0
-17 -9 -20 -20 -3 -11 -11 -20 -16 -20 -11 0 -39 -61 -44 -94 -1 -12 -6 -29
-10 -39 -9 -22 0 -138 16 -191 10 -38 104 -144 129 -147 19 -3 25 -5 50 -19
34 -19 188 -20 199 -1 5 7 10 9 12 3 3 -6 25 -3 59 7 l55 17 3 48 c3 44 1 48
-15 41 -102 -44 -206 -57 -283 -35 -62 18 -106 75 -124 163 l-6 27 226 0 227
0 -5 73 c-8 122 -79 238 -140 228 -5 0 -8 3 -8 8 0 20 -112 33 -177 20z m155
-99 c34 -21 71 -87 72 -127 0 -23 0 -23 -170 -23 -192 0 -187 -2 -151 76 17
38 54 73 91 87 37 14 126 6 158 -13z"/>
<path d="M1332 783 l3 -38 118 0 117 0 0 -255 0 -256 50 -1 51 -2 -1 252 -1
252 115 3 116 3 0 39 0 40 -286 0 -285 0 3 -37z"/>
<path d="M2037 813 c-4 -3 -7 -136 -7 -295 l0 -288 145 0 c186 0 238 11 289
61 23 24 36 45 32 54 -3 8 0 15 5 15 16 0 4 105 -15 134 -16 25 -76 72 -76 60
0 -3 -7 0 -17 7 -11 10 -54 15 -140 18 l-123 3 0 119 0 119 -43 0 c-24 0 -47
-3 -50 -7z m337 -342 c37 -35 37 -102 0 -136 -25 -23 -34 -25 -135 -25 l-109
0 0 98 0 97 109 -5 c98 -5 112 -8 135 -29z"/>
<path d="M4290 811 c0 -5 6 -12 13 -14 10 -4 10 -6 0 -6 -7 -1 -13 -13 -13
-27 l0 -25 93 2 92 2 3 -257 2 -256 159 0 c86 0 161 3 165 7 4 4 13 8 19 9 7
0 20 2 29 2 32 3 87 62 99 105 18 67 4 122 -42 167 -49 47 -106 62 -234 59
l-90 -2 -3 122 -3 121 -144 0 c-81 0 -145 -4 -145 -9z m549 -355 c22 -26 18
-80 -8 -112 -22 -28 -25 -29 -136 -33 -131 -4 -122 -12 -117 110 l3 78 87 3
c90 3 142 -11 171 -46z"/>
<path d="M5270 811 c0 -6 -6 -8 -14 -5 -38 15 -135 -68 -121 -103 2 -7 0 -13
-5 -13 -13 0 -13 -67 0 -75 5 -3 7 -12 4 -19 -6 -16 44 -78 57 -70 5 3 9 0 9
-5 0 -6 6 -11 13 -11 7 0 21 -6 31 -13 17 -12 15 -17 -25 -76 -24 -34 -48 -70
-54 -79 -5 -9 -12 -19 -15 -22 -10 -10 -60 -79 -60 -83 0 -2 23 -3 52 -3 l52
1 48 68 c26 37 47 73 45 80 -1 6 3 11 8 10 6 -1 24 19 40 43 l30 45 59 -3 58
-3 -1 -122 -2 -123 43 0 c24 0 49 4 56 9 10 6 12 66 10 292 l-3 284 -157 3
c-100 1 -158 -1 -158 -7z m210 -161 l0 -90 -86 0 c-142 0 -193 42 -158 128 9
23 19 40 23 38 4 -3 13 -1 21 5 8 5 57 9 108 9 l92 0 0 -90z"/>
<path d="M5776 812 c-3 -5 -4 -137 -3 -293 l2 -284 154 -3 c85 -2 161 0 170 4
9 4 19 6 24 6 4 -1 7 2 7 7 0 6 8 9 18 8 48 -3 102 69 102 138 0 62 -49 137
-82 127 -5 -1 -8 3 -8 9 0 6 -7 9 -15 5 -29 -11 -15 12 20 33 25 15 33 25 28
37 -4 11 -2 15 4 11 15 -9 23 16 23 70 0 38 -5 50 -33 78 -18 18 -51 38 -72
44 -46 13 -331 15 -339 3z m305 -84 c28 -12 37 -23 41 -46 10 -71 -20 -92
-147 -102 -95 -7 -119 -4 -109 12 4 6 0 14 -7 19 -11 7 -11 9 -1 9 8 0 13 10
12 28 -1 15 -2 41 -1 59 l1 32 73 3 c95 4 96 4 138 -14z m14 -243 c53 -26 71
-90 37 -131 -29 -36 -57 -44 -161 -44 l-101 0 0 95 0 95 96 0 c66 0 106 -5
129 -15z"/>
<path d="M6521 701 c1 -66 -1 -123 -4 -128 -3 -4 -4 -24 -4 -43 1 -20 -2 -40
-5 -45 -3 -6 -9 -29 -13 -53 -8 -48 -51 -98 -93 -108 -39 -10 -46 -15 -31 -25
11 -7 11 -9 1 -9 -7 0 -11 -11 -10 -29 2 -24 6 -28 28 -26 52 7 100 24 100 36
0 5 7 9 15 9 19 0 77 80 71 97 -3 7 -2 13 3 13 10 0 31 102 33 152 0 18 1 70
2 116 l1 82 103 0 102 0 0 -255 0 -255 50 0 50 0 0 295 0 295 -201 0 -200 0 2
-119z"/>
<path d="M7780 525 l0 -295 51 0 51 0 -4 135 -3 135 153 0 c83 0 155 0 158 0
3 0 5 -61 5 -135 l-2 -135 51 0 50 0 0 295 0 295 -51 -1 -50 -2 3 -118 c2 -66
0 -119 -4 -119 -79 -3 -302 0 -306 4 -3 4 -4 58 -3 121 l2 115 -50 0 -51 0 0
-295z"/>
<path d="M8490 525 l0 -295 63 0 c61 0 64 1 80 33 29 54 52 92 58 97 15 12 97
159 91 164 -3 3 0 6 6 6 6 0 9 7 5 17 -4 11 -3 14 5 9 11 -6 59 70 54 87 -1 4
3 7 8 7 6 0 16 12 23 28 10 22 12 -13 15 -210 l2 -238 50 0 50 0 0 295 0 296
-67 -3 -66 -3 -37 -60 c-89 -146 -135 -228 -132 -237 1 -5 -2 -8 -7 -8 -5 0
-14 -15 -22 -32 -7 -18 -23 -44 -36 -57 -13 -13 -23 -30 -23 -37 0 -8 -4 -14
-10 -14 -12 0 -12 14 -10 263 l1 187 -50 0 -51 0 0 -295z"/>
<path d="M9324 813 c-12 -2 -30 -13 -40 -24 -9 -10 -22 -19 -28 -19 -46 0 -74
-136 -42 -199 9 -17 21 -29 25 -26 5 3 11 -2 15 -10 3 -8 24 -22 46 -31 39
-16 40 -17 24 -35 -9 -11 -13 -19 -9 -19 5 0 2 -6 -6 -13 -22 -18 -69 -84 -69
-96 0 -6 -6 -11 -12 -11 -9 0 -8 -4 2 -10 13 -8 13 -10 -1 -10 -9 0 -28 -18
-43 -40 l-26 -40 53 2 53 2 50 70 c27 39 51 75 53 81 2 5 7 12 11 15 3 3 19
22 34 43 27 36 31 37 90 37 l61 0 -3 -125 -3 -125 50 0 51 0 0 295 0 295 -157
-1 c-87 -1 -168 -4 -179 -6z m237 -77 c2 -2 3 -43 1 -91 l-4 -87 -102 4 c-92
3 -105 6 -132 28 -40 34 -37 88 7 125 28 23 38 25 128 25 54 0 100 -2 102 -4z"/>
</g>
</svg>
