<svg width="225" height="53" viewBox="0 0 225 53" fill="none" xmlns="http://www.w3.org/2000/svg">
<path d="M21.0927 11.4987L6.57715 22.3736C4.94336 23.5885 3.89607 26.1555 4.25215 28.0757L7.03796 43.673C7.54066 46.4554 10.3893 48.7088 13.4055 48.7088H36.865C39.8603 48.7088 42.7299 46.4358 43.2326 43.673L46.0184 28.0757C46.3535 26.1555 45.3062 23.5885 43.6934 22.3736L29.1778 11.5183C26.9366 9.83314 23.313 9.83312 21.0927 11.4987Z" stroke="#389769" stroke-width="1.5" stroke-linecap="round" stroke-linejoin="round"/>
<path d="M25.1352 36.3447C28.0272 36.3447 30.3717 34.1515 30.3717 31.446C30.3717 28.7406 28.0272 26.5474 25.1352 26.5474C22.2431 26.5474 19.8987 28.7406 19.8987 31.446C19.8987 34.1515 22.2431 36.3447 25.1352 36.3447Z" stroke="#389769" stroke-width="1.5" stroke-linecap="round" stroke-linejoin="round"/>
<path d="M59.96 34L56.44 36.44C57.0533 37.72 57.88 38.9067 58.92 40C59.96 41.0933 61.1733 41.9733 62.56 42.64C63.9733 43.28 65.5067 43.6 67.16 43.6C68.36 43.6 69.5067 43.4 70.6 43C71.72 42.6267 72.72 42.0933 73.6 41.4C74.48 40.68 75.1733 39.8 75.68 38.76C76.1867 37.72 76.44 36.5467 76.44 35.24C76.44 34.0133 76.2267 32.9467 75.8 32.04C75.4 31.1333 74.8533 30.3467 74.16 29.68C73.4667 28.9867 72.6933 28.4133 71.84 27.96C71.0133 27.5067 70.1867 27.1333 69.36 26.84C67.8667 26.3067 66.6533 25.7867 65.72 25.28C64.7867 24.7733 64.0933 24.24 63.64 23.68C63.2133 23.0933 63 22.44 63 21.72C63 20.92 63.3067 20.2267 63.92 19.64C64.5333 19.0267 65.4933 18.72 66.8 18.72C67.7333 18.72 68.5467 18.9067 69.24 19.28C69.96 19.6267 70.5867 20.1067 71.12 20.72C71.6533 21.3067 72.0933 21.9467 72.44 22.64L76.28 20.48C75.8 19.4933 75.1333 18.5467 74.28 17.64C73.4533 16.7333 72.4267 15.9867 71.2 15.4C69.9733 14.8133 68.5333 14.52 66.88 14.52C65.2 14.52 63.6933 14.84 62.36 15.48C61.0533 16.0933 60.0133 16.9733 59.24 18.12C58.4667 19.24 58.08 20.5467 58.08 22.04C58.08 23.3467 58.3333 24.4667 58.84 25.4C59.3467 26.3067 59.9867 27.08 60.76 27.72C61.5333 28.3333 62.3467 28.8533 63.2 29.28C64.0533 29.68 64.8267 30 65.52 30.24C66.6933 30.6667 67.72 31.1067 68.6 31.56C69.5067 31.9867 70.2133 32.52 70.72 33.16C71.2267 33.7733 71.48 34.6 71.48 35.64C71.48 36.7333 71.08 37.6267 70.28 38.32C69.48 39.0133 68.44 39.36 67.16 39.36C66.0933 39.36 65.1333 39.1467 64.28 38.72C63.4267 38.2667 62.64 37.64 61.92 36.84C61.2267 36.0133 60.5733 35.0667 59.96 34ZM79.5241 33.8C79.5241 35.6667 79.9507 37.3333 80.8041 38.8C81.6841 40.24 82.8707 41.3733 84.3641 42.2C85.8574 43 87.5507 43.4 89.4441 43.4C91.3374 43.4 93.0174 43 94.4841 42.2C95.9774 41.3733 97.1641 40.24 98.0441 38.8C98.9241 37.3333 99.3641 35.6667 99.3641 33.8C99.3641 31.9067 98.9241 30.24 98.0441 28.8C97.1641 27.36 95.9774 26.24 94.4841 25.44C93.0174 24.6133 91.3374 24.2 89.4441 24.2C87.5507 24.2 85.8574 24.6133 84.3641 25.44C82.8707 26.24 81.6841 27.36 80.8041 28.8C79.9507 30.24 79.5241 31.9067 79.5241 33.8ZM83.9641 33.8C83.9641 32.6533 84.2041 31.64 84.6841 30.76C85.1641 29.88 85.8174 29.2 86.6441 28.72C87.4707 28.24 88.4041 28 89.4441 28C90.4574 28 91.3774 28.24 92.2041 28.72C93.0574 29.2 93.7241 29.88 94.2041 30.76C94.6841 31.64 94.9241 32.6533 94.9241 33.8C94.9241 34.9467 94.6841 35.96 94.2041 36.84C93.7241 37.6933 93.0574 38.3733 92.2041 38.88C91.3774 39.36 90.4574 39.6 89.4441 39.6C88.4041 39.6 87.4707 39.36 86.6441 38.88C85.8174 38.3733 85.1641 37.6933 84.6841 36.84C84.2041 35.96 83.9641 34.9467 83.9641 33.8ZM107.663 11.8H103.303V43H107.663V11.8ZM122.903 33.8C122.903 31.7733 122.49 30.0533 121.663 28.64C120.836 27.2 119.743 26.1067 118.383 25.36C117.023 24.5867 115.543 24.2 113.943 24.2C112.423 24.2 111.063 24.5867 109.863 25.36C108.69 26.1333 107.77 27.24 107.103 28.68C106.436 30.0933 106.103 31.8 106.103 33.8C106.103 35.7733 106.436 37.48 107.103 38.92C107.77 40.36 108.69 41.4667 109.863 42.24C111.063 43.0133 112.423 43.4 113.943 43.4C115.543 43.4 117.023 43.0267 118.383 42.28C119.743 41.5067 120.836 40.4 121.663 38.96C122.49 37.52 122.903 35.8 122.903 33.8ZM118.423 33.8C118.423 35.0267 118.17 36.08 117.663 36.96C117.156 37.84 116.476 38.5067 115.623 38.96C114.796 39.4133 113.876 39.64 112.863 39.64C112.036 39.64 111.223 39.4133 110.423 38.96C109.623 38.5067 108.956 37.8533 108.423 37C107.916 36.12 107.663 35.0533 107.663 33.8C107.663 32.5467 107.916 31.4933 108.423 30.64C108.956 29.76 109.623 29.0933 110.423 28.64C111.223 28.1867 112.036 27.96 112.863 27.96C113.876 27.96 114.796 28.1867 115.623 28.64C116.476 29.0933 117.156 29.76 117.663 30.64C118.17 31.52 118.423 32.5733 118.423 33.8ZM133.138 29.64L142.058 43H147.738L138.258 29.64H133.138ZM127.378 15V43H132.098V15H127.378ZM130.178 19.08H135.818C136.884 19.08 137.818 19.2667 138.618 19.64C139.444 20.0133 140.084 20.5467 140.538 21.24C140.991 21.9333 141.218 22.7867 141.218 23.8C141.218 24.7867 140.991 25.64 140.538 26.36C140.084 27.0533 139.444 27.5867 138.618 27.96C137.818 28.3333 136.884 28.52 135.818 28.52H130.178V32.4H136.018C138.044 32.4 139.804 32.04 141.298 31.32C142.818 30.6 143.991 29.5867 144.818 28.28C145.644 26.9733 146.058 25.44 146.058 23.68C146.058 21.92 145.644 20.4 144.818 19.12C143.991 17.8133 142.818 16.8 141.298 16.08C139.804 15.36 138.044 15 136.018 15H130.178V19.08ZM158.807 43.4C160.94 43.4 162.767 42.9867 164.287 42.16C165.807 41.3333 167.047 40.0933 168.007 38.44L164.287 36.92C163.7 37.9067 162.967 38.64 162.087 39.12C161.207 39.6 160.18 39.84 159.007 39.84C157.887 39.84 156.927 39.6 156.127 39.12C155.354 38.64 154.767 37.9467 154.367 37.04C153.967 36.1067 153.767 34.9733 153.767 33.64C153.794 32.3067 154.007 31.1867 154.407 30.28C154.807 29.3733 155.394 28.68 156.167 28.2C156.94 27.72 157.874 27.48 158.967 27.48C159.874 27.48 160.66 27.68 161.327 28.08C162.02 28.48 162.554 29.04 162.927 29.76C163.327 30.48 163.527 31.3333 163.527 32.32C163.527 32.5067 163.474 32.7467 163.367 33.04C163.287 33.3067 163.207 33.52 163.127 33.68L164.447 31.84H151.967V34.8H168.127C168.154 34.6933 168.167 34.52 168.167 34.28C168.194 34.04 168.207 33.8133 168.207 33.6C168.207 31.6267 167.834 29.9467 167.087 28.56C166.367 27.1467 165.327 26.0667 163.967 25.32C162.607 24.5733 160.954 24.2 159.007 24.2C157.06 24.2 155.367 24.6 153.927 25.4C152.487 26.1733 151.367 27.28 150.567 28.72C149.794 30.16 149.407 31.8533 149.407 33.8C149.407 35.72 149.794 37.4 150.567 38.84C151.34 40.28 152.434 41.4 153.847 42.2C155.287 43 156.94 43.4 158.807 43.4ZM184.17 31.8V43H188.61V31.32C188.61 29.1067 188.064 27.3733 186.97 26.12C185.877 24.84 184.29 24.2 182.21 24.2C180.93 24.2 179.824 24.4667 178.89 25C177.984 25.5333 177.237 26.3467 176.65 27.44V24.6H172.33V43H176.65V31.8C176.65 30.9733 176.824 30.2533 177.17 29.64C177.517 29 177.997 28.52 178.61 28.2C179.224 27.8533 179.93 27.68 180.73 27.68C181.904 27.68 182.77 28.0267 183.33 28.72C183.89 29.4133 184.17 30.44 184.17 31.8ZM191.567 24.6V28.4H202.007V24.6H191.567ZM194.647 18.2V43H198.927V18.2H194.647ZM205.587 40.96C205.587 41.7067 205.853 42.36 206.387 42.92C206.947 43.48 207.613 43.76 208.387 43.76C209.213 43.76 209.893 43.48 210.427 42.92C210.96 42.36 211.227 41.7067 211.227 40.96C211.227 40.1867 210.96 39.5333 210.427 39C209.893 38.44 209.213 38.16 208.387 38.16C207.613 38.16 206.947 38.44 206.387 39C205.853 39.5333 205.587 40.1867 205.587 40.96Z" fill="#131635"/>
</svg>
